<?xml version="1.0" encoding="utf-8"?>
<svg xmlns="http://www.w3.org/2000/svg" xmlns:xlink="http://www.w3.org/1999/xlink" width="600" height="600" viewBox="0 0 2400 2400">
<defs>
  <clipPath id="clip650">
    <rect x="0" y="0" width="2400" height="2400"/>
  </clipPath>
</defs>
<path clip-path="url(#clip650)" d="
M0 2400 L2400 2400 L2400 0 L0 0  Z
  " fill="#ffffff" fill-rule="evenodd" fill-opacity="1"/>
<defs>
  <clipPath id="clip651">
    <rect x="480" y="240" width="1681" height="1681"/>
  </clipPath>
</defs>
<path clip-path="url(#clip650)" d="
M273.302 2174.14 L2352.76 2174.14 L2352.76 153.712 L273.302 153.712  Z
  " fill="#ffffff" fill-rule="evenodd" fill-opacity="1"/>
<defs>
  <clipPath id="clip652">
    <rect x="273" y="153" width="2080" height="2021"/>
  </clipPath>
</defs>
<polyline clip-path="url(#clip652)" style="stroke:#000000; stroke-linecap:butt; stroke-linejoin:round; stroke-width:2; stroke-opacity:0.1; fill:none" points="
  495.634,2174.14 495.634,153.712 
  "/>
<polyline clip-path="url(#clip652)" style="stroke:#000000; stroke-linecap:butt; stroke-linejoin:round; stroke-width:2; stroke-opacity:0.1; fill:none" points="
  904.331,2174.14 904.331,153.712 
  "/>
<polyline clip-path="url(#clip652)" style="stroke:#000000; stroke-linecap:butt; stroke-linejoin:round; stroke-width:2; stroke-opacity:0.1; fill:none" points="
  1313.03,2174.14 1313.03,153.712 
  "/>
<polyline clip-path="url(#clip652)" style="stroke:#000000; stroke-linecap:butt; stroke-linejoin:round; stroke-width:2; stroke-opacity:0.1; fill:none" points="
  1721.73,2174.14 1721.73,153.712 
  "/>
<polyline clip-path="url(#clip652)" style="stroke:#000000; stroke-linecap:butt; stroke-linejoin:round; stroke-width:2; stroke-opacity:0.1; fill:none" points="
  2130.42,2174.14 2130.42,153.712 
  "/>
<polyline clip-path="url(#clip650)" style="stroke:#000000; stroke-linecap:butt; stroke-linejoin:round; stroke-width:4; stroke-opacity:1; fill:none" points="
  273.302,2174.14 2352.76,2174.14 
  "/>
<polyline clip-path="url(#clip650)" style="stroke:#000000; stroke-linecap:butt; stroke-linejoin:round; stroke-width:4; stroke-opacity:1; fill:none" points="
  495.634,2174.14 495.634,2155.24 
  "/>
<polyline clip-path="url(#clip650)" style="stroke:#000000; stroke-linecap:butt; stroke-linejoin:round; stroke-width:4; stroke-opacity:1; fill:none" points="
  904.331,2174.14 904.331,2155.24 
  "/>
<polyline clip-path="url(#clip650)" style="stroke:#000000; stroke-linecap:butt; stroke-linejoin:round; stroke-width:4; stroke-opacity:1; fill:none" points="
  1313.03,2174.14 1313.03,2155.24 
  "/>
<polyline clip-path="url(#clip650)" style="stroke:#000000; stroke-linecap:butt; stroke-linejoin:round; stroke-width:4; stroke-opacity:1; fill:none" points="
  1721.73,2174.14 1721.73,2155.24 
  "/>
<polyline clip-path="url(#clip650)" style="stroke:#000000; stroke-linecap:butt; stroke-linejoin:round; stroke-width:4; stroke-opacity:1; fill:none" points="
  2130.42,2174.14 2130.42,2155.24 
  "/>
<path clip-path="url(#clip650)" d="M442.162 2219.71 L471.837 2219.71 L471.837 2223.65 L442.162 2223.65 L442.162 2219.71 Z" fill="#000000" fill-rule="evenodd" fill-opacity="1" /><path clip-path="url(#clip650)" d="M481.976 2201.98 L500.333 2201.98 L500.333 2205.92 L486.259 2205.92 L486.259 2214.39 Q487.277 2214.04 488.296 2213.88 Q489.314 2213.69 490.333 2213.69 Q496.12 2213.69 499.499 2216.86 Q502.879 2220.04 502.879 2225.45 Q502.879 2231.03 499.407 2234.13 Q495.935 2237.21 489.615 2237.21 Q487.439 2237.21 485.171 2236.84 Q482.925 2236.47 480.518 2235.73 L480.518 2231.03 Q482.601 2232.16 484.823 2232.72 Q487.046 2233.28 489.523 2233.28 Q493.527 2233.28 495.865 2231.17 Q498.203 2229.06 498.203 2225.45 Q498.203 2221.84 495.865 2219.73 Q493.527 2217.63 489.523 2217.63 Q487.648 2217.63 485.773 2218.04 Q483.921 2218.46 481.976 2219.34 L481.976 2201.98 Z" fill="#000000" fill-rule="evenodd" fill-opacity="1" /><path clip-path="url(#clip650)" d="M512.092 2230.66 L516.976 2230.66 L516.976 2236.54 L512.092 2236.54 L512.092 2230.66 Z" fill="#000000" fill-rule="evenodd" fill-opacity="1" /><path clip-path="url(#clip650)" d="M537.161 2205.06 Q533.55 2205.06 531.721 2208.62 Q529.916 2212.16 529.916 2219.29 Q529.916 2226.4 531.721 2229.97 Q533.55 2233.51 537.161 2233.51 Q540.795 2233.51 542.601 2229.97 Q544.43 2226.4 544.43 2219.29 Q544.43 2212.16 542.601 2208.62 Q540.795 2205.06 537.161 2205.06 M537.161 2201.35 Q542.971 2201.35 546.027 2205.96 Q549.106 2210.54 549.106 2219.29 Q549.106 2228.02 546.027 2232.63 Q542.971 2237.21 537.161 2237.21 Q531.351 2237.21 528.272 2232.63 Q525.217 2228.02 525.217 2219.29 Q525.217 2210.54 528.272 2205.96 Q531.351 2201.35 537.161 2201.35 Z" fill="#000000" fill-rule="evenodd" fill-opacity="1" /><path clip-path="url(#clip650)" d="M851.357 2219.71 L881.033 2219.71 L881.033 2223.65 L851.357 2223.65 L851.357 2219.71 Z" fill="#000000" fill-rule="evenodd" fill-opacity="1" /><path clip-path="url(#clip650)" d="M895.153 2232.6 L911.472 2232.6 L911.472 2236.54 L889.528 2236.54 L889.528 2232.6 Q892.19 2229.85 896.773 2225.22 Q901.38 2220.57 902.56 2219.23 Q904.806 2216.7 905.685 2214.97 Q906.588 2213.21 906.588 2211.52 Q906.588 2208.76 904.644 2207.03 Q902.722 2205.29 899.621 2205.29 Q897.422 2205.29 894.968 2206.05 Q892.537 2206.82 889.76 2208.37 L889.76 2203.65 Q892.584 2202.51 895.037 2201.93 Q897.491 2201.35 899.528 2201.35 Q904.898 2201.35 908.093 2204.04 Q911.287 2206.73 911.287 2211.22 Q911.287 2213.35 910.477 2215.27 Q909.69 2217.16 907.584 2219.76 Q907.005 2220.43 903.903 2223.65 Q900.801 2226.84 895.153 2232.6 Z" fill="#000000" fill-rule="evenodd" fill-opacity="1" /><path clip-path="url(#clip650)" d="M921.287 2230.66 L926.171 2230.66 L926.171 2236.54 L921.287 2236.54 L921.287 2230.66 Z" fill="#000000" fill-rule="evenodd" fill-opacity="1" /><path clip-path="url(#clip650)" d="M936.403 2201.98 L954.759 2201.98 L954.759 2205.92 L940.685 2205.92 L940.685 2214.39 Q941.704 2214.04 942.722 2213.88 Q943.741 2213.69 944.759 2213.69 Q950.546 2213.69 953.926 2216.86 Q957.306 2220.04 957.306 2225.45 Q957.306 2231.03 953.833 2234.13 Q950.361 2237.21 944.042 2237.21 Q941.866 2237.21 939.597 2236.84 Q937.352 2236.47 934.945 2235.73 L934.945 2231.03 Q937.028 2232.16 939.25 2232.72 Q941.472 2233.28 943.949 2233.28 Q947.954 2233.28 950.292 2231.17 Q952.63 2229.06 952.63 2225.45 Q952.63 2221.84 950.292 2219.73 Q947.954 2217.63 943.949 2217.63 Q942.074 2217.63 940.199 2218.04 Q938.347 2218.46 936.403 2219.34 L936.403 2201.98 Z" fill="#000000" fill-rule="evenodd" fill-opacity="1" /><path clip-path="url(#clip650)" d="M1290.41 2205.06 Q1286.8 2205.06 1284.97 2208.62 Q1283.17 2212.16 1283.17 2219.29 Q1283.17 2226.4 1284.97 2229.97 Q1286.8 2233.51 1290.41 2233.51 Q1294.05 2233.51 1295.85 2229.97 Q1297.68 2226.4 1297.68 2219.29 Q1297.68 2212.16 1295.85 2208.62 Q1294.05 2205.06 1290.41 2205.06 M1290.41 2201.35 Q1296.22 2201.35 1299.28 2205.96 Q1302.36 2210.54 1302.36 2219.29 Q1302.36 2228.02 1299.28 2232.63 Q1296.22 2237.21 1290.41 2237.21 Q1284.6 2237.21 1281.52 2232.63 Q1278.47 2228.02 1278.47 2219.29 Q1278.47 2210.54 1281.52 2205.96 Q1284.6 2201.35 1290.41 2201.35 Z" fill="#000000" fill-rule="evenodd" fill-opacity="1" /><path clip-path="url(#clip650)" d="M1310.58 2230.66 L1315.46 2230.66 L1315.46 2236.54 L1310.58 2236.54 L1310.58 2230.66 Z" fill="#000000" fill-rule="evenodd" fill-opacity="1" /><path clip-path="url(#clip650)" d="M1335.64 2205.06 Q1332.03 2205.06 1330.2 2208.62 Q1328.4 2212.16 1328.4 2219.29 Q1328.4 2226.4 1330.2 2229.97 Q1332.03 2233.51 1335.64 2233.51 Q1339.28 2233.51 1341.08 2229.97 Q1342.91 2226.4 1342.91 2219.29 Q1342.91 2212.16 1341.08 2208.62 Q1339.28 2205.06 1335.64 2205.06 M1335.64 2201.35 Q1341.45 2201.35 1344.51 2205.96 Q1347.59 2210.54 1347.59 2219.29 Q1347.59 2228.02 1344.51 2232.63 Q1341.45 2237.21 1335.64 2237.21 Q1329.83 2237.21 1326.76 2232.63 Q1323.7 2228.02 1323.7 2219.29 Q1323.7 2210.54 1326.76 2205.96 Q1329.83 2201.35 1335.64 2201.35 Z" fill="#000000" fill-rule="evenodd" fill-opacity="1" /><path clip-path="url(#clip650)" d="M1693.46 2232.6 L1709.78 2232.6 L1709.78 2236.54 L1687.84 2236.54 L1687.84 2232.6 Q1690.5 2229.85 1695.08 2225.22 Q1699.69 2220.57 1700.87 2219.23 Q1703.12 2216.7 1704 2214.97 Q1704.9 2213.21 1704.9 2211.52 Q1704.9 2208.76 1702.95 2207.03 Q1701.03 2205.29 1697.93 2205.29 Q1695.73 2205.29 1693.28 2206.05 Q1690.85 2206.82 1688.07 2208.37 L1688.07 2203.65 Q1690.89 2202.51 1693.35 2201.93 Q1695.8 2201.35 1697.84 2201.35 Q1703.21 2201.35 1706.4 2204.04 Q1709.6 2206.73 1709.6 2211.22 Q1709.6 2213.35 1708.79 2215.27 Q1708 2217.16 1705.89 2219.76 Q1705.31 2220.43 1702.21 2223.65 Q1699.11 2226.84 1693.46 2232.6 Z" fill="#000000" fill-rule="evenodd" fill-opacity="1" /><path clip-path="url(#clip650)" d="M1719.6 2230.66 L1724.48 2230.66 L1724.48 2236.54 L1719.6 2236.54 L1719.6 2230.66 Z" fill="#000000" fill-rule="evenodd" fill-opacity="1" /><path clip-path="url(#clip650)" d="M1734.71 2201.98 L1753.07 2201.98 L1753.07 2205.92 L1739 2205.92 L1739 2214.39 Q1740.01 2214.04 1741.03 2213.88 Q1742.05 2213.69 1743.07 2213.69 Q1748.86 2213.69 1752.24 2216.86 Q1755.62 2220.04 1755.62 2225.45 Q1755.62 2231.03 1752.14 2234.13 Q1748.67 2237.21 1742.35 2237.21 Q1740.18 2237.21 1737.91 2236.84 Q1735.66 2236.47 1733.25 2235.73 L1733.25 2231.03 Q1735.34 2232.16 1737.56 2232.72 Q1739.78 2233.28 1742.26 2233.28 Q1746.26 2233.28 1748.6 2231.17 Q1750.94 2229.06 1750.94 2225.45 Q1750.94 2221.84 1748.6 2219.73 Q1746.26 2217.63 1742.26 2217.63 Q1740.38 2217.63 1738.51 2218.04 Q1736.66 2218.46 1734.71 2219.34 L1734.71 2201.98 Z" fill="#000000" fill-rule="evenodd" fill-opacity="1" /><path clip-path="url(#clip650)" d="M2097.59 2201.98 L2115.95 2201.98 L2115.95 2205.92 L2101.87 2205.92 L2101.87 2214.39 Q2102.89 2214.04 2103.91 2213.88 Q2104.93 2213.69 2105.95 2213.69 Q2111.73 2213.69 2115.11 2216.86 Q2118.49 2220.04 2118.49 2225.45 Q2118.49 2231.03 2115.02 2234.13 Q2111.55 2237.21 2105.23 2237.21 Q2103.05 2237.21 2100.78 2236.84 Q2098.54 2236.47 2096.13 2235.73 L2096.13 2231.03 Q2098.21 2232.16 2100.44 2232.72 Q2102.66 2233.28 2105.14 2233.28 Q2109.14 2233.28 2111.48 2231.17 Q2113.82 2229.06 2113.82 2225.45 Q2113.82 2221.84 2111.48 2219.73 Q2109.14 2217.63 2105.14 2217.63 Q2103.26 2217.63 2101.39 2218.04 Q2099.53 2218.46 2097.59 2219.34 L2097.59 2201.98 Z" fill="#000000" fill-rule="evenodd" fill-opacity="1" /><path clip-path="url(#clip650)" d="M2127.7 2230.66 L2132.59 2230.66 L2132.59 2236.54 L2127.7 2236.54 L2127.7 2230.66 Z" fill="#000000" fill-rule="evenodd" fill-opacity="1" /><path clip-path="url(#clip650)" d="M2152.77 2205.06 Q2149.16 2205.06 2147.33 2208.62 Q2145.53 2212.16 2145.53 2219.29 Q2145.53 2226.4 2147.33 2229.97 Q2149.16 2233.51 2152.77 2233.51 Q2156.41 2233.51 2158.21 2229.97 Q2160.04 2226.4 2160.04 2219.29 Q2160.04 2212.16 2158.21 2208.62 Q2156.41 2205.06 2152.77 2205.06 M2152.77 2201.35 Q2158.58 2201.35 2161.64 2205.96 Q2164.72 2210.54 2164.72 2219.29 Q2164.72 2228.02 2161.64 2232.63 Q2158.58 2237.21 2152.77 2237.21 Q2146.96 2237.21 2143.88 2232.63 Q2140.83 2228.02 2140.83 2219.29 Q2140.83 2210.54 2143.88 2205.96 Q2146.96 2201.35 2152.77 2201.35 Z" fill="#000000" fill-rule="evenodd" fill-opacity="1" /><path clip-path="url(#clip650)" d="M1162.58 2271.48 L1169 2271.48 L1169 2319 L1162.58 2319 L1162.58 2271.48 Z" fill="#000000" fill-rule="evenodd" fill-opacity="1" /><path clip-path="url(#clip650)" d="M1211.18 2297.49 L1211.18 2319 L1205.32 2319 L1205.32 2297.68 Q1205.32 2292.62 1203.35 2290.1 Q1201.37 2287.59 1197.43 2287.59 Q1192.69 2287.59 1189.95 2290.61 Q1187.21 2293.64 1187.21 2298.86 L1187.21 2319 L1181.32 2319 L1181.32 2283.36 L1187.21 2283.36 L1187.21 2288.89 Q1189.31 2285.68 1192.14 2284.09 Q1195.01 2282.5 1198.73 2282.5 Q1204.88 2282.5 1208.03 2286.32 Q1211.18 2290.1 1211.18 2297.49 Z" fill="#000000" fill-rule="evenodd" fill-opacity="1" /><path clip-path="url(#clip650)" d="M1228.52 2313.66 L1228.52 2332.56 L1222.64 2332.56 L1222.64 2283.36 L1228.52 2283.36 L1228.52 2288.77 Q1230.37 2285.58 1233.17 2284.06 Q1236 2282.5 1239.92 2282.5 Q1246.41 2282.5 1250.45 2287.65 Q1254.53 2292.81 1254.53 2301.21 Q1254.53 2309.61 1250.45 2314.77 Q1246.41 2319.93 1239.92 2319.93 Q1236 2319.93 1233.17 2318.4 Q1230.37 2316.84 1228.52 2313.66 M1248.45 2301.21 Q1248.45 2294.75 1245.78 2291.09 Q1243.13 2287.4 1238.49 2287.4 Q1233.84 2287.4 1231.17 2291.09 Q1228.52 2294.75 1228.52 2301.21 Q1228.52 2307.67 1231.17 2311.36 Q1233.84 2315.03 1238.49 2315.03 Q1243.13 2315.03 1245.78 2311.36 Q1248.45 2307.67 1248.45 2301.21 Z" fill="#000000" fill-rule="evenodd" fill-opacity="1" /><path clip-path="url(#clip650)" d="M1263.63 2304.94 L1263.63 2283.36 L1269.49 2283.36 L1269.49 2304.71 Q1269.49 2309.77 1271.46 2312.32 Q1273.43 2314.83 1277.38 2314.83 Q1282.12 2314.83 1284.86 2311.81 Q1287.63 2308.79 1287.63 2303.57 L1287.63 2283.36 L1293.49 2283.36 L1293.49 2319 L1287.63 2319 L1287.63 2313.53 Q1285.5 2316.78 1282.66 2318.37 Q1279.86 2319.93 1276.14 2319.93 Q1270 2319.93 1266.81 2316.11 Q1263.63 2312.29 1263.63 2304.94 M1278.37 2282.5 L1278.37 2282.5 Z" fill="#000000" fill-rule="evenodd" fill-opacity="1" /><path clip-path="url(#clip650)" d="M1311.34 2273.23 L1311.34 2283.36 L1323.41 2283.36 L1323.41 2287.91 L1311.34 2287.91 L1311.34 2307.26 Q1311.34 2311.62 1312.52 2312.86 Q1313.73 2314.1 1317.39 2314.1 L1323.41 2314.1 L1323.41 2319 L1317.39 2319 Q1310.61 2319 1308.03 2316.49 Q1305.45 2313.94 1305.45 2307.26 L1305.45 2287.91 L1301.16 2287.91 L1301.16 2283.36 L1305.45 2283.36 L1305.45 2273.23 L1311.34 2273.23 Z" fill="#000000" fill-rule="evenodd" fill-opacity="1" /><path clip-path="url(#clip650)" d="M1353.83 2284.41 L1353.83 2289.94 Q1351.35 2288.67 1348.68 2288.03 Q1346 2287.4 1343.14 2287.4 Q1338.78 2287.4 1336.58 2288.73 Q1334.42 2290.07 1334.42 2292.75 Q1334.42 2294.78 1335.98 2295.96 Q1337.54 2297.11 1342.25 2298.16 L1344.25 2298.6 Q1350.49 2299.94 1353.1 2302.39 Q1355.74 2304.81 1355.74 2309.17 Q1355.74 2314.13 1351.8 2317.03 Q1347.88 2319.93 1341.01 2319.93 Q1338.14 2319.93 1335.02 2319.35 Q1331.94 2318.81 1328.5 2317.7 L1328.5 2311.65 Q1331.74 2313.34 1334.9 2314.2 Q1338.05 2315.03 1341.13 2315.03 Q1345.27 2315.03 1347.5 2313.62 Q1349.73 2312.19 1349.73 2309.61 Q1349.73 2307.23 1348.1 2305.95 Q1346.51 2304.68 1341.07 2303.5 L1339.03 2303.03 Q1333.59 2301.88 1331.17 2299.52 Q1328.75 2297.14 1328.75 2293 Q1328.75 2287.97 1332.32 2285.23 Q1335.88 2282.5 1342.44 2282.5 Q1345.69 2282.5 1348.55 2282.97 Q1351.41 2283.45 1353.83 2284.41 Z" fill="#000000" fill-rule="evenodd" fill-opacity="1" /><path clip-path="url(#clip650)" d="M1399.86 2269.54 Q1395.59 2276.86 1393.52 2284.02 Q1391.45 2291.19 1391.45 2298.54 Q1391.45 2305.89 1393.52 2313.12 Q1395.62 2320.31 1399.86 2327.6 L1394.76 2327.6 Q1389.99 2320.12 1387.6 2312.89 Q1385.25 2305.67 1385.25 2298.54 Q1385.25 2291.44 1387.6 2284.25 Q1389.96 2277.05 1394.76 2269.54 L1399.86 2269.54 Z" fill="#000000" fill-rule="evenodd" fill-opacity="1" /><path clip-path="url(#clip650)" d="M1440.85 2283.36 L1427.96 2300.7 L1441.52 2319 L1434.61 2319 L1424.24 2305 L1413.86 2319 L1406.95 2319 L1420.8 2300.35 L1408.13 2283.36 L1415.04 2283.36 L1424.49 2296.06 L1433.95 2283.36 L1440.85 2283.36 Z" fill="#000000" fill-rule="evenodd" fill-opacity="1" /><path clip-path="url(#clip650)" d="M1448.87 2269.54 L1453.97 2269.54 Q1458.74 2277.05 1461.1 2284.25 Q1463.48 2291.44 1463.48 2298.54 Q1463.48 2305.67 1461.1 2312.89 Q1458.74 2320.12 1453.97 2327.6 L1448.87 2327.6 Q1453.11 2320.31 1455.18 2313.12 Q1457.28 2305.89 1457.28 2298.54 Q1457.28 2291.19 1455.18 2284.02 Q1453.11 2276.86 1448.87 2269.54 Z" fill="#000000" fill-rule="evenodd" fill-opacity="1" /><polyline clip-path="url(#clip652)" style="stroke:#000000; stroke-linecap:butt; stroke-linejoin:round; stroke-width:2; stroke-opacity:0.1; fill:none" points="
  273.302,2121.69 2352.76,2121.69 
  "/>
<polyline clip-path="url(#clip652)" style="stroke:#000000; stroke-linecap:butt; stroke-linejoin:round; stroke-width:2; stroke-opacity:0.1; fill:none" points="
  273.302,1642.81 2352.76,1642.81 
  "/>
<polyline clip-path="url(#clip652)" style="stroke:#000000; stroke-linecap:butt; stroke-linejoin:round; stroke-width:2; stroke-opacity:0.1; fill:none" points="
  273.302,1163.93 2352.76,1163.93 
  "/>
<polyline clip-path="url(#clip652)" style="stroke:#000000; stroke-linecap:butt; stroke-linejoin:round; stroke-width:2; stroke-opacity:0.1; fill:none" points="
  273.302,685.042 2352.76,685.042 
  "/>
<polyline clip-path="url(#clip652)" style="stroke:#000000; stroke-linecap:butt; stroke-linejoin:round; stroke-width:2; stroke-opacity:0.1; fill:none" points="
  273.302,206.158 2352.76,206.158 
  "/>
<polyline clip-path="url(#clip650)" style="stroke:#000000; stroke-linecap:butt; stroke-linejoin:round; stroke-width:4; stroke-opacity:1; fill:none" points="
  273.302,2174.14 273.302,153.712 
  "/>
<polyline clip-path="url(#clip650)" style="stroke:#000000; stroke-linecap:butt; stroke-linejoin:round; stroke-width:4; stroke-opacity:1; fill:none" points="
  273.302,2121.69 292.2,2121.69 
  "/>
<polyline clip-path="url(#clip650)" style="stroke:#000000; stroke-linecap:butt; stroke-linejoin:round; stroke-width:4; stroke-opacity:1; fill:none" points="
  273.302,1642.81 292.2,1642.81 
  "/>
<polyline clip-path="url(#clip650)" style="stroke:#000000; stroke-linecap:butt; stroke-linejoin:round; stroke-width:4; stroke-opacity:1; fill:none" points="
  273.302,1163.93 292.2,1163.93 
  "/>
<polyline clip-path="url(#clip650)" style="stroke:#000000; stroke-linecap:butt; stroke-linejoin:round; stroke-width:4; stroke-opacity:1; fill:none" points="
  273.302,685.042 292.2,685.042 
  "/>
<polyline clip-path="url(#clip650)" style="stroke:#000000; stroke-linecap:butt; stroke-linejoin:round; stroke-width:4; stroke-opacity:1; fill:none" points="
  273.302,206.158 292.2,206.158 
  "/>
<path clip-path="url(#clip650)" d="M149.965 2107.49 Q146.353 2107.49 144.525 2111.06 Q142.719 2114.6 142.719 2121.73 Q142.719 2128.84 144.525 2132.4 Q146.353 2135.94 149.965 2135.94 Q153.599 2135.94 155.404 2132.4 Q157.233 2128.84 157.233 2121.73 Q157.233 2114.6 155.404 2111.06 Q153.599 2107.49 149.965 2107.49 M149.965 2103.79 Q155.775 2103.79 158.83 2108.4 Q161.909 2112.98 161.909 2121.73 Q161.909 2130.46 158.83 2135.06 Q155.775 2139.65 149.965 2139.65 Q144.154 2139.65 141.076 2135.06 Q138.02 2130.46 138.02 2121.73 Q138.02 2112.98 141.076 2108.4 Q144.154 2103.79 149.965 2103.79 Z" fill="#000000" fill-rule="evenodd" fill-opacity="1" /><path clip-path="url(#clip650)" d="M170.126 2133.09 L175.011 2133.09 L175.011 2138.97 L170.126 2138.97 L170.126 2133.09 Z" fill="#000000" fill-rule="evenodd" fill-opacity="1" /><path clip-path="url(#clip650)" d="M195.196 2107.49 Q191.585 2107.49 189.756 2111.06 Q187.95 2114.6 187.95 2121.73 Q187.95 2128.84 189.756 2132.4 Q191.585 2135.94 195.196 2135.94 Q198.83 2135.94 200.636 2132.4 Q202.464 2128.84 202.464 2121.73 Q202.464 2114.6 200.636 2111.06 Q198.83 2107.49 195.196 2107.49 M195.196 2103.79 Q201.006 2103.79 204.061 2108.4 Q207.14 2112.98 207.14 2121.73 Q207.14 2130.46 204.061 2135.06 Q201.006 2139.65 195.196 2139.65 Q189.386 2139.65 186.307 2135.06 Q183.251 2130.46 183.251 2121.73 Q183.251 2112.98 186.307 2108.4 Q189.386 2103.79 195.196 2103.79 Z" fill="#000000" fill-rule="evenodd" fill-opacity="1" /><path clip-path="url(#clip650)" d="M225.358 2107.49 Q221.747 2107.49 219.918 2111.06 Q218.112 2114.6 218.112 2121.73 Q218.112 2128.84 219.918 2132.4 Q221.747 2135.94 225.358 2135.94 Q228.992 2135.94 230.797 2132.4 Q232.626 2128.84 232.626 2121.73 Q232.626 2114.6 230.797 2111.06 Q228.992 2107.49 225.358 2107.49 M225.358 2103.79 Q231.168 2103.79 234.223 2108.4 Q237.302 2112.98 237.302 2121.73 Q237.302 2130.46 234.223 2135.06 Q231.168 2139.65 225.358 2139.65 Q219.547 2139.65 216.469 2135.06 Q213.413 2130.46 213.413 2121.73 Q213.413 2112.98 216.469 2108.4 Q219.547 2103.79 225.358 2103.79 Z" fill="#000000" fill-rule="evenodd" fill-opacity="1" /><path clip-path="url(#clip650)" d="M150.96 1628.61 Q147.349 1628.61 145.52 1632.17 Q143.715 1635.72 143.715 1642.84 Q143.715 1649.95 145.52 1653.52 Q147.349 1657.06 150.96 1657.06 Q154.594 1657.06 156.4 1653.52 Q158.228 1649.95 158.228 1642.84 Q158.228 1635.72 156.4 1632.17 Q154.594 1628.61 150.96 1628.61 M150.96 1624.91 Q156.77 1624.91 159.826 1629.51 Q162.904 1634.09 162.904 1642.84 Q162.904 1651.57 159.826 1656.18 Q156.77 1660.76 150.96 1660.76 Q145.15 1660.76 142.071 1656.18 Q139.016 1651.57 139.016 1642.84 Q139.016 1634.09 142.071 1629.51 Q145.15 1624.91 150.96 1624.91 Z" fill="#000000" fill-rule="evenodd" fill-opacity="1" /><path clip-path="url(#clip650)" d="M171.122 1654.21 L176.006 1654.21 L176.006 1660.09 L171.122 1660.09 L171.122 1654.21 Z" fill="#000000" fill-rule="evenodd" fill-opacity="1" /><path clip-path="url(#clip650)" d="M190.219 1656.15 L206.538 1656.15 L206.538 1660.09 L184.594 1660.09 L184.594 1656.15 Q187.256 1653.4 191.839 1648.77 Q196.446 1644.12 197.626 1642.78 Q199.872 1640.25 200.751 1638.52 Q201.654 1636.76 201.654 1635.07 Q201.654 1632.31 199.71 1630.58 Q197.788 1628.84 194.687 1628.84 Q192.487 1628.84 190.034 1629.6 Q187.603 1630.37 184.825 1631.92 L184.825 1627.2 Q187.65 1626.06 190.103 1625.48 Q192.557 1624.91 194.594 1624.91 Q199.964 1624.91 203.159 1627.59 Q206.353 1630.28 206.353 1634.77 Q206.353 1636.9 205.543 1638.82 Q204.756 1640.72 202.649 1643.31 Q202.071 1643.98 198.969 1647.2 Q195.867 1650.39 190.219 1656.15 Z" fill="#000000" fill-rule="evenodd" fill-opacity="1" /><path clip-path="url(#clip650)" d="M216.399 1625.53 L234.756 1625.53 L234.756 1629.47 L220.682 1629.47 L220.682 1637.94 Q221.7 1637.59 222.719 1637.43 Q223.737 1637.24 224.756 1637.24 Q230.543 1637.24 233.922 1640.41 Q237.302 1643.59 237.302 1649 Q237.302 1654.58 233.83 1657.68 Q230.358 1660.76 224.038 1660.76 Q221.862 1660.76 219.594 1660.39 Q217.348 1660.02 214.941 1659.28 L214.941 1654.58 Q217.024 1655.72 219.247 1656.27 Q221.469 1656.83 223.946 1656.83 Q227.95 1656.83 230.288 1654.72 Q232.626 1652.61 232.626 1649 Q232.626 1645.39 230.288 1643.28 Q227.95 1641.18 223.946 1641.18 Q222.071 1641.18 220.196 1641.59 Q218.344 1642.01 216.399 1642.89 L216.399 1625.53 Z" fill="#000000" fill-rule="evenodd" fill-opacity="1" /><path clip-path="url(#clip650)" d="M149.965 1149.72 Q146.353 1149.72 144.525 1153.29 Q142.719 1156.83 142.719 1163.96 Q142.719 1171.07 144.525 1174.63 Q146.353 1178.17 149.965 1178.17 Q153.599 1178.17 155.404 1174.63 Q157.233 1171.07 157.233 1163.96 Q157.233 1156.83 155.404 1153.29 Q153.599 1149.72 149.965 1149.72 M149.965 1146.02 Q155.775 1146.02 158.83 1150.63 Q161.909 1155.21 161.909 1163.96 Q161.909 1172.69 158.83 1177.29 Q155.775 1181.88 149.965 1181.88 Q144.154 1181.88 141.076 1177.29 Q138.02 1172.69 138.02 1163.96 Q138.02 1155.21 141.076 1150.63 Q144.154 1146.02 149.965 1146.02 Z" fill="#000000" fill-rule="evenodd" fill-opacity="1" /><path clip-path="url(#clip650)" d="M170.126 1175.33 L175.011 1175.33 L175.011 1181.21 L170.126 1181.21 L170.126 1175.33 Z" fill="#000000" fill-rule="evenodd" fill-opacity="1" /><path clip-path="url(#clip650)" d="M185.242 1146.65 L203.599 1146.65 L203.599 1150.58 L189.525 1150.58 L189.525 1159.05 Q190.543 1158.71 191.562 1158.54 Q192.58 1158.36 193.599 1158.36 Q199.386 1158.36 202.765 1161.53 Q206.145 1164.7 206.145 1170.12 Q206.145 1175.7 202.673 1178.8 Q199.2 1181.88 192.881 1181.88 Q190.705 1181.88 188.437 1181.51 Q186.191 1181.14 183.784 1180.4 L183.784 1175.7 Q185.867 1176.83 188.089 1177.39 Q190.312 1177.94 192.788 1177.94 Q196.793 1177.94 199.131 1175.84 Q201.469 1173.73 201.469 1170.12 Q201.469 1166.51 199.131 1164.4 Q196.793 1162.29 192.788 1162.29 Q190.913 1162.29 189.038 1162.71 Q187.187 1163.13 185.242 1164.01 L185.242 1146.65 Z" fill="#000000" fill-rule="evenodd" fill-opacity="1" /><path clip-path="url(#clip650)" d="M225.358 1149.72 Q221.747 1149.72 219.918 1153.29 Q218.112 1156.83 218.112 1163.96 Q218.112 1171.07 219.918 1174.63 Q221.747 1178.17 225.358 1178.17 Q228.992 1178.17 230.797 1174.63 Q232.626 1171.07 232.626 1163.96 Q232.626 1156.83 230.797 1153.29 Q228.992 1149.72 225.358 1149.72 M225.358 1146.02 Q231.168 1146.02 234.223 1150.63 Q237.302 1155.21 237.302 1163.96 Q237.302 1172.69 234.223 1177.29 Q231.168 1181.88 225.358 1181.88 Q219.547 1181.88 216.469 1177.29 Q213.413 1172.69 213.413 1163.96 Q213.413 1155.21 216.469 1150.63 Q219.547 1146.02 225.358 1146.02 Z" fill="#000000" fill-rule="evenodd" fill-opacity="1" /><path clip-path="url(#clip650)" d="M150.96 670.841 Q147.349 670.841 145.52 674.405 Q143.715 677.947 143.715 685.077 Q143.715 692.183 145.52 695.748 Q147.349 699.289 150.96 699.289 Q154.594 699.289 156.4 695.748 Q158.228 692.183 158.228 685.077 Q158.228 677.947 156.4 674.405 Q154.594 670.841 150.96 670.841 M150.96 667.137 Q156.77 667.137 159.826 671.743 Q162.904 676.327 162.904 685.077 Q162.904 693.803 159.826 698.41 Q156.77 702.993 150.96 702.993 Q145.15 702.993 142.071 698.41 Q139.016 693.803 139.016 685.077 Q139.016 676.327 142.071 671.743 Q145.15 667.137 150.96 667.137 Z" fill="#000000" fill-rule="evenodd" fill-opacity="1" /><path clip-path="url(#clip650)" d="M171.122 696.442 L176.006 696.442 L176.006 702.322 L171.122 702.322 L171.122 696.442 Z" fill="#000000" fill-rule="evenodd" fill-opacity="1" /><path clip-path="url(#clip650)" d="M185.011 667.762 L207.233 667.762 L207.233 669.753 L194.687 702.322 L189.802 702.322 L201.608 671.697 L185.011 671.697 L185.011 667.762 Z" fill="#000000" fill-rule="evenodd" fill-opacity="1" /><path clip-path="url(#clip650)" d="M216.399 667.762 L234.756 667.762 L234.756 671.697 L220.682 671.697 L220.682 680.169 Q221.7 679.822 222.719 679.66 Q223.737 679.475 224.756 679.475 Q230.543 679.475 233.922 682.646 Q237.302 685.817 237.302 691.234 Q237.302 696.813 233.83 699.914 Q230.358 702.993 224.038 702.993 Q221.862 702.993 219.594 702.623 Q217.348 702.252 214.941 701.512 L214.941 696.813 Q217.024 697.947 219.247 698.502 Q221.469 699.058 223.946 699.058 Q227.95 699.058 230.288 696.951 Q232.626 694.845 232.626 691.234 Q232.626 687.623 230.288 685.516 Q227.95 683.41 223.946 683.41 Q222.071 683.41 220.196 683.827 Q218.344 684.243 216.399 685.123 L216.399 667.762 Z" fill="#000000" fill-rule="evenodd" fill-opacity="1" /><path clip-path="url(#clip650)" d="M140.775 219.502 L148.414 219.502 L148.414 193.137 L140.103 194.804 L140.103 190.544 L148.367 188.878 L153.043 188.878 L153.043 219.502 L160.682 219.502 L160.682 223.438 L140.775 223.438 L140.775 219.502 Z" fill="#000000" fill-rule="evenodd" fill-opacity="1" /><path clip-path="url(#clip650)" d="M170.126 217.558 L175.011 217.558 L175.011 223.438 L170.126 223.438 L170.126 217.558 Z" fill="#000000" fill-rule="evenodd" fill-opacity="1" /><path clip-path="url(#clip650)" d="M195.196 191.956 Q191.585 191.956 189.756 195.521 Q187.95 199.063 187.95 206.192 Q187.95 213.299 189.756 216.864 Q191.585 220.405 195.196 220.405 Q198.83 220.405 200.636 216.864 Q202.464 213.299 202.464 206.192 Q202.464 199.063 200.636 195.521 Q198.83 191.956 195.196 191.956 M195.196 188.253 Q201.006 188.253 204.061 192.859 Q207.14 197.442 207.14 206.192 Q207.14 214.919 204.061 219.526 Q201.006 224.109 195.196 224.109 Q189.386 224.109 186.307 219.526 Q183.251 214.919 183.251 206.192 Q183.251 197.442 186.307 192.859 Q189.386 188.253 195.196 188.253 Z" fill="#000000" fill-rule="evenodd" fill-opacity="1" /><path clip-path="url(#clip650)" d="M225.358 191.956 Q221.747 191.956 219.918 195.521 Q218.112 199.063 218.112 206.192 Q218.112 213.299 219.918 216.864 Q221.747 220.405 225.358 220.405 Q228.992 220.405 230.797 216.864 Q232.626 213.299 232.626 206.192 Q232.626 199.063 230.797 195.521 Q228.992 191.956 225.358 191.956 M225.358 188.253 Q231.168 188.253 234.223 192.859 Q237.302 197.442 237.302 206.192 Q237.302 214.919 234.223 219.526 Q231.168 224.109 225.358 224.109 Q219.547 224.109 216.469 219.526 Q213.413 214.919 213.413 206.192 Q213.413 197.442 216.469 192.859 Q219.547 188.253 225.358 188.253 Z" fill="#000000" fill-rule="evenodd" fill-opacity="1" /><path clip-path="url(#clip650)" d="M44.6047 1322.54 Q44.6047 1329.55 49.8245 1333.68 Q55.0444 1337.79 64.0519 1337.79 Q73.0275 1337.79 78.2474 1333.68 Q83.4673 1329.55 83.4673 1322.54 Q83.4673 1315.54 78.2474 1311.47 Q73.0275 1307.36 64.0519 1307.36 Q55.0444 1307.36 49.8245 1311.47 Q44.6047 1315.54 44.6047 1322.54 M39.3848 1322.54 Q39.3848 1312.55 46.1006 1306.57 Q52.7846 1300.58 64.0519 1300.58 Q75.2874 1300.58 82.0032 1306.57 Q88.6872 1312.55 88.6872 1322.54 Q88.6872 1332.57 82.0032 1338.59 Q75.3192 1344.57 64.0519 1344.57 Q52.7846 1344.57 46.1006 1338.59 Q39.3848 1332.57 39.3848 1322.54 Z" fill="#000000" fill-rule="evenodd" fill-opacity="1" /><path clip-path="url(#clip650)" d="M73.6959 1291.38 L52.1162 1291.38 L52.1162 1285.53 L73.4731 1285.53 Q78.5339 1285.53 81.0802 1283.55 Q83.5946 1281.58 83.5946 1277.63 Q83.5946 1272.89 80.5709 1270.15 Q77.5472 1267.38 72.3273 1267.38 L52.1162 1267.38 L52.1162 1261.53 L87.7642 1261.53 L87.7642 1267.38 L82.2896 1267.38 Q85.5362 1269.52 87.1276 1272.35 Q88.6872 1275.15 88.6872 1278.87 Q88.6872 1285.02 84.8678 1288.2 Q81.0483 1291.38 73.6959 1291.38 M51.2568 1276.65 L51.2568 1276.65 Z" fill="#000000" fill-rule="evenodd" fill-opacity="1" /><path clip-path="url(#clip650)" d="M41.9947 1243.67 L52.1162 1243.67 L52.1162 1231.61 L56.6677 1231.61 L56.6677 1243.67 L76.0194 1243.67 Q80.3799 1243.67 81.6213 1242.49 Q82.8626 1241.29 82.8626 1237.62 L82.8626 1231.61 L87.7642 1231.61 L87.7642 1237.62 Q87.7642 1244.4 85.2497 1246.98 Q82.7034 1249.56 76.0194 1249.56 L56.6677 1249.56 L56.6677 1253.86 L52.1162 1253.86 L52.1162 1249.56 L41.9947 1249.56 L41.9947 1243.67 Z" fill="#000000" fill-rule="evenodd" fill-opacity="1" /><path clip-path="url(#clip650)" d="M82.417 1218.24 L101.323 1218.24 L101.323 1224.13 L52.1162 1224.13 L52.1162 1218.24 L57.5271 1218.24 Q54.3442 1216.4 52.8164 1213.59 Q51.2568 1210.76 51.2568 1206.85 Q51.2568 1200.35 56.4131 1196.31 Q61.5693 1192.24 69.972 1192.24 Q78.3747 1192.24 83.531 1196.31 Q88.6872 1200.35 88.6872 1206.85 Q88.6872 1210.76 87.1594 1213.59 Q85.5998 1216.4 82.417 1218.24 M69.972 1198.32 Q63.5108 1198.32 59.8505 1200.99 Q56.1584 1203.63 56.1584 1208.28 Q56.1584 1212.93 59.8505 1215.6 Q63.5108 1218.24 69.972 1218.24 Q76.4332 1218.24 80.1253 1215.6 Q83.7856 1212.93 83.7856 1208.28 Q83.7856 1203.63 80.1253 1200.99 Q76.4332 1198.32 69.972 1198.32 Z" fill="#000000" fill-rule="evenodd" fill-opacity="1" /><path clip-path="url(#clip650)" d="M73.6959 1183.13 L52.1162 1183.13 L52.1162 1177.28 L73.4731 1177.28 Q78.5339 1177.28 81.0802 1175.3 Q83.5946 1173.33 83.5946 1169.38 Q83.5946 1164.64 80.5709 1161.9 Q77.5472 1159.14 72.3273 1159.14 L52.1162 1159.14 L52.1162 1153.28 L87.7642 1153.28 L87.7642 1159.14 L82.2896 1159.14 Q85.5362 1161.27 87.1276 1164.1 Q88.6872 1166.9 88.6872 1170.63 Q88.6872 1176.77 84.8678 1179.95 Q81.0483 1183.13 73.6959 1183.13 M51.2568 1168.4 L51.2568 1168.4 Z" fill="#000000" fill-rule="evenodd" fill-opacity="1" /><path clip-path="url(#clip650)" d="M41.9947 1135.42 L52.1162 1135.42 L52.1162 1123.36 L56.6677 1123.36 L56.6677 1135.42 L76.0194 1135.42 Q80.3799 1135.42 81.6213 1134.25 Q82.8626 1133.04 82.8626 1129.38 L82.8626 1123.36 L87.7642 1123.36 L87.7642 1129.38 Q87.7642 1136.16 85.2497 1138.73 Q82.7034 1141.31 76.0194 1141.31 L56.6677 1141.31 L56.6677 1145.61 L52.1162 1145.61 L52.1162 1141.31 L41.9947 1141.31 L41.9947 1135.42 Z" fill="#000000" fill-rule="evenodd" fill-opacity="1" /><path clip-path="url(#clip650)" d="M53.1665 1092.93 L58.7047 1092.93 Q57.4316 1095.42 56.795 1098.09 Q56.1584 1100.76 56.1584 1103.63 Q56.1584 1107.99 57.4952 1110.18 Q58.832 1112.35 61.5056 1112.35 Q63.5426 1112.35 64.7203 1110.79 Q65.8661 1109.23 66.9165 1104.52 L67.3621 1102.51 Q68.6989 1096.27 71.1497 1093.66 Q73.5686 1091.02 77.9291 1091.02 Q82.8944 1091.02 85.7908 1094.97 Q88.6872 1098.88 88.6872 1105.76 Q88.6872 1108.62 88.1143 1111.74 Q87.5732 1114.83 86.4592 1118.27 L80.4118 1118.27 Q82.0987 1115.02 82.958 1111.87 Q83.7856 1108.72 83.7856 1105.63 Q83.7856 1101.49 82.3851 1099.27 Q80.9529 1097.04 78.3747 1097.04 Q75.9876 1097.04 74.7145 1098.66 Q73.4413 1100.25 72.2637 1105.7 L71.7862 1107.73 Q70.6404 1113.18 68.2851 1115.59 Q65.898 1118.01 61.7602 1118.01 Q56.7313 1118.01 53.9941 1114.45 Q51.2568 1110.88 51.2568 1104.33 Q51.2568 1101.08 51.7343 1098.22 Q52.2117 1095.35 53.1665 1092.93 Z" fill="#000000" fill-rule="evenodd" fill-opacity="1" /><path clip-path="url(#clip650)" d="M38.3026 1046.91 Q45.6232 1051.17 52.7846 1053.24 Q59.946 1055.31 67.2984 1055.31 Q74.6508 1055.31 81.8759 1053.24 Q89.0691 1051.14 96.3579 1046.91 L96.3579 1052 Q88.8782 1056.78 81.6531 1059.16 Q74.428 1061.52 67.2984 1061.52 Q60.2006 1061.52 53.0074 1059.16 Q45.8142 1056.81 38.3026 1052 L38.3026 1046.91 Z" fill="#000000" fill-rule="evenodd" fill-opacity="1" /><path clip-path="url(#clip650)" d="M91.0743 1020.71 Q97.44 1023.2 99.3816 1025.55 Q101.323 1027.91 101.323 1031.85 L101.323 1036.53 L96.4215 1036.53 L96.4215 1033.09 Q96.4215 1030.68 95.2757 1029.34 Q94.1299 1028 89.8648 1026.38 L87.1912 1025.33 L52.1162 1039.75 L52.1162 1033.54 L79.998 1022.4 L52.1162 1011.26 L52.1162 1005.05 L91.0743 1020.71 Z" fill="#000000" fill-rule="evenodd" fill-opacity="1" /><path clip-path="url(#clip650)" d="M38.3026 997.892 L38.3026 992.8 Q45.8142 988.026 53.0074 985.67 Q60.2006 983.283 67.2984 983.283 Q74.428 983.283 81.6531 985.67 Q88.8782 988.026 96.3579 992.8 L96.3579 997.892 Q89.0691 993.659 81.8759 991.59 Q74.6508 989.49 67.2984 989.49 Q59.946 989.49 52.7846 991.59 Q45.6232 993.659 38.3026 997.892 Z" fill="#000000" fill-rule="evenodd" fill-opacity="1" /><path clip-path="url(#clip650)" d="M812.54 12.096 L820.723 12.096 L820.723 65.6895 L850.173 65.6895 L850.173 72.576 L812.54 72.576 L812.54 12.096 Z" fill="#000000" fill-rule="evenodd" fill-opacity="1" /><path clip-path="url(#clip650)" d="M874.559 32.4315 Q868.564 32.4315 865.08 37.1306 Q861.596 41.7891 861.596 49.9314 Q861.596 58.0738 865.039 62.7728 Q868.523 67.4314 874.559 67.4314 Q880.514 67.4314 883.998 62.7323 Q887.481 58.0333 887.481 49.9314 Q887.481 41.8701 883.998 37.1711 Q880.514 32.4315 874.559 32.4315 M874.559 26.1121 Q884.281 26.1121 889.831 32.4315 Q895.381 38.7509 895.381 49.9314 Q895.381 61.0714 889.831 67.4314 Q884.281 73.7508 874.559 73.7508 Q864.796 73.7508 859.247 67.4314 Q853.737 61.0714 853.737 49.9314 Q853.737 38.7509 859.247 32.4315 Q864.796 26.1121 874.559 26.1121 Z" fill="#000000" fill-rule="evenodd" fill-opacity="1" /><path clip-path="url(#clip650)" d="M937.591 49.3643 Q937.591 41.2625 934.229 36.8065 Q930.907 32.3505 924.871 32.3505 Q918.876 32.3505 915.514 36.8065 Q912.192 41.2625 912.192 49.3643 Q912.192 57.4256 915.514 61.8816 Q918.876 66.3376 924.871 66.3376 Q930.907 66.3376 934.229 61.8816 Q937.591 57.4256 937.591 49.3643 M945.045 66.9452 Q945.045 78.5308 939.9 84.1616 Q934.756 89.8329 924.142 89.8329 Q920.213 89.8329 916.729 89.2252 Q913.245 88.6581 909.964 87.4428 L909.964 80.1917 Q913.245 81.9741 916.445 82.8248 Q919.646 83.6755 922.967 83.6755 Q930.3 83.6755 933.945 79.8271 Q937.591 76.0193 937.591 68.282 L937.591 64.5957 Q935.282 68.6061 931.677 70.5911 Q928.072 72.576 923.048 72.576 Q914.704 72.576 909.599 66.2161 Q904.495 59.8562 904.495 49.3643 Q904.495 38.832 909.599 32.472 Q914.704 26.1121 923.048 26.1121 Q928.072 26.1121 931.677 28.0971 Q935.282 30.082 937.591 34.0924 L937.591 27.2059 L945.045 27.2059 L945.045 66.9452 Z" fill="#000000" fill-rule="evenodd" fill-opacity="1" /><path clip-path="url(#clip650)" d="M960.398 27.2059 L967.851 27.2059 L967.851 72.576 L960.398 72.576 L960.398 27.2059 M960.398 9.54393 L967.851 9.54393 L967.851 18.9825 L960.398 18.9825 L960.398 9.54393 Z" fill="#000000" fill-rule="evenodd" fill-opacity="1" /><path clip-path="url(#clip650)" d="M1012.37 28.5427 L1012.37 35.5912 Q1009.21 33.9709 1005.81 33.1607 Q1002.41 32.3505 998.76 32.3505 Q993.21 32.3505 990.415 34.0519 Q987.66 35.7533 987.66 39.156 Q987.66 41.7486 989.645 43.2475 Q991.63 44.7058 997.626 46.0426 L1000.18 46.6097 Q1008.12 48.3111 1011.44 51.4303 Q1014.8 54.509 1014.8 60.0587 Q1014.8 66.3781 1009.78 70.0644 Q1004.8 73.7508 996.046 73.7508 Q992.4 73.7508 988.43 73.0216 Q984.501 72.3329 980.126 70.9151 L980.126 63.2184 Q984.258 65.3654 988.268 66.4591 Q992.278 67.5124 996.208 67.5124 Q1001.47 67.5124 1004.31 65.73 Q1007.15 63.9071 1007.15 60.6258 Q1007.15 57.5877 1005.08 55.9673 Q1003.05 54.3469 996.127 52.8481 L993.534 52.2405 Q986.607 50.7821 983.528 47.7845 Q980.45 44.7463 980.45 39.4801 Q980.45 33.0797 984.987 29.5959 Q989.524 26.1121 997.869 26.1121 Q1002 26.1121 1005.65 26.7198 Q1009.29 27.3274 1012.37 28.5427 Z" fill="#000000" fill-rule="evenodd" fill-opacity="1" /><path clip-path="url(#clip650)" d="M1034.04 14.324 L1034.04 27.2059 L1049.4 27.2059 L1049.4 32.9987 L1034.04 32.9987 L1034.04 57.6282 Q1034.04 63.1779 1035.54 64.7578 Q1037.08 66.3376 1041.74 66.3376 L1049.4 66.3376 L1049.4 72.576 L1041.74 72.576 Q1033.11 72.576 1029.83 69.3758 Q1026.55 66.1351 1026.55 57.6282 L1026.55 32.9987 L1021.08 32.9987 L1021.08 27.2059 L1026.55 27.2059 L1026.55 14.324 L1034.04 14.324 Z" fill="#000000" fill-rule="evenodd" fill-opacity="1" /><path clip-path="url(#clip650)" d="M1059.2 27.2059 L1066.65 27.2059 L1066.65 72.576 L1059.2 72.576 L1059.2 27.2059 M1059.2 9.54393 L1066.65 9.54393 L1066.65 18.9825 L1059.2 18.9825 L1059.2 9.54393 Z" fill="#000000" fill-rule="evenodd" fill-opacity="1" /><path clip-path="url(#clip650)" d="M1114.9 28.9478 L1114.9 35.9153 Q1111.74 34.1734 1108.54 33.3227 Q1105.38 32.4315 1102.14 32.4315 Q1094.89 32.4315 1090.88 37.0496 Q1086.87 41.6271 1086.87 49.9314 Q1086.87 58.2358 1090.88 62.8538 Q1094.89 67.4314 1102.14 67.4314 Q1105.38 67.4314 1108.54 66.5807 Q1111.74 65.6895 1114.9 63.9476 L1114.9 70.8341 Q1111.78 72.2924 1108.42 73.0216 Q1105.1 73.7508 1101.33 73.7508 Q1091.08 73.7508 1085.04 67.3098 Q1079.01 60.8689 1079.01 49.9314 Q1079.01 38.832 1085.08 32.472 Q1091.2 26.1121 1101.81 26.1121 Q1105.26 26.1121 1108.54 26.8413 Q1111.82 27.5299 1114.9 28.9478 Z" fill="#000000" fill-rule="evenodd" fill-opacity="1" /><path clip-path="url(#clip650)" d="M1172.14 9.62495 Q1166.71 18.942 1164.08 28.0566 Q1161.44 37.1711 1161.44 46.5287 Q1161.44 55.8863 1164.08 65.0818 Q1166.75 74.2369 1172.14 83.5134 L1165.66 83.5134 Q1159.58 73.9938 1156.54 64.7983 Q1153.54 55.6027 1153.54 46.5287 Q1153.54 37.4952 1156.54 28.3401 Q1159.54 19.1851 1165.66 9.62495 L1172.14 9.62495 Z" fill="#000000" fill-rule="evenodd" fill-opacity="1" /><path clip-path="url(#clip650)" d="M1223.18 14.0809 L1223.18 22.0612 Q1218.52 19.8332 1214.39 18.7395 Q1210.26 17.6457 1206.41 17.6457 Q1199.73 17.6457 1196.08 20.2383 Q1192.47 22.8309 1192.47 27.611 Q1192.47 31.6214 1194.86 33.6873 Q1197.29 35.7128 1204.02 36.9686 L1208.96 37.9813 Q1218.12 39.7232 1222.45 44.1387 Q1226.83 48.5136 1226.83 55.8863 Q1226.83 64.6767 1220.91 69.2137 Q1215.04 73.7508 1203.65 73.7508 Q1199.36 73.7508 1194.5 72.7785 Q1189.68 71.8063 1184.49 69.9024 L1184.49 61.4765 Q1189.48 64.2716 1194.26 65.6895 Q1199.04 67.1073 1203.65 67.1073 Q1210.66 67.1073 1214.47 64.3527 Q1218.28 61.598 1218.28 56.4939 Q1218.28 52.0379 1215.52 49.5264 Q1212.81 47.0148 1206.57 45.759 L1201.59 44.7868 Q1192.43 42.9639 1188.34 39.075 Q1184.25 35.1862 1184.25 28.2591 Q1184.25 20.2383 1189.88 15.6203 Q1195.55 11.0023 1205.48 11.0023 Q1209.73 11.0023 1214.15 11.7719 Q1218.56 12.5416 1223.18 14.0809 Z" fill="#000000" fill-rule="evenodd" fill-opacity="1" /><path clip-path="url(#clip650)" d="M1239.26 27.2059 L1246.72 27.2059 L1246.72 72.576 L1239.26 72.576 L1239.26 27.2059 M1239.26 9.54393 L1246.72 9.54393 L1246.72 18.9825 L1239.26 18.9825 L1239.26 9.54393 Z" fill="#000000" fill-rule="evenodd" fill-opacity="1" /><path clip-path="url(#clip650)" d="M1292.17 49.3643 Q1292.17 41.2625 1288.8 36.8065 Q1285.48 32.3505 1279.45 32.3505 Q1273.45 32.3505 1270.09 36.8065 Q1266.77 41.2625 1266.77 49.3643 Q1266.77 57.4256 1270.09 61.8816 Q1273.45 66.3376 1279.45 66.3376 Q1285.48 66.3376 1288.8 61.8816 Q1292.17 57.4256 1292.17 49.3643 M1299.62 66.9452 Q1299.62 78.5308 1294.48 84.1616 Q1289.33 89.8329 1278.72 89.8329 Q1274.79 89.8329 1271.3 89.2252 Q1267.82 88.6581 1264.54 87.4428 L1264.54 80.1917 Q1267.82 81.9741 1271.02 82.8248 Q1274.22 83.6755 1277.54 83.6755 Q1284.88 83.6755 1288.52 79.8271 Q1292.17 76.0193 1292.17 68.282 L1292.17 64.5957 Q1289.86 68.6061 1286.25 70.5911 Q1282.65 72.576 1277.62 72.576 Q1269.28 72.576 1264.18 66.2161 Q1259.07 59.8562 1259.07 49.3643 Q1259.07 38.832 1264.18 32.472 Q1269.28 26.1121 1277.62 26.1121 Q1282.65 26.1121 1286.25 28.0971 Q1289.86 30.082 1292.17 34.0924 L1292.17 27.2059 L1299.62 27.2059 L1299.62 66.9452 Z" fill="#000000" fill-rule="evenodd" fill-opacity="1" /><path clip-path="url(#clip650)" d="M1350.3 35.9153 Q1353.09 30.8922 1356.98 28.5022 Q1360.87 26.1121 1366.14 26.1121 Q1373.23 26.1121 1377.07 31.0947 Q1380.92 36.0368 1380.92 45.1919 L1380.92 72.576 L1373.43 72.576 L1373.43 45.4349 Q1373.43 38.913 1371.12 35.7533 Q1368.81 32.5936 1364.07 32.5936 Q1358.28 32.5936 1354.92 36.4419 Q1351.55 40.2903 1351.55 46.9338 L1351.55 72.576 L1344.06 72.576 L1344.06 45.4349 Q1344.06 38.8725 1341.75 35.7533 Q1339.44 32.5936 1334.62 32.5936 Q1328.91 32.5936 1325.55 36.4824 Q1322.18 40.3308 1322.18 46.9338 L1322.18 72.576 L1314.69 72.576 L1314.69 27.2059 L1322.18 27.2059 L1322.18 34.2544 Q1324.74 30.082 1328.3 28.0971 Q1331.87 26.1121 1336.77 26.1121 Q1341.71 26.1121 1345.15 28.6237 Q1348.64 31.1352 1350.3 35.9153 Z" fill="#000000" fill-rule="evenodd" fill-opacity="1" /><path clip-path="url(#clip650)" d="M1413.37 32.4315 Q1407.37 32.4315 1403.89 37.1306 Q1400.41 41.7891 1400.41 49.9314 Q1400.41 58.0738 1403.85 62.7728 Q1407.33 67.4314 1413.37 67.4314 Q1419.32 67.4314 1422.81 62.7323 Q1426.29 58.0333 1426.29 49.9314 Q1426.29 41.8701 1422.81 37.1711 Q1419.32 32.4315 1413.37 32.4315 M1413.37 26.1121 Q1423.09 26.1121 1428.64 32.4315 Q1434.19 38.7509 1434.19 49.9314 Q1434.19 61.0714 1428.64 67.4314 Q1423.09 73.7508 1413.37 73.7508 Q1403.61 73.7508 1398.06 67.4314 Q1392.55 61.0714 1392.55 49.9314 Q1392.55 38.7509 1398.06 32.4315 Q1403.61 26.1121 1413.37 26.1121 Z" fill="#000000" fill-rule="evenodd" fill-opacity="1" /><path clip-path="url(#clip650)" d="M1446.55 27.2059 L1454 27.2059 L1454 72.576 L1446.55 72.576 L1446.55 27.2059 M1446.55 9.54393 L1454 9.54393 L1454 18.9825 L1446.55 18.9825 L1446.55 9.54393 Z" fill="#000000" fill-rule="evenodd" fill-opacity="1" /><path clip-path="url(#clip650)" d="M1499.45 34.0924 L1499.45 9.54393 L1506.91 9.54393 L1506.91 72.576 L1499.45 72.576 L1499.45 65.7705 Q1497.1 69.8214 1493.5 71.8063 Q1489.93 73.7508 1484.91 73.7508 Q1476.69 73.7508 1471.5 67.1883 Q1466.36 60.6258 1466.36 49.9314 Q1466.36 39.2371 1471.5 32.6746 Q1476.69 26.1121 1484.91 26.1121 Q1489.93 26.1121 1493.5 28.0971 Q1497.1 30.0415 1499.45 34.0924 M1474.05 49.9314 Q1474.05 58.1548 1477.41 62.8538 Q1480.82 67.5124 1486.73 67.5124 Q1492.65 67.5124 1496.05 62.8538 Q1499.45 58.1548 1499.45 49.9314 Q1499.45 41.7081 1496.05 37.0496 Q1492.65 32.3505 1486.73 32.3505 Q1480.82 32.3505 1477.41 37.0496 Q1474.05 41.7081 1474.05 49.9314 Z" fill="#000000" fill-rule="evenodd" fill-opacity="1" /><path clip-path="url(#clip650)" d="M1521.08 9.62495 L1527.56 9.62495 Q1533.64 19.1851 1536.64 28.3401 Q1539.68 37.4952 1539.68 46.5287 Q1539.68 55.6027 1536.64 64.7983 Q1533.64 73.9938 1527.56 83.5134 L1521.08 83.5134 Q1526.47 74.2369 1529.1 65.0818 Q1531.78 55.8863 1531.78 46.5287 Q1531.78 37.1711 1529.1 28.0566 Q1526.47 18.942 1521.08 9.62495 Z" fill="#000000" fill-rule="evenodd" fill-opacity="1" /><path clip-path="url(#clip650)" d="M1626.61 16.7545 L1626.61 25.383 Q1622.48 21.5346 1617.78 19.6307 Q1613.12 17.7268 1607.85 17.7268 Q1597.48 17.7268 1591.97 24.0867 Q1586.47 30.4061 1586.47 42.3968 Q1586.47 54.3469 1591.97 60.7069 Q1597.48 67.0263 1607.85 67.0263 Q1613.12 67.0263 1617.78 65.1223 Q1622.48 63.2184 1626.61 59.3701 L1626.61 67.9175 Q1622.32 70.8341 1617.49 72.2924 Q1612.71 73.7508 1607.37 73.7508 Q1593.64 73.7508 1585.74 65.3654 Q1577.84 56.9395 1577.84 42.3968 Q1577.84 27.8135 1585.74 19.4281 Q1593.64 11.0023 1607.37 11.0023 Q1612.8 11.0023 1617.58 12.4606 Q1622.4 13.8784 1626.61 16.7545 Z" fill="#000000" fill-rule="evenodd" fill-opacity="1" /><path clip-path="url(#clip650)" d="M1638.15 54.671 L1638.15 27.2059 L1645.61 27.2059 L1645.61 54.3874 Q1645.61 60.8284 1648.12 64.0691 Q1650.63 67.2693 1655.65 67.2693 Q1661.69 67.2693 1665.17 63.421 Q1668.7 59.5726 1668.7 52.9291 L1668.7 27.2059 L1676.15 27.2059 L1676.15 72.576 L1668.7 72.576 L1668.7 65.6084 Q1665.98 69.7404 1662.38 71.7658 Q1658.81 73.7508 1654.07 73.7508 Q1646.26 73.7508 1642.21 68.8897 Q1638.15 64.0286 1638.15 54.671 M1656.91 26.1121 L1656.91 26.1121 Z" fill="#000000" fill-rule="evenodd" fill-opacity="1" /><path clip-path="url(#clip650)" d="M1717.8 34.1734 Q1716.54 33.4443 1715.04 33.1202 Q1713.58 32.7556 1711.8 32.7556 Q1705.48 32.7556 1702.08 36.8875 Q1698.72 40.9789 1698.72 48.6757 L1698.72 72.576 L1691.22 72.576 L1691.22 27.2059 L1698.72 27.2059 L1698.72 34.2544 Q1701.07 30.1225 1704.83 28.1376 Q1708.6 26.1121 1713.99 26.1121 Q1714.76 26.1121 1715.69 26.2337 Q1716.62 26.3147 1717.75 26.5172 L1717.8 34.1734 Z" fill="#000000" fill-rule="evenodd" fill-opacity="1" /><path clip-path="url(#clip650)" d="M1720.27 27.2059 L1728.17 27.2059 L1742.34 65.2844 L1756.52 27.2059 L1764.42 27.2059 L1747.41 72.576 L1737.28 72.576 L1720.27 27.2059 Z" fill="#000000" fill-rule="evenodd" fill-opacity="1" /><path clip-path="url(#clip650)" d="M1813.52 48.0275 L1813.52 51.6733 L1779.25 51.6733 Q1779.73 59.3701 1783.87 63.421 Q1788.04 67.4314 1795.45 67.4314 Q1799.75 67.4314 1803.76 66.3781 Q1807.81 65.3249 1811.78 63.2184 L1811.78 70.267 Q1807.77 71.9684 1803.55 72.8596 Q1799.34 73.7508 1795.01 73.7508 Q1784.15 73.7508 1777.79 67.4314 Q1771.47 61.1119 1771.47 50.3365 Q1771.47 39.1965 1777.47 32.6746 Q1783.5 26.1121 1793.71 26.1121 Q1802.86 26.1121 1808.17 32.0264 Q1813.52 37.9003 1813.52 48.0275 M1806.06 45.84 Q1805.98 39.7232 1802.62 36.0774 Q1799.3 32.4315 1793.79 32.4315 Q1787.55 32.4315 1783.78 35.9558 Q1780.06 39.4801 1779.49 45.8805 L1806.06 45.84 Z" fill="#000000" fill-rule="evenodd" fill-opacity="1" /><polyline clip-path="url(#clip652)" style="stroke:#0000ff; stroke-linecap:butt; stroke-linejoin:round; stroke-width:4; stroke-opacity:1; fill:none" points="
  332.155,2116.96 348.502,2116.46 364.85,2115.91 381.198,2115.31 397.546,2114.64 413.894,2113.9 430.242,2113.08 446.59,2112.18 462.938,2111.19 479.286,2110.09 
  495.634,2108.87 511.981,2107.54 528.329,2106.06 544.677,2104.43 561.025,2102.63 577.373,2100.65 593.721,2098.46 610.069,2096.05 626.417,2093.39 642.765,2090.47 
  659.113,2087.24 675.461,2083.69 691.808,2079.78 708.156,2075.48 724.504,2070.75 740.852,2065.55 757.2,2059.83 773.548,2053.56 789.896,2046.67 806.244,2039.12 
  822.592,2030.85 838.94,2021.79 855.288,2011.89 871.635,2001.07 887.983,1989.26 904.331,1976.39 920.679,1962.37 937.027,1947.14 953.375,1930.62 969.723,1912.72 
  986.071,1893.36 1002.42,1872.47 1018.77,1849.97 1035.11,1825.81 1051.46,1799.92 1067.81,1772.25 1084.16,1742.77 1100.51,1711.45 1116.85,1678.3 1133.2,1643.31 
  1149.55,1606.53 1165.9,1568.01 1182.25,1527.83 1198.59,1486.1 1214.94,1442.94 1231.29,1398.5 1247.64,1352.97 1263.99,1306.52 1280.33,1259.38 1296.68,1211.77 
  1313.03,1163.93 1329.38,1116.08 1345.72,1068.47 1362.07,1021.33 1378.42,974.886 1394.77,929.351 1411.12,884.916 1427.46,841.756 1443.81,800.023 1460.16,759.844 
  1476.51,721.325 1492.86,684.544 1509.2,649.557 1525.55,616.399 1541.9,585.082 1558.25,555.6 1574.6,527.933 1590.94,502.042 1607.29,477.879 1623.64,455.385 
  1639.99,434.495 1656.34,415.137 1672.68,397.233 1689.03,380.707 1705.38,365.478 1721.73,351.467 1738.07,338.595 1754.42,326.785 1770.77,315.964 1787.12,306.06 
  1803.47,297.004 1819.81,288.731 1836.16,281.181 1852.51,274.296 1868.86,268.021 1885.21,262.306 1901.55,257.105 1917.9,252.374 1934.25,248.072 1950.6,244.162 
  1966.95,240.611 1983.29,237.386 1999.64,234.458 2015.99,231.801 2032.34,229.39 2048.68,227.204 2065.03,225.221 2081.38,223.423 2097.73,221.793 2114.08,220.316 
  2130.42,218.978 2146.77,217.765 2163.12,216.667 2179.47,215.672 2195.82,214.77 2212.16,213.954 2228.51,213.215 2244.86,212.546 2261.21,211.94 2277.56,211.391 
  2293.9,210.894 
  "/>
</svg>
