<?xml version="1.0" encoding="utf-8"?>
<svg xmlns="http://www.w3.org/2000/svg" xmlns:xlink="http://www.w3.org/1999/xlink" width="600" height="600" viewBox="0 0 2400 2400">
<defs>
  <clipPath id="clip710">
    <rect x="0" y="0" width="2400" height="2400"/>
  </clipPath>
</defs>
<path clip-path="url(#clip710)" d="
M0 2400 L2400 2400 L2400 0 L0 0  Z
  " fill="#ffffff" fill-rule="evenodd" fill-opacity="1"/>
<defs>
  <clipPath id="clip711">
    <rect x="480" y="240" width="1681" height="1681"/>
  </clipPath>
</defs>
<path clip-path="url(#clip710)" d="
M273.302 2174.14 L2352.76 2174.14 L2352.76 153.712 L273.302 153.712  Z
  " fill="#ffffff" fill-rule="evenodd" fill-opacity="1"/>
<defs>
  <clipPath id="clip712">
    <rect x="273" y="153" width="2080" height="2021"/>
  </clipPath>
</defs>
<polyline clip-path="url(#clip712)" style="stroke:#000000; stroke-linecap:butt; stroke-linejoin:round; stroke-width:2; stroke-opacity:0.1; fill:none" points="
  712.243,2174.14 712.243,153.712 
  "/>
<polyline clip-path="url(#clip712)" style="stroke:#000000; stroke-linecap:butt; stroke-linejoin:round; stroke-width:2; stroke-opacity:0.1; fill:none" points="
  1202.68,2174.14 1202.68,153.712 
  "/>
<polyline clip-path="url(#clip712)" style="stroke:#000000; stroke-linecap:butt; stroke-linejoin:round; stroke-width:2; stroke-opacity:0.1; fill:none" points="
  1693.12,2174.14 1693.12,153.712 
  "/>
<polyline clip-path="url(#clip712)" style="stroke:#000000; stroke-linecap:butt; stroke-linejoin:round; stroke-width:2; stroke-opacity:0.1; fill:none" points="
  2183.56,2174.14 2183.56,153.712 
  "/>
<polyline clip-path="url(#clip710)" style="stroke:#000000; stroke-linecap:butt; stroke-linejoin:round; stroke-width:4; stroke-opacity:1; fill:none" points="
  273.302,2174.14 2352.76,2174.14 
  "/>
<polyline clip-path="url(#clip710)" style="stroke:#000000; stroke-linecap:butt; stroke-linejoin:round; stroke-width:4; stroke-opacity:1; fill:none" points="
  712.243,2174.14 712.243,2155.24 
  "/>
<polyline clip-path="url(#clip710)" style="stroke:#000000; stroke-linecap:butt; stroke-linejoin:round; stroke-width:4; stroke-opacity:1; fill:none" points="
  1202.68,2174.14 1202.68,2155.24 
  "/>
<polyline clip-path="url(#clip710)" style="stroke:#000000; stroke-linecap:butt; stroke-linejoin:round; stroke-width:4; stroke-opacity:1; fill:none" points="
  1693.12,2174.14 1693.12,2155.24 
  "/>
<polyline clip-path="url(#clip710)" style="stroke:#000000; stroke-linecap:butt; stroke-linejoin:round; stroke-width:4; stroke-opacity:1; fill:none" points="
  2183.56,2174.14 2183.56,2155.24 
  "/>
<path clip-path="url(#clip710)" d="M689.385 2205.06 Q685.774 2205.06 683.945 2208.62 Q682.139 2212.16 682.139 2219.29 Q682.139 2226.4 683.945 2229.97 Q685.774 2233.51 689.385 2233.51 Q693.019 2233.51 694.824 2229.97 Q696.653 2226.4 696.653 2219.29 Q696.653 2212.16 694.824 2208.62 Q693.019 2205.06 689.385 2205.06 M689.385 2201.35 Q695.195 2201.35 698.25 2205.96 Q701.329 2210.54 701.329 2219.29 Q701.329 2228.02 698.25 2232.63 Q695.195 2237.21 689.385 2237.21 Q683.575 2237.21 680.496 2232.63 Q677.44 2228.02 677.44 2219.29 Q677.44 2210.54 680.496 2205.96 Q683.575 2201.35 689.385 2201.35 Z" fill="#000000" fill-rule="evenodd" fill-opacity="1" /><path clip-path="url(#clip710)" d="M709.547 2230.66 L714.431 2230.66 L714.431 2236.54 L709.547 2236.54 L709.547 2230.66 Z" fill="#000000" fill-rule="evenodd" fill-opacity="1" /><path clip-path="url(#clip710)" d="M737.463 2206.05 L725.658 2224.5 L737.463 2224.5 L737.463 2206.05 M736.236 2201.98 L742.116 2201.98 L742.116 2224.5 L747.046 2224.5 L747.046 2228.39 L742.116 2228.39 L742.116 2236.54 L737.463 2236.54 L737.463 2228.39 L721.861 2228.39 L721.861 2223.88 L736.236 2201.98 Z" fill="#000000" fill-rule="evenodd" fill-opacity="1" /><path clip-path="url(#clip710)" d="M1179.98 2205.06 Q1176.37 2205.06 1174.54 2208.62 Q1172.74 2212.16 1172.74 2219.29 Q1172.74 2226.4 1174.54 2229.97 Q1176.37 2233.51 1179.98 2233.51 Q1183.62 2233.51 1185.42 2229.97 Q1187.25 2226.4 1187.25 2219.29 Q1187.25 2212.16 1185.42 2208.62 Q1183.62 2205.06 1179.98 2205.06 M1179.98 2201.35 Q1185.79 2201.35 1188.85 2205.96 Q1191.93 2210.54 1191.93 2219.29 Q1191.93 2228.02 1188.85 2232.63 Q1185.79 2237.21 1179.98 2237.21 Q1174.17 2237.21 1171.1 2232.63 Q1168.04 2228.02 1168.04 2219.29 Q1168.04 2210.54 1171.1 2205.96 Q1174.17 2201.35 1179.98 2201.35 Z" fill="#000000" fill-rule="evenodd" fill-opacity="1" /><path clip-path="url(#clip710)" d="M1200.15 2230.66 L1205.03 2230.66 L1205.03 2236.54 L1200.15 2236.54 L1200.15 2230.66 Z" fill="#000000" fill-rule="evenodd" fill-opacity="1" /><path clip-path="url(#clip710)" d="M1225.79 2217.4 Q1222.65 2217.4 1220.79 2219.55 Q1218.97 2221.7 1218.97 2225.45 Q1218.97 2229.18 1220.79 2231.35 Q1222.65 2233.51 1225.79 2233.51 Q1228.94 2233.51 1230.77 2231.35 Q1232.62 2229.18 1232.62 2225.45 Q1232.62 2221.7 1230.77 2219.55 Q1228.94 2217.4 1225.79 2217.4 M1235.08 2202.74 L1235.08 2207 Q1233.32 2206.17 1231.51 2205.73 Q1229.73 2205.29 1227.97 2205.29 Q1223.34 2205.29 1220.89 2208.41 Q1218.46 2211.54 1218.11 2217.86 Q1219.47 2215.85 1221.53 2214.78 Q1223.59 2213.69 1226.07 2213.69 Q1231.28 2213.69 1234.29 2216.86 Q1237.32 2220.01 1237.32 2225.45 Q1237.32 2230.78 1234.17 2233.99 Q1231.03 2237.21 1225.79 2237.21 Q1219.8 2237.21 1216.63 2232.63 Q1213.46 2228.02 1213.46 2219.29 Q1213.46 2211.1 1217.34 2206.24 Q1221.23 2201.35 1227.78 2201.35 Q1229.54 2201.35 1231.33 2201.7 Q1233.13 2202.05 1235.08 2202.74 Z" fill="#000000" fill-rule="evenodd" fill-opacity="1" /><path clip-path="url(#clip710)" d="M1670.55 2205.06 Q1666.94 2205.06 1665.11 2208.62 Q1663.3 2212.16 1663.3 2219.29 Q1663.3 2226.4 1665.11 2229.97 Q1666.94 2233.51 1670.55 2233.51 Q1674.18 2233.51 1675.99 2229.97 Q1677.82 2226.4 1677.82 2219.29 Q1677.82 2212.16 1675.99 2208.62 Q1674.18 2205.06 1670.55 2205.06 M1670.55 2201.35 Q1676.36 2201.35 1679.41 2205.96 Q1682.49 2210.54 1682.49 2219.29 Q1682.49 2228.02 1679.41 2232.63 Q1676.36 2237.21 1670.55 2237.21 Q1664.74 2237.21 1661.66 2232.63 Q1658.6 2228.02 1658.6 2219.29 Q1658.6 2210.54 1661.66 2205.96 Q1664.74 2201.35 1670.55 2201.35 Z" fill="#000000" fill-rule="evenodd" fill-opacity="1" /><path clip-path="url(#clip710)" d="M1690.71 2230.66 L1695.59 2230.66 L1695.59 2236.54 L1690.71 2236.54 L1690.71 2230.66 Z" fill="#000000" fill-rule="evenodd" fill-opacity="1" /><path clip-path="url(#clip710)" d="M1715.78 2220.13 Q1712.45 2220.13 1710.53 2221.91 Q1708.63 2223.69 1708.63 2226.82 Q1708.63 2229.94 1710.53 2231.73 Q1712.45 2233.51 1715.78 2233.51 Q1719.11 2233.51 1721.03 2231.73 Q1722.96 2229.92 1722.96 2226.82 Q1722.96 2223.69 1721.03 2221.91 Q1719.14 2220.13 1715.78 2220.13 M1711.1 2218.14 Q1708.09 2217.4 1706.4 2215.34 Q1704.74 2213.28 1704.74 2210.31 Q1704.74 2206.17 1707.68 2203.76 Q1710.64 2201.35 1715.78 2201.35 Q1720.94 2201.35 1723.88 2203.76 Q1726.82 2206.17 1726.82 2210.31 Q1726.82 2213.28 1725.13 2215.34 Q1723.46 2217.4 1720.48 2218.14 Q1723.86 2218.92 1725.73 2221.22 Q1727.63 2223.51 1727.63 2226.82 Q1727.63 2231.84 1724.55 2234.53 Q1721.5 2237.21 1715.78 2237.21 Q1710.06 2237.21 1706.98 2234.53 Q1703.93 2231.84 1703.93 2226.82 Q1703.93 2223.51 1705.83 2221.22 Q1707.72 2218.92 1711.1 2218.14 M1709.39 2210.75 Q1709.39 2213.44 1711.06 2214.94 Q1712.75 2216.45 1715.78 2216.45 Q1718.79 2216.45 1720.48 2214.94 Q1722.19 2213.44 1722.19 2210.75 Q1722.19 2208.07 1720.48 2206.56 Q1718.79 2205.06 1715.78 2205.06 Q1712.75 2205.06 1711.06 2206.56 Q1709.39 2208.07 1709.39 2210.75 Z" fill="#000000" fill-rule="evenodd" fill-opacity="1" /><path clip-path="url(#clip710)" d="M2150.71 2232.6 L2158.35 2232.6 L2158.35 2206.24 L2150.04 2207.91 L2150.04 2203.65 L2158.3 2201.98 L2162.98 2201.98 L2162.98 2232.6 L2170.62 2232.6 L2170.62 2236.54 L2150.71 2236.54 L2150.71 2232.6 Z" fill="#000000" fill-rule="evenodd" fill-opacity="1" /><path clip-path="url(#clip710)" d="M2180.06 2230.66 L2184.94 2230.66 L2184.94 2236.54 L2180.06 2236.54 L2180.06 2230.66 Z" fill="#000000" fill-rule="evenodd" fill-opacity="1" /><path clip-path="url(#clip710)" d="M2205.13 2205.06 Q2201.52 2205.06 2199.69 2208.62 Q2197.88 2212.16 2197.88 2219.29 Q2197.88 2226.4 2199.69 2229.97 Q2201.52 2233.51 2205.13 2233.51 Q2208.76 2233.51 2210.57 2229.97 Q2212.4 2226.4 2212.4 2219.29 Q2212.4 2212.16 2210.57 2208.62 Q2208.76 2205.06 2205.13 2205.06 M2205.13 2201.35 Q2210.94 2201.35 2213.99 2205.96 Q2217.07 2210.54 2217.07 2219.29 Q2217.07 2228.02 2213.99 2232.63 Q2210.94 2237.21 2205.13 2237.21 Q2199.32 2237.21 2196.24 2232.63 Q2193.18 2228.02 2193.18 2219.29 Q2193.18 2210.54 2196.24 2205.96 Q2199.32 2201.35 2205.13 2201.35 Z" fill="#000000" fill-rule="evenodd" fill-opacity="1" /><path clip-path="url(#clip710)" d="M890.776 2273.04 L890.776 2279.31 Q887.115 2277.56 883.869 2276.7 Q880.622 2275.84 877.599 2275.84 Q872.347 2275.84 869.482 2277.88 Q866.65 2279.92 866.65 2283.67 Q866.65 2286.83 868.528 2288.45 Q870.437 2290.04 875.721 2291.03 L879.604 2291.82 Q886.797 2293.19 890.203 2296.66 Q893.64 2300.1 893.64 2305.89 Q893.64 2312.8 888.993 2316.36 Q884.378 2319.93 875.434 2319.93 Q872.061 2319.93 868.241 2319.16 Q864.454 2318.4 860.379 2316.9 L860.379 2310.28 Q864.294 2312.48 868.05 2313.59 Q871.806 2314.71 875.434 2314.71 Q880.941 2314.71 883.933 2312.54 Q886.924 2310.38 886.924 2306.37 Q886.924 2302.87 884.76 2300.89 Q882.628 2298.92 877.726 2297.93 L873.811 2297.17 Q866.618 2295.74 863.403 2292.68 Q860.189 2289.63 860.189 2284.18 Q860.189 2277.88 864.613 2274.25 Q869.069 2270.62 876.867 2270.62 Q880.209 2270.62 883.678 2271.23 Q887.147 2271.83 890.776 2273.04 Z" fill="#000000" fill-rule="evenodd" fill-opacity="1" /><path clip-path="url(#clip710)" d="M903.412 2283.36 L909.268 2283.36 L909.268 2319 L903.412 2319 L903.412 2283.36 M903.412 2269.48 L909.268 2269.48 L909.268 2276.89 L903.412 2276.89 L903.412 2269.48 Z" fill="#000000" fill-rule="evenodd" fill-opacity="1" /><path clip-path="url(#clip710)" d="M918.976 2283.36 L946.794 2283.36 L946.794 2288.7 L924.769 2314.33 L946.794 2314.33 L946.794 2319 L918.18 2319 L918.18 2313.66 L940.205 2288.03 L918.976 2288.03 L918.976 2283.36 Z" fill="#000000" fill-rule="evenodd" fill-opacity="1" /><path clip-path="url(#clip710)" d="M986.23 2299.72 L986.23 2302.58 L959.303 2302.58 Q959.685 2308.63 962.931 2311.81 Q966.209 2314.96 972.034 2314.96 Q975.408 2314.96 978.559 2314.13 Q981.742 2313.31 984.861 2311.65 L984.861 2317.19 Q981.71 2318.53 978.4 2319.23 Q975.09 2319.93 971.684 2319.93 Q963.154 2319.93 958.157 2314.96 Q953.191 2310 953.191 2301.53 Q953.191 2292.78 957.902 2287.65 Q962.645 2282.5 970.665 2282.5 Q977.859 2282.5 982.028 2287.14 Q986.23 2291.76 986.23 2299.72 M980.373 2298 Q980.309 2293.19 977.668 2290.33 Q975.058 2287.46 970.729 2287.46 Q965.827 2287.46 962.867 2290.23 Q959.939 2293 959.494 2298.03 L980.373 2298 Z" fill="#000000" fill-rule="evenodd" fill-opacity="1" /><path clip-path="url(#clip710)" d="M1030.38 2287.46 Q1025.67 2287.46 1022.93 2291.15 Q1020.19 2294.81 1020.19 2301.21 Q1020.19 2307.61 1022.9 2311.3 Q1025.63 2314.96 1030.38 2314.96 Q1035.05 2314.96 1037.79 2311.27 Q1040.53 2307.58 1040.53 2301.21 Q1040.53 2294.88 1037.79 2291.19 Q1035.05 2287.46 1030.38 2287.46 M1030.38 2282.5 Q1038.01 2282.5 1042.38 2287.46 Q1046.74 2292.43 1046.74 2301.21 Q1046.74 2309.96 1042.38 2314.96 Q1038.01 2319.93 1030.38 2319.93 Q1022.71 2319.93 1018.34 2314.96 Q1014.02 2309.96 1014.02 2301.21 Q1014.02 2292.43 1018.34 2287.46 Q1022.71 2282.5 1030.38 2282.5 Z" fill="#000000" fill-rule="evenodd" fill-opacity="1" /><path clip-path="url(#clip710)" d="M1074.49 2269.48 L1074.49 2274.35 L1068.89 2274.35 Q1065.74 2274.35 1064.5 2275.62 Q1063.29 2276.89 1063.29 2280.2 L1063.29 2283.36 L1072.93 2283.36 L1072.93 2287.91 L1063.29 2287.91 L1063.29 2319 L1057.4 2319 L1057.4 2287.91 L1051.8 2287.91 L1051.8 2283.36 L1057.4 2283.36 L1057.4 2280.87 Q1057.4 2274.92 1060.17 2272.22 Q1062.94 2269.48 1068.95 2269.48 L1074.49 2269.48 Z" fill="#000000" fill-rule="evenodd" fill-opacity="1" /><path clip-path="url(#clip710)" d="M1132.77 2312.22 L1132.77 2299.46 L1122.26 2299.46 L1122.26 2294.18 L1139.13 2294.18 L1139.13 2314.58 Q1135.41 2317.22 1130.92 2318.59 Q1126.43 2319.93 1121.34 2319.93 Q1110.2 2319.93 1103.9 2313.43 Q1097.63 2306.91 1097.63 2295.29 Q1097.63 2283.64 1103.9 2277.15 Q1110.2 2270.62 1121.34 2270.62 Q1125.99 2270.62 1130.16 2271.77 Q1134.36 2272.92 1137.89 2275.14 L1137.89 2281.99 Q1134.33 2278.96 1130.32 2277.44 Q1126.31 2275.91 1121.88 2275.91 Q1113.16 2275.91 1108.77 2280.78 Q1104.41 2285.65 1104.41 2295.29 Q1104.41 2304.9 1108.77 2309.77 Q1113.16 2314.64 1121.88 2314.64 Q1125.29 2314.64 1127.96 2314.07 Q1130.64 2313.47 1132.77 2312.22 Z" fill="#000000" fill-rule="evenodd" fill-opacity="1" /><path clip-path="url(#clip710)" d="M1171.28 2288.83 Q1170.29 2288.26 1169.12 2288 Q1167.97 2287.72 1166.57 2287.72 Q1161.6 2287.72 1158.93 2290.96 Q1156.29 2294.18 1156.29 2300.23 L1156.29 2319 L1150.4 2319 L1150.4 2283.36 L1156.29 2283.36 L1156.29 2288.89 Q1158.14 2285.65 1161.1 2284.09 Q1164.06 2282.5 1168.29 2282.5 Q1168.89 2282.5 1169.63 2282.59 Q1170.36 2282.66 1171.25 2282.81 L1171.28 2288.83 Z" fill="#000000" fill-rule="evenodd" fill-opacity="1" /><path clip-path="url(#clip710)" d="M1193.62 2301.08 Q1186.53 2301.08 1183.79 2302.71 Q1181.05 2304.33 1181.05 2308.25 Q1181.05 2311.36 1183.09 2313.21 Q1185.16 2315.03 1188.69 2315.03 Q1193.56 2315.03 1196.49 2311.59 Q1199.45 2308.12 1199.45 2302.39 L1199.45 2301.08 L1193.62 2301.08 M1205.31 2298.67 L1205.31 2319 L1199.45 2319 L1199.45 2313.59 Q1197.44 2316.84 1194.45 2318.4 Q1191.46 2319.93 1187.13 2319.93 Q1181.66 2319.93 1178.41 2316.87 Q1175.2 2313.78 1175.2 2308.63 Q1175.2 2302.61 1179.21 2299.56 Q1183.25 2296.5 1191.24 2296.5 L1199.45 2296.5 L1199.45 2295.93 Q1199.45 2291.89 1196.78 2289.69 Q1194.13 2287.46 1189.33 2287.46 Q1186.27 2287.46 1183.38 2288.19 Q1180.48 2288.93 1177.81 2290.39 L1177.81 2284.98 Q1181.02 2283.74 1184.04 2283.13 Q1187.07 2282.5 1189.93 2282.5 Q1197.67 2282.5 1201.49 2286.51 Q1205.31 2290.52 1205.31 2298.67 Z" fill="#000000" fill-rule="evenodd" fill-opacity="1" /><path clip-path="url(#clip710)" d="M1217.37 2283.36 L1223.22 2283.36 L1223.22 2319 L1217.37 2319 L1217.37 2283.36 M1217.37 2269.48 L1223.22 2269.48 L1223.22 2276.89 L1217.37 2276.89 L1217.37 2269.48 Z" fill="#000000" fill-rule="evenodd" fill-opacity="1" /><path clip-path="url(#clip710)" d="M1265.11 2297.49 L1265.11 2319 L1259.25 2319 L1259.25 2297.68 Q1259.25 2292.62 1257.28 2290.1 Q1255.31 2287.59 1251.36 2287.59 Q1246.62 2287.59 1243.88 2290.61 Q1241.14 2293.64 1241.14 2298.86 L1241.14 2319 L1235.26 2319 L1235.26 2283.36 L1241.14 2283.36 L1241.14 2288.89 Q1243.24 2285.68 1246.08 2284.09 Q1248.94 2282.5 1252.67 2282.5 Q1258.81 2282.5 1261.96 2286.32 Q1265.11 2290.1 1265.11 2297.49 Z" fill="#000000" fill-rule="evenodd" fill-opacity="1" /><path clip-path="url(#clip710)" d="M1299.52 2284.41 L1299.52 2289.94 Q1297.04 2288.67 1294.36 2288.03 Q1291.69 2287.4 1288.82 2287.4 Q1284.46 2287.4 1282.27 2288.73 Q1280.1 2290.07 1280.1 2292.75 Q1280.1 2294.78 1281.66 2295.96 Q1283.22 2297.11 1287.93 2298.16 L1289.94 2298.6 Q1296.18 2299.94 1298.79 2302.39 Q1301.43 2304.81 1301.43 2309.17 Q1301.43 2314.13 1297.48 2317.03 Q1293.57 2319.93 1286.69 2319.93 Q1283.83 2319.93 1280.71 2319.35 Q1277.62 2318.81 1274.18 2317.7 L1274.18 2311.65 Q1277.43 2313.34 1280.58 2314.2 Q1283.73 2315.03 1286.82 2315.03 Q1290.96 2315.03 1293.18 2313.62 Q1295.41 2312.19 1295.41 2309.61 Q1295.41 2307.23 1293.79 2305.95 Q1292.2 2304.68 1286.75 2303.5 L1284.72 2303.03 Q1279.27 2301.88 1276.86 2299.52 Q1274.44 2297.14 1274.44 2293 Q1274.44 2287.97 1278 2285.23 Q1281.57 2282.5 1288.12 2282.5 Q1291.37 2282.5 1294.23 2282.97 Q1297.1 2283.45 1299.52 2284.41 Z" fill="#000000" fill-rule="evenodd" fill-opacity="1" /><path clip-path="url(#clip710)" d="M1345.29 2287.46 Q1340.58 2287.46 1337.84 2291.15 Q1335.1 2294.81 1335.1 2301.21 Q1335.1 2307.61 1337.81 2311.3 Q1340.54 2314.96 1345.29 2314.96 Q1349.97 2314.96 1352.7 2311.27 Q1355.44 2307.58 1355.44 2301.21 Q1355.44 2294.88 1352.7 2291.19 Q1349.97 2287.46 1345.29 2287.46 M1345.29 2282.5 Q1352.93 2282.5 1357.29 2287.46 Q1361.65 2292.43 1361.65 2301.21 Q1361.65 2309.96 1357.29 2314.96 Q1352.93 2319.93 1345.29 2319.93 Q1337.62 2319.93 1333.26 2314.96 Q1328.93 2309.96 1328.93 2301.21 Q1328.93 2292.43 1333.26 2287.46 Q1337.62 2282.5 1345.29 2282.5 Z" fill="#000000" fill-rule="evenodd" fill-opacity="1" /><path clip-path="url(#clip710)" d="M1389.4 2269.48 L1389.4 2274.35 L1383.8 2274.35 Q1380.65 2274.35 1379.41 2275.62 Q1378.2 2276.89 1378.2 2280.2 L1378.2 2283.36 L1387.84 2283.36 L1387.84 2287.91 L1378.2 2287.91 L1378.2 2319 L1372.31 2319 L1372.31 2287.91 L1366.71 2287.91 L1366.71 2283.36 L1372.31 2283.36 L1372.31 2280.87 Q1372.31 2274.92 1375.08 2272.22 Q1377.85 2269.48 1383.86 2269.48 L1389.4 2269.48 Z" fill="#000000" fill-rule="evenodd" fill-opacity="1" /><path clip-path="url(#clip710)" d="M1443.76 2273.04 L1443.76 2279.31 Q1440.1 2277.56 1436.86 2276.7 Q1433.61 2275.84 1430.59 2275.84 Q1425.34 2275.84 1422.47 2277.88 Q1419.64 2279.92 1419.64 2283.67 Q1419.64 2286.83 1421.52 2288.45 Q1423.43 2290.04 1428.71 2291.03 L1432.59 2291.82 Q1439.79 2293.19 1443.19 2296.66 Q1446.63 2300.1 1446.63 2305.89 Q1446.63 2312.8 1441.98 2316.36 Q1437.37 2319.93 1428.42 2319.93 Q1425.05 2319.93 1421.23 2319.16 Q1417.44 2318.4 1413.37 2316.9 L1413.37 2310.28 Q1417.28 2312.48 1421.04 2313.59 Q1424.79 2314.71 1428.42 2314.71 Q1433.93 2314.71 1436.92 2312.54 Q1439.91 2310.38 1439.91 2306.37 Q1439.91 2302.87 1437.75 2300.89 Q1435.62 2298.92 1430.71 2297.93 L1426.8 2297.17 Q1419.61 2295.74 1416.39 2292.68 Q1413.18 2289.63 1413.18 2284.18 Q1413.18 2277.88 1417.6 2274.25 Q1422.06 2270.62 1429.86 2270.62 Q1433.2 2270.62 1436.67 2271.23 Q1440.14 2271.83 1443.76 2273.04 Z" fill="#000000" fill-rule="evenodd" fill-opacity="1" /><path clip-path="url(#clip710)" d="M1472.6 2301.08 Q1465.5 2301.08 1462.77 2302.71 Q1460.03 2304.33 1460.03 2308.25 Q1460.03 2311.36 1462.07 2313.21 Q1464.13 2315.03 1467.67 2315.03 Q1472.54 2315.03 1475.47 2311.59 Q1478.43 2308.12 1478.43 2302.39 L1478.43 2301.08 L1472.6 2301.08 M1484.28 2298.67 L1484.28 2319 L1478.43 2319 L1478.43 2313.59 Q1476.42 2316.84 1473.43 2318.4 Q1470.44 2319.93 1466.11 2319.93 Q1460.63 2319.93 1457.39 2316.87 Q1454.17 2313.78 1454.17 2308.63 Q1454.17 2302.61 1458.18 2299.56 Q1462.23 2296.5 1470.21 2296.5 L1478.43 2296.5 L1478.43 2295.93 Q1478.43 2291.89 1475.75 2289.69 Q1473.11 2287.46 1468.3 2287.46 Q1465.25 2287.46 1462.35 2288.19 Q1459.46 2288.93 1456.78 2290.39 L1456.78 2284.98 Q1460 2283.74 1463.02 2283.13 Q1466.04 2282.5 1468.91 2282.5 Q1476.64 2282.5 1480.46 2286.51 Q1484.28 2290.52 1484.28 2298.67 Z" fill="#000000" fill-rule="evenodd" fill-opacity="1" /><path clip-path="url(#clip710)" d="M1525.98 2297.49 L1525.98 2319 L1520.12 2319 L1520.12 2297.68 Q1520.12 2292.62 1518.15 2290.1 Q1516.17 2287.59 1512.23 2287.59 Q1507.49 2287.59 1504.75 2290.61 Q1502.01 2293.64 1502.01 2298.86 L1502.01 2319 L1496.12 2319 L1496.12 2283.36 L1502.01 2283.36 L1502.01 2288.89 Q1504.11 2285.68 1506.94 2284.09 Q1509.81 2282.5 1513.53 2282.5 Q1519.68 2282.5 1522.83 2286.32 Q1525.98 2290.1 1525.98 2297.49 Z" fill="#000000" fill-rule="evenodd" fill-opacity="1" /><path clip-path="url(#clip710)" d="M1561.12 2288.77 L1561.12 2269.48 L1566.97 2269.48 L1566.97 2319 L1561.12 2319 L1561.12 2313.66 Q1559.27 2316.84 1556.44 2318.4 Q1553.64 2319.93 1549.69 2319.93 Q1543.23 2319.93 1539.15 2314.77 Q1535.11 2309.61 1535.11 2301.21 Q1535.11 2292.81 1539.15 2287.65 Q1543.23 2282.5 1549.69 2282.5 Q1553.64 2282.5 1556.44 2284.06 Q1559.27 2285.58 1561.12 2288.77 M1541.16 2301.21 Q1541.16 2307.67 1543.8 2311.36 Q1546.48 2315.03 1551.12 2315.03 Q1555.77 2315.03 1558.44 2311.36 Q1561.12 2307.67 1561.12 2301.21 Q1561.12 2294.75 1558.44 2291.09 Q1555.77 2287.4 1551.12 2287.4 Q1546.48 2287.4 1543.8 2291.09 Q1541.16 2294.75 1541.16 2301.21 Z" fill="#000000" fill-rule="evenodd" fill-opacity="1" /><path clip-path="url(#clip710)" d="M1613.82 2269.54 Q1609.56 2276.86 1607.49 2284.02 Q1605.42 2291.19 1605.42 2298.54 Q1605.42 2305.89 1607.49 2313.12 Q1609.59 2320.31 1613.82 2327.6 L1608.73 2327.6 Q1603.96 2320.12 1601.57 2312.89 Q1599.22 2305.67 1599.22 2298.54 Q1599.22 2291.44 1601.57 2284.25 Q1603.93 2277.05 1608.73 2269.54 L1613.82 2269.54 Z" fill="#000000" fill-rule="evenodd" fill-opacity="1" /><path clip-path="url(#clip710)" d="M1652.94 2290.2 Q1655.14 2286.25 1658.19 2284.37 Q1661.25 2282.5 1665.39 2282.5 Q1670.96 2282.5 1673.98 2286.41 Q1677 2290.29 1677 2297.49 L1677 2319 L1671.12 2319 L1671.12 2297.68 Q1671.12 2292.55 1669.3 2290.07 Q1667.49 2287.59 1663.76 2287.59 Q1659.21 2287.59 1656.57 2290.61 Q1653.93 2293.64 1653.93 2298.86 L1653.93 2319 L1648.04 2319 L1648.04 2297.68 Q1648.04 2292.52 1646.23 2290.07 Q1644.41 2287.59 1640.62 2287.59 Q1636.14 2287.59 1633.49 2290.64 Q1630.85 2293.67 1630.85 2298.86 L1630.85 2319 L1624.96 2319 L1624.96 2283.36 L1630.85 2283.36 L1630.85 2288.89 Q1632.86 2285.62 1635.66 2284.06 Q1638.46 2282.5 1642.31 2282.5 Q1646.19 2282.5 1648.9 2284.47 Q1651.64 2286.44 1652.94 2290.2 Z" fill="#000000" fill-rule="evenodd" fill-opacity="1" /><path clip-path="url(#clip710)" d="M1716.44 2290.2 Q1718.64 2286.25 1721.69 2284.37 Q1724.75 2282.5 1728.88 2282.5 Q1734.45 2282.5 1737.48 2286.41 Q1740.5 2290.29 1740.5 2297.49 L1740.5 2319 L1734.61 2319 L1734.61 2297.68 Q1734.61 2292.55 1732.8 2290.07 Q1730.99 2287.59 1727.26 2287.59 Q1722.71 2287.59 1720.07 2290.61 Q1717.43 2293.64 1717.43 2298.86 L1717.43 2319 L1711.54 2319 L1711.54 2297.68 Q1711.54 2292.52 1709.72 2290.07 Q1707.91 2287.59 1704.12 2287.59 Q1699.63 2287.59 1696.99 2290.64 Q1694.35 2293.67 1694.35 2298.86 L1694.35 2319 L1688.46 2319 L1688.46 2283.36 L1694.35 2283.36 L1694.35 2288.89 Q1696.36 2285.62 1699.16 2284.06 Q1701.96 2282.5 1705.81 2282.5 Q1709.69 2282.5 1712.4 2284.47 Q1715.13 2286.44 1716.44 2290.2 Z" fill="#000000" fill-rule="evenodd" fill-opacity="1" /><path clip-path="url(#clip710)" d="M1751.26 2269.54 L1756.35 2269.54 Q1761.13 2277.05 1763.48 2284.25 Q1765.87 2291.44 1765.87 2298.54 Q1765.87 2305.67 1763.48 2312.89 Q1761.13 2320.12 1756.35 2327.6 L1751.26 2327.6 Q1755.49 2320.31 1757.56 2313.12 Q1759.66 2305.89 1759.66 2298.54 Q1759.66 2291.19 1757.56 2284.02 Q1755.49 2276.86 1751.26 2269.54 Z" fill="#000000" fill-rule="evenodd" fill-opacity="1" /><polyline clip-path="url(#clip712)" style="stroke:#000000; stroke-linecap:butt; stroke-linejoin:round; stroke-width:2; stroke-opacity:0.1; fill:none" points="
  273.302,2116.96 2352.76,2116.96 
  "/>
<polyline clip-path="url(#clip712)" style="stroke:#000000; stroke-linecap:butt; stroke-linejoin:round; stroke-width:2; stroke-opacity:0.1; fill:none" points="
  273.302,1640.44 2352.76,1640.44 
  "/>
<polyline clip-path="url(#clip712)" style="stroke:#000000; stroke-linecap:butt; stroke-linejoin:round; stroke-width:2; stroke-opacity:0.1; fill:none" points="
  273.302,1163.93 2352.76,1163.93 
  "/>
<polyline clip-path="url(#clip712)" style="stroke:#000000; stroke-linecap:butt; stroke-linejoin:round; stroke-width:2; stroke-opacity:0.1; fill:none" points="
  273.302,687.41 2352.76,687.41 
  "/>
<polyline clip-path="url(#clip712)" style="stroke:#000000; stroke-linecap:butt; stroke-linejoin:round; stroke-width:2; stroke-opacity:0.1; fill:none" points="
  273.302,210.894 2352.76,210.894 
  "/>
<polyline clip-path="url(#clip710)" style="stroke:#000000; stroke-linecap:butt; stroke-linejoin:round; stroke-width:4; stroke-opacity:1; fill:none" points="
  273.302,2174.14 273.302,153.712 
  "/>
<polyline clip-path="url(#clip710)" style="stroke:#000000; stroke-linecap:butt; stroke-linejoin:round; stroke-width:4; stroke-opacity:1; fill:none" points="
  273.302,2116.96 292.2,2116.96 
  "/>
<polyline clip-path="url(#clip710)" style="stroke:#000000; stroke-linecap:butt; stroke-linejoin:round; stroke-width:4; stroke-opacity:1; fill:none" points="
  273.302,1640.44 292.2,1640.44 
  "/>
<polyline clip-path="url(#clip710)" style="stroke:#000000; stroke-linecap:butt; stroke-linejoin:round; stroke-width:4; stroke-opacity:1; fill:none" points="
  273.302,1163.93 292.2,1163.93 
  "/>
<polyline clip-path="url(#clip710)" style="stroke:#000000; stroke-linecap:butt; stroke-linejoin:round; stroke-width:4; stroke-opacity:1; fill:none" points="
  273.302,687.41 292.2,687.41 
  "/>
<polyline clip-path="url(#clip710)" style="stroke:#000000; stroke-linecap:butt; stroke-linejoin:round; stroke-width:4; stroke-opacity:1; fill:none" points="
  273.302,210.894 292.2,210.894 
  "/>
<path clip-path="url(#clip710)" d="M149.965 2102.76 Q146.353 2102.76 144.525 2106.32 Q142.719 2109.86 142.719 2116.99 Q142.719 2124.1 144.525 2127.66 Q146.353 2131.21 149.965 2131.21 Q153.599 2131.21 155.404 2127.66 Q157.233 2124.1 157.233 2116.99 Q157.233 2109.86 155.404 2106.32 Q153.599 2102.76 149.965 2102.76 M149.965 2099.05 Q155.775 2099.05 158.83 2103.66 Q161.909 2108.24 161.909 2116.99 Q161.909 2125.72 158.83 2130.33 Q155.775 2134.91 149.965 2134.91 Q144.154 2134.91 141.076 2130.33 Q138.02 2125.72 138.02 2116.99 Q138.02 2108.24 141.076 2103.66 Q144.154 2099.05 149.965 2099.05 Z" fill="#000000" fill-rule="evenodd" fill-opacity="1" /><path clip-path="url(#clip710)" d="M170.126 2128.36 L175.011 2128.36 L175.011 2134.24 L170.126 2134.24 L170.126 2128.36 Z" fill="#000000" fill-rule="evenodd" fill-opacity="1" /><path clip-path="url(#clip710)" d="M195.196 2102.76 Q191.585 2102.76 189.756 2106.32 Q187.95 2109.86 187.95 2116.99 Q187.95 2124.1 189.756 2127.66 Q191.585 2131.21 195.196 2131.21 Q198.83 2131.21 200.636 2127.66 Q202.464 2124.1 202.464 2116.99 Q202.464 2109.86 200.636 2106.32 Q198.83 2102.76 195.196 2102.76 M195.196 2099.05 Q201.006 2099.05 204.061 2103.66 Q207.14 2108.24 207.14 2116.99 Q207.14 2125.72 204.061 2130.33 Q201.006 2134.91 195.196 2134.91 Q189.386 2134.91 186.307 2130.33 Q183.251 2125.72 183.251 2116.99 Q183.251 2108.24 186.307 2103.66 Q189.386 2099.05 195.196 2099.05 Z" fill="#000000" fill-rule="evenodd" fill-opacity="1" /><path clip-path="url(#clip710)" d="M225.358 2102.76 Q221.747 2102.76 219.918 2106.32 Q218.112 2109.86 218.112 2116.99 Q218.112 2124.1 219.918 2127.66 Q221.747 2131.21 225.358 2131.21 Q228.992 2131.21 230.797 2127.66 Q232.626 2124.1 232.626 2116.99 Q232.626 2109.86 230.797 2106.32 Q228.992 2102.76 225.358 2102.76 M225.358 2099.05 Q231.168 2099.05 234.223 2103.66 Q237.302 2108.24 237.302 2116.99 Q237.302 2125.72 234.223 2130.33 Q231.168 2134.91 225.358 2134.91 Q219.547 2134.91 216.469 2130.33 Q213.413 2125.72 213.413 2116.99 Q213.413 2108.24 216.469 2103.66 Q219.547 2099.05 225.358 2099.05 Z" fill="#000000" fill-rule="evenodd" fill-opacity="1" /><path clip-path="url(#clip710)" d="M150.96 1626.24 Q147.349 1626.24 145.52 1629.81 Q143.715 1633.35 143.715 1640.48 Q143.715 1647.58 145.52 1651.15 Q147.349 1654.69 150.96 1654.69 Q154.594 1654.69 156.4 1651.15 Q158.228 1647.58 158.228 1640.48 Q158.228 1633.35 156.4 1629.81 Q154.594 1626.24 150.96 1626.24 M150.96 1622.54 Q156.77 1622.54 159.826 1627.14 Q162.904 1631.73 162.904 1640.48 Q162.904 1649.2 159.826 1653.81 Q156.77 1658.39 150.96 1658.39 Q145.15 1658.39 142.071 1653.81 Q139.016 1649.2 139.016 1640.48 Q139.016 1631.73 142.071 1627.14 Q145.15 1622.54 150.96 1622.54 Z" fill="#000000" fill-rule="evenodd" fill-opacity="1" /><path clip-path="url(#clip710)" d="M171.122 1651.84 L176.006 1651.84 L176.006 1657.72 L171.122 1657.72 L171.122 1651.84 Z" fill="#000000" fill-rule="evenodd" fill-opacity="1" /><path clip-path="url(#clip710)" d="M190.219 1653.79 L206.538 1653.79 L206.538 1657.72 L184.594 1657.72 L184.594 1653.79 Q187.256 1651.03 191.839 1646.4 Q196.446 1641.75 197.626 1640.41 Q199.872 1637.88 200.751 1636.15 Q201.654 1634.39 201.654 1632.7 Q201.654 1629.94 199.71 1628.21 Q197.788 1626.47 194.687 1626.47 Q192.487 1626.47 190.034 1627.24 Q187.603 1628 184.825 1629.55 L184.825 1624.83 Q187.65 1623.69 190.103 1623.12 Q192.557 1622.54 194.594 1622.54 Q199.964 1622.54 203.159 1625.22 Q206.353 1627.91 206.353 1632.4 Q206.353 1634.53 205.543 1636.45 Q204.756 1638.35 202.649 1640.94 Q202.071 1641.61 198.969 1644.83 Q195.867 1648.02 190.219 1653.79 Z" fill="#000000" fill-rule="evenodd" fill-opacity="1" /><path clip-path="url(#clip710)" d="M216.399 1623.16 L234.756 1623.16 L234.756 1627.1 L220.682 1627.1 L220.682 1635.57 Q221.7 1635.22 222.719 1635.06 Q223.737 1634.87 224.756 1634.87 Q230.543 1634.87 233.922 1638.05 Q237.302 1641.22 237.302 1646.63 Q237.302 1652.21 233.83 1655.31 Q230.358 1658.39 224.038 1658.39 Q221.862 1658.39 219.594 1658.02 Q217.348 1657.65 214.941 1656.91 L214.941 1652.21 Q217.024 1653.35 219.247 1653.9 Q221.469 1654.46 223.946 1654.46 Q227.95 1654.46 230.288 1652.35 Q232.626 1650.25 232.626 1646.63 Q232.626 1643.02 230.288 1640.92 Q227.95 1638.81 223.946 1638.81 Q222.071 1638.81 220.196 1639.23 Q218.344 1639.64 216.399 1640.52 L216.399 1623.16 Z" fill="#000000" fill-rule="evenodd" fill-opacity="1" /><path clip-path="url(#clip710)" d="M149.965 1149.72 Q146.353 1149.72 144.525 1153.29 Q142.719 1156.83 142.719 1163.96 Q142.719 1171.07 144.525 1174.63 Q146.353 1178.17 149.965 1178.17 Q153.599 1178.17 155.404 1174.63 Q157.233 1171.07 157.233 1163.96 Q157.233 1156.83 155.404 1153.29 Q153.599 1149.72 149.965 1149.72 M149.965 1146.02 Q155.775 1146.02 158.83 1150.63 Q161.909 1155.21 161.909 1163.96 Q161.909 1172.69 158.83 1177.29 Q155.775 1181.88 149.965 1181.88 Q144.154 1181.88 141.076 1177.29 Q138.02 1172.69 138.02 1163.96 Q138.02 1155.21 141.076 1150.63 Q144.154 1146.02 149.965 1146.02 Z" fill="#000000" fill-rule="evenodd" fill-opacity="1" /><path clip-path="url(#clip710)" d="M170.126 1175.33 L175.011 1175.33 L175.011 1181.21 L170.126 1181.21 L170.126 1175.33 Z" fill="#000000" fill-rule="evenodd" fill-opacity="1" /><path clip-path="url(#clip710)" d="M185.242 1146.65 L203.599 1146.65 L203.599 1150.58 L189.525 1150.58 L189.525 1159.05 Q190.543 1158.71 191.562 1158.54 Q192.58 1158.36 193.599 1158.36 Q199.386 1158.36 202.765 1161.53 Q206.145 1164.7 206.145 1170.12 Q206.145 1175.7 202.673 1178.8 Q199.2 1181.88 192.881 1181.88 Q190.705 1181.88 188.437 1181.51 Q186.191 1181.14 183.784 1180.4 L183.784 1175.7 Q185.867 1176.83 188.089 1177.39 Q190.312 1177.94 192.788 1177.94 Q196.793 1177.94 199.131 1175.84 Q201.469 1173.73 201.469 1170.12 Q201.469 1166.51 199.131 1164.4 Q196.793 1162.29 192.788 1162.29 Q190.913 1162.29 189.038 1162.71 Q187.187 1163.13 185.242 1164.01 L185.242 1146.65 Z" fill="#000000" fill-rule="evenodd" fill-opacity="1" /><path clip-path="url(#clip710)" d="M225.358 1149.72 Q221.747 1149.72 219.918 1153.29 Q218.112 1156.83 218.112 1163.96 Q218.112 1171.07 219.918 1174.63 Q221.747 1178.17 225.358 1178.17 Q228.992 1178.17 230.797 1174.63 Q232.626 1171.07 232.626 1163.96 Q232.626 1156.83 230.797 1153.29 Q228.992 1149.72 225.358 1149.72 M225.358 1146.02 Q231.168 1146.02 234.223 1150.63 Q237.302 1155.21 237.302 1163.96 Q237.302 1172.69 234.223 1177.29 Q231.168 1181.88 225.358 1181.88 Q219.547 1181.88 216.469 1177.29 Q213.413 1172.69 213.413 1163.96 Q213.413 1155.21 216.469 1150.63 Q219.547 1146.02 225.358 1146.02 Z" fill="#000000" fill-rule="evenodd" fill-opacity="1" /><path clip-path="url(#clip710)" d="M150.96 673.209 Q147.349 673.209 145.52 676.773 Q143.715 680.315 143.715 687.445 Q143.715 694.551 145.52 698.116 Q147.349 701.658 150.96 701.658 Q154.594 701.658 156.4 698.116 Q158.228 694.551 158.228 687.445 Q158.228 680.315 156.4 676.773 Q154.594 673.209 150.96 673.209 M150.96 669.505 Q156.77 669.505 159.826 674.111 Q162.904 678.695 162.904 687.445 Q162.904 696.172 159.826 700.778 Q156.77 705.361 150.96 705.361 Q145.15 705.361 142.071 700.778 Q139.016 696.172 139.016 687.445 Q139.016 678.695 142.071 674.111 Q145.15 669.505 150.96 669.505 Z" fill="#000000" fill-rule="evenodd" fill-opacity="1" /><path clip-path="url(#clip710)" d="M171.122 698.81 L176.006 698.81 L176.006 704.69 L171.122 704.69 L171.122 698.81 Z" fill="#000000" fill-rule="evenodd" fill-opacity="1" /><path clip-path="url(#clip710)" d="M185.011 670.13 L207.233 670.13 L207.233 672.121 L194.687 704.69 L189.802 704.69 L201.608 674.065 L185.011 674.065 L185.011 670.13 Z" fill="#000000" fill-rule="evenodd" fill-opacity="1" /><path clip-path="url(#clip710)" d="M216.399 670.13 L234.756 670.13 L234.756 674.065 L220.682 674.065 L220.682 682.537 Q221.7 682.19 222.719 682.028 Q223.737 681.843 224.756 681.843 Q230.543 681.843 233.922 685.014 Q237.302 688.185 237.302 693.602 Q237.302 699.181 233.83 702.283 Q230.358 705.361 224.038 705.361 Q221.862 705.361 219.594 704.991 Q217.348 704.621 214.941 703.88 L214.941 699.181 Q217.024 700.315 219.247 700.871 Q221.469 701.426 223.946 701.426 Q227.95 701.426 230.288 699.32 Q232.626 697.213 232.626 693.602 Q232.626 689.991 230.288 687.885 Q227.95 685.778 223.946 685.778 Q222.071 685.778 220.196 686.195 Q218.344 686.611 216.399 687.491 L216.399 670.13 Z" fill="#000000" fill-rule="evenodd" fill-opacity="1" /><path clip-path="url(#clip710)" d="M140.775 224.239 L148.414 224.239 L148.414 197.873 L140.103 199.54 L140.103 195.281 L148.367 193.614 L153.043 193.614 L153.043 224.239 L160.682 224.239 L160.682 228.174 L140.775 228.174 L140.775 224.239 Z" fill="#000000" fill-rule="evenodd" fill-opacity="1" /><path clip-path="url(#clip710)" d="M170.126 222.294 L175.011 222.294 L175.011 228.174 L170.126 228.174 L170.126 222.294 Z" fill="#000000" fill-rule="evenodd" fill-opacity="1" /><path clip-path="url(#clip710)" d="M195.196 196.693 Q191.585 196.693 189.756 200.258 Q187.95 203.799 187.95 210.929 Q187.95 218.035 189.756 221.6 Q191.585 225.142 195.196 225.142 Q198.83 225.142 200.636 221.6 Q202.464 218.035 202.464 210.929 Q202.464 203.799 200.636 200.258 Q198.83 196.693 195.196 196.693 M195.196 192.989 Q201.006 192.989 204.061 197.596 Q207.14 202.179 207.14 210.929 Q207.14 219.656 204.061 224.262 Q201.006 228.845 195.196 228.845 Q189.386 228.845 186.307 224.262 Q183.251 219.656 183.251 210.929 Q183.251 202.179 186.307 197.596 Q189.386 192.989 195.196 192.989 Z" fill="#000000" fill-rule="evenodd" fill-opacity="1" /><path clip-path="url(#clip710)" d="M225.358 196.693 Q221.747 196.693 219.918 200.258 Q218.112 203.799 218.112 210.929 Q218.112 218.035 219.918 221.6 Q221.747 225.142 225.358 225.142 Q228.992 225.142 230.797 221.6 Q232.626 218.035 232.626 210.929 Q232.626 203.799 230.797 200.258 Q228.992 196.693 225.358 196.693 M225.358 192.989 Q231.168 192.989 234.223 197.596 Q237.302 202.179 237.302 210.929 Q237.302 219.656 234.223 224.262 Q231.168 228.845 225.358 228.845 Q219.547 228.845 216.469 224.262 Q213.413 219.656 213.413 210.929 Q213.413 202.179 216.469 197.596 Q219.547 192.989 225.358 192.989 Z" fill="#000000" fill-rule="evenodd" fill-opacity="1" /><path clip-path="url(#clip710)" d="M45.5277 2015.15 L63.3835 2015.15 L63.3835 2007.06 Q63.3835 2002.58 61.06 2000.13 Q58.7365 1997.67 54.4397 1997.67 Q50.1747 1997.67 47.8512 2000.13 Q45.5277 2002.58 45.5277 2007.06 L45.5277 2015.15 M40.2442 2021.58 L40.2442 2007.06 Q40.2442 1999.07 43.8726 1995 Q47.4692 1990.89 54.4397 1990.89 Q61.4738 1990.89 65.0704 1995 Q68.667 1999.07 68.667 2007.06 L68.667 2015.15 L87.7642 2015.15 L87.7642 2021.58 L40.2442 2021.58 Z" fill="#000000" fill-rule="evenodd" fill-opacity="1" /><path clip-path="url(#clip710)" d="M57.5907 1963.01 Q57.0178 1964 56.7632 1965.18 Q56.4767 1966.32 56.4767 1967.72 Q56.4767 1972.69 59.7232 1975.36 Q62.9379 1978 68.9853 1978 L87.7642 1978 L87.7642 1983.89 L52.1162 1983.89 L52.1162 1978 L57.6544 1978 Q54.4079 1976.16 52.8483 1973.2 Q51.2568 1970.24 51.2568 1966.01 Q51.2568 1965.4 51.3523 1964.67 Q51.416 1963.94 51.5751 1963.04 L57.5907 1963.01 Z" fill="#000000" fill-rule="evenodd" fill-opacity="1" /><path clip-path="url(#clip710)" d="M56.2221 1944.49 Q56.2221 1949.2 59.9142 1951.94 Q63.5745 1954.67 69.972 1954.67 Q76.3695 1954.67 80.0617 1951.97 Q83.7219 1949.23 83.7219 1944.49 Q83.7219 1939.81 80.0298 1937.07 Q76.3377 1934.34 69.972 1934.34 Q63.6381 1934.34 59.946 1937.07 Q56.2221 1939.81 56.2221 1944.49 M51.2568 1944.49 Q51.2568 1936.85 56.2221 1932.49 Q61.1873 1928.13 69.972 1928.13 Q78.7249 1928.13 83.7219 1932.49 Q88.6872 1936.85 88.6872 1944.49 Q88.6872 1952.16 83.7219 1956.52 Q78.7249 1960.85 69.972 1960.85 Q61.1873 1960.85 56.2221 1956.52 Q51.2568 1952.16 51.2568 1944.49 Z" fill="#000000" fill-rule="evenodd" fill-opacity="1" /><path clip-path="url(#clip710)" d="M69.972 1892.83 Q63.5108 1892.83 59.8505 1895.5 Q56.1584 1898.15 56.1584 1902.79 Q56.1584 1907.44 59.8505 1910.11 Q63.5108 1912.76 69.972 1912.76 Q76.4332 1912.76 80.1253 1910.11 Q83.7856 1907.44 83.7856 1902.79 Q83.7856 1898.15 80.1253 1895.5 Q76.4332 1892.83 69.972 1892.83 M57.5271 1912.76 Q54.3442 1910.91 52.8164 1908.11 Q51.2568 1905.28 51.2568 1901.36 Q51.2568 1894.87 56.4131 1890.83 Q61.5693 1886.75 69.972 1886.75 Q78.3747 1886.75 83.531 1890.83 Q88.6872 1894.87 88.6872 1901.36 Q88.6872 1905.28 87.1594 1908.11 Q85.5998 1910.91 82.417 1912.76 L87.7642 1912.76 L87.7642 1918.64 L38.239 1918.64 L38.239 1912.76 L57.5271 1912.76 Z" fill="#000000" fill-rule="evenodd" fill-opacity="1" /><path clip-path="url(#clip710)" d="M69.8447 1860.84 Q69.8447 1867.94 71.4679 1870.68 Q73.0912 1873.42 77.0061 1873.42 Q80.1253 1873.42 81.9714 1871.38 Q83.7856 1869.31 83.7856 1865.78 Q83.7856 1860.91 80.3481 1857.98 Q76.8788 1855.02 71.1497 1855.02 L69.8447 1855.02 L69.8447 1860.84 M67.4257 1849.16 L87.7642 1849.16 L87.7642 1855.02 L82.3533 1855.02 Q85.5998 1857.02 87.1594 1860.02 Q88.6872 1863.01 88.6872 1867.34 Q88.6872 1872.81 85.6316 1876.06 Q82.5443 1879.27 77.3881 1879.27 Q71.3725 1879.27 68.3169 1875.26 Q65.2614 1871.22 65.2614 1863.23 L65.2614 1855.02 L64.6885 1855.02 Q60.6462 1855.02 58.4501 1857.69 Q56.2221 1860.33 56.2221 1865.14 Q56.2221 1868.2 56.9541 1871.09 Q57.6862 1873.99 59.1503 1876.66 L53.7395 1876.66 Q52.4981 1873.45 51.8934 1870.42 Q51.2568 1867.4 51.2568 1864.54 Q51.2568 1856.8 55.2672 1852.98 Q59.2776 1849.16 67.4257 1849.16 Z" fill="#000000" fill-rule="evenodd" fill-opacity="1" /><path clip-path="url(#clip710)" d="M69.972 1811.51 Q63.5108 1811.51 59.8505 1814.18 Q56.1584 1816.82 56.1584 1821.47 Q56.1584 1826.12 59.8505 1828.79 Q63.5108 1831.43 69.972 1831.43 Q76.4332 1831.43 80.1253 1828.79 Q83.7856 1826.12 83.7856 1821.47 Q83.7856 1816.82 80.1253 1814.18 Q76.4332 1811.51 69.972 1811.51 M57.5271 1831.43 Q54.3442 1829.59 52.8164 1826.79 Q51.2568 1823.95 51.2568 1820.04 Q51.2568 1813.55 56.4131 1809.5 Q61.5693 1805.43 69.972 1805.43 Q78.3747 1805.43 83.531 1809.5 Q88.6872 1813.55 88.6872 1820.04 Q88.6872 1823.95 87.1594 1826.79 Q85.5998 1829.59 82.417 1831.43 L87.7642 1831.43 L87.7642 1837.32 L38.239 1837.32 L38.239 1831.43 L57.5271 1831.43 Z" fill="#000000" fill-rule="evenodd" fill-opacity="1" /><path clip-path="url(#clip710)" d="M52.1162 1795.72 L52.1162 1789.87 L87.7642 1789.87 L87.7642 1795.72 L52.1162 1795.72 M38.239 1795.72 L38.239 1789.87 L45.655 1789.87 L45.655 1795.72 L38.239 1795.72 Z" fill="#000000" fill-rule="evenodd" fill-opacity="1" /><path clip-path="url(#clip710)" d="M38.239 1777.61 L38.239 1771.76 L87.7642 1771.76 L87.7642 1777.61 L38.239 1777.61 Z" fill="#000000" fill-rule="evenodd" fill-opacity="1" /><path clip-path="url(#clip710)" d="M52.1162 1759.5 L52.1162 1753.65 L87.7642 1753.65 L87.7642 1759.5 L52.1162 1759.5 M38.239 1759.5 L38.239 1753.65 L45.655 1753.65 L45.655 1759.5 L38.239 1759.5 Z" fill="#000000" fill-rule="evenodd" fill-opacity="1" /><path clip-path="url(#clip710)" d="M41.9947 1735.6 L52.1162 1735.6 L52.1162 1723.54 L56.6677 1723.54 L56.6677 1735.6 L76.0194 1735.6 Q80.3799 1735.6 81.6213 1734.42 Q82.8626 1733.21 82.8626 1729.55 L82.8626 1723.54 L87.7642 1723.54 L87.7642 1729.55 Q87.7642 1736.33 85.2497 1738.91 Q82.7034 1741.49 76.0194 1741.49 L56.6677 1741.49 L56.6677 1745.78 L52.1162 1745.78 L52.1162 1741.49 L41.9947 1741.49 L41.9947 1735.6 Z" fill="#000000" fill-rule="evenodd" fill-opacity="1" /><path clip-path="url(#clip710)" d="M91.0743 1701 Q97.44 1703.48 99.3816 1705.84 Q101.323 1708.19 101.323 1712.14 L101.323 1716.82 L96.4215 1716.82 L96.4215 1713.38 Q96.4215 1710.96 95.2757 1709.63 Q94.1299 1708.29 89.8648 1706.67 L87.1912 1705.62 L52.1162 1720.03 L52.1162 1713.83 L79.998 1702.69 L52.1162 1691.55 L52.1162 1685.34 L91.0743 1701 Z" fill="#000000" fill-rule="evenodd" fill-opacity="1" /><path clip-path="url(#clip710)" d="M56.2221 1642.72 Q56.2221 1647.43 59.9142 1650.17 Q63.5745 1652.91 69.972 1652.91 Q76.3695 1652.91 80.0617 1650.2 Q83.7219 1647.47 83.7219 1642.72 Q83.7219 1638.04 80.0298 1635.31 Q76.3377 1632.57 69.972 1632.57 Q63.6381 1632.57 59.946 1635.31 Q56.2221 1638.04 56.2221 1642.72 M51.2568 1642.72 Q51.2568 1635.08 56.2221 1630.72 Q61.1873 1626.36 69.972 1626.36 Q78.7249 1626.36 83.7219 1630.72 Q88.6872 1635.08 88.6872 1642.72 Q88.6872 1650.39 83.7219 1654.75 Q78.7249 1659.08 69.972 1659.08 Q61.1873 1659.08 56.2221 1654.75 Q51.2568 1650.39 51.2568 1642.72 Z" fill="#000000" fill-rule="evenodd" fill-opacity="1" /><path clip-path="url(#clip710)" d="M38.239 1598.61 L43.1087 1598.61 L43.1087 1604.21 Q43.1087 1607.36 44.3819 1608.6 Q45.655 1609.81 48.9652 1609.81 L52.1162 1609.81 L52.1162 1600.17 L56.6677 1600.17 L56.6677 1609.81 L87.7642 1609.81 L87.7642 1615.7 L56.6677 1615.7 L56.6677 1621.3 L52.1162 1621.3 L52.1162 1615.7 L49.6336 1615.7 Q43.6816 1615.7 40.9762 1612.93 Q38.239 1610.16 38.239 1604.15 L38.239 1598.61 Z" fill="#000000" fill-rule="evenodd" fill-opacity="1" /><path clip-path="url(#clip710)" d="M44.6047 1553.44 Q44.6047 1560.45 49.8245 1564.58 Q55.0444 1568.69 64.0519 1568.69 Q73.0275 1568.69 78.2474 1564.58 Q83.4673 1560.45 83.4673 1553.44 Q83.4673 1546.44 78.2474 1542.37 Q73.0275 1538.26 64.0519 1538.26 Q55.0444 1538.26 49.8245 1542.37 Q44.6047 1546.44 44.6047 1553.44 M39.3848 1553.44 Q39.3848 1543.45 46.1006 1537.47 Q52.7846 1531.48 64.0519 1531.48 Q75.2874 1531.48 82.0032 1537.47 Q88.6872 1543.45 88.6872 1553.44 Q88.6872 1563.47 82.0032 1569.49 Q75.3192 1575.47 64.0519 1575.47 Q52.7846 1575.47 46.1006 1569.49 Q39.3848 1563.47 39.3848 1553.44 Z" fill="#000000" fill-rule="evenodd" fill-opacity="1" /><path clip-path="url(#clip710)" d="M69.972 1496.09 Q63.5108 1496.09 59.8505 1498.76 Q56.1584 1501.4 56.1584 1506.05 Q56.1584 1510.7 59.8505 1513.37 Q63.5108 1516.01 69.972 1516.01 Q76.4332 1516.01 80.1253 1513.37 Q83.7856 1510.7 83.7856 1506.05 Q83.7856 1501.4 80.1253 1498.76 Q76.4332 1496.09 69.972 1496.09 M57.5271 1516.01 Q54.3442 1514.17 52.8164 1511.37 Q51.2568 1508.53 51.2568 1504.62 Q51.2568 1498.13 56.4131 1494.08 Q61.5693 1490.01 69.972 1490.01 Q78.3747 1490.01 83.531 1494.08 Q88.6872 1498.13 88.6872 1504.62 Q88.6872 1508.53 87.1594 1511.37 Q85.5998 1514.17 82.417 1516.01 L87.7642 1516.01 L87.7642 1521.9 L38.239 1521.9 L38.239 1516.01 L57.5271 1516.01 Z" fill="#000000" fill-rule="evenodd" fill-opacity="1" /><path clip-path="url(#clip710)" d="M53.1665 1457.58 L58.7047 1457.58 Q57.4316 1460.06 56.795 1462.73 Q56.1584 1465.41 56.1584 1468.27 Q56.1584 1472.63 57.4952 1474.83 Q58.832 1476.99 61.5056 1476.99 Q63.5426 1476.99 64.7203 1475.43 Q65.8661 1473.87 66.9165 1469.16 L67.3621 1467.16 Q68.6989 1460.92 71.1497 1458.31 Q73.5686 1455.67 77.9291 1455.67 Q82.8944 1455.67 85.7908 1459.61 Q88.6872 1463.53 88.6872 1470.4 Q88.6872 1473.27 88.1143 1476.39 Q87.5732 1479.47 86.4592 1482.91 L80.4118 1482.91 Q82.0987 1479.67 82.958 1476.51 Q83.7856 1473.36 83.7856 1470.28 Q83.7856 1466.14 82.3851 1463.91 Q80.9529 1461.68 78.3747 1461.68 Q75.9876 1461.68 74.7145 1463.31 Q73.4413 1464.9 72.2637 1470.34 L71.7862 1472.38 Q70.6404 1477.82 68.2851 1480.24 Q65.898 1482.66 61.7602 1482.66 Q56.7313 1482.66 53.9941 1479.09 Q51.2568 1475.53 51.2568 1468.97 Q51.2568 1465.72 51.7343 1462.86 Q52.2117 1459.99 53.1665 1457.58 Z" fill="#000000" fill-rule="evenodd" fill-opacity="1" /><path clip-path="url(#clip710)" d="M68.4761 1415.85 L71.3406 1415.85 L71.3406 1442.78 Q77.3881 1442.39 80.5709 1439.15 Q83.7219 1435.87 83.7219 1430.04 Q83.7219 1426.67 82.8944 1423.52 Q82.0669 1420.34 80.4118 1417.22 L85.9499 1417.22 Q87.2867 1420.37 87.987 1423.68 Q88.6872 1426.99 88.6872 1430.39 Q88.6872 1438.92 83.7219 1443.92 Q78.7567 1448.89 70.2903 1448.89 Q61.5374 1448.89 56.4131 1444.18 Q51.2568 1439.43 51.2568 1431.41 Q51.2568 1424.22 55.9038 1420.05 Q60.5189 1415.85 68.4761 1415.85 M66.7573 1421.71 Q61.9512 1421.77 59.0866 1424.41 Q56.2221 1427.02 56.2221 1431.35 Q56.2221 1436.25 58.9912 1439.21 Q61.7602 1442.14 66.7892 1442.58 L66.7573 1421.71 Z" fill="#000000" fill-rule="evenodd" fill-opacity="1" /><path clip-path="url(#clip710)" d="M57.5907 1385.58 Q57.0178 1386.57 56.7632 1387.74 Q56.4767 1388.89 56.4767 1390.29 Q56.4767 1395.26 59.7232 1397.93 Q62.9379 1400.57 68.9853 1400.57 L87.7642 1400.57 L87.7642 1406.46 L52.1162 1406.46 L52.1162 1400.57 L57.6544 1400.57 Q54.4079 1398.73 52.8483 1395.77 Q51.2568 1392.8 51.2568 1388.57 Q51.2568 1387.97 51.3523 1387.23 Q51.416 1386.5 51.5751 1385.61 L57.5907 1385.58 Z" fill="#000000" fill-rule="evenodd" fill-opacity="1" /><path clip-path="url(#clip710)" d="M52.1162 1383.64 L52.1162 1377.43 L82.035 1366.29 L52.1162 1355.15 L52.1162 1348.95 L87.7642 1362.31 L87.7642 1370.27 L52.1162 1383.64 Z" fill="#000000" fill-rule="evenodd" fill-opacity="1" /><path clip-path="url(#clip710)" d="M69.8447 1324.66 Q69.8447 1331.76 71.4679 1334.5 Q73.0912 1337.23 77.0061 1337.23 Q80.1253 1337.23 81.9714 1335.2 Q83.7856 1333.13 83.7856 1329.59 Q83.7856 1324.72 80.3481 1321.8 Q76.8788 1318.84 71.1497 1318.84 L69.8447 1318.84 L69.8447 1324.66 M67.4257 1312.98 L87.7642 1312.98 L87.7642 1318.84 L82.3533 1318.84 Q85.5998 1320.84 87.1594 1323.83 Q88.6872 1326.82 88.6872 1331.15 Q88.6872 1336.63 85.6316 1339.87 Q82.5443 1343.09 77.3881 1343.09 Q71.3725 1343.09 68.3169 1339.08 Q65.2614 1335.04 65.2614 1327.05 L65.2614 1318.84 L64.6885 1318.84 Q60.6462 1318.84 58.4501 1321.51 Q56.2221 1324.15 56.2221 1328.96 Q56.2221 1332.01 56.9541 1334.91 Q57.6862 1337.81 59.1503 1340.48 L53.7395 1340.48 Q52.4981 1337.26 51.8934 1334.24 Q51.2568 1331.22 51.2568 1328.35 Q51.2568 1320.62 55.2672 1316.8 Q59.2776 1312.98 67.4257 1312.98 Z" fill="#000000" fill-rule="evenodd" fill-opacity="1" /><path clip-path="url(#clip710)" d="M41.9947 1295.12 L52.1162 1295.12 L52.1162 1283.06 L56.6677 1283.06 L56.6677 1295.12 L76.0194 1295.12 Q80.3799 1295.12 81.6213 1293.95 Q82.8626 1292.74 82.8626 1289.08 L82.8626 1283.06 L87.7642 1283.06 L87.7642 1289.08 Q87.7642 1295.86 85.2497 1298.43 Q82.7034 1301.01 76.0194 1301.01 L56.6677 1301.01 L56.6677 1305.31 L52.1162 1305.31 L52.1162 1301.01 L41.9947 1301.01 L41.9947 1295.12 Z" fill="#000000" fill-rule="evenodd" fill-opacity="1" /><path clip-path="url(#clip710)" d="M52.1162 1275.36 L52.1162 1269.5 L87.7642 1269.5 L87.7642 1275.36 L52.1162 1275.36 M38.239 1275.36 L38.239 1269.5 L45.655 1269.5 L45.655 1275.36 L38.239 1275.36 Z" fill="#000000" fill-rule="evenodd" fill-opacity="1" /><path clip-path="url(#clip710)" d="M56.2221 1243.43 Q56.2221 1248.14 59.9142 1250.88 Q63.5745 1253.62 69.972 1253.62 Q76.3695 1253.62 80.0617 1250.91 Q83.7219 1248.18 83.7219 1243.43 Q83.7219 1238.75 80.0298 1236.02 Q76.3377 1233.28 69.972 1233.28 Q63.6381 1233.28 59.946 1236.02 Q56.2221 1238.75 56.2221 1243.43 M51.2568 1243.43 Q51.2568 1235.79 56.2221 1231.43 Q61.1873 1227.07 69.972 1227.07 Q78.7249 1227.07 83.7219 1231.43 Q88.6872 1235.79 88.6872 1243.43 Q88.6872 1251.1 83.7219 1255.46 Q78.7249 1259.79 69.972 1259.79 Q61.1873 1259.79 56.2221 1255.46 Q51.2568 1251.1 51.2568 1243.43 Z" fill="#000000" fill-rule="evenodd" fill-opacity="1" /><path clip-path="url(#clip710)" d="M66.2481 1187.73 L87.7642 1187.73 L87.7642 1193.59 L66.439 1193.59 Q61.3783 1193.59 58.8638 1195.56 Q56.3494 1197.54 56.3494 1201.48 Q56.3494 1206.23 59.3731 1208.96 Q62.3968 1211.7 67.6167 1211.7 L87.7642 1211.7 L87.7642 1217.59 L52.1162 1217.59 L52.1162 1211.7 L57.6544 1211.7 Q54.4397 1209.6 52.8483 1206.77 Q51.2568 1203.9 51.2568 1200.18 Q51.2568 1194.04 55.0763 1190.88 Q58.8638 1187.73 66.2481 1187.73 Z" fill="#000000" fill-rule="evenodd" fill-opacity="1" /><path clip-path="url(#clip710)" d="M38.3026 1141.26 Q45.6232 1145.53 52.7846 1147.6 Q59.946 1149.67 67.2984 1149.67 Q74.6508 1149.67 81.8759 1147.6 Q89.0691 1145.5 96.3579 1141.26 L96.3579 1146.36 Q88.8782 1151.13 81.6531 1153.52 Q74.428 1155.87 67.2984 1155.87 Q60.2006 1155.87 53.0074 1153.52 Q45.8142 1151.16 38.3026 1146.36 L38.3026 1141.26 Z" fill="#000000" fill-rule="evenodd" fill-opacity="1" /><path clip-path="url(#clip710)" d="M46.578 1113.76 L70.2266 1122.49 L70.2266 1105.01 L46.578 1113.76 M40.2442 1117.39 L40.2442 1110.1 L87.7642 1091.99 L87.7642 1098.68 L75.5738 1103.01 L75.5738 1124.43 L87.7642 1128.76 L87.7642 1135.53 L40.2442 1117.39 Z" fill="#000000" fill-rule="evenodd" fill-opacity="1" /><path clip-path="url(#clip710)" d="M69.972 1059.72 Q63.5108 1059.72 59.8505 1062.39 Q56.1584 1065.03 56.1584 1069.68 Q56.1584 1074.33 59.8505 1077 Q63.5108 1079.64 69.972 1079.64 Q76.4332 1079.64 80.1253 1077 Q83.7856 1074.33 83.7856 1069.68 Q83.7856 1065.03 80.1253 1062.39 Q76.4332 1059.72 69.972 1059.72 M57.5271 1079.64 Q54.3442 1077.8 52.8164 1075 Q51.2568 1072.16 51.2568 1068.25 Q51.2568 1061.76 56.4131 1057.71 Q61.5693 1053.64 69.972 1053.64 Q78.3747 1053.64 83.531 1057.71 Q88.6872 1061.76 88.6872 1068.25 Q88.6872 1072.16 87.1594 1075 Q85.5998 1077.8 82.417 1079.64 L87.7642 1079.64 L87.7642 1085.53 L38.239 1085.53 L38.239 1079.64 L57.5271 1079.64 Z" fill="#000000" fill-rule="evenodd" fill-opacity="1" /><path clip-path="url(#clip710)" d="M53.1665 1021.21 L58.7047 1021.21 Q57.4316 1023.69 56.795 1026.36 Q56.1584 1029.04 56.1584 1031.9 Q56.1584 1036.26 57.4952 1038.46 Q58.832 1040.62 61.5056 1040.62 Q63.5426 1040.62 64.7203 1039.06 Q65.8661 1037.5 66.9165 1032.79 L67.3621 1030.79 Q68.6989 1024.55 71.1497 1021.94 Q73.5686 1019.3 77.9291 1019.3 Q82.8944 1019.3 85.7908 1023.24 Q88.6872 1027.16 88.6872 1034.03 Q88.6872 1036.9 88.1143 1040.02 Q87.5732 1043.1 86.4592 1046.54 L80.4118 1046.54 Q82.0987 1043.3 82.958 1040.14 Q83.7856 1036.99 83.7856 1033.91 Q83.7856 1029.77 82.3851 1027.54 Q80.9529 1025.31 78.3747 1025.31 Q75.9876 1025.31 74.7145 1026.94 Q73.4413 1028.53 72.2637 1033.97 L71.7862 1036.01 Q70.6404 1041.45 68.2851 1043.87 Q65.898 1046.29 61.7602 1046.29 Q56.7313 1046.29 53.9941 1042.72 Q51.2568 1039.16 51.2568 1032.6 Q51.2568 1029.35 51.7343 1026.49 Q52.2117 1023.63 53.1665 1021.21 Z" fill="#000000" fill-rule="evenodd" fill-opacity="1" /><path clip-path="url(#clip710)" d="M68.4761 979.48 L71.3406 979.48 L71.3406 1006.41 Q77.3881 1006.02 80.5709 1002.78 Q83.7219 999.5 83.7219 993.675 Q83.7219 990.301 82.8944 987.15 Q82.0669 983.967 80.4118 980.848 L85.9499 980.848 Q87.2867 983.999 87.987 987.309 Q88.6872 990.62 88.6872 994.025 Q88.6872 1002.56 83.7219 1007.55 Q78.7567 1012.52 70.2903 1012.52 Q61.5374 1012.52 56.4131 1007.81 Q51.2568 1003.06 51.2568 995.044 Q51.2568 987.851 55.9038 983.681 Q60.5189 979.48 68.4761 979.48 M66.7573 985.336 Q61.9512 985.4 59.0866 988.042 Q56.2221 990.651 56.2221 994.98 Q56.2221 999.882 58.9912 1002.84 Q61.7602 1005.77 66.7892 1006.22 L66.7573 985.336 Z" fill="#000000" fill-rule="evenodd" fill-opacity="1" /><path clip-path="url(#clip710)" d="M66.2481 940.235 L87.7642 940.235 L87.7642 946.092 L66.439 946.092 Q61.3783 946.092 58.8638 948.065 Q56.3494 950.038 56.3494 953.985 Q56.3494 958.727 59.3731 961.465 Q62.3968 964.202 67.6167 964.202 L87.7642 964.202 L87.7642 970.09 L52.1162 970.09 L52.1162 964.202 L57.6544 964.202 Q54.4397 962.101 52.8483 959.269 Q51.2568 956.404 51.2568 952.68 Q51.2568 946.537 55.0763 943.386 Q58.8638 940.235 66.2481 940.235 Z" fill="#000000" fill-rule="evenodd" fill-opacity="1" /><path clip-path="url(#clip710)" d="M41.9947 922.761 L52.1162 922.761 L52.1162 910.698 L56.6677 910.698 L56.6677 922.761 L76.0194 922.761 Q80.3799 922.761 81.6213 921.584 Q82.8626 920.374 82.8626 916.714 L82.8626 910.698 L87.7642 910.698 L87.7642 916.714 Q87.7642 923.493 85.2497 926.071 Q82.7034 928.649 76.0194 928.649 L56.6677 928.649 L56.6677 932.946 L52.1162 932.946 L52.1162 928.649 L41.9947 928.649 L41.9947 922.761 Z" fill="#000000" fill-rule="evenodd" fill-opacity="1" /><path clip-path="url(#clip710)" d="M58.1636 881.511 L58.1636 840.707 L63.5108 840.707 L63.5108 881.511 L58.1636 881.511 M71.1497 881.511 L71.1497 840.707 L76.5605 840.707 L76.5605 881.511 L71.1497 881.511 Z" fill="#000000" fill-rule="evenodd" fill-opacity="1" /><path clip-path="url(#clip710)" d="M44.4774 792.36 Q44.4774 797.325 49.3789 799.839 Q54.2487 802.322 64.0519 802.322 Q73.8233 802.322 78.7249 799.839 Q83.5946 797.325 83.5946 792.36 Q83.5946 787.363 78.7249 784.88 Q73.8233 782.366 64.0519 782.366 Q54.2487 782.366 49.3789 784.88 Q44.4774 787.363 44.4774 792.36 M39.3848 792.36 Q39.3848 784.371 45.7187 780.169 Q52.0207 775.936 64.0519 775.936 Q76.0513 775.936 82.3851 780.169 Q88.6872 784.371 88.6872 792.36 Q88.6872 800.349 82.3851 804.582 Q76.0513 808.783 64.0519 808.783 Q52.0207 808.783 45.7187 804.582 Q39.3848 800.349 39.3848 792.36 Z" fill="#000000" fill-rule="evenodd" fill-opacity="1" /><path clip-path="url(#clip710)" d="M37.9525 737.201 L103.137 737.201 L103.137 742.612 L37.9525 742.612 L37.9525 737.201 Z" fill="#000000" fill-rule="evenodd" fill-opacity="1" /><path clip-path="url(#clip710)" d="M45.5277 695.378 L63.3835 695.378 L63.3835 687.294 Q63.3835 682.806 61.06 680.355 Q58.7365 677.904 54.4397 677.904 Q50.1747 677.904 47.8512 680.355 Q45.5277 682.806 45.5277 687.294 L45.5277 695.378 M40.2442 701.808 L40.2442 687.294 Q40.2442 679.305 43.8726 675.231 Q47.4692 671.125 54.4397 671.125 Q61.4738 671.125 65.0704 675.231 Q68.667 679.305 68.667 687.294 L68.667 695.378 L87.7642 695.378 L87.7642 701.808 L40.2442 701.808 Z" fill="#000000" fill-rule="evenodd" fill-opacity="1" /><path clip-path="url(#clip710)" d="M57.5907 643.243 Q57.0178 644.23 56.7632 645.407 Q56.4767 646.553 56.4767 647.954 Q56.4767 652.919 59.7232 655.592 Q62.9379 658.234 68.9853 658.234 L87.7642 658.234 L87.7642 664.123 L52.1162 664.123 L52.1162 658.234 L57.6544 658.234 Q54.4079 656.388 52.8483 653.428 Q51.2568 650.468 51.2568 646.235 Q51.2568 645.63 51.3523 644.898 Q51.416 644.166 51.5751 643.275 L57.5907 643.243 Z" fill="#000000" fill-rule="evenodd" fill-opacity="1" /><path clip-path="url(#clip710)" d="M68.4761 608.041 L71.3406 608.041 L71.3406 634.968 Q77.3881 634.586 80.5709 631.339 Q83.7219 628.061 83.7219 622.236 Q83.7219 618.862 82.8944 615.711 Q82.0669 612.528 80.4118 609.409 L85.9499 609.409 Q87.2867 612.56 87.987 615.87 Q88.6872 619.181 88.6872 622.586 Q88.6872 631.116 83.7219 636.113 Q78.7567 641.079 70.2903 641.079 Q61.5374 641.079 56.4131 636.368 Q51.2568 631.626 51.2568 623.605 Q51.2568 616.412 55.9038 612.242 Q60.5189 608.041 68.4761 608.041 M66.7573 613.897 Q61.9512 613.961 59.0866 616.603 Q56.2221 619.212 56.2221 623.541 Q56.2221 628.443 58.9912 631.403 Q61.7602 634.331 66.7892 634.777 L66.7573 613.897 Z" fill="#000000" fill-rule="evenodd" fill-opacity="1" /><path clip-path="url(#clip710)" d="M53.1665 575.703 L58.7047 575.703 Q57.4316 578.185 56.795 580.859 Q56.1584 583.533 56.1584 586.397 Q56.1584 590.758 57.4952 592.954 Q58.832 595.118 61.5056 595.118 Q63.5426 595.118 64.7203 593.559 Q65.8661 591.999 66.9165 587.288 L67.3621 585.283 Q68.6989 579.045 71.1497 576.435 Q73.5686 573.793 77.9291 573.793 Q82.8944 573.793 85.7908 577.74 Q88.6872 581.655 88.6872 588.53 Q88.6872 591.394 88.1143 594.514 Q87.5732 597.601 86.4592 601.038 L80.4118 601.038 Q82.0987 597.792 82.958 594.641 Q83.7856 591.49 83.7856 588.402 Q83.7856 584.265 82.3851 582.037 Q80.9529 579.809 78.3747 579.809 Q75.9876 579.809 74.7145 581.432 Q73.4413 583.023 72.2637 588.466 L71.7862 590.503 Q70.6404 595.946 68.2851 598.365 Q65.898 600.784 61.7602 600.784 Q56.7313 600.784 53.9941 597.219 Q51.2568 593.654 51.2568 587.097 Q51.2568 583.851 51.7343 580.986 Q52.2117 578.122 53.1665 575.703 Z" fill="#000000" fill-rule="evenodd" fill-opacity="1" /><path clip-path="url(#clip710)" d="M68.4761 533.976 L71.3406 533.976 L71.3406 560.903 Q77.3881 560.521 80.5709 557.274 Q83.7219 553.996 83.7219 548.171 Q83.7219 544.797 82.8944 541.646 Q82.0669 538.463 80.4118 535.344 L85.9499 535.344 Q87.2867 538.495 87.987 541.805 Q88.6872 545.116 88.6872 548.521 Q88.6872 557.051 83.7219 562.048 Q78.7567 567.014 70.2903 567.014 Q61.5374 567.014 56.4131 562.303 Q51.2568 557.561 51.2568 549.54 Q51.2568 542.347 55.9038 538.177 Q60.5189 533.976 68.4761 533.976 M66.7573 539.832 Q61.9512 539.896 59.0866 542.538 Q56.2221 545.147 56.2221 549.476 Q56.2221 554.378 58.9912 557.338 Q61.7602 560.266 66.7892 560.712 L66.7573 539.832 Z" fill="#000000" fill-rule="evenodd" fill-opacity="1" /><path clip-path="url(#clip710)" d="M66.2481 494.731 L87.7642 494.731 L87.7642 500.588 L66.439 500.588 Q61.3783 500.588 58.8638 502.561 Q56.3494 504.534 56.3494 508.481 Q56.3494 513.223 59.3731 515.961 Q62.3968 518.698 67.6167 518.698 L87.7642 518.698 L87.7642 524.586 L52.1162 524.586 L52.1162 518.698 L57.6544 518.698 Q54.4397 516.597 52.8483 513.765 Q51.2568 510.9 51.2568 507.176 Q51.2568 501.033 55.0763 497.882 Q58.8638 494.731 66.2481 494.731 Z" fill="#000000" fill-rule="evenodd" fill-opacity="1" /><path clip-path="url(#clip710)" d="M41.9947 477.257 L52.1162 477.257 L52.1162 465.194 L56.6677 465.194 L56.6677 477.257 L76.0194 477.257 Q80.3799 477.257 81.6213 476.08 Q82.8626 474.87 82.8626 471.21 L82.8626 465.194 L87.7642 465.194 L87.7642 471.21 Q87.7642 477.989 85.2497 480.567 Q82.7034 483.145 76.0194 483.145 L56.6677 483.145 L56.6677 487.442 L52.1162 487.442 L52.1162 483.145 L41.9947 483.145 L41.9947 477.257 Z" fill="#000000" fill-rule="evenodd" fill-opacity="1" /><path clip-path="url(#clip710)" d="M58.1636 436.007 L58.1636 395.203 L63.5108 395.203 L63.5108 436.007 L58.1636 436.007 M71.1497 436.007 L71.1497 395.203 L76.5605 395.203 L76.5605 436.007 L71.1497 436.007 Z" fill="#000000" fill-rule="evenodd" fill-opacity="1" /><path clip-path="url(#clip710)" d="M82.3533 359.492 L82.3533 348.988 L46.1006 348.988 L48.3923 360.415 L42.5358 360.415 L40.2442 349.052 L40.2442 342.623 L82.3533 342.623 L82.3533 332.119 L87.7642 332.119 L87.7642 359.492 L82.3533 359.492 Z" fill="#000000" fill-rule="evenodd" fill-opacity="1" /><path clip-path="url(#clip710)" d="M38.3026 320.884 L38.3026 315.791 Q45.8142 311.017 53.0074 308.661 Q60.2006 306.274 67.2984 306.274 Q74.428 306.274 81.6531 308.661 Q88.8782 311.017 96.3579 315.791 L96.3579 320.884 Q89.0691 316.65 81.8759 314.582 Q74.6508 312.481 67.2984 312.481 Q59.946 312.481 52.7846 314.582 Q45.6232 316.65 38.3026 320.884 Z" fill="#000000" fill-rule="evenodd" fill-opacity="1" /><path clip-path="url(#clip710)" d="M674.606 12.096 L682.87 12.096 L695.59 63.2184 L708.269 12.096 L717.465 12.096 L730.185 63.2184 L742.864 12.096 L751.169 12.096 L735.978 72.576 L725.688 72.576 L712.928 20.0763 L700.046 72.576 L689.757 72.576 L674.606 12.096 Z" fill="#000000" fill-rule="evenodd" fill-opacity="1" /><path clip-path="url(#clip710)" d="M774.421 32.4315 Q768.425 32.4315 764.942 37.1306 Q761.458 41.7891 761.458 49.9314 Q761.458 58.0738 764.901 62.7728 Q768.385 67.4314 774.421 67.4314 Q780.376 67.4314 783.859 62.7323 Q787.343 58.0333 787.343 49.9314 Q787.343 41.8701 783.859 37.1711 Q780.376 32.4315 774.421 32.4315 M774.421 26.1121 Q784.143 26.1121 789.693 32.4315 Q795.242 38.7509 795.242 49.9314 Q795.242 61.0714 789.693 67.4314 Q784.143 73.7508 774.421 73.7508 Q764.658 73.7508 759.108 67.4314 Q753.599 61.0714 753.599 49.9314 Q753.599 38.7509 759.108 32.4315 Q764.658 26.1121 774.421 26.1121 Z" fill="#000000" fill-rule="evenodd" fill-opacity="1" /><path clip-path="url(#clip710)" d="M807.598 9.54393 L815.051 9.54393 L815.051 72.576 L807.598 72.576 L807.598 9.54393 Z" fill="#000000" fill-rule="evenodd" fill-opacity="1" /><path clip-path="url(#clip710)" d="M853.616 9.54393 L853.616 15.7418 L846.486 15.7418 Q842.476 15.7418 840.896 17.3622 Q839.357 18.9825 839.357 23.1955 L839.357 27.2059 L851.631 27.2059 L851.631 32.9987 L839.357 32.9987 L839.357 72.576 L831.863 72.576 L831.863 32.9987 L824.733 32.9987 L824.733 27.2059 L831.863 27.2059 L831.863 24.0462 Q831.863 16.471 835.387 13.0277 Q838.911 9.54393 846.567 9.54393 L853.616 9.54393 Z" fill="#000000" fill-rule="evenodd" fill-opacity="1" /><path clip-path="url(#clip710)" d="M922.805 14.0809 L922.805 22.0612 Q918.147 19.8332 914.015 18.7395 Q909.883 17.6457 906.035 17.6457 Q899.351 17.6457 895.705 20.2383 Q892.1 22.8309 892.1 27.611 Q892.1 31.6214 894.49 33.6873 Q896.92 35.7128 903.645 36.9686 L908.587 37.9813 Q917.742 39.7232 922.076 44.1387 Q926.451 48.5136 926.451 55.8863 Q926.451 64.6767 920.537 69.2137 Q914.663 73.7508 903.28 73.7508 Q898.986 73.7508 894.125 72.7785 Q889.304 71.8063 884.119 69.9024 L884.119 61.4765 Q889.102 64.2716 893.882 65.6895 Q898.662 67.1073 903.28 67.1073 Q910.288 67.1073 914.096 64.3527 Q917.904 61.598 917.904 56.4939 Q917.904 52.0379 915.149 49.5264 Q912.435 47.0148 906.197 45.759 L901.214 44.7868 Q892.059 42.9639 887.968 39.075 Q883.876 35.1862 883.876 28.2591 Q883.876 20.2383 889.507 15.6203 Q895.178 11.0023 905.103 11.0023 Q909.356 11.0023 913.772 11.7719 Q918.187 12.5416 922.805 14.0809 Z" fill="#000000" fill-rule="evenodd" fill-opacity="1" /><path clip-path="url(#clip710)" d="M946.098 65.7705 L946.098 89.8329 L938.604 89.8329 L938.604 27.2059 L946.098 27.2059 L946.098 34.0924 Q948.448 30.0415 952.012 28.0971 Q955.618 26.1121 960.6 26.1121 Q968.864 26.1121 974.009 32.6746 Q979.194 39.2371 979.194 49.9314 Q979.194 60.6258 974.009 67.1883 Q968.864 73.7508 960.6 73.7508 Q955.618 73.7508 952.012 71.8063 Q948.448 69.8214 946.098 65.7705 M971.457 49.9314 Q971.457 41.7081 968.054 37.0496 Q964.692 32.3505 958.777 32.3505 Q952.863 32.3505 949.46 37.0496 Q946.098 41.7081 946.098 49.9314 Q946.098 58.1548 949.46 62.8538 Q952.863 67.5124 958.777 67.5124 Q964.692 67.5124 968.054 62.8538 Q971.457 58.1548 971.457 49.9314 Z" fill="#000000" fill-rule="evenodd" fill-opacity="1" /><path clip-path="url(#clip710)" d="M991.549 27.2059 L999.003 27.2059 L999.003 72.576 L991.549 72.576 L991.549 27.2059 M991.549 9.54393 L999.003 9.54393 L999.003 18.9825 L991.549 18.9825 L991.549 9.54393 Z" fill="#000000" fill-rule="evenodd" fill-opacity="1" /><path clip-path="url(#clip710)" d="M1044.45 34.0924 L1044.45 9.54393 L1051.91 9.54393 L1051.91 72.576 L1044.45 72.576 L1044.45 65.7705 Q1042.1 69.8214 1038.5 71.8063 Q1034.93 73.7508 1029.91 73.7508 Q1021.69 73.7508 1016.5 67.1883 Q1011.36 60.6258 1011.36 49.9314 Q1011.36 39.2371 1016.5 32.6746 Q1021.69 26.1121 1029.91 26.1121 Q1034.93 26.1121 1038.5 28.0971 Q1042.1 30.0415 1044.45 34.0924 M1019.05 49.9314 Q1019.05 58.1548 1022.42 62.8538 Q1025.82 67.5124 1031.73 67.5124 Q1037.65 67.5124 1041.05 62.8538 Q1044.45 58.1548 1044.45 49.9314 Q1044.45 41.7081 1041.05 37.0496 Q1037.65 32.3505 1031.73 32.3505 Q1025.82 32.3505 1022.42 37.0496 Q1019.05 41.7081 1019.05 49.9314 Z" fill="#000000" fill-rule="evenodd" fill-opacity="1" /><path clip-path="url(#clip710)" d="M1106.07 48.0275 L1106.07 51.6733 L1071.8 51.6733 Q1072.28 59.3701 1076.42 63.421 Q1080.59 67.4314 1088 67.4314 Q1092.3 67.4314 1096.31 66.3781 Q1100.36 65.3249 1104.33 63.2184 L1104.33 70.267 Q1100.32 71.9684 1096.1 72.8596 Q1091.89 73.7508 1087.56 73.7508 Q1076.7 73.7508 1070.34 67.4314 Q1064.02 61.1119 1064.02 50.3365 Q1064.02 39.1965 1070.02 32.6746 Q1076.05 26.1121 1086.26 26.1121 Q1095.41 26.1121 1100.72 32.0264 Q1106.07 37.9003 1106.07 48.0275 M1098.61 45.84 Q1098.53 39.7232 1095.17 36.0774 Q1091.85 32.4315 1086.34 32.4315 Q1080.1 32.4315 1076.33 35.9558 Q1072.61 39.4801 1072.04 45.8805 L1098.61 45.84 Z" fill="#000000" fill-rule="evenodd" fill-opacity="1" /><path clip-path="url(#clip710)" d="M1144.59 34.1734 Q1143.34 33.4443 1141.84 33.1202 Q1140.38 32.7556 1138.6 32.7556 Q1132.28 32.7556 1128.87 36.8875 Q1125.51 40.9789 1125.51 48.6757 L1125.51 72.576 L1118.02 72.576 L1118.02 27.2059 L1125.51 27.2059 L1125.51 34.2544 Q1127.86 30.1225 1131.63 28.1376 Q1135.4 26.1121 1140.78 26.1121 Q1141.55 26.1121 1142.49 26.2337 Q1143.42 26.3147 1144.55 26.5172 L1144.59 34.1734 Z" fill="#000000" fill-rule="evenodd" fill-opacity="1" /><path clip-path="url(#clip710)" d="M1187.29 18.8205 L1187.29 41.5461 L1197.58 41.5461 Q1203.29 41.5461 1206.41 38.5889 Q1209.53 35.6318 1209.53 30.163 Q1209.53 24.7348 1206.41 21.7777 Q1203.29 18.8205 1197.58 18.8205 L1187.29 18.8205 M1179.11 12.096 L1197.58 12.096 Q1207.75 12.096 1212.93 16.714 Q1218.16 21.2916 1218.16 30.163 Q1218.16 39.1155 1212.93 43.6931 Q1207.75 48.2706 1197.58 48.2706 L1187.29 48.2706 L1187.29 72.576 L1179.11 72.576 L1179.11 12.096 Z" fill="#000000" fill-rule="evenodd" fill-opacity="1" /><path clip-path="url(#clip710)" d="M1253.64 34.1734 Q1252.39 33.4443 1250.89 33.1202 Q1249.43 32.7556 1247.65 32.7556 Q1241.33 32.7556 1237.93 36.8875 Q1234.56 40.9789 1234.56 48.6757 L1234.56 72.576 L1227.07 72.576 L1227.07 27.2059 L1234.56 27.2059 L1234.56 34.2544 Q1236.91 30.1225 1240.68 28.1376 Q1244.45 26.1121 1249.83 26.1121 Q1250.6 26.1121 1251.54 26.2337 Q1252.47 26.3147 1253.6 26.5172 L1253.64 34.1734 Z" fill="#000000" fill-rule="evenodd" fill-opacity="1" /><path clip-path="url(#clip710)" d="M1298.45 48.0275 L1298.45 51.6733 L1264.18 51.6733 Q1264.66 59.3701 1268.79 63.421 Q1272.97 67.4314 1280.38 67.4314 Q1284.67 67.4314 1288.68 66.3781 Q1292.73 65.3249 1296.7 63.2184 L1296.7 70.267 Q1292.69 71.9684 1288.48 72.8596 Q1284.27 73.7508 1279.93 73.7508 Q1269.08 73.7508 1262.72 67.4314 Q1256.4 61.1119 1256.4 50.3365 Q1256.4 39.1965 1262.39 32.6746 Q1268.43 26.1121 1278.64 26.1121 Q1287.79 26.1121 1293.1 32.0264 Q1298.45 37.9003 1298.45 48.0275 M1290.99 45.84 Q1290.91 39.7232 1287.55 36.0774 Q1284.23 32.4315 1278.72 32.4315 Q1272.48 32.4315 1268.71 35.9558 Q1264.99 39.4801 1264.42 45.8805 L1290.99 45.84 Z" fill="#000000" fill-rule="evenodd" fill-opacity="1" /><path clip-path="url(#clip710)" d="M1339.6 28.5427 L1339.6 35.5912 Q1336.44 33.9709 1333.04 33.1607 Q1329.64 32.3505 1325.99 32.3505 Q1320.44 32.3505 1317.65 34.0519 Q1314.89 35.7533 1314.89 39.156 Q1314.89 41.7486 1316.88 43.2475 Q1318.86 44.7058 1324.86 46.0426 L1327.41 46.6097 Q1335.35 48.3111 1338.67 51.4303 Q1342.03 54.509 1342.03 60.0587 Q1342.03 66.3781 1337.01 70.0644 Q1332.03 73.7508 1323.28 73.7508 Q1319.63 73.7508 1315.66 73.0216 Q1311.73 72.3329 1307.36 70.9151 L1307.36 63.2184 Q1311.49 65.3654 1315.5 66.4591 Q1319.51 67.5124 1323.44 67.5124 Q1328.71 67.5124 1331.54 65.73 Q1334.38 63.9071 1334.38 60.6258 Q1334.38 57.5877 1332.31 55.9673 Q1330.29 54.3469 1323.36 52.8481 L1320.77 52.2405 Q1313.84 50.7821 1310.76 47.7845 Q1307.68 44.7463 1307.68 39.4801 Q1307.68 33.0797 1312.22 29.5959 Q1316.76 26.1121 1325.1 26.1121 Q1329.23 26.1121 1332.88 26.7198 Q1336.52 27.3274 1339.6 28.5427 Z" fill="#000000" fill-rule="evenodd" fill-opacity="1" /><path clip-path="url(#clip710)" d="M1392.71 48.0275 L1392.71 51.6733 L1358.44 51.6733 Q1358.93 59.3701 1363.06 63.421 Q1367.23 67.4314 1374.64 67.4314 Q1378.94 67.4314 1382.95 66.3781 Q1387 65.3249 1390.97 63.2184 L1390.97 70.267 Q1386.96 71.9684 1382.75 72.8596 Q1378.53 73.7508 1374.2 73.7508 Q1363.34 73.7508 1356.98 67.4314 Q1350.66 61.1119 1350.66 50.3365 Q1350.66 39.1965 1356.66 32.6746 Q1362.69 26.1121 1372.9 26.1121 Q1382.06 26.1121 1387.36 32.0264 Q1392.71 37.9003 1392.71 48.0275 M1385.26 45.84 Q1385.18 39.7232 1381.81 36.0774 Q1378.49 32.4315 1372.98 32.4315 Q1366.74 32.4315 1362.98 35.9558 Q1359.25 39.4801 1358.68 45.8805 L1385.26 45.84 Z" fill="#000000" fill-rule="evenodd" fill-opacity="1" /><path clip-path="url(#clip710)" d="M1442.66 45.1919 L1442.66 72.576 L1435.2 72.576 L1435.2 45.4349 Q1435.2 38.994 1432.69 35.7938 Q1430.18 32.5936 1425.16 32.5936 Q1419.12 32.5936 1415.64 36.4419 Q1412.15 40.2903 1412.15 46.9338 L1412.15 72.576 L1404.66 72.576 L1404.66 27.2059 L1412.15 27.2059 L1412.15 34.2544 Q1414.83 30.163 1418.43 28.1376 Q1422.08 26.1121 1426.82 26.1121 Q1434.64 26.1121 1438.65 30.9732 Q1442.66 35.7938 1442.66 45.1919 Z" fill="#000000" fill-rule="evenodd" fill-opacity="1" /><path clip-path="url(#clip710)" d="M1490.18 28.9478 L1490.18 35.9153 Q1487.02 34.1734 1483.82 33.3227 Q1480.66 32.4315 1477.41 32.4315 Q1470.16 32.4315 1466.15 37.0496 Q1462.14 41.6271 1462.14 49.9314 Q1462.14 58.2358 1466.15 62.8538 Q1470.16 67.4314 1477.41 67.4314 Q1480.66 67.4314 1483.82 66.5807 Q1487.02 65.6895 1490.18 63.9476 L1490.18 70.8341 Q1487.06 72.2924 1483.69 73.0216 Q1480.37 73.7508 1476.6 73.7508 Q1466.36 73.7508 1460.32 67.3098 Q1454.28 60.8689 1454.28 49.9314 Q1454.28 38.832 1460.36 32.472 Q1466.48 26.1121 1477.09 26.1121 Q1480.53 26.1121 1483.82 26.8413 Q1487.1 27.5299 1490.18 28.9478 Z" fill="#000000" fill-rule="evenodd" fill-opacity="1" /><path clip-path="url(#clip710)" d="M1541.95 48.0275 L1541.95 51.6733 L1507.67 51.6733 Q1508.16 59.3701 1512.29 63.421 Q1516.47 67.4314 1523.88 67.4314 Q1528.17 67.4314 1532.18 66.3781 Q1536.23 65.3249 1540.2 63.2184 L1540.2 70.267 Q1536.19 71.9684 1531.98 72.8596 Q1527.77 73.7508 1523.43 73.7508 Q1512.58 73.7508 1506.22 67.4314 Q1499.9 61.1119 1499.9 50.3365 Q1499.9 39.1965 1505.89 32.6746 Q1511.93 26.1121 1522.14 26.1121 Q1531.29 26.1121 1536.6 32.0264 Q1541.95 37.9003 1541.95 48.0275 M1534.49 45.84 Q1534.41 39.7232 1531.05 36.0774 Q1527.73 32.4315 1522.22 32.4315 Q1515.98 32.4315 1512.21 35.9558 Q1508.49 39.4801 1507.92 45.8805 L1534.49 45.84 Z" fill="#000000" fill-rule="evenodd" fill-opacity="1" /><path clip-path="url(#clip710)" d="M1626.16 16.7545 L1626.16 25.383 Q1622.03 21.5346 1617.33 19.6307 Q1612.67 17.7268 1607.41 17.7268 Q1597.04 17.7268 1591.53 24.0867 Q1586.02 30.4061 1586.02 42.3968 Q1586.02 54.3469 1591.53 60.7069 Q1597.04 67.0263 1607.41 67.0263 Q1612.67 67.0263 1617.33 65.1223 Q1622.03 63.2184 1626.16 59.3701 L1626.16 67.9175 Q1621.87 70.8341 1617.05 72.2924 Q1612.27 73.7508 1606.92 73.7508 Q1593.19 73.7508 1585.29 65.3654 Q1577.39 56.9395 1577.39 42.3968 Q1577.39 27.8135 1585.29 19.4281 Q1593.19 11.0023 1606.92 11.0023 Q1612.35 11.0023 1617.13 12.4606 Q1621.95 13.8784 1626.16 16.7545 Z" fill="#000000" fill-rule="evenodd" fill-opacity="1" /><path clip-path="url(#clip710)" d="M1638.48 9.54393 L1645.93 9.54393 L1645.93 72.576 L1638.48 72.576 L1638.48 9.54393 Z" fill="#000000" fill-rule="evenodd" fill-opacity="1" /><path clip-path="url(#clip710)" d="M1682.15 49.7694 Q1673.11 49.7694 1669.63 51.8354 Q1666.15 53.9013 1666.15 58.8839 Q1666.15 62.8538 1668.74 65.2034 Q1671.37 67.5124 1675.87 67.5124 Q1682.07 67.5124 1685.79 63.1374 Q1689.56 58.7219 1689.56 51.4303 L1689.56 49.7694 L1682.15 49.7694 M1697.01 46.6907 L1697.01 72.576 L1689.56 72.576 L1689.56 65.6895 Q1687.01 69.8214 1683.2 71.8063 Q1679.39 73.7508 1673.88 73.7508 Q1666.92 73.7508 1662.78 69.8619 Q1658.69 65.9325 1658.69 59.3701 Q1658.69 51.7138 1663.8 47.825 Q1668.94 43.9361 1679.11 43.9361 L1689.56 43.9361 L1689.56 43.2069 Q1689.56 38.0623 1686.16 35.2672 Q1682.8 32.4315 1676.68 32.4315 Q1672.79 32.4315 1669.1 33.3632 Q1665.42 34.295 1662.01 36.1584 L1662.01 29.2718 Q1666.11 27.692 1669.95 26.9223 Q1673.8 26.1121 1677.45 26.1121 Q1687.29 26.1121 1692.15 31.2163 Q1697.01 36.3204 1697.01 46.6907 Z" fill="#000000" fill-rule="evenodd" fill-opacity="1" /><path clip-path="url(#clip710)" d="M1741.29 28.5427 L1741.29 35.5912 Q1738.13 33.9709 1734.73 33.1607 Q1731.33 32.3505 1727.68 32.3505 Q1722.13 32.3505 1719.33 34.0519 Q1716.58 35.7533 1716.58 39.156 Q1716.58 41.7486 1718.56 43.2475 Q1720.55 44.7058 1726.55 46.0426 L1729.1 46.6097 Q1737.04 48.3111 1740.36 51.4303 Q1743.72 54.509 1743.72 60.0587 Q1743.72 66.3781 1738.7 70.0644 Q1733.72 73.7508 1724.97 73.7508 Q1721.32 73.7508 1717.35 73.0216 Q1713.42 72.3329 1709.05 70.9151 L1709.05 63.2184 Q1713.18 65.3654 1717.19 66.4591 Q1721.2 67.5124 1725.13 67.5124 Q1730.39 67.5124 1733.23 65.73 Q1736.06 63.9071 1736.06 60.6258 Q1736.06 57.5877 1734 55.9673 Q1731.97 54.3469 1725.05 52.8481 L1722.45 52.2405 Q1715.53 50.7821 1712.45 47.7845 Q1709.37 44.7463 1709.37 39.4801 Q1709.37 33.0797 1713.91 29.5959 Q1718.44 26.1121 1726.79 26.1121 Q1730.92 26.1121 1734.57 26.7198 Q1738.21 27.3274 1741.29 28.5427 Z" fill="#000000" fill-rule="evenodd" fill-opacity="1" /><path clip-path="url(#clip710)" d="M1784.51 28.5427 L1784.51 35.5912 Q1781.35 33.9709 1777.95 33.1607 Q1774.55 32.3505 1770.9 32.3505 Q1765.35 32.3505 1762.56 34.0519 Q1759.8 35.7533 1759.8 39.156 Q1759.8 41.7486 1761.79 43.2475 Q1763.77 44.7058 1769.77 46.0426 L1772.32 46.6097 Q1780.26 48.3111 1783.58 51.4303 Q1786.94 54.509 1786.94 60.0587 Q1786.94 66.3781 1781.92 70.0644 Q1776.94 73.7508 1768.19 73.7508 Q1764.54 73.7508 1760.57 73.0216 Q1756.64 72.3329 1752.27 70.9151 L1752.27 63.2184 Q1756.4 65.3654 1760.41 66.4591 Q1764.42 67.5124 1768.35 67.5124 Q1773.62 67.5124 1776.45 65.73 Q1779.29 63.9071 1779.29 60.6258 Q1779.29 57.5877 1777.22 55.9673 Q1775.2 54.3469 1768.27 52.8481 L1765.68 52.2405 Q1758.75 50.7821 1755.67 47.7845 Q1752.59 44.7463 1752.59 39.4801 Q1752.59 33.0797 1757.13 29.5959 Q1761.67 26.1121 1770.01 26.1121 Q1774.14 26.1121 1777.79 26.7198 Q1781.44 27.3274 1784.51 28.5427 Z" fill="#000000" fill-rule="evenodd" fill-opacity="1" /><path clip-path="url(#clip710)" d="M1798.81 27.2059 L1806.27 27.2059 L1806.27 72.576 L1798.81 72.576 L1798.81 27.2059 M1798.81 9.54393 L1806.27 9.54393 L1806.27 18.9825 L1798.81 18.9825 L1798.81 9.54393 Z" fill="#000000" fill-rule="evenodd" fill-opacity="1" /><path clip-path="url(#clip710)" d="M1844.83 9.54393 L1844.83 15.7418 L1837.7 15.7418 Q1833.69 15.7418 1832.11 17.3622 Q1830.57 18.9825 1830.57 23.1955 L1830.57 27.2059 L1842.85 27.2059 L1842.85 32.9987 L1830.57 32.9987 L1830.57 72.576 L1823.08 72.576 L1823.08 32.9987 L1815.95 32.9987 L1815.95 27.2059 L1823.08 27.2059 L1823.08 24.0462 Q1823.08 16.471 1826.6 13.0277 Q1830.13 9.54393 1837.78 9.54393 L1844.83 9.54393 Z" fill="#000000" fill-rule="evenodd" fill-opacity="1" /><path clip-path="url(#clip710)" d="M1851.07 27.2059 L1858.52 27.2059 L1858.52 72.576 L1851.07 72.576 L1851.07 27.2059 M1851.07 9.54393 L1858.52 9.54393 L1858.52 18.9825 L1851.07 18.9825 L1851.07 9.54393 Z" fill="#000000" fill-rule="evenodd" fill-opacity="1" /><path clip-path="url(#clip710)" d="M1912.93 48.0275 L1912.93 51.6733 L1878.66 51.6733 Q1879.14 59.3701 1883.27 63.421 Q1887.45 67.4314 1894.86 67.4314 Q1899.15 67.4314 1903.16 66.3781 Q1907.22 65.3249 1911.19 63.2184 L1911.19 70.267 Q1907.18 71.9684 1902.96 72.8596 Q1898.75 73.7508 1894.41 73.7508 Q1883.56 73.7508 1877.2 67.4314 Q1870.88 61.1119 1870.88 50.3365 Q1870.88 39.1965 1876.87 32.6746 Q1882.91 26.1121 1893.12 26.1121 Q1902.27 26.1121 1907.58 32.0264 Q1912.93 37.9003 1912.93 48.0275 M1905.47 45.84 Q1905.39 39.7232 1902.03 36.0774 Q1898.71 32.4315 1893.2 32.4315 Q1886.96 32.4315 1883.19 35.9558 Q1879.47 39.4801 1878.9 45.8805 L1905.47 45.84 Z" fill="#000000" fill-rule="evenodd" fill-opacity="1" /><path clip-path="url(#clip710)" d="M1951.45 34.1734 Q1950.2 33.4443 1948.7 33.1202 Q1947.24 32.7556 1945.46 32.7556 Q1939.14 32.7556 1935.73 36.8875 Q1932.37 40.9789 1932.37 48.6757 L1932.37 72.576 L1924.88 72.576 L1924.88 27.2059 L1932.37 27.2059 L1932.37 34.2544 Q1934.72 30.1225 1938.49 28.1376 Q1942.26 26.1121 1947.64 26.1121 Q1948.41 26.1121 1949.35 26.2337 Q1950.28 26.3147 1951.41 26.5172 L1951.45 34.1734 Z" fill="#000000" fill-rule="evenodd" fill-opacity="1" /><circle clip-path="url(#clip712)" cx="337.059" cy="2116.96" r="18" fill="#ff0000" fill-rule="evenodd" fill-opacity="1" stroke="#000000" stroke-opacity="1" stroke-width="4.8"/>
<circle clip-path="url(#clip712)" cx="533.234" cy="210.894" r="18" fill="#ff0000" fill-rule="evenodd" fill-opacity="1" stroke="#000000" stroke-opacity="1" stroke-width="4.8"/>
<circle clip-path="url(#clip712)" cx="2031.52" cy="210.894" r="18" fill="#ff0000" fill-rule="evenodd" fill-opacity="1" stroke="#000000" stroke-opacity="1" stroke-width="4.8"/>
<circle clip-path="url(#clip712)" cx="582.277" cy="210.894" r="18" fill="#ff0000" fill-rule="evenodd" fill-opacity="1" stroke="#000000" stroke-opacity="1" stroke-width="4.8"/>
<circle clip-path="url(#clip712)" cx="464.573" cy="210.894" r="18" fill="#ff0000" fill-rule="evenodd" fill-opacity="1" stroke="#000000" stroke-opacity="1" stroke-width="4.8"/>
<circle clip-path="url(#clip712)" cx="332.155" cy="2116.96" r="18" fill="#ff0000" fill-rule="evenodd" fill-opacity="1" stroke="#000000" stroke-opacity="1" stroke-width="4.8"/>
<circle clip-path="url(#clip712)" cx="430.242" cy="210.894" r="18" fill="#ff0000" fill-rule="evenodd" fill-opacity="1" stroke="#000000" stroke-opacity="1" stroke-width="4.8"/>
<circle clip-path="url(#clip712)" cx="614.156" cy="210.894" r="18" fill="#ff0000" fill-rule="evenodd" fill-opacity="1" stroke="#000000" stroke-opacity="1" stroke-width="4.8"/>
<circle clip-path="url(#clip712)" cx="697.53" cy="210.894" r="18" fill="#ff0000" fill-rule="evenodd" fill-opacity="1" stroke="#000000" stroke-opacity="1" stroke-width="4.8"/>
<circle clip-path="url(#clip712)" cx="979.532" cy="210.894" r="18" fill="#ff0000" fill-rule="evenodd" fill-opacity="1" stroke="#000000" stroke-opacity="1" stroke-width="4.8"/>
<circle clip-path="url(#clip712)" cx="2293.9" cy="210.894" r="18" fill="#ff0000" fill-rule="evenodd" fill-opacity="1" stroke="#000000" stroke-opacity="1" stroke-width="4.8"/>
<circle clip-path="url(#clip712)" cx="1295.86" cy="210.894" r="18" fill="#ff0000" fill-rule="evenodd" fill-opacity="1" stroke="#000000" stroke-opacity="1" stroke-width="4.8"/>
<circle clip-path="url(#clip712)" cx="1732.35" cy="210.894" r="18" fill="#ff0000" fill-rule="evenodd" fill-opacity="1" stroke="#000000" stroke-opacity="1" stroke-width="4.8"/>
<circle clip-path="url(#clip712)" cx="2271.83" cy="210.894" r="18" fill="#ff0000" fill-rule="evenodd" fill-opacity="1" stroke="#000000" stroke-opacity="1" stroke-width="4.8"/>
<circle clip-path="url(#clip712)" cx="1187.97" cy="210.894" r="18" fill="#ff0000" fill-rule="evenodd" fill-opacity="1" stroke="#000000" stroke-opacity="1" stroke-width="4.8"/>
<circle clip-path="url(#clip712)" cx="707.339" cy="2116.96" r="18" fill="#ff0000" fill-rule="evenodd" fill-opacity="1" stroke="#000000" stroke-opacity="1" stroke-width="4.8"/>
<circle clip-path="url(#clip712)" cx="621.512" cy="2116.96" r="18" fill="#ff0000" fill-rule="evenodd" fill-opacity="1" stroke="#000000" stroke-opacity="1" stroke-width="4.8"/>
<circle clip-path="url(#clip712)" cx="1107.05" cy="2116.96" r="18" fill="#ff0000" fill-rule="evenodd" fill-opacity="1" stroke="#000000" stroke-opacity="1" stroke-width="4.8"/>
<circle clip-path="url(#clip712)" cx="790.713" cy="2116.96" r="18" fill="#ff0000" fill-rule="evenodd" fill-opacity="1" stroke="#000000" stroke-opacity="1" stroke-width="4.8"/>
<circle clip-path="url(#clip712)" cx="734.313" cy="2116.96" r="18" fill="#ff0000" fill-rule="evenodd" fill-opacity="1" stroke="#000000" stroke-opacity="1" stroke-width="4.8"/>
<circle clip-path="url(#clip712)" cx="1126.66" cy="2116.96" r="18" fill="#ff0000" fill-rule="evenodd" fill-opacity="1" stroke="#000000" stroke-opacity="1" stroke-width="4.8"/>
<circle clip-path="url(#clip712)" cx="891.253" cy="210.894" r="18" fill="#ff0000" fill-rule="evenodd" fill-opacity="1" stroke="#000000" stroke-opacity="1" stroke-width="4.8"/>
<circle clip-path="url(#clip712)" cx="1028.58" cy="210.894" r="18" fill="#ff0000" fill-rule="evenodd" fill-opacity="1" stroke="#000000" stroke-opacity="1" stroke-width="4.8"/>
<circle clip-path="url(#clip712)" cx="604.347" cy="2116.96" r="18" fill="#ff0000" fill-rule="evenodd" fill-opacity="1" stroke="#000000" stroke-opacity="1" stroke-width="4.8"/>
<circle clip-path="url(#clip712)" cx="763.739" cy="210.894" r="18" fill="#ff0000" fill-rule="evenodd" fill-opacity="1" stroke="#000000" stroke-opacity="1" stroke-width="4.8"/>
<circle clip-path="url(#clip712)" cx="1340" cy="210.894" r="18" fill="#ff0000" fill-rule="evenodd" fill-opacity="1" stroke="#000000" stroke-opacity="1" stroke-width="4.8"/>
<circle clip-path="url(#clip712)" cx="712.243" cy="210.894" r="18" fill="#ff0000" fill-rule="evenodd" fill-opacity="1" stroke="#000000" stroke-opacity="1" stroke-width="4.8"/>
<circle clip-path="url(#clip712)" cx="1823.08" cy="210.894" r="18" fill="#ff0000" fill-rule="evenodd" fill-opacity="1" stroke="#000000" stroke-opacity="1" stroke-width="4.8"/>
</svg>
