<?xml version="1.0" encoding="utf-8"?>
<svg xmlns="http://www.w3.org/2000/svg" xmlns:xlink="http://www.w3.org/1999/xlink" width="600" height="600" viewBox="0 0 2400 2400">
<defs>
  <clipPath id="clip360">
    <rect x="0" y="0" width="2400" height="2400"/>
  </clipPath>
</defs>
<path clip-path="url(#clip360)" d="
M0 2400 L2400 2400 L2400 0 L0 0  Z
  " fill="#ffffff" fill-rule="evenodd" fill-opacity="1"/>
<defs>
  <clipPath id="clip361">
    <rect x="480" y="240" width="1681" height="1681"/>
  </clipPath>
</defs>
<path clip-path="url(#clip360)" d="
M243.14 2174.14 L2352.76 2174.14 L2352.76 153.712 L243.14 153.712  Z
  " fill="#ffffff" fill-rule="evenodd" fill-opacity="1"/>
<defs>
  <clipPath id="clip362">
    <rect x="243" y="153" width="2111" height="2021"/>
  </clipPath>
</defs>
<polyline clip-path="url(#clip362)" style="stroke:#000000; stroke-linecap:butt; stroke-linejoin:round; stroke-width:2; stroke-opacity:0.1; fill:none" points="
  298.858,2174.14 298.858,153.712 
  "/>
<polyline clip-path="url(#clip362)" style="stroke:#000000; stroke-linecap:butt; stroke-linejoin:round; stroke-width:2; stroke-opacity:0.1; fill:none" points="
  697.696,2174.14 697.696,153.712 
  "/>
<polyline clip-path="url(#clip362)" style="stroke:#000000; stroke-linecap:butt; stroke-linejoin:round; stroke-width:2; stroke-opacity:0.1; fill:none" points="
  1096.53,2174.14 1096.53,153.712 
  "/>
<polyline clip-path="url(#clip362)" style="stroke:#000000; stroke-linecap:butt; stroke-linejoin:round; stroke-width:2; stroke-opacity:0.1; fill:none" points="
  1495.37,2174.14 1495.37,153.712 
  "/>
<polyline clip-path="url(#clip362)" style="stroke:#000000; stroke-linecap:butt; stroke-linejoin:round; stroke-width:2; stroke-opacity:0.1; fill:none" points="
  1894.21,2174.14 1894.21,153.712 
  "/>
<polyline clip-path="url(#clip362)" style="stroke:#000000; stroke-linecap:butt; stroke-linejoin:round; stroke-width:2; stroke-opacity:0.1; fill:none" points="
  2293.05,2174.14 2293.05,153.712 
  "/>
<polyline clip-path="url(#clip360)" style="stroke:#000000; stroke-linecap:butt; stroke-linejoin:round; stroke-width:4; stroke-opacity:1; fill:none" points="
  243.14,2174.14 2352.76,2174.14 
  "/>
<polyline clip-path="url(#clip360)" style="stroke:#000000; stroke-linecap:butt; stroke-linejoin:round; stroke-width:4; stroke-opacity:1; fill:none" points="
  298.858,2174.14 298.858,2155.24 
  "/>
<polyline clip-path="url(#clip360)" style="stroke:#000000; stroke-linecap:butt; stroke-linejoin:round; stroke-width:4; stroke-opacity:1; fill:none" points="
  697.696,2174.14 697.696,2155.24 
  "/>
<polyline clip-path="url(#clip360)" style="stroke:#000000; stroke-linecap:butt; stroke-linejoin:round; stroke-width:4; stroke-opacity:1; fill:none" points="
  1096.53,2174.14 1096.53,2155.24 
  "/>
<polyline clip-path="url(#clip360)" style="stroke:#000000; stroke-linecap:butt; stroke-linejoin:round; stroke-width:4; stroke-opacity:1; fill:none" points="
  1495.37,2174.14 1495.37,2155.24 
  "/>
<polyline clip-path="url(#clip360)" style="stroke:#000000; stroke-linecap:butt; stroke-linejoin:round; stroke-width:4; stroke-opacity:1; fill:none" points="
  1894.21,2174.14 1894.21,2155.24 
  "/>
<polyline clip-path="url(#clip360)" style="stroke:#000000; stroke-linecap:butt; stroke-linejoin:round; stroke-width:4; stroke-opacity:1; fill:none" points="
  2293.05,2174.14 2293.05,2155.24 
  "/>
<path clip-path="url(#clip360)" d="M298.858 2205.06 Q295.247 2205.06 293.418 2208.62 Q291.613 2212.16 291.613 2219.29 Q291.613 2226.4 293.418 2229.97 Q295.247 2233.51 298.858 2233.51 Q302.492 2233.51 304.298 2229.97 Q306.126 2226.4 306.126 2219.29 Q306.126 2212.16 304.298 2208.62 Q302.492 2205.06 298.858 2205.06 M298.858 2201.35 Q304.668 2201.35 307.724 2205.96 Q310.802 2210.54 310.802 2219.29 Q310.802 2228.02 307.724 2232.63 Q304.668 2237.21 298.858 2237.21 Q293.048 2237.21 289.969 2232.63 Q286.913 2228.02 286.913 2219.29 Q286.913 2210.54 289.969 2205.96 Q293.048 2201.35 298.858 2201.35 Z" fill="#000000" fill-rule="evenodd" fill-opacity="1" /><path clip-path="url(#clip360)" d="M657.303 2232.6 L664.942 2232.6 L664.942 2206.24 L656.632 2207.91 L656.632 2203.65 L664.896 2201.98 L669.571 2201.98 L669.571 2232.6 L677.21 2232.6 L677.21 2236.54 L657.303 2236.54 L657.303 2232.6 Z" fill="#000000" fill-rule="evenodd" fill-opacity="1" /><path clip-path="url(#clip360)" d="M696.655 2205.06 Q693.044 2205.06 691.215 2208.62 Q689.409 2212.16 689.409 2219.29 Q689.409 2226.4 691.215 2229.97 Q693.044 2233.51 696.655 2233.51 Q700.289 2233.51 702.094 2229.97 Q703.923 2226.4 703.923 2219.29 Q703.923 2212.16 702.094 2208.62 Q700.289 2205.06 696.655 2205.06 M696.655 2201.35 Q702.465 2201.35 705.52 2205.96 Q708.599 2210.54 708.599 2219.29 Q708.599 2228.02 705.52 2232.63 Q702.465 2237.21 696.655 2237.21 Q690.844 2237.21 687.766 2232.63 Q684.71 2228.02 684.71 2219.29 Q684.71 2210.54 687.766 2205.96 Q690.844 2201.35 696.655 2201.35 Z" fill="#000000" fill-rule="evenodd" fill-opacity="1" /><path clip-path="url(#clip360)" d="M726.816 2205.06 Q723.205 2205.06 721.377 2208.62 Q719.571 2212.16 719.571 2219.29 Q719.571 2226.4 721.377 2229.97 Q723.205 2233.51 726.816 2233.51 Q730.451 2233.51 732.256 2229.97 Q734.085 2226.4 734.085 2219.29 Q734.085 2212.16 732.256 2208.62 Q730.451 2205.06 726.816 2205.06 M726.816 2201.35 Q732.627 2201.35 735.682 2205.96 Q738.761 2210.54 738.761 2219.29 Q738.761 2228.02 735.682 2232.63 Q732.627 2237.21 726.816 2237.21 Q721.006 2237.21 717.928 2232.63 Q714.872 2228.02 714.872 2219.29 Q714.872 2210.54 717.928 2205.96 Q721.006 2201.35 726.816 2201.35 Z" fill="#000000" fill-rule="evenodd" fill-opacity="1" /><path clip-path="url(#clip360)" d="M1060.23 2232.6 L1076.55 2232.6 L1076.55 2236.54 L1054.6 2236.54 L1054.6 2232.6 Q1057.26 2229.85 1061.85 2225.22 Q1066.45 2220.57 1067.63 2219.23 Q1069.88 2216.7 1070.76 2214.97 Q1071.66 2213.21 1071.66 2211.52 Q1071.66 2208.76 1069.72 2207.03 Q1067.8 2205.29 1064.69 2205.29 Q1062.5 2205.29 1060.04 2206.05 Q1057.61 2206.82 1054.83 2208.37 L1054.83 2203.65 Q1057.66 2202.51 1060.11 2201.93 Q1062.56 2201.35 1064.6 2201.35 Q1069.97 2201.35 1073.17 2204.04 Q1076.36 2206.73 1076.36 2211.22 Q1076.36 2213.35 1075.55 2215.27 Q1074.76 2217.16 1072.66 2219.76 Q1072.08 2220.43 1068.98 2223.65 Q1065.88 2226.84 1060.23 2232.6 Z" fill="#000000" fill-rule="evenodd" fill-opacity="1" /><path clip-path="url(#clip360)" d="M1096.36 2205.06 Q1092.75 2205.06 1090.92 2208.62 Q1089.12 2212.16 1089.12 2219.29 Q1089.12 2226.4 1090.92 2229.97 Q1092.75 2233.51 1096.36 2233.51 Q1100 2233.51 1101.8 2229.97 Q1103.63 2226.4 1103.63 2219.29 Q1103.63 2212.16 1101.8 2208.62 Q1100 2205.06 1096.36 2205.06 M1096.36 2201.35 Q1102.17 2201.35 1105.23 2205.96 Q1108.31 2210.54 1108.31 2219.29 Q1108.31 2228.02 1105.23 2232.63 Q1102.17 2237.21 1096.36 2237.21 Q1090.55 2237.21 1087.47 2232.63 Q1084.42 2228.02 1084.42 2219.29 Q1084.42 2210.54 1087.47 2205.96 Q1090.55 2201.35 1096.36 2201.35 Z" fill="#000000" fill-rule="evenodd" fill-opacity="1" /><path clip-path="url(#clip360)" d="M1126.52 2205.06 Q1122.91 2205.06 1121.08 2208.62 Q1119.28 2212.16 1119.28 2219.29 Q1119.28 2226.4 1121.08 2229.97 Q1122.91 2233.51 1126.52 2233.51 Q1130.16 2233.51 1131.96 2229.97 Q1133.79 2226.4 1133.79 2219.29 Q1133.79 2212.16 1131.96 2208.62 Q1130.16 2205.06 1126.52 2205.06 M1126.52 2201.35 Q1132.33 2201.35 1135.39 2205.96 Q1138.47 2210.54 1138.47 2219.29 Q1138.47 2228.02 1135.39 2232.63 Q1132.33 2237.21 1126.52 2237.21 Q1120.71 2237.21 1117.63 2232.63 Q1114.58 2228.02 1114.58 2219.29 Q1114.58 2210.54 1117.63 2205.96 Q1120.71 2201.35 1126.52 2201.35 Z" fill="#000000" fill-rule="evenodd" fill-opacity="1" /><path clip-path="url(#clip360)" d="M1469.13 2217.91 Q1472.49 2218.62 1474.37 2220.89 Q1476.26 2223.16 1476.26 2226.49 Q1476.26 2231.61 1472.75 2234.41 Q1469.23 2237.21 1462.75 2237.21 Q1460.57 2237.21 1458.26 2236.77 Q1455.96 2236.35 1453.51 2235.5 L1453.51 2230.98 Q1455.45 2232.12 1457.77 2232.7 Q1460.08 2233.28 1462.61 2233.28 Q1467.01 2233.28 1469.3 2231.54 Q1471.61 2229.8 1471.61 2226.49 Q1471.61 2223.44 1469.46 2221.73 Q1467.33 2219.99 1463.51 2219.99 L1459.48 2219.99 L1459.48 2216.15 L1463.69 2216.15 Q1467.14 2216.15 1468.97 2214.78 Q1470.8 2213.39 1470.8 2210.8 Q1470.8 2208.14 1468.9 2206.73 Q1467.03 2205.29 1463.51 2205.29 Q1461.59 2205.29 1459.39 2205.71 Q1457.19 2206.12 1454.55 2207 L1454.55 2202.84 Q1457.21 2202.1 1459.53 2201.73 Q1461.87 2201.35 1463.93 2201.35 Q1469.25 2201.35 1472.35 2203.79 Q1475.45 2206.19 1475.45 2210.31 Q1475.45 2213.18 1473.81 2215.17 Q1472.17 2217.14 1469.13 2217.91 Z" fill="#000000" fill-rule="evenodd" fill-opacity="1" /><path clip-path="url(#clip360)" d="M1495.13 2205.06 Q1491.52 2205.06 1489.69 2208.62 Q1487.88 2212.16 1487.88 2219.29 Q1487.88 2226.4 1489.69 2229.97 Q1491.52 2233.51 1495.13 2233.51 Q1498.76 2233.51 1500.57 2229.97 Q1502.4 2226.4 1502.4 2219.29 Q1502.4 2212.16 1500.57 2208.62 Q1498.76 2205.06 1495.13 2205.06 M1495.13 2201.35 Q1500.94 2201.35 1504 2205.96 Q1507.07 2210.54 1507.07 2219.29 Q1507.07 2228.02 1504 2232.63 Q1500.94 2237.21 1495.13 2237.21 Q1489.32 2237.21 1486.24 2232.63 Q1483.19 2228.02 1483.19 2219.29 Q1483.19 2210.54 1486.24 2205.96 Q1489.32 2201.35 1495.13 2201.35 Z" fill="#000000" fill-rule="evenodd" fill-opacity="1" /><path clip-path="url(#clip360)" d="M1525.29 2205.06 Q1521.68 2205.06 1519.85 2208.62 Q1518.05 2212.16 1518.05 2219.29 Q1518.05 2226.4 1519.85 2229.97 Q1521.68 2233.51 1525.29 2233.51 Q1528.93 2233.51 1530.73 2229.97 Q1532.56 2226.4 1532.56 2219.29 Q1532.56 2212.16 1530.73 2208.62 Q1528.93 2205.06 1525.29 2205.06 M1525.29 2201.35 Q1531.1 2201.35 1534.16 2205.96 Q1537.24 2210.54 1537.24 2219.29 Q1537.24 2228.02 1534.16 2232.63 Q1531.1 2237.21 1525.29 2237.21 Q1519.48 2237.21 1516.4 2232.63 Q1513.35 2228.02 1513.35 2219.29 Q1513.35 2210.54 1516.4 2205.96 Q1519.48 2201.35 1525.29 2201.35 Z" fill="#000000" fill-rule="evenodd" fill-opacity="1" /><path clip-path="url(#clip360)" d="M1867.3 2206.05 L1855.5 2224.5 L1867.3 2224.5 L1867.3 2206.05 M1866.07 2201.98 L1871.95 2201.98 L1871.95 2224.5 L1876.89 2224.5 L1876.89 2228.39 L1871.95 2228.39 L1871.95 2236.54 L1867.3 2236.54 L1867.3 2228.39 L1851.7 2228.39 L1851.7 2223.88 L1866.07 2201.98 Z" fill="#000000" fill-rule="evenodd" fill-opacity="1" /><path clip-path="url(#clip360)" d="M1894.62 2205.06 Q1891.01 2205.06 1889.18 2208.62 Q1887.37 2212.16 1887.37 2219.29 Q1887.37 2226.4 1889.18 2229.97 Q1891.01 2233.51 1894.62 2233.51 Q1898.25 2233.51 1900.06 2229.97 Q1901.88 2226.4 1901.88 2219.29 Q1901.88 2212.16 1900.06 2208.62 Q1898.25 2205.06 1894.62 2205.06 M1894.62 2201.35 Q1900.43 2201.35 1903.48 2205.96 Q1906.56 2210.54 1906.56 2219.29 Q1906.56 2228.02 1903.48 2232.63 Q1900.43 2237.21 1894.62 2237.21 Q1888.81 2237.21 1885.73 2232.63 Q1882.67 2228.02 1882.67 2219.29 Q1882.67 2210.54 1885.73 2205.96 Q1888.81 2201.35 1894.62 2201.35 Z" fill="#000000" fill-rule="evenodd" fill-opacity="1" /><path clip-path="url(#clip360)" d="M1924.78 2205.06 Q1921.17 2205.06 1919.34 2208.62 Q1917.53 2212.16 1917.53 2219.29 Q1917.53 2226.4 1919.34 2229.97 Q1921.17 2233.51 1924.78 2233.51 Q1928.41 2233.51 1930.22 2229.97 Q1932.05 2226.4 1932.05 2219.29 Q1932.05 2212.16 1930.22 2208.62 Q1928.41 2205.06 1924.78 2205.06 M1924.78 2201.35 Q1930.59 2201.35 1933.64 2205.96 Q1936.72 2210.54 1936.72 2219.29 Q1936.72 2228.02 1933.64 2232.63 Q1930.59 2237.21 1924.78 2237.21 Q1918.97 2237.21 1915.89 2232.63 Q1912.83 2228.02 1912.83 2219.29 Q1912.83 2210.54 1915.89 2205.96 Q1918.97 2201.35 1924.78 2201.35 Z" fill="#000000" fill-rule="evenodd" fill-opacity="1" /><path clip-path="url(#clip360)" d="M2252.67 2201.98 L2271.02 2201.98 L2271.02 2205.92 L2256.95 2205.92 L2256.95 2214.39 Q2257.97 2214.04 2258.99 2213.88 Q2260.01 2213.69 2261.02 2213.69 Q2266.81 2213.69 2270.19 2216.86 Q2273.57 2220.04 2273.57 2225.45 Q2273.57 2231.03 2270.1 2234.13 Q2266.63 2237.21 2260.31 2237.21 Q2258.13 2237.21 2255.86 2236.84 Q2253.62 2236.47 2251.21 2235.73 L2251.21 2231.03 Q2253.29 2232.16 2255.52 2232.72 Q2257.74 2233.28 2260.21 2233.28 Q2264.22 2233.28 2266.56 2231.17 Q2268.89 2229.06 2268.89 2225.45 Q2268.89 2221.84 2266.56 2219.73 Q2264.22 2217.63 2260.21 2217.63 Q2258.34 2217.63 2256.46 2218.04 Q2254.61 2218.46 2252.67 2219.34 L2252.67 2201.98 Z" fill="#000000" fill-rule="evenodd" fill-opacity="1" /><path clip-path="url(#clip360)" d="M2292.78 2205.06 Q2289.17 2205.06 2287.34 2208.62 Q2285.54 2212.16 2285.54 2219.29 Q2285.54 2226.4 2287.34 2229.97 Q2289.17 2233.51 2292.78 2233.51 Q2296.42 2233.51 2298.22 2229.97 Q2300.05 2226.4 2300.05 2219.29 Q2300.05 2212.16 2298.22 2208.62 Q2296.42 2205.06 2292.78 2205.06 M2292.78 2201.35 Q2298.59 2201.35 2301.65 2205.96 Q2304.73 2210.54 2304.73 2219.29 Q2304.73 2228.02 2301.65 2232.63 Q2298.59 2237.21 2292.78 2237.21 Q2286.97 2237.21 2283.89 2232.63 Q2280.84 2228.02 2280.84 2219.29 Q2280.84 2210.54 2283.89 2205.96 Q2286.97 2201.35 2292.78 2201.35 Z" fill="#000000" fill-rule="evenodd" fill-opacity="1" /><path clip-path="url(#clip360)" d="M2322.95 2205.06 Q2319.33 2205.06 2317.51 2208.62 Q2315.7 2212.16 2315.7 2219.29 Q2315.7 2226.4 2317.51 2229.97 Q2319.33 2233.51 2322.95 2233.51 Q2326.58 2233.51 2328.39 2229.97 Q2330.21 2226.4 2330.21 2219.29 Q2330.21 2212.16 2328.39 2208.62 Q2326.58 2205.06 2322.95 2205.06 M2322.95 2201.35 Q2328.76 2201.35 2331.81 2205.96 Q2334.89 2210.54 2334.89 2219.29 Q2334.89 2228.02 2331.81 2232.63 Q2328.76 2237.21 2322.95 2237.21 Q2317.14 2237.21 2314.06 2232.63 Q2311 2228.02 2311 2219.29 Q2311 2210.54 2314.06 2205.96 Q2317.14 2201.35 2322.95 2201.35 Z" fill="#000000" fill-rule="evenodd" fill-opacity="1" /><path clip-path="url(#clip360)" d="M1185.96 2271.48 L1216.01 2271.48 L1216.01 2276.89 L1192.39 2276.89 L1192.39 2290.96 L1215.02 2290.96 L1215.02 2296.37 L1192.39 2296.37 L1192.39 2313.59 L1216.58 2313.59 L1216.58 2319 L1185.96 2319 L1185.96 2271.48 Z" fill="#000000" fill-rule="evenodd" fill-opacity="1" /><path clip-path="url(#clip360)" d="M1232.56 2313.66 L1232.56 2332.56 L1226.67 2332.56 L1226.67 2283.36 L1232.56 2283.36 L1232.56 2288.77 Q1234.4 2285.58 1237.2 2284.06 Q1240.04 2282.5 1243.95 2282.5 Q1250.44 2282.5 1254.49 2287.65 Q1258.56 2292.81 1258.56 2301.21 Q1258.56 2309.61 1254.49 2314.77 Q1250.44 2319.93 1243.95 2319.93 Q1240.04 2319.93 1237.2 2318.4 Q1234.4 2316.84 1232.56 2313.66 M1252.48 2301.21 Q1252.48 2294.75 1249.81 2291.09 Q1247.17 2287.4 1242.52 2287.4 Q1237.87 2287.4 1235.2 2291.09 Q1232.56 2294.75 1232.56 2301.21 Q1232.56 2307.67 1235.2 2311.36 Q1237.87 2315.03 1242.52 2315.03 Q1247.17 2315.03 1249.81 2311.36 Q1252.48 2307.67 1252.48 2301.21 Z" fill="#000000" fill-rule="evenodd" fill-opacity="1" /><path clip-path="url(#clip360)" d="M1282.08 2287.46 Q1277.37 2287.46 1274.63 2291.15 Q1271.9 2294.81 1271.9 2301.21 Q1271.9 2307.61 1274.6 2311.3 Q1277.34 2314.96 1282.08 2314.96 Q1286.76 2314.96 1289.5 2311.27 Q1292.23 2307.58 1292.23 2301.21 Q1292.23 2294.88 1289.5 2291.19 Q1286.76 2287.46 1282.08 2287.46 M1282.08 2282.5 Q1289.72 2282.5 1294.08 2287.46 Q1298.44 2292.43 1298.44 2301.21 Q1298.44 2309.96 1294.08 2314.96 Q1289.72 2319.93 1282.08 2319.93 Q1274.41 2319.93 1270.05 2314.96 Q1265.72 2309.96 1265.72 2301.21 Q1265.72 2292.43 1270.05 2287.46 Q1274.41 2282.5 1282.08 2282.5 Z" fill="#000000" fill-rule="evenodd" fill-opacity="1" /><path clip-path="url(#clip360)" d="M1333.8 2284.72 L1333.8 2290.2 Q1331.32 2288.83 1328.81 2288.16 Q1326.32 2287.46 1323.78 2287.46 Q1318.08 2287.46 1314.93 2291.09 Q1311.78 2294.69 1311.78 2301.21 Q1311.78 2307.74 1314.93 2311.36 Q1318.08 2314.96 1323.78 2314.96 Q1326.32 2314.96 1328.81 2314.29 Q1331.32 2313.59 1333.8 2312.22 L1333.8 2317.64 Q1331.35 2318.78 1328.71 2319.35 Q1326.1 2319.93 1323.14 2319.93 Q1315.09 2319.93 1310.35 2314.87 Q1305.6 2309.81 1305.6 2301.21 Q1305.6 2292.49 1310.38 2287.49 Q1315.18 2282.5 1323.52 2282.5 Q1326.23 2282.5 1328.81 2283.07 Q1331.38 2283.61 1333.8 2284.72 Z" fill="#000000" fill-rule="evenodd" fill-opacity="1" /><path clip-path="url(#clip360)" d="M1373.62 2297.49 L1373.62 2319 L1367.76 2319 L1367.76 2297.68 Q1367.76 2292.62 1365.79 2290.1 Q1363.82 2287.59 1359.87 2287.59 Q1355.13 2287.59 1352.39 2290.61 Q1349.65 2293.64 1349.65 2298.86 L1349.65 2319 L1343.77 2319 L1343.77 2269.48 L1349.65 2269.48 L1349.65 2288.89 Q1351.75 2285.68 1354.59 2284.09 Q1357.45 2282.5 1361.18 2282.5 Q1367.32 2282.5 1370.47 2286.32 Q1373.62 2290.1 1373.62 2297.49 Z" fill="#000000" fill-rule="evenodd" fill-opacity="1" /><path clip-path="url(#clip360)" d="M1408.03 2284.41 L1408.03 2289.94 Q1405.54 2288.67 1402.87 2288.03 Q1400.2 2287.4 1397.33 2287.4 Q1392.97 2287.4 1390.78 2288.73 Q1388.61 2290.07 1388.61 2292.75 Q1388.61 2294.78 1390.17 2295.96 Q1391.73 2297.11 1396.44 2298.16 L1398.45 2298.6 Q1404.69 2299.94 1407.29 2302.39 Q1409.94 2304.81 1409.94 2309.17 Q1409.94 2314.13 1405.99 2317.03 Q1402.08 2319.93 1395.2 2319.93 Q1392.34 2319.93 1389.22 2319.35 Q1386.13 2318.81 1382.69 2317.7 L1382.69 2311.65 Q1385.94 2313.34 1389.09 2314.2 Q1392.24 2315.03 1395.33 2315.03 Q1399.47 2315.03 1401.69 2313.62 Q1403.92 2312.19 1403.92 2309.61 Q1403.92 2307.23 1402.3 2305.95 Q1400.71 2304.68 1395.26 2303.5 L1393.23 2303.03 Q1387.78 2301.88 1385.37 2299.52 Q1382.95 2297.14 1382.95 2293 Q1382.95 2287.97 1386.51 2285.23 Q1390.08 2282.5 1396.63 2282.5 Q1399.88 2282.5 1402.74 2282.97 Q1405.61 2283.45 1408.03 2284.41 Z" fill="#000000" fill-rule="evenodd" fill-opacity="1" /><polyline clip-path="url(#clip362)" style="stroke:#000000; stroke-linecap:butt; stroke-linejoin:round; stroke-width:2; stroke-opacity:0.1; fill:none" points="
  243.14,2146.01 2352.76,2146.01 
  "/>
<polyline clip-path="url(#clip362)" style="stroke:#000000; stroke-linecap:butt; stroke-linejoin:round; stroke-width:2; stroke-opacity:0.1; fill:none" points="
  243.14,1584.56 2352.76,1584.56 
  "/>
<polyline clip-path="url(#clip362)" style="stroke:#000000; stroke-linecap:butt; stroke-linejoin:round; stroke-width:2; stroke-opacity:0.1; fill:none" points="
  243.14,1023.1 2352.76,1023.1 
  "/>
<polyline clip-path="url(#clip362)" style="stroke:#000000; stroke-linecap:butt; stroke-linejoin:round; stroke-width:2; stroke-opacity:0.1; fill:none" points="
  243.14,461.651 2352.76,461.651 
  "/>
<polyline clip-path="url(#clip360)" style="stroke:#000000; stroke-linecap:butt; stroke-linejoin:round; stroke-width:4; stroke-opacity:1; fill:none" points="
  243.14,2174.14 243.14,153.712 
  "/>
<polyline clip-path="url(#clip360)" style="stroke:#000000; stroke-linecap:butt; stroke-linejoin:round; stroke-width:4; stroke-opacity:1; fill:none" points="
  243.14,2146.01 262.038,2146.01 
  "/>
<polyline clip-path="url(#clip360)" style="stroke:#000000; stroke-linecap:butt; stroke-linejoin:round; stroke-width:4; stroke-opacity:1; fill:none" points="
  243.14,1584.56 262.038,1584.56 
  "/>
<polyline clip-path="url(#clip360)" style="stroke:#000000; stroke-linecap:butt; stroke-linejoin:round; stroke-width:4; stroke-opacity:1; fill:none" points="
  243.14,1023.1 262.038,1023.1 
  "/>
<polyline clip-path="url(#clip360)" style="stroke:#000000; stroke-linecap:butt; stroke-linejoin:round; stroke-width:4; stroke-opacity:1; fill:none" points="
  243.14,461.651 262.038,461.651 
  "/>
<path clip-path="url(#clip360)" d="M149.965 2131.81 Q146.353 2131.81 144.525 2135.37 Q142.719 2138.92 142.719 2146.04 Q142.719 2153.15 144.525 2156.72 Q146.353 2160.26 149.965 2160.26 Q153.599 2160.26 155.404 2156.72 Q157.233 2153.15 157.233 2146.04 Q157.233 2138.92 155.404 2135.37 Q153.599 2131.81 149.965 2131.81 M149.965 2128.1 Q155.775 2128.1 158.83 2132.71 Q161.909 2137.29 161.909 2146.04 Q161.909 2154.77 158.83 2159.38 Q155.775 2163.96 149.965 2163.96 Q144.154 2163.96 141.076 2159.38 Q138.02 2154.77 138.02 2146.04 Q138.02 2137.29 141.076 2132.71 Q144.154 2128.1 149.965 2128.1 Z" fill="#000000" fill-rule="evenodd" fill-opacity="1" /><path clip-path="url(#clip360)" d="M170.126 2157.41 L175.011 2157.41 L175.011 2163.29 L170.126 2163.29 L170.126 2157.41 Z" fill="#000000" fill-rule="evenodd" fill-opacity="1" /><path clip-path="url(#clip360)" d="M195.196 2131.81 Q191.585 2131.81 189.756 2135.37 Q187.95 2138.92 187.95 2146.04 Q187.95 2153.15 189.756 2156.72 Q191.585 2160.26 195.196 2160.26 Q198.83 2160.26 200.636 2156.72 Q202.464 2153.15 202.464 2146.04 Q202.464 2138.92 200.636 2135.37 Q198.83 2131.81 195.196 2131.81 M195.196 2128.1 Q201.006 2128.1 204.061 2132.71 Q207.14 2137.29 207.14 2146.04 Q207.14 2154.77 204.061 2159.38 Q201.006 2163.96 195.196 2163.96 Q189.386 2163.96 186.307 2159.38 Q183.251 2154.77 183.251 2146.04 Q183.251 2137.29 186.307 2132.71 Q189.386 2128.1 195.196 2128.1 Z" fill="#000000" fill-rule="evenodd" fill-opacity="1" /><path clip-path="url(#clip360)" d="M150.96 1570.36 Q147.349 1570.36 145.52 1573.92 Q143.715 1577.46 143.715 1584.59 Q143.715 1591.7 145.52 1595.26 Q147.349 1598.8 150.96 1598.8 Q154.594 1598.8 156.4 1595.26 Q158.228 1591.7 158.228 1584.59 Q158.228 1577.46 156.4 1573.92 Q154.594 1570.36 150.96 1570.36 M150.96 1566.65 Q156.77 1566.65 159.826 1571.26 Q162.904 1575.84 162.904 1584.59 Q162.904 1593.32 159.826 1597.93 Q156.77 1602.51 150.96 1602.51 Q145.15 1602.51 142.071 1597.93 Q139.016 1593.32 139.016 1584.59 Q139.016 1575.84 142.071 1571.26 Q145.15 1566.65 150.96 1566.65 Z" fill="#000000" fill-rule="evenodd" fill-opacity="1" /><path clip-path="url(#clip360)" d="M171.122 1595.96 L176.006 1595.96 L176.006 1601.84 L171.122 1601.84 L171.122 1595.96 Z" fill="#000000" fill-rule="evenodd" fill-opacity="1" /><path clip-path="url(#clip360)" d="M186.237 1567.28 L204.594 1567.28 L204.594 1571.21 L190.52 1571.21 L190.52 1579.68 Q191.538 1579.34 192.557 1579.18 Q193.575 1578.99 194.594 1578.99 Q200.381 1578.99 203.761 1582.16 Q207.14 1585.33 207.14 1590.75 Q207.14 1596.33 203.668 1599.43 Q200.196 1602.51 193.876 1602.51 Q191.7 1602.51 189.432 1602.14 Q187.187 1601.77 184.779 1601.03 L184.779 1596.33 Q186.862 1597.46 189.085 1598.02 Q191.307 1598.57 193.784 1598.57 Q197.788 1598.57 200.126 1596.47 Q202.464 1594.36 202.464 1590.75 Q202.464 1587.14 200.126 1585.03 Q197.788 1582.93 193.784 1582.93 Q191.909 1582.93 190.034 1583.34 Q188.182 1583.76 186.237 1584.64 L186.237 1567.28 Z" fill="#000000" fill-rule="evenodd" fill-opacity="1" /><path clip-path="url(#clip360)" d="M140.775 1036.45 L148.414 1036.45 L148.414 1010.08 L140.103 1011.75 L140.103 1007.49 L148.367 1005.82 L153.043 1005.82 L153.043 1036.45 L160.682 1036.45 L160.682 1040.38 L140.775 1040.38 L140.775 1036.45 Z" fill="#000000" fill-rule="evenodd" fill-opacity="1" /><path clip-path="url(#clip360)" d="M170.126 1034.5 L175.011 1034.5 L175.011 1040.38 L170.126 1040.38 L170.126 1034.5 Z" fill="#000000" fill-rule="evenodd" fill-opacity="1" /><path clip-path="url(#clip360)" d="M195.196 1008.9 Q191.585 1008.9 189.756 1012.47 Q187.95 1016.01 187.95 1023.14 Q187.95 1030.25 189.756 1033.81 Q191.585 1037.35 195.196 1037.35 Q198.83 1037.35 200.636 1033.81 Q202.464 1030.25 202.464 1023.14 Q202.464 1016.01 200.636 1012.47 Q198.83 1008.9 195.196 1008.9 M195.196 1005.2 Q201.006 1005.2 204.061 1009.81 Q207.14 1014.39 207.14 1023.14 Q207.14 1031.87 204.061 1036.47 Q201.006 1041.06 195.196 1041.06 Q189.386 1041.06 186.307 1036.47 Q183.251 1031.87 183.251 1023.14 Q183.251 1014.39 186.307 1009.81 Q189.386 1005.2 195.196 1005.2 Z" fill="#000000" fill-rule="evenodd" fill-opacity="1" /><path clip-path="url(#clip360)" d="M141.77 474.996 L149.409 474.996 L149.409 448.63 L141.099 450.297 L141.099 446.038 L149.363 444.371 L154.039 444.371 L154.039 474.996 L161.677 474.996 L161.677 478.931 L141.77 478.931 L141.77 474.996 Z" fill="#000000" fill-rule="evenodd" fill-opacity="1" /><path clip-path="url(#clip360)" d="M171.122 473.052 L176.006 473.052 L176.006 478.931 L171.122 478.931 L171.122 473.052 Z" fill="#000000" fill-rule="evenodd" fill-opacity="1" /><path clip-path="url(#clip360)" d="M186.237 444.371 L204.594 444.371 L204.594 448.306 L190.52 448.306 L190.52 456.779 Q191.538 456.431 192.557 456.269 Q193.575 456.084 194.594 456.084 Q200.381 456.084 203.761 459.255 Q207.14 462.427 207.14 467.843 Q207.14 473.422 203.668 476.524 Q200.196 479.602 193.876 479.602 Q191.7 479.602 189.432 479.232 Q187.187 478.862 184.779 478.121 L184.779 473.422 Q186.862 474.556 189.085 475.112 Q191.307 475.667 193.784 475.667 Q197.788 475.667 200.126 473.561 Q202.464 471.454 202.464 467.843 Q202.464 464.232 200.126 462.126 Q197.788 460.019 193.784 460.019 Q191.909 460.019 190.034 460.436 Q188.182 460.853 186.237 461.732 L186.237 444.371 Z" fill="#000000" fill-rule="evenodd" fill-opacity="1" /><path clip-path="url(#clip360)" d="M40.2442 1230.62 L40.2442 1224.19 L82.3533 1224.19 L82.3533 1201.05 L87.7642 1201.05 L87.7642 1230.62 L40.2442 1230.62 Z" fill="#000000" fill-rule="evenodd" fill-opacity="1" /><path clip-path="url(#clip360)" d="M56.2221 1181.89 Q56.2221 1186.6 59.9142 1189.34 Q63.5745 1192.08 69.972 1192.08 Q76.3695 1192.08 80.0617 1189.37 Q83.7219 1186.64 83.7219 1181.89 Q83.7219 1177.21 80.0298 1174.48 Q76.3377 1171.74 69.972 1171.74 Q63.6381 1171.74 59.946 1174.48 Q56.2221 1177.21 56.2221 1181.89 M51.2568 1181.89 Q51.2568 1174.25 56.2221 1169.89 Q61.1873 1165.53 69.972 1165.53 Q78.7249 1165.53 83.7219 1169.89 Q88.6872 1174.25 88.6872 1181.89 Q88.6872 1189.56 83.7219 1193.92 Q78.7249 1198.25 69.972 1198.25 Q61.1873 1198.25 56.2221 1193.92 Q51.2568 1189.56 51.2568 1181.89 Z" fill="#000000" fill-rule="evenodd" fill-opacity="1" /><path clip-path="url(#clip360)" d="M53.1665 1133.1 L58.7047 1133.1 Q57.4316 1135.58 56.795 1138.26 Q56.1584 1140.93 56.1584 1143.79 Q56.1584 1148.15 57.4952 1150.35 Q58.832 1152.52 61.5056 1152.52 Q63.5426 1152.52 64.7203 1150.96 Q65.8661 1149.4 66.9165 1144.69 L67.3621 1142.68 Q68.6989 1136.44 71.1497 1133.83 Q73.5686 1131.19 77.9291 1131.19 Q82.8944 1131.19 85.7908 1135.14 Q88.6872 1139.05 88.6872 1145.93 Q88.6872 1148.79 88.1143 1151.91 Q87.5732 1155 86.4592 1158.44 L80.4118 1158.44 Q82.0987 1155.19 82.958 1152.04 Q83.7856 1148.89 83.7856 1145.8 Q83.7856 1141.66 82.3851 1139.43 Q80.9529 1137.21 78.3747 1137.21 Q75.9876 1137.21 74.7145 1138.83 Q73.4413 1140.42 72.2637 1145.86 L71.7862 1147.9 Q70.6404 1153.34 68.2851 1155.76 Q65.898 1158.18 61.7602 1158.18 Q56.7313 1158.18 53.9941 1154.62 Q51.2568 1151.05 51.2568 1144.49 Q51.2568 1141.25 51.7343 1138.38 Q52.2117 1135.52 53.1665 1133.1 Z" fill="#000000" fill-rule="evenodd" fill-opacity="1" /><path clip-path="url(#clip360)" d="M53.1665 1099.14 L58.7047 1099.14 Q57.4316 1101.62 56.795 1104.3 Q56.1584 1106.97 56.1584 1109.83 Q56.1584 1114.19 57.4952 1116.39 Q58.832 1118.55 61.5056 1118.55 Q63.5426 1118.55 64.7203 1116.99 Q65.8661 1115.44 66.9165 1110.72 L67.3621 1108.72 Q68.6989 1102.48 71.1497 1099.87 Q73.5686 1097.23 77.9291 1097.23 Q82.8944 1097.23 85.7908 1101.18 Q88.6872 1105.09 88.6872 1111.97 Q88.6872 1114.83 88.1143 1117.95 Q87.5732 1121.04 86.4592 1124.47 L80.4118 1124.47 Q82.0987 1121.23 82.958 1118.08 Q83.7856 1114.93 83.7856 1111.84 Q83.7856 1107.7 82.3851 1105.47 Q80.9529 1103.24 78.3747 1103.24 Q75.9876 1103.24 74.7145 1104.87 Q73.4413 1106.46 72.2637 1111.9 L71.7862 1113.94 Q70.6404 1119.38 68.2851 1121.8 Q65.898 1124.22 61.7602 1124.22 Q56.7313 1124.22 53.9941 1120.66 Q51.2568 1117.09 51.2568 1110.53 Q51.2568 1107.29 51.7343 1104.42 Q52.2117 1101.56 53.1665 1099.14 Z" fill="#000000" fill-rule="evenodd" fill-opacity="1" /><path clip-path="url(#clip360)" d="M988.58 12.096 L996.763 12.096 L996.763 65.6895 L1026.21 65.6895 L1026.21 72.576 L988.58 72.576 L988.58 12.096 Z" fill="#000000" fill-rule="evenodd" fill-opacity="1" /><path clip-path="url(#clip360)" d="M1071.83 48.0275 L1071.83 51.6733 L1037.56 51.6733 Q1038.04 59.3701 1042.17 63.421 Q1046.35 67.4314 1053.76 67.4314 Q1058.05 67.4314 1062.06 66.3781 Q1066.11 65.3249 1070.08 63.2184 L1070.08 70.267 Q1066.07 71.9684 1061.86 72.8596 Q1057.65 73.7508 1053.31 73.7508 Q1042.46 73.7508 1036.1 67.4314 Q1029.78 61.1119 1029.78 50.3365 Q1029.78 39.1965 1035.77 32.6746 Q1041.81 26.1121 1052.02 26.1121 Q1061.17 26.1121 1066.48 32.0264 Q1071.83 37.9003 1071.83 48.0275 M1064.37 45.84 Q1064.29 39.7232 1060.93 36.0774 Q1057.61 32.4315 1052.1 32.4315 Q1045.86 32.4315 1042.09 35.9558 Q1038.37 39.4801 1037.8 45.8805 L1064.37 45.84 Z" fill="#000000" fill-rule="evenodd" fill-opacity="1" /><path clip-path="url(#clip360)" d="M1104.68 49.7694 Q1095.65 49.7694 1092.16 51.8354 Q1088.68 53.9013 1088.68 58.8839 Q1088.68 62.8538 1091.27 65.2034 Q1093.9 67.5124 1098.4 67.5124 Q1104.6 67.5124 1108.33 63.1374 Q1112.09 58.7219 1112.09 51.4303 L1112.09 49.7694 L1104.68 49.7694 M1119.55 46.6907 L1119.55 72.576 L1112.09 72.576 L1112.09 65.6895 Q1109.54 69.8214 1105.73 71.8063 Q1101.92 73.7508 1096.42 73.7508 Q1089.45 73.7508 1085.32 69.8619 Q1081.22 65.9325 1081.22 59.3701 Q1081.22 51.7138 1086.33 47.825 Q1091.47 43.9361 1101.64 43.9361 L1112.09 43.9361 L1112.09 43.2069 Q1112.09 38.0623 1108.69 35.2672 Q1105.33 32.4315 1099.21 32.4315 Q1095.32 32.4315 1091.64 33.3632 Q1087.95 34.295 1084.55 36.1584 L1084.55 29.2718 Q1088.64 27.692 1092.49 26.9223 Q1096.33 26.1121 1099.98 26.1121 Q1109.82 26.1121 1114.69 31.2163 Q1119.55 36.3204 1119.55 46.6907 Z" fill="#000000" fill-rule="evenodd" fill-opacity="1" /><path clip-path="url(#clip360)" d="M1161.19 34.1734 Q1159.93 33.4443 1158.43 33.1202 Q1156.98 32.7556 1155.19 32.7556 Q1148.87 32.7556 1145.47 36.8875 Q1142.11 40.9789 1142.11 48.6757 L1142.11 72.576 L1134.62 72.576 L1134.62 27.2059 L1142.11 27.2059 L1142.11 34.2544 Q1144.46 30.1225 1148.23 28.1376 Q1151.99 26.1121 1157.38 26.1121 Q1158.15 26.1121 1159.08 26.2337 Q1160.01 26.3147 1161.15 26.5172 L1161.19 34.1734 Z" fill="#000000" fill-rule="evenodd" fill-opacity="1" /><path clip-path="url(#clip360)" d="M1205.26 45.1919 L1205.26 72.576 L1197.81 72.576 L1197.81 45.4349 Q1197.81 38.994 1195.3 35.7938 Q1192.79 32.5936 1187.76 32.5936 Q1181.73 32.5936 1178.24 36.4419 Q1174.76 40.2903 1174.76 46.9338 L1174.76 72.576 L1167.27 72.576 L1167.27 27.2059 L1174.76 27.2059 L1174.76 34.2544 Q1177.43 30.163 1181.04 28.1376 Q1184.68 26.1121 1189.42 26.1121 Q1197.24 26.1121 1201.25 30.9732 Q1205.26 35.7938 1205.26 45.1919 Z" fill="#000000" fill-rule="evenodd" fill-opacity="1" /><path clip-path="url(#clip360)" d="M1220.13 27.2059 L1227.58 27.2059 L1227.58 72.576 L1220.13 72.576 L1220.13 27.2059 M1220.13 9.54393 L1227.58 9.54393 L1227.58 18.9825 L1220.13 18.9825 L1220.13 9.54393 Z" fill="#000000" fill-rule="evenodd" fill-opacity="1" /><path clip-path="url(#clip360)" d="M1280.89 45.1919 L1280.89 72.576 L1273.44 72.576 L1273.44 45.4349 Q1273.44 38.994 1270.93 35.7938 Q1268.42 32.5936 1263.39 32.5936 Q1257.36 32.5936 1253.87 36.4419 Q1250.39 40.2903 1250.39 46.9338 L1250.39 72.576 L1242.9 72.576 L1242.9 27.2059 L1250.39 27.2059 L1250.39 34.2544 Q1253.06 30.163 1256.67 28.1376 Q1260.32 26.1121 1265.05 26.1121 Q1272.87 26.1121 1276.88 30.9732 Q1280.89 35.7938 1280.89 45.1919 Z" fill="#000000" fill-rule="evenodd" fill-opacity="1" /><path clip-path="url(#clip360)" d="M1325.62 49.3643 Q1325.62 41.2625 1322.25 36.8065 Q1318.93 32.3505 1312.9 32.3505 Q1306.9 32.3505 1303.54 36.8065 Q1300.22 41.2625 1300.22 49.3643 Q1300.22 57.4256 1303.54 61.8816 Q1306.9 66.3376 1312.9 66.3376 Q1318.93 66.3376 1322.25 61.8816 Q1325.62 57.4256 1325.62 49.3643 M1333.07 66.9452 Q1333.07 78.5308 1327.92 84.1616 Q1322.78 89.8329 1312.17 89.8329 Q1308.24 89.8329 1304.75 89.2252 Q1301.27 88.6581 1297.99 87.4428 L1297.99 80.1917 Q1301.27 81.9741 1304.47 82.8248 Q1307.67 83.6755 1310.99 83.6755 Q1318.32 83.6755 1321.97 79.8271 Q1325.62 76.0193 1325.62 68.282 L1325.62 64.5957 Q1323.31 68.6061 1319.7 70.5911 Q1316.1 72.576 1311.07 72.576 Q1302.73 72.576 1297.62 66.2161 Q1292.52 59.8562 1292.52 49.3643 Q1292.52 38.832 1297.62 32.472 Q1302.73 26.1121 1311.07 26.1121 Q1316.1 26.1121 1319.7 28.0971 Q1323.31 30.082 1325.62 34.0924 L1325.62 27.2059 L1333.07 27.2059 L1333.07 66.9452 Z" fill="#000000" fill-rule="evenodd" fill-opacity="1" /><path clip-path="url(#clip360)" d="M1420.41 16.7545 L1420.41 25.383 Q1416.27 21.5346 1411.58 19.6307 Q1406.92 17.7268 1401.65 17.7268 Q1391.28 17.7268 1385.77 24.0867 Q1380.26 30.4061 1380.26 42.3968 Q1380.26 54.3469 1385.77 60.7069 Q1391.28 67.0263 1401.65 67.0263 Q1406.92 67.0263 1411.58 65.1223 Q1416.27 63.2184 1420.41 59.3701 L1420.41 67.9175 Q1416.11 70.8341 1411.29 72.2924 Q1406.51 73.7508 1401.17 73.7508 Q1387.43 73.7508 1379.53 65.3654 Q1371.63 56.9395 1371.63 42.3968 Q1371.63 27.8135 1379.53 19.4281 Q1387.43 11.0023 1401.17 11.0023 Q1406.59 11.0023 1411.37 12.4606 Q1416.19 13.8784 1420.41 16.7545 Z" fill="#000000" fill-rule="evenodd" fill-opacity="1" /><path clip-path="url(#clip360)" d="M1431.95 54.671 L1431.95 27.2059 L1439.41 27.2059 L1439.41 54.3874 Q1439.41 60.8284 1441.92 64.0691 Q1444.43 67.2693 1449.45 67.2693 Q1455.49 67.2693 1458.97 63.421 Q1462.5 59.5726 1462.5 52.9291 L1462.5 27.2059 L1469.95 27.2059 L1469.95 72.576 L1462.5 72.576 L1462.5 65.6084 Q1459.78 69.7404 1456.18 71.7658 Q1452.61 73.7508 1447.87 73.7508 Q1440.05 73.7508 1436 68.8897 Q1431.95 64.0286 1431.95 54.671 M1450.71 26.1121 L1450.71 26.1121 Z" fill="#000000" fill-rule="evenodd" fill-opacity="1" /><path clip-path="url(#clip360)" d="M1511.59 34.1734 Q1510.34 33.4443 1508.84 33.1202 Q1507.38 32.7556 1505.6 32.7556 Q1499.28 32.7556 1495.88 36.8875 Q1492.51 40.9789 1492.51 48.6757 L1492.51 72.576 L1485.02 72.576 L1485.02 27.2059 L1492.51 27.2059 L1492.51 34.2544 Q1494.86 30.1225 1498.63 28.1376 Q1502.4 26.1121 1507.78 26.1121 Q1508.55 26.1121 1509.49 26.2337 Q1510.42 26.3147 1511.55 26.5172 L1511.59 34.1734 Z" fill="#000000" fill-rule="evenodd" fill-opacity="1" /><path clip-path="url(#clip360)" d="M1514.06 27.2059 L1521.96 27.2059 L1536.14 65.2844 L1550.32 27.2059 L1558.22 27.2059 L1541.2 72.576 L1531.08 72.576 L1514.06 27.2059 Z" fill="#000000" fill-rule="evenodd" fill-opacity="1" /><path clip-path="url(#clip360)" d="M1607.32 48.0275 L1607.32 51.6733 L1573.04 51.6733 Q1573.53 59.3701 1577.66 63.421 Q1581.84 67.4314 1589.25 67.4314 Q1593.54 67.4314 1597.55 66.3781 Q1601.6 65.3249 1605.57 63.2184 L1605.57 70.267 Q1601.56 71.9684 1597.35 72.8596 Q1593.14 73.7508 1588.8 73.7508 Q1577.95 73.7508 1571.59 67.4314 Q1565.27 61.1119 1565.27 50.3365 Q1565.27 39.1965 1571.26 32.6746 Q1577.3 26.1121 1587.51 26.1121 Q1596.66 26.1121 1601.97 32.0264 Q1607.32 37.9003 1607.32 48.0275 M1599.86 45.84 Q1599.78 39.7232 1596.42 36.0774 Q1593.1 32.4315 1587.59 32.4315 Q1581.35 32.4315 1577.58 35.9558 Q1573.86 39.4801 1573.29 45.8805 L1599.86 45.84 Z" fill="#000000" fill-rule="evenodd" fill-opacity="1" /><polyline clip-path="url(#clip362)" style="stroke:#0000ff; stroke-linecap:butt; stroke-linejoin:round; stroke-width:8; stroke-opacity:1; fill:none" points="
  302.846,210.894 306.835,695.559 310.823,1041.38 314.811,1261.4 318.8,1392.78 322.788,1482.19 326.777,1543.59 330.765,1587.11 334.753,1620.14 338.742,1646.54 
  342.73,1667.71 346.718,1684.75 350.707,1700.93 354.695,1714.1 358.684,1725.16 362.672,1735.48 366.66,1745 370.649,1754.1 374.637,1761.9 378.626,1769.63 
  382.614,1777.48 386.602,1784.64 390.591,1791.33 394.579,1797.43 398.567,1803.44 402.556,1809.3 406.544,1814.78 410.533,1820.2 414.521,1825.45 418.509,1830.62 
  422.498,1835.55 426.486,1840.21 430.475,1844.67 434.463,1848.85 438.451,1852.93 442.44,1856.8 446.428,1860.55 450.416,1864.19 454.405,1867.73 458.393,1871.13 
  462.382,1874.34 466.37,1877.49 470.358,1880.5 474.347,1883.41 478.335,1886.25 482.324,1889.06 486.312,1891.83 490.3,1894.56 494.289,1897.26 498.277,1899.92 
  502.265,1902.53 506.254,1905.06 510.242,1907.55 514.231,1909.98 518.219,1912.37 522.207,1914.69 526.196,1916.98 530.184,1919.21 534.173,1921.39 538.161,1923.51 
  542.149,1925.6 546.138,1927.64 550.126,1929.65 554.114,1931.62 558.103,1933.55 562.091,1935.44 566.08,1937.3 570.068,1939.12 574.056,1940.91 578.045,1942.66 
  582.033,1944.38 586.022,1946.07 590.01,1947.73 593.998,1949.36 597.987,1950.95 601.975,1952.52 605.963,1954.06 609.952,1955.57 613.94,1957.06 617.929,1958.52 
  621.917,1959.96 625.905,1961.38 629.894,1962.78 633.882,1964.16 637.871,1965.52 641.859,1966.86 645.847,1968.18 649.836,1969.47 653.824,1970.75 657.812,1972.01 
  661.801,1973.25 665.789,1974.48 669.778,1975.69 673.766,1976.88 677.754,1978.06 681.743,1979.23 685.731,1980.38 689.719,1981.53 693.708,1982.66 697.696,1983.78 
  701.685,1984.89 705.673,1985.99 709.661,1987.07 713.65,1988.14 717.638,1989.19 721.627,1990.23 725.615,1991.26 729.603,1992.27 733.592,1993.27 737.58,1994.26 
  741.568,1995.23 745.557,1996.2 749.545,1997.16 753.534,1998.1 757.522,1999.03 761.51,1999.96 765.499,2000.87 769.487,2001.77 773.476,2002.67 777.464,2003.56 
  781.452,2004.44 785.441,2005.3 789.429,2006.17 793.417,2007.02 797.406,2007.87 801.394,2008.71 805.383,2009.54 809.371,2010.37 813.359,2011.18 817.348,2012 
  821.336,2012.8 825.325,2013.6 829.313,2014.39 833.301,2015.18 837.29,2015.95 841.278,2016.72 845.266,2017.48 849.255,2018.23 853.243,2018.97 857.232,2019.72 
  861.22,2020.45 865.208,2021.17 869.197,2021.89 873.185,2022.6 877.174,2023.3 881.162,2023.99 885.15,2024.68 889.139,2025.37 893.127,2026.04 897.115,2026.72 
  901.104,2027.38 905.092,2028.04 909.081,2028.69 913.069,2029.33 917.057,2029.98 921.046,2030.61 925.034,2031.23 929.023,2031.85 933.011,2032.46 936.999,2033.06 
  940.988,2033.66 944.976,2034.25 948.964,2034.84 952.953,2035.43 956.941,2036 960.93,2036.57 964.918,2037.14 968.906,2037.71 972.895,2038.26 976.883,2038.81 
  980.872,2039.35 984.86,2039.89 988.848,2040.43 992.837,2040.96 996.825,2041.48 1000.81,2042 1004.8,2042.51 1008.79,2043.02 1012.78,2043.53 1016.77,2044.02 
  1020.76,2044.52 1024.74,2045.01 1028.73,2045.51 1032.72,2045.99 1036.71,2046.46 1040.7,2046.93 1044.69,2047.39 1048.67,2047.86 1052.66,2048.32 1056.65,2048.79 
  1060.64,2049.24 1064.63,2049.68 1068.62,2050.12 1072.6,2050.56 1076.59,2051.01 1080.58,2051.43 1084.57,2051.86 1088.56,2052.29 1092.55,2052.72 1096.53,2053.14 
  1100.52,2053.55 1104.51,2053.96 1108.5,2054.37 1112.49,2054.79 1116.48,2055.2 1120.46,2055.59 1124.45,2055.99 1128.44,2056.39 1132.43,2056.78 1136.42,2057.18 
  1140.41,2057.57 1144.4,2057.95 1148.38,2058.32 1152.37,2058.7 1156.36,2059.08 1160.35,2059.46 1164.34,2059.84 1168.33,2060.21 1172.31,2060.57 1176.3,2060.92 
  1180.29,2061.27 1184.28,2061.62 1188.27,2061.99 1192.26,2062.36 1196.24,2062.7 1200.23,2063.04 1204.22,2063.37 1208.21,2063.73 1212.2,2064.09 1216.19,2064.43 
  1220.17,2064.75 1224.16,2065.08 1228.15,2065.42 1232.14,2065.77 1236.13,2066.11 1240.12,2066.44 1244.1,2066.76 1248.09,2067.09 1252.08,2067.41 1256.07,2067.73 
  1260.06,2068.04 1264.05,2068.35 1268.04,2068.65 1272.02,2068.96 1276.01,2069.29 1280,2069.61 1283.99,2069.92 1287.98,2070.23 1291.97,2070.54 1295.95,2070.84 
  1299.94,2071.14 1303.93,2071.43 1307.92,2071.71 1311.91,2072.01 1315.9,2072.32 1319.88,2072.62 1323.87,2072.92 1327.86,2073.21 1331.85,2073.49 1335.84,2073.77 
  1339.83,2074.04 1343.81,2074.32 1347.8,2074.61 1351.79,2074.9 1355.78,2075.19 1359.77,2075.48 1363.76,2075.77 1367.74,2076.04 1371.73,2076.3 1375.72,2076.55 
  1379.71,2076.77 1383.7,2077.05 1387.69,2077.34 1391.68,2077.66 1395.66,2077.94 1399.65,2078.19 1403.64,2078.46 1407.63,2078.72 1411.62,2079 1415.61,2079.26 
  1419.59,2079.51 1423.58,2079.77 1427.57,2080.04 1431.56,2080.3 1435.55,2080.54 1439.54,2080.78 1443.52,2081.04 1447.51,2081.32 1451.5,2081.59 1455.49,2081.84 
  1459.48,2082.08 1463.47,2082.3 1467.45,2082.52 1471.44,2082.73 1475.43,2082.99 1479.42,2083.26 1483.41,2083.54 1487.4,2083.81 1491.38,2084.06 1495.37,2084.3 
  1499.36,2084.54 1503.35,2084.76 1507.34,2084.97 1511.33,2085.18 1515.31,2085.39 1519.3,2085.62 1523.29,2085.86 1527.28,2086.12 1531.27,2086.39 1535.26,2086.65 
  1539.25,2086.9 1543.23,2087.14 1547.22,2087.37 1551.21,2087.58 1555.2,2087.77 1559.19,2087.93 1563.18,2088.13 1567.16,2088.31 1571.15,2088.54 1575.14,2088.79 
  1579.13,2089.06 1583.12,2089.33 1587.11,2089.59 1591.09,2089.84 1595.08,2090.06 1599.07,2090.27 1603.06,2090.46 1607.05,2090.66 1611.04,2090.87 1615.02,2091.09 
  1619.01,2091.32 1623,2091.55 1626.99,2091.78 1630.98,2092 1634.97,2092.2 1638.95,2092.4 1642.94,2092.58 1646.93,2092.72 1650.92,2092.83 1654.91,2092.89 
  1658.9,2092.98 1662.89,2093.11 1666.87,2093.33 1670.86,2093.66 1674.85,2094.05 1678.84,2094.4 1682.83,2094.64 1686.82,2094.79 1690.8,2094.87 1694.79,2094.98 
  1698.78,2095.16 1702.77,2095.42 1706.76,2095.72 1710.75,2096.01 1714.73,2096.23 1718.72,2096.39 1722.71,2096.54 1726.7,2096.7 1730.69,2096.88 1734.68,2097.06 
  1738.66,2097.29 1742.65,2097.51 1746.64,2097.74 1750.63,2097.96 1754.62,2098.14 1758.61,2098.29 1762.59,2098.41 1766.58,2098.55 1770.57,2098.7 1774.56,2098.89 
  1778.55,2099.1 1782.54,2099.31 1786.53,2099.51 1790.51,2099.72 1794.5,2099.93 1798.49,2100.12 1802.48,2100.31 1806.47,2100.47 1810.46,2100.63 1814.44,2100.76 
  1818.43,2100.89 1822.42,2101.01 1826.41,2101.14 1830.4,2101.27 1834.39,2101.42 1838.37,2101.58 1842.36,2101.78 1846.35,2101.99 1850.34,2102.25 1854.33,2102.49 
  1858.32,2102.71 1862.3,2102.87 1866.29,2102.99 1870.28,2103.11 1874.27,2103.23 1878.26,2103.37 1882.25,2103.5 1886.23,2103.63 1890.22,2103.75 1894.21,2103.87 
  1898.2,2104.01 1902.19,2104.18 1906.18,2104.39 1910.16,2104.63 1914.15,2104.87 1918.14,2105.08 1922.13,2105.26 1926.12,2105.4 1930.11,2105.52 1934.1,2105.6 
  1938.08,2105.67 1942.07,2105.7 1946.06,2105.76 1950.05,2105.84 1954.04,2105.94 1958.03,2106.12 1962.01,2106.35 1966,2106.62 1969.99,2106.89 1973.98,2107.11 
  1977.97,2107.29 1981.96,2107.41 1985.94,2107.45 1989.93,2107.52 1993.92,2107.6 1997.91,2107.72 2001.9,2107.88 2005.89,2108.08 2009.87,2108.31 2013.86,2108.52 
  2017.85,2108.71 2021.84,2108.86 2025.83,2108.98 2029.82,2109.07 2033.8,2109.15 2037.79,2109.22 2041.78,2109.29 2045.77,2109.34 2049.76,2109.46 2053.75,2109.61 
  2057.74,2109.8 2061.72,2110 2065.71,2110.21 2069.7,2110.41 2073.69,2110.6 2077.68,2110.74 2081.67,2110.83 2085.65,2110.91 2089.64,2110.99 2093.63,2111.06 
  2097.62,2111.16 2101.61,2111.28 2105.6,2111.4 2109.58,2111.55 2113.57,2111.69 2117.56,2111.8 2121.55,2111.92 2125.54,2112.05 2129.53,2112.21 2133.51,2112.41 
  2137.5,2112.61 2141.49,2112.76 2145.48,2112.87 2149.47,2112.96 2153.46,2113.03 2157.44,2113.09 2161.43,2113.17 2165.42,2113.29 2169.41,2113.4 2173.4,2113.53 
  2177.39,2113.64 2181.38,2113.71 2185.36,2113.78 2189.35,2113.86 2193.34,2113.99 2197.33,2114.21 2201.32,2114.41 2205.31,2114.61 2209.29,2114.77 2213.28,2114.89 
  2217.27,2114.96 2221.26,2115.02 2225.25,2115.09 2229.24,2115.18 2233.22,2115.32 2237.21,2115.49 2241.2,2115.63 2245.19,2115.74 2249.18,2115.84 2253.17,2115.9 
  2257.15,2115.94 2261.14,2115.99 2265.13,2116.07 2269.12,2116.2 2273.11,2116.37 2277.1,2116.53 2281.08,2116.67 2285.07,2116.79 2289.06,2116.88 2293.05,2116.96 
  
  "/>
</svg>
