<?xml version="1.0" encoding="utf-8"?>
<svg xmlns="http://www.w3.org/2000/svg" xmlns:xlink="http://www.w3.org/1999/xlink" width="600" height="600" viewBox="0 0 2400 2400">
<defs>
  <clipPath id="clip060">
    <rect x="0" y="0" width="2400" height="2400"/>
  </clipPath>
</defs>
<path clip-path="url(#clip060)" d="
M0 2400 L2400 2400 L2400 0 L0 0  Z
  " fill="#ffffff" fill-rule="evenodd" fill-opacity="1"/>
<defs>
  <clipPath id="clip061">
    <rect x="480" y="240" width="1681" height="1681"/>
  </clipPath>
</defs>
<path clip-path="url(#clip060)" d="
M273.302 2174.14 L2352.76 2174.14 L2352.76 153.712 L273.302 153.712  Z
  " fill="#ffffff" fill-rule="evenodd" fill-opacity="1"/>
<defs>
  <clipPath id="clip062">
    <rect x="273" y="153" width="2080" height="2021"/>
  </clipPath>
</defs>
<polyline clip-path="url(#clip062)" style="stroke:#000000; stroke-linecap:butt; stroke-linejoin:round; stroke-width:2; stroke-opacity:0.1; fill:none" points="
  329.687,2174.14 329.687,153.712 
  "/>
<polyline clip-path="url(#clip062)" style="stroke:#000000; stroke-linecap:butt; stroke-linejoin:round; stroke-width:2; stroke-opacity:0.1; fill:none" points="
  825.963,2174.14 825.963,153.712 
  "/>
<polyline clip-path="url(#clip062)" style="stroke:#000000; stroke-linecap:butt; stroke-linejoin:round; stroke-width:2; stroke-opacity:0.1; fill:none" points="
  1322.24,2174.14 1322.24,153.712 
  "/>
<polyline clip-path="url(#clip062)" style="stroke:#000000; stroke-linecap:butt; stroke-linejoin:round; stroke-width:2; stroke-opacity:0.1; fill:none" points="
  1818.52,2174.14 1818.52,153.712 
  "/>
<polyline clip-path="url(#clip062)" style="stroke:#000000; stroke-linecap:butt; stroke-linejoin:round; stroke-width:2; stroke-opacity:0.1; fill:none" points="
  2314.79,2174.14 2314.79,153.712 
  "/>
<polyline clip-path="url(#clip060)" style="stroke:#000000; stroke-linecap:butt; stroke-linejoin:round; stroke-width:4; stroke-opacity:1; fill:none" points="
  273.302,2174.14 2352.76,2174.14 
  "/>
<polyline clip-path="url(#clip060)" style="stroke:#000000; stroke-linecap:butt; stroke-linejoin:round; stroke-width:4; stroke-opacity:1; fill:none" points="
  329.687,2174.14 329.687,2155.24 
  "/>
<polyline clip-path="url(#clip060)" style="stroke:#000000; stroke-linecap:butt; stroke-linejoin:round; stroke-width:4; stroke-opacity:1; fill:none" points="
  825.963,2174.14 825.963,2155.24 
  "/>
<polyline clip-path="url(#clip060)" style="stroke:#000000; stroke-linecap:butt; stroke-linejoin:round; stroke-width:4; stroke-opacity:1; fill:none" points="
  1322.24,2174.14 1322.24,2155.24 
  "/>
<polyline clip-path="url(#clip060)" style="stroke:#000000; stroke-linecap:butt; stroke-linejoin:round; stroke-width:4; stroke-opacity:1; fill:none" points="
  1818.52,2174.14 1818.52,2155.24 
  "/>
<polyline clip-path="url(#clip060)" style="stroke:#000000; stroke-linecap:butt; stroke-linejoin:round; stroke-width:4; stroke-opacity:1; fill:none" points="
  2314.79,2174.14 2314.79,2155.24 
  "/>
<path clip-path="url(#clip060)" d="M291.99 2205.06 Q288.379 2205.06 286.55 2208.62 Q284.745 2212.16 284.745 2219.29 Q284.745 2226.4 286.55 2229.97 Q288.379 2233.51 291.99 2233.51 Q295.624 2233.51 297.43 2229.97 Q299.258 2226.4 299.258 2219.29 Q299.258 2212.16 297.43 2208.62 Q295.624 2205.06 291.99 2205.06 M291.99 2201.35 Q297.8 2201.35 300.856 2205.96 Q303.934 2210.54 303.934 2219.29 Q303.934 2228.02 300.856 2232.63 Q297.8 2237.21 291.99 2237.21 Q286.18 2237.21 283.101 2232.63 Q280.046 2228.02 280.046 2219.29 Q280.046 2210.54 283.101 2205.96 Q286.18 2201.35 291.99 2201.35 Z" fill="#000000" fill-rule="evenodd" fill-opacity="1" /><path clip-path="url(#clip060)" d="M312.152 2230.66 L317.036 2230.66 L317.036 2236.54 L312.152 2236.54 L312.152 2230.66 Z" fill="#000000" fill-rule="evenodd" fill-opacity="1" /><path clip-path="url(#clip060)" d="M337.221 2205.06 Q333.61 2205.06 331.781 2208.62 Q329.976 2212.16 329.976 2219.29 Q329.976 2226.4 331.781 2229.97 Q333.61 2233.51 337.221 2233.51 Q340.855 2233.51 342.661 2229.97 Q344.49 2226.4 344.49 2219.29 Q344.49 2212.16 342.661 2208.62 Q340.855 2205.06 337.221 2205.06 M337.221 2201.35 Q343.031 2201.35 346.087 2205.96 Q349.166 2210.54 349.166 2219.29 Q349.166 2228.02 346.087 2232.63 Q343.031 2237.21 337.221 2237.21 Q331.411 2237.21 328.332 2232.63 Q325.277 2228.02 325.277 2219.29 Q325.277 2210.54 328.332 2205.96 Q331.411 2201.35 337.221 2201.35 Z" fill="#000000" fill-rule="evenodd" fill-opacity="1" /><path clip-path="url(#clip060)" d="M367.383 2205.06 Q363.772 2205.06 361.943 2208.62 Q360.138 2212.16 360.138 2219.29 Q360.138 2226.4 361.943 2229.97 Q363.772 2233.51 367.383 2233.51 Q371.017 2233.51 372.823 2229.97 Q374.652 2226.4 374.652 2219.29 Q374.652 2212.16 372.823 2208.62 Q371.017 2205.06 367.383 2205.06 M367.383 2201.35 Q373.193 2201.35 376.249 2205.96 Q379.327 2210.54 379.327 2219.29 Q379.327 2228.02 376.249 2232.63 Q373.193 2237.21 367.383 2237.21 Q361.573 2237.21 358.494 2232.63 Q355.439 2228.02 355.439 2219.29 Q355.439 2210.54 358.494 2205.96 Q361.573 2201.35 367.383 2201.35 Z" fill="#000000" fill-rule="evenodd" fill-opacity="1" /><path clip-path="url(#clip060)" d="M788.764 2205.06 Q785.153 2205.06 783.325 2208.62 Q781.519 2212.16 781.519 2219.29 Q781.519 2226.4 783.325 2229.97 Q785.153 2233.51 788.764 2233.51 Q792.399 2233.51 794.204 2229.97 Q796.033 2226.4 796.033 2219.29 Q796.033 2212.16 794.204 2208.62 Q792.399 2205.06 788.764 2205.06 M788.764 2201.35 Q794.575 2201.35 797.63 2205.96 Q800.709 2210.54 800.709 2219.29 Q800.709 2228.02 797.63 2232.63 Q794.575 2237.21 788.764 2237.21 Q782.954 2237.21 779.876 2232.63 Q776.82 2228.02 776.82 2219.29 Q776.82 2210.54 779.876 2205.96 Q782.954 2201.35 788.764 2201.35 Z" fill="#000000" fill-rule="evenodd" fill-opacity="1" /><path clip-path="url(#clip060)" d="M808.926 2230.66 L813.811 2230.66 L813.811 2236.54 L808.926 2236.54 L808.926 2230.66 Z" fill="#000000" fill-rule="evenodd" fill-opacity="1" /><path clip-path="url(#clip060)" d="M828.024 2232.6 L844.343 2232.6 L844.343 2236.54 L822.399 2236.54 L822.399 2232.6 Q825.061 2229.85 829.644 2225.22 Q834.25 2220.57 835.431 2219.23 Q837.676 2216.7 838.556 2214.97 Q839.459 2213.21 839.459 2211.52 Q839.459 2208.76 837.514 2207.03 Q835.593 2205.29 832.491 2205.29 Q830.292 2205.29 827.838 2206.05 Q825.408 2206.82 822.63 2208.37 L822.63 2203.65 Q825.454 2202.51 827.908 2201.93 Q830.361 2201.35 832.399 2201.35 Q837.769 2201.35 840.963 2204.04 Q844.158 2206.73 844.158 2211.22 Q844.158 2213.35 843.348 2215.27 Q842.56 2217.16 840.454 2219.76 Q839.875 2220.43 836.773 2223.65 Q833.672 2226.84 828.024 2232.6 Z" fill="#000000" fill-rule="evenodd" fill-opacity="1" /><path clip-path="url(#clip060)" d="M854.204 2201.98 L872.56 2201.98 L872.56 2205.92 L858.486 2205.92 L858.486 2214.39 Q859.505 2214.04 860.523 2213.88 Q861.542 2213.69 862.56 2213.69 Q868.347 2213.69 871.727 2216.86 Q875.107 2220.04 875.107 2225.45 Q875.107 2231.03 871.634 2234.13 Q868.162 2237.21 861.843 2237.21 Q859.667 2237.21 857.398 2236.84 Q855.153 2236.47 852.746 2235.73 L852.746 2231.03 Q854.829 2232.16 857.051 2232.72 Q859.273 2233.28 861.75 2233.28 Q865.755 2233.28 868.093 2231.17 Q870.431 2229.06 870.431 2225.45 Q870.431 2221.84 868.093 2219.73 Q865.755 2217.63 861.75 2217.63 Q859.875 2217.63 858 2218.04 Q856.148 2218.46 854.204 2219.34 L854.204 2201.98 Z" fill="#000000" fill-rule="evenodd" fill-opacity="1" /><path clip-path="url(#clip060)" d="M1284.54 2205.06 Q1280.93 2205.06 1279.1 2208.62 Q1277.3 2212.16 1277.3 2219.29 Q1277.3 2226.4 1279.1 2229.97 Q1280.93 2233.51 1284.54 2233.51 Q1288.18 2233.51 1289.98 2229.97 Q1291.81 2226.4 1291.81 2219.29 Q1291.81 2212.16 1289.98 2208.62 Q1288.18 2205.06 1284.54 2205.06 M1284.54 2201.35 Q1290.35 2201.35 1293.41 2205.96 Q1296.49 2210.54 1296.49 2219.29 Q1296.49 2228.02 1293.41 2232.63 Q1290.35 2237.21 1284.54 2237.21 Q1278.73 2237.21 1275.65 2232.63 Q1272.6 2228.02 1272.6 2219.29 Q1272.6 2210.54 1275.65 2205.96 Q1278.73 2201.35 1284.54 2201.35 Z" fill="#000000" fill-rule="evenodd" fill-opacity="1" /><path clip-path="url(#clip060)" d="M1304.71 2230.66 L1309.59 2230.66 L1309.59 2236.54 L1304.71 2236.54 L1304.71 2230.66 Z" fill="#000000" fill-rule="evenodd" fill-opacity="1" /><path clip-path="url(#clip060)" d="M1319.82 2201.98 L1338.18 2201.98 L1338.18 2205.92 L1324.1 2205.92 L1324.1 2214.39 Q1325.12 2214.04 1326.14 2213.88 Q1327.16 2213.69 1328.18 2213.69 Q1333.96 2213.69 1337.34 2216.86 Q1340.72 2220.04 1340.72 2225.45 Q1340.72 2231.03 1337.25 2234.13 Q1333.78 2237.21 1327.46 2237.21 Q1325.28 2237.21 1323.02 2236.84 Q1320.77 2236.47 1318.36 2235.73 L1318.36 2231.03 Q1320.45 2232.16 1322.67 2232.72 Q1324.89 2233.28 1327.37 2233.28 Q1331.37 2233.28 1333.71 2231.17 Q1336.05 2229.06 1336.05 2225.45 Q1336.05 2221.84 1333.71 2219.73 Q1331.37 2217.63 1327.37 2217.63 Q1325.49 2217.63 1323.62 2218.04 Q1321.77 2218.46 1319.82 2219.34 L1319.82 2201.98 Z" fill="#000000" fill-rule="evenodd" fill-opacity="1" /><path clip-path="url(#clip060)" d="M1359.94 2205.06 Q1356.33 2205.06 1354.5 2208.62 Q1352.69 2212.16 1352.69 2219.29 Q1352.69 2226.4 1354.5 2229.97 Q1356.33 2233.51 1359.94 2233.51 Q1363.57 2233.51 1365.38 2229.97 Q1367.21 2226.4 1367.21 2219.29 Q1367.21 2212.16 1365.38 2208.62 Q1363.57 2205.06 1359.94 2205.06 M1359.94 2201.35 Q1365.75 2201.35 1368.8 2205.96 Q1371.88 2210.54 1371.88 2219.29 Q1371.88 2228.02 1368.8 2232.63 Q1365.75 2237.21 1359.94 2237.21 Q1354.13 2237.21 1351.05 2232.63 Q1347.99 2228.02 1347.99 2219.29 Q1347.99 2210.54 1351.05 2205.96 Q1354.13 2201.35 1359.94 2201.35 Z" fill="#000000" fill-rule="evenodd" fill-opacity="1" /><path clip-path="url(#clip060)" d="M1781.32 2205.06 Q1777.71 2205.06 1775.88 2208.62 Q1774.07 2212.16 1774.07 2219.29 Q1774.07 2226.4 1775.88 2229.97 Q1777.71 2233.51 1781.32 2233.51 Q1784.95 2233.51 1786.76 2229.97 Q1788.59 2226.4 1788.59 2219.29 Q1788.59 2212.16 1786.76 2208.62 Q1784.95 2205.06 1781.32 2205.06 M1781.32 2201.35 Q1787.13 2201.35 1790.18 2205.96 Q1793.26 2210.54 1793.26 2219.29 Q1793.26 2228.02 1790.18 2232.63 Q1787.13 2237.21 1781.32 2237.21 Q1775.51 2237.21 1772.43 2232.63 Q1769.37 2228.02 1769.37 2219.29 Q1769.37 2210.54 1772.43 2205.96 Q1775.51 2201.35 1781.32 2201.35 Z" fill="#000000" fill-rule="evenodd" fill-opacity="1" /><path clip-path="url(#clip060)" d="M1801.48 2230.66 L1806.36 2230.66 L1806.36 2236.54 L1801.48 2236.54 L1801.48 2230.66 Z" fill="#000000" fill-rule="evenodd" fill-opacity="1" /><path clip-path="url(#clip060)" d="M1815.37 2201.98 L1837.59 2201.98 L1837.59 2203.97 L1825.04 2236.54 L1820.16 2236.54 L1831.97 2205.92 L1815.37 2205.92 L1815.37 2201.98 Z" fill="#000000" fill-rule="evenodd" fill-opacity="1" /><path clip-path="url(#clip060)" d="M1846.76 2201.98 L1865.11 2201.98 L1865.11 2205.92 L1851.04 2205.92 L1851.04 2214.39 Q1852.06 2214.04 1853.08 2213.88 Q1854.1 2213.69 1855.11 2213.69 Q1860.9 2213.69 1864.28 2216.86 Q1867.66 2220.04 1867.66 2225.45 Q1867.66 2231.03 1864.19 2234.13 Q1860.72 2237.21 1854.4 2237.21 Q1852.22 2237.21 1849.95 2236.84 Q1847.71 2236.47 1845.3 2235.73 L1845.3 2231.03 Q1847.38 2232.16 1849.6 2232.72 Q1851.83 2233.28 1854.3 2233.28 Q1858.31 2233.28 1860.65 2231.17 Q1862.98 2229.06 1862.98 2225.45 Q1862.98 2221.84 1860.65 2219.73 Q1858.31 2217.63 1854.3 2217.63 Q1852.43 2217.63 1850.55 2218.04 Q1848.7 2218.46 1846.76 2219.34 L1846.76 2201.98 Z" fill="#000000" fill-rule="evenodd" fill-opacity="1" /><path clip-path="url(#clip060)" d="M2266.87 2232.6 L2274.5 2232.6 L2274.5 2206.24 L2266.19 2207.91 L2266.19 2203.65 L2274.46 2201.98 L2279.13 2201.98 L2279.13 2232.6 L2286.77 2232.6 L2286.77 2236.54 L2266.87 2236.54 L2266.87 2232.6 Z" fill="#000000" fill-rule="evenodd" fill-opacity="1" /><path clip-path="url(#clip060)" d="M2296.22 2230.66 L2301.1 2230.66 L2301.1 2236.54 L2296.22 2236.54 L2296.22 2230.66 Z" fill="#000000" fill-rule="evenodd" fill-opacity="1" /><path clip-path="url(#clip060)" d="M2321.29 2205.06 Q2317.68 2205.06 2315.85 2208.62 Q2314.04 2212.16 2314.04 2219.29 Q2314.04 2226.4 2315.85 2229.97 Q2317.68 2233.51 2321.29 2233.51 Q2324.92 2233.51 2326.73 2229.97 Q2328.56 2226.4 2328.56 2219.29 Q2328.56 2212.16 2326.73 2208.62 Q2324.92 2205.06 2321.29 2205.06 M2321.29 2201.35 Q2327.1 2201.35 2330.15 2205.96 Q2333.23 2210.54 2333.23 2219.29 Q2333.23 2228.02 2330.15 2232.63 Q2327.1 2237.21 2321.29 2237.21 Q2315.48 2237.21 2312.4 2232.63 Q2309.34 2228.02 2309.34 2219.29 Q2309.34 2210.54 2312.4 2205.96 Q2315.48 2201.35 2321.29 2201.35 Z" fill="#000000" fill-rule="evenodd" fill-opacity="1" /><path clip-path="url(#clip060)" d="M2351.45 2205.06 Q2347.84 2205.06 2346.01 2208.62 Q2344.2 2212.16 2344.2 2219.29 Q2344.2 2226.4 2346.01 2229.97 Q2347.84 2233.51 2351.45 2233.51 Q2355.08 2233.51 2356.89 2229.97 Q2358.72 2226.4 2358.72 2219.29 Q2358.72 2212.16 2356.89 2208.62 Q2355.08 2205.06 2351.45 2205.06 M2351.45 2201.35 Q2357.26 2201.35 2360.31 2205.96 Q2363.39 2210.54 2363.39 2219.29 Q2363.39 2228.02 2360.31 2232.63 Q2357.26 2237.21 2351.45 2237.21 Q2345.64 2237.21 2342.56 2232.63 Q2339.5 2228.02 2339.5 2219.29 Q2339.5 2210.54 2342.56 2205.96 Q2345.64 2201.35 2351.45 2201.35 Z" fill="#000000" fill-rule="evenodd" fill-opacity="1" /><path clip-path="url(#clip060)" d="M1164.98 2271.48 L1192.29 2271.48 L1192.29 2276.89 L1171.41 2276.89 L1171.41 2290.9 L1190.25 2290.9 L1190.25 2296.31 L1171.41 2296.31 L1171.41 2319 L1164.98 2319 L1164.98 2271.48 Z" fill="#000000" fill-rule="evenodd" fill-opacity="1" /><path clip-path="url(#clip060)" d="M1229.14 2299.72 L1229.14 2302.58 L1202.22 2302.58 Q1202.6 2308.63 1205.85 2311.81 Q1209.12 2314.96 1214.95 2314.96 Q1218.32 2314.96 1221.47 2314.13 Q1224.66 2313.31 1227.78 2311.65 L1227.78 2317.19 Q1224.63 2318.53 1221.32 2319.23 Q1218 2319.93 1214.6 2319.93 Q1206.07 2319.93 1201.07 2314.96 Q1196.11 2310 1196.11 2301.53 Q1196.11 2292.78 1200.82 2287.65 Q1205.56 2282.5 1213.58 2282.5 Q1220.77 2282.5 1224.94 2287.14 Q1229.14 2291.76 1229.14 2299.72 M1223.29 2298 Q1223.22 2293.19 1220.58 2290.33 Q1217.97 2287.46 1213.64 2287.46 Q1208.74 2287.46 1205.78 2290.23 Q1202.85 2293 1202.41 2298.03 L1223.29 2298 Z" fill="#000000" fill-rule="evenodd" fill-opacity="1" /><path clip-path="url(#clip060)" d="M1254.96 2301.08 Q1247.86 2301.08 1245.12 2302.71 Q1242.39 2304.33 1242.39 2308.25 Q1242.39 2311.36 1244.42 2313.21 Q1246.49 2315.03 1250.02 2315.03 Q1254.89 2315.03 1257.82 2311.59 Q1260.78 2308.12 1260.78 2302.39 L1260.78 2301.08 L1254.96 2301.08 M1266.64 2298.67 L1266.64 2319 L1260.78 2319 L1260.78 2313.59 Q1258.78 2316.84 1255.79 2318.4 Q1252.79 2319.93 1248.46 2319.93 Q1242.99 2319.93 1239.74 2316.87 Q1236.53 2313.78 1236.53 2308.63 Q1236.53 2302.61 1240.54 2299.56 Q1244.58 2296.5 1252.57 2296.5 L1260.78 2296.5 L1260.78 2295.93 Q1260.78 2291.89 1258.11 2289.69 Q1255.47 2287.46 1250.66 2287.46 Q1247.61 2287.46 1244.71 2288.19 Q1241.81 2288.93 1239.14 2290.39 L1239.14 2284.98 Q1242.35 2283.74 1245.38 2283.13 Q1248.4 2282.5 1251.27 2282.5 Q1259 2282.5 1262.82 2286.51 Q1266.64 2290.52 1266.64 2298.67 Z" fill="#000000" fill-rule="evenodd" fill-opacity="1" /><path clip-path="url(#clip060)" d="M1284.49 2273.23 L1284.49 2283.36 L1296.56 2283.36 L1296.56 2287.91 L1284.49 2287.91 L1284.49 2307.26 Q1284.49 2311.62 1285.67 2312.86 Q1286.88 2314.1 1290.54 2314.1 L1296.56 2314.1 L1296.56 2319 L1290.54 2319 Q1283.76 2319 1281.18 2316.49 Q1278.61 2313.94 1278.61 2307.26 L1278.61 2287.91 L1274.31 2287.91 L1274.31 2283.36 L1278.61 2283.36 L1278.61 2273.23 L1284.49 2273.23 Z" fill="#000000" fill-rule="evenodd" fill-opacity="1" /><path clip-path="url(#clip060)" d="M1303.66 2304.94 L1303.66 2283.36 L1309.51 2283.36 L1309.51 2304.71 Q1309.51 2309.77 1311.49 2312.32 Q1313.46 2314.83 1317.41 2314.83 Q1322.15 2314.83 1324.89 2311.81 Q1327.65 2308.79 1327.65 2303.57 L1327.65 2283.36 L1333.51 2283.36 L1333.51 2319 L1327.65 2319 L1327.65 2313.53 Q1325.52 2316.78 1322.69 2318.37 Q1319.89 2319.93 1316.16 2319.93 Q1310.02 2319.93 1306.84 2316.11 Q1303.66 2312.29 1303.66 2304.94 M1318.39 2282.5 L1318.39 2282.5 Z" fill="#000000" fill-rule="evenodd" fill-opacity="1" /><path clip-path="url(#clip060)" d="M1366.23 2288.83 Q1365.24 2288.26 1364.07 2288 Q1362.92 2287.72 1361.52 2287.72 Q1356.55 2287.72 1353.88 2290.96 Q1351.24 2294.18 1351.24 2300.23 L1351.24 2319 L1345.35 2319 L1345.35 2283.36 L1351.24 2283.36 L1351.24 2288.89 Q1353.09 2285.65 1356.05 2284.09 Q1359.01 2282.5 1363.24 2282.5 Q1363.84 2282.5 1364.58 2282.59 Q1365.31 2282.66 1366.2 2282.81 L1366.23 2288.83 Z" fill="#000000" fill-rule="evenodd" fill-opacity="1" /><path clip-path="url(#clip060)" d="M1401.43 2299.72 L1401.43 2302.58 L1374.51 2302.58 Q1374.89 2308.63 1378.13 2311.81 Q1381.41 2314.96 1387.24 2314.96 Q1390.61 2314.96 1393.76 2314.13 Q1396.94 2313.31 1400.06 2311.65 L1400.06 2317.19 Q1396.91 2318.53 1393.6 2319.23 Q1390.29 2319.93 1386.89 2319.93 Q1378.36 2319.93 1373.36 2314.96 Q1368.39 2310 1368.39 2301.53 Q1368.39 2292.78 1373.11 2287.65 Q1377.85 2282.5 1385.87 2282.5 Q1393.06 2282.5 1397.23 2287.14 Q1401.43 2291.76 1401.43 2299.72 M1395.58 2298 Q1395.51 2293.19 1392.87 2290.33 Q1390.26 2287.46 1385.93 2287.46 Q1381.03 2287.46 1378.07 2290.23 Q1375.14 2293 1374.7 2298.03 L1395.58 2298 Z" fill="#000000" fill-rule="evenodd" fill-opacity="1" /><path clip-path="url(#clip060)" d="M1433.71 2313.59 L1444.21 2313.59 L1444.21 2277.34 L1432.78 2279.63 L1432.78 2273.78 L1444.15 2271.48 L1450.58 2271.48 L1450.58 2313.59 L1461.08 2313.59 L1461.08 2319 L1433.71 2319 L1433.71 2313.59 Z" fill="#000000" fill-rule="evenodd" fill-opacity="1" /><polyline clip-path="url(#clip062)" style="stroke:#000000; stroke-linecap:butt; stroke-linejoin:round; stroke-width:2; stroke-opacity:0.1; fill:none" points="
  273.302,2134.34 2352.76,2134.34 
  "/>
<polyline clip-path="url(#clip062)" style="stroke:#000000; stroke-linecap:butt; stroke-linejoin:round; stroke-width:2; stroke-opacity:0.1; fill:none" points="
  273.302,1649.15 2352.76,1649.15 
  "/>
<polyline clip-path="url(#clip062)" style="stroke:#000000; stroke-linecap:butt; stroke-linejoin:round; stroke-width:2; stroke-opacity:0.1; fill:none" points="
  273.302,1163.95 2352.76,1163.95 
  "/>
<polyline clip-path="url(#clip062)" style="stroke:#000000; stroke-linecap:butt; stroke-linejoin:round; stroke-width:2; stroke-opacity:0.1; fill:none" points="
  273.302,678.759 2352.76,678.759 
  "/>
<polyline clip-path="url(#clip062)" style="stroke:#000000; stroke-linecap:butt; stroke-linejoin:round; stroke-width:2; stroke-opacity:0.1; fill:none" points="
  273.302,193.565 2352.76,193.565 
  "/>
<polyline clip-path="url(#clip060)" style="stroke:#000000; stroke-linecap:butt; stroke-linejoin:round; stroke-width:4; stroke-opacity:1; fill:none" points="
  273.302,2174.14 273.302,153.712 
  "/>
<polyline clip-path="url(#clip060)" style="stroke:#000000; stroke-linecap:butt; stroke-linejoin:round; stroke-width:4; stroke-opacity:1; fill:none" points="
  273.302,2134.34 292.2,2134.34 
  "/>
<polyline clip-path="url(#clip060)" style="stroke:#000000; stroke-linecap:butt; stroke-linejoin:round; stroke-width:4; stroke-opacity:1; fill:none" points="
  273.302,1649.15 292.2,1649.15 
  "/>
<polyline clip-path="url(#clip060)" style="stroke:#000000; stroke-linecap:butt; stroke-linejoin:round; stroke-width:4; stroke-opacity:1; fill:none" points="
  273.302,1163.95 292.2,1163.95 
  "/>
<polyline clip-path="url(#clip060)" style="stroke:#000000; stroke-linecap:butt; stroke-linejoin:round; stroke-width:4; stroke-opacity:1; fill:none" points="
  273.302,678.759 292.2,678.759 
  "/>
<polyline clip-path="url(#clip060)" style="stroke:#000000; stroke-linecap:butt; stroke-linejoin:round; stroke-width:4; stroke-opacity:1; fill:none" points="
  273.302,193.565 292.2,193.565 
  "/>
<path clip-path="url(#clip060)" d="M149.965 2120.14 Q146.353 2120.14 144.525 2123.71 Q142.719 2127.25 142.719 2134.38 Q142.719 2141.48 144.525 2145.05 Q146.353 2148.59 149.965 2148.59 Q153.599 2148.59 155.404 2145.05 Q157.233 2141.48 157.233 2134.38 Q157.233 2127.25 155.404 2123.71 Q153.599 2120.14 149.965 2120.14 M149.965 2116.44 Q155.775 2116.44 158.83 2121.04 Q161.909 2125.63 161.909 2134.38 Q161.909 2143.11 158.83 2147.71 Q155.775 2152.29 149.965 2152.29 Q144.154 2152.29 141.076 2147.71 Q138.02 2143.11 138.02 2134.38 Q138.02 2125.63 141.076 2121.04 Q144.154 2116.44 149.965 2116.44 Z" fill="#000000" fill-rule="evenodd" fill-opacity="1" /><path clip-path="url(#clip060)" d="M170.126 2145.74 L175.011 2145.74 L175.011 2151.62 L170.126 2151.62 L170.126 2145.74 Z" fill="#000000" fill-rule="evenodd" fill-opacity="1" /><path clip-path="url(#clip060)" d="M195.196 2120.14 Q191.585 2120.14 189.756 2123.71 Q187.95 2127.25 187.95 2134.38 Q187.95 2141.48 189.756 2145.05 Q191.585 2148.59 195.196 2148.59 Q198.83 2148.59 200.636 2145.05 Q202.464 2141.48 202.464 2134.38 Q202.464 2127.25 200.636 2123.71 Q198.83 2120.14 195.196 2120.14 M195.196 2116.44 Q201.006 2116.44 204.061 2121.04 Q207.14 2125.63 207.14 2134.38 Q207.14 2143.11 204.061 2147.71 Q201.006 2152.29 195.196 2152.29 Q189.386 2152.29 186.307 2147.71 Q183.251 2143.11 183.251 2134.38 Q183.251 2125.63 186.307 2121.04 Q189.386 2116.44 195.196 2116.44 Z" fill="#000000" fill-rule="evenodd" fill-opacity="1" /><path clip-path="url(#clip060)" d="M225.358 2120.14 Q221.747 2120.14 219.918 2123.71 Q218.112 2127.25 218.112 2134.38 Q218.112 2141.48 219.918 2145.05 Q221.747 2148.59 225.358 2148.59 Q228.992 2148.59 230.797 2145.05 Q232.626 2141.48 232.626 2134.38 Q232.626 2127.25 230.797 2123.71 Q228.992 2120.14 225.358 2120.14 M225.358 2116.44 Q231.168 2116.44 234.223 2121.04 Q237.302 2125.63 237.302 2134.38 Q237.302 2143.11 234.223 2147.71 Q231.168 2152.29 225.358 2152.29 Q219.547 2152.29 216.469 2147.71 Q213.413 2143.11 213.413 2134.38 Q213.413 2125.63 216.469 2121.04 Q219.547 2116.44 225.358 2116.44 Z" fill="#000000" fill-rule="evenodd" fill-opacity="1" /><path clip-path="url(#clip060)" d="M150.96 1634.95 Q147.349 1634.95 145.52 1638.51 Q143.715 1642.05 143.715 1649.18 Q143.715 1656.29 145.52 1659.85 Q147.349 1663.4 150.96 1663.4 Q154.594 1663.4 156.4 1659.85 Q158.228 1656.29 158.228 1649.18 Q158.228 1642.05 156.4 1638.51 Q154.594 1634.95 150.96 1634.95 M150.96 1631.24 Q156.77 1631.24 159.826 1635.85 Q162.904 1640.43 162.904 1649.18 Q162.904 1657.91 159.826 1662.52 Q156.77 1667.1 150.96 1667.1 Q145.15 1667.1 142.071 1662.52 Q139.016 1657.91 139.016 1649.18 Q139.016 1640.43 142.071 1635.85 Q145.15 1631.24 150.96 1631.24 Z" fill="#000000" fill-rule="evenodd" fill-opacity="1" /><path clip-path="url(#clip060)" d="M171.122 1660.55 L176.006 1660.55 L176.006 1666.43 L171.122 1666.43 L171.122 1660.55 Z" fill="#000000" fill-rule="evenodd" fill-opacity="1" /><path clip-path="url(#clip060)" d="M190.219 1662.49 L206.538 1662.49 L206.538 1666.43 L184.594 1666.43 L184.594 1662.49 Q187.256 1659.74 191.839 1655.11 Q196.446 1650.46 197.626 1649.11 Q199.872 1646.59 200.751 1644.85 Q201.654 1643.1 201.654 1641.41 Q201.654 1638.65 199.71 1636.92 Q197.788 1635.18 194.687 1635.18 Q192.487 1635.18 190.034 1635.94 Q187.603 1636.71 184.825 1638.26 L184.825 1633.54 Q187.65 1632.4 190.103 1631.82 Q192.557 1631.24 194.594 1631.24 Q199.964 1631.24 203.159 1633.93 Q206.353 1636.61 206.353 1641.1 Q206.353 1643.23 205.543 1645.16 Q204.756 1647.05 202.649 1649.65 Q202.071 1650.32 198.969 1653.54 Q195.867 1656.73 190.219 1662.49 Z" fill="#000000" fill-rule="evenodd" fill-opacity="1" /><path clip-path="url(#clip060)" d="M216.399 1631.87 L234.756 1631.87 L234.756 1635.8 L220.682 1635.8 L220.682 1644.28 Q221.7 1643.93 222.719 1643.77 Q223.737 1643.58 224.756 1643.58 Q230.543 1643.58 233.922 1646.75 Q237.302 1649.92 237.302 1655.34 Q237.302 1660.92 233.83 1664.02 Q230.358 1667.1 224.038 1667.1 Q221.862 1667.1 219.594 1666.73 Q217.348 1666.36 214.941 1665.62 L214.941 1660.92 Q217.024 1662.05 219.247 1662.61 Q221.469 1663.16 223.946 1663.16 Q227.95 1663.16 230.288 1661.06 Q232.626 1658.95 232.626 1655.34 Q232.626 1651.73 230.288 1649.62 Q227.95 1647.52 223.946 1647.52 Q222.071 1647.52 220.196 1647.93 Q218.344 1648.35 216.399 1649.23 L216.399 1631.87 Z" fill="#000000" fill-rule="evenodd" fill-opacity="1" /><path clip-path="url(#clip060)" d="M149.965 1149.75 Q146.353 1149.75 144.525 1153.32 Q142.719 1156.86 142.719 1163.99 Q142.719 1171.1 144.525 1174.66 Q146.353 1178.2 149.965 1178.2 Q153.599 1178.2 155.404 1174.66 Q157.233 1171.1 157.233 1163.99 Q157.233 1156.86 155.404 1153.32 Q153.599 1149.75 149.965 1149.75 M149.965 1146.05 Q155.775 1146.05 158.83 1150.66 Q161.909 1155.24 161.909 1163.99 Q161.909 1172.72 158.83 1177.32 Q155.775 1181.91 149.965 1181.91 Q144.154 1181.91 141.076 1177.32 Q138.02 1172.72 138.02 1163.99 Q138.02 1155.24 141.076 1150.66 Q144.154 1146.05 149.965 1146.05 Z" fill="#000000" fill-rule="evenodd" fill-opacity="1" /><path clip-path="url(#clip060)" d="M170.126 1175.35 L175.011 1175.35 L175.011 1181.23 L170.126 1181.23 L170.126 1175.35 Z" fill="#000000" fill-rule="evenodd" fill-opacity="1" /><path clip-path="url(#clip060)" d="M185.242 1146.67 L203.599 1146.67 L203.599 1150.61 L189.525 1150.61 L189.525 1159.08 Q190.543 1158.73 191.562 1158.57 Q192.58 1158.39 193.599 1158.39 Q199.386 1158.39 202.765 1161.56 Q206.145 1164.73 206.145 1170.15 Q206.145 1175.72 202.673 1178.83 Q199.2 1181.91 192.881 1181.91 Q190.705 1181.91 188.437 1181.54 Q186.191 1181.16 183.784 1180.42 L183.784 1175.72 Q185.867 1176.86 188.089 1177.41 Q190.312 1177.97 192.788 1177.97 Q196.793 1177.97 199.131 1175.86 Q201.469 1173.76 201.469 1170.15 Q201.469 1166.54 199.131 1164.43 Q196.793 1162.32 192.788 1162.32 Q190.913 1162.32 189.038 1162.74 Q187.187 1163.16 185.242 1164.04 L185.242 1146.67 Z" fill="#000000" fill-rule="evenodd" fill-opacity="1" /><path clip-path="url(#clip060)" d="M225.358 1149.75 Q221.747 1149.75 219.918 1153.32 Q218.112 1156.86 218.112 1163.99 Q218.112 1171.1 219.918 1174.66 Q221.747 1178.2 225.358 1178.2 Q228.992 1178.2 230.797 1174.66 Q232.626 1171.1 232.626 1163.99 Q232.626 1156.86 230.797 1153.32 Q228.992 1149.75 225.358 1149.75 M225.358 1146.05 Q231.168 1146.05 234.223 1150.66 Q237.302 1155.24 237.302 1163.99 Q237.302 1172.72 234.223 1177.32 Q231.168 1181.91 225.358 1181.91 Q219.547 1181.91 216.469 1177.32 Q213.413 1172.72 213.413 1163.99 Q213.413 1155.24 216.469 1150.66 Q219.547 1146.05 225.358 1146.05 Z" fill="#000000" fill-rule="evenodd" fill-opacity="1" /><path clip-path="url(#clip060)" d="M150.96 664.558 Q147.349 664.558 145.52 668.123 Q143.715 671.665 143.715 678.794 Q143.715 685.901 145.52 689.465 Q147.349 693.007 150.96 693.007 Q154.594 693.007 156.4 689.465 Q158.228 685.901 158.228 678.794 Q158.228 671.665 156.4 668.123 Q154.594 664.558 150.96 664.558 M150.96 660.854 Q156.77 660.854 159.826 665.461 Q162.904 670.044 162.904 678.794 Q162.904 687.521 159.826 692.127 Q156.77 696.711 150.96 696.711 Q145.15 696.711 142.071 692.127 Q139.016 687.521 139.016 678.794 Q139.016 670.044 142.071 665.461 Q145.15 660.854 150.96 660.854 Z" fill="#000000" fill-rule="evenodd" fill-opacity="1" /><path clip-path="url(#clip060)" d="M171.122 690.16 L176.006 690.16 L176.006 696.039 L171.122 696.039 L171.122 690.16 Z" fill="#000000" fill-rule="evenodd" fill-opacity="1" /><path clip-path="url(#clip060)" d="M185.011 661.479 L207.233 661.479 L207.233 663.47 L194.687 696.039 L189.802 696.039 L201.608 665.415 L185.011 665.415 L185.011 661.479 Z" fill="#000000" fill-rule="evenodd" fill-opacity="1" /><path clip-path="url(#clip060)" d="M216.399 661.479 L234.756 661.479 L234.756 665.415 L220.682 665.415 L220.682 673.887 Q221.7 673.54 222.719 673.378 Q223.737 673.192 224.756 673.192 Q230.543 673.192 233.922 676.364 Q237.302 679.535 237.302 684.952 Q237.302 690.53 233.83 693.632 Q230.358 696.711 224.038 696.711 Q221.862 696.711 219.594 696.34 Q217.348 695.97 214.941 695.229 L214.941 690.53 Q217.024 691.664 219.247 692.22 Q221.469 692.776 223.946 692.776 Q227.95 692.776 230.288 690.669 Q232.626 688.563 232.626 684.952 Q232.626 681.34 230.288 679.234 Q227.95 677.128 223.946 677.128 Q222.071 677.128 220.196 677.544 Q218.344 677.961 216.399 678.84 L216.399 661.479 Z" fill="#000000" fill-rule="evenodd" fill-opacity="1" /><path clip-path="url(#clip060)" d="M140.775 206.91 L148.414 206.91 L148.414 180.544 L140.103 182.211 L140.103 177.951 L148.367 176.285 L153.043 176.285 L153.043 206.91 L160.682 206.91 L160.682 210.845 L140.775 210.845 L140.775 206.91 Z" fill="#000000" fill-rule="evenodd" fill-opacity="1" /><path clip-path="url(#clip060)" d="M170.126 204.965 L175.011 204.965 L175.011 210.845 L170.126 210.845 L170.126 204.965 Z" fill="#000000" fill-rule="evenodd" fill-opacity="1" /><path clip-path="url(#clip060)" d="M195.196 179.363 Q191.585 179.363 189.756 182.928 Q187.95 186.47 187.95 193.6 Q187.95 200.706 189.756 204.271 Q191.585 207.812 195.196 207.812 Q198.83 207.812 200.636 204.271 Q202.464 200.706 202.464 193.6 Q202.464 186.47 200.636 182.928 Q198.83 179.363 195.196 179.363 M195.196 175.66 Q201.006 175.66 204.061 180.266 Q207.14 184.85 207.14 193.6 Q207.14 202.326 204.061 206.933 Q201.006 211.516 195.196 211.516 Q189.386 211.516 186.307 206.933 Q183.251 202.326 183.251 193.6 Q183.251 184.85 186.307 180.266 Q189.386 175.66 195.196 175.66 Z" fill="#000000" fill-rule="evenodd" fill-opacity="1" /><path clip-path="url(#clip060)" d="M225.358 179.363 Q221.747 179.363 219.918 182.928 Q218.112 186.47 218.112 193.6 Q218.112 200.706 219.918 204.271 Q221.747 207.812 225.358 207.812 Q228.992 207.812 230.797 204.271 Q232.626 200.706 232.626 193.6 Q232.626 186.47 230.797 182.928 Q228.992 179.363 225.358 179.363 M225.358 175.66 Q231.168 175.66 234.223 180.266 Q237.302 184.85 237.302 193.6 Q237.302 202.326 234.223 206.933 Q231.168 211.516 225.358 211.516 Q219.547 211.516 216.469 206.933 Q213.413 202.326 213.413 193.6 Q213.413 184.85 216.469 180.266 Q219.547 175.66 225.358 175.66 Z" fill="#000000" fill-rule="evenodd" fill-opacity="1" /><path clip-path="url(#clip060)" d="M40.2442 1311.72 L40.2442 1284.41 L45.655 1284.41 L45.655 1305.29 L59.6596 1305.29 L59.6596 1286.45 L65.0704 1286.45 L65.0704 1305.29 L87.7642 1305.29 L87.7642 1311.72 L40.2442 1311.72 Z" fill="#000000" fill-rule="evenodd" fill-opacity="1" /><path clip-path="url(#clip060)" d="M68.4761 1247.56 L71.3406 1247.56 L71.3406 1274.48 Q77.3881 1274.1 80.5709 1270.85 Q83.7219 1267.58 83.7219 1261.75 Q83.7219 1258.38 82.8944 1255.23 Q82.0669 1252.04 80.4118 1248.92 L85.9499 1248.92 Q87.2867 1252.08 87.987 1255.39 Q88.6872 1258.7 88.6872 1262.1 Q88.6872 1270.63 83.7219 1275.63 Q78.7567 1280.59 70.2903 1280.59 Q61.5374 1280.59 56.4131 1275.88 Q51.2568 1271.14 51.2568 1263.12 Q51.2568 1255.93 55.9038 1251.76 Q60.5189 1247.56 68.4761 1247.56 M66.7573 1253.41 Q61.9512 1253.48 59.0866 1256.12 Q56.2221 1258.73 56.2221 1263.06 Q56.2221 1267.96 58.9912 1270.92 Q61.7602 1273.85 66.7892 1274.29 L66.7573 1253.41 Z" fill="#000000" fill-rule="evenodd" fill-opacity="1" /><path clip-path="url(#clip060)" d="M69.8447 1221.74 Q69.8447 1228.84 71.4679 1231.58 Q73.0912 1234.31 77.0061 1234.31 Q80.1253 1234.31 81.9714 1232.28 Q83.7856 1230.21 83.7856 1226.68 Q83.7856 1221.81 80.3481 1218.88 Q76.8788 1215.92 71.1497 1215.92 L69.8447 1215.92 L69.8447 1221.74 M67.4257 1210.06 L87.7642 1210.06 L87.7642 1215.92 L82.3533 1215.92 Q85.5998 1217.92 87.1594 1220.91 Q88.6872 1223.91 88.6872 1228.24 Q88.6872 1233.71 85.6316 1236.96 Q82.5443 1240.17 77.3881 1240.17 Q71.3725 1240.17 68.3169 1236.16 Q65.2614 1232.12 65.2614 1224.13 L65.2614 1215.92 L64.6885 1215.92 Q60.6462 1215.92 58.4501 1218.59 Q56.2221 1221.23 56.2221 1226.04 Q56.2221 1229.09 56.9541 1231.99 Q57.6862 1234.89 59.1503 1237.56 L53.7395 1237.56 Q52.4981 1234.35 51.8934 1231.32 Q51.2568 1228.3 51.2568 1225.43 Q51.2568 1217.7 55.2672 1213.88 Q59.2776 1210.06 67.4257 1210.06 Z" fill="#000000" fill-rule="evenodd" fill-opacity="1" /><path clip-path="url(#clip060)" d="M41.9947 1192.21 L52.1162 1192.21 L52.1162 1180.14 L56.6677 1180.14 L56.6677 1192.21 L76.0194 1192.21 Q80.3799 1192.21 81.6213 1191.03 Q82.8626 1189.82 82.8626 1186.16 L82.8626 1180.14 L87.7642 1180.14 L87.7642 1186.16 Q87.7642 1192.94 85.2497 1195.52 Q82.7034 1198.09 76.0194 1198.09 L56.6677 1198.09 L56.6677 1202.39 L52.1162 1202.39 L52.1162 1198.09 L41.9947 1198.09 L41.9947 1192.21 Z" fill="#000000" fill-rule="evenodd" fill-opacity="1" /><path clip-path="url(#clip060)" d="M73.6959 1173.04 L52.1162 1173.04 L52.1162 1167.19 L73.4731 1167.19 Q78.5339 1167.19 81.0802 1165.22 Q83.5946 1163.24 83.5946 1159.29 Q83.5946 1154.55 80.5709 1151.82 Q77.5472 1149.05 72.3273 1149.05 L52.1162 1149.05 L52.1162 1143.19 L87.7642 1143.19 L87.7642 1149.05 L82.2896 1149.05 Q85.5362 1151.18 87.1276 1154.01 Q88.6872 1156.81 88.6872 1160.54 Q88.6872 1166.68 84.8678 1169.86 Q81.0483 1173.04 73.6959 1173.04 M51.2568 1158.31 L51.2568 1158.31 Z" fill="#000000" fill-rule="evenodd" fill-opacity="1" /><path clip-path="url(#clip060)" d="M57.5907 1110.47 Q57.0178 1111.46 56.7632 1112.63 Q56.4767 1113.78 56.4767 1115.18 Q56.4767 1120.15 59.7232 1122.82 Q62.9379 1125.46 68.9853 1125.46 L87.7642 1125.46 L87.7642 1131.35 L52.1162 1131.35 L52.1162 1125.46 L57.6544 1125.46 Q54.4079 1123.62 52.8483 1120.66 Q51.2568 1117.7 51.2568 1113.46 Q51.2568 1112.86 51.3523 1112.13 Q51.416 1111.39 51.5751 1110.5 L57.5907 1110.47 Z" fill="#000000" fill-rule="evenodd" fill-opacity="1" /><path clip-path="url(#clip060)" d="M68.4761 1075.27 L71.3406 1075.27 L71.3406 1102.19 Q77.3881 1101.81 80.5709 1098.57 Q83.7219 1095.29 83.7219 1089.46 Q83.7219 1086.09 82.8944 1082.94 Q82.0669 1079.76 80.4118 1076.64 L85.9499 1076.64 Q87.2867 1079.79 87.987 1083.1 Q88.6872 1086.41 88.6872 1089.81 Q88.6872 1098.34 83.7219 1103.34 Q78.7567 1108.31 70.2903 1108.31 Q61.5374 1108.31 56.4131 1103.59 Q51.2568 1098.85 51.2568 1090.83 Q51.2568 1083.64 55.9038 1079.47 Q60.5189 1075.27 68.4761 1075.27 M66.7573 1081.12 Q61.9512 1081.19 59.0866 1083.83 Q56.2221 1086.44 56.2221 1090.77 Q56.2221 1095.67 58.9912 1098.63 Q61.7602 1101.56 66.7892 1102 L66.7573 1081.12 Z" fill="#000000" fill-rule="evenodd" fill-opacity="1" /><path clip-path="url(#clip060)" d="M82.3533 1038.57 L82.3533 1016.13 L87.7642 1016.13 L87.7642 1046.3 L82.3533 1046.3 Q78.5657 1042.64 72.2 1036.34 Q65.8025 1030.01 63.9564 1028.38 Q60.4871 1025.3 58.1 1024.09 Q55.681 1022.85 53.3575 1022.85 Q49.5699 1022.85 47.1828 1025.52 Q44.7956 1028.16 44.7956 1032.43 Q44.7956 1035.45 45.846 1038.82 Q46.8963 1042.17 49.0288 1045.99 L42.5358 1045.99 Q40.9762 1042.1 40.1805 1038.73 Q39.3848 1035.35 39.3848 1032.55 Q39.3848 1025.17 43.0769 1020.78 Q46.769 1016.38 52.9437 1016.38 Q55.872 1016.38 58.5137 1017.5 Q61.1237 1018.58 64.6885 1021.48 Q65.6115 1022.27 70.0357 1026.54 Q74.428 1030.8 82.3533 1038.57 Z" fill="#000000" fill-rule="evenodd" fill-opacity="1" /><path clip-path="url(#clip060)" d="M852.32 9.54393 L859.814 9.54393 L859.814 46.7717 L882.053 27.2059 L891.573 27.2059 L867.511 48.4326 L892.586 72.576 L882.863 72.576 L859.814 50.4176 L859.814 72.576 L852.32 72.576 L852.32 9.54393 Z" fill="#000000" fill-rule="evenodd" fill-opacity="1" /><path clip-path="url(#clip060)" d="M896.88 46.5287 L918.714 46.5287 L918.714 53.1722 L896.88 53.1722 L896.88 46.5287 Z" fill="#000000" fill-rule="evenodd" fill-opacity="1" /><path clip-path="url(#clip060)" d="M930.907 12.096 L941.926 12.096 L968.743 62.6918 L968.743 12.096 L976.682 12.096 L976.682 72.576 L965.664 72.576 L938.847 21.9802 L938.847 72.576 L930.907 72.576 L930.907 12.096 Z" fill="#000000" fill-rule="evenodd" fill-opacity="1" /><path clip-path="url(#clip060)" d="M992.967 12.096 L1003.99 12.096 L1030.8 62.6918 L1030.8 12.096 L1038.74 12.096 L1038.74 72.576 L1027.72 72.576 L1000.91 21.9802 L1000.91 72.576 L992.967 72.576 L992.967 12.096 Z" fill="#000000" fill-rule="evenodd" fill-opacity="1" /><path clip-path="url(#clip060)" d="M1093.43 40.0472 Q1089.74 43.3285 1088 46.6097 Q1086.3 49.8504 1086.3 53.4152 Q1086.3 59.3295 1090.59 63.2589 Q1094.89 67.1883 1101.37 67.1883 Q1105.22 67.1883 1108.58 65.9325 Q1111.94 64.6362 1114.9 62.0436 L1093.43 40.0472 M1099.14 35.5102 L1119.72 56.5749 Q1122.11 52.9696 1123.45 48.8782 Q1124.78 44.7463 1125.03 40.1283 L1132.56 40.1283 Q1132.08 45.4755 1129.97 50.7011 Q1127.86 55.9268 1124.09 61.0309 L1135.4 72.576 L1125.19 72.576 L1119.4 66.6212 Q1115.18 70.2265 1110.56 72.0089 Q1105.95 73.7508 1100.64 73.7508 Q1090.88 73.7508 1084.68 68.201 Q1078.48 62.6108 1078.48 53.9013 Q1078.48 48.7162 1081.2 44.1792 Q1083.91 39.6016 1089.34 35.5912 Q1087.39 33.0392 1086.38 30.5276 Q1085.37 27.9755 1085.37 25.545 Q1085.37 18.9825 1089.86 15.0127 Q1094.36 11.0023 1101.81 11.0023 Q1105.18 11.0023 1108.5 11.7314 Q1111.86 12.4606 1115.3 13.9189 L1115.3 21.2916 Q1111.78 19.3876 1108.58 18.4154 Q1105.38 17.4027 1102.63 17.4027 Q1098.37 17.4027 1095.7 19.6712 Q1093.06 21.8992 1093.06 25.464 Q1093.06 27.5299 1094.24 29.6364 Q1095.45 31.7024 1099.14 35.5102 Z" fill="#000000" fill-rule="evenodd" fill-opacity="1" /><path clip-path="url(#clip060)" d="M1171.85 9.54393 L1179.35 9.54393 L1179.35 46.7717 L1201.59 27.2059 L1211.11 27.2059 L1187.05 48.4326 L1212.12 72.576 L1202.4 72.576 L1179.35 50.4176 L1179.35 72.576 L1171.85 72.576 L1171.85 9.54393 Z" fill="#000000" fill-rule="evenodd" fill-opacity="1" /><path clip-path="url(#clip060)" d="M1216.41 46.5287 L1238.25 46.5287 L1238.25 53.1722 L1216.41 53.1722 L1216.41 46.5287 Z" fill="#000000" fill-rule="evenodd" fill-opacity="1" /><path clip-path="url(#clip060)" d="M1258.63 18.8205 L1258.63 65.8515 L1268.51 65.8515 Q1281.03 65.8515 1286.82 60.1802 Q1292.65 54.509 1292.65 42.2752 Q1292.65 30.1225 1286.82 24.4918 Q1281.03 18.8205 1268.51 18.8205 L1258.63 18.8205 M1250.44 12.096 L1267.25 12.096 Q1284.83 12.096 1293.06 19.4281 Q1301.28 26.7198 1301.28 42.2752 Q1301.28 57.9117 1293.02 65.2439 Q1284.75 72.576 1267.25 72.576 L1250.44 72.576 L1250.44 12.096 Z" fill="#000000" fill-rule="evenodd" fill-opacity="1" /><path clip-path="url(#clip060)" d="M1332.31 12.096 L1383.47 12.096 L1383.47 18.9825 L1362 18.9825 L1362 72.576 L1353.78 72.576 L1353.78 18.9825 L1332.31 18.9825 L1332.31 12.096 Z" fill="#000000" fill-rule="evenodd" fill-opacity="1" /><path clip-path="url(#clip060)" d="M1405.15 34.1734 Q1403.89 33.4443 1402.39 33.1202 Q1400.93 32.7556 1399.15 32.7556 Q1392.83 32.7556 1389.43 36.8875 Q1386.07 40.9789 1386.07 48.6757 L1386.07 72.576 L1378.57 72.576 L1378.57 27.2059 L1386.07 27.2059 L1386.07 34.2544 Q1388.42 30.1225 1392.18 28.1376 Q1395.95 26.1121 1401.34 26.1121 Q1402.11 26.1121 1403.04 26.2337 Q1403.97 26.3147 1405.11 26.5172 L1405.15 34.1734 Z" fill="#000000" fill-rule="evenodd" fill-opacity="1" /><path clip-path="url(#clip060)" d="M1449.95 48.0275 L1449.95 51.6733 L1415.68 51.6733 Q1416.16 59.3701 1420.3 63.421 Q1424.47 67.4314 1431.88 67.4314 Q1436.18 67.4314 1440.19 66.3781 Q1444.24 65.3249 1448.21 63.2184 L1448.21 70.267 Q1444.2 71.9684 1439.98 72.8596 Q1435.77 73.7508 1431.44 73.7508 Q1420.58 73.7508 1414.22 67.4314 Q1407.9 61.1119 1407.9 50.3365 Q1407.9 39.1965 1413.9 32.6746 Q1419.93 26.1121 1430.14 26.1121 Q1439.3 26.1121 1444.6 32.0264 Q1449.95 37.9003 1449.95 48.0275 M1442.5 45.84 Q1442.41 39.7232 1439.05 36.0774 Q1435.73 32.4315 1430.22 32.4315 Q1423.98 32.4315 1420.22 35.9558 Q1416.49 39.4801 1415.92 45.8805 L1442.5 45.84 Z" fill="#000000" fill-rule="evenodd" fill-opacity="1" /><path clip-path="url(#clip060)" d="M1500.99 48.0275 L1500.99 51.6733 L1466.72 51.6733 Q1467.21 59.3701 1471.34 63.421 Q1475.51 67.4314 1482.92 67.4314 Q1487.22 67.4314 1491.23 66.3781 Q1495.28 65.3249 1499.25 63.2184 L1499.25 70.267 Q1495.24 71.9684 1491.03 72.8596 Q1486.81 73.7508 1482.48 73.7508 Q1471.62 73.7508 1465.26 67.4314 Q1458.94 61.1119 1458.94 50.3365 Q1458.94 39.1965 1464.94 32.6746 Q1470.97 26.1121 1481.18 26.1121 Q1490.34 26.1121 1495.64 32.0264 Q1500.99 37.9003 1500.99 48.0275 M1493.54 45.84 Q1493.46 39.7232 1490.09 36.0774 Q1486.77 32.4315 1481.26 32.4315 Q1475.02 32.4315 1471.26 35.9558 Q1467.53 39.4801 1466.96 45.8805 L1493.54 45.84 Z" fill="#000000" fill-rule="evenodd" fill-opacity="1" /><path clip-path="url(#clip060)" d="M1548.1 18.8205 L1548.1 65.8515 L1557.99 65.8515 Q1570.5 65.8515 1576.3 60.1802 Q1582.13 54.509 1582.13 42.2752 Q1582.13 30.1225 1576.3 24.4918 Q1570.5 18.8205 1557.99 18.8205 L1548.1 18.8205 M1539.92 12.096 L1556.73 12.096 Q1574.31 12.096 1582.54 19.4281 Q1590.76 26.7198 1590.76 42.2752 Q1590.76 57.9117 1582.5 65.2439 Q1574.23 72.576 1556.73 72.576 L1539.92 72.576 L1539.92 12.096 Z" fill="#000000" fill-rule="evenodd" fill-opacity="1" /><path clip-path="url(#clip060)" d="M1642.29 48.0275 L1642.29 51.6733 L1608.02 51.6733 Q1608.5 59.3701 1612.63 63.421 Q1616.81 67.4314 1624.22 67.4314 Q1628.51 67.4314 1632.52 66.3781 Q1636.57 65.3249 1640.54 63.2184 L1640.54 70.267 Q1636.53 71.9684 1632.32 72.8596 Q1628.11 73.7508 1623.77 73.7508 Q1612.92 73.7508 1606.56 67.4314 Q1600.24 61.1119 1600.24 50.3365 Q1600.24 39.1965 1606.23 32.6746 Q1612.27 26.1121 1622.48 26.1121 Q1631.63 26.1121 1636.94 32.0264 Q1642.29 37.9003 1642.29 48.0275 M1634.83 45.84 Q1634.75 39.7232 1631.39 36.0774 Q1628.07 32.4315 1622.56 32.4315 Q1616.32 32.4315 1612.55 35.9558 Q1608.83 39.4801 1608.26 45.8805 L1634.83 45.84 Z" fill="#000000" fill-rule="evenodd" fill-opacity="1" /><path clip-path="url(#clip060)" d="M1689.84 35.9153 Q1692.64 30.8922 1696.53 28.5022 Q1700.42 26.1121 1705.68 26.1121 Q1712.77 26.1121 1716.62 31.0947 Q1720.47 36.0368 1720.47 45.1919 L1720.47 72.576 L1712.97 72.576 L1712.97 45.4349 Q1712.97 38.913 1710.67 35.7533 Q1708.36 32.5936 1703.62 32.5936 Q1697.82 32.5936 1694.46 36.4419 Q1691.1 40.2903 1691.1 46.9338 L1691.1 72.576 L1683.61 72.576 L1683.61 45.4349 Q1683.61 38.8725 1681.3 35.7533 Q1678.99 32.5936 1674.17 32.5936 Q1668.46 32.5936 1665.09 36.4824 Q1661.73 40.3308 1661.73 46.9338 L1661.73 72.576 L1654.24 72.576 L1654.24 27.2059 L1661.73 27.2059 L1661.73 34.2544 Q1664.28 30.082 1667.85 28.0971 Q1671.41 26.1121 1676.31 26.1121 Q1681.26 26.1121 1684.7 28.6237 Q1688.18 31.1352 1689.84 35.9153 Z" fill="#000000" fill-rule="evenodd" fill-opacity="1" /><path clip-path="url(#clip060)" d="M1752.92 32.4315 Q1746.92 32.4315 1743.44 37.1306 Q1739.95 41.7891 1739.95 49.9314 Q1739.95 58.0738 1743.4 62.7728 Q1746.88 67.4314 1752.92 67.4314 Q1758.87 67.4314 1762.36 62.7323 Q1765.84 58.0333 1765.84 49.9314 Q1765.84 41.8701 1762.36 37.1711 Q1758.87 32.4315 1752.92 32.4315 M1752.92 26.1121 Q1762.64 26.1121 1768.19 32.4315 Q1773.74 38.7509 1773.74 49.9314 Q1773.74 61.0714 1768.19 67.4314 Q1762.64 73.7508 1752.92 73.7508 Q1743.15 73.7508 1737.6 67.4314 Q1732.1 61.0714 1732.1 49.9314 Q1732.1 38.7509 1737.6 32.4315 Q1743.15 26.1121 1752.92 26.1121 Z" fill="#000000" fill-rule="evenodd" fill-opacity="1" /><circle clip-path="url(#clip062)" cx="427.298" cy="522.848" r="14" fill="#0000ff" fill-rule="evenodd" fill-opacity="1" stroke="#000000" stroke-opacity="1" stroke-width="4.8"/>
<circle clip-path="url(#clip062)" cx="566.071" cy="1022.02" r="14" fill="#0000ff" fill-rule="evenodd" fill-opacity="1" stroke="#000000" stroke-opacity="1" stroke-width="4.8"/>
<circle clip-path="url(#clip062)" cx="1110.37" cy="1791.55" r="14" fill="#0000ff" fill-rule="evenodd" fill-opacity="1" stroke="#000000" stroke-opacity="1" stroke-width="4.8"/>
<circle clip-path="url(#clip062)" cx="377.516" cy="1911.28" r="14" fill="#0000ff" fill-rule="evenodd" fill-opacity="1" stroke="#000000" stroke-opacity="1" stroke-width="4.8"/>
<circle clip-path="url(#clip062)" cx="1703.1" cy="608.115" r="14" fill="#0000ff" fill-rule="evenodd" fill-opacity="1" stroke="#000000" stroke-opacity="1" stroke-width="4.8"/>
<circle clip-path="url(#clip062)" cx="1853.29" cy="402.009" r="14" fill="#0000ff" fill-rule="evenodd" fill-opacity="1" stroke="#000000" stroke-opacity="1" stroke-width="4.8"/>
<circle clip-path="url(#clip062)" cx="502.893" cy="1257.08" r="14" fill="#0000ff" fill-rule="evenodd" fill-opacity="1" stroke="#000000" stroke-opacity="1" stroke-width="4.8"/>
<circle clip-path="url(#clip062)" cx="2028.38" cy="1732.85" r="14" fill="#0000ff" fill-rule="evenodd" fill-opacity="1" stroke="#000000" stroke-opacity="1" stroke-width="4.8"/>
<circle clip-path="url(#clip062)" cx="1997.94" cy="1768.2" r="14" fill="#0000ff" fill-rule="evenodd" fill-opacity="1" stroke="#000000" stroke-opacity="1" stroke-width="4.8"/>
<circle clip-path="url(#clip062)" cx="2097.96" cy="1591.07" r="14" fill="#0000ff" fill-rule="evenodd" fill-opacity="1" stroke="#000000" stroke-opacity="1" stroke-width="4.8"/>
<circle clip-path="url(#clip062)" cx="604.082" cy="499.127" r="14" fill="#0000ff" fill-rule="evenodd" fill-opacity="1" stroke="#000000" stroke-opacity="1" stroke-width="4.8"/>
<circle clip-path="url(#clip062)" cx="1019.98" cy="879.383" r="14" fill="#0000ff" fill-rule="evenodd" fill-opacity="1" stroke="#000000" stroke-opacity="1" stroke-width="4.8"/>
<circle clip-path="url(#clip062)" cx="723.772" cy="1940.17" r="14" fill="#0000ff" fill-rule="evenodd" fill-opacity="1" stroke="#000000" stroke-opacity="1" stroke-width="4.8"/>
<circle clip-path="url(#clip062)" cx="345.96" cy="1025.61" r="14" fill="#0000ff" fill-rule="evenodd" fill-opacity="1" stroke="#000000" stroke-opacity="1" stroke-width="4.8"/>
<circle clip-path="url(#clip062)" cx="1504.95" cy="622.976" r="14" fill="#0000ff" fill-rule="evenodd" fill-opacity="1" stroke="#000000" stroke-opacity="1" stroke-width="4.8"/>
<circle clip-path="url(#clip062)" cx="1919.87" cy="1788.45" r="14" fill="#0000ff" fill-rule="evenodd" fill-opacity="1" stroke="#000000" stroke-opacity="1" stroke-width="4.8"/>
<circle clip-path="url(#clip062)" cx="1449.65" cy="2004.27" r="14" fill="#0000ff" fill-rule="evenodd" fill-opacity="1" stroke="#000000" stroke-opacity="1" stroke-width="4.8"/>
<circle clip-path="url(#clip062)" cx="980.258" cy="746.432" r="14" fill="#0000ff" fill-rule="evenodd" fill-opacity="1" stroke="#000000" stroke-opacity="1" stroke-width="4.8"/>
<circle clip-path="url(#clip062)" cx="2269.66" cy="1321.56" r="14" fill="#0000ff" fill-rule="evenodd" fill-opacity="1" stroke="#000000" stroke-opacity="1" stroke-width="4.8"/>
<circle clip-path="url(#clip062)" cx="527.013" cy="1277.31" r="14" fill="#0000ff" fill-rule="evenodd" fill-opacity="1" stroke="#000000" stroke-opacity="1" stroke-width="4.8"/>
<circle clip-path="url(#clip062)" cx="2260.33" cy="1667.22" r="14" fill="#0000ff" fill-rule="evenodd" fill-opacity="1" stroke="#000000" stroke-opacity="1" stroke-width="4.8"/>
<circle clip-path="url(#clip062)" cx="576.215" cy="673.315" r="14" fill="#0000ff" fill-rule="evenodd" fill-opacity="1" stroke="#000000" stroke-opacity="1" stroke-width="4.8"/>
<circle clip-path="url(#clip062)" cx="2199.45" cy="1573.09" r="14" fill="#0000ff" fill-rule="evenodd" fill-opacity="1" stroke="#000000" stroke-opacity="1" stroke-width="4.8"/>
<circle clip-path="url(#clip062)" cx="2282.36" cy="934.924" r="14" fill="#0000ff" fill-rule="evenodd" fill-opacity="1" stroke="#000000" stroke-opacity="1" stroke-width="4.8"/>
<circle clip-path="url(#clip062)" cx="1805.5" cy="558.05" r="14" fill="#0000ff" fill-rule="evenodd" fill-opacity="1" stroke="#000000" stroke-opacity="1" stroke-width="4.8"/>
<circle clip-path="url(#clip062)" cx="1928.33" cy="282.32" r="14" fill="#0000ff" fill-rule="evenodd" fill-opacity="1" stroke="#000000" stroke-opacity="1" stroke-width="4.8"/>
<circle clip-path="url(#clip062)" cx="2293.9" cy="1736.81" r="14" fill="#0000ff" fill-rule="evenodd" fill-opacity="1" stroke="#000000" stroke-opacity="1" stroke-width="4.8"/>
<circle clip-path="url(#clip062)" cx="1996.96" cy="2097.64" r="14" fill="#0000ff" fill-rule="evenodd" fill-opacity="1" stroke="#000000" stroke-opacity="1" stroke-width="4.8"/>
<circle clip-path="url(#clip062)" cx="562.274" cy="800.433" r="14" fill="#0000ff" fill-rule="evenodd" fill-opacity="1" stroke="#000000" stroke-opacity="1" stroke-width="4.8"/>
<circle clip-path="url(#clip062)" cx="907.595" cy="579.056" r="14" fill="#0000ff" fill-rule="evenodd" fill-opacity="1" stroke="#000000" stroke-opacity="1" stroke-width="4.8"/>
<circle clip-path="url(#clip062)" cx="556.124" cy="808.296" r="14" fill="#0000ff" fill-rule="evenodd" fill-opacity="1" stroke="#000000" stroke-opacity="1" stroke-width="4.8"/>
<circle clip-path="url(#clip062)" cx="1184.22" cy="837.896" r="14" fill="#0000ff" fill-rule="evenodd" fill-opacity="1" stroke="#000000" stroke-opacity="1" stroke-width="4.8"/>
<circle clip-path="url(#clip062)" cx="1461.75" cy="847.227" r="14" fill="#0000ff" fill-rule="evenodd" fill-opacity="1" stroke="#000000" stroke-opacity="1" stroke-width="4.8"/>
<circle clip-path="url(#clip062)" cx="1389.06" cy="1322.31" r="14" fill="#0000ff" fill-rule="evenodd" fill-opacity="1" stroke="#000000" stroke-opacity="1" stroke-width="4.8"/>
<circle clip-path="url(#clip062)" cx="1968.56" cy="1674.79" r="14" fill="#0000ff" fill-rule="evenodd" fill-opacity="1" stroke="#000000" stroke-opacity="1" stroke-width="4.8"/>
<circle clip-path="url(#clip062)" cx="967.283" cy="1425.17" r="14" fill="#0000ff" fill-rule="evenodd" fill-opacity="1" stroke="#000000" stroke-opacity="1" stroke-width="4.8"/>
<circle clip-path="url(#clip062)" cx="884.372" cy="1804.57" r="14" fill="#0000ff" fill-rule="evenodd" fill-opacity="1" stroke="#000000" stroke-opacity="1" stroke-width="4.8"/>
<circle clip-path="url(#clip062)" cx="1683.54" cy="606.741" r="14" fill="#0000ff" fill-rule="evenodd" fill-opacity="1" stroke="#000000" stroke-opacity="1" stroke-width="4.8"/>
<circle clip-path="url(#clip062)" cx="1927.75" cy="1498.4" r="14" fill="#0000ff" fill-rule="evenodd" fill-opacity="1" stroke="#000000" stroke-opacity="1" stroke-width="4.8"/>
<circle clip-path="url(#clip062)" cx="748.554" cy="1213.08" r="14" fill="#0000ff" fill-rule="evenodd" fill-opacity="1" stroke="#000000" stroke-opacity="1" stroke-width="4.8"/>
<circle clip-path="url(#clip062)" cx="860.084" cy="509.589" r="14" fill="#0000ff" fill-rule="evenodd" fill-opacity="1" stroke="#000000" stroke-opacity="1" stroke-width="4.8"/>
<circle clip-path="url(#clip062)" cx="1012.32" cy="808.517" r="14" fill="#0000ff" fill-rule="evenodd" fill-opacity="1" stroke="#000000" stroke-opacity="1" stroke-width="4.8"/>
<circle clip-path="url(#clip062)" cx="1204.78" cy="1144.66" r="14" fill="#0000ff" fill-rule="evenodd" fill-opacity="1" stroke="#000000" stroke-opacity="1" stroke-width="4.8"/>
<circle clip-path="url(#clip062)" cx="560.039" cy="553.734" r="14" fill="#0000ff" fill-rule="evenodd" fill-opacity="1" stroke="#000000" stroke-opacity="1" stroke-width="4.8"/>
<circle clip-path="url(#clip062)" cx="1416.56" cy="559.98" r="14" fill="#0000ff" fill-rule="evenodd" fill-opacity="1" stroke="#000000" stroke-opacity="1" stroke-width="4.8"/>
<circle clip-path="url(#clip062)" cx="1499.35" cy="1886.46" r="14" fill="#0000ff" fill-rule="evenodd" fill-opacity="1" stroke="#000000" stroke-opacity="1" stroke-width="4.8"/>
<circle clip-path="url(#clip062)" cx="725.358" cy="465.228" r="14" fill="#0000ff" fill-rule="evenodd" fill-opacity="1" stroke="#000000" stroke-opacity="1" stroke-width="4.8"/>
<circle clip-path="url(#clip062)" cx="1052.52" cy="247.08" r="14" fill="#0000ff" fill-rule="evenodd" fill-opacity="1" stroke="#000000" stroke-opacity="1" stroke-width="4.8"/>
<circle clip-path="url(#clip062)" cx="1948.33" cy="613.771" r="14" fill="#0000ff" fill-rule="evenodd" fill-opacity="1" stroke="#000000" stroke-opacity="1" stroke-width="4.8"/>
<circle clip-path="url(#clip062)" cx="489.285" cy="1220.09" r="14" fill="#0000ff" fill-rule="evenodd" fill-opacity="1" stroke="#000000" stroke-opacity="1" stroke-width="4.8"/>
<circle clip-path="url(#clip062)" cx="887.847" cy="216.46" r="14" fill="#0000ff" fill-rule="evenodd" fill-opacity="1" stroke="#000000" stroke-opacity="1" stroke-width="4.8"/>
<circle clip-path="url(#clip062)" cx="1751.95" cy="676.105" r="14" fill="#0000ff" fill-rule="evenodd" fill-opacity="1" stroke="#000000" stroke-opacity="1" stroke-width="4.8"/>
<circle clip-path="url(#clip062)" cx="1290.8" cy="1262.54" r="14" fill="#0000ff" fill-rule="evenodd" fill-opacity="1" stroke="#000000" stroke-opacity="1" stroke-width="4.8"/>
<circle clip-path="url(#clip062)" cx="1532.14" cy="680.968" r="14" fill="#0000ff" fill-rule="evenodd" fill-opacity="1" stroke="#000000" stroke-opacity="1" stroke-width="4.8"/>
<circle clip-path="url(#clip062)" cx="1149.08" cy="2067.53" r="14" fill="#0000ff" fill-rule="evenodd" fill-opacity="1" stroke="#000000" stroke-opacity="1" stroke-width="4.8"/>
<circle clip-path="url(#clip062)" cx="1100.41" cy="1175.41" r="14" fill="#0000ff" fill-rule="evenodd" fill-opacity="1" stroke="#000000" stroke-opacity="1" stroke-width="4.8"/>
<circle clip-path="url(#clip062)" cx="332.155" cy="1940.07" r="14" fill="#0000ff" fill-rule="evenodd" fill-opacity="1" stroke="#000000" stroke-opacity="1" stroke-width="4.8"/>
<circle clip-path="url(#clip062)" cx="1360.57" cy="816.577" r="14" fill="#0000ff" fill-rule="evenodd" fill-opacity="1" stroke="#000000" stroke-opacity="1" stroke-width="4.8"/>
<circle clip-path="url(#clip062)" cx="921.257" cy="1159.05" r="14" fill="#0000ff" fill-rule="evenodd" fill-opacity="1" stroke="#000000" stroke-opacity="1" stroke-width="4.8"/>
<circle clip-path="url(#clip062)" cx="1569.59" cy="648.59" r="14" fill="#0000ff" fill-rule="evenodd" fill-opacity="1" stroke="#000000" stroke-opacity="1" stroke-width="4.8"/>
<circle clip-path="url(#clip062)" cx="975.722" cy="1807.16" r="14" fill="#0000ff" fill-rule="evenodd" fill-opacity="1" stroke="#000000" stroke-opacity="1" stroke-width="4.8"/>
<circle clip-path="url(#clip062)" cx="2245.83" cy="821.948" r="14" fill="#0000ff" fill-rule="evenodd" fill-opacity="1" stroke="#000000" stroke-opacity="1" stroke-width="4.8"/>
<circle clip-path="url(#clip062)" cx="882.935" cy="907.903" r="14" fill="#0000ff" fill-rule="evenodd" fill-opacity="1" stroke="#000000" stroke-opacity="1" stroke-width="4.8"/>
<circle clip-path="url(#clip062)" cx="1434.84" cy="1508.13" r="14" fill="#0000ff" fill-rule="evenodd" fill-opacity="1" stroke="#000000" stroke-opacity="1" stroke-width="4.8"/>
<circle clip-path="url(#clip062)" cx="2167.01" cy="1637.92" r="14" fill="#0000ff" fill-rule="evenodd" fill-opacity="1" stroke="#000000" stroke-opacity="1" stroke-width="4.8"/>
<circle clip-path="url(#clip062)" cx="1208.74" cy="644.549" r="14" fill="#0000ff" fill-rule="evenodd" fill-opacity="1" stroke="#000000" stroke-opacity="1" stroke-width="4.8"/>
<circle clip-path="url(#clip062)" cx="2141.66" cy="1427.96" r="14" fill="#0000ff" fill-rule="evenodd" fill-opacity="1" stroke="#000000" stroke-opacity="1" stroke-width="4.8"/>
<circle clip-path="url(#clip062)" cx="1589.83" cy="1417.54" r="14" fill="#0000ff" fill-rule="evenodd" fill-opacity="1" stroke="#000000" stroke-opacity="1" stroke-width="4.8"/>
<circle clip-path="url(#clip062)" cx="1627.79" cy="1523.7" r="14" fill="#0000ff" fill-rule="evenodd" fill-opacity="1" stroke="#000000" stroke-opacity="1" stroke-width="4.8"/>
<circle clip-path="url(#clip062)" cx="1431.98" cy="700.257" r="14" fill="#0000ff" fill-rule="evenodd" fill-opacity="1" stroke="#000000" stroke-opacity="1" stroke-width="4.8"/>
<circle clip-path="url(#clip062)" cx="1677.83" cy="2041.3" r="14" fill="#0000ff" fill-rule="evenodd" fill-opacity="1" stroke="#000000" stroke-opacity="1" stroke-width="4.8"/>
<circle clip-path="url(#clip062)" cx="1108.87" cy="1993.92" r="14" fill="#0000ff" fill-rule="evenodd" fill-opacity="1" stroke="#000000" stroke-opacity="1" stroke-width="4.8"/>
<circle clip-path="url(#clip062)" cx="977.429" cy="1953.19" r="14" fill="#0000ff" fill-rule="evenodd" fill-opacity="1" stroke="#000000" stroke-opacity="1" stroke-width="4.8"/>
<circle clip-path="url(#clip062)" cx="646.354" cy="1301.13" r="14" fill="#0000ff" fill-rule="evenodd" fill-opacity="1" stroke="#000000" stroke-opacity="1" stroke-width="4.8"/>
<circle clip-path="url(#clip062)" cx="496.459" cy="636.173" r="14" fill="#0000ff" fill-rule="evenodd" fill-opacity="1" stroke="#000000" stroke-opacity="1" stroke-width="4.8"/>
<circle clip-path="url(#clip062)" cx="844.601" cy="1415.97" r="14" fill="#0000ff" fill-rule="evenodd" fill-opacity="1" stroke="#000000" stroke-opacity="1" stroke-width="4.8"/>
<circle clip-path="url(#clip062)" cx="510.911" cy="1814.23" r="14" fill="#0000ff" fill-rule="evenodd" fill-opacity="1" stroke="#000000" stroke-opacity="1" stroke-width="4.8"/>
<circle clip-path="url(#clip062)" cx="1641.58" cy="2057.2" r="14" fill="#0000ff" fill-rule="evenodd" fill-opacity="1" stroke="#000000" stroke-opacity="1" stroke-width="4.8"/>
<circle clip-path="url(#clip062)" cx="717.351" cy="968.916" r="14" fill="#0000ff" fill-rule="evenodd" fill-opacity="1" stroke="#000000" stroke-opacity="1" stroke-width="4.8"/>
<circle clip-path="url(#clip062)" cx="846.298" cy="1840.36" r="14" fill="#0000ff" fill-rule="evenodd" fill-opacity="1" stroke="#000000" stroke-opacity="1" stroke-width="4.8"/>
<circle clip-path="url(#clip062)" cx="1640.66" cy="2071.05" r="14" fill="#0000ff" fill-rule="evenodd" fill-opacity="1" stroke="#000000" stroke-opacity="1" stroke-width="4.8"/>
<circle clip-path="url(#clip062)" cx="1395.51" cy="1159.95" r="14" fill="#0000ff" fill-rule="evenodd" fill-opacity="1" stroke="#000000" stroke-opacity="1" stroke-width="4.8"/>
<circle clip-path="url(#clip062)" cx="1597.67" cy="1011.71" r="14" fill="#0000ff" fill-rule="evenodd" fill-opacity="1" stroke="#000000" stroke-opacity="1" stroke-width="4.8"/>
<circle clip-path="url(#clip062)" cx="779.217" cy="935.032" r="14" fill="#0000ff" fill-rule="evenodd" fill-opacity="1" stroke="#000000" stroke-opacity="1" stroke-width="4.8"/>
<circle clip-path="url(#clip062)" cx="1870.02" cy="2116.96" r="14" fill="#0000ff" fill-rule="evenodd" fill-opacity="1" stroke="#000000" stroke-opacity="1" stroke-width="4.8"/>
<circle clip-path="url(#clip062)" cx="407.193" cy="333.842" r="14" fill="#0000ff" fill-rule="evenodd" fill-opacity="1" stroke="#000000" stroke-opacity="1" stroke-width="4.8"/>
<circle clip-path="url(#clip062)" cx="1673.89" cy="1114.41" r="14" fill="#0000ff" fill-rule="evenodd" fill-opacity="1" stroke="#000000" stroke-opacity="1" stroke-width="4.8"/>
<circle clip-path="url(#clip062)" cx="1948.96" cy="1994.01" r="14" fill="#0000ff" fill-rule="evenodd" fill-opacity="1" stroke="#000000" stroke-opacity="1" stroke-width="4.8"/>
<circle clip-path="url(#clip062)" cx="1177.64" cy="1224.77" r="14" fill="#0000ff" fill-rule="evenodd" fill-opacity="1" stroke="#000000" stroke-opacity="1" stroke-width="4.8"/>
<circle clip-path="url(#clip062)" cx="1867.38" cy="1947.03" r="14" fill="#0000ff" fill-rule="evenodd" fill-opacity="1" stroke="#000000" stroke-opacity="1" stroke-width="4.8"/>
<circle clip-path="url(#clip062)" cx="1484.31" cy="1610.73" r="14" fill="#0000ff" fill-rule="evenodd" fill-opacity="1" stroke="#000000" stroke-opacity="1" stroke-width="4.8"/>
<circle clip-path="url(#clip062)" cx="1161.38" cy="1098.7" r="14" fill="#0000ff" fill-rule="evenodd" fill-opacity="1" stroke="#000000" stroke-opacity="1" stroke-width="4.8"/>
<circle clip-path="url(#clip062)" cx="1962.88" cy="1057.68" r="14" fill="#0000ff" fill-rule="evenodd" fill-opacity="1" stroke="#000000" stroke-opacity="1" stroke-width="4.8"/>
<circle clip-path="url(#clip062)" cx="656.373" cy="325.163" r="14" fill="#0000ff" fill-rule="evenodd" fill-opacity="1" stroke="#000000" stroke-opacity="1" stroke-width="4.8"/>
<circle clip-path="url(#clip062)" cx="1806.84" cy="1521.86" r="14" fill="#0000ff" fill-rule="evenodd" fill-opacity="1" stroke="#000000" stroke-opacity="1" stroke-width="4.8"/>
<circle clip-path="url(#clip062)" cx="929.17" cy="287.562" r="14" fill="#0000ff" fill-rule="evenodd" fill-opacity="1" stroke="#000000" stroke-opacity="1" stroke-width="4.8"/>
<circle clip-path="url(#clip062)" cx="1922.86" cy="1578.15" r="14" fill="#0000ff" fill-rule="evenodd" fill-opacity="1" stroke="#000000" stroke-opacity="1" stroke-width="4.8"/>
<circle clip-path="url(#clip062)" cx="1642.69" cy="350.931" r="14" fill="#0000ff" fill-rule="evenodd" fill-opacity="1" stroke="#000000" stroke-opacity="1" stroke-width="4.8"/>
<circle clip-path="url(#clip062)" cx="1019.54" cy="210.894" r="14" fill="#0000ff" fill-rule="evenodd" fill-opacity="1" stroke="#000000" stroke-opacity="1" stroke-width="4.8"/>
<circle clip-path="url(#clip062)" cx="1874.4" cy="587.87" r="14" fill="#0000ff" fill-rule="evenodd" fill-opacity="1" stroke="#000000" stroke-opacity="1" stroke-width="4.8"/>
<circle clip-path="url(#clip062)" cx="417.842" cy="1346.6" r="36" fill="#ff0000" fill-rule="evenodd" fill-opacity="1" stroke="#000000" stroke-opacity="1" stroke-width="4.8"/>
<circle clip-path="url(#clip062)" cx="502.893" cy="1257.08" r="36" fill="#ffff00" fill-rule="evenodd" fill-opacity="0.5" stroke="#000000" stroke-opacity="0.5" stroke-width="4.8"/>
<circle clip-path="url(#clip062)" cx="527.013" cy="1277.31" r="36" fill="#ffff00" fill-rule="evenodd" fill-opacity="0.5" stroke="#000000" stroke-opacity="0.5" stroke-width="4.8"/>
<circle clip-path="url(#clip062)" cx="489.285" cy="1220.09" r="36" fill="#ffff00" fill-rule="evenodd" fill-opacity="0.5" stroke="#000000" stroke-opacity="0.5" stroke-width="4.8"/>
<circle clip-path="url(#clip062)" cx="646.354" cy="1301.13" r="36" fill="#ffff00" fill-rule="evenodd" fill-opacity="0.5" stroke="#000000" stroke-opacity="0.5" stroke-width="4.8"/>
<circle clip-path="url(#clip062)" cx="345.96" cy="1025.61" r="36" fill="#ffff00" fill-rule="evenodd" fill-opacity="0.5" stroke="#000000" stroke-opacity="0.5" stroke-width="4.8"/>
<circle clip-path="url(#clip062)" cx="748.554" cy="1213.08" r="36" fill="#ffff00" fill-rule="evenodd" fill-opacity="0.5" stroke="#000000" stroke-opacity="0.5" stroke-width="4.8"/>
<circle clip-path="url(#clip062)" cx="566.071" cy="1022.02" r="36" fill="#ffff00" fill-rule="evenodd" fill-opacity="0.5" stroke="#000000" stroke-opacity="0.5" stroke-width="4.8"/>
<circle clip-path="url(#clip062)" cx="844.601" cy="1415.97" r="36" fill="#ffff00" fill-rule="evenodd" fill-opacity="0.5" stroke="#000000" stroke-opacity="0.5" stroke-width="4.8"/>
<circle clip-path="url(#clip062)" cx="510.911" cy="1814.23" r="36" fill="#ffff00" fill-rule="evenodd" fill-opacity="0.5" stroke="#000000" stroke-opacity="0.5" stroke-width="4.8"/>
<circle clip-path="url(#clip062)" cx="717.351" cy="968.916" r="36" fill="#ffff00" fill-rule="evenodd" fill-opacity="0.5" stroke="#000000" stroke-opacity="0.5" stroke-width="4.8"/>
<circle clip-path="url(#clip062)" cx="921.257" cy="1159.05" r="36" fill="#ffff00" fill-rule="evenodd" fill-opacity="0.5" stroke="#000000" stroke-opacity="0.5" stroke-width="4.8"/>
<polyline clip-path="url(#clip062)" style="stroke:#008000; stroke-linecap:butt; stroke-linejoin:round; stroke-width:4; stroke-opacity:1; fill:none" points="
  417.842,1346.6 502.893,1257.08 
  "/>
<polyline clip-path="url(#clip062)" style="stroke:#008000; stroke-linecap:butt; stroke-linejoin:round; stroke-width:4; stroke-opacity:1; fill:none" points="
  417.842,1346.6 527.013,1277.31 
  "/>
<polyline clip-path="url(#clip062)" style="stroke:#008000; stroke-linecap:butt; stroke-linejoin:round; stroke-width:4; stroke-opacity:1; fill:none" points="
  417.842,1346.6 489.285,1220.09 
  "/>
<polyline clip-path="url(#clip062)" style="stroke:#008000; stroke-linecap:butt; stroke-linejoin:round; stroke-width:4; stroke-opacity:1; fill:none" points="
  417.842,1346.6 646.354,1301.13 
  "/>
<polyline clip-path="url(#clip062)" style="stroke:#008000; stroke-linecap:butt; stroke-linejoin:round; stroke-width:4; stroke-opacity:1; fill:none" points="
  417.842,1346.6 345.96,1025.61 
  "/>
<polyline clip-path="url(#clip062)" style="stroke:#008000; stroke-linecap:butt; stroke-linejoin:round; stroke-width:4; stroke-opacity:1; fill:none" points="
  417.842,1346.6 748.554,1213.08 
  "/>
<polyline clip-path="url(#clip062)" style="stroke:#008000; stroke-linecap:butt; stroke-linejoin:round; stroke-width:4; stroke-opacity:1; fill:none" points="
  417.842,1346.6 566.071,1022.02 
  "/>
<polyline clip-path="url(#clip062)" style="stroke:#008000; stroke-linecap:butt; stroke-linejoin:round; stroke-width:4; stroke-opacity:1; fill:none" points="
  417.842,1346.6 844.601,1415.97 
  "/>
<polyline clip-path="url(#clip062)" style="stroke:#008000; stroke-linecap:butt; stroke-linejoin:round; stroke-width:4; stroke-opacity:1; fill:none" points="
  417.842,1346.6 510.911,1814.23 
  "/>
<polyline clip-path="url(#clip062)" style="stroke:#008000; stroke-linecap:butt; stroke-linejoin:round; stroke-width:4; stroke-opacity:1; fill:none" points="
  417.842,1346.6 717.351,968.916 
  "/>
<polyline clip-path="url(#clip062)" style="stroke:#008000; stroke-linecap:butt; stroke-linejoin:round; stroke-width:4; stroke-opacity:1; fill:none" points="
  417.842,1346.6 921.257,1159.05 
  "/>
<circle clip-path="url(#clip062)" cx="1765.32" cy="504.82" r="36" fill="#ff0000" fill-rule="evenodd" fill-opacity="1" stroke="#000000" stroke-opacity="1" stroke-width="4.8"/>
<circle clip-path="url(#clip062)" cx="1805.5" cy="558.05" r="36" fill="#ffff00" fill-rule="evenodd" fill-opacity="0.5" stroke="#000000" stroke-opacity="0.5" stroke-width="4.8"/>
<circle clip-path="url(#clip062)" cx="1703.1" cy="608.115" r="36" fill="#ffff00" fill-rule="evenodd" fill-opacity="0.5" stroke="#000000" stroke-opacity="0.5" stroke-width="4.8"/>
<circle clip-path="url(#clip062)" cx="1683.54" cy="606.741" r="36" fill="#ffff00" fill-rule="evenodd" fill-opacity="0.5" stroke="#000000" stroke-opacity="0.5" stroke-width="4.8"/>
<circle clip-path="url(#clip062)" cx="1853.29" cy="402.009" r="36" fill="#ffff00" fill-rule="evenodd" fill-opacity="0.5" stroke="#000000" stroke-opacity="0.5" stroke-width="4.8"/>
<circle clip-path="url(#clip062)" cx="1874.4" cy="587.87" r="36" fill="#ffff00" fill-rule="evenodd" fill-opacity="0.5" stroke="#000000" stroke-opacity="0.5" stroke-width="4.8"/>
<circle clip-path="url(#clip062)" cx="1751.95" cy="676.105" r="36" fill="#ffff00" fill-rule="evenodd" fill-opacity="0.5" stroke="#000000" stroke-opacity="0.5" stroke-width="4.8"/>
<circle clip-path="url(#clip062)" cx="1642.69" cy="350.931" r="36" fill="#ffff00" fill-rule="evenodd" fill-opacity="0.5" stroke="#000000" stroke-opacity="0.5" stroke-width="4.8"/>
<circle clip-path="url(#clip062)" cx="1948.33" cy="613.771" r="36" fill="#ffff00" fill-rule="evenodd" fill-opacity="0.5" stroke="#000000" stroke-opacity="0.5" stroke-width="4.8"/>
<circle clip-path="url(#clip062)" cx="1569.59" cy="648.59" r="36" fill="#ffff00" fill-rule="evenodd" fill-opacity="0.5" stroke="#000000" stroke-opacity="0.5" stroke-width="4.8"/>
<circle clip-path="url(#clip062)" cx="1928.33" cy="282.32" r="36" fill="#ffff00" fill-rule="evenodd" fill-opacity="0.5" stroke="#000000" stroke-opacity="0.5" stroke-width="4.8"/>
<circle clip-path="url(#clip062)" cx="1504.95" cy="622.976" r="36" fill="#ffff00" fill-rule="evenodd" fill-opacity="0.5" stroke="#000000" stroke-opacity="0.5" stroke-width="4.8"/>
<polyline clip-path="url(#clip062)" style="stroke:#008000; stroke-linecap:butt; stroke-linejoin:round; stroke-width:4; stroke-opacity:1; fill:none" points="
  1765.32,504.82 1805.5,558.05 
  "/>
<polyline clip-path="url(#clip062)" style="stroke:#008000; stroke-linecap:butt; stroke-linejoin:round; stroke-width:4; stroke-opacity:1; fill:none" points="
  1765.32,504.82 1703.1,608.115 
  "/>
<polyline clip-path="url(#clip062)" style="stroke:#008000; stroke-linecap:butt; stroke-linejoin:round; stroke-width:4; stroke-opacity:1; fill:none" points="
  1765.32,504.82 1683.54,606.741 
  "/>
<polyline clip-path="url(#clip062)" style="stroke:#008000; stroke-linecap:butt; stroke-linejoin:round; stroke-width:4; stroke-opacity:1; fill:none" points="
  1765.32,504.82 1853.29,402.009 
  "/>
<polyline clip-path="url(#clip062)" style="stroke:#008000; stroke-linecap:butt; stroke-linejoin:round; stroke-width:4; stroke-opacity:1; fill:none" points="
  1765.32,504.82 1874.4,587.87 
  "/>
<polyline clip-path="url(#clip062)" style="stroke:#008000; stroke-linecap:butt; stroke-linejoin:round; stroke-width:4; stroke-opacity:1; fill:none" points="
  1765.32,504.82 1751.95,676.105 
  "/>
<polyline clip-path="url(#clip062)" style="stroke:#008000; stroke-linecap:butt; stroke-linejoin:round; stroke-width:4; stroke-opacity:1; fill:none" points="
  1765.32,504.82 1642.69,350.931 
  "/>
<polyline clip-path="url(#clip062)" style="stroke:#008000; stroke-linecap:butt; stroke-linejoin:round; stroke-width:4; stroke-opacity:1; fill:none" points="
  1765.32,504.82 1948.33,613.771 
  "/>
<polyline clip-path="url(#clip062)" style="stroke:#008000; stroke-linecap:butt; stroke-linejoin:round; stroke-width:4; stroke-opacity:1; fill:none" points="
  1765.32,504.82 1569.59,648.59 
  "/>
<polyline clip-path="url(#clip062)" style="stroke:#008000; stroke-linecap:butt; stroke-linejoin:round; stroke-width:4; stroke-opacity:1; fill:none" points="
  1765.32,504.82 1928.33,282.32 
  "/>
<polyline clip-path="url(#clip062)" style="stroke:#008000; stroke-linecap:butt; stroke-linejoin:round; stroke-width:4; stroke-opacity:1; fill:none" points="
  1765.32,504.82 1504.95,622.976 
  "/>
</svg>
