<?xml version="1.0" encoding="UTF-8"?>
<svg xmlns="http://www.w3.org/2000/svg"
     xmlns:xlink="http://www.w3.org/1999/xlink"
     xmlns:gadfly="http://www.gadflyjl.org/ns"
     version="1.2"
     width="160mm" height="90mm" viewBox="0 0 160 90"
     stroke="none"
     fill="#000000"
     stroke-width="0.3"
     font-size="3.88"
>
<defs>
  <marker id="arrow" markerWidth="15" markerHeight="7" refX="5" refY="3.5" orient="auto" markerUnits="strokeWidth">
    <path d="M0,0 L15,3.5 L0,7 z" stroke="context-stroke" fill="context-stroke"/>
  </marker>
</defs>
<g stroke="#000000" stroke-opacity="0.000" fill="#FFFFFF" id="img-e2c40bc2-1">
  <g transform="translate(80,45)">
    <path d="M-80,-45 L80,-45 80,45 -80,45  z" class="primitive"/>
  </g>
</g>
<g class="plotroot xscalable" id="img-e2c40bc2-2">
  <g font-size="3.88" font-family="'PT Sans','Helvetica Neue','Helvetica',sans-serif" fill="#564A55" stroke="#000000" stroke-opacity="0.000" id="img-e2c40bc2-3">
    <g transform="translate(96.11,78.39)">
      <g class="primitive">
        <text text-anchor="middle" dy="0.6em">Population (mils)</text>
      </g>
    </g>
  </g>
  <g class="guide xlabels" font-size="2.82" font-family="'PT Sans Caption','Helvetica Neue','Helvetica',sans-serif" fill="#6C606B" id="img-e2c40bc2-4">
    <g transform="translate(53.98,71.72)">
      <g class="primitive">
        <text text-anchor="middle" dy="0.6em">0</text>
      </g>
    </g>
    <g transform="translate(75.04,71.72)">
      <g class="primitive">
        <text text-anchor="middle" dy="0.6em">500</text>
      </g>
    </g>
    <g transform="translate(96.11,71.72)">
      <g class="primitive">
        <text text-anchor="middle" dy="0.6em">1000</text>
      </g>
    </g>
    <g transform="translate(117.17,71.72)">
      <g class="primitive">
        <text text-anchor="middle" dy="0.6em">1500</text>
      </g>
    </g>
    <g transform="translate(138.23,71.72)">
      <g class="primitive">
        <text text-anchor="middle" dy="0.6em">2000</text>
      </g>
    </g>
  </g>
  <g class="guide colorkey" id="img-e2c40bc2-5">
    <g fill="#4C404B" font-size="2.82" font-family="'PT Sans','Helvetica Neue','Helvetica',sans-serif" id="img-e2c40bc2-6">
      <g transform="translate(144.05,35.22)" id="img-e2c40bc2-7" class="color_Oceania">
        <g class="primitive">
          <text dy="0.35em">Oceania</text>
        </g>
      </g>
      <g transform="translate(144.05,38.85)" id="img-e2c40bc2-8" class="color_Americas">
        <g class="primitive">
          <text dy="0.35em">Americas</text>
        </g>
      </g>
      <g transform="translate(144.05,42.48)" id="img-e2c40bc2-9" class="color_Africa">
        <g class="primitive">
          <text dy="0.35em">Africa</text>
        </g>
      </g>
      <g transform="translate(144.05,46.1)" id="img-e2c40bc2-10" class="color_Asia">
        <g class="primitive">
          <text dy="0.35em">Asia</text>
        </g>
      </g>
      <g transform="translate(144.05,49.73)" id="img-e2c40bc2-11" class="color_Europe">
        <g class="primitive">
          <text dy="0.35em">Europe</text>
        </g>
      </g>
    </g>
    <g fill-opacity="1" id="img-e2c40bc2-12">
      <g transform="translate(142.14,35.22)" id="img-e2c40bc2-13" stroke="#FFFFFF" fill="#00BFFF" class="color_Oceania">
        <path d="M-0.91,-0.91 L0.91,-0.91 0.91,0.91 -0.91,0.91  z" class="primitive"/>
      </g>
      <g transform="translate(142.14,38.85)" id="img-e2c40bc2-14" stroke="#FFFFFF" fill="#D4CA3A" class="color_Americas">
        <path d="M-0.91,-0.91 L0.91,-0.91 0.91,0.91 -0.91,0.91  z" class="primitive"/>
      </g>
      <g transform="translate(142.14,42.48)" id="img-e2c40bc2-15" stroke="#FFFFFF" fill="#FF6DAE" class="color_Africa">
        <path d="M-0.91,-0.91 L0.91,-0.91 0.91,0.91 -0.91,0.91  z" class="primitive"/>
      </g>
      <g transform="translate(142.14,46.1)" id="img-e2c40bc2-16" stroke="#FFFFFF" fill="#00B78D" class="color_Asia">
        <path d="M-0.91,-0.91 L0.91,-0.91 0.91,0.91 -0.91,0.91  z" class="primitive"/>
      </g>
      <g transform="translate(142.14,49.73)" id="img-e2c40bc2-17" stroke="#FFFFFF" fill="#BEA9FF" class="color_Europe">
        <path d="M-0.91,-0.91 L0.91,-0.91 0.91,0.91 -0.91,0.91  z" class="primitive"/>
      </g>
    </g>
    <g fill="#362A35" font-size="3.88" font-family="'PT Sans','Helvetica Neue','Helvetica',sans-serif" stroke="#000000" stroke-opacity="0.000" id="img-e2c40bc2-18">
      <g transform="translate(141.23,31.4)" id="img-e2c40bc2-19">
        <g class="primitive">
          <text dy="-0em">Region</text>
        </g>
      </g>
    </g>
  </g>
  <g clip-path="url(#img-e2c40bc2-20)">
    <g id="img-e2c40bc2-21">
      <g pointer-events="visible" stroke-width="0.3" fill="#000000" fill-opacity="0.000" stroke="#000000" stroke-opacity="0.000" class="guide background" id="img-e2c40bc2-22">
        <g transform="translate(96.11,40.66)" id="img-e2c40bc2-23">
          <path d="M-44.13,-30.05 L44.13,-30.05 44.13,30.05 -44.13,30.05  z" class="primitive"/>
        </g>
      </g>
      <g class="guide ygridlines xfixed" stroke-dasharray="0.5,0.5" stroke-width="0.2" stroke="#D0D0E0" id="img-e2c40bc2-24">
        <g transform="translate(96.11,67.98)" id="img-e2c40bc2-25">
          <path fill="none" d="M-44.13,0 L44.13,0 " class="primitive"/>
        </g>
        <g transform="translate(96.11,65.25)" id="img-e2c40bc2-26">
          <path fill="none" d="M-44.13,0 L44.13,0 " class="primitive"/>
        </g>
        <g transform="translate(96.11,62.52)" id="img-e2c40bc2-27">
          <path fill="none" d="M-44.13,0 L44.13,0 " class="primitive"/>
        </g>
        <g transform="translate(96.11,59.79)" id="img-e2c40bc2-28">
          <path fill="none" d="M-44.13,0 L44.13,0 " class="primitive"/>
        </g>
        <g transform="translate(96.11,57.06)" id="img-e2c40bc2-29">
          <path fill="none" d="M-44.13,0 L44.13,0 " class="primitive"/>
        </g>
        <g transform="translate(96.11,54.32)" id="img-e2c40bc2-30">
          <path fill="none" d="M-44.13,0 L44.13,0 " class="primitive"/>
        </g>
        <g transform="translate(96.11,51.59)" id="img-e2c40bc2-31">
          <path fill="none" d="M-44.13,0 L44.13,0 " class="primitive"/>
        </g>
        <g transform="translate(96.11,48.86)" id="img-e2c40bc2-32">
          <path fill="none" d="M-44.13,0 L44.13,0 " class="primitive"/>
        </g>
        <g transform="translate(96.11,46.13)" id="img-e2c40bc2-33">
          <path fill="none" d="M-44.13,0 L44.13,0 " class="primitive"/>
        </g>
        <g transform="translate(96.11,43.4)" id="img-e2c40bc2-34">
          <path fill="none" d="M-44.13,0 L44.13,0 " class="primitive"/>
        </g>
        <g transform="translate(96.11,40.66)" id="img-e2c40bc2-35">
          <path fill="none" d="M-44.13,0 L44.13,0 " class="primitive"/>
        </g>
        <g transform="translate(96.11,37.93)" id="img-e2c40bc2-36">
          <path fill="none" d="M-44.13,0 L44.13,0 " class="primitive"/>
        </g>
        <g transform="translate(96.11,35.2)" id="img-e2c40bc2-37">
          <path fill="none" d="M-44.13,0 L44.13,0 " class="primitive"/>
        </g>
        <g transform="translate(96.11,32.47)" id="img-e2c40bc2-38">
          <path fill="none" d="M-44.13,0 L44.13,0 " class="primitive"/>
        </g>
        <g transform="translate(96.11,29.74)" id="img-e2c40bc2-39">
          <path fill="none" d="M-44.13,0 L44.13,0 " class="primitive"/>
        </g>
        <g transform="translate(96.11,27)" id="img-e2c40bc2-40">
          <path fill="none" d="M-44.13,0 L44.13,0 " class="primitive"/>
        </g>
        <g transform="translate(96.11,24.27)" id="img-e2c40bc2-41">
          <path fill="none" d="M-44.13,0 L44.13,0 " class="primitive"/>
        </g>
        <g transform="translate(96.11,21.54)" id="img-e2c40bc2-42">
          <path fill="none" d="M-44.13,0 L44.13,0 " class="primitive"/>
        </g>
        <g transform="translate(96.11,18.81)" id="img-e2c40bc2-43">
          <path fill="none" d="M-44.13,0 L44.13,0 " class="primitive"/>
        </g>
        <g transform="translate(96.11,16.08)" id="img-e2c40bc2-44">
          <path fill="none" d="M-44.13,0 L44.13,0 " class="primitive"/>
        </g>
        <g transform="translate(96.11,13.34)" id="img-e2c40bc2-45">
          <path fill="none" d="M-44.13,0 L44.13,0 " class="primitive"/>
        </g>
      </g>
      <g class="guide xgridlines yfixed" stroke-dasharray="0.5,0.5" stroke-width="0.2" stroke="#D0D0E0" id="img-e2c40bc2-46">
        <g transform="translate(53.98,40.66)" id="img-e2c40bc2-47">
          <path fill="none" d="M0,-30.05 L0,30.05 " class="primitive"/>
        </g>
        <g transform="translate(75.04,40.66)" id="img-e2c40bc2-48">
          <path fill="none" d="M0,-30.05 L0,30.05 " class="primitive"/>
        </g>
        <g transform="translate(96.11,40.66)" id="img-e2c40bc2-49">
          <path fill="none" d="M0,-30.05 L0,30.05 " class="primitive"/>
        </g>
        <g transform="translate(117.17,40.66)" id="img-e2c40bc2-50">
          <path fill="none" d="M0,-30.05 L0,30.05 " class="primitive"/>
        </g>
        <g transform="translate(138.23,40.66)" id="img-e2c40bc2-51">
          <path fill="none" d="M0,-30.05 L0,30.05 " class="primitive"/>
        </g>
      </g>
      <g class="plotpanel" id="img-e2c40bc2-52">
        <metadata>
          <boundingbox value="51.97833333333335mm 10.611666666666672mm 88.255mm 60.10333333333333mm"/>
          <unitbox value="-47.47492730401758 22.5 2094.9498546080354 -22.0"/>
        </metadata>
        <g shape-rendering="crispEdges" stroke-width="0.3" id="img-e2c40bc2-53">
          <g stroke="#000000" stroke-opacity="0.000" class="geometry" id="img-e2c40bc2-54">
            <g transform="translate(56.2,51.23)" id="img-e2c40bc2-55" fill="#BEA9FF">
              <path d="M-2.22,-0.87 L2.22,-0.87 2.22,0.87 -2.22,0.87  z" class="primitive"/>
            </g>
            <g transform="translate(57.19,48.49)" id="img-e2c40bc2-56" fill="#BEA9FF">
              <path d="M-3.21,-0.87 L3.21,-0.87 3.21,0.87 -3.21,0.87  z" class="primitive"/>
            </g>
            <g transform="translate(58.1,40.3)" id="img-e2c40bc2-57" fill="#BEA9FF">
              <path d="M-4.12,-0.87 L4.12,-0.87 4.12,0.87 -4.12,0.87  z" class="primitive"/>
            </g>
            <g transform="translate(60.16,32.1)" id="img-e2c40bc2-58" fill="#BEA9FF">
              <path d="M-6.18,-0.87 L6.18,-0.87 6.18,0.87 -6.18,0.87  z" class="primitive"/>
            </g>
            <g transform="translate(55.52,53.96)" id="img-e2c40bc2-59" fill="#00B78D">
              <path d="M-1.54,-0.87 L1.54,-0.87 1.54,0.87 -1.54,0.87  z" class="primitive"/>
            </g>
            <g transform="translate(59.78,34.83)" id="img-e2c40bc2-60" fill="#00B78D">
              <path d="M-5.8,-0.87 L5.8,-0.87 5.8,0.87 -5.8,0.87  z" class="primitive"/>
            </g>
            <g transform="translate(67.91,18.44)" id="img-e2c40bc2-61" fill="#00B78D">
              <path d="M-13.93,-0.87 L13.93,-0.87 13.93,0.87 -13.93,0.87  z" class="primitive"/>
            </g>
            <g transform="translate(88.71,15.71)" id="img-e2c40bc2-62" fill="#00B78D">
              <path d="M-34.73,-0.87 L34.73,-0.87 34.73,0.87 -34.73,0.87  z" class="primitive"/>
            </g>
            <g transform="translate(94.38,12.98)" id="img-e2c40bc2-63" fill="#00B78D">
              <path d="M-40.4,-0.87 L40.4,-0.87 40.4,0.87 -40.4,0.87  z" class="primitive"/>
            </g>
            <g transform="translate(55.38,56.69)" id="img-e2c40bc2-64" fill="#FF6DAE">
              <path d="M-1.4,-0.87 L1.4,-0.87 1.4,0.87 -1.4,0.87  z" class="primitive"/>
            </g>
            <g transform="translate(57.65,45.76)" id="img-e2c40bc2-65" fill="#FF6DAE">
              <path d="M-3.67,-0.87 L3.67,-0.87 3.67,0.87 -3.67,0.87  z" class="primitive"/>
            </g>
            <g transform="translate(59.06,37.57)" id="img-e2c40bc2-66" fill="#FF6DAE">
              <path d="M-5.08,-0.87 L5.08,-0.87 5.08,0.87 -5.08,0.87  z" class="primitive"/>
            </g>
            <g transform="translate(62.19,26.64)" id="img-e2c40bc2-67" fill="#FF6DAE">
              <path d="M-8.21,-0.87 L8.21,-0.87 8.21,0.87 -8.21,0.87  z" class="primitive"/>
            </g>
            <g transform="translate(63.08,21.17)" id="img-e2c40bc2-68" fill="#FF6DAE">
              <path d="M-9.1,-0.87 L9.1,-0.87 9.1,0.87 -9.1,0.87  z" class="primitive"/>
            </g>
            <g transform="translate(54.87,59.42)" id="img-e2c40bc2-69" fill="#D4CA3A">
              <path d="M-0.89,-0.87 L0.89,-0.87 0.89,0.87 -0.89,0.87  z" class="primitive"/>
            </g>
            <g transform="translate(57.72,43.03)" id="img-e2c40bc2-70" fill="#D4CA3A">
              <path d="M-3.74,-0.87 L3.74,-0.87 3.74,0.87 -3.74,0.87  z" class="primitive"/>
            </g>
            <g transform="translate(61.7,29.37)" id="img-e2c40bc2-71" fill="#D4CA3A">
              <path d="M-7.72,-0.87 L7.72,-0.87 7.72,0.87 -7.72,0.87  z" class="primitive"/>
            </g>
            <g transform="translate(62.97,23.91)" id="img-e2c40bc2-72" fill="#D4CA3A">
              <path d="M-8.99,-0.87 L8.99,-0.87 8.99,0.87 -8.99,0.87  z" class="primitive"/>
            </g>
            <g transform="translate(53.99,70.35)" id="img-e2c40bc2-73" fill="#00BFFF">
              <path d="M-0.01,-0.87 L0.01,-0.87 0.01,0.87 -0.01,0.87  z" class="primitive"/>
            </g>
            <g transform="translate(53.99,67.62)" id="img-e2c40bc2-74" fill="#00BFFF">
              <path d="M-0.01,-0.87 L0.01,-0.87 0.01,0.87 -0.01,0.87  z" class="primitive"/>
            </g>
            <g transform="translate(54.21,64.89)" id="img-e2c40bc2-75" fill="#00BFFF">
              <path d="M-0.23,-0.87 L0.23,-0.87 0.23,0.87 -0.23,0.87  z" class="primitive"/>
            </g>
            <g transform="translate(54.61,62.15)" id="img-e2c40bc2-76" fill="#00BFFF">
              <path d="M-0.63,-0.87 L0.63,-0.87 0.63,0.87 -0.63,0.87  z" class="primitive"/>
            </g>
          </g>
        </g>
      </g>
    </g>
  </g>
  <g class="guide ylabels" font-size="2.82" font-family="'PT Sans Caption','Helvetica Neue','Helvetica',sans-serif" fill="#6C606B" id="img-e2c40bc2-77">
    <g transform="translate(50.98,69.35)" id="img-e2c40bc2-78">
      <g class="primitive">
        <text text-anchor="end" dy="0.35em">Micronesia</text>
      </g>
    </g>
    <g transform="translate(50.98,66.62)" id="img-e2c40bc2-79">
      <g class="primitive">
        <text text-anchor="end" dy="0.35em">Polynesia</text>
      </g>
    </g>
    <g transform="translate(50.98,63.89)" id="img-e2c40bc2-80">
      <g class="primitive">
        <text text-anchor="end" dy="0.35em">Melanesia</text>
      </g>
    </g>
    <g transform="translate(50.98,61.15)" id="img-e2c40bc2-81">
      <g class="primitive">
        <text text-anchor="end" dy="0.35em">Australia and New Zealand</text>
      </g>
    </g>
    <g transform="translate(50.98,58.42)" id="img-e2c40bc2-82">
      <g class="primitive">
        <text text-anchor="end" dy="0.35em">Caribbean</text>
      </g>
    </g>
    <g transform="translate(50.98,55.69)" id="img-e2c40bc2-83">
      <g class="primitive">
        <text text-anchor="end" dy="0.35em">Southern Africa</text>
      </g>
    </g>
    <g transform="translate(50.98,52.96)" id="img-e2c40bc2-84">
      <g class="primitive">
        <text text-anchor="end" dy="0.35em">Central Asia</text>
      </g>
    </g>
    <g transform="translate(50.98,50.23)" id="img-e2c40bc2-85">
      <g class="primitive">
        <text text-anchor="end" dy="0.35em">Northern Europe</text>
      </g>
    </g>
    <g transform="translate(50.98,47.49)" id="img-e2c40bc2-86">
      <g class="primitive">
        <text text-anchor="end" dy="0.35em">Southern Europe</text>
      </g>
    </g>
    <g transform="translate(50.98,44.76)" id="img-e2c40bc2-87">
      <g class="primitive">
        <text text-anchor="end" dy="0.35em">Middle Africa</text>
      </g>
    </g>
    <g transform="translate(50.98,42.03)" id="img-e2c40bc2-88">
      <g class="primitive">
        <text text-anchor="end" dy="0.35em">Central America</text>
      </g>
    </g>
    <g transform="translate(50.98,39.3)" id="img-e2c40bc2-89">
      <g class="primitive">
        <text text-anchor="end" dy="0.35em">Western Europe</text>
      </g>
    </g>
    <g transform="translate(50.98,36.57)" id="img-e2c40bc2-90">
      <g class="primitive">
        <text text-anchor="end" dy="0.35em">Northern Africa</text>
      </g>
    </g>
    <g transform="translate(50.98,33.83)" id="img-e2c40bc2-91">
      <g class="primitive">
        <text text-anchor="end" dy="0.35em">Western Asia</text>
      </g>
    </g>
    <g transform="translate(50.98,31.1)" id="img-e2c40bc2-92">
      <g class="primitive">
        <text text-anchor="end" dy="0.35em">Eastern Europe</text>
      </g>
    </g>
    <g transform="translate(50.98,28.37)" id="img-e2c40bc2-93">
      <g class="primitive">
        <text text-anchor="end" dy="0.35em">Northern America</text>
      </g>
    </g>
    <g transform="translate(50.98,25.64)" id="img-e2c40bc2-94">
      <g class="primitive">
        <text text-anchor="end" dy="0.35em">Western Africa</text>
      </g>
    </g>
    <g transform="translate(50.98,22.91)" id="img-e2c40bc2-95">
      <g class="primitive">
        <text text-anchor="end" dy="0.35em">South America</text>
      </g>
    </g>
    <g transform="translate(50.98,20.17)" id="img-e2c40bc2-96">
      <g class="primitive">
        <text text-anchor="end" dy="0.35em">Eastern Africa</text>
      </g>
    </g>
    <g transform="translate(50.98,17.44)" id="img-e2c40bc2-97">
      <g class="primitive">
        <text text-anchor="end" dy="0.35em">South-eastern Asia</text>
      </g>
    </g>
    <g transform="translate(50.98,14.71)" id="img-e2c40bc2-98">
      <g class="primitive">
        <text text-anchor="end" dy="0.35em">Eastern Asia</text>
      </g>
    </g>
    <g transform="translate(50.98,11.98)" id="img-e2c40bc2-99">
      <g class="primitive">
        <text text-anchor="end" dy="0.35em">Southern Asia</text>
      </g>
    </g>
  </g>
  <g font-size="3.88" font-family="'PT Sans','Helvetica Neue','Helvetica',sans-serif" fill="#564A55" stroke="#000000" stroke-opacity="0.000" id="img-e2c40bc2-100">
    <g transform="translate(8.81,38.66)" id="img-e2c40bc2-101">
      <g class="primitive">
        <text text-anchor="middle" dy="0.35em" transform="rotate(-90,0, 2)">Subregion</text>
      </g>
    </g>
  </g>
  <g font-size="3.88" font-family="'PT Sans','Helvetica Neue','Helvetica',sans-serif" fill="#564A55" stroke="#000000" stroke-opacity="0.000" id="img-e2c40bc2-102">
    <g transform="translate(96.11,5)" id="img-e2c40bc2-103">
      <g class="primitive">
        <text text-anchor="middle" dy="0.6em">2019 Population by Subregion</text>
      </g>
    </g>
  </g>
</g>
<defs>
  <clipPath id="img-e2c40bc2-20">
    <path d="M51.98,10.61 L140.23,10.61 140.23,70.72 51.98,70.72 " />
  </clipPath>
</defs>
</svg>
