<?xml version="1.0" encoding="UTF-8"?>
<svg xmlns="http://www.w3.org/2000/svg"
     xmlns:xlink="http://www.w3.org/1999/xlink"
     xmlns:gadfly="http://www.gadflyjl.org/ns"
     version="1.2"
     width="160mm" height="90mm" viewBox="0 0 160 90"
     stroke="none"
     fill="#000000"
     stroke-width="0.3"
     font-size="3.88"
>
<defs>
  <marker id="arrow" markerWidth="15" markerHeight="7" refX="5" refY="3.5" orient="auto" markerUnits="strokeWidth">
    <path d="M0,0 L15,3.5 L0,7 z" stroke="context-stroke" fill="context-stroke"/>
  </marker>
</defs>
<g stroke="#000000" stroke-opacity="0.000" fill="#FFFFFF" id="img-866aac04-1">
  <g transform="translate(80,45)">
    <path d="M-80,-45 L80,-45 80,45 -80,45  z" class="primitive"/>
  </g>
</g>
<g class="plotroot xscalable yscalable" id="img-866aac04-2">
  <g font-size="3.88" font-family="'PT Sans','Helvetica Neue','Helvetica',sans-serif" fill="#564A55" stroke="#000000" stroke-opacity="0.000" id="img-866aac04-3">
    <g transform="translate(80.27,78.39)">
      <g class="primitive">
        <text text-anchor="middle" dy="0.6em">Population (mils)</text>
      </g>
    </g>
  </g>
  <g class="guide xlabels" font-size="2.82" font-family="'PT Sans Caption','Helvetica Neue','Helvetica',sans-serif" fill="#6C606B" id="img-866aac04-4">
    <g transform="translate(22.31,71.72)">
      <g class="primitive">
        <text text-anchor="middle" dy="0.6em">-50</text>
      </g>
    </g>
    <g transform="translate(51.29,71.72)">
      <g class="primitive">
        <text text-anchor="middle" dy="0.6em">0</text>
      </g>
    </g>
    <g transform="translate(80.27,71.72)">
      <g class="primitive">
        <text text-anchor="middle" dy="0.6em">50</text>
      </g>
    </g>
    <g transform="translate(109.25,71.72)">
      <g class="primitive">
        <text text-anchor="middle" dy="0.6em">100</text>
      </g>
    </g>
    <g transform="translate(138.23,71.72)">
      <g class="primitive">
        <text text-anchor="middle" dy="0.6em">150</text>
      </g>
    </g>
  </g>
  <g class="guide colorkey" id="img-866aac04-5">
    <g fill="#4C404B" font-size="2.82" font-family="'PT Sans','Helvetica Neue','Helvetica',sans-serif" id="img-866aac04-6">
      <g transform="translate(144.05,37.04)" id="img-866aac04-7" class="color_Africa">
        <g class="primitive">
          <text dy="0.35em">Africa</text>
        </g>
      </g>
      <g transform="translate(144.05,40.66)" id="img-866aac04-8" class="color_Americas">
        <g class="primitive">
          <text dy="0.35em">Americas</text>
        </g>
      </g>
      <g transform="translate(144.05,44.29)" id="img-866aac04-9" class="color_Asia">
        <g class="primitive">
          <text dy="0.35em">Asia</text>
        </g>
      </g>
      <g transform="translate(144.05,47.92)" id="img-866aac04-10" class="color_Europe">
        <g class="primitive">
          <text dy="0.35em">Europe</text>
        </g>
      </g>
    </g>
    <g fill-opacity="1" id="img-866aac04-11">
      <g transform="translate(142.14,37.04)" id="img-866aac04-12" stroke="#FFFFFF" fill="#00BFFF" class="color_Africa">
        <path d="M-0.91,-0.91 L0.91,-0.91 0.91,0.91 -0.91,0.91  z" class="primitive"/>
      </g>
      <g transform="translate(142.14,40.66)" id="img-866aac04-13" stroke="#FFFFFF" fill="#D4CA3A" class="color_Americas">
        <path d="M-0.91,-0.91 L0.91,-0.91 0.91,0.91 -0.91,0.91  z" class="primitive"/>
      </g>
      <g transform="translate(142.14,44.29)" id="img-866aac04-14" stroke="#FFFFFF" fill="#FF6DAE" class="color_Asia">
        <path d="M-0.91,-0.91 L0.91,-0.91 0.91,0.91 -0.91,0.91  z" class="primitive"/>
      </g>
      <g transform="translate(142.14,47.92)" id="img-866aac04-15" stroke="#FFFFFF" fill="#00B78D" class="color_Europe">
        <path d="M-0.91,-0.91 L0.91,-0.91 0.91,0.91 -0.91,0.91  z" class="primitive"/>
      </g>
    </g>
    <g fill="#362A35" font-size="3.88" font-family="'PT Sans','Helvetica Neue','Helvetica',sans-serif" stroke="#000000" stroke-opacity="0.000" id="img-866aac04-16">
      <g transform="translate(141.23,33.22)" id="img-866aac04-17">
        <g class="primitive">
          <text dy="-0em">Region</text>
        </g>
      </g>
    </g>
  </g>
  <g clip-path="url(#img-866aac04-18)">
    <g id="img-866aac04-19">
      <g pointer-events="visible" stroke-width="0.3" fill="#000000" fill-opacity="0.000" stroke="#000000" stroke-opacity="0.000" class="guide background" id="img-866aac04-20">
        <g transform="translate(80.27,40.66)" id="img-866aac04-21">
          <path d="M-59.96,-30.05 L59.96,-30.05 59.96,30.05 -59.96,30.05  z" class="primitive"/>
        </g>
      </g>
      <g class="guide ygridlines xfixed" stroke-dasharray="0.5,0.5" stroke-width="0.2" stroke="#D0D0E0" id="img-866aac04-22">
        <g transform="translate(80.27,68.72)" id="img-866aac04-23">
          <path fill="none" d="M-59.96,0 L59.96,0 " class="primitive"/>
        </g>
        <g transform="translate(80.27,54.69)" id="img-866aac04-24">
          <path fill="none" d="M-59.96,0 L59.96,0 " class="primitive"/>
        </g>
        <g transform="translate(80.27,40.66)" id="img-866aac04-25">
          <path fill="none" d="M-59.96,0 L59.96,0 " class="primitive"/>
        </g>
        <g transform="translate(80.27,26.64)" id="img-866aac04-26">
          <path fill="none" d="M-59.96,0 L59.96,0 " class="primitive"/>
        </g>
        <g transform="translate(80.27,12.61)" id="img-866aac04-27">
          <path fill="none" d="M-59.96,0 L59.96,0 " class="primitive"/>
        </g>
      </g>
      <g class="guide xgridlines yfixed" stroke-dasharray="0.5,0.5" stroke-width="0.2" stroke="#D0D0E0" id="img-866aac04-28">
        <g transform="translate(22.31,40.66)" id="img-866aac04-29">
          <path fill="none" d="M0,-30.05 L0,30.05 " class="primitive"/>
        </g>
        <g transform="translate(51.29,40.66)" id="img-866aac04-30">
          <path fill="none" d="M0,-30.05 L0,30.05 " class="primitive"/>
        </g>
        <g transform="translate(80.27,40.66)" id="img-866aac04-31">
          <path fill="none" d="M0,-30.05 L0,30.05 " class="primitive"/>
        </g>
        <g transform="translate(109.25,40.66)" id="img-866aac04-32">
          <path fill="none" d="M0,-30.05 L0,30.05 " class="primitive"/>
        </g>
        <g transform="translate(138.23,40.66)" id="img-866aac04-33">
          <path fill="none" d="M0,-30.05 L0,30.05 " class="primitive"/>
        </g>
      </g>
      <g class="plotpanel" id="img-866aac04-34">
        <metadata>
          <boundingbox value="20.305000000000007mm 10.611666666666665mm 119.92833333333331mm 60.10333333333334mm"/>
          <unitbox value="-53.45040757939532 0.08285188045867745 206.90081515879064 -0.08570376091735488"/>
        </metadata>
        <g stroke-width="0.3" fill="#000000" fill-opacity="0.000" class="geometry" id="img-866aac04-35">
          <g transform="translate(65.88,59.76)" id="img-866aac04-36" class="color_Americas" stroke-dasharray="none" stroke="#D4CA3A">
            <path fill="none" d="M-22.6,8.95 L-22.42,8.94 -22.25,8.93 -22.07,8.93 -21.89,8.91 -21.71,8.9 -21.54,8.87 -21.36,8.84 -21.18,8.8 -21.01,8.75 -20.83,8.68 -20.65,8.59 -20.47,8.48 -20.3,8.34 -20.12,8.16 -19.94,7.94 -19.76,7.66 -19.59,7.33 -19.41,6.92 -19.23,6.44 -19.06,5.86 -18.88,5.18 -18.7,4.39 -18.52,3.46 -18.35,2.41 -18.17,1.21 -17.99,-0.14 -17.81,-1.64 -17.64,-3.3 -17.46,-5.12 -17.28,-7.08 -17.11,-9.17 -16.93,-11.39 -16.75,-13.71 -16.57,-16.11 -16.4,-18.56 -16.22,-21.03 -16.04,-23.48 -15.86,-25.88 -15.69,-28.19 -15.51,-30.38 -15.33,-32.4 -15.16,-34.23 -14.98,-35.83 -14.8,-37.18 -14.62,-38.25 -14.45,-39.04 -14.27,-39.53 -14.09,-39.72 -13.91,-39.62 -13.74,-39.24 -13.56,-38.59 -13.38,-37.71 -13.21,-36.6 -13.03,-35.32 -12.85,-33.87 -12.67,-32.31 -12.5,-30.66 -12.32,-28.95 -12.14,-27.21 -11.96,-25.48 -11.79,-23.77 -11.61,-22.11 -11.43,-20.52 -11.26,-19 -11.08,-17.57 -10.9,-16.24 -10.72,-15 -10.55,-13.86 -10.37,-12.82 -10.19,-11.87 -10.02,-11.01 -9.84,-10.22 -9.66,-9.5 -9.48,-8.84 -9.31,-8.23 -9.13,-7.67 -8.95,-7.13 -8.77,-6.63 -8.6,-6.14 -8.42,-5.67 -8.24,-5.21 -8.07,-4.76 -7.89,-4.31 -7.71,-3.87 -7.53,-3.43 -7.36,-3 -7.18,-2.59 -7,-2.18 -6.82,-1.79 -6.65,-1.41 -6.47,-1.06 -6.29,-0.72 -6.12,-0.4 -5.94,-0.11 -5.76,0.16 -5.58,0.42 -5.41,0.66 -5.23,0.88 -5.05,1.1 -4.87,1.31 -4.7,1.51 -4.52,1.72 -4.34,1.93 -4.17,2.15 -3.99,2.38 -3.81,2.62 -3.63,2.87 -3.46,3.13 -3.28,3.4 -3.1,3.68 -2.92,3.97 -2.75,4.26 -2.57,4.56 -2.39,4.84 -2.22,5.13 -2.04,5.39 -1.86,5.65 -1.68,5.89 -1.51,6.1 -1.33,6.29 -1.15,6.46 -0.97,6.6 -0.8,6.71 -0.62,6.8 -0.44,6.85 -0.27,6.88 -0.09,6.89 0.09,6.87 0.27,6.84 0.44,6.78 0.62,6.71 0.8,6.63 0.97,6.54 1.15,6.44 1.33,6.33 1.51,6.23 1.68,6.12 1.86,6.02 2.04,5.92 2.22,5.83 2.39,5.75 2.57,5.67 2.75,5.61 2.92,5.55 3.1,5.5 3.28,5.47 3.46,5.44 3.63,5.42 3.81,5.41 3.99,5.41 4.17,5.41 4.34,5.42 4.52,5.44 4.7,5.46 4.87,5.49 5.05,5.52 5.23,5.56 5.41,5.6 5.58,5.64 5.76,5.69 5.94,5.74 6.12,5.79 6.29,5.85 6.47,5.9 6.65,5.96 6.82,6.03 7,6.09 7.18,6.15 7.36,6.22 7.53,6.28 7.71,6.35 7.89,6.41 8.07,6.46 8.24,6.52 8.42,6.56 8.6,6.6 8.77,6.64 8.95,6.66 9.13,6.68 9.31,6.69 9.48,6.69 9.66,6.68 9.84,6.66 10.02,6.64 10.19,6.61 10.37,6.58 10.55,6.54 10.72,6.5 10.9,6.46 11.08,6.42 11.26,6.38 11.43,6.35 11.61,6.32 11.79,6.29 11.96,6.26 12.14,6.24 12.32,6.22 12.5,6.21 12.67,6.21 12.85,6.2 13.03,6.21 13.21,6.22 13.38,6.24 13.56,6.26 13.74,6.3 13.91,6.34 14.09,6.38 14.27,6.44 14.45,6.5 14.62,6.57 14.8,6.65 14.98,6.74 15.16,6.83 15.33,6.94 15.51,7.04 15.69,7.15 15.86,7.27 16.04,7.39 16.22,7.51 16.4,7.62 16.57,7.74 16.75,7.86 16.93,7.97 17.11,8.07 17.28,8.17 17.46,8.27 17.64,8.35 17.81,8.43 17.99,8.51 18.17,8.57 18.35,8.63 18.52,8.68 18.7,8.73 18.88,8.77 19.06,8.8 19.23,8.83 19.41,8.85 19.59,8.87 19.76,8.89 19.94,8.9 20.12,8.92 20.3,8.93 20.47,8.93 20.65,8.94 20.83,8.94 21.01,8.95 21.18,8.95 21.36,8.95 21.54,8.95 21.71,8.95 21.89,8.95 22.07,8.95 22.25,8.95 22.42,8.95 22.6,8.95 " class="primitive"/>
          </g>
          <g transform="translate(75.5,62.08)" id="img-866aac04-37" class="color_Europe" stroke-dasharray="none" stroke="#00B78D">
            <path fill="none" d="M-30.5,6.63 L-30.26,6.63 -30.03,6.62 -29.79,6.61 -29.55,6.58 -29.31,6.55 -29.07,6.49 -28.83,6.41 -28.59,6.28 -28.35,6.08 -28.11,5.8 -27.87,5.41 -27.63,4.88 -27.39,4.16 -27.15,3.22 -26.91,2.02 -26.68,0.54 -26.44,-1.26 -26.2,-3.38 -25.96,-5.82 -25.72,-8.55 -25.48,-11.53 -25.24,-14.68 -25,-17.92 -24.76,-21.16 -24.52,-24.28 -24.28,-27.2 -24.04,-29.81 -23.8,-32.04 -23.57,-33.84 -23.33,-35.18 -23.09,-36.05 -22.85,-36.48 -22.61,-36.51 -22.37,-36.2 -22.13,-35.6 -21.89,-34.8 -21.65,-33.86 -21.41,-32.85 -21.17,-31.82 -20.93,-30.84 -20.69,-29.93 -20.46,-29.1 -20.22,-28.37 -19.98,-27.69 -19.74,-27.05 -19.5,-26.4 -19.26,-25.67 -19.02,-24.82 -18.78,-23.79 -18.54,-22.56 -18.3,-21.1 -18.06,-19.41 -17.82,-17.52 -17.58,-15.47 -17.35,-13.33 -17.11,-11.17 -16.87,-9.05 -16.63,-7.05 -16.39,-5.22 -16.15,-3.6 -15.91,-2.23 -15.67,-1.11 -15.43,-0.24 -15.19,0.42 -14.95,0.88 -14.71,1.2 -14.47,1.4 -14.24,1.54 -14,1.66 -13.76,1.77 -13.52,1.91 -13.28,2.09 -13.04,2.32 -12.8,2.59 -12.56,2.91 -12.32,3.27 -12.08,3.64 -11.84,4.03 -11.6,4.4 -11.36,4.76 -11.12,5.1 -10.89,5.39 -10.65,5.66 -10.41,5.88 -10.17,6.06 -9.93,6.21 -9.69,6.33 -9.45,6.42 -9.21,6.48 -8.97,6.53 -8.73,6.57 -8.49,6.59 -8.25,6.61 -8.01,6.62 -7.78,6.62 -7.54,6.62 -7.3,6.62 -7.06,6.61 -6.82,6.6 -6.58,6.58 -6.34,6.55 -6.1,6.51 -5.86,6.46 -5.62,6.39 -5.38,6.29 -5.14,6.18 -4.9,6.04 -4.67,5.87 -4.43,5.68 -4.19,5.48 -3.95,5.25 -3.71,5.02 -3.47,4.79 -3.23,4.57 -2.99,4.38 -2.75,4.21 -2.51,4.08 -2.27,3.99 -2.03,3.93 -1.79,3.9 -1.56,3.89 -1.32,3.88 -1.08,3.88 -0.84,3.86 -0.6,3.81 -0.36,3.72 -0.12,3.6 0.12,3.45 0.36,3.27 0.6,3.07 0.84,2.87 1.08,2.67 1.32,2.5 1.56,2.37 1.79,2.29 2.03,2.27 2.27,2.32 2.51,2.42 2.75,2.6 2.99,2.83 3.23,3.1 3.47,3.42 3.71,3.76 3.95,4.1 4.19,4.45 4.43,4.79 4.67,5.1 4.9,5.39 5.14,5.64 5.38,5.85 5.62,6.03 5.86,6.17 6.1,6.28 6.34,6.36 6.58,6.41 6.82,6.43 7.06,6.43 7.3,6.4 7.54,6.34 7.78,6.26 8.01,6.15 8.25,6.01 8.49,5.84 8.73,5.64 8.97,5.42 9.21,5.18 9.45,4.92 9.69,4.66 9.93,4.4 10.17,4.15 10.41,3.91 10.65,3.7 10.89,3.5 11.12,3.32 11.36,3.16 11.6,3.01 11.84,2.87 12.08,2.72 12.32,2.58 12.56,2.43 12.8,2.29 13.04,2.15 13.28,2.04 13.52,1.94 13.76,1.89 14,1.89 14.24,1.94 14.47,2.06 14.71,2.23 14.95,2.47 15.19,2.75 15.43,3.08 15.67,3.44 15.91,3.82 16.15,4.19 16.39,4.56 16.63,4.9 16.87,5.22 17.11,5.5 17.35,5.75 17.58,5.95 17.82,6.12 18.06,6.25 18.3,6.36 18.54,6.44 18.78,6.5 19.02,6.53 19.26,6.56 19.5,6.57 19.74,6.57 19.98,6.55 20.22,6.52 20.46,6.48 20.69,6.42 20.93,6.34 21.17,6.24 21.41,6.12 21.65,5.97 21.89,5.79 22.13,5.6 22.37,5.38 22.61,5.16 22.85,4.94 23.09,4.73 23.33,4.54 23.57,4.38 23.8,4.27 24.04,4.21 24.28,4.2 24.52,4.25 24.76,4.35 25,4.49 25.24,4.67 25.48,4.88 25.72,5.1 25.96,5.33 26.2,5.54 26.44,5.74 26.68,5.92 26.91,6.08 27.15,6.21 27.39,6.32 27.63,6.41 27.87,6.47 28.11,6.52 28.35,6.56 28.59,6.59 28.83,6.6 29.07,6.62 29.31,6.62 29.55,6.63 29.79,6.63 30.03,6.63 30.26,6.63 30.5,6.63 " class="primitive"/>
          </g>
          <g transform="translate(79.37,64.43)" id="img-866aac04-38" class="color_Asia" stroke-dasharray="none" stroke="#FF6DAE">
            <path fill="none" d="M-47.25,4.28 L-46.88,4.28 -46.51,4.28 -46.14,4.28 -45.76,4.28 -45.39,4.28 -45.02,4.27 -44.65,4.27 -44.28,4.27 -43.91,4.26 -43.54,4.25 -43.17,4.24 -42.8,4.23 -42.43,4.21 -42.06,4.19 -41.69,4.17 -41.32,4.14 -40.95,4.1 -40.58,4.06 -40.21,4 -39.84,3.94 -39.47,3.86 -39.09,3.77 -38.72,3.66 -38.35,3.53 -37.98,3.39 -37.61,3.21 -37.24,3.02 -36.87,2.79 -36.5,2.53 -36.13,2.24 -35.76,1.91 -35.39,1.55 -35.02,1.14 -34.65,0.7 -34.28,0.21 -33.91,-0.32 -33.54,-0.89 -33.17,-1.5 -32.79,-2.15 -32.42,-2.83 -32.05,-3.55 -31.68,-4.3 -31.31,-5.07 -30.94,-5.86 -30.57,-6.66 -30.2,-7.46 -29.83,-8.26 -29.46,-9.05 -29.09,-9.81 -28.72,-10.55 -28.35,-11.26 -27.98,-11.92 -27.61,-12.52 -27.24,-13.07 -26.87,-13.55 -26.5,-13.96 -26.12,-14.29 -25.75,-14.55 -25.38,-14.73 -25.01,-14.82 -24.64,-14.84 -24.27,-14.77 -23.9,-14.63 -23.53,-14.42 -23.16,-14.14 -22.79,-13.8 -22.42,-13.41 -22.05,-12.97 -21.68,-12.48 -21.31,-11.97 -20.94,-11.43 -20.57,-10.88 -20.2,-10.31 -19.83,-9.74 -19.45,-9.18 -19.08,-8.63 -18.71,-8.09 -18.34,-7.57 -17.97,-7.07 -17.6,-6.61 -17.23,-6.17 -16.86,-5.76 -16.49,-5.39 -16.12,-5.04 -15.75,-4.73 -15.38,-4.45 -15.01,-4.2 -14.64,-3.97 -14.27,-3.77 -13.9,-3.6 -13.53,-3.44 -13.16,-3.3 -12.78,-3.18 -12.41,-3.06 -12.04,-2.96 -11.67,-2.86 -11.3,-2.77 -10.93,-2.67 -10.56,-2.58 -10.19,-2.48 -9.82,-2.38 -9.45,-2.27 -9.08,-2.15 -8.71,-2.03 -8.34,-1.9 -7.97,-1.76 -7.6,-1.61 -7.23,-1.45 -6.86,-1.29 -6.48,-1.12 -6.11,-0.95 -5.74,-0.77 -5.37,-0.59 -5,-0.42 -4.63,-0.24 -4.26,-0.06 -3.89,0.11 -3.52,0.28 -3.15,0.44 -2.78,0.6 -2.41,0.75 -2.04,0.89 -1.67,1.03 -1.3,1.15 -0.93,1.27 -0.56,1.38 -0.19,1.49 0.19,1.58 0.56,1.67 0.93,1.76 1.3,1.84 1.67,1.91 2.04,1.99 2.41,2.05 2.78,2.12 3.15,2.18 3.52,2.24 3.89,2.3 4.26,2.36 4.63,2.42 5,2.47 5.37,2.52 5.74,2.57 6.11,2.62 6.48,2.66 6.86,2.7 7.23,2.74 7.6,2.78 7.97,2.81 8.34,2.84 8.71,2.86 9.08,2.88 9.45,2.9 9.82,2.91 10.19,2.91 10.56,2.92 10.93,2.91 11.3,2.91 11.67,2.9 12.04,2.89 12.41,2.87 12.78,2.85 13.16,2.83 13.53,2.8 13.9,2.77 14.27,2.74 14.64,2.71 15.01,2.68 15.38,2.64 15.75,2.61 16.12,2.57 16.49,2.54 16.86,2.5 17.23,2.47 17.6,2.44 17.97,2.41 18.34,2.39 18.71,2.36 19.08,2.35 19.45,2.33 19.83,2.33 20.2,2.32 20.57,2.32 20.94,2.33 21.31,2.34 21.68,2.36 22.05,2.38 22.42,2.4 22.79,2.43 23.16,2.46 23.53,2.5 23.9,2.54 24.27,2.58 24.64,2.63 25.01,2.67 25.38,2.72 25.75,2.77 26.12,2.82 26.5,2.87 26.87,2.92 27.24,2.98 27.61,3.03 27.98,3.08 28.35,3.14 28.72,3.19 29.09,3.25 29.46,3.3 29.83,3.36 30.2,3.41 30.57,3.47 30.94,3.52 31.31,3.57 31.68,3.63 32.05,3.68 32.42,3.73 32.79,3.77 33.17,3.82 33.54,3.86 33.91,3.9 34.28,3.94 34.65,3.98 35.02,4.01 35.39,4.04 35.76,4.07 36.13,4.1 36.5,4.12 36.87,4.14 37.24,4.16 37.61,4.18 37.98,4.2 38.35,4.21 38.72,4.22 39.09,4.23 39.47,4.24 39.84,4.25 40.21,4.25 40.58,4.26 40.95,4.26 41.32,4.27 41.69,4.27 42.06,4.27 42.43,4.28 42.8,4.28 43.17,4.28 43.54,4.28 43.91,4.28 44.28,4.28 44.65,4.28 45.02,4.28 45.39,4.28 45.76,4.28 46.14,4.28 46.51,4.28 46.88,4.28 47.25,4.28 " class="primitive"/>
          </g>
          <g transform="translate(76.47,63.86)" id="img-866aac04-39" class="color_Africa" stroke-dasharray="none" stroke="#00BFFF">
            <path fill="none" d="M-41.71,4.85 L-41.38,4.85 -41.05,4.85 -40.72,4.85 -40.4,4.85 -40.07,4.84 -39.74,4.84 -39.42,4.84 -39.09,4.83 -38.76,4.82 -38.43,4.82 -38.11,4.8 -37.78,4.79 -37.45,4.77 -37.13,4.75 -36.8,4.72 -36.47,4.68 -36.15,4.64 -35.82,4.58 -35.49,4.51 -35.16,4.43 -34.84,4.34 -34.51,4.23 -34.18,4.09 -33.86,3.94 -33.53,3.76 -33.2,3.54 -32.87,3.3 -32.55,3.03 -32.22,2.72 -31.89,2.37 -31.57,1.98 -31.24,1.54 -30.91,1.07 -30.58,0.55 -30.26,-0.02 -29.93,-0.62 -29.6,-1.27 -29.28,-1.96 -28.95,-2.68 -28.62,-3.44 -28.29,-4.21 -27.97,-5.01 -27.64,-5.83 -27.31,-6.65 -26.99,-7.47 -26.66,-8.28 -26.33,-9.07 -26,-9.84 -25.68,-10.57 -25.35,-11.27 -25.02,-11.92 -24.7,-12.52 -24.37,-13.06 -24.04,-13.54 -23.72,-13.96 -23.39,-14.31 -23.06,-14.6 -22.73,-14.81 -22.41,-14.96 -22.08,-15.05 -21.75,-15.08 -21.43,-15.05 -21.1,-14.97 -20.77,-14.84 -20.44,-14.66 -20.12,-14.45 -19.79,-14.2 -19.46,-13.92 -19.14,-13.62 -18.81,-13.3 -18.48,-12.96 -18.15,-12.61 -17.83,-12.25 -17.5,-11.88 -17.17,-11.51 -16.85,-11.14 -16.52,-10.76 -16.19,-10.38 -15.86,-10.01 -15.54,-9.64 -15.21,-9.27 -14.88,-8.91 -14.56,-8.55 -14.23,-8.19 -13.9,-7.84 -13.57,-7.5 -13.25,-7.16 -12.92,-6.83 -12.59,-6.51 -12.27,-6.19 -11.94,-5.88 -11.61,-5.57 -11.29,-5.27 -10.96,-4.98 -10.63,-4.69 -10.3,-4.41 -9.98,-4.13 -9.65,-3.86 -9.32,-3.59 -9,-3.33 -8.67,-3.07 -8.34,-2.82 -8.01,-2.58 -7.69,-2.34 -7.36,-2.1 -7.03,-1.88 -6.71,-1.66 -6.38,-1.45 -6.05,-1.25 -5.72,-1.05 -5.4,-0.87 -5.07,-0.69 -4.74,-0.53 -4.42,-0.37 -4.09,-0.23 -3.76,-0.09 -3.43,0.03 -3.11,0.15 -2.78,0.26 -2.45,0.37 -2.13,0.46 -1.8,0.55 -1.47,0.64 -1.14,0.72 -0.82,0.79 -0.49,0.86 -0.16,0.93 0.16,1 0.49,1.07 0.82,1.13 1.14,1.2 1.47,1.26 1.8,1.32 2.13,1.38 2.45,1.44 2.78,1.49 3.11,1.55 3.43,1.6 3.76,1.65 4.09,1.7 4.42,1.75 4.74,1.8 5.07,1.85 5.4,1.89 5.72,1.94 6.05,1.99 6.38,2.04 6.71,2.1 7.03,2.16 7.36,2.22 7.69,2.28 8.01,2.35 8.34,2.43 8.67,2.51 9,2.59 9.32,2.68 9.65,2.77 9.98,2.87 10.3,2.97 10.63,3.07 10.96,3.18 11.29,3.28 11.61,3.39 11.94,3.49 12.27,3.59 12.59,3.7 12.92,3.79 13.25,3.89 13.57,3.98 13.9,4.06 14.23,4.14 14.56,4.21 14.88,4.27 15.21,4.33 15.54,4.38 15.86,4.43 16.19,4.47 16.52,4.5 16.85,4.52 17.17,4.54 17.5,4.55 17.83,4.55 18.15,4.55 18.48,4.55 18.81,4.54 19.14,4.52 19.46,4.5 19.79,4.48 20.12,4.45 20.44,4.42 20.77,4.39 21.1,4.36 21.43,4.33 21.75,4.29 22.08,4.26 22.41,4.23 22.73,4.2 23.06,4.17 23.39,4.15 23.72,4.13 24.04,4.11 24.37,4.1 24.7,4.09 25.02,4.09 25.35,4.09 25.68,4.09 26,4.1 26.33,4.12 26.66,4.14 26.99,4.16 27.31,4.19 27.64,4.22 27.97,4.25 28.29,4.28 28.62,4.32 28.95,4.35 29.28,4.39 29.6,4.43 29.93,4.46 30.26,4.5 30.58,4.53 30.91,4.56 31.24,4.6 31.57,4.62 31.89,4.65 32.22,4.68 32.55,4.7 32.87,4.72 33.2,4.74 33.53,4.76 33.86,4.77 34.18,4.78 34.51,4.8 34.84,4.8 35.16,4.81 35.49,4.82 35.82,4.83 36.15,4.83 36.47,4.84 36.8,4.84 37.13,4.84 37.45,4.85 37.78,4.85 38.11,4.85 38.43,4.85 38.76,4.85 39.09,4.85 39.42,4.85 39.74,4.85 40.07,4.85 40.4,4.85 40.72,4.85 41.05,4.85 41.38,4.85 41.71,4.85 " class="primitive"/>
          </g>
        </g>
      </g>
    </g>
  </g>
  <g class="guide ylabels" font-size="2.82" font-family="'PT Sans Caption','Helvetica Neue','Helvetica',sans-serif" fill="#6C606B" id="img-866aac04-40">
    <g transform="translate(19.3,68.72)" id="img-866aac04-41">
      <g class="primitive">
        <text text-anchor="end" dy="0.35em">0.00</text>
      </g>
    </g>
    <g transform="translate(19.3,54.69)" id="img-866aac04-42">
      <g class="primitive">
        <text text-anchor="end" dy="0.35em">0.02</text>
      </g>
    </g>
    <g transform="translate(19.3,40.66)" id="img-866aac04-43">
      <g class="primitive">
        <text text-anchor="end" dy="0.35em">0.04</text>
      </g>
    </g>
    <g transform="translate(19.3,26.64)" id="img-866aac04-44">
      <g class="primitive">
        <text text-anchor="end" dy="0.35em">0.06</text>
      </g>
    </g>
    <g transform="translate(19.3,12.61)" id="img-866aac04-45">
      <g class="primitive">
        <text text-anchor="end" dy="0.35em">0.08</text>
      </g>
    </g>
  </g>
  <g font-size="3.88" font-family="'PT Sans','Helvetica Neue','Helvetica',sans-serif" fill="#564A55" stroke="#000000" stroke-opacity="0.000" id="img-866aac04-46">
    <g transform="translate(8.81,38.66)" id="img-866aac04-47">
      <g class="primitive">
        <text text-anchor="middle" dy="0.35em" transform="rotate(-90,0, 2)">Density</text>
      </g>
    </g>
  </g>
  <g font-size="3.88" font-family="'PT Sans','Helvetica Neue','Helvetica',sans-serif" fill="#564A55" stroke="#000000" stroke-opacity="0.000" id="img-866aac04-48">
    <g transform="translate(80.27,5)" id="img-866aac04-49">
      <g class="primitive">
        <text text-anchor="middle" dy="0.6em">2019 Population Density be Region (sub 100 mil ex Oceania)</text>
      </g>
    </g>
  </g>
</g>
<defs>
  <clipPath id="img-866aac04-18">
    <path d="M20.31,10.61 L140.23,10.61 140.23,70.72 20.31,70.72 " />
  </clipPath>
</defs>
</svg>
