<?xml version="1.0" encoding="UTF-8"?>
<svg xmlns="http://www.w3.org/2000/svg"
     xmlns:xlink="http://www.w3.org/1999/xlink"
     xmlns:gadfly="http://www.gadflyjl.org/ns"
     version="1.2"
     width="160mm" height="90mm" viewBox="0 0 160 90"
     stroke="none"
     fill="#000000"
     stroke-width="0.3"
     font-size="3.88"
>
<defs>
  <marker id="arrow" markerWidth="15" markerHeight="7" refX="5" refY="3.5" orient="auto" markerUnits="strokeWidth">
    <path d="M0,0 L15,3.5 L0,7 z" stroke="context-stroke" fill="context-stroke"/>
  </marker>
</defs>
<g stroke="#000000" stroke-opacity="0.000" fill="#FFFFFF" id="img-bef2b2f4-1">
  <g transform="translate(80,45)">
    <path d="M-80,-45 L80,-45 80,45 -80,45  z" class="primitive"/>
  </g>
</g>
<g class="plotroot yscalable" id="img-bef2b2f4-2">
  <g font-size="3.88" font-family="'PT Sans','Helvetica Neue','Helvetica',sans-serif" fill="#564A55" stroke="#000000" stroke-opacity="0.000" id="img-bef2b2f4-3">
    <g transform="translate(79.65,78.39)">
      <g class="primitive">
        <text text-anchor="middle" dy="0.6em">Region</text>
      </g>
    </g>
  </g>
  <g class="guide xlabels" font-size="2.82" font-family="'PT Sans Caption','Helvetica Neue','Helvetica',sans-serif" fill="#6C606B" id="img-bef2b2f4-4">
    <g transform="translate(31.19,71.72)">
      <g class="primitive">
        <text text-anchor="middle" dy="0.6em">Africa</text>
      </g>
    </g>
    <g transform="translate(55.42,71.72)">
      <g class="primitive">
        <text text-anchor="middle" dy="0.6em">Americas</text>
      </g>
    </g>
    <g transform="translate(79.65,71.72)">
      <g class="primitive">
        <text text-anchor="middle" dy="0.6em">Asia</text>
      </g>
    </g>
    <g transform="translate(103.88,71.72)">
      <g class="primitive">
        <text text-anchor="middle" dy="0.6em">Europe</text>
      </g>
    </g>
    <g transform="translate(128.12,71.72)">
      <g class="primitive">
        <text text-anchor="middle" dy="0.6em">Oceania</text>
      </g>
    </g>
  </g>
  <g class="guide colorkey" id="img-bef2b2f4-5">
    <g fill="#4C404B" font-size="2.82" font-family="'PT Sans','Helvetica Neue','Helvetica',sans-serif" id="img-bef2b2f4-6">
      <g transform="translate(144.05,35.22)" id="img-bef2b2f4-7" class="color_Africa">
        <g class="primitive">
          <text dy="0.35em">Africa</text>
        </g>
      </g>
      <g transform="translate(144.05,38.85)" id="img-bef2b2f4-8" class="color_Americas">
        <g class="primitive">
          <text dy="0.35em">Americas</text>
        </g>
      </g>
      <g transform="translate(144.05,42.48)" id="img-bef2b2f4-9" class="color_Asia">
        <g class="primitive">
          <text dy="0.35em">Asia</text>
        </g>
      </g>
      <g transform="translate(144.05,46.1)" id="img-bef2b2f4-10" class="color_Europe">
        <g class="primitive">
          <text dy="0.35em">Europe</text>
        </g>
      </g>
      <g transform="translate(144.05,49.73)" id="img-bef2b2f4-11" class="color_Oceania">
        <g class="primitive">
          <text dy="0.35em">Oceania</text>
        </g>
      </g>
    </g>
    <g fill-opacity="1" id="img-bef2b2f4-12">
      <g transform="translate(142.14,35.22)" id="img-bef2b2f4-13" stroke="#FFFFFF" fill="#00BFFF" class="color_Africa">
        <path d="M-0.91,-0.91 L0.91,-0.91 0.91,0.91 -0.91,0.91  z" class="primitive"/>
      </g>
      <g transform="translate(142.14,38.85)" id="img-bef2b2f4-14" stroke="#FFFFFF" fill="#D4CA3A" class="color_Americas">
        <path d="M-0.91,-0.91 L0.91,-0.91 0.91,0.91 -0.91,0.91  z" class="primitive"/>
      </g>
      <g transform="translate(142.14,42.48)" id="img-bef2b2f4-15" stroke="#FFFFFF" fill="#FF6DAE" class="color_Asia">
        <path d="M-0.91,-0.91 L0.91,-0.91 0.91,0.91 -0.91,0.91  z" class="primitive"/>
      </g>
      <g transform="translate(142.14,46.1)" id="img-bef2b2f4-16" stroke="#FFFFFF" fill="#00B78D" class="color_Europe">
        <path d="M-0.91,-0.91 L0.91,-0.91 0.91,0.91 -0.91,0.91  z" class="primitive"/>
      </g>
      <g transform="translate(142.14,49.73)" id="img-bef2b2f4-17" stroke="#FFFFFF" fill="#BEA9FF" class="color_Oceania">
        <path d="M-0.91,-0.91 L0.91,-0.91 0.91,0.91 -0.91,0.91  z" class="primitive"/>
      </g>
    </g>
    <g fill="#362A35" font-size="3.88" font-family="'PT Sans','Helvetica Neue','Helvetica',sans-serif" stroke="#000000" stroke-opacity="0.000" id="img-bef2b2f4-18">
      <g transform="translate(141.23,31.4)" id="img-bef2b2f4-19">
        <g class="primitive">
          <text dy="-0em">Region</text>
        </g>
      </g>
    </g>
  </g>
  <g clip-path="url(#img-bef2b2f4-20)">
    <g id="img-bef2b2f4-21">
      <g pointer-events="visible" stroke-width="0.3" fill="#000000" fill-opacity="0.000" stroke="#000000" stroke-opacity="0.000" class="guide background" id="img-bef2b2f4-22">
        <g transform="translate(79.65,40.66)" id="img-bef2b2f4-23">
          <path d="M-60.58,-30.05 L60.58,-30.05 60.58,30.05 -60.58,30.05  z" class="primitive"/>
        </g>
      </g>
      <g class="guide ygridlines xfixed" stroke-dasharray="0.5,0.5" stroke-width="0.2" stroke="#D0D0E0" id="img-bef2b2f4-24">
        <g transform="translate(79.65,68.72)" id="img-bef2b2f4-25">
          <path fill="none" d="M-60.58,0 L60.58,0 " class="primitive"/>
        </g>
        <g transform="translate(79.65,54.69)" id="img-bef2b2f4-26">
          <path fill="none" d="M-60.58,0 L60.58,0 " class="primitive"/>
        </g>
        <g transform="translate(79.65,40.66)" id="img-bef2b2f4-27">
          <path fill="none" d="M-60.58,0 L60.58,0 " class="primitive"/>
        </g>
        <g transform="translate(79.65,26.64)" id="img-bef2b2f4-28">
          <path fill="none" d="M-60.58,0 L60.58,0 " class="primitive"/>
        </g>
        <g transform="translate(79.65,12.61)" id="img-bef2b2f4-29">
          <path fill="none" d="M-60.58,0 L60.58,0 " class="primitive"/>
        </g>
      </g>
      <g class="guide xgridlines yfixed" stroke-dasharray="0.5,0.5" stroke-width="0.2" stroke="#D0D0E0" id="img-bef2b2f4-30">
        <g transform="translate(43.3,40.66)" id="img-bef2b2f4-31">
          <path fill="none" d="M0,-30.05 L0,30.05 " class="primitive"/>
        </g>
        <g transform="translate(67.54,40.66)" id="img-bef2b2f4-32">
          <path fill="none" d="M0,-30.05 L0,30.05 " class="primitive"/>
        </g>
        <g transform="translate(91.77,40.66)" id="img-bef2b2f4-33">
          <path fill="none" d="M0,-30.05 L0,30.05 " class="primitive"/>
        </g>
        <g transform="translate(116,40.66)" id="img-bef2b2f4-34">
          <path fill="none" d="M0,-30.05 L0,30.05 " class="primitive"/>
        </g>
      </g>
      <g class="plotpanel" id="img-bef2b2f4-35">
        <metadata>
          <boundingbox value="19.07166666666666mm 10.611666666666672mm 121.16166666666666mm 60.10333333333333mm"/>
          <unitbox value="0.5 78.5648505733468 5.0 -107.1297011466936"/>
        </metadata>
        <g class="geometry" id="img-bef2b2f4-36">
          <g transform="translate(103.88,0.47)" id="img-bef2b2f4-37" fill="#00B78D">
            <path d="M-0,77.72 L-0,77.2 -0,76.68 -0,76.16 -0,75.64 -0,75.12 -0,74.6 -0,74.08 -0,73.56 -0,73.04 -0,72.52 -0,72 -0,71.48 -0,70.96 -0,70.45 -0,69.93 -0,69.41 -0.01,68.89 -0.01,68.37 -0.01,67.85 -0.01,67.33 -0.01,66.81 -0.02,66.29 -0.02,65.77 -0.02,65.25 -0.03,64.73 -0.03,64.21 -0.04,63.69 -0.05,63.17 -0.06,62.65 -0.06,62.13 -0.08,61.61 -0.09,61.09 -0.1,60.57 -0.11,60.05 -0.13,59.53 -0.15,59.01 -0.17,58.49 -0.18,57.97 -0.21,57.45 -0.23,56.93 -0.25,56.41 -0.27,55.89 -0.3,55.37 -0.32,54.85 -0.34,54.33 -0.37,53.81 -0.39,53.29 -0.42,52.77 -0.44,52.25 -0.46,51.73 -0.48,51.21 -0.5,50.69 -0.52,50.17 -0.54,49.65 -0.55,49.13 -0.56,48.61 -0.57,48.09 -0.58,47.57 -0.59,47.05 -0.59,46.53 -0.6,46.01 -0.6,45.49 -0.6,44.97 -0.6,44.45 -0.59,43.93 -0.59,43.41 -0.58,42.89 -0.57,42.37 -0.56,41.85 -0.55,41.33 -0.54,40.81 -0.53,40.29 -0.52,39.77 -0.51,39.25 -0.5,38.73 -0.49,38.21 -0.48,37.69 -0.47,37.17 -0.46,36.65 -0.45,36.13 -0.45,35.61 -0.44,35.09 -0.43,34.57 -0.43,34.05 -0.42,33.53 -0.42,33.01 -0.41,32.49 -0.41,31.97 -0.41,31.45 -0.4,30.93 -0.4,30.41 -0.39,29.89 -0.39,29.37 -0.38,28.85 -0.38,28.33 -0.37,27.81 -0.37,27.29 -0.36,26.77 -0.35,26.25 -0.34,25.73 -0.33,25.21 -0.32,24.69 -0.31,24.17 -0.3,23.65 -0.29,23.14 -0.28,22.62 -0.27,22.1 -0.26,21.58 -0.24,21.06 -0.23,20.54 -0.22,20.02 -0.21,19.5 -0.21,18.98 -0.2,18.46 -0.19,17.94 -0.18,17.42 -0.18,16.9 -0.17,16.38 -0.16,15.86 -0.16,15.34 -0.16,14.82 -0.15,14.3 -0.15,13.78 -0.15,13.26 -0.14,12.74 -0.14,12.22 -0.14,11.7 -0.13,11.18 -0.13,10.66 -0.13,10.14 -0.12,9.62 -0.12,9.1 -0.12,8.58 -0.11,8.06 -0.11,7.54 -0.11,7.02 -0.1,6.5 -0.1,5.98 -0.09,5.46 -0.09,4.94 -0.08,4.42 -0.08,3.9 -0.07,3.38 -0.07,2.86 -0.06,2.34 -0.06,1.82 -0.06,1.3 -0.05,0.78 -0.05,0.26 -0.04,-0.26 -0.04,-0.78 -0.04,-1.3 -0.04,-1.82 -0.04,-2.34 -0.03,-2.86 -0.03,-3.38 -0.03,-3.9 -0.03,-4.42 -0.03,-4.94 -0.03,-5.46 -0.03,-5.98 -0.03,-6.5 -0.03,-7.02 -0.03,-7.54 -0.03,-8.06 -0.03,-8.58 -0.03,-9.1 -0.03,-9.62 -0.03,-10.14 -0.03,-10.66 -0.03,-11.18 -0.03,-11.7 -0.03,-12.22 -0.03,-12.74 -0.03,-13.26 -0.03,-13.78 -0.03,-14.3 -0.02,-14.82 -0.02,-15.34 -0.02,-15.86 -0.02,-16.38 -0.02,-16.9 -0.02,-17.42 -0.02,-17.94 -0.01,-18.46 -0.01,-18.98 -0.01,-19.5 -0.01,-20.02 -0.01,-20.54 -0.01,-21.06 -0.01,-21.58 -0.01,-22.1 -0,-22.62 -0,-23.14 -0,-23.65 -0,-24.17 -0,-24.69 -0,-25.21 -0,-25.73 -0,-26.25 -0,-26.77 -0,-27.29 -0,-27.81 -0,-28.33 -0,-28.85 -0,-29.37 -0,-29.89 -0,-30.41 -0,-30.93 -0,-31.45 -0,-31.97 -0,-32.49 -0,-33.01 -0,-33.53 -0.01,-34.05 -0.01,-34.57 -0.01,-35.09 -0.01,-35.61 -0.01,-36.13 -0.01,-36.65 -0.01,-37.17 -0.01,-37.69 -0.02,-38.21 -0.02,-38.73 -0.02,-39.25 -0.02,-39.77 -0.02,-40.29 -0.03,-40.81 -0.03,-41.33 -0.03,-41.85 -0.03,-42.37 -0.04,-42.89 -0.04,-43.41 -0.04,-43.93 -0.04,-44.45 -0.05,-44.97 -0.05,-45.49 -0.05,-46.01 -0.05,-46.53 -0.05,-47.05 -0.05,-47.57 -0.05,-48.09 -0.05,-48.61 -0.05,-49.13 -0.05,-49.65 -0.05,-50.17 -0.05,-50.69 -0.05,-51.21 -0.05,-51.73 -0.05,-52.25 -0.05,-52.77 -0.05,-53.29 -0.05,-53.81 -0.04,-54.33 -0.04,-54.85 -0.04,-55.37 -0.04,-55.89 -0.03,-56.41 -0.03,-56.93 -0.03,-57.45 -0.03,-57.97 -0.02,-58.49 -0.02,-59.01 -0.02,-59.53 -0.02,-60.05 -0.02,-60.57 -0.01,-61.09 -0.01,-61.61 -0.01,-62.13 -0.01,-62.65 -0.01,-63.17 -0.01,-63.69 -0.01,-64.21 -0.01,-64.73 -0,-65.25 -0,-65.77 -0,-66.29 -0,-66.81 -0,-67.33 -0,-67.85 -0,-68.37 -0,-68.89 -0,-69.41 -0,-69.93 -0,-70.45 -0,-70.96 -0,-71.48 -0,-72 -0,-72.52 -0,-73.04 -0,-73.56 -0,-74.08 -0,-74.6 -0,-75.12 -0,-75.64 -0,-76.16 -0,-76.68 -0,-77.2 -0,-77.72 0,-77.72 0,-77.2 0,-76.68 0,-76.16 0,-75.64 0,-75.12 0,-74.6 0,-74.08 0,-73.56 0,-73.04 0,-72.52 0,-72 0,-71.48 0,-70.96 0,-70.45 0,-69.93 0,-69.41 0,-68.89 0,-68.37 0,-67.85 0,-67.33 0,-66.81 0,-66.29 0,-65.77 0,-65.25 0.01,-64.73 0.01,-64.21 0.01,-63.69 0.01,-63.17 0.01,-62.65 0.01,-62.13 0.01,-61.61 0.01,-61.09 0.02,-60.57 0.02,-60.05 0.02,-59.53 0.02,-59.01 0.02,-58.49 0.03,-57.97 0.03,-57.45 0.03,-56.93 0.03,-56.41 0.04,-55.89 0.04,-55.37 0.04,-54.85 0.04,-54.33 0.05,-53.81 0.05,-53.29 0.05,-52.77 0.05,-52.25 0.05,-51.73 0.05,-51.21 0.05,-50.69 0.05,-50.17 0.05,-49.65 0.05,-49.13 0.05,-48.61 0.05,-48.09 0.05,-47.57 0.05,-47.05 0.05,-46.53 0.05,-46.01 0.05,-45.49 0.05,-44.97 0.04,-44.45 0.04,-43.93 0.04,-43.41 0.04,-42.89 0.03,-42.37 0.03,-41.85 0.03,-41.33 0.03,-40.81 0.02,-40.29 0.02,-39.77 0.02,-39.25 0.02,-38.73 0.02,-38.21 0.01,-37.69 0.01,-37.17 0.01,-36.65 0.01,-36.13 0.01,-35.61 0.01,-35.09 0.01,-34.57 0.01,-34.05 0,-33.53 0,-33.01 0,-32.49 0,-31.97 0,-31.45 0,-30.93 0,-30.41 0,-29.89 0,-29.37 0,-28.85 0,-28.33 0,-27.81 0,-27.29 0,-26.77 0,-26.25 0,-25.73 0,-25.21 0,-24.69 0,-24.17 0,-23.65 0,-23.14 0,-22.62 0.01,-22.1 0.01,-21.58 0.01,-21.06 0.01,-20.54 0.01,-20.02 0.01,-19.5 0.01,-18.98 0.01,-18.46 0.02,-17.94 0.02,-17.42 0.02,-16.9 0.02,-16.38 0.02,-15.86 0.02,-15.34 0.02,-14.82 0.03,-14.3 0.03,-13.78 0.03,-13.26 0.03,-12.74 0.03,-12.22 0.03,-11.7 0.03,-11.18 0.03,-10.66 0.03,-10.14 0.03,-9.62 0.03,-9.1 0.03,-8.58 0.03,-8.06 0.03,-7.54 0.03,-7.02 0.03,-6.5 0.03,-5.98 0.03,-5.46 0.03,-4.94 0.03,-4.42 0.03,-3.9 0.03,-3.38 0.03,-2.86 0.04,-2.34 0.04,-1.82 0.04,-1.3 0.04,-0.78 0.04,-0.26 0.05,0.26 0.05,0.78 0.06,1.3 0.06,1.82 0.06,2.34 0.07,2.86 0.07,3.38 0.08,3.9 0.08,4.42 0.09,4.94 0.09,5.46 0.1,5.98 0.1,6.5 0.11,7.02 0.11,7.54 0.11,8.06 0.12,8.58 0.12,9.1 0.12,9.62 0.13,10.14 0.13,10.66 0.13,11.18 0.14,11.7 0.14,12.22 0.14,12.74 0.15,13.26 0.15,13.78 0.15,14.3 0.16,14.82 0.16,15.34 0.16,15.86 0.17,16.38 0.18,16.9 0.18,17.42 0.19,17.94 0.2,18.46 0.21,18.98 0.21,19.5 0.22,20.02 0.23,20.54 0.24,21.06 0.26,21.58 0.27,22.1 0.28,22.62 0.29,23.14 0.3,23.65 0.31,24.17 0.32,24.69 0.33,25.21 0.34,25.73 0.35,26.25 0.36,26.77 0.37,27.29 0.37,27.81 0.38,28.33 0.38,28.85 0.39,29.37 0.39,29.89 0.4,30.41 0.4,30.93 0.41,31.45 0.41,31.97 0.41,32.49 0.42,33.01 0.42,33.53 0.43,34.05 0.43,34.57 0.44,35.09 0.45,35.61 0.45,36.13 0.46,36.65 0.47,37.17 0.48,37.69 0.49,38.21 0.5,38.73 0.51,39.25 0.52,39.77 0.53,40.29 0.54,40.81 0.55,41.33 0.56,41.85 0.57,42.37 0.58,42.89 0.59,43.41 0.59,43.93 0.6,44.45 0.6,44.97 0.6,45.49 0.6,46.01 0.59,46.53 0.59,47.05 0.58,47.57 0.57,48.09 0.56,48.61 0.55,49.13 0.54,49.65 0.52,50.17 0.5,50.69 0.48,51.21 0.46,51.73 0.44,52.25 0.42,52.77 0.39,53.29 0.37,53.81 0.34,54.33 0.32,54.85 0.3,55.37 0.27,55.89 0.25,56.41 0.23,56.93 0.21,57.45 0.18,57.97 0.17,58.49 0.15,59.01 0.13,59.53 0.11,60.05 0.1,60.57 0.09,61.09 0.08,61.61 0.06,62.13 0.06,62.65 0.05,63.17 0.04,63.69 0.03,64.21 0.03,64.73 0.02,65.25 0.02,65.77 0.02,66.29 0.01,66.81 0.01,67.33 0.01,67.85 0.01,68.37 0.01,68.89 0,69.41 0,69.93 0,70.45 0,70.96 0,71.48 0,72 0,72.52 0,73.04 0,73.56 0,74.08 0,74.6 0,75.12 0,75.64 0,76.16 0,76.68 0,77.2 0,77.72  z" class="primitive"/>
          </g>
          <g transform="translate(55.42,15.92)" id="img-bef2b2f4-38" fill="#D4CA3A">
            <path d="M-0,51.39 L-0,51.05 -0,50.7 -0,50.36 -0,50.01 -0,49.67 -0,49.33 -0,48.98 -0,48.64 -0,48.3 -0,47.95 -0,47.61 -0,47.26 -0.01,46.92 -0.01,46.58 -0.01,46.23 -0.01,45.89 -0.02,45.55 -0.03,45.2 -0.03,44.86 -0.04,44.51 -0.05,44.17 -0.07,43.83 -0.08,43.48 -0.1,43.14 -0.13,42.8 -0.16,42.45 -0.19,42.11 -0.23,41.76 -0.27,41.42 -0.31,41.08 -0.36,40.73 -0.42,40.39 -0.48,40.05 -0.54,39.7 -0.61,39.36 -0.68,39.01 -0.75,38.67 -0.82,38.33 -0.89,37.98 -0.96,37.64 -1.02,37.3 -1.08,36.95 -1.14,36.61 -1.19,36.27 -1.23,35.92 -1.27,35.58 -1.3,35.23 -1.32,34.89 -1.33,34.55 -1.33,34.2 -1.33,33.86 -1.32,33.52 -1.31,33.17 -1.28,32.83 -1.26,32.48 -1.22,32.14 -1.19,31.8 -1.15,31.45 -1.11,31.11 -1.07,30.77 -1.03,30.42 -0.98,30.08 -0.94,29.73 -0.89,29.39 -0.85,29.05 -0.81,28.7 -0.76,28.36 -0.72,28.02 -0.68,27.67 -0.64,27.33 -0.6,26.98 -0.57,26.64 -0.54,26.3 -0.5,25.95 -0.48,25.61 -0.45,25.27 -0.42,24.92 -0.4,24.58 -0.38,24.23 -0.37,23.89 -0.35,23.55 -0.34,23.2 -0.33,22.86 -0.32,22.52 -0.31,22.17 -0.31,21.83 -0.3,21.48 -0.29,21.14 -0.29,20.8 -0.28,20.45 -0.28,20.11 -0.27,19.77 -0.27,19.42 -0.26,19.08 -0.25,18.73 -0.25,18.39 -0.24,18.05 -0.23,17.7 -0.22,17.36 -0.22,17.02 -0.21,16.67 -0.2,16.33 -0.2,15.98 -0.19,15.64 -0.19,15.3 -0.18,14.95 -0.18,14.61 -0.17,14.27 -0.17,13.92 -0.17,13.58 -0.16,13.23 -0.16,12.89 -0.15,12.55 -0.15,12.2 -0.15,11.86 -0.14,11.52 -0.14,11.17 -0.13,10.83 -0.13,10.48 -0.12,10.14 -0.12,9.8 -0.11,9.45 -0.11,9.11 -0.1,8.77 -0.1,8.42 -0.09,8.08 -0.09,7.73 -0.09,7.39 -0.08,7.05 -0.08,6.7 -0.08,6.36 -0.07,6.02 -0.07,5.67 -0.07,5.33 -0.07,4.98 -0.07,4.64 -0.07,4.3 -0.07,3.95 -0.07,3.61 -0.07,3.27 -0.07,2.92 -0.06,2.58 -0.06,2.23 -0.06,1.89 -0.06,1.55 -0.06,1.2 -0.05,0.86 -0.05,0.52 -0.05,0.17 -0.04,-0.17 -0.04,-0.52 -0.04,-0.86 -0.03,-1.2 -0.03,-1.55 -0.03,-1.89 -0.02,-2.23 -0.02,-2.58 -0.02,-2.92 -0.01,-3.27 -0.01,-3.61 -0.01,-3.95 -0.01,-4.3 -0.01,-4.64 -0.01,-4.98 -0.01,-5.33 -0.01,-5.67 -0.01,-6.02 -0.01,-6.36 -0.01,-6.7 -0.01,-7.05 -0.01,-7.39 -0.01,-7.73 -0.02,-8.08 -0.02,-8.42 -0.02,-8.77 -0.03,-9.11 -0.03,-9.45 -0.03,-9.8 -0.04,-10.14 -0.04,-10.48 -0.04,-10.83 -0.05,-11.17 -0.05,-11.52 -0.05,-11.86 -0.05,-12.2 -0.05,-12.55 -0.06,-12.89 -0.06,-13.23 -0.06,-13.58 -0.05,-13.92 -0.05,-14.27 -0.05,-14.61 -0.05,-14.95 -0.05,-15.3 -0.04,-15.64 -0.04,-15.98 -0.04,-16.33 -0.03,-16.67 -0.03,-17.02 -0.03,-17.36 -0.02,-17.7 -0.02,-18.05 -0.02,-18.39 -0.02,-18.73 -0.01,-19.08 -0.01,-19.42 -0.01,-19.77 -0.01,-20.11 -0.01,-20.45 -0.01,-20.8 -0.02,-21.14 -0.02,-21.48 -0.02,-21.83 -0.02,-22.17 -0.02,-22.52 -0.03,-22.86 -0.03,-23.2 -0.03,-23.55 -0.04,-23.89 -0.04,-24.23 -0.04,-24.58 -0.05,-24.92 -0.05,-25.27 -0.05,-25.61 -0.05,-25.95 -0.06,-26.3 -0.06,-26.64 -0.06,-26.98 -0.06,-27.33 -0.05,-27.67 -0.05,-28.02 -0.05,-28.36 -0.05,-28.7 -0.04,-29.05 -0.04,-29.39 -0.04,-29.73 -0.04,-30.08 -0.03,-30.42 -0.03,-30.77 -0.03,-31.11 -0.03,-31.45 -0.02,-31.8 -0.02,-32.14 -0.02,-32.48 -0.02,-32.83 -0.02,-33.17 -0.03,-33.52 -0.03,-33.86 -0.03,-34.2 -0.03,-34.55 -0.03,-34.89 -0.04,-35.23 -0.04,-35.58 -0.04,-35.92 -0.05,-36.27 -0.05,-36.61 -0.05,-36.95 -0.05,-37.3 -0.05,-37.64 -0.06,-37.98 -0.06,-38.33 -0.06,-38.67 -0.05,-39.01 -0.05,-39.36 -0.05,-39.7 -0.05,-40.05 -0.05,-40.39 -0.04,-40.73 -0.04,-41.08 -0.04,-41.42 -0.03,-41.76 -0.03,-42.11 -0.03,-42.45 -0.02,-42.8 -0.02,-43.14 -0.02,-43.48 -0.01,-43.83 -0.01,-44.17 -0.01,-44.51 -0.01,-44.86 -0.01,-45.2 -0,-45.55 -0,-45.89 -0,-46.23 -0,-46.58 -0,-46.92 -0,-47.26 -0,-47.61 -0,-47.95 -0,-48.3 -0,-48.64 -0,-48.98 -0,-49.33 -0,-49.67 -0,-50.01 -0,-50.36 -0,-50.7 -0,-51.05 -0,-51.39 0,-51.39 0,-51.05 0,-50.7 0,-50.36 0,-50.01 0,-49.67 0,-49.33 0,-48.98 0,-48.64 0,-48.3 0,-47.95 0,-47.61 0,-47.26 0,-46.92 0,-46.58 0,-46.23 0,-45.89 0,-45.55 0.01,-45.2 0.01,-44.86 0.01,-44.51 0.01,-44.17 0.01,-43.83 0.02,-43.48 0.02,-43.14 0.02,-42.8 0.03,-42.45 0.03,-42.11 0.03,-41.76 0.04,-41.42 0.04,-41.08 0.04,-40.73 0.05,-40.39 0.05,-40.05 0.05,-39.7 0.05,-39.36 0.05,-39.01 0.06,-38.67 0.06,-38.33 0.06,-37.98 0.05,-37.64 0.05,-37.3 0.05,-36.95 0.05,-36.61 0.05,-36.27 0.04,-35.92 0.04,-35.58 0.04,-35.23 0.03,-34.89 0.03,-34.55 0.03,-34.2 0.03,-33.86 0.03,-33.52 0.02,-33.17 0.02,-32.83 0.02,-32.48 0.02,-32.14 0.02,-31.8 0.03,-31.45 0.03,-31.11 0.03,-30.77 0.03,-30.42 0.04,-30.08 0.04,-29.73 0.04,-29.39 0.04,-29.05 0.05,-28.7 0.05,-28.36 0.05,-28.02 0.05,-27.67 0.06,-27.33 0.06,-26.98 0.06,-26.64 0.06,-26.3 0.05,-25.95 0.05,-25.61 0.05,-25.27 0.05,-24.92 0.04,-24.58 0.04,-24.23 0.04,-23.89 0.03,-23.55 0.03,-23.2 0.03,-22.86 0.02,-22.52 0.02,-22.17 0.02,-21.83 0.02,-21.48 0.02,-21.14 0.01,-20.8 0.01,-20.45 0.01,-20.11 0.01,-19.77 0.01,-19.42 0.01,-19.08 0.02,-18.73 0.02,-18.39 0.02,-18.05 0.02,-17.7 0.03,-17.36 0.03,-17.02 0.03,-16.67 0.04,-16.33 0.04,-15.98 0.04,-15.64 0.05,-15.3 0.05,-14.95 0.05,-14.61 0.05,-14.27 0.05,-13.92 0.06,-13.58 0.06,-13.23 0.06,-12.89 0.05,-12.55 0.05,-12.2 0.05,-11.86 0.05,-11.52 0.05,-11.17 0.04,-10.83 0.04,-10.48 0.04,-10.14 0.03,-9.8 0.03,-9.45 0.03,-9.11 0.02,-8.77 0.02,-8.42 0.02,-8.08 0.01,-7.73 0.01,-7.39 0.01,-7.05 0.01,-6.7 0.01,-6.36 0.01,-6.02 0.01,-5.67 0.01,-5.33 0.01,-4.98 0.01,-4.64 0.01,-4.3 0.01,-3.95 0.01,-3.61 0.01,-3.27 0.02,-2.92 0.02,-2.58 0.02,-2.23 0.03,-1.89 0.03,-1.55 0.03,-1.2 0.04,-0.86 0.04,-0.52 0.04,-0.17 0.05,0.17 0.05,0.52 0.05,0.86 0.06,1.2 0.06,1.55 0.06,1.89 0.06,2.23 0.06,2.58 0.07,2.92 0.07,3.27 0.07,3.61 0.07,3.95 0.07,4.3 0.07,4.64 0.07,4.98 0.07,5.33 0.07,5.67 0.07,6.02 0.08,6.36 0.08,6.7 0.08,7.05 0.09,7.39 0.09,7.73 0.09,8.08 0.1,8.42 0.1,8.77 0.11,9.11 0.11,9.45 0.12,9.8 0.12,10.14 0.13,10.48 0.13,10.83 0.14,11.17 0.14,11.52 0.15,11.86 0.15,12.2 0.15,12.55 0.16,12.89 0.16,13.23 0.17,13.58 0.17,13.92 0.17,14.27 0.18,14.61 0.18,14.95 0.19,15.3 0.19,15.64 0.2,15.98 0.2,16.33 0.21,16.67 0.22,17.02 0.22,17.36 0.23,17.7 0.24,18.05 0.25,18.39 0.25,18.73 0.26,19.08 0.27,19.42 0.27,19.77 0.28,20.11 0.28,20.45 0.29,20.8 0.29,21.14 0.3,21.48 0.31,21.83 0.31,22.17 0.32,22.52 0.33,22.86 0.34,23.2 0.35,23.55 0.37,23.89 0.38,24.23 0.4,24.58 0.42,24.92 0.45,25.27 0.48,25.61 0.5,25.95 0.54,26.3 0.57,26.64 0.6,26.98 0.64,27.33 0.68,27.67 0.72,28.02 0.76,28.36 0.81,28.7 0.85,29.05 0.89,29.39 0.94,29.73 0.98,30.08 1.03,30.42 1.07,30.77 1.11,31.11 1.15,31.45 1.19,31.8 1.22,32.14 1.26,32.48 1.28,32.83 1.31,33.17 1.32,33.52 1.33,33.86 1.33,34.2 1.33,34.55 1.32,34.89 1.3,35.23 1.27,35.58 1.23,35.92 1.19,36.27 1.14,36.61 1.08,36.95 1.02,37.3 0.96,37.64 0.89,37.98 0.82,38.33 0.75,38.67 0.68,39.01 0.61,39.36 0.54,39.7 0.48,40.05 0.42,40.39 0.36,40.73 0.31,41.08 0.27,41.42 0.23,41.76 0.19,42.11 0.16,42.45 0.13,42.8 0.1,43.14 0.08,43.48 0.07,43.83 0.05,44.17 0.04,44.51 0.03,44.86 0.03,45.2 0.02,45.55 0.01,45.89 0.01,46.23 0.01,46.58 0.01,46.92 0,47.26 0,47.61 0,47.95 0,48.3 0,48.64 0,48.98 0,49.33 0,49.67 0,50.01 0,50.36 0,50.7 0,51.05 0,51.39  z" class="primitive"/>
          </g>
          <g transform="translate(79.65,30.95)" id="img-bef2b2f4-39" fill="#FF6DAE">
            <path d="M-0,35.56 L-0,35.32 -0,35.09 -0,34.85 -0,34.61 -0,34.37 -0,34.13 -0,33.9 -0,33.66 -0,33.42 -0,33.18 -0,32.95 -0.01,32.71 -0.01,32.47 -0.01,32.23 -0.01,31.99 -0.01,31.76 -0.02,31.52 -0.02,31.28 -0.03,31.04 -0.04,30.8 -0.04,30.57 -0.05,30.33 -0.07,30.09 -0.08,29.85 -0.09,29.62 -0.11,29.38 -0.13,29.14 -0.16,28.9 -0.19,28.66 -0.22,28.43 -0.25,28.19 -0.29,27.95 -0.33,27.71 -0.38,27.47 -0.43,27.24 -0.48,27 -0.54,26.76 -0.6,26.52 -0.67,26.28 -0.73,26.05 -0.81,25.81 -0.88,25.57 -0.95,25.33 -1.03,25.1 -1.1,24.86 -1.17,24.62 -1.24,24.38 -1.31,24.14 -1.38,23.91 -1.44,23.67 -1.5,23.43 -1.55,23.19 -1.6,22.95 -1.63,22.72 -1.67,22.48 -1.69,22.24 -1.71,22 -1.72,21.77 -1.72,21.53 -1.71,21.29 -1.7,21.05 -1.68,20.81 -1.65,20.58 -1.62,20.34 -1.58,20.1 -1.53,19.86 -1.49,19.62 -1.43,19.39 -1.38,19.15 -1.32,18.91 -1.26,18.67 -1.2,18.44 -1.14,18.2 -1.08,17.96 -1.02,17.72 -0.96,17.48 -0.91,17.25 -0.85,17.01 -0.8,16.77 -0.74,16.53 -0.69,16.29 -0.65,16.06 -0.6,15.82 -0.56,15.58 -0.53,15.34 -0.49,15.1 -0.46,14.87 -0.43,14.63 -0.41,14.39 -0.38,14.15 -0.36,13.92 -0.34,13.68 -0.33,13.44 -0.31,13.2 -0.3,12.96 -0.29,12.73 -0.28,12.49 -0.28,12.25 -0.27,12.01 -0.26,11.77 -0.26,11.54 -0.26,11.3 -0.25,11.06 -0.25,10.82 -0.25,10.59 -0.25,10.35 -0.25,10.11 -0.24,9.87 -0.24,9.63 -0.24,9.4 -0.24,9.16 -0.24,8.92 -0.24,8.68 -0.24,8.44 -0.24,8.21 -0.24,7.97 -0.24,7.73 -0.24,7.49 -0.24,7.26 -0.24,7.02 -0.24,6.78 -0.24,6.54 -0.23,6.3 -0.23,6.07 -0.23,5.83 -0.23,5.59 -0.23,5.35 -0.22,5.11 -0.22,4.88 -0.22,4.64 -0.22,4.4 -0.21,4.16 -0.21,3.92 -0.21,3.69 -0.21,3.45 -0.2,3.21 -0.2,2.97 -0.2,2.74 -0.2,2.5 -0.2,2.26 -0.2,2.02 -0.2,1.78 -0.2,1.55 -0.2,1.31 -0.2,1.07 -0.2,0.83 -0.2,0.59 -0.2,0.36 -0.2,0.12 -0.2,-0.12 -0.2,-0.36 -0.2,-0.59 -0.2,-0.83 -0.19,-1.07 -0.19,-1.31 -0.19,-1.55 -0.19,-1.78 -0.19,-2.02 -0.18,-2.26 -0.18,-2.5 -0.17,-2.74 -0.17,-2.97 -0.17,-3.21 -0.16,-3.45 -0.15,-3.69 -0.15,-3.92 -0.14,-4.16 -0.14,-4.4 -0.13,-4.64 -0.12,-4.88 -0.12,-5.11 -0.11,-5.35 -0.1,-5.59 -0.1,-5.83 -0.09,-6.07 -0.09,-6.3 -0.08,-6.54 -0.08,-6.78 -0.08,-7.02 -0.08,-7.26 -0.07,-7.49 -0.07,-7.73 -0.07,-7.97 -0.07,-8.21 -0.07,-8.44 -0.07,-8.68 -0.08,-8.92 -0.08,-9.16 -0.08,-9.4 -0.09,-9.63 -0.09,-9.87 -0.09,-10.11 -0.1,-10.35 -0.1,-10.59 -0.1,-10.82 -0.1,-11.06 -0.11,-11.3 -0.11,-11.54 -0.11,-11.77 -0.11,-12.01 -0.11,-12.25 -0.11,-12.49 -0.11,-12.73 -0.11,-12.96 -0.11,-13.2 -0.11,-13.44 -0.1,-13.68 -0.1,-13.92 -0.09,-14.15 -0.09,-14.39 -0.09,-14.63 -0.08,-14.87 -0.08,-15.1 -0.07,-15.34 -0.07,-15.58 -0.06,-15.82 -0.06,-16.06 -0.05,-16.29 -0.05,-16.53 -0.04,-16.77 -0.04,-17.01 -0.04,-17.25 -0.04,-17.48 -0.03,-17.72 -0.03,-17.96 -0.03,-18.2 -0.03,-18.44 -0.03,-18.67 -0.03,-18.91 -0.03,-19.15 -0.03,-19.39 -0.03,-19.62 -0.03,-19.86 -0.03,-20.1 -0.04,-20.34 -0.04,-20.58 -0.04,-20.81 -0.04,-21.05 -0.04,-21.29 -0.05,-21.53 -0.05,-21.77 -0.05,-22 -0.05,-22.24 -0.05,-22.48 -0.05,-22.72 -0.05,-22.95 -0.06,-23.19 -0.06,-23.43 -0.06,-23.67 -0.06,-23.91 -0.05,-24.14 -0.05,-24.38 -0.05,-24.62 -0.05,-24.86 -0.05,-25.1 -0.05,-25.33 -0.04,-25.57 -0.04,-25.81 -0.04,-26.05 -0.04,-26.28 -0.03,-26.52 -0.03,-26.76 -0.03,-27 -0.03,-27.24 -0.02,-27.47 -0.02,-27.71 -0.02,-27.95 -0.02,-28.19 -0.01,-28.43 -0.01,-28.66 -0.01,-28.9 -0.01,-29.14 -0.01,-29.38 -0.01,-29.62 -0.01,-29.85 -0.01,-30.09 -0,-30.33 -0,-30.57 -0,-30.8 -0,-31.04 -0,-31.28 -0,-31.52 -0,-31.76 -0,-31.99 -0,-32.23 -0,-32.47 -0,-32.71 -0,-32.95 -0,-33.18 -0,-33.42 -0,-33.66 -0,-33.9 -0,-34.13 -0,-34.37 -0,-34.61 -0,-34.85 -0,-35.09 -0,-35.32 -0,-35.56 0,-35.56 0,-35.32 0,-35.09 0,-34.85 0,-34.61 0,-34.37 0,-34.13 0,-33.9 0,-33.66 0,-33.42 0,-33.18 0,-32.95 0,-32.71 0,-32.47 0,-32.23 0,-31.99 0,-31.76 0,-31.52 0,-31.28 0,-31.04 0,-30.8 0,-30.57 0,-30.33 0.01,-30.09 0.01,-29.85 0.01,-29.62 0.01,-29.38 0.01,-29.14 0.01,-28.9 0.01,-28.66 0.01,-28.43 0.02,-28.19 0.02,-27.95 0.02,-27.71 0.02,-27.47 0.03,-27.24 0.03,-27 0.03,-26.76 0.03,-26.52 0.04,-26.28 0.04,-26.05 0.04,-25.81 0.04,-25.57 0.05,-25.33 0.05,-25.1 0.05,-24.86 0.05,-24.62 0.05,-24.38 0.05,-24.14 0.06,-23.91 0.06,-23.67 0.06,-23.43 0.06,-23.19 0.05,-22.95 0.05,-22.72 0.05,-22.48 0.05,-22.24 0.05,-22 0.05,-21.77 0.05,-21.53 0.04,-21.29 0.04,-21.05 0.04,-20.81 0.04,-20.58 0.04,-20.34 0.03,-20.1 0.03,-19.86 0.03,-19.62 0.03,-19.39 0.03,-19.15 0.03,-18.91 0.03,-18.67 0.03,-18.44 0.03,-18.2 0.03,-17.96 0.03,-17.72 0.04,-17.48 0.04,-17.25 0.04,-17.01 0.04,-16.77 0.05,-16.53 0.05,-16.29 0.06,-16.06 0.06,-15.82 0.07,-15.58 0.07,-15.34 0.08,-15.1 0.08,-14.87 0.09,-14.63 0.09,-14.39 0.09,-14.15 0.1,-13.92 0.1,-13.68 0.11,-13.44 0.11,-13.2 0.11,-12.96 0.11,-12.73 0.11,-12.49 0.11,-12.25 0.11,-12.01 0.11,-11.77 0.11,-11.54 0.11,-11.3 0.1,-11.06 0.1,-10.82 0.1,-10.59 0.1,-10.35 0.09,-10.11 0.09,-9.87 0.09,-9.63 0.08,-9.4 0.08,-9.16 0.08,-8.92 0.07,-8.68 0.07,-8.44 0.07,-8.21 0.07,-7.97 0.07,-7.73 0.07,-7.49 0.08,-7.26 0.08,-7.02 0.08,-6.78 0.08,-6.54 0.09,-6.3 0.09,-6.07 0.1,-5.83 0.1,-5.59 0.11,-5.35 0.12,-5.11 0.12,-4.88 0.13,-4.64 0.14,-4.4 0.14,-4.16 0.15,-3.92 0.15,-3.69 0.16,-3.45 0.17,-3.21 0.17,-2.97 0.17,-2.74 0.18,-2.5 0.18,-2.26 0.19,-2.02 0.19,-1.78 0.19,-1.55 0.19,-1.31 0.19,-1.07 0.2,-0.83 0.2,-0.59 0.2,-0.36 0.2,-0.12 0.2,0.12 0.2,0.36 0.2,0.59 0.2,0.83 0.2,1.07 0.2,1.31 0.2,1.55 0.2,1.78 0.2,2.02 0.2,2.26 0.2,2.5 0.2,2.74 0.2,2.97 0.2,3.21 0.21,3.45 0.21,3.69 0.21,3.92 0.21,4.16 0.22,4.4 0.22,4.64 0.22,4.88 0.22,5.11 0.23,5.35 0.23,5.59 0.23,5.83 0.23,6.07 0.23,6.3 0.24,6.54 0.24,6.78 0.24,7.02 0.24,7.26 0.24,7.49 0.24,7.73 0.24,7.97 0.24,8.21 0.24,8.44 0.24,8.68 0.24,8.92 0.24,9.16 0.24,9.4 0.24,9.63 0.24,9.87 0.25,10.11 0.25,10.35 0.25,10.59 0.25,10.82 0.25,11.06 0.26,11.3 0.26,11.54 0.26,11.77 0.27,12.01 0.28,12.25 0.28,12.49 0.29,12.73 0.3,12.96 0.31,13.2 0.33,13.44 0.34,13.68 0.36,13.92 0.38,14.15 0.41,14.39 0.43,14.63 0.46,14.87 0.49,15.1 0.53,15.34 0.56,15.58 0.6,15.82 0.65,16.06 0.69,16.29 0.74,16.53 0.8,16.77 0.85,17.01 0.91,17.25 0.96,17.48 1.02,17.72 1.08,17.96 1.14,18.2 1.2,18.44 1.26,18.67 1.32,18.91 1.38,19.15 1.43,19.39 1.49,19.62 1.53,19.86 1.58,20.1 1.62,20.34 1.65,20.58 1.68,20.81 1.7,21.05 1.71,21.29 1.72,21.53 1.72,21.77 1.71,22 1.69,22.24 1.67,22.48 1.63,22.72 1.6,22.95 1.55,23.19 1.5,23.43 1.44,23.67 1.38,23.91 1.31,24.14 1.24,24.38 1.17,24.62 1.1,24.86 1.03,25.1 0.95,25.33 0.88,25.57 0.81,25.81 0.73,26.05 0.67,26.28 0.6,26.52 0.54,26.76 0.48,27 0.43,27.24 0.38,27.47 0.33,27.71 0.29,27.95 0.25,28.19 0.22,28.43 0.19,28.66 0.16,28.9 0.13,29.14 0.11,29.38 0.09,29.62 0.08,29.85 0.07,30.09 0.05,30.33 0.04,30.57 0.04,30.8 0.03,31.04 0.02,31.28 0.02,31.52 0.01,31.76 0.01,31.99 0.01,32.23 0.01,32.47 0.01,32.71 0,32.95 0,33.18 0,33.42 0,33.66 0,33.9 0,34.13 0,34.37 0,34.61 0,34.85 0,35.09 0,35.32 0,35.56  z" class="primitive"/>
          </g>
          <g transform="translate(128.12,38.87)" id="img-bef2b2f4-40" fill="#BEA9FF">
            <path d="M-0,29.8 L-0,29.6 -0,29.4 -0,29.2 -0,29.01 -0,28.81 -0,28.61 -0,28.41 -0,28.21 -0,28.01 -0,27.81 -0,27.61 -0,27.41 -0,27.21 -0,27.01 -0,26.81 -0,26.61 -0,26.41 -0.01,26.21 -0.01,26.02 -0.01,25.82 -0.01,25.62 -0.01,25.42 -0.01,25.22 -0.02,25.02 -0.02,24.82 -0.02,24.62 -0.02,24.42 -0.03,24.22 -0.03,24.02 -0.04,23.82 -0.04,23.62 -0.05,23.42 -0.06,23.22 -0.06,23.03 -0.07,22.83 -0.08,22.63 -0.09,22.43 -0.1,22.23 -0.11,22.03 -0.13,21.83 -0.14,21.63 -0.16,21.43 -0.18,21.23 -0.2,21.03 -0.22,20.83 -0.24,20.63 -0.26,20.43 -0.29,20.23 -0.31,20.03 -0.34,19.84 -0.37,19.64 -0.4,19.44 -0.43,19.24 -0.46,19.04 -0.5,18.84 -0.53,18.64 -0.57,18.44 -0.61,18.24 -0.65,18.04 -0.69,17.84 -0.72,17.64 -0.76,17.44 -0.8,17.24 -0.84,17.04 -0.88,16.85 -0.92,16.65 -0.96,16.45 -0.99,16.25 -1.03,16.05 -1.06,15.85 -1.09,15.65 -1.13,15.45 -1.15,15.25 -1.18,15.05 -1.2,14.85 -1.23,14.65 -1.25,14.45 -1.26,14.25 -1.28,14.05 -1.29,13.85 -1.3,13.66 -1.3,13.46 -1.31,13.26 -1.31,13.06 -1.31,12.86 -1.3,12.66 -1.3,12.46 -1.29,12.26 -1.28,12.06 -1.27,11.86 -1.25,11.66 -1.24,11.46 -1.22,11.26 -1.2,11.06 -1.18,10.86 -1.16,10.67 -1.14,10.47 -1.12,10.27 -1.1,10.07 -1.08,9.87 -1.06,9.67 -1.04,9.47 -1.02,9.27 -1,9.07 -0.97,8.87 -0.95,8.67 -0.93,8.47 -0.91,8.27 -0.89,8.07 -0.87,7.87 -0.86,7.68 -0.84,7.48 -0.82,7.28 -0.8,7.08 -0.79,6.88 -0.77,6.68 -0.75,6.48 -0.74,6.28 -0.72,6.08 -0.7,5.88 -0.69,5.68 -0.67,5.48 -0.66,5.28 -0.64,5.08 -0.63,4.88 -0.61,4.68 -0.6,4.49 -0.58,4.29 -0.56,4.09 -0.55,3.89 -0.53,3.69 -0.52,3.49 -0.5,3.29 -0.49,3.09 -0.47,2.89 -0.46,2.69 -0.44,2.49 -0.43,2.29 -0.42,2.09 -0.4,1.89 -0.39,1.69 -0.38,1.5 -0.36,1.3 -0.35,1.1 -0.34,0.9 -0.33,0.7 -0.32,0.5 -0.31,0.3 -0.3,0.1 -0.29,-0.1 -0.28,-0.3 -0.28,-0.5 -0.27,-0.7 -0.26,-0.9 -0.26,-1.1 -0.25,-1.3 -0.25,-1.5 -0.24,-1.69 -0.24,-1.89 -0.24,-2.09 -0.24,-2.29 -0.23,-2.49 -0.23,-2.69 -0.23,-2.89 -0.23,-3.09 -0.23,-3.29 -0.23,-3.49 -0.23,-3.69 -0.23,-3.89 -0.23,-4.09 -0.23,-4.29 -0.23,-4.49 -0.23,-4.68 -0.23,-4.88 -0.23,-5.08 -0.23,-5.28 -0.23,-5.48 -0.23,-5.68 -0.23,-5.88 -0.23,-6.08 -0.23,-6.28 -0.23,-6.48 -0.23,-6.68 -0.23,-6.88 -0.23,-7.08 -0.23,-7.28 -0.23,-7.48 -0.23,-7.68 -0.23,-7.87 -0.23,-8.07 -0.22,-8.27 -0.22,-8.47 -0.22,-8.67 -0.22,-8.87 -0.22,-9.07 -0.22,-9.27 -0.21,-9.47 -0.21,-9.67 -0.21,-9.87 -0.21,-10.07 -0.21,-10.27 -0.21,-10.47 -0.2,-10.67 -0.2,-10.86 -0.2,-11.06 -0.2,-11.26 -0.2,-11.46 -0.2,-11.66 -0.19,-11.86 -0.19,-12.06 -0.19,-12.26 -0.19,-12.46 -0.19,-12.66 -0.19,-12.86 -0.18,-13.06 -0.18,-13.26 -0.18,-13.46 -0.18,-13.66 -0.18,-13.85 -0.17,-14.05 -0.17,-14.25 -0.17,-14.45 -0.17,-14.65 -0.16,-14.85 -0.16,-15.05 -0.16,-15.25 -0.15,-15.45 -0.15,-15.65 -0.15,-15.85 -0.14,-16.05 -0.14,-16.25 -0.14,-16.45 -0.13,-16.65 -0.13,-16.85 -0.12,-17.04 -0.12,-17.24 -0.11,-17.44 -0.11,-17.64 -0.1,-17.84 -0.1,-18.04 -0.09,-18.24 -0.09,-18.44 -0.08,-18.64 -0.08,-18.84 -0.07,-19.04 -0.07,-19.24 -0.06,-19.44 -0.06,-19.64 -0.06,-19.84 -0.05,-20.03 -0.05,-20.23 -0.04,-20.43 -0.04,-20.63 -0.04,-20.83 -0.03,-21.03 -0.03,-21.23 -0.03,-21.43 -0.03,-21.63 -0.02,-21.83 -0.02,-22.03 -0.02,-22.23 -0.02,-22.43 -0.02,-22.63 -0.01,-22.83 -0.01,-23.03 -0.01,-23.22 -0.01,-23.42 -0.01,-23.62 -0.01,-23.82 -0.01,-24.02 -0.01,-24.22 -0.01,-24.42 -0,-24.62 -0,-24.82 -0,-25.02 -0,-25.22 -0,-25.42 -0,-25.62 -0,-25.82 -0,-26.02 -0,-26.21 -0,-26.41 -0,-26.61 -0,-26.81 -0,-27.01 -0,-27.21 -0,-27.41 -0,-27.61 -0,-27.81 -0,-28.01 -0,-28.21 -0,-28.41 -0,-28.61 -0,-28.81 -0,-29.01 -0,-29.2 -0,-29.4 -0,-29.6 -0,-29.8 0,-29.8 0,-29.6 0,-29.4 0,-29.2 0,-29.01 0,-28.81 0,-28.61 0,-28.41 0,-28.21 0,-28.01 0,-27.81 0,-27.61 0,-27.41 0,-27.21 0,-27.01 0,-26.81 0,-26.61 0,-26.41 0,-26.21 0,-26.02 0,-25.82 0,-25.62 0,-25.42 0,-25.22 0,-25.02 0,-24.82 0,-24.62 0.01,-24.42 0.01,-24.22 0.01,-24.02 0.01,-23.82 0.01,-23.62 0.01,-23.42 0.01,-23.22 0.01,-23.03 0.01,-22.83 0.02,-22.63 0.02,-22.43 0.02,-22.23 0.02,-22.03 0.02,-21.83 0.03,-21.63 0.03,-21.43 0.03,-21.23 0.03,-21.03 0.04,-20.83 0.04,-20.63 0.04,-20.43 0.05,-20.23 0.05,-20.03 0.06,-19.84 0.06,-19.64 0.06,-19.44 0.07,-19.24 0.07,-19.04 0.08,-18.84 0.08,-18.64 0.09,-18.44 0.09,-18.24 0.1,-18.04 0.1,-17.84 0.11,-17.64 0.11,-17.44 0.12,-17.24 0.12,-17.04 0.13,-16.85 0.13,-16.65 0.14,-16.45 0.14,-16.25 0.14,-16.05 0.15,-15.85 0.15,-15.65 0.15,-15.45 0.16,-15.25 0.16,-15.05 0.16,-14.85 0.17,-14.65 0.17,-14.45 0.17,-14.25 0.17,-14.05 0.18,-13.85 0.18,-13.66 0.18,-13.46 0.18,-13.26 0.18,-13.06 0.19,-12.86 0.19,-12.66 0.19,-12.46 0.19,-12.26 0.19,-12.06 0.19,-11.86 0.2,-11.66 0.2,-11.46 0.2,-11.26 0.2,-11.06 0.2,-10.86 0.2,-10.67 0.21,-10.47 0.21,-10.27 0.21,-10.07 0.21,-9.87 0.21,-9.67 0.21,-9.47 0.22,-9.27 0.22,-9.07 0.22,-8.87 0.22,-8.67 0.22,-8.47 0.22,-8.27 0.23,-8.07 0.23,-7.87 0.23,-7.68 0.23,-7.48 0.23,-7.28 0.23,-7.08 0.23,-6.88 0.23,-6.68 0.23,-6.48 0.23,-6.28 0.23,-6.08 0.23,-5.88 0.23,-5.68 0.23,-5.48 0.23,-5.28 0.23,-5.08 0.23,-4.88 0.23,-4.68 0.23,-4.49 0.23,-4.29 0.23,-4.09 0.23,-3.89 0.23,-3.69 0.23,-3.49 0.23,-3.29 0.23,-3.09 0.23,-2.89 0.23,-2.69 0.23,-2.49 0.24,-2.29 0.24,-2.09 0.24,-1.89 0.24,-1.69 0.25,-1.5 0.25,-1.3 0.26,-1.1 0.26,-0.9 0.27,-0.7 0.28,-0.5 0.28,-0.3 0.29,-0.1 0.3,0.1 0.31,0.3 0.32,0.5 0.33,0.7 0.34,0.9 0.35,1.1 0.36,1.3 0.38,1.5 0.39,1.69 0.4,1.89 0.42,2.09 0.43,2.29 0.44,2.49 0.46,2.69 0.47,2.89 0.49,3.09 0.5,3.29 0.52,3.49 0.53,3.69 0.55,3.89 0.56,4.09 0.58,4.29 0.6,4.49 0.61,4.68 0.63,4.88 0.64,5.08 0.66,5.28 0.67,5.48 0.69,5.68 0.7,5.88 0.72,6.08 0.74,6.28 0.75,6.48 0.77,6.68 0.79,6.88 0.8,7.08 0.82,7.28 0.84,7.48 0.86,7.68 0.87,7.87 0.89,8.07 0.91,8.27 0.93,8.47 0.95,8.67 0.97,8.87 1,9.07 1.02,9.27 1.04,9.47 1.06,9.67 1.08,9.87 1.1,10.07 1.12,10.27 1.14,10.47 1.16,10.67 1.18,10.86 1.2,11.06 1.22,11.26 1.24,11.46 1.25,11.66 1.27,11.86 1.28,12.06 1.29,12.26 1.3,12.46 1.3,12.66 1.31,12.86 1.31,13.06 1.31,13.26 1.3,13.46 1.3,13.66 1.29,13.85 1.28,14.05 1.26,14.25 1.25,14.45 1.23,14.65 1.2,14.85 1.18,15.05 1.15,15.25 1.13,15.45 1.09,15.65 1.06,15.85 1.03,16.05 0.99,16.25 0.96,16.45 0.92,16.65 0.88,16.85 0.84,17.04 0.8,17.24 0.76,17.44 0.72,17.64 0.69,17.84 0.65,18.04 0.61,18.24 0.57,18.44 0.53,18.64 0.5,18.84 0.46,19.04 0.43,19.24 0.4,19.44 0.37,19.64 0.34,19.84 0.31,20.03 0.29,20.23 0.26,20.43 0.24,20.63 0.22,20.83 0.2,21.03 0.18,21.23 0.16,21.43 0.14,21.63 0.13,21.83 0.11,22.03 0.1,22.23 0.09,22.43 0.08,22.63 0.07,22.83 0.06,23.03 0.06,23.22 0.05,23.42 0.04,23.62 0.04,23.82 0.03,24.02 0.03,24.22 0.02,24.42 0.02,24.62 0.02,24.82 0.02,25.02 0.01,25.22 0.01,25.42 0.01,25.62 0.01,25.82 0.01,26.02 0.01,26.21 0,26.41 0,26.61 0,26.81 0,27.01 0,27.21 0,27.41 0,27.61 0,27.81 0,28.01 0,28.21 0,28.41 0,28.61 0,28.81 0,29.01 0,29.2 0,29.4 0,29.6 0,29.8  z" class="primitive"/>
          </g>
          <g transform="translate(31.19,49.8)" id="img-bef2b2f4-41" fill="#00BFFF">
            <path d="M-0,6.54 L-0,6.49 -0,6.45 -0,6.41 -0,6.36 -0,6.32 -0,6.28 -0.01,6.23 -0.01,6.19 -0.01,6.14 -0.02,6.1 -0.02,6.06 -0.03,6.01 -0.05,5.97 -0.06,5.93 -0.08,5.88 -0.11,5.84 -0.15,5.79 -0.2,5.75 -0.26,5.71 -0.33,5.66 -0.43,5.62 -0.54,5.58 -0.68,5.53 -0.84,5.49 -1.04,5.44 -1.27,5.4 -1.53,5.36 -1.84,5.31 -2.18,5.27 -2.56,5.23 -2.99,5.18 -3.46,5.14 -3.96,5.09 -4.49,5.05 -5.06,5.01 -5.64,4.96 -6.23,4.92 -6.83,4.88 -7.42,4.83 -7.99,4.79 -8.54,4.74 -9.05,4.7 -9.51,4.66 -9.91,4.61 -10.25,4.57 -10.53,4.53 -10.73,4.48 -10.85,4.44 -10.9,4.39 -10.88,4.35 -10.79,4.31 -10.64,4.26 -10.43,4.22 -10.17,4.18 -9.87,4.13 -9.53,4.09 -9.17,4.04 -8.79,4 -8.41,3.96 -8.02,3.91 -7.63,3.87 -7.26,3.83 -6.9,3.78 -6.56,3.74 -6.23,3.7 -5.93,3.65 -5.65,3.61 -5.4,3.56 -5.16,3.52 -4.95,3.48 -4.75,3.43 -4.57,3.39 -4.41,3.35 -4.26,3.3 -4.13,3.26 -4,3.21 -3.88,3.17 -3.76,3.13 -3.65,3.08 -3.55,3.04 -3.44,3 -3.33,2.95 -3.23,2.91 -3.12,2.86 -3.01,2.82 -2.9,2.78 -2.78,2.73 -2.67,2.69 -2.56,2.65 -2.45,2.6 -2.34,2.56 -2.23,2.51 -2.12,2.47 -2.02,2.43 -1.92,2.38 -1.83,2.34 -1.73,2.3 -1.65,2.25 -1.56,2.21 -1.49,2.16 -1.41,2.12 -1.34,2.08 -1.27,2.03 -1.2,1.99 -1.14,1.95 -1.08,1.9 -1.03,1.86 -0.97,1.81 -0.92,1.77 -0.87,1.73 -0.83,1.68 -0.78,1.64 -0.74,1.6 -0.71,1.55 -0.67,1.51 -0.64,1.46 -0.62,1.42 -0.59,1.38 -0.58,1.33 -0.57,1.29 -0.56,1.25 -0.56,1.2 -0.57,1.16 -0.58,1.12 -0.6,1.07 -0.62,1.03 -0.66,0.98 -0.69,0.94 -0.73,0.9 -0.78,0.85 -0.82,0.81 -0.87,0.77 -0.92,0.72 -0.96,0.68 -1,0.63 -1.03,0.59 -1.06,0.55 -1.08,0.5 -1.09,0.46 -1.08,0.42 -1.07,0.37 -1.05,0.33 -1.02,0.28 -0.98,0.24 -0.93,0.2 -0.88,0.15 -0.82,0.11 -0.76,0.07 -0.69,0.02 -0.63,-0.02 -0.56,-0.07 -0.5,-0.11 -0.44,-0.15 -0.38,-0.2 -0.33,-0.24 -0.28,-0.28 -0.24,-0.33 -0.2,-0.37 -0.17,-0.42 -0.14,-0.46 -0.11,-0.5 -0.09,-0.55 -0.08,-0.59 -0.07,-0.63 -0.06,-0.68 -0.05,-0.72 -0.05,-0.77 -0.05,-0.81 -0.05,-0.85 -0.06,-0.9 -0.07,-0.94 -0.08,-0.98 -0.09,-1.03 -0.11,-1.07 -0.12,-1.12 -0.14,-1.16 -0.16,-1.2 -0.18,-1.25 -0.21,-1.29 -0.23,-1.33 -0.25,-1.38 -0.27,-1.42 -0.29,-1.46 -0.31,-1.51 -0.33,-1.55 -0.34,-1.6 -0.35,-1.64 -0.36,-1.68 -0.36,-1.73 -0.36,-1.77 -0.36,-1.81 -0.35,-1.86 -0.34,-1.9 -0.33,-1.95 -0.31,-1.99 -0.29,-2.03 -0.27,-2.08 -0.25,-2.12 -0.22,-2.16 -0.2,-2.21 -0.18,-2.25 -0.16,-2.3 -0.14,-2.34 -0.12,-2.38 -0.1,-2.43 -0.09,-2.47 -0.07,-2.51 -0.06,-2.56 -0.05,-2.6 -0.04,-2.65 -0.03,-2.69 -0.03,-2.73 -0.02,-2.78 -0.02,-2.82 -0.01,-2.86 -0.01,-2.91 -0.01,-2.95 -0.01,-3 -0,-3.04 -0,-3.08 -0,-3.13 -0,-3.17 -0,-3.21 -0,-3.26 -0,-3.3 -0,-3.35 -0,-3.39 -0,-3.43 -0,-3.48 -0,-3.52 -0,-3.56 -0.01,-3.61 -0.01,-3.65 -0.01,-3.7 -0.01,-3.74 -0.02,-3.78 -0.02,-3.83 -0.03,-3.87 -0.04,-3.91 -0.04,-3.96 -0.05,-4 -0.07,-4.04 -0.08,-4.09 -0.1,-4.13 -0.11,-4.18 -0.13,-4.22 -0.15,-4.26 -0.17,-4.31 -0.19,-4.35 -0.22,-4.39 -0.24,-4.44 -0.26,-4.48 -0.28,-4.53 -0.3,-4.57 -0.32,-4.61 -0.34,-4.66 -0.35,-4.7 -0.36,-4.74 -0.36,-4.79 -0.36,-4.83 -0.36,-4.88 -0.36,-4.92 -0.35,-4.96 -0.33,-5.01 -0.32,-5.05 -0.3,-5.09 -0.28,-5.14 -0.26,-5.18 -0.24,-5.23 -0.21,-5.27 -0.19,-5.31 -0.17,-5.36 -0.15,-5.4 -0.13,-5.44 -0.11,-5.49 -0.09,-5.53 -0.08,-5.58 -0.07,-5.62 -0.05,-5.66 -0.04,-5.71 -0.04,-5.75 -0.03,-5.79 -0.02,-5.84 -0.02,-5.88 -0.01,-5.93 -0.01,-5.97 -0.01,-6.01 -0.01,-6.06 -0,-6.1 -0,-6.14 -0,-6.19 -0,-6.23 -0,-6.28 -0,-6.32 -0,-6.36 -0,-6.41 -0,-6.45 -0,-6.49 -0,-6.54 0,-6.54 0,-6.49 0,-6.45 0,-6.41 0,-6.36 0,-6.32 0,-6.28 0,-6.23 0,-6.19 0,-6.14 0,-6.1 0.01,-6.06 0.01,-6.01 0.01,-5.97 0.01,-5.93 0.02,-5.88 0.02,-5.84 0.03,-5.79 0.04,-5.75 0.04,-5.71 0.05,-5.66 0.07,-5.62 0.08,-5.58 0.09,-5.53 0.11,-5.49 0.13,-5.44 0.15,-5.4 0.17,-5.36 0.19,-5.31 0.21,-5.27 0.24,-5.23 0.26,-5.18 0.28,-5.14 0.3,-5.09 0.32,-5.05 0.33,-5.01 0.35,-4.96 0.36,-4.92 0.36,-4.88 0.36,-4.83 0.36,-4.79 0.36,-4.74 0.35,-4.7 0.34,-4.66 0.32,-4.61 0.3,-4.57 0.28,-4.53 0.26,-4.48 0.24,-4.44 0.22,-4.39 0.19,-4.35 0.17,-4.31 0.15,-4.26 0.13,-4.22 0.11,-4.18 0.1,-4.13 0.08,-4.09 0.07,-4.04 0.05,-4 0.04,-3.96 0.04,-3.91 0.03,-3.87 0.02,-3.83 0.02,-3.78 0.01,-3.74 0.01,-3.7 0.01,-3.65 0.01,-3.61 0,-3.56 0,-3.52 0,-3.48 0,-3.43 0,-3.39 0,-3.35 0,-3.3 0,-3.26 0,-3.21 0,-3.17 0,-3.13 0,-3.08 0,-3.04 0.01,-3 0.01,-2.95 0.01,-2.91 0.01,-2.86 0.02,-2.82 0.02,-2.78 0.03,-2.73 0.03,-2.69 0.04,-2.65 0.05,-2.6 0.06,-2.56 0.07,-2.51 0.09,-2.47 0.1,-2.43 0.12,-2.38 0.14,-2.34 0.16,-2.3 0.18,-2.25 0.2,-2.21 0.22,-2.16 0.25,-2.12 0.27,-2.08 0.29,-2.03 0.31,-1.99 0.33,-1.95 0.34,-1.9 0.35,-1.86 0.36,-1.81 0.36,-1.77 0.36,-1.73 0.36,-1.68 0.35,-1.64 0.34,-1.6 0.33,-1.55 0.31,-1.51 0.29,-1.46 0.27,-1.42 0.25,-1.38 0.23,-1.33 0.21,-1.29 0.18,-1.25 0.16,-1.2 0.14,-1.16 0.12,-1.12 0.11,-1.07 0.09,-1.03 0.08,-0.98 0.07,-0.94 0.06,-0.9 0.05,-0.85 0.05,-0.81 0.05,-0.77 0.05,-0.72 0.06,-0.68 0.07,-0.63 0.08,-0.59 0.09,-0.55 0.11,-0.5 0.14,-0.46 0.17,-0.42 0.2,-0.37 0.24,-0.33 0.28,-0.28 0.33,-0.24 0.38,-0.2 0.44,-0.15 0.5,-0.11 0.56,-0.07 0.63,-0.02 0.69,0.02 0.76,0.07 0.82,0.11 0.88,0.15 0.93,0.2 0.98,0.24 1.02,0.28 1.05,0.33 1.07,0.37 1.08,0.42 1.09,0.46 1.08,0.5 1.06,0.55 1.03,0.59 1,0.63 0.96,0.68 0.92,0.72 0.87,0.77 0.82,0.81 0.78,0.85 0.73,0.9 0.69,0.94 0.66,0.98 0.62,1.03 0.6,1.07 0.58,1.12 0.57,1.16 0.56,1.2 0.56,1.25 0.57,1.29 0.58,1.33 0.59,1.38 0.62,1.42 0.64,1.46 0.67,1.51 0.71,1.55 0.74,1.6 0.78,1.64 0.83,1.68 0.87,1.73 0.92,1.77 0.97,1.81 1.03,1.86 1.08,1.9 1.14,1.95 1.2,1.99 1.27,2.03 1.34,2.08 1.41,2.12 1.49,2.16 1.56,2.21 1.65,2.25 1.73,2.3 1.83,2.34 1.92,2.38 2.02,2.43 2.12,2.47 2.23,2.51 2.34,2.56 2.45,2.6 2.56,2.65 2.67,2.69 2.78,2.73 2.9,2.78 3.01,2.82 3.12,2.86 3.23,2.91 3.33,2.95 3.44,3 3.55,3.04 3.65,3.08 3.76,3.13 3.88,3.17 4,3.21 4.13,3.26 4.26,3.3 4.41,3.35 4.57,3.39 4.75,3.43 4.95,3.48 5.16,3.52 5.4,3.56 5.65,3.61 5.93,3.65 6.23,3.7 6.56,3.74 6.9,3.78 7.26,3.83 7.63,3.87 8.02,3.91 8.41,3.96 8.79,4 9.17,4.04 9.53,4.09 9.87,4.13 10.17,4.18 10.43,4.22 10.64,4.26 10.79,4.31 10.88,4.35 10.9,4.39 10.85,4.44 10.73,4.48 10.53,4.53 10.25,4.57 9.91,4.61 9.51,4.66 9.05,4.7 8.54,4.74 7.99,4.79 7.42,4.83 6.83,4.88 6.23,4.92 5.64,4.96 5.06,5.01 4.49,5.05 3.96,5.09 3.46,5.14 2.99,5.18 2.56,5.23 2.18,5.27 1.84,5.31 1.53,5.36 1.27,5.4 1.04,5.44 0.84,5.49 0.68,5.53 0.54,5.58 0.43,5.62 0.33,5.66 0.26,5.71 0.2,5.75 0.15,5.79 0.11,5.84 0.08,5.88 0.06,5.93 0.05,5.97 0.03,6.01 0.02,6.06 0.02,6.1 0.01,6.14 0.01,6.19 0.01,6.23 0,6.28 0,6.32 0,6.36 0,6.41 0,6.45 0,6.49 0,6.54  z" class="primitive"/>
          </g>
        </g>
      </g>
    </g>
  </g>
  <g class="guide ylabels" font-size="2.82" font-family="'PT Sans Caption','Helvetica Neue','Helvetica',sans-serif" fill="#6C606B" id="img-bef2b2f4-42">
    <g transform="translate(18.07,68.72)" id="img-bef2b2f4-43">
      <g class="primitive">
        <text text-anchor="end" dy="0.35em">-25</text>
      </g>
    </g>
    <g transform="translate(18.07,54.69)" id="img-bef2b2f4-44">
      <g class="primitive">
        <text text-anchor="end" dy="0.35em">0</text>
      </g>
    </g>
    <g transform="translate(18.07,40.66)" id="img-bef2b2f4-45">
      <g class="primitive">
        <text text-anchor="end" dy="0.35em">25</text>
      </g>
    </g>
    <g transform="translate(18.07,26.64)" id="img-bef2b2f4-46">
      <g class="primitive">
        <text text-anchor="end" dy="0.35em">50</text>
      </g>
    </g>
    <g transform="translate(18.07,12.61)" id="img-bef2b2f4-47">
      <g class="primitive">
        <text text-anchor="end" dy="0.35em">75</text>
      </g>
    </g>
  </g>
  <g font-size="3.88" font-family="'PT Sans','Helvetica Neue','Helvetica',sans-serif" fill="#564A55" stroke="#000000" stroke-opacity="0.000" id="img-bef2b2f4-48">
    <g transform="translate(8.81,38.66)" id="img-bef2b2f4-49">
      <g class="primitive">
        <text text-anchor="middle" dy="0.35em" transform="rotate(-90,0, 2)">GDP per Capita (dollars in 000s)</text>
      </g>
    </g>
  </g>
  <g font-size="3.88" font-family="'PT Sans','Helvetica Neue','Helvetica',sans-serif" fill="#564A55" stroke="#000000" stroke-opacity="0.000" id="img-bef2b2f4-50">
    <g transform="translate(79.65,5)" id="img-bef2b2f4-51">
      <g class="primitive">
        <text text-anchor="middle" dy="0.6em">2019 GDP per Capita by Region</text>
      </g>
    </g>
  </g>
</g>
<defs>
  <clipPath id="img-bef2b2f4-20">
    <path d="M19.07,10.61 L140.23,10.61 140.23,70.72 19.07,70.72 " />
  </clipPath>
</defs>
</svg>
