<?xml version="1.0" encoding="utf-8"?>
<svg xmlns="http://www.w3.org/2000/svg" xmlns:xlink="http://www.w3.org/1999/xlink" width="600" height="600" viewBox="0 0 2400 2400">
<defs>
  <clipPath id="clip430">
    <rect x="0" y="0" width="2400" height="2400"/>
  </clipPath>
</defs>
<path clip-path="url(#clip430)" d="
M0 2400 L2400 2400 L2400 0 L0 0  Z
  " fill="#ffffff" fill-rule="evenodd" fill-opacity="1"/>
<defs>
  <clipPath id="clip431">
    <rect x="480" y="240" width="1681" height="1681"/>
  </clipPath>
</defs>
<path clip-path="url(#clip430)" d="
M364.459 2174.14 L2352.76 2174.14 L2352.76 153.712 L364.459 153.712  Z
  " fill="#ffffff" fill-rule="evenodd" fill-opacity="1"/>
<defs>
  <clipPath id="clip432">
    <rect x="364" y="153" width="1989" height="2021"/>
  </clipPath>
</defs>
<polyline clip-path="url(#clip432)" style="stroke:#000000; stroke-linecap:butt; stroke-linejoin:round; stroke-width:2; stroke-opacity:0.1; fill:none" points="
  420.732,2174.14 420.732,153.712 
  "/>
<polyline clip-path="url(#clip432)" style="stroke:#000000; stroke-linecap:butt; stroke-linejoin:round; stroke-width:2; stroke-opacity:0.1; fill:none" points="
  837.565,2174.14 837.565,153.712 
  "/>
<polyline clip-path="url(#clip432)" style="stroke:#000000; stroke-linecap:butt; stroke-linejoin:round; stroke-width:2; stroke-opacity:0.1; fill:none" points="
  1254.4,2174.14 1254.4,153.712 
  "/>
<polyline clip-path="url(#clip432)" style="stroke:#000000; stroke-linecap:butt; stroke-linejoin:round; stroke-width:2; stroke-opacity:0.1; fill:none" points="
  1671.23,2174.14 1671.23,153.712 
  "/>
<polyline clip-path="url(#clip432)" style="stroke:#000000; stroke-linecap:butt; stroke-linejoin:round; stroke-width:2; stroke-opacity:0.1; fill:none" points="
  2088.07,2174.14 2088.07,153.712 
  "/>
<polyline clip-path="url(#clip430)" style="stroke:#000000; stroke-linecap:butt; stroke-linejoin:round; stroke-width:4; stroke-opacity:1; fill:none" points="
  364.459,2174.14 2352.76,2174.14 
  "/>
<polyline clip-path="url(#clip430)" style="stroke:#000000; stroke-linecap:butt; stroke-linejoin:round; stroke-width:4; stroke-opacity:1; fill:none" points="
  420.732,2174.14 420.732,2155.24 
  "/>
<polyline clip-path="url(#clip430)" style="stroke:#000000; stroke-linecap:butt; stroke-linejoin:round; stroke-width:4; stroke-opacity:1; fill:none" points="
  837.565,2174.14 837.565,2155.24 
  "/>
<polyline clip-path="url(#clip430)" style="stroke:#000000; stroke-linecap:butt; stroke-linejoin:round; stroke-width:4; stroke-opacity:1; fill:none" points="
  1254.4,2174.14 1254.4,2155.24 
  "/>
<polyline clip-path="url(#clip430)" style="stroke:#000000; stroke-linecap:butt; stroke-linejoin:round; stroke-width:4; stroke-opacity:1; fill:none" points="
  1671.23,2174.14 1671.23,2155.24 
  "/>
<polyline clip-path="url(#clip430)" style="stroke:#000000; stroke-linecap:butt; stroke-linejoin:round; stroke-width:4; stroke-opacity:1; fill:none" points="
  2088.07,2174.14 2088.07,2155.24 
  "/>
<path clip-path="url(#clip430)" d="M420.732 2205.06 Q417.12 2205.06 415.292 2208.62 Q413.486 2212.16 413.486 2219.29 Q413.486 2226.4 415.292 2229.97 Q417.12 2233.51 420.732 2233.51 Q424.366 2233.51 426.171 2229.97 Q428 2226.4 428 2219.29 Q428 2212.16 426.171 2208.62 Q424.366 2205.06 420.732 2205.06 M420.732 2201.35 Q426.542 2201.35 429.597 2205.96 Q432.676 2210.54 432.676 2219.29 Q432.676 2228.02 429.597 2232.63 Q426.542 2237.21 420.732 2237.21 Q414.921 2237.21 411.843 2232.63 Q408.787 2228.02 408.787 2219.29 Q408.787 2210.54 411.843 2205.96 Q414.921 2201.35 420.732 2201.35 Z" fill="#000000" fill-rule="evenodd" fill-opacity="1" /><path clip-path="url(#clip430)" d="M832.218 2232.6 L848.537 2232.6 L848.537 2236.54 L826.593 2236.54 L826.593 2232.6 Q829.255 2229.85 833.838 2225.22 Q838.445 2220.57 839.625 2219.23 Q841.871 2216.7 842.75 2214.97 Q843.653 2213.21 843.653 2211.52 Q843.653 2208.76 841.709 2207.03 Q839.787 2205.29 836.686 2205.29 Q834.487 2205.29 832.033 2206.05 Q829.602 2206.82 826.825 2208.37 L826.825 2203.65 Q829.649 2202.51 832.102 2201.93 Q834.556 2201.35 836.593 2201.35 Q841.963 2201.35 845.158 2204.04 Q848.352 2206.73 848.352 2211.22 Q848.352 2213.35 847.542 2215.27 Q846.755 2217.16 844.649 2219.76 Q844.07 2220.43 840.968 2223.65 Q837.866 2226.84 832.218 2232.6 Z" fill="#000000" fill-rule="evenodd" fill-opacity="1" /><path clip-path="url(#clip430)" d="M1257.41 2206.05 L1245.6 2224.5 L1257.41 2224.5 L1257.41 2206.05 M1256.18 2201.98 L1262.06 2201.98 L1262.06 2224.5 L1266.99 2224.5 L1266.99 2228.39 L1262.06 2228.39 L1262.06 2236.54 L1257.41 2236.54 L1257.41 2228.39 L1241.81 2228.39 L1241.81 2223.88 L1256.18 2201.98 Z" fill="#000000" fill-rule="evenodd" fill-opacity="1" /><path clip-path="url(#clip430)" d="M1671.64 2217.4 Q1668.49 2217.4 1666.64 2219.55 Q1664.81 2221.7 1664.81 2225.45 Q1664.81 2229.18 1666.64 2231.35 Q1668.49 2233.51 1671.64 2233.51 Q1674.79 2233.51 1676.61 2231.35 Q1678.47 2229.18 1678.47 2225.45 Q1678.47 2221.7 1676.61 2219.55 Q1674.79 2217.4 1671.64 2217.4 M1680.92 2202.74 L1680.92 2207 Q1679.16 2206.17 1677.36 2205.73 Q1675.57 2205.29 1673.81 2205.29 Q1669.18 2205.29 1666.73 2208.41 Q1664.3 2211.54 1663.95 2217.86 Q1665.32 2215.85 1667.38 2214.78 Q1669.44 2213.69 1671.92 2213.69 Q1677.12 2213.69 1680.13 2216.86 Q1683.17 2220.01 1683.17 2225.45 Q1683.17 2230.78 1680.02 2233.99 Q1676.87 2237.21 1671.64 2237.21 Q1665.64 2237.21 1662.47 2232.63 Q1659.3 2228.02 1659.3 2219.29 Q1659.3 2211.1 1663.19 2206.24 Q1667.08 2201.35 1673.63 2201.35 Q1675.39 2201.35 1677.17 2201.7 Q1678.98 2202.05 1680.92 2202.74 Z" fill="#000000" fill-rule="evenodd" fill-opacity="1" /><path clip-path="url(#clip430)" d="M2088.07 2220.13 Q2084.73 2220.13 2082.81 2221.91 Q2080.91 2223.69 2080.91 2226.82 Q2080.91 2229.94 2082.81 2231.73 Q2084.73 2233.51 2088.07 2233.51 Q2091.4 2233.51 2093.32 2231.73 Q2095.24 2229.92 2095.24 2226.82 Q2095.24 2223.69 2093.32 2221.91 Q2091.42 2220.13 2088.07 2220.13 M2083.39 2218.14 Q2080.38 2217.4 2078.69 2215.34 Q2077.02 2213.28 2077.02 2210.31 Q2077.02 2206.17 2079.96 2203.76 Q2082.93 2201.35 2088.07 2201.35 Q2093.23 2201.35 2096.17 2203.76 Q2099.11 2206.17 2099.11 2210.31 Q2099.11 2213.28 2097.42 2215.34 Q2095.75 2217.4 2092.77 2218.14 Q2096.15 2218.92 2098.02 2221.22 Q2099.92 2223.51 2099.92 2226.82 Q2099.92 2231.84 2096.84 2234.53 Q2093.78 2237.21 2088.07 2237.21 Q2082.35 2237.21 2079.27 2234.53 Q2076.21 2231.84 2076.21 2226.82 Q2076.21 2223.51 2078.11 2221.22 Q2080.01 2218.92 2083.39 2218.14 M2081.68 2210.75 Q2081.68 2213.44 2083.34 2214.94 Q2085.03 2216.45 2088.07 2216.45 Q2091.08 2216.45 2092.77 2214.94 Q2094.48 2213.44 2094.48 2210.75 Q2094.48 2208.07 2092.77 2206.56 Q2091.08 2205.06 2088.07 2205.06 Q2085.03 2205.06 2083.34 2206.56 Q2081.68 2208.07 2081.68 2210.75 Z" fill="#000000" fill-rule="evenodd" fill-opacity="1" /><path clip-path="url(#clip430)" d="M1246.62 2271.48 L1276.66 2271.48 L1276.66 2276.89 L1253.05 2276.89 L1253.05 2290.96 L1275.68 2290.96 L1275.68 2296.37 L1253.05 2296.37 L1253.05 2313.59 L1277.24 2313.59 L1277.24 2319 L1246.62 2319 L1246.62 2271.48 Z" fill="#000000" fill-rule="evenodd" fill-opacity="1" /><path clip-path="url(#clip430)" d="M1293.22 2313.66 L1293.22 2332.56 L1287.33 2332.56 L1287.33 2283.36 L1293.22 2283.36 L1293.22 2288.77 Q1295.06 2285.58 1297.86 2284.06 Q1300.7 2282.5 1304.61 2282.5 Q1311.1 2282.5 1315.15 2287.65 Q1319.22 2292.81 1319.22 2301.21 Q1319.22 2309.61 1315.15 2314.77 Q1311.1 2319.93 1304.61 2319.93 Q1300.7 2319.93 1297.86 2318.4 Q1295.06 2316.84 1293.22 2313.66 M1313.14 2301.21 Q1313.14 2294.75 1310.47 2291.09 Q1307.83 2287.4 1303.18 2287.4 Q1298.53 2287.4 1295.86 2291.09 Q1293.22 2294.75 1293.22 2301.21 Q1293.22 2307.67 1295.86 2311.36 Q1298.53 2315.03 1303.18 2315.03 Q1307.83 2315.03 1310.47 2311.36 Q1313.14 2307.67 1313.14 2301.21 Z" fill="#000000" fill-rule="evenodd" fill-opacity="1" /><path clip-path="url(#clip430)" d="M1342.74 2287.46 Q1338.03 2287.46 1335.29 2291.15 Q1332.56 2294.81 1332.56 2301.21 Q1332.56 2307.61 1335.26 2311.3 Q1338 2314.96 1342.74 2314.96 Q1347.42 2314.96 1350.16 2311.27 Q1352.89 2307.58 1352.89 2301.21 Q1352.89 2294.88 1350.16 2291.19 Q1347.42 2287.46 1342.74 2287.46 M1342.74 2282.5 Q1350.38 2282.5 1354.74 2287.46 Q1359.1 2292.43 1359.1 2301.21 Q1359.1 2309.96 1354.74 2314.96 Q1350.38 2319.93 1342.74 2319.93 Q1335.07 2319.93 1330.71 2314.96 Q1326.38 2309.96 1326.38 2301.21 Q1326.38 2292.43 1330.71 2287.46 Q1335.07 2282.5 1342.74 2282.5 Z" fill="#000000" fill-rule="evenodd" fill-opacity="1" /><path clip-path="url(#clip430)" d="M1394.46 2284.72 L1394.46 2290.2 Q1391.98 2288.83 1389.47 2288.16 Q1386.98 2287.46 1384.44 2287.46 Q1378.74 2287.46 1375.59 2291.09 Q1372.44 2294.69 1372.44 2301.21 Q1372.44 2307.74 1375.59 2311.36 Q1378.74 2314.96 1384.44 2314.96 Q1386.98 2314.96 1389.47 2314.29 Q1391.98 2313.59 1394.46 2312.22 L1394.46 2317.64 Q1392.01 2318.78 1389.37 2319.35 Q1386.76 2319.93 1383.8 2319.93 Q1375.75 2319.93 1371 2314.87 Q1366.26 2309.81 1366.26 2301.21 Q1366.26 2292.49 1371.04 2287.49 Q1375.84 2282.5 1384.18 2282.5 Q1386.89 2282.5 1389.47 2283.07 Q1392.04 2283.61 1394.46 2284.72 Z" fill="#000000" fill-rule="evenodd" fill-opacity="1" /><path clip-path="url(#clip430)" d="M1434.28 2297.49 L1434.28 2319 L1428.42 2319 L1428.42 2297.68 Q1428.42 2292.62 1426.45 2290.1 Q1424.48 2287.59 1420.53 2287.59 Q1415.79 2287.59 1413.05 2290.61 Q1410.31 2293.64 1410.31 2298.86 L1410.31 2319 L1404.42 2319 L1404.42 2269.48 L1410.31 2269.48 L1410.31 2288.89 Q1412.41 2285.68 1415.25 2284.09 Q1418.11 2282.5 1421.83 2282.5 Q1427.98 2282.5 1431.13 2286.32 Q1434.28 2290.1 1434.28 2297.49 Z" fill="#000000" fill-rule="evenodd" fill-opacity="1" /><path clip-path="url(#clip430)" d="M1468.69 2284.41 L1468.69 2289.94 Q1466.2 2288.67 1463.53 2288.03 Q1460.86 2287.4 1457.99 2287.4 Q1453.63 2287.4 1451.44 2288.73 Q1449.27 2290.07 1449.27 2292.75 Q1449.27 2294.78 1450.83 2295.96 Q1452.39 2297.11 1457.1 2298.16 L1459.11 2298.6 Q1465.34 2299.94 1467.95 2302.39 Q1470.6 2304.81 1470.6 2309.17 Q1470.6 2314.13 1466.65 2317.03 Q1462.73 2319.93 1455.86 2319.93 Q1452.99 2319.93 1449.88 2319.35 Q1446.79 2318.81 1443.35 2317.7 L1443.35 2311.65 Q1446.6 2313.34 1449.75 2314.2 Q1452.9 2315.03 1455.99 2315.03 Q1460.12 2315.03 1462.35 2313.62 Q1464.58 2312.19 1464.58 2309.61 Q1464.58 2307.23 1462.96 2305.95 Q1461.37 2304.68 1455.92 2303.5 L1453.89 2303.03 Q1448.44 2301.88 1446.02 2299.52 Q1443.61 2297.14 1443.61 2293 Q1443.61 2287.97 1447.17 2285.23 Q1450.74 2282.5 1457.29 2282.5 Q1460.54 2282.5 1463.4 2282.97 Q1466.27 2283.45 1468.69 2284.41 Z" fill="#000000" fill-rule="evenodd" fill-opacity="1" /><polyline clip-path="url(#clip432)" style="stroke:#000000; stroke-linecap:butt; stroke-linejoin:round; stroke-width:2; stroke-opacity:0.1; fill:none" points="
  364.459,1878.71 2352.76,1878.71 
  "/>
<polyline clip-path="url(#clip432)" style="stroke:#000000; stroke-linecap:butt; stroke-linejoin:round; stroke-width:2; stroke-opacity:0.1; fill:none" points="
  364.459,1578.75 2352.76,1578.75 
  "/>
<polyline clip-path="url(#clip432)" style="stroke:#000000; stroke-linecap:butt; stroke-linejoin:round; stroke-width:2; stroke-opacity:0.1; fill:none" points="
  364.459,1278.79 2352.76,1278.79 
  "/>
<polyline clip-path="url(#clip432)" style="stroke:#000000; stroke-linecap:butt; stroke-linejoin:round; stroke-width:2; stroke-opacity:0.1; fill:none" points="
  364.459,978.828 2352.76,978.828 
  "/>
<polyline clip-path="url(#clip432)" style="stroke:#000000; stroke-linecap:butt; stroke-linejoin:round; stroke-width:2; stroke-opacity:0.1; fill:none" points="
  364.459,678.867 2352.76,678.867 
  "/>
<polyline clip-path="url(#clip432)" style="stroke:#000000; stroke-linecap:butt; stroke-linejoin:round; stroke-width:2; stroke-opacity:0.1; fill:none" points="
  364.459,378.906 2352.76,378.906 
  "/>
<polyline clip-path="url(#clip430)" style="stroke:#000000; stroke-linecap:butt; stroke-linejoin:round; stroke-width:4; stroke-opacity:1; fill:none" points="
  364.459,2174.14 364.459,153.712 
  "/>
<polyline clip-path="url(#clip430)" style="stroke:#000000; stroke-linecap:butt; stroke-linejoin:round; stroke-width:4; stroke-opacity:1; fill:none" points="
  364.459,1878.71 383.357,1878.71 
  "/>
<polyline clip-path="url(#clip430)" style="stroke:#000000; stroke-linecap:butt; stroke-linejoin:round; stroke-width:4; stroke-opacity:1; fill:none" points="
  364.459,1578.75 383.357,1578.75 
  "/>
<polyline clip-path="url(#clip430)" style="stroke:#000000; stroke-linecap:butt; stroke-linejoin:round; stroke-width:4; stroke-opacity:1; fill:none" points="
  364.459,1278.79 383.357,1278.79 
  "/>
<polyline clip-path="url(#clip430)" style="stroke:#000000; stroke-linecap:butt; stroke-linejoin:round; stroke-width:4; stroke-opacity:1; fill:none" points="
  364.459,978.828 383.357,978.828 
  "/>
<polyline clip-path="url(#clip430)" style="stroke:#000000; stroke-linecap:butt; stroke-linejoin:round; stroke-width:4; stroke-opacity:1; fill:none" points="
  364.459,678.867 383.357,678.867 
  "/>
<polyline clip-path="url(#clip430)" style="stroke:#000000; stroke-linecap:butt; stroke-linejoin:round; stroke-width:4; stroke-opacity:1; fill:none" points="
  364.459,378.906 383.357,378.906 
  "/>
<path clip-path="url(#clip430)" d="M141.585 1898.5 L149.224 1898.5 L149.224 1872.14 L140.914 1873.81 L140.914 1869.55 L149.178 1867.88 L153.853 1867.88 L153.853 1898.5 L161.492 1898.5 L161.492 1902.44 L141.585 1902.44 L141.585 1898.5 Z" fill="#000000" fill-rule="evenodd" fill-opacity="1" /><path clip-path="url(#clip430)" d="M170.937 1896.56 L175.821 1896.56 L175.821 1902.44 L170.937 1902.44 L170.937 1896.56 Z" fill="#000000" fill-rule="evenodd" fill-opacity="1" /><path clip-path="url(#clip430)" d="M196.006 1870.96 Q192.395 1870.96 190.566 1874.52 Q188.761 1878.06 188.761 1885.19 Q188.761 1892.3 190.566 1895.87 Q192.395 1899.41 196.006 1899.41 Q199.64 1899.41 201.446 1895.87 Q203.274 1892.3 203.274 1885.19 Q203.274 1878.06 201.446 1874.52 Q199.64 1870.96 196.006 1870.96 M196.006 1867.25 Q201.816 1867.25 204.872 1871.86 Q207.95 1876.44 207.95 1885.19 Q207.95 1893.92 204.872 1898.53 Q201.816 1903.11 196.006 1903.11 Q190.196 1903.11 187.117 1898.53 Q184.062 1893.92 184.062 1885.19 Q184.062 1876.44 187.117 1871.86 Q190.196 1867.25 196.006 1867.25 Z" fill="#000000" fill-rule="evenodd" fill-opacity="1" /><path clip-path="url(#clip430)" d="M244.339 1876.98 L233.76 1887.6 L244.339 1898.18 L241.584 1900.98 L230.959 1890.36 L220.335 1900.98 L217.603 1898.18 L228.159 1887.6 L217.603 1876.98 L220.335 1874.18 L230.959 1884.8 L241.584 1874.18 L244.339 1876.98 Z" fill="#000000" fill-rule="evenodd" fill-opacity="1" /><path clip-path="url(#clip430)" d="M256.7 1898.5 L264.339 1898.5 L264.339 1872.14 L256.029 1873.81 L256.029 1869.55 L264.293 1867.88 L268.969 1867.88 L268.969 1898.5 L276.607 1898.5 L276.607 1902.44 L256.7 1902.44 L256.7 1898.5 Z" fill="#000000" fill-rule="evenodd" fill-opacity="1" /><path clip-path="url(#clip430)" d="M296.052 1870.96 Q292.441 1870.96 290.612 1874.52 Q288.806 1878.06 288.806 1885.19 Q288.806 1892.3 290.612 1895.87 Q292.441 1899.41 296.052 1899.41 Q299.686 1899.41 301.492 1895.87 Q303.32 1892.3 303.32 1885.19 Q303.32 1878.06 301.492 1874.52 Q299.686 1870.96 296.052 1870.96 M296.052 1867.25 Q301.862 1867.25 304.917 1871.86 Q307.996 1876.44 307.996 1885.19 Q307.996 1893.92 304.917 1898.53 Q301.862 1903.11 296.052 1903.11 Q290.242 1903.11 287.163 1898.53 Q284.107 1893.92 284.107 1885.19 Q284.107 1876.44 287.163 1871.86 Q290.242 1867.25 296.052 1867.25 Z" fill="#000000" fill-rule="evenodd" fill-opacity="1" /><path clip-path="url(#clip430)" d="M320.673 1850.26 L311.081 1865.25 L320.673 1865.25 L320.673 1850.26 M319.676 1846.95 L324.453 1846.95 L324.453 1865.25 L328.459 1865.25 L328.459 1868.41 L324.453 1868.41 L324.453 1875.03 L320.673 1875.03 L320.673 1868.41 L307.996 1868.41 L307.996 1864.74 L319.676 1846.95 Z" fill="#000000" fill-rule="evenodd" fill-opacity="1" /><path clip-path="url(#clip430)" d="M144.803 1598.54 L161.122 1598.54 L161.122 1602.48 L139.178 1602.48 L139.178 1598.54 Q141.84 1595.79 146.423 1591.16 Q151.029 1586.51 152.21 1585.16 Q154.455 1582.64 155.335 1580.9 Q156.238 1579.14 156.238 1577.46 Q156.238 1574.7 154.293 1572.96 Q152.372 1571.23 149.27 1571.23 Q147.071 1571.23 144.617 1571.99 Q142.187 1572.76 139.409 1574.31 L139.409 1569.58 Q142.233 1568.45 144.687 1567.87 Q147.14 1567.29 149.178 1567.29 Q154.548 1567.29 157.742 1569.98 Q160.937 1572.66 160.937 1577.15 Q160.937 1579.28 160.127 1581.21 Q159.339 1583.1 157.233 1585.7 Q156.654 1586.37 153.552 1589.58 Q150.451 1592.78 144.803 1598.54 Z" fill="#000000" fill-rule="evenodd" fill-opacity="1" /><path clip-path="url(#clip430)" d="M170.937 1596.6 L175.821 1596.6 L175.821 1602.48 L170.937 1602.48 L170.937 1596.6 Z" fill="#000000" fill-rule="evenodd" fill-opacity="1" /><path clip-path="url(#clip430)" d="M196.006 1571 Q192.395 1571 190.566 1574.56 Q188.761 1578.1 188.761 1585.23 Q188.761 1592.34 190.566 1595.9 Q192.395 1599.45 196.006 1599.45 Q199.64 1599.45 201.446 1595.9 Q203.274 1592.34 203.274 1585.23 Q203.274 1578.1 201.446 1574.56 Q199.64 1571 196.006 1571 M196.006 1567.29 Q201.816 1567.29 204.872 1571.9 Q207.95 1576.48 207.95 1585.23 Q207.95 1593.96 204.872 1598.57 Q201.816 1603.15 196.006 1603.15 Q190.196 1603.15 187.117 1598.57 Q184.062 1593.96 184.062 1585.23 Q184.062 1576.48 187.117 1571.9 Q190.196 1567.29 196.006 1567.29 Z" fill="#000000" fill-rule="evenodd" fill-opacity="1" /><path clip-path="url(#clip430)" d="M244.339 1577.02 L233.76 1587.64 L244.339 1598.22 L241.584 1601.02 L230.959 1590.39 L220.335 1601.02 L217.603 1598.22 L228.159 1587.64 L217.603 1577.02 L220.335 1574.21 L230.959 1584.84 L241.584 1574.21 L244.339 1577.02 Z" fill="#000000" fill-rule="evenodd" fill-opacity="1" /><path clip-path="url(#clip430)" d="M256.7 1598.54 L264.339 1598.54 L264.339 1572.18 L256.029 1573.84 L256.029 1569.58 L264.293 1567.92 L268.969 1567.92 L268.969 1598.54 L276.607 1598.54 L276.607 1602.48 L256.7 1602.48 L256.7 1598.54 Z" fill="#000000" fill-rule="evenodd" fill-opacity="1" /><path clip-path="url(#clip430)" d="M296.052 1571 Q292.441 1571 290.612 1574.56 Q288.806 1578.1 288.806 1585.23 Q288.806 1592.34 290.612 1595.9 Q292.441 1599.45 296.052 1599.45 Q299.686 1599.45 301.492 1595.9 Q303.32 1592.34 303.32 1585.23 Q303.32 1578.1 301.492 1574.56 Q299.686 1571 296.052 1571 M296.052 1567.29 Q301.862 1567.29 304.917 1571.9 Q307.996 1576.48 307.996 1585.23 Q307.996 1593.96 304.917 1598.57 Q301.862 1603.15 296.052 1603.15 Q290.242 1603.15 287.163 1598.57 Q284.107 1593.96 284.107 1585.23 Q284.107 1576.48 287.163 1571.9 Q290.242 1567.29 296.052 1567.29 Z" fill="#000000" fill-rule="evenodd" fill-opacity="1" /><path clip-path="url(#clip430)" d="M320.673 1550.3 L311.081 1565.29 L320.673 1565.29 L320.673 1550.3 M319.676 1546.99 L324.453 1546.99 L324.453 1565.29 L328.459 1565.29 L328.459 1568.45 L324.453 1568.45 L324.453 1575.07 L320.673 1575.07 L320.673 1568.45 L307.996 1568.45 L307.996 1564.78 L319.676 1546.99 Z" fill="#000000" fill-rule="evenodd" fill-opacity="1" /><path clip-path="url(#clip430)" d="M154.941 1283.88 Q158.298 1284.6 160.173 1286.87 Q162.071 1289.14 162.071 1292.47 Q162.071 1297.59 158.552 1300.39 Q155.034 1303.19 148.553 1303.19 Q146.377 1303.19 144.062 1302.75 Q141.77 1302.33 139.316 1301.48 L139.316 1296.96 Q141.261 1298.1 143.576 1298.67 Q145.89 1299.25 148.414 1299.25 Q152.812 1299.25 155.103 1297.52 Q157.418 1295.78 157.418 1292.47 Q157.418 1289.42 155.265 1287.7 Q153.136 1285.97 149.316 1285.97 L145.289 1285.97 L145.289 1282.12 L149.502 1282.12 Q152.951 1282.12 154.779 1280.76 Q156.608 1279.37 156.608 1276.78 Q156.608 1274.11 154.71 1272.7 Q152.835 1271.27 149.316 1271.27 Q147.395 1271.27 145.196 1271.68 Q142.997 1272.1 140.358 1272.98 L140.358 1268.81 Q143.02 1268.07 145.335 1267.7 Q147.673 1267.33 149.733 1267.33 Q155.057 1267.33 158.159 1269.76 Q161.261 1272.17 161.261 1276.29 Q161.261 1279.16 159.617 1281.15 Q157.974 1283.12 154.941 1283.88 Z" fill="#000000" fill-rule="evenodd" fill-opacity="1" /><path clip-path="url(#clip430)" d="M170.937 1296.64 L175.821 1296.64 L175.821 1302.52 L170.937 1302.52 L170.937 1296.64 Z" fill="#000000" fill-rule="evenodd" fill-opacity="1" /><path clip-path="url(#clip430)" d="M196.006 1271.04 Q192.395 1271.04 190.566 1274.6 Q188.761 1278.14 188.761 1285.27 Q188.761 1292.38 190.566 1295.94 Q192.395 1299.48 196.006 1299.48 Q199.64 1299.48 201.446 1295.94 Q203.274 1292.38 203.274 1285.27 Q203.274 1278.14 201.446 1274.6 Q199.64 1271.04 196.006 1271.04 M196.006 1267.33 Q201.816 1267.33 204.872 1271.94 Q207.95 1276.52 207.95 1285.27 Q207.95 1294 204.872 1298.61 Q201.816 1303.19 196.006 1303.19 Q190.196 1303.19 187.117 1298.61 Q184.062 1294 184.062 1285.27 Q184.062 1276.52 187.117 1271.94 Q190.196 1267.33 196.006 1267.33 Z" fill="#000000" fill-rule="evenodd" fill-opacity="1" /><path clip-path="url(#clip430)" d="M244.339 1277.05 L233.76 1287.68 L244.339 1298.26 L241.584 1301.06 L230.959 1290.43 L220.335 1301.06 L217.603 1298.26 L228.159 1287.68 L217.603 1277.05 L220.335 1274.25 L230.959 1284.88 L241.584 1274.25 L244.339 1277.05 Z" fill="#000000" fill-rule="evenodd" fill-opacity="1" /><path clip-path="url(#clip430)" d="M256.7 1298.58 L264.339 1298.58 L264.339 1272.22 L256.029 1273.88 L256.029 1269.62 L264.293 1267.96 L268.969 1267.96 L268.969 1298.58 L276.607 1298.58 L276.607 1302.52 L256.7 1302.52 L256.7 1298.58 Z" fill="#000000" fill-rule="evenodd" fill-opacity="1" /><path clip-path="url(#clip430)" d="M296.052 1271.04 Q292.441 1271.04 290.612 1274.6 Q288.806 1278.14 288.806 1285.27 Q288.806 1292.38 290.612 1295.94 Q292.441 1299.48 296.052 1299.48 Q299.686 1299.48 301.492 1295.94 Q303.32 1292.38 303.32 1285.27 Q303.32 1278.14 301.492 1274.6 Q299.686 1271.04 296.052 1271.04 M296.052 1267.33 Q301.862 1267.33 304.917 1271.94 Q307.996 1276.52 307.996 1285.27 Q307.996 1294 304.917 1298.61 Q301.862 1303.19 296.052 1303.19 Q290.242 1303.19 287.163 1298.61 Q284.107 1294 284.107 1285.27 Q284.107 1276.52 287.163 1271.94 Q290.242 1267.33 296.052 1267.33 Z" fill="#000000" fill-rule="evenodd" fill-opacity="1" /><path clip-path="url(#clip430)" d="M320.673 1250.34 L311.081 1265.33 L320.673 1265.33 L320.673 1250.34 M319.676 1247.03 L324.453 1247.03 L324.453 1265.33 L328.459 1265.33 L328.459 1268.49 L324.453 1268.49 L324.453 1275.11 L320.673 1275.11 L320.673 1268.49 L307.996 1268.49 L307.996 1264.82 L319.676 1247.03 Z" fill="#000000" fill-rule="evenodd" fill-opacity="1" /><path clip-path="url(#clip430)" d="M153.622 972.07 L141.816 990.519 L153.622 990.519 L153.622 972.07 M152.395 967.996 L158.275 967.996 L158.275 990.519 L163.205 990.519 L163.205 994.408 L158.275 994.408 L158.275 1002.56 L153.622 1002.56 L153.622 994.408 L138.02 994.408 L138.02 989.894 L152.395 967.996 Z" fill="#000000" fill-rule="evenodd" fill-opacity="1" /><path clip-path="url(#clip430)" d="M170.937 996.676 L175.821 996.676 L175.821 1002.56 L170.937 1002.56 L170.937 996.676 Z" fill="#000000" fill-rule="evenodd" fill-opacity="1" /><path clip-path="url(#clip430)" d="M196.006 971.075 Q192.395 971.075 190.566 974.64 Q188.761 978.181 188.761 985.311 Q188.761 992.417 190.566 995.982 Q192.395 999.524 196.006 999.524 Q199.64 999.524 201.446 995.982 Q203.274 992.417 203.274 985.311 Q203.274 978.181 201.446 974.64 Q199.64 971.075 196.006 971.075 M196.006 967.371 Q201.816 967.371 204.872 971.978 Q207.95 976.561 207.95 985.311 Q207.95 994.038 204.872 998.644 Q201.816 1003.23 196.006 1003.23 Q190.196 1003.23 187.117 998.644 Q184.062 994.038 184.062 985.311 Q184.062 976.561 187.117 971.978 Q190.196 967.371 196.006 967.371 Z" fill="#000000" fill-rule="evenodd" fill-opacity="1" /><path clip-path="url(#clip430)" d="M244.339 977.093 L233.76 987.718 L244.339 998.297 L241.584 1001.1 L230.959 990.473 L220.335 1001.1 L217.603 998.297 L228.159 987.718 L217.603 977.093 L220.335 974.292 L230.959 984.917 L241.584 974.292 L244.339 977.093 Z" fill="#000000" fill-rule="evenodd" fill-opacity="1" /><path clip-path="url(#clip430)" d="M256.7 998.621 L264.339 998.621 L264.339 972.255 L256.029 973.922 L256.029 969.663 L264.293 967.996 L268.969 967.996 L268.969 998.621 L276.607 998.621 L276.607 1002.56 L256.7 1002.56 L256.7 998.621 Z" fill="#000000" fill-rule="evenodd" fill-opacity="1" /><path clip-path="url(#clip430)" d="M296.052 971.075 Q292.441 971.075 290.612 974.64 Q288.806 978.181 288.806 985.311 Q288.806 992.417 290.612 995.982 Q292.441 999.524 296.052 999.524 Q299.686 999.524 301.492 995.982 Q303.32 992.417 303.32 985.311 Q303.32 978.181 301.492 974.64 Q299.686 971.075 296.052 971.075 M296.052 967.371 Q301.862 967.371 304.917 971.978 Q307.996 976.561 307.996 985.311 Q307.996 994.038 304.917 998.644 Q301.862 1003.23 296.052 1003.23 Q290.242 1003.23 287.163 998.644 Q284.107 994.038 284.107 985.311 Q284.107 976.561 287.163 971.978 Q290.242 967.371 296.052 967.371 Z" fill="#000000" fill-rule="evenodd" fill-opacity="1" /><path clip-path="url(#clip430)" d="M320.673 950.376 L311.081 965.366 L320.673 965.366 L320.673 950.376 M319.676 947.066 L324.453 947.066 L324.453 965.366 L328.459 965.366 L328.459 968.525 L324.453 968.525 L324.453 975.146 L320.673 975.146 L320.673 968.525 L307.996 968.525 L307.996 964.858 L319.676 947.066 Z" fill="#000000" fill-rule="evenodd" fill-opacity="1" /><path clip-path="url(#clip430)" d="M140.821 668.035 L159.177 668.035 L159.177 671.97 L145.103 671.97 L145.103 680.442 Q146.122 680.095 147.14 679.933 Q148.159 679.748 149.178 679.748 Q154.965 679.748 158.344 682.919 Q161.724 686.09 161.724 691.507 Q161.724 697.086 158.252 700.188 Q154.779 703.266 148.46 703.266 Q146.284 703.266 144.015 702.896 Q141.77 702.526 139.363 701.785 L139.363 697.086 Q141.446 698.22 143.668 698.776 Q145.89 699.331 148.367 699.331 Q152.372 699.331 154.71 697.225 Q157.048 695.118 157.048 691.507 Q157.048 687.896 154.71 685.79 Q152.372 683.683 148.367 683.683 Q146.492 683.683 144.617 684.1 Q142.766 684.516 140.821 685.396 L140.821 668.035 Z" fill="#000000" fill-rule="evenodd" fill-opacity="1" /><path clip-path="url(#clip430)" d="M170.937 696.715 L175.821 696.715 L175.821 702.595 L170.937 702.595 L170.937 696.715 Z" fill="#000000" fill-rule="evenodd" fill-opacity="1" /><path clip-path="url(#clip430)" d="M196.006 671.114 Q192.395 671.114 190.566 674.679 Q188.761 678.22 188.761 685.35 Q188.761 692.456 190.566 696.021 Q192.395 699.563 196.006 699.563 Q199.64 699.563 201.446 696.021 Q203.274 692.456 203.274 685.35 Q203.274 678.22 201.446 674.679 Q199.64 671.114 196.006 671.114 M196.006 667.41 Q201.816 667.41 204.872 672.016 Q207.95 676.6 207.95 685.35 Q207.95 694.077 204.872 698.683 Q201.816 703.266 196.006 703.266 Q190.196 703.266 187.117 698.683 Q184.062 694.077 184.062 685.35 Q184.062 676.6 187.117 672.016 Q190.196 667.41 196.006 667.41 Z" fill="#000000" fill-rule="evenodd" fill-opacity="1" /><path clip-path="url(#clip430)" d="M244.339 677.132 L233.76 687.757 L244.339 698.336 L241.584 701.137 L230.959 690.512 L220.335 701.137 L217.603 698.336 L228.159 687.757 L217.603 677.132 L220.335 674.331 L230.959 684.956 L241.584 674.331 L244.339 677.132 Z" fill="#000000" fill-rule="evenodd" fill-opacity="1" /><path clip-path="url(#clip430)" d="M256.7 698.66 L264.339 698.66 L264.339 672.294 L256.029 673.961 L256.029 669.702 L264.293 668.035 L268.969 668.035 L268.969 698.66 L276.607 698.66 L276.607 702.595 L256.7 702.595 L256.7 698.66 Z" fill="#000000" fill-rule="evenodd" fill-opacity="1" /><path clip-path="url(#clip430)" d="M296.052 671.114 Q292.441 671.114 290.612 674.679 Q288.806 678.22 288.806 685.35 Q288.806 692.456 290.612 696.021 Q292.441 699.563 296.052 699.563 Q299.686 699.563 301.492 696.021 Q303.32 692.456 303.32 685.35 Q303.32 678.22 301.492 674.679 Q299.686 671.114 296.052 671.114 M296.052 667.41 Q301.862 667.41 304.917 672.016 Q307.996 676.6 307.996 685.35 Q307.996 694.077 304.917 698.683 Q301.862 703.266 296.052 703.266 Q290.242 703.266 287.163 698.683 Q284.107 694.077 284.107 685.35 Q284.107 676.6 287.163 672.016 Q290.242 667.41 296.052 667.41 Z" fill="#000000" fill-rule="evenodd" fill-opacity="1" /><path clip-path="url(#clip430)" d="M320.673 650.415 L311.081 665.405 L320.673 665.405 L320.673 650.415 M319.676 647.105 L324.453 647.105 L324.453 665.405 L328.459 665.405 L328.459 668.564 L324.453 668.564 L324.453 675.185 L320.673 675.185 L320.673 668.564 L307.996 668.564 L307.996 664.897 L319.676 647.105 Z" fill="#000000" fill-rule="evenodd" fill-opacity="1" /><path clip-path="url(#clip430)" d="M151.353 383.491 Q148.205 383.491 146.353 385.643 Q144.525 387.796 144.525 391.546 Q144.525 395.273 146.353 397.449 Q148.205 399.602 151.353 399.602 Q154.502 399.602 156.33 397.449 Q158.182 395.273 158.182 391.546 Q158.182 387.796 156.33 385.643 Q154.502 383.491 151.353 383.491 M160.636 368.838 L160.636 373.097 Q158.877 372.264 157.071 371.824 Q155.289 371.384 153.529 371.384 Q148.9 371.384 146.446 374.509 Q144.015 377.634 143.668 383.954 Q145.034 381.94 147.094 380.875 Q149.154 379.787 151.631 379.787 Q156.84 379.787 159.849 382.958 Q162.881 386.106 162.881 391.546 Q162.881 396.87 159.733 400.088 Q156.585 403.305 151.353 403.305 Q145.358 403.305 142.187 398.722 Q139.016 394.116 139.016 385.389 Q139.016 377.194 142.904 372.333 Q146.793 367.449 153.344 367.449 Q155.103 367.449 156.886 367.796 Q158.691 368.143 160.636 368.838 Z" fill="#000000" fill-rule="evenodd" fill-opacity="1" /><path clip-path="url(#clip430)" d="M170.937 396.754 L175.821 396.754 L175.821 402.634 L170.937 402.634 L170.937 396.754 Z" fill="#000000" fill-rule="evenodd" fill-opacity="1" /><path clip-path="url(#clip430)" d="M196.006 371.153 Q192.395 371.153 190.566 374.717 Q188.761 378.259 188.761 385.389 Q188.761 392.495 190.566 396.06 Q192.395 399.602 196.006 399.602 Q199.64 399.602 201.446 396.06 Q203.274 392.495 203.274 385.389 Q203.274 378.259 201.446 374.717 Q199.64 371.153 196.006 371.153 M196.006 367.449 Q201.816 367.449 204.872 372.055 Q207.95 376.639 207.95 385.389 Q207.95 394.116 204.872 398.722 Q201.816 403.305 196.006 403.305 Q190.196 403.305 187.117 398.722 Q184.062 394.116 184.062 385.389 Q184.062 376.639 187.117 372.055 Q190.196 367.449 196.006 367.449 Z" fill="#000000" fill-rule="evenodd" fill-opacity="1" /><path clip-path="url(#clip430)" d="M244.339 377.171 L233.76 387.796 L244.339 398.375 L241.584 401.176 L230.959 390.551 L220.335 401.176 L217.603 398.375 L228.159 387.796 L217.603 377.171 L220.335 374.37 L230.959 384.995 L241.584 374.37 L244.339 377.171 Z" fill="#000000" fill-rule="evenodd" fill-opacity="1" /><path clip-path="url(#clip430)" d="M256.7 398.699 L264.339 398.699 L264.339 372.333 L256.029 374 L256.029 369.741 L264.293 368.074 L268.969 368.074 L268.969 398.699 L276.607 398.699 L276.607 402.634 L256.7 402.634 L256.7 398.699 Z" fill="#000000" fill-rule="evenodd" fill-opacity="1" /><path clip-path="url(#clip430)" d="M296.052 371.153 Q292.441 371.153 290.612 374.717 Q288.806 378.259 288.806 385.389 Q288.806 392.495 290.612 396.06 Q292.441 399.602 296.052 399.602 Q299.686 399.602 301.492 396.06 Q303.32 392.495 303.32 385.389 Q303.32 378.259 301.492 374.717 Q299.686 371.153 296.052 371.153 M296.052 367.449 Q301.862 367.449 304.917 372.055 Q307.996 376.639 307.996 385.389 Q307.996 394.116 304.917 398.722 Q301.862 403.305 296.052 403.305 Q290.242 403.305 287.163 398.722 Q284.107 394.116 284.107 385.389 Q284.107 376.639 287.163 372.055 Q290.242 367.449 296.052 367.449 Z" fill="#000000" fill-rule="evenodd" fill-opacity="1" /><path clip-path="url(#clip430)" d="M320.673 350.454 L311.081 365.444 L320.673 365.444 L320.673 350.454 M319.676 347.144 L324.453 347.144 L324.453 365.444 L328.459 365.444 L328.459 368.603 L324.453 368.603 L324.453 375.224 L320.673 375.224 L320.673 368.603 L307.996 368.603 L307.996 364.936 L319.676 347.144 Z" fill="#000000" fill-rule="evenodd" fill-opacity="1" /><path clip-path="url(#clip430)" d="M43.9044 1195.45 L50.6839 1195.45 Q47.6602 1198.7 46.1643 1202.39 Q44.6683 1206.05 44.6683 1210.19 Q44.6683 1218.34 49.6654 1222.67 Q54.6307 1226.99 64.0519 1226.99 Q73.4413 1226.99 78.4384 1222.67 Q83.4036 1218.34 83.4036 1210.19 Q83.4036 1206.05 81.9077 1202.39 Q80.4118 1198.7 77.3881 1195.45 L84.1039 1195.45 Q86.3955 1198.83 87.5414 1202.61 Q88.6872 1206.37 88.6872 1210.57 Q88.6872 1221.36 82.0987 1227.57 Q75.4783 1233.77 64.0519 1233.77 Q52.5936 1233.77 46.0051 1227.57 Q39.3848 1221.36 39.3848 1210.57 Q39.3848 1206.31 40.5306 1202.55 Q41.6446 1198.76 43.9044 1195.45 Z" fill="#000000" fill-rule="evenodd" fill-opacity="1" /><path clip-path="url(#clip430)" d="M56.2221 1171.96 Q56.2221 1176.67 59.9142 1179.41 Q63.5745 1182.15 69.972 1182.15 Q76.3695 1182.15 80.0617 1179.44 Q83.7219 1176.71 83.7219 1171.96 Q83.7219 1167.28 80.0298 1164.55 Q76.3377 1161.81 69.972 1161.81 Q63.6381 1161.81 59.946 1164.55 Q56.2221 1167.28 56.2221 1171.96 M51.2568 1171.96 Q51.2568 1164.32 56.2221 1159.96 Q61.1873 1155.6 69.972 1155.6 Q78.7249 1155.6 83.7219 1159.96 Q88.6872 1164.32 88.6872 1171.96 Q88.6872 1179.63 83.7219 1183.99 Q78.7249 1188.32 69.972 1188.32 Q61.1873 1188.32 56.2221 1183.99 Q51.2568 1179.63 51.2568 1171.96 Z" fill="#000000" fill-rule="evenodd" fill-opacity="1" /><path clip-path="url(#clip430)" d="M53.1665 1123.17 L58.7047 1123.17 Q57.4316 1125.65 56.795 1128.33 Q56.1584 1131 56.1584 1133.86 Q56.1584 1138.22 57.4952 1140.42 Q58.832 1142.58 61.5056 1142.58 Q63.5426 1142.58 64.7203 1141.03 Q65.8661 1139.47 66.9165 1134.76 L67.3621 1132.75 Q68.6989 1126.51 71.1497 1123.9 Q73.5686 1121.26 77.9291 1121.26 Q82.8944 1121.26 85.7908 1125.21 Q88.6872 1129.12 88.6872 1136 Q88.6872 1138.86 88.1143 1141.98 Q87.5732 1145.07 86.4592 1148.51 L80.4118 1148.51 Q82.0987 1145.26 82.958 1142.11 Q83.7856 1138.96 83.7856 1135.87 Q83.7856 1131.73 82.3851 1129.5 Q80.9529 1127.28 78.3747 1127.28 Q75.9876 1127.28 74.7145 1128.9 Q73.4413 1130.49 72.2637 1135.93 L71.7862 1137.97 Q70.6404 1143.41 68.2851 1145.83 Q65.898 1148.25 61.7602 1148.25 Q56.7313 1148.25 53.9941 1144.69 Q51.2568 1141.12 51.2568 1134.56 Q51.2568 1131.32 51.7343 1128.45 Q52.2117 1125.59 53.1665 1123.17 Z" fill="#000000" fill-rule="evenodd" fill-opacity="1" /><path clip-path="url(#clip430)" d="M41.9947 1106.14 L52.1162 1106.14 L52.1162 1094.08 L56.6677 1094.08 L56.6677 1106.14 L76.0194 1106.14 Q80.3799 1106.14 81.6213 1104.96 Q82.8626 1103.75 82.8626 1100.09 L82.8626 1094.08 L87.7642 1094.08 L87.7642 1100.09 Q87.7642 1106.87 85.2497 1109.45 Q82.7034 1112.03 76.0194 1112.03 L56.6677 1112.03 L56.6677 1116.33 L52.1162 1116.33 L52.1162 1112.03 L41.9947 1112.03 L41.9947 1106.14 Z" fill="#000000" fill-rule="evenodd" fill-opacity="1" /><path clip-path="url(#clip430)" d="M1049.24 12.096 L1057.42 12.096 L1057.42 65.6895 L1086.87 65.6895 L1086.87 72.576 L1049.24 72.576 L1049.24 12.096 Z" fill="#000000" fill-rule="evenodd" fill-opacity="1" /><path clip-path="url(#clip430)" d="M1132.49 48.0275 L1132.49 51.6733 L1098.22 51.6733 Q1098.7 59.3701 1102.83 63.421 Q1107.01 67.4314 1114.42 67.4314 Q1118.71 67.4314 1122.72 66.3781 Q1126.77 65.3249 1130.74 63.2184 L1130.74 70.267 Q1126.73 71.9684 1122.52 72.8596 Q1118.31 73.7508 1113.97 73.7508 Q1103.12 73.7508 1096.76 67.4314 Q1090.44 61.1119 1090.44 50.3365 Q1090.44 39.1965 1096.43 32.6746 Q1102.47 26.1121 1112.68 26.1121 Q1121.83 26.1121 1127.14 32.0264 Q1132.49 37.9003 1132.49 48.0275 M1125.03 45.84 Q1124.95 39.7232 1121.59 36.0774 Q1118.27 32.4315 1112.76 32.4315 Q1106.52 32.4315 1102.75 35.9558 Q1099.03 39.4801 1098.46 45.8805 L1125.03 45.84 Z" fill="#000000" fill-rule="evenodd" fill-opacity="1" /><path clip-path="url(#clip430)" d="M1165.34 49.7694 Q1156.31 49.7694 1152.82 51.8354 Q1149.34 53.9013 1149.34 58.8839 Q1149.34 62.8538 1151.93 65.2034 Q1154.56 67.5124 1159.06 67.5124 Q1165.26 67.5124 1168.98 63.1374 Q1172.75 58.7219 1172.75 51.4303 L1172.75 49.7694 L1165.34 49.7694 M1180.21 46.6907 L1180.21 72.576 L1172.75 72.576 L1172.75 65.6895 Q1170.2 69.8214 1166.39 71.8063 Q1162.58 73.7508 1157.07 73.7508 Q1150.11 73.7508 1145.98 69.8619 Q1141.88 65.9325 1141.88 59.3701 Q1141.88 51.7138 1146.99 47.825 Q1152.13 43.9361 1162.3 43.9361 L1172.75 43.9361 L1172.75 43.2069 Q1172.75 38.0623 1169.35 35.2672 Q1165.99 32.4315 1159.87 32.4315 Q1155.98 32.4315 1152.29 33.3632 Q1148.61 34.295 1145.21 36.1584 L1145.21 29.2718 Q1149.3 27.692 1153.15 26.9223 Q1156.99 26.1121 1160.64 26.1121 Q1170.48 26.1121 1175.34 31.2163 Q1180.21 36.3204 1180.21 46.6907 Z" fill="#000000" fill-rule="evenodd" fill-opacity="1" /><path clip-path="url(#clip430)" d="M1221.85 34.1734 Q1220.59 33.4443 1219.09 33.1202 Q1217.64 32.7556 1215.85 32.7556 Q1209.53 32.7556 1206.13 36.8875 Q1202.77 40.9789 1202.77 48.6757 L1202.77 72.576 L1195.27 72.576 L1195.27 27.2059 L1202.77 27.2059 L1202.77 34.2544 Q1205.12 30.1225 1208.89 28.1376 Q1212.65 26.1121 1218.04 26.1121 Q1218.81 26.1121 1219.74 26.2337 Q1220.67 26.3147 1221.81 26.5172 L1221.85 34.1734 Z" fill="#000000" fill-rule="evenodd" fill-opacity="1" /><path clip-path="url(#clip430)" d="M1265.92 45.1919 L1265.92 72.576 L1258.47 72.576 L1258.47 45.4349 Q1258.47 38.994 1255.96 35.7938 Q1253.45 32.5936 1248.42 32.5936 Q1242.39 32.5936 1238.9 36.4419 Q1235.42 40.2903 1235.42 46.9338 L1235.42 72.576 L1227.93 72.576 L1227.93 27.2059 L1235.42 27.2059 L1235.42 34.2544 Q1238.09 30.163 1241.7 28.1376 Q1245.34 26.1121 1250.08 26.1121 Q1257.9 26.1121 1261.91 30.9732 Q1265.92 35.7938 1265.92 45.1919 Z" fill="#000000" fill-rule="evenodd" fill-opacity="1" /><path clip-path="url(#clip430)" d="M1280.79 27.2059 L1288.24 27.2059 L1288.24 72.576 L1280.79 72.576 L1280.79 27.2059 M1280.79 9.54393 L1288.24 9.54393 L1288.24 18.9825 L1280.79 18.9825 L1280.79 9.54393 Z" fill="#000000" fill-rule="evenodd" fill-opacity="1" /><path clip-path="url(#clip430)" d="M1341.55 45.1919 L1341.55 72.576 L1334.1 72.576 L1334.1 45.4349 Q1334.1 38.994 1331.59 35.7938 Q1329.08 32.5936 1324.05 32.5936 Q1318.02 32.5936 1314.53 36.4419 Q1311.05 40.2903 1311.05 46.9338 L1311.05 72.576 L1303.56 72.576 L1303.56 27.2059 L1311.05 27.2059 L1311.05 34.2544 Q1313.72 30.163 1317.33 28.1376 Q1320.97 26.1121 1325.71 26.1121 Q1333.53 26.1121 1337.54 30.9732 Q1341.55 35.7938 1341.55 45.1919 Z" fill="#000000" fill-rule="evenodd" fill-opacity="1" /><path clip-path="url(#clip430)" d="M1386.28 49.3643 Q1386.28 41.2625 1382.91 36.8065 Q1379.59 32.3505 1373.56 32.3505 Q1367.56 32.3505 1364.2 36.8065 Q1360.88 41.2625 1360.88 49.3643 Q1360.88 57.4256 1364.2 61.8816 Q1367.56 66.3376 1373.56 66.3376 Q1379.59 66.3376 1382.91 61.8816 Q1386.28 57.4256 1386.28 49.3643 M1393.73 66.9452 Q1393.73 78.5308 1388.58 84.1616 Q1383.44 89.8329 1372.83 89.8329 Q1368.9 89.8329 1365.41 89.2252 Q1361.93 88.6581 1358.65 87.4428 L1358.65 80.1917 Q1361.93 81.9741 1365.13 82.8248 Q1368.33 83.6755 1371.65 83.6755 Q1378.98 83.6755 1382.63 79.8271 Q1386.28 76.0193 1386.28 68.282 L1386.28 64.5957 Q1383.97 68.6061 1380.36 70.5911 Q1376.76 72.576 1371.73 72.576 Q1363.39 72.576 1358.28 66.2161 Q1353.18 59.8562 1353.18 49.3643 Q1353.18 38.832 1358.28 32.472 Q1363.39 26.1121 1371.73 26.1121 Q1376.76 26.1121 1380.36 28.0971 Q1383.97 30.082 1386.28 34.0924 L1386.28 27.2059 L1393.73 27.2059 L1393.73 66.9452 Z" fill="#000000" fill-rule="evenodd" fill-opacity="1" /><path clip-path="url(#clip430)" d="M1481.07 16.7545 L1481.07 25.383 Q1476.93 21.5346 1472.24 19.6307 Q1467.58 17.7268 1462.31 17.7268 Q1451.94 17.7268 1446.43 24.0867 Q1440.92 30.4061 1440.92 42.3968 Q1440.92 54.3469 1446.43 60.7069 Q1451.94 67.0263 1462.31 67.0263 Q1467.58 67.0263 1472.24 65.1223 Q1476.93 63.2184 1481.07 59.3701 L1481.07 67.9175 Q1476.77 70.8341 1471.95 72.2924 Q1467.17 73.7508 1461.82 73.7508 Q1448.09 73.7508 1440.19 65.3654 Q1432.29 56.9395 1432.29 42.3968 Q1432.29 27.8135 1440.19 19.4281 Q1448.09 11.0023 1461.82 11.0023 Q1467.25 11.0023 1472.03 12.4606 Q1476.85 13.8784 1481.07 16.7545 Z" fill="#000000" fill-rule="evenodd" fill-opacity="1" /><path clip-path="url(#clip430)" d="M1492.61 54.671 L1492.61 27.2059 L1500.07 27.2059 L1500.07 54.3874 Q1500.07 60.8284 1502.58 64.0691 Q1505.09 67.2693 1510.11 67.2693 Q1516.15 67.2693 1519.63 63.421 Q1523.16 59.5726 1523.16 52.9291 L1523.16 27.2059 L1530.61 27.2059 L1530.61 72.576 L1523.16 72.576 L1523.16 65.6084 Q1520.44 69.7404 1516.84 71.7658 Q1513.27 73.7508 1508.53 73.7508 Q1500.71 73.7508 1496.66 68.8897 Q1492.61 64.0286 1492.61 54.671 M1511.37 26.1121 L1511.37 26.1121 Z" fill="#000000" fill-rule="evenodd" fill-opacity="1" /><path clip-path="url(#clip430)" d="M1572.25 34.1734 Q1571 33.4443 1569.5 33.1202 Q1568.04 32.7556 1566.26 32.7556 Q1559.94 32.7556 1556.53 36.8875 Q1553.17 40.9789 1553.17 48.6757 L1553.17 72.576 L1545.68 72.576 L1545.68 27.2059 L1553.17 27.2059 L1553.17 34.2544 Q1555.52 30.1225 1559.29 28.1376 Q1563.06 26.1121 1568.44 26.1121 Q1569.21 26.1121 1570.15 26.2337 Q1571.08 26.3147 1572.21 26.5172 L1572.25 34.1734 Z" fill="#000000" fill-rule="evenodd" fill-opacity="1" /><path clip-path="url(#clip430)" d="M1574.72 27.2059 L1582.62 27.2059 L1596.8 65.2844 L1610.98 27.2059 L1618.88 27.2059 L1601.86 72.576 L1591.74 72.576 L1574.72 27.2059 Z" fill="#000000" fill-rule="evenodd" fill-opacity="1" /><path clip-path="url(#clip430)" d="M1667.97 48.0275 L1667.97 51.6733 L1633.7 51.6733 Q1634.19 59.3701 1638.32 63.421 Q1642.49 67.4314 1649.91 67.4314 Q1654.2 67.4314 1658.21 66.3781 Q1662.26 65.3249 1666.23 63.2184 L1666.23 70.267 Q1662.22 71.9684 1658.01 72.8596 Q1653.8 73.7508 1649.46 73.7508 Q1638.61 73.7508 1632.25 67.4314 Q1625.93 61.1119 1625.93 50.3365 Q1625.93 39.1965 1631.92 32.6746 Q1637.96 26.1121 1648.17 26.1121 Q1657.32 26.1121 1662.63 32.0264 Q1667.97 37.9003 1667.97 48.0275 M1660.52 45.84 Q1660.44 39.7232 1657.08 36.0774 Q1653.76 32.4315 1648.25 32.4315 Q1642.01 32.4315 1638.24 35.9558 Q1634.51 39.4801 1633.95 45.8805 L1660.52 45.84 Z" fill="#000000" fill-rule="evenodd" fill-opacity="1" /><polyline clip-path="url(#clip432)" style="stroke:#0000ff; stroke-linecap:butt; stroke-linejoin:round; stroke-width:8; stroke-opacity:1; fill:none" points="
  420.732,210.894 629.148,1539.92 837.565,1942.29 1045.98,2064.1 1254.4,2100.98 1462.82,2112.15 1671.23,2115.53 1879.65,2116.55 2088.07,2116.86 2296.48,2116.96 
  
  "/>
</svg>
