<?xml version="1.0" encoding="utf-8"?>
<svg xmlns="http://www.w3.org/2000/svg" xmlns:xlink="http://www.w3.org/1999/xlink" width="600" height="600" viewBox="0 0 2400 2400">
<defs>
  <clipPath id="clip220">
    <rect x="0" y="0" width="2400" height="2400"/>
  </clipPath>
</defs>
<path clip-path="url(#clip220)" d="
M0 2400 L2400 2400 L2400 0 L0 0  Z
  " fill="#ffffff" fill-rule="evenodd" fill-opacity="1"/>
<defs>
  <clipPath id="clip221">
    <rect x="480" y="240" width="1681" height="1681"/>
  </clipPath>
</defs>
<path clip-path="url(#clip220)" d="
M259.043 2174.14 L2352.76 2174.14 L2352.76 153.712 L259.043 153.712  Z
  " fill="#ffffff" fill-rule="evenodd" fill-opacity="1"/>
<defs>
  <clipPath id="clip222">
    <rect x="259" y="153" width="2095" height="2021"/>
  </clipPath>
</defs>
<polyline clip-path="url(#clip222)" style="stroke:#000000; stroke-linecap:butt; stroke-linejoin:round; stroke-width:2; stroke-opacity:0.1; fill:none" points="
  259.043,2174.14 259.043,153.712 
  "/>
<polyline clip-path="url(#clip222)" style="stroke:#000000; stroke-linecap:butt; stroke-linejoin:round; stroke-width:2; stroke-opacity:0.1; fill:none" points="
  677.785,2174.14 677.785,153.712 
  "/>
<polyline clip-path="url(#clip222)" style="stroke:#000000; stroke-linecap:butt; stroke-linejoin:round; stroke-width:2; stroke-opacity:0.1; fill:none" points="
  1096.53,2174.14 1096.53,153.712 
  "/>
<polyline clip-path="url(#clip222)" style="stroke:#000000; stroke-linecap:butt; stroke-linejoin:round; stroke-width:2; stroke-opacity:0.1; fill:none" points="
  1515.27,2174.14 1515.27,153.712 
  "/>
<polyline clip-path="url(#clip222)" style="stroke:#000000; stroke-linecap:butt; stroke-linejoin:round; stroke-width:2; stroke-opacity:0.1; fill:none" points="
  1934.01,2174.14 1934.01,153.712 
  "/>
<polyline clip-path="url(#clip222)" style="stroke:#000000; stroke-linecap:butt; stroke-linejoin:round; stroke-width:2; stroke-opacity:0.1; fill:none" points="
  2352.76,2174.14 2352.76,153.712 
  "/>
<polyline clip-path="url(#clip220)" style="stroke:#000000; stroke-linecap:butt; stroke-linejoin:round; stroke-width:4; stroke-opacity:1; fill:none" points="
  259.043,2174.14 2352.76,2174.14 
  "/>
<polyline clip-path="url(#clip220)" style="stroke:#000000; stroke-linecap:butt; stroke-linejoin:round; stroke-width:4; stroke-opacity:1; fill:none" points="
  259.043,2174.14 259.043,2155.24 
  "/>
<polyline clip-path="url(#clip220)" style="stroke:#000000; stroke-linecap:butt; stroke-linejoin:round; stroke-width:4; stroke-opacity:1; fill:none" points="
  677.785,2174.14 677.785,2155.24 
  "/>
<polyline clip-path="url(#clip220)" style="stroke:#000000; stroke-linecap:butt; stroke-linejoin:round; stroke-width:4; stroke-opacity:1; fill:none" points="
  1096.53,2174.14 1096.53,2155.24 
  "/>
<polyline clip-path="url(#clip220)" style="stroke:#000000; stroke-linecap:butt; stroke-linejoin:round; stroke-width:4; stroke-opacity:1; fill:none" points="
  1515.27,2174.14 1515.27,2155.24 
  "/>
<polyline clip-path="url(#clip220)" style="stroke:#000000; stroke-linecap:butt; stroke-linejoin:round; stroke-width:4; stroke-opacity:1; fill:none" points="
  1934.01,2174.14 1934.01,2155.24 
  "/>
<polyline clip-path="url(#clip220)" style="stroke:#000000; stroke-linecap:butt; stroke-linejoin:round; stroke-width:4; stroke-opacity:1; fill:none" points="
  2352.76,2174.14 2352.76,2155.24 
  "/>
<path clip-path="url(#clip220)" d="M259.043 2205.06 Q255.432 2205.06 253.603 2208.62 Q251.798 2212.16 251.798 2219.29 Q251.798 2226.4 253.603 2229.97 Q255.432 2233.51 259.043 2233.51 Q262.677 2233.51 264.483 2229.97 Q266.311 2226.4 266.311 2219.29 Q266.311 2212.16 264.483 2208.62 Q262.677 2205.06 259.043 2205.06 M259.043 2201.35 Q264.853 2201.35 267.909 2205.96 Q270.987 2210.54 270.987 2219.29 Q270.987 2228.02 267.909 2232.63 Q264.853 2237.21 259.043 2237.21 Q253.233 2237.21 250.154 2232.63 Q247.098 2228.02 247.098 2219.29 Q247.098 2210.54 250.154 2205.96 Q253.233 2201.35 259.043 2201.35 Z" fill="#000000" fill-rule="evenodd" fill-opacity="1" /><path clip-path="url(#clip220)" d="M622.311 2232.6 L629.95 2232.6 L629.95 2206.24 L621.64 2207.91 L621.64 2203.65 L629.904 2201.98 L634.58 2201.98 L634.58 2232.6 L642.219 2232.6 L642.219 2236.54 L622.311 2236.54 L622.311 2232.6 Z" fill="#000000" fill-rule="evenodd" fill-opacity="1" /><path clip-path="url(#clip220)" d="M661.663 2205.06 Q658.052 2205.06 656.223 2208.62 Q654.418 2212.16 654.418 2219.29 Q654.418 2226.4 656.223 2229.97 Q658.052 2233.51 661.663 2233.51 Q665.297 2233.51 667.103 2229.97 Q668.931 2226.4 668.931 2219.29 Q668.931 2212.16 667.103 2208.62 Q665.297 2205.06 661.663 2205.06 M661.663 2201.35 Q667.473 2201.35 670.529 2205.96 Q673.607 2210.54 673.607 2219.29 Q673.607 2228.02 670.529 2232.63 Q667.473 2237.21 661.663 2237.21 Q655.853 2237.21 652.774 2232.63 Q649.718 2228.02 649.718 2219.29 Q649.718 2210.54 652.774 2205.96 Q655.853 2201.35 661.663 2201.35 Z" fill="#000000" fill-rule="evenodd" fill-opacity="1" /><path clip-path="url(#clip220)" d="M691.825 2205.06 Q688.214 2205.06 686.385 2208.62 Q684.579 2212.16 684.579 2219.29 Q684.579 2226.4 686.385 2229.97 Q688.214 2233.51 691.825 2233.51 Q695.459 2233.51 697.265 2229.97 Q699.093 2226.4 699.093 2219.29 Q699.093 2212.16 697.265 2208.62 Q695.459 2205.06 691.825 2205.06 M691.825 2201.35 Q697.635 2201.35 700.69 2205.96 Q703.769 2210.54 703.769 2219.29 Q703.769 2228.02 700.69 2232.63 Q697.635 2237.21 691.825 2237.21 Q686.015 2237.21 682.936 2232.63 Q679.88 2228.02 679.88 2219.29 Q679.88 2210.54 682.936 2205.96 Q686.015 2201.35 691.825 2201.35 Z" fill="#000000" fill-rule="evenodd" fill-opacity="1" /><path clip-path="url(#clip220)" d="M721.987 2205.06 Q718.376 2205.06 716.547 2208.62 Q714.741 2212.16 714.741 2219.29 Q714.741 2226.4 716.547 2229.97 Q718.376 2233.51 721.987 2233.51 Q725.621 2233.51 727.426 2229.97 Q729.255 2226.4 729.255 2219.29 Q729.255 2212.16 727.426 2208.62 Q725.621 2205.06 721.987 2205.06 M721.987 2201.35 Q727.797 2201.35 730.852 2205.96 Q733.931 2210.54 733.931 2219.29 Q733.931 2228.02 730.852 2232.63 Q727.797 2237.21 721.987 2237.21 Q716.176 2237.21 713.098 2232.63 Q710.042 2228.02 710.042 2219.29 Q710.042 2210.54 713.098 2205.96 Q716.176 2201.35 721.987 2201.35 Z" fill="#000000" fill-rule="evenodd" fill-opacity="1" /><path clip-path="url(#clip220)" d="M1045.14 2232.6 L1061.46 2232.6 L1061.46 2236.54 L1039.51 2236.54 L1039.51 2232.6 Q1042.18 2229.85 1046.76 2225.22 Q1051.37 2220.57 1052.55 2219.23 Q1054.79 2216.7 1055.67 2214.97 Q1056.57 2213.21 1056.57 2211.52 Q1056.57 2208.76 1054.63 2207.03 Q1052.71 2205.29 1049.61 2205.29 Q1047.41 2205.29 1044.95 2206.05 Q1042.52 2206.82 1039.75 2208.37 L1039.75 2203.65 Q1042.57 2202.51 1045.02 2201.93 Q1047.48 2201.35 1049.51 2201.35 Q1054.88 2201.35 1058.08 2204.04 Q1061.27 2206.73 1061.27 2211.22 Q1061.27 2213.35 1060.46 2215.27 Q1059.68 2217.16 1057.57 2219.76 Q1056.99 2220.43 1053.89 2223.65 Q1050.79 2226.84 1045.14 2232.6 Z" fill="#000000" fill-rule="evenodd" fill-opacity="1" /><path clip-path="url(#clip220)" d="M1081.27 2205.06 Q1077.66 2205.06 1075.83 2208.62 Q1074.03 2212.16 1074.03 2219.29 Q1074.03 2226.4 1075.83 2229.97 Q1077.66 2233.51 1081.27 2233.51 Q1084.91 2233.51 1086.71 2229.97 Q1088.54 2226.4 1088.54 2219.29 Q1088.54 2212.16 1086.71 2208.62 Q1084.91 2205.06 1081.27 2205.06 M1081.27 2201.35 Q1087.08 2201.35 1090.14 2205.96 Q1093.22 2210.54 1093.22 2219.29 Q1093.22 2228.02 1090.14 2232.63 Q1087.08 2237.21 1081.27 2237.21 Q1075.46 2237.21 1072.38 2232.63 Q1069.33 2228.02 1069.33 2219.29 Q1069.33 2210.54 1072.38 2205.96 Q1075.46 2201.35 1081.27 2201.35 Z" fill="#000000" fill-rule="evenodd" fill-opacity="1" /><path clip-path="url(#clip220)" d="M1111.44 2205.06 Q1107.82 2205.06 1106 2208.62 Q1104.19 2212.16 1104.19 2219.29 Q1104.19 2226.4 1106 2229.97 Q1107.82 2233.51 1111.44 2233.51 Q1115.07 2233.51 1116.88 2229.97 Q1118.7 2226.4 1118.7 2219.29 Q1118.7 2212.16 1116.88 2208.62 Q1115.07 2205.06 1111.44 2205.06 M1111.44 2201.35 Q1117.25 2201.35 1120.3 2205.96 Q1123.38 2210.54 1123.38 2219.29 Q1123.38 2228.02 1120.3 2232.63 Q1117.25 2237.21 1111.44 2237.21 Q1105.63 2237.21 1102.55 2232.63 Q1099.49 2228.02 1099.49 2219.29 Q1099.49 2210.54 1102.55 2205.96 Q1105.63 2201.35 1111.44 2201.35 Z" fill="#000000" fill-rule="evenodd" fill-opacity="1" /><path clip-path="url(#clip220)" d="M1141.6 2205.06 Q1137.99 2205.06 1136.16 2208.62 Q1134.35 2212.16 1134.35 2219.29 Q1134.35 2226.4 1136.16 2229.97 Q1137.99 2233.51 1141.6 2233.51 Q1145.23 2233.51 1147.04 2229.97 Q1148.87 2226.4 1148.87 2219.29 Q1148.87 2212.16 1147.04 2208.62 Q1145.23 2205.06 1141.6 2205.06 M1141.6 2201.35 Q1147.41 2201.35 1150.46 2205.96 Q1153.54 2210.54 1153.54 2219.29 Q1153.54 2228.02 1150.46 2232.63 Q1147.41 2237.21 1141.6 2237.21 Q1135.79 2237.21 1132.71 2232.63 Q1129.65 2228.02 1129.65 2219.29 Q1129.65 2210.54 1132.71 2205.96 Q1135.79 2201.35 1141.6 2201.35 Z" fill="#000000" fill-rule="evenodd" fill-opacity="1" /><path clip-path="url(#clip220)" d="M1473.95 2217.91 Q1477.31 2218.62 1479.18 2220.89 Q1481.08 2223.16 1481.08 2226.49 Q1481.08 2231.61 1477.56 2234.41 Q1474.04 2237.21 1467.56 2237.21 Q1465.39 2237.21 1463.07 2236.77 Q1460.78 2236.35 1458.33 2235.5 L1458.33 2230.98 Q1460.27 2232.12 1462.59 2232.7 Q1464.9 2233.28 1467.42 2233.28 Q1471.82 2233.28 1474.11 2231.54 Q1476.43 2229.8 1476.43 2226.49 Q1476.43 2223.44 1474.28 2221.73 Q1472.15 2219.99 1468.33 2219.99 L1464.3 2219.99 L1464.3 2216.15 L1468.51 2216.15 Q1471.96 2216.15 1473.79 2214.78 Q1475.62 2213.39 1475.62 2210.8 Q1475.62 2208.14 1473.72 2206.73 Q1471.84 2205.29 1468.33 2205.29 Q1466.41 2205.29 1464.21 2205.71 Q1462.01 2206.12 1459.37 2207 L1459.37 2202.84 Q1462.03 2202.1 1464.35 2201.73 Q1466.68 2201.35 1468.74 2201.35 Q1474.07 2201.35 1477.17 2203.79 Q1480.27 2206.19 1480.27 2210.31 Q1480.27 2213.18 1478.63 2215.17 Q1476.98 2217.14 1473.95 2217.91 Z" fill="#000000" fill-rule="evenodd" fill-opacity="1" /><path clip-path="url(#clip220)" d="M1499.95 2205.06 Q1496.34 2205.06 1494.51 2208.62 Q1492.7 2212.16 1492.7 2219.29 Q1492.7 2226.4 1494.51 2229.97 Q1496.34 2233.51 1499.95 2233.51 Q1503.58 2233.51 1505.39 2229.97 Q1507.22 2226.4 1507.22 2219.29 Q1507.22 2212.16 1505.39 2208.62 Q1503.58 2205.06 1499.95 2205.06 M1499.95 2201.35 Q1505.76 2201.35 1508.81 2205.96 Q1511.89 2210.54 1511.89 2219.29 Q1511.89 2228.02 1508.81 2232.63 Q1505.76 2237.21 1499.95 2237.21 Q1494.14 2237.21 1491.06 2232.63 Q1488 2228.02 1488 2219.29 Q1488 2210.54 1491.06 2205.96 Q1494.14 2201.35 1499.95 2201.35 Z" fill="#000000" fill-rule="evenodd" fill-opacity="1" /><path clip-path="url(#clip220)" d="M1530.11 2205.06 Q1526.5 2205.06 1524.67 2208.62 Q1522.86 2212.16 1522.86 2219.29 Q1522.86 2226.4 1524.67 2229.97 Q1526.5 2233.51 1530.11 2233.51 Q1533.74 2233.51 1535.55 2229.97 Q1537.38 2226.4 1537.38 2219.29 Q1537.38 2212.16 1535.55 2208.62 Q1533.74 2205.06 1530.11 2205.06 M1530.11 2201.35 Q1535.92 2201.35 1538.97 2205.96 Q1542.05 2210.54 1542.05 2219.29 Q1542.05 2228.02 1538.97 2232.63 Q1535.92 2237.21 1530.11 2237.21 Q1524.3 2237.21 1521.22 2232.63 Q1518.16 2228.02 1518.16 2219.29 Q1518.16 2210.54 1521.22 2205.96 Q1524.3 2201.35 1530.11 2201.35 Z" fill="#000000" fill-rule="evenodd" fill-opacity="1" /><path clip-path="url(#clip220)" d="M1560.27 2205.06 Q1556.66 2205.06 1554.83 2208.62 Q1553.03 2212.16 1553.03 2219.29 Q1553.03 2226.4 1554.83 2229.97 Q1556.66 2233.51 1560.27 2233.51 Q1563.9 2233.51 1565.71 2229.97 Q1567.54 2226.4 1567.54 2219.29 Q1567.54 2212.16 1565.71 2208.62 Q1563.9 2205.06 1560.27 2205.06 M1560.27 2201.35 Q1566.08 2201.35 1569.14 2205.96 Q1572.21 2210.54 1572.21 2219.29 Q1572.21 2228.02 1569.14 2232.63 Q1566.08 2237.21 1560.27 2237.21 Q1554.46 2237.21 1551.38 2232.63 Q1548.33 2228.02 1548.33 2219.29 Q1548.33 2210.54 1551.38 2205.96 Q1554.46 2201.35 1560.27 2201.35 Z" fill="#000000" fill-rule="evenodd" fill-opacity="1" /><path clip-path="url(#clip220)" d="M1892.02 2206.05 L1880.22 2224.5 L1892.02 2224.5 L1892.02 2206.05 M1890.8 2201.98 L1896.68 2201.98 L1896.68 2224.5 L1901.61 2224.5 L1901.61 2228.39 L1896.68 2228.39 L1896.68 2236.54 L1892.02 2236.54 L1892.02 2228.39 L1876.42 2228.39 L1876.42 2223.88 L1890.8 2201.98 Z" fill="#000000" fill-rule="evenodd" fill-opacity="1" /><path clip-path="url(#clip220)" d="M1919.34 2205.06 Q1915.73 2205.06 1913.9 2208.62 Q1912.09 2212.16 1912.09 2219.29 Q1912.09 2226.4 1913.9 2229.97 Q1915.73 2233.51 1919.34 2233.51 Q1922.97 2233.51 1924.78 2229.97 Q1926.61 2226.4 1926.61 2219.29 Q1926.61 2212.16 1924.78 2208.62 Q1922.97 2205.06 1919.34 2205.06 M1919.34 2201.35 Q1925.15 2201.35 1928.2 2205.96 Q1931.28 2210.54 1931.28 2219.29 Q1931.28 2228.02 1928.2 2232.63 Q1925.15 2237.21 1919.34 2237.21 Q1913.53 2237.21 1910.45 2232.63 Q1907.39 2228.02 1907.39 2219.29 Q1907.39 2210.54 1910.45 2205.96 Q1913.53 2201.35 1919.34 2201.35 Z" fill="#000000" fill-rule="evenodd" fill-opacity="1" /><path clip-path="url(#clip220)" d="M1949.5 2205.06 Q1945.89 2205.06 1944.06 2208.62 Q1942.25 2212.16 1942.25 2219.29 Q1942.25 2226.4 1944.06 2229.97 Q1945.89 2233.51 1949.5 2233.51 Q1953.13 2233.51 1954.94 2229.97 Q1956.77 2226.4 1956.77 2219.29 Q1956.77 2212.16 1954.94 2208.62 Q1953.13 2205.06 1949.5 2205.06 M1949.5 2201.35 Q1955.31 2201.35 1958.37 2205.96 Q1961.44 2210.54 1961.44 2219.29 Q1961.44 2228.02 1958.37 2232.63 Q1955.31 2237.21 1949.5 2237.21 Q1943.69 2237.21 1940.61 2232.63 Q1937.55 2228.02 1937.55 2219.29 Q1937.55 2210.54 1940.61 2205.96 Q1943.69 2201.35 1949.5 2201.35 Z" fill="#000000" fill-rule="evenodd" fill-opacity="1" /><path clip-path="url(#clip220)" d="M1979.66 2205.06 Q1976.05 2205.06 1974.22 2208.62 Q1972.42 2212.16 1972.42 2219.29 Q1972.42 2226.4 1974.22 2229.97 Q1976.05 2233.51 1979.66 2233.51 Q1983.3 2233.51 1985.1 2229.97 Q1986.93 2226.4 1986.93 2219.29 Q1986.93 2212.16 1985.1 2208.62 Q1983.3 2205.06 1979.66 2205.06 M1979.66 2201.35 Q1985.47 2201.35 1988.53 2205.96 Q1991.61 2210.54 1991.61 2219.29 Q1991.61 2228.02 1988.53 2232.63 Q1985.47 2237.21 1979.66 2237.21 Q1973.85 2237.21 1970.77 2232.63 Q1967.72 2228.02 1967.72 2219.29 Q1967.72 2210.54 1970.77 2205.96 Q1973.85 2201.35 1979.66 2201.35 Z" fill="#000000" fill-rule="evenodd" fill-opacity="1" /><path clip-path="url(#clip220)" d="M2297.29 2201.98 L2315.65 2201.98 L2315.65 2205.92 L2301.58 2205.92 L2301.58 2214.39 Q2302.59 2214.04 2303.61 2213.88 Q2304.63 2213.69 2305.65 2213.69 Q2311.44 2213.69 2314.82 2216.86 Q2318.2 2220.04 2318.2 2225.45 Q2318.2 2231.03 2314.72 2234.13 Q2311.25 2237.21 2304.93 2237.21 Q2302.76 2237.21 2300.49 2236.84 Q2298.24 2236.47 2295.83 2235.73 L2295.83 2231.03 Q2297.92 2232.16 2300.14 2232.72 Q2302.36 2233.28 2304.84 2233.28 Q2308.84 2233.28 2311.18 2231.17 Q2313.52 2229.06 2313.52 2225.45 Q2313.52 2221.84 2311.18 2219.73 Q2308.84 2217.63 2304.84 2217.63 Q2302.96 2217.63 2301.09 2218.04 Q2299.24 2218.46 2297.29 2219.34 L2297.29 2201.98 Z" fill="#000000" fill-rule="evenodd" fill-opacity="1" /><path clip-path="url(#clip220)" d="M2337.41 2205.06 Q2333.8 2205.06 2331.97 2208.62 Q2330.16 2212.16 2330.16 2219.29 Q2330.16 2226.4 2331.97 2229.97 Q2333.8 2233.51 2337.41 2233.51 Q2341.04 2233.51 2342.85 2229.97 Q2344.68 2226.4 2344.68 2219.29 Q2344.68 2212.16 2342.85 2208.62 Q2341.04 2205.06 2337.41 2205.06 M2337.41 2201.35 Q2343.22 2201.35 2346.27 2205.96 Q2349.35 2210.54 2349.35 2219.29 Q2349.35 2228.02 2346.27 2232.63 Q2343.22 2237.21 2337.41 2237.21 Q2331.6 2237.21 2328.52 2232.63 Q2325.46 2228.02 2325.46 2219.29 Q2325.46 2210.54 2328.52 2205.96 Q2331.6 2201.35 2337.41 2201.35 Z" fill="#000000" fill-rule="evenodd" fill-opacity="1" /><path clip-path="url(#clip220)" d="M2367.57 2205.06 Q2363.96 2205.06 2362.13 2208.62 Q2360.33 2212.16 2360.33 2219.29 Q2360.33 2226.4 2362.13 2229.97 Q2363.96 2233.51 2367.57 2233.51 Q2371.2 2233.51 2373.01 2229.97 Q2374.84 2226.4 2374.84 2219.29 Q2374.84 2212.16 2373.01 2208.62 Q2371.2 2205.06 2367.57 2205.06 M2367.57 2201.35 Q2373.38 2201.35 2376.44 2205.96 Q2379.52 2210.54 2379.52 2219.29 Q2379.52 2228.02 2376.44 2232.63 Q2373.38 2237.21 2367.57 2237.21 Q2361.76 2237.21 2358.68 2232.63 Q2355.63 2228.02 2355.63 2219.29 Q2355.63 2210.54 2358.68 2205.96 Q2361.76 2201.35 2367.57 2201.35 Z" fill="#000000" fill-rule="evenodd" fill-opacity="1" /><path clip-path="url(#clip220)" d="M2397.73 2205.06 Q2394.12 2205.06 2392.29 2208.62 Q2390.49 2212.16 2390.49 2219.29 Q2390.49 2226.4 2392.29 2229.97 Q2394.12 2233.51 2397.73 2233.51 Q2401.37 2233.51 2403.17 2229.97 Q2405 2226.4 2405 2219.29 Q2405 2212.16 2403.17 2208.62 Q2401.37 2205.06 2397.73 2205.06 M2397.73 2201.35 Q2403.54 2201.35 2406.6 2205.96 Q2409.68 2210.54 2409.68 2219.29 Q2409.68 2228.02 2406.6 2232.63 Q2403.54 2237.21 2397.73 2237.21 Q2391.92 2237.21 2388.84 2232.63 Q2385.79 2228.02 2385.79 2219.29 Q2385.79 2210.54 2388.84 2205.96 Q2391.92 2201.35 2397.73 2201.35 Z" fill="#000000" fill-rule="evenodd" fill-opacity="1" /><path clip-path="url(#clip220)" d="M1177.39 2273.04 L1177.39 2279.31 Q1173.73 2277.56 1170.48 2276.7 Q1167.24 2275.84 1164.21 2275.84 Q1158.96 2275.84 1156.1 2277.88 Q1153.27 2279.92 1153.27 2283.67 Q1153.27 2286.83 1155.14 2288.45 Q1157.05 2290.04 1162.34 2291.03 L1166.22 2291.82 Q1173.41 2293.19 1176.82 2296.66 Q1180.26 2300.1 1180.26 2305.89 Q1180.26 2312.8 1175.61 2316.36 Q1170.99 2319.93 1162.05 2319.93 Q1158.68 2319.93 1154.86 2319.16 Q1151.07 2318.4 1147 2316.9 L1147 2310.28 Q1150.91 2312.48 1154.67 2313.59 Q1158.42 2314.71 1162.05 2314.71 Q1167.56 2314.71 1170.55 2312.54 Q1173.54 2310.38 1173.54 2306.37 Q1173.54 2302.87 1171.38 2300.89 Q1169.24 2298.92 1164.34 2297.93 L1160.43 2297.17 Q1153.23 2295.74 1150.02 2292.68 Q1146.8 2289.63 1146.8 2284.18 Q1146.8 2277.88 1151.23 2274.25 Q1155.68 2270.62 1163.48 2270.62 Q1166.82 2270.62 1170.29 2271.23 Q1173.76 2271.83 1177.39 2273.04 Z" fill="#000000" fill-rule="evenodd" fill-opacity="1" /><path clip-path="url(#clip220)" d="M1190.03 2283.36 L1195.88 2283.36 L1195.88 2319 L1190.03 2319 L1190.03 2283.36 M1190.03 2269.48 L1195.88 2269.48 L1195.88 2276.89 L1190.03 2276.89 L1190.03 2269.48 Z" fill="#000000" fill-rule="evenodd" fill-opacity="1" /><path clip-path="url(#clip220)" d="M1205.59 2283.36 L1233.41 2283.36 L1233.41 2288.7 L1211.38 2314.33 L1233.41 2314.33 L1233.41 2319 L1204.8 2319 L1204.8 2313.66 L1226.82 2288.03 L1205.59 2288.03 L1205.59 2283.36 Z" fill="#000000" fill-rule="evenodd" fill-opacity="1" /><path clip-path="url(#clip220)" d="M1272.85 2299.72 L1272.85 2302.58 L1245.92 2302.58 Q1246.3 2308.63 1249.55 2311.81 Q1252.83 2314.96 1258.65 2314.96 Q1262.02 2314.96 1265.17 2314.13 Q1268.36 2313.31 1271.48 2311.65 L1271.48 2317.19 Q1268.33 2318.53 1265.02 2319.23 Q1261.71 2319.93 1258.3 2319.93 Q1249.77 2319.93 1244.77 2314.96 Q1239.81 2310 1239.81 2301.53 Q1239.81 2292.78 1244.52 2287.65 Q1249.26 2282.5 1257.28 2282.5 Q1264.47 2282.5 1268.64 2287.14 Q1272.85 2291.76 1272.85 2299.72 M1266.99 2298 Q1266.93 2293.19 1264.28 2290.33 Q1261.67 2287.46 1257.34 2287.46 Q1252.44 2287.46 1249.48 2290.23 Q1246.56 2293 1246.11 2298.03 L1266.99 2298 Z" fill="#000000" fill-rule="evenodd" fill-opacity="1" /><path clip-path="url(#clip220)" d="M1317.25 2269.54 Q1312.98 2276.86 1310.91 2284.02 Q1308.84 2291.19 1308.84 2298.54 Q1308.84 2305.89 1310.91 2313.12 Q1313.01 2320.31 1317.25 2327.6 L1312.15 2327.6 Q1307.38 2320.12 1304.99 2312.89 Q1302.64 2305.67 1302.64 2298.54 Q1302.64 2291.44 1304.99 2284.25 Q1307.35 2277.05 1312.15 2269.54 L1317.25 2269.54 Z" fill="#000000" fill-rule="evenodd" fill-opacity="1" /><path clip-path="url(#clip220)" d="M1351.33 2284.41 L1351.33 2289.94 Q1348.85 2288.67 1346.18 2288.03 Q1343.5 2287.4 1340.64 2287.4 Q1336.28 2287.4 1334.08 2288.73 Q1331.92 2290.07 1331.92 2292.75 Q1331.92 2294.78 1333.48 2295.96 Q1335.04 2297.11 1339.75 2298.16 L1341.75 2298.6 Q1347.99 2299.94 1350.6 2302.39 Q1353.24 2304.81 1353.24 2309.17 Q1353.24 2314.13 1349.3 2317.03 Q1345.38 2319.93 1338.51 2319.93 Q1335.64 2319.93 1332.52 2319.35 Q1329.44 2318.81 1326 2317.7 L1326 2311.65 Q1329.25 2313.34 1332.4 2314.2 Q1335.55 2315.03 1338.64 2315.03 Q1342.77 2315.03 1345 2313.62 Q1347.23 2312.19 1347.23 2309.61 Q1347.23 2307.23 1345.61 2305.95 Q1344.01 2304.68 1338.57 2303.5 L1336.53 2303.03 Q1331.09 2301.88 1328.67 2299.52 Q1326.25 2297.14 1326.25 2293 Q1326.25 2287.97 1329.82 2285.23 Q1333.38 2282.5 1339.94 2282.5 Q1343.19 2282.5 1346.05 2282.97 Q1348.92 2283.45 1351.33 2284.41 Z" fill="#000000" fill-rule="evenodd" fill-opacity="1" /><path clip-path="url(#clip220)" d="M1366.07 2301.21 Q1366.07 2307.67 1368.71 2311.36 Q1371.39 2315.03 1376.03 2315.03 Q1380.68 2315.03 1383.35 2311.36 Q1386.03 2307.67 1386.03 2301.21 Q1386.03 2294.75 1383.35 2291.09 Q1380.68 2287.4 1376.03 2287.4 Q1371.39 2287.4 1368.71 2291.09 Q1366.07 2294.75 1366.07 2301.21 M1386.03 2313.66 Q1384.18 2316.84 1381.35 2318.4 Q1378.55 2319.93 1374.6 2319.93 Q1368.14 2319.93 1364.07 2314.77 Q1360.02 2309.61 1360.02 2301.21 Q1360.02 2292.81 1364.07 2287.65 Q1368.14 2282.5 1374.6 2282.5 Q1378.55 2282.5 1381.35 2284.06 Q1384.18 2285.58 1386.03 2288.77 L1386.03 2283.36 L1391.88 2283.36 L1391.88 2332.56 L1386.03 2332.56 L1386.03 2313.66 Z" fill="#000000" fill-rule="evenodd" fill-opacity="1" /><path clip-path="url(#clip220)" d="M1421.99 2269.48 L1421.99 2274.35 L1416.39 2274.35 Q1413.24 2274.35 1412 2275.62 Q1410.79 2276.89 1410.79 2280.2 L1410.79 2283.36 L1420.43 2283.36 L1420.43 2287.91 L1410.79 2287.91 L1410.79 2319 L1404.9 2319 L1404.9 2287.91 L1399.3 2287.91 L1399.3 2283.36 L1404.9 2283.36 L1404.9 2280.87 Q1404.9 2274.92 1407.67 2272.22 Q1410.44 2269.48 1416.46 2269.48 L1421.99 2269.48 Z" fill="#000000" fill-rule="evenodd" fill-opacity="1" /><path clip-path="url(#clip220)" d="M1431.54 2273.23 L1431.54 2283.36 L1443.61 2283.36 L1443.61 2287.91 L1431.54 2287.91 L1431.54 2307.26 Q1431.54 2311.62 1432.72 2312.86 Q1433.93 2314.1 1437.59 2314.1 L1443.61 2314.1 L1443.61 2319 L1437.59 2319 Q1430.81 2319 1428.23 2316.49 Q1425.65 2313.94 1425.65 2307.26 L1425.65 2287.91 L1421.36 2287.91 L1421.36 2283.36 L1425.65 2283.36 L1425.65 2273.23 L1431.54 2273.23 Z" fill="#000000" fill-rule="evenodd" fill-opacity="1" /><path clip-path="url(#clip220)" d="M1450.39 2269.54 L1455.48 2269.54 Q1460.25 2277.05 1462.61 2284.25 Q1464.99 2291.44 1464.99 2298.54 Q1464.99 2305.67 1462.61 2312.89 Q1460.25 2320.12 1455.48 2327.6 L1450.39 2327.6 Q1454.62 2320.31 1456.69 2313.12 Q1458.79 2305.89 1458.79 2298.54 Q1458.79 2291.19 1456.69 2284.02 Q1454.62 2276.86 1450.39 2269.54 Z" fill="#000000" fill-rule="evenodd" fill-opacity="1" /><polyline clip-path="url(#clip222)" style="stroke:#000000; stroke-linecap:butt; stroke-linejoin:round; stroke-width:2; stroke-opacity:0.1; fill:none" points="
  259.043,2174.14 2352.76,2174.14 
  "/>
<polyline clip-path="url(#clip222)" style="stroke:#000000; stroke-linecap:butt; stroke-linejoin:round; stroke-width:2; stroke-opacity:0.1; fill:none" points="
  259.043,1669.03 2352.76,1669.03 
  "/>
<polyline clip-path="url(#clip222)" style="stroke:#000000; stroke-linecap:butt; stroke-linejoin:round; stroke-width:2; stroke-opacity:0.1; fill:none" points="
  259.043,1163.93 2352.76,1163.93 
  "/>
<polyline clip-path="url(#clip222)" style="stroke:#000000; stroke-linecap:butt; stroke-linejoin:round; stroke-width:2; stroke-opacity:0.1; fill:none" points="
  259.043,658.819 2352.76,658.819 
  "/>
<polyline clip-path="url(#clip222)" style="stroke:#000000; stroke-linecap:butt; stroke-linejoin:round; stroke-width:2; stroke-opacity:0.1; fill:none" points="
  259.043,153.712 2352.76,153.712 
  "/>
<polyline clip-path="url(#clip220)" style="stroke:#000000; stroke-linecap:butt; stroke-linejoin:round; stroke-width:4; stroke-opacity:1; fill:none" points="
  259.043,2174.14 259.043,153.712 
  "/>
<polyline clip-path="url(#clip220)" style="stroke:#000000; stroke-linecap:butt; stroke-linejoin:round; stroke-width:4; stroke-opacity:1; fill:none" points="
  259.043,2174.14 277.94,2174.14 
  "/>
<polyline clip-path="url(#clip220)" style="stroke:#000000; stroke-linecap:butt; stroke-linejoin:round; stroke-width:4; stroke-opacity:1; fill:none" points="
  259.043,1669.03 277.94,1669.03 
  "/>
<polyline clip-path="url(#clip220)" style="stroke:#000000; stroke-linecap:butt; stroke-linejoin:round; stroke-width:4; stroke-opacity:1; fill:none" points="
  259.043,1163.93 277.94,1163.93 
  "/>
<polyline clip-path="url(#clip220)" style="stroke:#000000; stroke-linecap:butt; stroke-linejoin:round; stroke-width:4; stroke-opacity:1; fill:none" points="
  259.043,658.819 277.94,658.819 
  "/>
<polyline clip-path="url(#clip220)" style="stroke:#000000; stroke-linecap:butt; stroke-linejoin:round; stroke-width:4; stroke-opacity:1; fill:none" points="
  259.043,153.712 277.94,153.712 
  "/>
<path clip-path="url(#clip220)" d="M211.098 2159.94 Q207.487 2159.94 205.659 2163.5 Q203.853 2167.04 203.853 2174.17 Q203.853 2181.28 205.659 2184.85 Q207.487 2188.39 211.098 2188.39 Q214.733 2188.39 216.538 2184.85 Q218.367 2181.28 218.367 2174.17 Q218.367 2167.04 216.538 2163.5 Q214.733 2159.94 211.098 2159.94 M211.098 2156.23 Q216.909 2156.23 219.964 2160.84 Q223.043 2165.42 223.043 2174.17 Q223.043 2182.9 219.964 2187.51 Q216.909 2192.09 211.098 2192.09 Q205.288 2192.09 202.21 2187.51 Q199.154 2182.9 199.154 2174.17 Q199.154 2165.42 202.21 2160.84 Q205.288 2156.23 211.098 2156.23 Z" fill="#000000" fill-rule="evenodd" fill-opacity="1" /><path clip-path="url(#clip220)" d="M144.803 1682.38 L161.122 1682.38 L161.122 1686.31 L139.178 1686.31 L139.178 1682.38 Q141.84 1679.62 146.423 1674.99 Q151.029 1670.34 152.21 1669 Q154.455 1666.48 155.335 1664.74 Q156.238 1662.98 156.238 1661.29 Q156.238 1658.54 154.293 1656.8 Q152.372 1655.06 149.27 1655.06 Q147.071 1655.06 144.617 1655.83 Q142.187 1656.59 139.409 1658.14 L139.409 1653.42 Q142.233 1652.29 144.687 1651.71 Q147.14 1651.13 149.178 1651.13 Q154.548 1651.13 157.742 1653.81 Q160.937 1656.5 160.937 1660.99 Q160.937 1663.12 160.127 1665.04 Q159.339 1666.94 157.233 1669.53 Q156.654 1670.2 153.552 1673.42 Q150.451 1676.61 144.803 1682.38 Z" fill="#000000" fill-rule="evenodd" fill-opacity="1" /><path clip-path="url(#clip220)" d="M180.937 1654.83 Q177.326 1654.83 175.497 1658.4 Q173.691 1661.94 173.691 1669.07 Q173.691 1676.17 175.497 1679.74 Q177.326 1683.28 180.937 1683.28 Q184.571 1683.28 186.376 1679.74 Q188.205 1676.17 188.205 1669.07 Q188.205 1661.94 186.376 1658.4 Q184.571 1654.83 180.937 1654.83 M180.937 1651.13 Q186.747 1651.13 189.802 1655.73 Q192.881 1660.32 192.881 1669.07 Q192.881 1677.79 189.802 1682.4 Q186.747 1686.98 180.937 1686.98 Q175.126 1686.98 172.048 1682.4 Q168.992 1677.79 168.992 1669.07 Q168.992 1660.32 172.048 1655.73 Q175.126 1651.13 180.937 1651.13 Z" fill="#000000" fill-rule="evenodd" fill-opacity="1" /><path clip-path="url(#clip220)" d="M211.098 1654.83 Q207.487 1654.83 205.659 1658.4 Q203.853 1661.94 203.853 1669.07 Q203.853 1676.17 205.659 1679.74 Q207.487 1683.28 211.098 1683.28 Q214.733 1683.28 216.538 1679.74 Q218.367 1676.17 218.367 1669.07 Q218.367 1661.94 216.538 1658.4 Q214.733 1654.83 211.098 1654.83 M211.098 1651.13 Q216.909 1651.13 219.964 1655.73 Q223.043 1660.32 223.043 1669.07 Q223.043 1677.79 219.964 1682.4 Q216.909 1686.98 211.098 1686.98 Q205.288 1686.98 202.21 1682.4 Q199.154 1677.79 199.154 1669.07 Q199.154 1660.32 202.21 1655.73 Q205.288 1651.13 211.098 1651.13 Z" fill="#000000" fill-rule="evenodd" fill-opacity="1" /><path clip-path="url(#clip220)" d="M153.622 1150.72 L141.816 1169.17 L153.622 1169.17 L153.622 1150.72 M152.395 1146.65 L158.275 1146.65 L158.275 1169.17 L163.205 1169.17 L163.205 1173.06 L158.275 1173.06 L158.275 1181.21 L153.622 1181.21 L153.622 1173.06 L138.02 1173.06 L138.02 1168.54 L152.395 1146.65 Z" fill="#000000" fill-rule="evenodd" fill-opacity="1" /><path clip-path="url(#clip220)" d="M180.937 1149.72 Q177.326 1149.72 175.497 1153.29 Q173.691 1156.83 173.691 1163.96 Q173.691 1171.07 175.497 1174.63 Q177.326 1178.17 180.937 1178.17 Q184.571 1178.17 186.376 1174.63 Q188.205 1171.07 188.205 1163.96 Q188.205 1156.83 186.376 1153.29 Q184.571 1149.72 180.937 1149.72 M180.937 1146.02 Q186.747 1146.02 189.802 1150.63 Q192.881 1155.21 192.881 1163.96 Q192.881 1172.69 189.802 1177.29 Q186.747 1181.88 180.937 1181.88 Q175.126 1181.88 172.048 1177.29 Q168.992 1172.69 168.992 1163.96 Q168.992 1155.21 172.048 1150.63 Q175.126 1146.02 180.937 1146.02 Z" fill="#000000" fill-rule="evenodd" fill-opacity="1" /><path clip-path="url(#clip220)" d="M211.098 1149.72 Q207.487 1149.72 205.659 1153.29 Q203.853 1156.83 203.853 1163.96 Q203.853 1171.07 205.659 1174.63 Q207.487 1178.17 211.098 1178.17 Q214.733 1178.17 216.538 1174.63 Q218.367 1171.07 218.367 1163.96 Q218.367 1156.83 216.538 1153.29 Q214.733 1149.72 211.098 1149.72 M211.098 1146.02 Q216.909 1146.02 219.964 1150.63 Q223.043 1155.21 223.043 1163.96 Q223.043 1172.69 219.964 1177.29 Q216.909 1181.88 211.098 1181.88 Q205.288 1181.88 202.21 1177.29 Q199.154 1172.69 199.154 1163.96 Q199.154 1155.21 202.21 1150.63 Q205.288 1146.02 211.098 1146.02 Z" fill="#000000" fill-rule="evenodd" fill-opacity="1" /><path clip-path="url(#clip220)" d="M151.353 656.956 Q148.205 656.956 146.353 659.108 Q144.525 661.261 144.525 665.011 Q144.525 668.738 146.353 670.914 Q148.205 673.067 151.353 673.067 Q154.502 673.067 156.33 670.914 Q158.182 668.738 158.182 665.011 Q158.182 661.261 156.33 659.108 Q154.502 656.956 151.353 656.956 M160.636 642.303 L160.636 646.562 Q158.877 645.729 157.071 645.289 Q155.289 644.849 153.529 644.849 Q148.9 644.849 146.446 647.974 Q144.015 651.099 143.668 657.419 Q145.034 655.405 147.094 654.34 Q149.154 653.252 151.631 653.252 Q156.84 653.252 159.849 656.423 Q162.881 659.571 162.881 665.011 Q162.881 670.335 159.733 673.553 Q156.585 676.77 151.353 676.77 Q145.358 676.77 142.187 672.187 Q139.016 667.581 139.016 658.854 Q139.016 650.659 142.904 645.798 Q146.793 640.914 153.344 640.914 Q155.103 640.914 156.886 641.261 Q158.691 641.608 160.636 642.303 Z" fill="#000000" fill-rule="evenodd" fill-opacity="1" /><path clip-path="url(#clip220)" d="M180.937 644.618 Q177.326 644.618 175.497 648.183 Q173.691 651.724 173.691 658.854 Q173.691 665.96 175.497 669.525 Q177.326 673.067 180.937 673.067 Q184.571 673.067 186.376 669.525 Q188.205 665.96 188.205 658.854 Q188.205 651.724 186.376 648.183 Q184.571 644.618 180.937 644.618 M180.937 640.914 Q186.747 640.914 189.802 645.521 Q192.881 650.104 192.881 658.854 Q192.881 667.581 189.802 672.187 Q186.747 676.77 180.937 676.77 Q175.126 676.77 172.048 672.187 Q168.992 667.581 168.992 658.854 Q168.992 650.104 172.048 645.521 Q175.126 640.914 180.937 640.914 Z" fill="#000000" fill-rule="evenodd" fill-opacity="1" /><path clip-path="url(#clip220)" d="M211.098 644.618 Q207.487 644.618 205.659 648.183 Q203.853 651.724 203.853 658.854 Q203.853 665.96 205.659 669.525 Q207.487 673.067 211.098 673.067 Q214.733 673.067 216.538 669.525 Q218.367 665.96 218.367 658.854 Q218.367 651.724 216.538 648.183 Q214.733 644.618 211.098 644.618 M211.098 640.914 Q216.909 640.914 219.964 645.521 Q223.043 650.104 223.043 658.854 Q223.043 667.581 219.964 672.187 Q216.909 676.77 211.098 676.77 Q205.288 676.77 202.21 672.187 Q199.154 667.581 199.154 658.854 Q199.154 650.104 202.21 645.521 Q205.288 640.914 211.098 640.914 Z" fill="#000000" fill-rule="evenodd" fill-opacity="1" /><path clip-path="url(#clip220)" d="M150.775 154.58 Q147.441 154.58 145.52 156.363 Q143.622 158.145 143.622 161.27 Q143.622 164.395 145.52 166.177 Q147.441 167.96 150.775 167.96 Q154.108 167.96 156.029 166.177 Q157.951 164.372 157.951 161.27 Q157.951 158.145 156.029 156.363 Q154.131 154.58 150.775 154.58 M146.099 152.589 Q143.09 151.849 141.4 149.789 Q139.733 147.728 139.733 144.765 Q139.733 140.622 142.673 138.215 Q145.636 135.807 150.775 135.807 Q155.937 135.807 158.877 138.215 Q161.816 140.622 161.816 144.765 Q161.816 147.728 160.127 149.789 Q158.46 151.849 155.474 152.589 Q158.853 153.376 160.728 155.668 Q162.627 157.96 162.627 161.27 Q162.627 166.293 159.548 168.978 Q156.492 171.663 150.775 171.663 Q145.057 171.663 141.978 168.978 Q138.923 166.293 138.923 161.27 Q138.923 157.96 140.821 155.668 Q142.719 153.376 146.099 152.589 M144.386 145.205 Q144.386 147.89 146.053 149.395 Q147.742 150.9 150.775 150.9 Q153.784 150.9 155.474 149.395 Q157.187 147.89 157.187 145.205 Q157.187 142.52 155.474 141.015 Q153.784 139.511 150.775 139.511 Q147.742 139.511 146.053 141.015 Q144.386 142.52 144.386 145.205 Z" fill="#000000" fill-rule="evenodd" fill-opacity="1" /><path clip-path="url(#clip220)" d="M180.937 139.511 Q177.326 139.511 175.497 143.076 Q173.691 146.617 173.691 153.747 Q173.691 160.853 175.497 164.418 Q177.326 167.96 180.937 167.96 Q184.571 167.96 186.376 164.418 Q188.205 160.853 188.205 153.747 Q188.205 146.617 186.376 143.076 Q184.571 139.511 180.937 139.511 M180.937 135.807 Q186.747 135.807 189.802 140.414 Q192.881 144.997 192.881 153.747 Q192.881 162.474 189.802 167.08 Q186.747 171.663 180.937 171.663 Q175.126 171.663 172.048 167.08 Q168.992 162.474 168.992 153.747 Q168.992 144.997 172.048 140.414 Q175.126 135.807 180.937 135.807 Z" fill="#000000" fill-rule="evenodd" fill-opacity="1" /><path clip-path="url(#clip220)" d="M211.098 139.511 Q207.487 139.511 205.659 143.076 Q203.853 146.617 203.853 153.747 Q203.853 160.853 205.659 164.418 Q207.487 167.96 211.098 167.96 Q214.733 167.96 216.538 164.418 Q218.367 160.853 218.367 153.747 Q218.367 146.617 216.538 143.076 Q214.733 139.511 211.098 139.511 M211.098 135.807 Q216.909 135.807 219.964 140.414 Q223.043 144.997 223.043 153.747 Q223.043 162.474 219.964 167.08 Q216.909 171.663 211.098 171.663 Q205.288 171.663 202.21 167.08 Q199.154 162.474 199.154 153.747 Q199.154 144.997 202.21 140.414 Q205.288 135.807 211.098 135.807 Z" fill="#000000" fill-rule="evenodd" fill-opacity="1" /><path clip-path="url(#clip220)" d="M45.5277 1637.41 L63.3835 1637.41 L63.3835 1629.32 Q63.3835 1624.83 61.06 1622.38 Q58.7365 1619.93 54.4397 1619.93 Q50.1747 1619.93 47.8512 1622.38 Q45.5277 1624.83 45.5277 1629.32 L45.5277 1637.41 M40.2442 1643.84 L40.2442 1629.32 Q40.2442 1621.33 43.8726 1617.26 Q47.4692 1613.15 54.4397 1613.15 Q61.4738 1613.15 65.0704 1617.26 Q68.667 1621.33 68.667 1629.32 L68.667 1637.41 L87.7642 1637.41 L87.7642 1643.84 L40.2442 1643.84 Z" fill="#000000" fill-rule="evenodd" fill-opacity="1" /><path clip-path="url(#clip220)" d="M57.5907 1585.27 Q57.0178 1586.26 56.7632 1587.44 Q56.4767 1588.58 56.4767 1589.98 Q56.4767 1594.95 59.7232 1597.62 Q62.9379 1600.26 68.9853 1600.26 L87.7642 1600.26 L87.7642 1606.15 L52.1162 1606.15 L52.1162 1600.26 L57.6544 1600.26 Q54.4079 1598.42 52.8483 1595.46 Q51.2568 1592.5 51.2568 1588.26 Q51.2568 1587.66 51.3523 1586.93 Q51.416 1586.2 51.5751 1585.3 L57.5907 1585.27 Z" fill="#000000" fill-rule="evenodd" fill-opacity="1" /><path clip-path="url(#clip220)" d="M52.1162 1579.13 L52.1162 1573.27 L87.7642 1573.27 L87.7642 1579.13 L52.1162 1579.13 M38.239 1579.13 L38.239 1573.27 L45.655 1573.27 L45.655 1579.13 L38.239 1579.13 Z" fill="#000000" fill-rule="evenodd" fill-opacity="1" /><path clip-path="url(#clip220)" d="M53.4848 1535.36 L58.9593 1535.36 Q57.5907 1537.85 56.9223 1540.36 Q56.2221 1542.84 56.2221 1545.39 Q56.2221 1551.09 59.8505 1554.24 Q63.4472 1557.39 69.972 1557.39 Q76.4969 1557.39 80.1253 1554.24 Q83.7219 1551.09 83.7219 1545.39 Q83.7219 1542.84 83.0535 1540.36 Q82.3533 1537.85 80.9847 1535.36 L86.3955 1535.36 Q87.5414 1537.82 88.1143 1540.46 Q88.6872 1543.07 88.6872 1546.03 Q88.6872 1554.08 83.6264 1558.82 Q78.5657 1563.57 69.972 1563.57 Q61.251 1563.57 56.2539 1558.79 Q51.2568 1553.98 51.2568 1545.65 Q51.2568 1542.94 51.8297 1540.36 Q52.3708 1537.78 53.4848 1535.36 Z" fill="#000000" fill-rule="evenodd" fill-opacity="1" /><path clip-path="url(#clip220)" d="M68.4761 1494.69 L71.3406 1494.69 L71.3406 1521.62 Q77.3881 1521.23 80.5709 1517.99 Q83.7219 1514.71 83.7219 1508.88 Q83.7219 1505.51 82.8944 1502.36 Q82.0669 1499.18 80.4118 1496.06 L85.9499 1496.06 Q87.2867 1499.21 87.987 1502.52 Q88.6872 1505.83 88.6872 1509.23 Q88.6872 1517.76 83.7219 1522.76 Q78.7567 1527.73 70.2903 1527.73 Q61.5374 1527.73 56.4131 1523.02 Q51.2568 1518.27 51.2568 1510.25 Q51.2568 1503.06 55.9038 1498.89 Q60.5189 1494.69 68.4761 1494.69 M66.7573 1500.54 Q61.9512 1500.61 59.0866 1503.25 Q56.2221 1505.86 56.2221 1510.19 Q56.2221 1515.09 58.9912 1518.05 Q61.7602 1520.98 66.7892 1521.42 L66.7573 1500.54 Z" fill="#000000" fill-rule="evenodd" fill-opacity="1" /><path clip-path="url(#clip220)" d="M38.3026 1450.29 Q45.6232 1454.55 52.7846 1456.62 Q59.946 1458.69 67.2984 1458.69 Q74.6508 1458.69 81.8759 1456.62 Q89.0691 1454.52 96.3579 1450.29 L96.3579 1455.38 Q88.8782 1460.15 81.6531 1462.54 Q74.428 1464.9 67.2984 1464.9 Q60.2006 1464.9 53.0074 1462.54 Q45.8142 1460.19 38.3026 1455.38 L38.3026 1450.29 Z" fill="#000000" fill-rule="evenodd" fill-opacity="1" /><path clip-path="url(#clip220)" d="M52.1162 1438.92 L52.1162 1433.07 L87.7642 1433.07 L87.7642 1438.92 L52.1162 1438.92 M38.239 1438.92 L38.239 1433.07 L45.655 1433.07 L45.655 1438.92 L38.239 1438.92 Z" fill="#000000" fill-rule="evenodd" fill-opacity="1" /><path clip-path="url(#clip220)" d="M66.2481 1391.18 L87.7642 1391.18 L87.7642 1397.04 L66.439 1397.04 Q61.3783 1397.04 58.8638 1399.01 Q56.3494 1400.98 56.3494 1404.93 Q56.3494 1409.67 59.3731 1412.41 Q62.3968 1415.15 67.6167 1415.15 L87.7642 1415.15 L87.7642 1421.04 L52.1162 1421.04 L52.1162 1415.15 L57.6544 1415.15 Q54.4397 1413.05 52.8483 1410.22 Q51.2568 1407.35 51.2568 1403.63 Q51.2568 1397.48 55.0763 1394.33 Q58.8638 1391.18 66.2481 1391.18 Z" fill="#000000" fill-rule="evenodd" fill-opacity="1" /><path clip-path="url(#clip220)" d="M41.9947 1352.99 L52.1162 1352.99 L52.1162 1340.92 L56.6677 1340.92 L56.6677 1352.99 L76.0194 1352.99 Q80.3799 1352.99 81.6213 1351.81 Q82.8626 1350.6 82.8626 1346.94 L82.8626 1340.92 L87.7642 1340.92 L87.7642 1346.94 Q87.7642 1353.72 85.2497 1356.3 Q82.7034 1358.88 76.0194 1358.88 L56.6677 1358.88 L56.6677 1363.17 L52.1162 1363.17 L52.1162 1358.88 L41.9947 1358.88 L41.9947 1352.99 Z" fill="#000000" fill-rule="evenodd" fill-opacity="1" /><path clip-path="url(#clip220)" d="M66.2481 1303.59 L87.7642 1303.59 L87.7642 1309.45 L66.439 1309.45 Q61.3783 1309.45 58.8638 1311.42 Q56.3494 1313.39 56.3494 1317.34 Q56.3494 1322.08 59.3731 1324.82 Q62.3968 1327.56 67.6167 1327.56 L87.7642 1327.56 L87.7642 1333.44 L38.239 1333.44 L38.239 1327.56 L57.6544 1327.56 Q54.4397 1325.46 52.8483 1322.62 Q51.2568 1319.76 51.2568 1316.03 Q51.2568 1309.89 55.0763 1306.74 Q58.8638 1303.59 66.2481 1303.59 Z" fill="#000000" fill-rule="evenodd" fill-opacity="1" /><path clip-path="url(#clip220)" d="M56.2221 1278.09 Q56.2221 1282.81 59.9142 1285.54 Q63.5745 1288.28 69.972 1288.28 Q76.3695 1288.28 80.0617 1285.57 Q83.7219 1282.84 83.7219 1278.09 Q83.7219 1273.42 80.0298 1270.68 Q76.3377 1267.94 69.972 1267.94 Q63.6381 1267.94 59.946 1270.68 Q56.2221 1273.42 56.2221 1278.09 M51.2568 1278.09 Q51.2568 1270.46 56.2221 1266.1 Q61.1873 1261.74 69.972 1261.74 Q78.7249 1261.74 83.7219 1266.1 Q88.6872 1270.46 88.6872 1278.09 Q88.6872 1285.77 83.7219 1290.13 Q78.7249 1294.45 69.972 1294.45 Q61.1873 1294.45 56.2221 1290.13 Q51.2568 1285.77 51.2568 1278.09 Z" fill="#000000" fill-rule="evenodd" fill-opacity="1" /><path clip-path="url(#clip220)" d="M73.6959 1252.63 L52.1162 1252.63 L52.1162 1246.78 L73.4731 1246.78 Q78.5339 1246.78 81.0802 1244.8 Q83.5946 1242.83 83.5946 1238.88 Q83.5946 1234.14 80.5709 1231.4 Q77.5472 1228.63 72.3273 1228.63 L52.1162 1228.63 L52.1162 1222.78 L87.7642 1222.78 L87.7642 1228.63 L82.2896 1228.63 Q85.5362 1230.77 87.1276 1233.6 Q88.6872 1236.4 88.6872 1240.12 Q88.6872 1246.27 84.8678 1249.45 Q81.0483 1252.63 73.6959 1252.63 M51.2568 1237.9 L51.2568 1237.9 Z" fill="#000000" fill-rule="evenodd" fill-opacity="1" /><path clip-path="url(#clip220)" d="M53.1665 1187.99 L58.7047 1187.99 Q57.4316 1190.47 56.795 1193.14 Q56.1584 1195.82 56.1584 1198.68 Q56.1584 1203.04 57.4952 1205.24 Q58.832 1207.4 61.5056 1207.4 Q63.5426 1207.4 64.7203 1205.84 Q65.8661 1204.28 66.9165 1199.57 L67.3621 1197.57 Q68.6989 1191.33 71.1497 1188.72 Q73.5686 1186.08 77.9291 1186.08 Q82.8944 1186.08 85.7908 1190.03 Q88.6872 1193.94 88.6872 1200.82 Q88.6872 1203.68 88.1143 1206.8 Q87.5732 1209.89 86.4592 1213.32 L80.4118 1213.32 Q82.0987 1210.08 82.958 1206.93 Q83.7856 1203.78 83.7856 1200.69 Q83.7856 1196.55 82.3851 1194.32 Q80.9529 1192.09 78.3747 1192.09 Q75.9876 1192.09 74.7145 1193.72 Q73.4413 1195.31 72.2637 1200.75 L71.7862 1202.79 Q70.6404 1208.23 68.2851 1210.65 Q65.898 1213.07 61.7602 1213.07 Q56.7313 1213.07 53.9941 1209.5 Q51.2568 1205.94 51.2568 1199.38 Q51.2568 1196.14 51.7343 1193.27 Q52.2117 1190.41 53.1665 1187.99 Z" fill="#000000" fill-rule="evenodd" fill-opacity="1" /><path clip-path="url(#clip220)" d="M69.8447 1160.55 Q69.8447 1167.65 71.4679 1170.39 Q73.0912 1173.12 77.0061 1173.12 Q80.1253 1173.12 81.9714 1171.09 Q83.7856 1169.02 83.7856 1165.49 Q83.7856 1160.62 80.3481 1157.69 Q76.8788 1154.73 71.1497 1154.73 L69.8447 1154.73 L69.8447 1160.55 M67.4257 1148.87 L87.7642 1148.87 L87.7642 1154.73 L82.3533 1154.73 Q85.5998 1156.73 87.1594 1159.72 Q88.6872 1162.72 88.6872 1167.05 Q88.6872 1172.52 85.6316 1175.77 Q82.5443 1178.98 77.3881 1178.98 Q71.3725 1178.98 68.3169 1174.97 Q65.2614 1170.93 65.2614 1162.94 L65.2614 1154.73 L64.6885 1154.73 Q60.6462 1154.73 58.4501 1157.4 Q56.2221 1160.04 56.2221 1164.85 Q56.2221 1167.9 56.9541 1170.8 Q57.6862 1173.7 59.1503 1176.37 L53.7395 1176.37 Q52.4981 1173.16 51.8934 1170.13 Q51.2568 1167.11 51.2568 1164.24 Q51.2568 1156.51 55.2672 1152.69 Q59.2776 1148.87 67.4257 1148.87 Z" fill="#000000" fill-rule="evenodd" fill-opacity="1" /><path clip-path="url(#clip220)" d="M66.2481 1107.18 L87.7642 1107.18 L87.7642 1113.03 L66.439 1113.03 Q61.3783 1113.03 58.8638 1115.01 Q56.3494 1116.98 56.3494 1120.93 Q56.3494 1125.67 59.3731 1128.41 Q62.3968 1131.14 67.6167 1131.14 L87.7642 1131.14 L87.7642 1137.03 L52.1162 1137.03 L52.1162 1131.14 L57.6544 1131.14 Q54.4397 1129.04 52.8483 1126.21 Q51.2568 1123.34 51.2568 1119.62 Q51.2568 1113.48 55.0763 1110.33 Q58.8638 1107.18 66.2481 1107.18 Z" fill="#000000" fill-rule="evenodd" fill-opacity="1" /><path clip-path="url(#clip220)" d="M57.5271 1072.04 L38.239 1072.04 L38.239 1066.18 L87.7642 1066.18 L87.7642 1072.04 L82.417 1072.04 Q85.5998 1073.88 87.1594 1076.72 Q88.6872 1079.52 88.6872 1083.46 Q88.6872 1089.92 83.531 1094 Q78.3747 1098.04 69.972 1098.04 Q61.5693 1098.04 56.4131 1094 Q51.2568 1089.92 51.2568 1083.46 Q51.2568 1079.52 52.8164 1076.72 Q54.3442 1073.88 57.5271 1072.04 M69.972 1091.99 Q76.4332 1091.99 80.1253 1089.35 Q83.7856 1086.68 83.7856 1082.03 Q83.7856 1077.38 80.1253 1074.71 Q76.4332 1072.04 69.972 1072.04 Q63.5108 1072.04 59.8505 1074.71 Q56.1584 1077.38 56.1584 1082.03 Q56.1584 1086.68 59.8505 1089.35 Q63.5108 1091.99 69.972 1091.99 Z" fill="#000000" fill-rule="evenodd" fill-opacity="1" /><path clip-path="url(#clip220)" d="M53.1665 1031.39 L58.7047 1031.39 Q57.4316 1033.87 56.795 1036.55 Q56.1584 1039.22 56.1584 1042.09 Q56.1584 1046.45 57.4952 1048.64 Q58.832 1050.81 61.5056 1050.81 Q63.5426 1050.81 64.7203 1049.25 Q65.8661 1047.69 66.9165 1042.98 L67.3621 1040.97 Q68.6989 1034.73 71.1497 1032.12 Q73.5686 1029.48 77.9291 1029.48 Q82.8944 1029.48 85.7908 1033.43 Q88.6872 1037.34 88.6872 1044.22 Q88.6872 1047.08 88.1143 1050.2 Q87.5732 1053.29 86.4592 1056.73 L80.4118 1056.73 Q82.0987 1053.48 82.958 1050.33 Q83.7856 1047.18 83.7856 1044.09 Q83.7856 1039.95 82.3851 1037.73 Q80.9529 1035.5 78.3747 1035.5 Q75.9876 1035.5 74.7145 1037.12 Q73.4413 1038.71 72.2637 1044.16 L71.7862 1046.19 Q70.6404 1051.63 68.2851 1054.05 Q65.898 1056.47 61.7602 1056.47 Q56.7313 1056.47 53.9941 1052.91 Q51.2568 1049.34 51.2568 1042.79 Q51.2568 1039.54 51.7343 1036.68 Q52.2117 1033.81 53.1665 1031.39 Z" fill="#000000" fill-rule="evenodd" fill-opacity="1" /><path clip-path="url(#clip220)" d="M56.2221 985.623 Q56.2221 990.333 59.9142 993.07 Q63.5745 995.808 69.972 995.808 Q76.3695 995.808 80.0617 993.102 Q83.7219 990.365 83.7219 985.623 Q83.7219 980.944 80.0298 978.206 Q76.3377 975.469 69.972 975.469 Q63.6381 975.469 59.946 978.206 Q56.2221 980.944 56.2221 985.623 M51.2568 985.623 Q51.2568 977.984 56.2221 973.623 Q61.1873 969.263 69.972 969.263 Q78.7249 969.263 83.7219 973.623 Q88.6872 977.984 88.6872 985.623 Q88.6872 993.293 83.7219 997.654 Q78.7249 1001.98 69.972 1001.98 Q61.1873 1001.98 56.2221 997.654 Q51.2568 993.293 51.2568 985.623 Z" fill="#000000" fill-rule="evenodd" fill-opacity="1" /><path clip-path="url(#clip220)" d="M38.239 941.508 L43.1087 941.508 L43.1087 947.11 Q43.1087 950.261 44.3819 951.502 Q45.655 952.712 48.9652 952.712 L52.1162 952.712 L52.1162 943.068 L56.6677 943.068 L56.6677 952.712 L87.7642 952.712 L87.7642 958.6 L56.6677 958.6 L56.6677 964.202 L52.1162 964.202 L52.1162 958.6 L49.6336 958.6 Q43.6816 958.6 40.9762 955.831 Q38.239 953.062 38.239 947.046 L38.239 941.508 Z" fill="#000000" fill-rule="evenodd" fill-opacity="1" /><path clip-path="url(#clip220)" d="M57.5271 892.429 L38.239 892.429 L38.239 886.572 L87.7642 886.572 L87.7642 892.429 L82.417 892.429 Q85.5998 894.275 87.1594 897.107 Q88.6872 899.908 88.6872 903.855 Q88.6872 910.316 83.531 914.39 Q78.3747 918.433 69.972 918.433 Q61.5693 918.433 56.4131 914.39 Q51.2568 910.316 51.2568 903.855 Q51.2568 899.908 52.8164 897.107 Q54.3442 894.275 57.5271 892.429 M69.972 912.385 Q76.4332 912.385 80.1253 909.743 Q83.7856 907.07 83.7856 902.423 Q83.7856 897.776 80.1253 895.102 Q76.4332 892.429 69.972 892.429 Q63.5108 892.429 59.8505 895.102 Q56.1584 897.776 56.1584 902.423 Q56.1584 907.07 59.8505 909.743 Q63.5108 912.385 69.972 912.385 Z" fill="#000000" fill-rule="evenodd" fill-opacity="1" /><path clip-path="url(#clip220)" d="M56.2221 860.696 Q56.2221 865.406 59.9142 868.143 Q63.5745 870.881 69.972 870.881 Q76.3695 870.881 80.0617 868.175 Q83.7219 865.438 83.7219 860.696 Q83.7219 856.017 80.0298 853.28 Q76.3377 850.542 69.972 850.542 Q63.6381 850.542 59.946 853.28 Q56.2221 856.017 56.2221 860.696 M51.2568 860.696 Q51.2568 853.057 56.2221 848.696 Q61.1873 844.336 69.972 844.336 Q78.7249 844.336 83.7219 848.696 Q88.6872 853.057 88.6872 860.696 Q88.6872 868.366 83.7219 872.727 Q78.7249 877.055 69.972 877.055 Q61.1873 877.055 56.2221 872.727 Q51.2568 868.366 51.2568 860.696 Z" fill="#000000" fill-rule="evenodd" fill-opacity="1" /><path clip-path="url(#clip220)" d="M38.239 834.628 L38.239 828.772 L87.7642 828.772 L87.7642 834.628 L38.239 834.628 Z" fill="#000000" fill-rule="evenodd" fill-opacity="1" /><path clip-path="url(#clip220)" d="M38.239 816.518 L38.239 810.661 L87.7642 810.661 L87.7642 816.518 L38.239 816.518 Z" fill="#000000" fill-rule="evenodd" fill-opacity="1" /><path clip-path="url(#clip220)" d="M69.8447 782.206 Q69.8447 789.304 71.4679 792.041 Q73.0912 794.779 77.0061 794.779 Q80.1253 794.779 81.9714 792.742 Q83.7856 790.673 83.7856 787.14 Q83.7856 782.27 80.3481 779.342 Q76.8788 776.382 71.1497 776.382 L69.8447 776.382 L69.8447 782.206 M67.4257 770.525 L87.7642 770.525 L87.7642 776.382 L82.3533 776.382 Q85.5998 778.387 87.1594 781.379 Q88.6872 784.371 88.6872 788.699 Q88.6872 794.174 85.6316 797.42 Q82.5443 800.635 77.3881 800.635 Q71.3725 800.635 68.3169 796.625 Q65.2614 792.582 65.2614 784.594 L65.2614 776.382 L64.6885 776.382 Q60.6462 776.382 58.4501 779.055 Q56.2221 781.697 56.2221 786.503 Q56.2221 789.559 56.9541 792.455 Q57.6862 795.352 59.1503 798.025 L53.7395 798.025 Q52.4981 794.81 51.8934 791.787 Q51.2568 788.763 51.2568 785.898 Q51.2568 778.164 55.2672 774.345 Q59.2776 770.525 67.4257 770.525 Z" fill="#000000" fill-rule="evenodd" fill-opacity="1" /><path clip-path="url(#clip220)" d="M57.5907 737.806 Q57.0178 738.792 56.7632 739.97 Q56.4767 741.116 56.4767 742.516 Q56.4767 747.481 59.7232 750.155 Q62.9379 752.797 68.9853 752.797 L87.7642 752.797 L87.7642 758.685 L52.1162 758.685 L52.1162 752.797 L57.6544 752.797 Q54.4079 750.951 52.8483 747.991 Q51.2568 745.031 51.2568 740.797 Q51.2568 740.193 51.3523 739.461 Q51.416 738.729 51.5751 737.837 L57.5907 737.806 Z" fill="#000000" fill-rule="evenodd" fill-opacity="1" /><path clip-path="url(#clip220)" d="M53.1665 708.937 L58.7047 708.937 Q57.4316 711.42 56.795 714.093 Q56.1584 716.767 56.1584 719.631 Q56.1584 723.992 57.4952 726.188 Q58.832 728.353 61.5056 728.353 Q63.5426 728.353 64.7203 726.793 Q65.8661 725.233 66.9165 720.523 L67.3621 718.517 Q68.6989 712.279 71.1497 709.669 Q73.5686 707.027 77.9291 707.027 Q82.8944 707.027 85.7908 710.974 Q88.6872 714.889 88.6872 721.764 Q88.6872 724.629 88.1143 727.748 Q87.5732 730.835 86.4592 734.273 L80.4118 734.273 Q82.0987 731.026 82.958 727.875 Q83.7856 724.724 83.7856 721.637 Q83.7856 717.499 82.3851 715.271 Q80.9529 713.043 78.3747 713.043 Q75.9876 713.043 74.7145 714.666 Q73.4413 716.258 72.2637 721.7 L71.7862 723.737 Q70.6404 729.18 68.2851 731.599 Q65.898 734.018 61.7602 734.018 Q56.7313 734.018 53.9941 730.453 Q51.2568 726.888 51.2568 720.332 Q51.2568 717.085 51.7343 714.221 Q52.2117 711.356 53.1665 708.937 Z" fill="#000000" fill-rule="evenodd" fill-opacity="1" /><path clip-path="url(#clip220)" d="M38.3026 698.625 L38.3026 693.532 Q45.8142 688.758 53.0074 686.403 Q60.2006 684.015 67.2984 684.015 Q74.428 684.015 81.6531 686.403 Q88.8782 688.758 96.3579 693.532 L96.3579 698.625 Q89.0691 694.391 81.8759 692.323 Q74.6508 690.222 67.2984 690.222 Q59.946 690.222 52.7846 692.323 Q45.6232 694.391 38.3026 698.625 Z" fill="#000000" fill-rule="evenodd" fill-opacity="1" /><path clip-path="url(#clip220)" d="M773.145 12.096 L781.328 12.096 L781.328 36.8875 L811.061 36.8875 L811.061 12.096 L819.244 12.096 L819.244 72.576 L811.061 72.576 L811.061 43.7741 L781.328 43.7741 L781.328 72.576 L773.145 72.576 L773.145 12.096 Z" fill="#000000" fill-rule="evenodd" fill-opacity="1" /><path clip-path="url(#clip220)" d="M852.785 32.4315 Q846.79 32.4315 843.306 37.1306 Q839.823 41.7891 839.823 49.9314 Q839.823 58.0738 843.266 62.7728 Q846.75 67.4314 852.785 67.4314 Q858.74 67.4314 862.224 62.7323 Q865.708 58.0333 865.708 49.9314 Q865.708 41.8701 862.224 37.1711 Q858.74 32.4315 852.785 32.4315 M852.785 26.1121 Q862.508 26.1121 868.057 32.4315 Q873.607 38.7509 873.607 49.9314 Q873.607 61.0714 868.057 67.4314 Q862.508 73.7508 852.785 73.7508 Q843.023 73.7508 837.473 67.4314 Q831.964 61.0714 831.964 49.9314 Q831.964 38.7509 837.473 32.4315 Q843.023 26.1121 852.785 26.1121 Z" fill="#000000" fill-rule="evenodd" fill-opacity="1" /><path clip-path="url(#clip220)" d="M885.193 54.671 L885.193 27.2059 L892.646 27.2059 L892.646 54.3874 Q892.646 60.8284 895.158 64.0691 Q897.67 67.2693 902.693 67.2693 Q908.728 67.2693 912.212 63.421 Q915.737 59.5726 915.737 52.9291 L915.737 27.2059 L923.19 27.2059 L923.19 72.576 L915.737 72.576 L915.737 65.6084 Q913.022 69.7404 909.417 71.7658 Q905.852 73.7508 901.113 73.7508 Q893.295 73.7508 889.244 68.8897 Q885.193 64.0286 885.193 54.671 M903.948 26.1121 L903.948 26.1121 Z" fill="#000000" fill-rule="evenodd" fill-opacity="1" /><path clip-path="url(#clip220)" d="M967.467 28.5427 L967.467 35.5912 Q964.307 33.9709 960.904 33.1607 Q957.501 32.3505 953.856 32.3505 Q948.306 32.3505 945.511 34.0519 Q942.756 35.7533 942.756 39.156 Q942.756 41.7486 944.741 43.2475 Q946.726 44.7058 952.721 46.0426 L955.273 46.6097 Q963.213 48.3111 966.535 51.4303 Q969.897 54.509 969.897 60.0587 Q969.897 66.3781 964.874 70.0644 Q959.891 73.7508 951.141 73.7508 Q947.496 73.7508 943.526 73.0216 Q939.596 72.3329 935.221 70.9151 L935.221 63.2184 Q939.353 65.3654 943.364 66.4591 Q947.374 67.5124 951.303 67.5124 Q956.57 67.5124 959.405 65.73 Q962.241 63.9071 962.241 60.6258 Q962.241 57.5877 960.175 55.9673 Q958.15 54.3469 951.222 52.8481 L948.63 52.2405 Q941.703 50.7821 938.624 47.7845 Q935.545 44.7463 935.545 39.4801 Q935.545 33.0797 940.082 29.5959 Q944.619 26.1121 952.964 26.1121 Q957.096 26.1121 960.742 26.7198 Q964.388 27.3274 967.467 28.5427 Z" fill="#000000" fill-rule="evenodd" fill-opacity="1" /><path clip-path="url(#clip220)" d="M981.766 27.2059 L989.22 27.2059 L989.22 72.576 L981.766 72.576 L981.766 27.2059 M981.766 9.54393 L989.22 9.54393 L989.22 18.9825 L981.766 18.9825 L981.766 9.54393 Z" fill="#000000" fill-rule="evenodd" fill-opacity="1" /><path clip-path="url(#clip220)" d="M1042.53 45.1919 L1042.53 72.576 L1035.08 72.576 L1035.08 45.4349 Q1035.08 38.994 1032.56 35.7938 Q1030.05 32.5936 1025.03 32.5936 Q1018.99 32.5936 1015.51 36.4419 Q1012.03 40.2903 1012.03 46.9338 L1012.03 72.576 L1004.53 72.576 L1004.53 27.2059 L1012.03 27.2059 L1012.03 34.2544 Q1014.7 30.163 1018.31 28.1376 Q1021.95 26.1121 1026.69 26.1121 Q1034.51 26.1121 1038.52 30.9732 Q1042.53 35.7938 1042.53 45.1919 Z" fill="#000000" fill-rule="evenodd" fill-opacity="1" /><path clip-path="url(#clip220)" d="M1087.25 49.3643 Q1087.25 41.2625 1083.89 36.8065 Q1080.57 32.3505 1074.53 32.3505 Q1068.54 32.3505 1065.17 36.8065 Q1061.85 41.2625 1061.85 49.3643 Q1061.85 57.4256 1065.17 61.8816 Q1068.54 66.3376 1074.53 66.3376 Q1080.57 66.3376 1083.89 61.8816 Q1087.25 57.4256 1087.25 49.3643 M1094.71 66.9452 Q1094.71 78.5308 1089.56 84.1616 Q1084.42 89.8329 1073.8 89.8329 Q1069.87 89.8329 1066.39 89.2252 Q1062.91 88.6581 1059.62 87.4428 L1059.62 80.1917 Q1062.91 81.9741 1066.11 82.8248 Q1069.31 83.6755 1072.63 83.6755 Q1079.96 83.6755 1083.61 79.8271 Q1087.25 76.0193 1087.25 68.282 L1087.25 64.5957 Q1084.94 68.6061 1081.34 70.5911 Q1077.73 72.576 1072.71 72.576 Q1064.36 72.576 1059.26 66.2161 Q1054.16 59.8562 1054.16 49.3643 Q1054.16 38.832 1059.26 32.472 Q1064.36 26.1121 1072.71 26.1121 Q1077.73 26.1121 1081.34 28.0971 Q1084.94 30.082 1087.25 34.0924 L1087.25 27.2059 L1094.71 27.2059 L1094.71 66.9452 Z" fill="#000000" fill-rule="evenodd" fill-opacity="1" /><path clip-path="url(#clip220)" d="M1144.94 18.8205 L1144.94 41.5461 L1155.23 41.5461 Q1160.94 41.5461 1164.06 38.5889 Q1167.18 35.6318 1167.18 30.163 Q1167.18 24.7348 1164.06 21.7777 Q1160.94 18.8205 1155.23 18.8205 L1144.94 18.8205 M1136.75 12.096 L1155.23 12.096 Q1165.39 12.096 1170.58 16.714 Q1175.8 21.2916 1175.8 30.163 Q1175.8 39.1155 1170.58 43.6931 Q1165.39 48.2706 1155.23 48.2706 L1144.94 48.2706 L1144.94 72.576 L1136.75 72.576 L1136.75 12.096 Z" fill="#000000" fill-rule="evenodd" fill-opacity="1" /><path clip-path="url(#clip220)" d="M1211.29 34.1734 Q1210.03 33.4443 1208.54 33.1202 Q1207.08 32.7556 1205.3 32.7556 Q1198.98 32.7556 1195.57 36.8875 Q1192.21 40.9789 1192.21 48.6757 L1192.21 72.576 L1184.72 72.576 L1184.72 27.2059 L1192.21 27.2059 L1192.21 34.2544 Q1194.56 30.1225 1198.33 28.1376 Q1202.09 26.1121 1207.48 26.1121 Q1208.25 26.1121 1209.18 26.2337 Q1210.12 26.3147 1211.25 26.5172 L1211.29 34.1734 Z" fill="#000000" fill-rule="evenodd" fill-opacity="1" /><path clip-path="url(#clip220)" d="M1219.11 27.2059 L1226.56 27.2059 L1226.56 72.576 L1219.11 72.576 L1219.11 27.2059 M1219.11 9.54393 L1226.56 9.54393 L1226.56 18.9825 L1219.11 18.9825 L1219.11 9.54393 Z" fill="#000000" fill-rule="evenodd" fill-opacity="1" /><path clip-path="url(#clip220)" d="M1274.81 28.9478 L1274.81 35.9153 Q1271.65 34.1734 1268.45 33.3227 Q1265.29 32.4315 1262.05 32.4315 Q1254.8 32.4315 1250.79 37.0496 Q1246.78 41.6271 1246.78 49.9314 Q1246.78 58.2358 1250.79 62.8538 Q1254.8 67.4314 1262.05 67.4314 Q1265.29 67.4314 1268.45 66.5807 Q1271.65 65.6895 1274.81 63.9476 L1274.81 70.8341 Q1271.69 72.2924 1268.33 73.0216 Q1265.01 73.7508 1261.24 73.7508 Q1250.99 73.7508 1244.95 67.3098 Q1238.92 60.8689 1238.92 49.9314 Q1238.92 38.832 1244.99 32.472 Q1251.11 26.1121 1261.72 26.1121 Q1265.17 26.1121 1268.45 26.8413 Q1271.73 27.5299 1274.81 28.9478 Z" fill="#000000" fill-rule="evenodd" fill-opacity="1" /><path clip-path="url(#clip220)" d="M1326.58 48.0275 L1326.58 51.6733 L1292.31 51.6733 Q1292.79 59.3701 1296.93 63.421 Q1301.1 67.4314 1308.51 67.4314 Q1312.81 67.4314 1316.82 66.3781 Q1320.87 65.3249 1324.84 63.2184 L1324.84 70.267 Q1320.83 71.9684 1316.61 72.8596 Q1312.4 73.7508 1308.07 73.7508 Q1297.21 73.7508 1290.85 67.4314 Q1284.53 61.1119 1284.53 50.3365 Q1284.53 39.1965 1290.53 32.6746 Q1296.56 26.1121 1306.77 26.1121 Q1315.93 26.1121 1321.23 32.0264 Q1326.58 37.9003 1326.58 48.0275 M1319.13 45.84 Q1319.04 39.7232 1315.68 36.0774 Q1312.36 32.4315 1306.85 32.4315 Q1300.61 32.4315 1296.85 35.9558 Q1293.12 39.4801 1292.55 45.8805 L1319.13 45.84 Z" fill="#000000" fill-rule="evenodd" fill-opacity="1" /><path clip-path="url(#clip220)" d="M1367.74 28.5427 L1367.74 35.5912 Q1364.58 33.9709 1361.17 33.1607 Q1357.77 32.3505 1354.13 32.3505 Q1348.58 32.3505 1345.78 34.0519 Q1343.03 35.7533 1343.03 39.156 Q1343.03 41.7486 1345.01 43.2475 Q1347 44.7058 1352.99 46.0426 L1355.54 46.6097 Q1363.48 48.3111 1366.8 51.4303 Q1370.17 54.509 1370.17 60.0587 Q1370.17 66.3781 1365.14 70.0644 Q1360.16 73.7508 1351.41 73.7508 Q1347.77 73.7508 1343.8 73.0216 Q1339.87 72.3329 1335.49 70.9151 L1335.49 63.2184 Q1339.62 65.3654 1343.63 66.4591 Q1347.64 67.5124 1351.57 67.5124 Q1356.84 67.5124 1359.68 65.73 Q1362.51 63.9071 1362.51 60.6258 Q1362.51 57.5877 1360.44 55.9673 Q1358.42 54.3469 1351.49 52.8481 L1348.9 52.2405 Q1341.97 50.7821 1338.89 47.7845 Q1335.82 44.7463 1335.82 39.4801 Q1335.82 33.0797 1340.35 29.5959 Q1344.89 26.1121 1353.23 26.1121 Q1357.37 26.1121 1361.01 26.7198 Q1364.66 27.3274 1367.74 28.5427 Z" fill="#000000" fill-rule="evenodd" fill-opacity="1" /><path clip-path="url(#clip220)" d="M1408.41 27.2059 L1415.86 27.2059 L1415.86 72.576 L1408.41 72.576 L1408.41 27.2059 M1408.41 9.54393 L1415.86 9.54393 L1415.86 18.9825 L1408.41 18.9825 L1408.41 9.54393 Z" fill="#000000" fill-rule="evenodd" fill-opacity="1" /><path clip-path="url(#clip220)" d="M1469.17 45.1919 L1469.17 72.576 L1461.72 72.576 L1461.72 45.4349 Q1461.72 38.994 1459.21 35.7938 Q1456.69 32.5936 1451.67 32.5936 Q1445.64 32.5936 1442.15 36.4419 Q1438.67 40.2903 1438.67 46.9338 L1438.67 72.576 L1431.17 72.576 L1431.17 27.2059 L1438.67 27.2059 L1438.67 34.2544 Q1441.34 30.163 1444.95 28.1376 Q1448.59 26.1121 1453.33 26.1121 Q1461.15 26.1121 1465.16 30.9732 Q1469.17 35.7938 1469.17 45.1919 Z" fill="#000000" fill-rule="evenodd" fill-opacity="1" /><path clip-path="url(#clip220)" d="M1518.92 18.8205 L1518.92 41.5461 L1529.21 41.5461 Q1534.92 41.5461 1538.04 38.5889 Q1541.16 35.6318 1541.16 30.163 Q1541.16 24.7348 1538.04 21.7777 Q1534.92 18.8205 1529.21 18.8205 L1518.92 18.8205 M1510.73 12.096 L1529.21 12.096 Q1539.37 12.096 1544.56 16.714 Q1549.78 21.2916 1549.78 30.163 Q1549.78 39.1155 1544.56 43.6931 Q1539.37 48.2706 1529.21 48.2706 L1518.92 48.2706 L1518.92 72.576 L1510.73 72.576 L1510.73 12.096 Z" fill="#000000" fill-rule="evenodd" fill-opacity="1" /><path clip-path="url(#clip220)" d="M1575.06 32.4315 Q1569.07 32.4315 1565.58 37.1306 Q1562.1 41.7891 1562.1 49.9314 Q1562.1 58.0738 1565.54 62.7728 Q1569.03 67.4314 1575.06 67.4314 Q1581.02 67.4314 1584.5 62.7323 Q1587.98 58.0333 1587.98 49.9314 Q1587.98 41.8701 1584.5 37.1711 Q1581.02 32.4315 1575.06 32.4315 M1575.06 26.1121 Q1584.78 26.1121 1590.33 32.4315 Q1595.88 38.7509 1595.88 49.9314 Q1595.88 61.0714 1590.33 67.4314 Q1584.78 73.7508 1575.06 73.7508 Q1565.3 73.7508 1559.75 67.4314 Q1554.24 61.0714 1554.24 49.9314 Q1554.24 38.7509 1559.75 32.4315 Q1565.3 26.1121 1575.06 26.1121 Z" fill="#000000" fill-rule="evenodd" fill-opacity="1" /><path clip-path="url(#clip220)" d="M1634.53 34.1734 Q1633.27 33.4443 1631.77 33.1202 Q1630.32 32.7556 1628.53 32.7556 Q1622.21 32.7556 1618.81 36.8875 Q1615.45 40.9789 1615.45 48.6757 L1615.45 72.576 L1607.96 72.576 L1607.96 27.2059 L1615.45 27.2059 L1615.45 34.2544 Q1617.8 30.1225 1621.57 28.1376 Q1625.33 26.1121 1630.72 26.1121 Q1631.49 26.1121 1632.42 26.2337 Q1633.35 26.3147 1634.49 26.5172 L1634.53 34.1734 Z" fill="#000000" fill-rule="evenodd" fill-opacity="1" /><path clip-path="url(#clip220)" d="M1649.72 14.324 L1649.72 27.2059 L1665.07 27.2059 L1665.07 32.9987 L1649.72 32.9987 L1649.72 57.6282 Q1649.72 63.1779 1651.22 64.7578 Q1652.76 66.3376 1657.42 66.3376 L1665.07 66.3376 L1665.07 72.576 L1657.42 72.576 Q1648.79 72.576 1645.51 69.3758 Q1642.23 66.1351 1642.23 57.6282 L1642.23 32.9987 L1636.76 32.9987 L1636.76 27.2059 L1642.23 27.2059 L1642.23 14.324 L1649.72 14.324 Z" fill="#000000" fill-rule="evenodd" fill-opacity="1" /><path clip-path="url(#clip220)" d="M1674.88 9.54393 L1682.33 9.54393 L1682.33 72.576 L1674.88 72.576 L1674.88 9.54393 Z" fill="#000000" fill-rule="evenodd" fill-opacity="1" /><path clip-path="url(#clip220)" d="M1718.54 49.7694 Q1709.51 49.7694 1706.03 51.8354 Q1702.54 53.9013 1702.54 58.8839 Q1702.54 62.8538 1705.14 65.2034 Q1707.77 67.5124 1712.27 67.5124 Q1718.46 67.5124 1722.19 63.1374 Q1725.96 58.7219 1725.96 51.4303 L1725.96 49.7694 L1718.54 49.7694 M1733.41 46.6907 L1733.41 72.576 L1725.96 72.576 L1725.96 65.6895 Q1723.41 69.8214 1719.6 71.8063 Q1715.79 73.7508 1710.28 73.7508 Q1703.31 73.7508 1699.18 69.8619 Q1695.09 65.9325 1695.09 59.3701 Q1695.09 51.7138 1700.19 47.825 Q1705.34 43.9361 1715.51 43.9361 L1725.96 43.9361 L1725.96 43.2069 Q1725.96 38.0623 1722.56 35.2672 Q1719.19 32.4315 1713.08 32.4315 Q1709.19 32.4315 1705.5 33.3632 Q1701.81 34.295 1698.41 36.1584 L1698.41 29.2718 Q1702.5 27.692 1706.35 26.9223 Q1710.2 26.1121 1713.85 26.1121 Q1723.69 26.1121 1728.55 31.2163 Q1733.41 36.3204 1733.41 46.6907 Z" fill="#000000" fill-rule="evenodd" fill-opacity="1" /><path clip-path="url(#clip220)" d="M1786.48 45.1919 L1786.48 72.576 L1779.02 72.576 L1779.02 45.4349 Q1779.02 38.994 1776.51 35.7938 Q1774 32.5936 1768.98 32.5936 Q1762.94 32.5936 1759.46 36.4419 Q1755.98 40.2903 1755.98 46.9338 L1755.98 72.576 L1748.48 72.576 L1748.48 27.2059 L1755.98 27.2059 L1755.98 34.2544 Q1758.65 30.163 1762.25 28.1376 Q1765.9 26.1121 1770.64 26.1121 Q1778.46 26.1121 1782.47 30.9732 Q1786.48 35.7938 1786.48 45.1919 Z" fill="#000000" fill-rule="evenodd" fill-opacity="1" /><path clip-path="url(#clip220)" d="M1831.2 34.0924 L1831.2 9.54393 L1838.65 9.54393 L1838.65 72.576 L1831.2 72.576 L1831.2 65.7705 Q1828.85 69.8214 1825.25 71.8063 Q1821.68 73.7508 1816.66 73.7508 Q1808.43 73.7508 1803.25 67.1883 Q1798.1 60.6258 1798.1 49.9314 Q1798.1 39.2371 1803.25 32.6746 Q1808.43 26.1121 1816.66 26.1121 Q1821.68 26.1121 1825.25 28.0971 Q1828.85 30.0415 1831.2 34.0924 M1805.8 49.9314 Q1805.8 58.1548 1809.16 62.8538 Q1812.57 67.5124 1818.48 67.5124 Q1824.39 67.5124 1827.8 62.8538 Q1831.2 58.1548 1831.2 49.9314 Q1831.2 41.7081 1827.8 37.0496 Q1824.39 32.3505 1818.48 32.3505 Q1812.57 32.3505 1809.16 37.0496 Q1805.8 41.7081 1805.8 49.9314 Z" fill="#000000" fill-rule="evenodd" fill-opacity="1" /><circle clip-path="url(#clip222)" cx="1140.08" cy="1163.93" r="14" fill="#ff0000" fill-rule="evenodd" fill-opacity="1" stroke="#000000" stroke-opacity="1" stroke-width="4.8"/>
<circle clip-path="url(#clip222)" cx="929.031" cy="1340.71" r="14" fill="#ff0000" fill-rule="evenodd" fill-opacity="1" stroke="#000000" stroke-opacity="1" stroke-width="4.8"/>
<circle clip-path="url(#clip222)" cx="1264.03" cy="1242.22" r="14" fill="#ff0000" fill-rule="evenodd" fill-opacity="1" stroke="#000000" stroke-opacity="1" stroke-width="4.8"/>
<circle clip-path="url(#clip222)" cx="851.982" cy="1588.22" r="14" fill="#ff0000" fill-rule="evenodd" fill-opacity="1" stroke="#000000" stroke-opacity="1" stroke-width="4.8"/>
<circle clip-path="url(#clip222)" cx="1515.27" cy="810.351" r="14" fill="#ff0000" fill-rule="evenodd" fill-opacity="1" stroke="#000000" stroke-opacity="1" stroke-width="4.8"/>
<circle clip-path="url(#clip222)" cx="1090.25" cy="1416.48" r="14" fill="#ff0000" fill-rule="evenodd" fill-opacity="1" stroke="#000000" stroke-opacity="1" stroke-width="4.8"/>
<circle clip-path="url(#clip222)" cx="901.394" cy="1378.6" r="14" fill="#ff0000" fill-rule="evenodd" fill-opacity="1" stroke="#000000" stroke-opacity="1" stroke-width="4.8"/>
<circle clip-path="url(#clip222)" cx="856.589" cy="1671.56" r="14" fill="#ff0000" fill-rule="evenodd" fill-opacity="1" stroke="#000000" stroke-opacity="1" stroke-width="4.8"/>
<circle clip-path="url(#clip222)" cx="836.908" cy="1638.73" r="14" fill="#ff0000" fill-rule="evenodd" fill-opacity="1" stroke="#000000" stroke-opacity="1" stroke-width="4.8"/>
<circle clip-path="url(#clip222)" cx="884.644" cy="1562.96" r="14" fill="#ff0000" fill-rule="evenodd" fill-opacity="1" stroke="#000000" stroke-opacity="1" stroke-width="4.8"/>
<circle clip-path="url(#clip222)" cx="1071.4" cy="1568.01" r="14" fill="#ff0000" fill-rule="evenodd" fill-opacity="1" stroke="#000000" stroke-opacity="1" stroke-width="4.8"/>
<circle clip-path="url(#clip222)" cx="1096.53" cy="1297.78" r="14" fill="#ff0000" fill-rule="evenodd" fill-opacity="1" stroke="#000000" stroke-opacity="1" stroke-width="4.8"/>
<circle clip-path="url(#clip222)" cx="1050.47" cy="1340.71" r="14" fill="#ff0000" fill-rule="evenodd" fill-opacity="1" stroke="#000000" stroke-opacity="1" stroke-width="4.8"/>
<circle clip-path="url(#clip222)" cx="2134.17" cy="406.266" r="14" fill="#ff0000" fill-rule="evenodd" fill-opacity="1" stroke="#000000" stroke-opacity="1" stroke-width="4.8"/>
<circle clip-path="url(#clip222)" cx="790.008" cy="1517.5" r="14" fill="#ff0000" fill-rule="evenodd" fill-opacity="1" stroke="#000000" stroke-opacity="1" stroke-width="4.8"/>
<circle clip-path="url(#clip222)" cx="1222.15" cy="1037.65" r="14" fill="#ff0000" fill-rule="evenodd" fill-opacity="1" stroke="#000000" stroke-opacity="1" stroke-width="4.8"/>
<circle clip-path="url(#clip222)" cx="811.783" cy="1416.48" r="14" fill="#ff0000" fill-rule="evenodd" fill-opacity="1" stroke="#000000" stroke-opacity="1" stroke-width="4.8"/>
<circle clip-path="url(#clip222)" cx="776.609" cy="1669.03" r="14" fill="#ff0000" fill-rule="evenodd" fill-opacity="1" stroke="#000000" stroke-opacity="1" stroke-width="4.8"/>
<circle clip-path="url(#clip222)" cx="1351.54" cy="911.373" r="14" fill="#ff0000" fill-rule="evenodd" fill-opacity="1" stroke="#000000" stroke-opacity="1" stroke-width="4.8"/>
<circle clip-path="url(#clip222)" cx="1528.25" cy="661.345" r="14" fill="#ff0000" fill-rule="evenodd" fill-opacity="1" stroke="#000000" stroke-opacity="1" stroke-width="4.8"/>
<circle clip-path="url(#clip222)" cx="998.961" cy="1535.18" r="14" fill="#ff0000" fill-rule="evenodd" fill-opacity="1" stroke="#000000" stroke-opacity="1" stroke-width="4.8"/>
<circle clip-path="url(#clip222)" cx="1049.63" cy="1530.13" r="14" fill="#ff0000" fill-rule="evenodd" fill-opacity="1" stroke="#000000" stroke-opacity="1" stroke-width="4.8"/>
<circle clip-path="url(#clip222)" cx="930.706" cy="1560.43" r="14" fill="#ff0000" fill-rule="evenodd" fill-opacity="1" stroke="#000000" stroke-opacity="1" stroke-width="4.8"/>
<circle clip-path="url(#clip222)" cx="1080.62" cy="1517.5" r="14" fill="#ff0000" fill-rule="evenodd" fill-opacity="1" stroke="#000000" stroke-opacity="1" stroke-width="4.8"/>
<circle clip-path="url(#clip222)" cx="1887.95" cy="724.483" r="14" fill="#ff0000" fill-rule="evenodd" fill-opacity="1" stroke="#000000" stroke-opacity="1" stroke-width="4.8"/>
<circle clip-path="url(#clip222)" cx="719.66" cy="1542.76" r="14" fill="#ff0000" fill-rule="evenodd" fill-opacity="1" stroke="#000000" stroke-opacity="1" stroke-width="4.8"/>
<circle clip-path="url(#clip222)" cx="869.57" cy="1002.29" r="14" fill="#ff0000" fill-rule="evenodd" fill-opacity="1" stroke="#000000" stroke-opacity="1" stroke-width="4.8"/>
<circle clip-path="url(#clip222)" cx="1316.79" cy="989.664" r="14" fill="#ff0000" fill-rule="evenodd" fill-opacity="1" stroke="#000000" stroke-opacity="1" stroke-width="4.8"/>
<circle clip-path="url(#clip222)" cx="1180.28" cy="974.511" r="14" fill="#ff0000" fill-rule="evenodd" fill-opacity="1" stroke="#000000" stroke-opacity="1" stroke-width="4.8"/>
<circle clip-path="url(#clip222)" cx="1363.27" cy="1416.48" r="14" fill="#ff0000" fill-rule="evenodd" fill-opacity="1" stroke="#000000" stroke-opacity="1" stroke-width="4.8"/>
<circle clip-path="url(#clip222)" cx="1029.11" cy="1290.2" r="14" fill="#ff0000" fill-rule="evenodd" fill-opacity="1" stroke="#000000" stroke-opacity="1" stroke-width="4.8"/>
<circle clip-path="url(#clip222)" cx="677.785" cy="1744.8" r="14" fill="#ff0000" fill-rule="evenodd" fill-opacity="1" stroke="#000000" stroke-opacity="1" stroke-width="4.8"/>
<circle clip-path="url(#clip222)" cx="1113.28" cy="1378.6" r="14" fill="#ff0000" fill-rule="evenodd" fill-opacity="1" stroke="#000000" stroke-opacity="1" stroke-width="4.8"/>
<circle clip-path="url(#clip222)" cx="1572.64" cy="709.33" r="14" fill="#ff0000" fill-rule="evenodd" fill-opacity="1" stroke="#000000" stroke-opacity="1" stroke-width="4.8"/>
<circle clip-path="url(#clip222)" cx="1017.39" cy="1451.84" r="14" fill="#ff0000" fill-rule="evenodd" fill-opacity="1" stroke="#000000" stroke-opacity="1" stroke-width="4.8"/>
<circle clip-path="url(#clip222)" cx="860.776" cy="1542.76" r="14" fill="#ff0000" fill-rule="evenodd" fill-opacity="1" stroke="#000000" stroke-opacity="1" stroke-width="4.8"/>
<circle clip-path="url(#clip222)" cx="777.865" cy="1593.27" r="14" fill="#ff0000" fill-rule="evenodd" fill-opacity="1" stroke="#000000" stroke-opacity="1" stroke-width="4.8"/>
<circle clip-path="url(#clip222)" cx="1151.8" cy="1302.83" r="14" fill="#ff0000" fill-rule="evenodd" fill-opacity="1" stroke="#000000" stroke-opacity="1" stroke-width="4.8"/>
<circle clip-path="url(#clip222)" cx="2024.04" cy="787.621" r="14" fill="#ff0000" fill-rule="evenodd" fill-opacity="1" stroke="#000000" stroke-opacity="1" stroke-width="4.8"/>
<circle clip-path="url(#clip222)" cx="1164.36" cy="1449.31" r="14" fill="#ff0000" fill-rule="evenodd" fill-opacity="1" stroke="#000000" stroke-opacity="1" stroke-width="4.8"/>
<circle clip-path="url(#clip222)" cx="955.831" cy="1244.74" r="14" fill="#ff0000" fill-rule="evenodd" fill-opacity="1" stroke="#000000" stroke-opacity="1" stroke-width="4.8"/>
<circle clip-path="url(#clip222)" cx="1196.19" cy="1340.71" r="14" fill="#ff0000" fill-rule="evenodd" fill-opacity="1" stroke="#000000" stroke-opacity="1" stroke-width="4.8"/>
<circle clip-path="url(#clip222)" cx="1333.96" cy="1381.12" r="14" fill="#ff0000" fill-rule="evenodd" fill-opacity="1" stroke="#000000" stroke-opacity="1" stroke-width="4.8"/>
<circle clip-path="url(#clip222)" cx="761.534" cy="1419" r="14" fill="#ff0000" fill-rule="evenodd" fill-opacity="1" stroke="#000000" stroke-opacity="1" stroke-width="4.8"/>
<circle clip-path="url(#clip222)" cx="615.812" cy="1719.54" r="14" fill="#ff0000" fill-rule="evenodd" fill-opacity="1" stroke="#000000" stroke-opacity="1" stroke-width="4.8"/>
<circle clip-path="url(#clip222)" cx="1034.55" cy="1416.48" r="14" fill="#ff0000" fill-rule="evenodd" fill-opacity="1" stroke="#000000" stroke-opacity="1" stroke-width="4.8"/>
<circle clip-path="url(#clip222)" cx="762.79" cy="1568.01" r="14" fill="#ff0000" fill-rule="evenodd" fill-opacity="1" stroke="#000000" stroke-opacity="1" stroke-width="4.8"/>
<polyline clip-path="url(#clip222)" style="stroke:#008000; stroke-linecap:butt; stroke-linejoin:round; stroke-width:12; stroke-opacity:1; fill:none" points="
  1140.08,1279.23 929.031,1450.47 1264.03,1178.65 851.982,1512.98 1515.27,974.794 1090.25,1319.66 901.394,1472.89 856.589,1509.25 836.908,1525.22 884.644,1486.48 
  1071.4,1334.95 1096.53,1314.56 1050.47,1351.94 2134.17,472.618 790.008,1563.27 1222.15,1212.63 811.783,1545.6 776.609,1574.14 1351.54,1107.64 1528.25,964.261 
  998.961,1393.73 1049.63,1352.61 930.706,1449.11 1080.62,1327.47 1887.95,672.401 719.66,1620.35 869.57,1498.71 1316.79,1135.84 1180.28,1246.61 1363.27,1098.13 
  1029.11,1369.26 677.785,1654.33 1113.28,1300.97 1572.64,928.246 1017.39,1378.78 860.776,1505.85 777.865,1573.12 1151.8,1269.71 2024.04,561.977 1164.36,1259.52 
  955.831,1428.72 1196.19,1233.7 1333.96,1121.91 761.534,1586.37 615.812,1704.61 1034.55,1364.85 762.79,1585.36 
  "/>
</svg>
