<?xml version="1.0" encoding="utf-8"?>
<svg xmlns="http://www.w3.org/2000/svg" xmlns:xlink="http://www.w3.org/1999/xlink" width="600" height="600" viewBox="0 0 2400 2400">
<defs>
  <clipPath id="clip370">
    <rect x="0" y="0" width="2400" height="2400"/>
  </clipPath>
</defs>
<path clip-path="url(#clip370)" d="
M0 2400 L2400 2400 L2400 0 L0 0  Z
  " fill="#ffffff" fill-rule="evenodd" fill-opacity="1"/>
<defs>
  <clipPath id="clip371">
    <rect x="480" y="240" width="1681" height="1681"/>
  </clipPath>
</defs>
<path clip-path="url(#clip370)" d="
M259.043 2174.14 L2352.76 2174.14 L2352.76 153.712 L259.043 153.712  Z
  " fill="#ffffff" fill-rule="evenodd" fill-opacity="1"/>
<defs>
  <clipPath id="clip372">
    <rect x="259" y="153" width="2095" height="2021"/>
  </clipPath>
</defs>
<polyline clip-path="url(#clip372)" style="stroke:#000000; stroke-linecap:butt; stroke-linejoin:round; stroke-width:2; stroke-opacity:0.1; fill:none" points="
  259.043,2174.14 259.043,153.712 
  "/>
<polyline clip-path="url(#clip372)" style="stroke:#000000; stroke-linecap:butt; stroke-linejoin:round; stroke-width:2; stroke-opacity:0.1; fill:none" points="
  677.785,2174.14 677.785,153.712 
  "/>
<polyline clip-path="url(#clip372)" style="stroke:#000000; stroke-linecap:butt; stroke-linejoin:round; stroke-width:2; stroke-opacity:0.1; fill:none" points="
  1096.53,2174.14 1096.53,153.712 
  "/>
<polyline clip-path="url(#clip372)" style="stroke:#000000; stroke-linecap:butt; stroke-linejoin:round; stroke-width:2; stroke-opacity:0.1; fill:none" points="
  1515.27,2174.14 1515.27,153.712 
  "/>
<polyline clip-path="url(#clip372)" style="stroke:#000000; stroke-linecap:butt; stroke-linejoin:round; stroke-width:2; stroke-opacity:0.1; fill:none" points="
  1934.01,2174.14 1934.01,153.712 
  "/>
<polyline clip-path="url(#clip372)" style="stroke:#000000; stroke-linecap:butt; stroke-linejoin:round; stroke-width:2; stroke-opacity:0.1; fill:none" points="
  2352.76,2174.14 2352.76,153.712 
  "/>
<polyline clip-path="url(#clip370)" style="stroke:#000000; stroke-linecap:butt; stroke-linejoin:round; stroke-width:4; stroke-opacity:1; fill:none" points="
  259.043,2174.14 2352.76,2174.14 
  "/>
<polyline clip-path="url(#clip370)" style="stroke:#000000; stroke-linecap:butt; stroke-linejoin:round; stroke-width:4; stroke-opacity:1; fill:none" points="
  259.043,2174.14 259.043,2155.24 
  "/>
<polyline clip-path="url(#clip370)" style="stroke:#000000; stroke-linecap:butt; stroke-linejoin:round; stroke-width:4; stroke-opacity:1; fill:none" points="
  677.785,2174.14 677.785,2155.24 
  "/>
<polyline clip-path="url(#clip370)" style="stroke:#000000; stroke-linecap:butt; stroke-linejoin:round; stroke-width:4; stroke-opacity:1; fill:none" points="
  1096.53,2174.14 1096.53,2155.24 
  "/>
<polyline clip-path="url(#clip370)" style="stroke:#000000; stroke-linecap:butt; stroke-linejoin:round; stroke-width:4; stroke-opacity:1; fill:none" points="
  1515.27,2174.14 1515.27,2155.24 
  "/>
<polyline clip-path="url(#clip370)" style="stroke:#000000; stroke-linecap:butt; stroke-linejoin:round; stroke-width:4; stroke-opacity:1; fill:none" points="
  1934.01,2174.14 1934.01,2155.24 
  "/>
<polyline clip-path="url(#clip370)" style="stroke:#000000; stroke-linecap:butt; stroke-linejoin:round; stroke-width:4; stroke-opacity:1; fill:none" points="
  2352.76,2174.14 2352.76,2155.24 
  "/>
<path clip-path="url(#clip370)" d="M259.043 2205.06 Q255.432 2205.06 253.603 2208.62 Q251.798 2212.16 251.798 2219.29 Q251.798 2226.4 253.603 2229.97 Q255.432 2233.51 259.043 2233.51 Q262.677 2233.51 264.483 2229.97 Q266.311 2226.4 266.311 2219.29 Q266.311 2212.16 264.483 2208.62 Q262.677 2205.06 259.043 2205.06 M259.043 2201.35 Q264.853 2201.35 267.909 2205.96 Q270.987 2210.54 270.987 2219.29 Q270.987 2228.02 267.909 2232.63 Q264.853 2237.21 259.043 2237.21 Q253.233 2237.21 250.154 2232.63 Q247.098 2228.02 247.098 2219.29 Q247.098 2210.54 250.154 2205.96 Q253.233 2201.35 259.043 2201.35 Z" fill="#000000" fill-rule="evenodd" fill-opacity="1" /><path clip-path="url(#clip370)" d="M622.311 2232.6 L629.95 2232.6 L629.95 2206.24 L621.64 2207.91 L621.64 2203.65 L629.904 2201.98 L634.58 2201.98 L634.58 2232.6 L642.219 2232.6 L642.219 2236.54 L622.311 2236.54 L622.311 2232.6 Z" fill="#000000" fill-rule="evenodd" fill-opacity="1" /><path clip-path="url(#clip370)" d="M661.663 2205.06 Q658.052 2205.06 656.223 2208.62 Q654.418 2212.16 654.418 2219.29 Q654.418 2226.4 656.223 2229.97 Q658.052 2233.51 661.663 2233.51 Q665.297 2233.51 667.103 2229.97 Q668.931 2226.4 668.931 2219.29 Q668.931 2212.16 667.103 2208.62 Q665.297 2205.06 661.663 2205.06 M661.663 2201.35 Q667.473 2201.35 670.529 2205.96 Q673.607 2210.54 673.607 2219.29 Q673.607 2228.02 670.529 2232.63 Q667.473 2237.21 661.663 2237.21 Q655.853 2237.21 652.774 2232.63 Q649.718 2228.02 649.718 2219.29 Q649.718 2210.54 652.774 2205.96 Q655.853 2201.35 661.663 2201.35 Z" fill="#000000" fill-rule="evenodd" fill-opacity="1" /><path clip-path="url(#clip370)" d="M691.825 2205.06 Q688.214 2205.06 686.385 2208.62 Q684.579 2212.16 684.579 2219.29 Q684.579 2226.4 686.385 2229.97 Q688.214 2233.51 691.825 2233.51 Q695.459 2233.51 697.265 2229.97 Q699.093 2226.4 699.093 2219.29 Q699.093 2212.16 697.265 2208.62 Q695.459 2205.06 691.825 2205.06 M691.825 2201.35 Q697.635 2201.35 700.69 2205.96 Q703.769 2210.54 703.769 2219.29 Q703.769 2228.02 700.69 2232.63 Q697.635 2237.21 691.825 2237.21 Q686.015 2237.21 682.936 2232.63 Q679.88 2228.02 679.88 2219.29 Q679.88 2210.54 682.936 2205.96 Q686.015 2201.35 691.825 2201.35 Z" fill="#000000" fill-rule="evenodd" fill-opacity="1" /><path clip-path="url(#clip370)" d="M721.987 2205.06 Q718.376 2205.06 716.547 2208.62 Q714.741 2212.16 714.741 2219.29 Q714.741 2226.4 716.547 2229.97 Q718.376 2233.51 721.987 2233.51 Q725.621 2233.51 727.426 2229.97 Q729.255 2226.4 729.255 2219.29 Q729.255 2212.16 727.426 2208.62 Q725.621 2205.06 721.987 2205.06 M721.987 2201.35 Q727.797 2201.35 730.852 2205.96 Q733.931 2210.54 733.931 2219.29 Q733.931 2228.02 730.852 2232.63 Q727.797 2237.21 721.987 2237.21 Q716.176 2237.21 713.098 2232.63 Q710.042 2228.02 710.042 2219.29 Q710.042 2210.54 713.098 2205.96 Q716.176 2201.35 721.987 2201.35 Z" fill="#000000" fill-rule="evenodd" fill-opacity="1" /><path clip-path="url(#clip370)" d="M1045.14 2232.6 L1061.46 2232.6 L1061.46 2236.54 L1039.51 2236.54 L1039.51 2232.6 Q1042.18 2229.85 1046.76 2225.22 Q1051.37 2220.57 1052.55 2219.23 Q1054.79 2216.7 1055.67 2214.97 Q1056.57 2213.21 1056.57 2211.52 Q1056.57 2208.76 1054.63 2207.03 Q1052.71 2205.29 1049.61 2205.29 Q1047.41 2205.29 1044.95 2206.05 Q1042.52 2206.82 1039.75 2208.37 L1039.75 2203.65 Q1042.57 2202.51 1045.02 2201.93 Q1047.48 2201.35 1049.51 2201.35 Q1054.88 2201.35 1058.08 2204.04 Q1061.27 2206.73 1061.27 2211.22 Q1061.27 2213.35 1060.46 2215.27 Q1059.68 2217.16 1057.57 2219.76 Q1056.99 2220.43 1053.89 2223.65 Q1050.79 2226.84 1045.14 2232.6 Z" fill="#000000" fill-rule="evenodd" fill-opacity="1" /><path clip-path="url(#clip370)" d="M1081.27 2205.06 Q1077.66 2205.06 1075.83 2208.62 Q1074.03 2212.16 1074.03 2219.29 Q1074.03 2226.4 1075.83 2229.97 Q1077.66 2233.51 1081.27 2233.51 Q1084.91 2233.51 1086.71 2229.97 Q1088.54 2226.4 1088.54 2219.29 Q1088.54 2212.16 1086.71 2208.62 Q1084.91 2205.06 1081.27 2205.06 M1081.27 2201.35 Q1087.08 2201.35 1090.14 2205.96 Q1093.22 2210.54 1093.22 2219.29 Q1093.22 2228.02 1090.14 2232.63 Q1087.08 2237.21 1081.27 2237.21 Q1075.46 2237.21 1072.38 2232.63 Q1069.33 2228.02 1069.33 2219.29 Q1069.33 2210.54 1072.38 2205.96 Q1075.46 2201.35 1081.27 2201.35 Z" fill="#000000" fill-rule="evenodd" fill-opacity="1" /><path clip-path="url(#clip370)" d="M1111.44 2205.06 Q1107.82 2205.06 1106 2208.62 Q1104.19 2212.16 1104.19 2219.29 Q1104.19 2226.4 1106 2229.97 Q1107.82 2233.51 1111.44 2233.51 Q1115.07 2233.51 1116.88 2229.97 Q1118.7 2226.4 1118.7 2219.29 Q1118.7 2212.16 1116.88 2208.62 Q1115.07 2205.06 1111.44 2205.06 M1111.44 2201.35 Q1117.25 2201.35 1120.3 2205.96 Q1123.38 2210.54 1123.38 2219.29 Q1123.38 2228.02 1120.3 2232.63 Q1117.25 2237.21 1111.44 2237.21 Q1105.63 2237.21 1102.55 2232.63 Q1099.49 2228.02 1099.49 2219.29 Q1099.49 2210.54 1102.55 2205.96 Q1105.63 2201.35 1111.44 2201.35 Z" fill="#000000" fill-rule="evenodd" fill-opacity="1" /><path clip-path="url(#clip370)" d="M1141.6 2205.06 Q1137.99 2205.06 1136.16 2208.62 Q1134.35 2212.16 1134.35 2219.29 Q1134.35 2226.4 1136.16 2229.97 Q1137.99 2233.51 1141.6 2233.51 Q1145.23 2233.51 1147.04 2229.97 Q1148.87 2226.4 1148.87 2219.29 Q1148.87 2212.16 1147.04 2208.62 Q1145.23 2205.06 1141.6 2205.06 M1141.6 2201.35 Q1147.41 2201.35 1150.46 2205.96 Q1153.54 2210.54 1153.54 2219.29 Q1153.54 2228.02 1150.46 2232.63 Q1147.41 2237.21 1141.6 2237.21 Q1135.79 2237.21 1132.71 2232.63 Q1129.65 2228.02 1129.65 2219.29 Q1129.65 2210.54 1132.71 2205.96 Q1135.79 2201.35 1141.6 2201.35 Z" fill="#000000" fill-rule="evenodd" fill-opacity="1" /><path clip-path="url(#clip370)" d="M1473.95 2217.91 Q1477.31 2218.62 1479.18 2220.89 Q1481.08 2223.16 1481.08 2226.49 Q1481.08 2231.61 1477.56 2234.41 Q1474.04 2237.21 1467.56 2237.21 Q1465.39 2237.21 1463.07 2236.77 Q1460.78 2236.35 1458.33 2235.5 L1458.33 2230.98 Q1460.27 2232.12 1462.59 2232.7 Q1464.9 2233.28 1467.42 2233.28 Q1471.82 2233.28 1474.11 2231.54 Q1476.43 2229.8 1476.43 2226.49 Q1476.43 2223.44 1474.28 2221.73 Q1472.15 2219.99 1468.33 2219.99 L1464.3 2219.99 L1464.3 2216.15 L1468.51 2216.15 Q1471.96 2216.15 1473.79 2214.78 Q1475.62 2213.39 1475.62 2210.8 Q1475.62 2208.14 1473.72 2206.73 Q1471.84 2205.29 1468.33 2205.29 Q1466.41 2205.29 1464.21 2205.71 Q1462.01 2206.12 1459.37 2207 L1459.37 2202.84 Q1462.03 2202.1 1464.35 2201.73 Q1466.68 2201.35 1468.74 2201.35 Q1474.07 2201.35 1477.17 2203.79 Q1480.27 2206.19 1480.27 2210.31 Q1480.27 2213.18 1478.63 2215.17 Q1476.98 2217.14 1473.95 2217.91 Z" fill="#000000" fill-rule="evenodd" fill-opacity="1" /><path clip-path="url(#clip370)" d="M1499.95 2205.06 Q1496.34 2205.06 1494.51 2208.62 Q1492.7 2212.16 1492.7 2219.29 Q1492.7 2226.4 1494.51 2229.97 Q1496.34 2233.51 1499.95 2233.51 Q1503.58 2233.51 1505.39 2229.97 Q1507.22 2226.4 1507.22 2219.29 Q1507.22 2212.16 1505.39 2208.62 Q1503.58 2205.06 1499.95 2205.06 M1499.95 2201.35 Q1505.76 2201.35 1508.81 2205.96 Q1511.89 2210.54 1511.89 2219.29 Q1511.89 2228.02 1508.81 2232.63 Q1505.76 2237.21 1499.95 2237.21 Q1494.14 2237.21 1491.06 2232.63 Q1488 2228.02 1488 2219.29 Q1488 2210.54 1491.06 2205.96 Q1494.14 2201.35 1499.95 2201.35 Z" fill="#000000" fill-rule="evenodd" fill-opacity="1" /><path clip-path="url(#clip370)" d="M1530.11 2205.06 Q1526.5 2205.06 1524.67 2208.62 Q1522.86 2212.16 1522.86 2219.29 Q1522.86 2226.4 1524.67 2229.97 Q1526.5 2233.51 1530.11 2233.51 Q1533.74 2233.51 1535.55 2229.97 Q1537.38 2226.4 1537.38 2219.29 Q1537.38 2212.16 1535.55 2208.62 Q1533.74 2205.06 1530.11 2205.06 M1530.11 2201.35 Q1535.92 2201.35 1538.97 2205.96 Q1542.05 2210.54 1542.05 2219.29 Q1542.05 2228.02 1538.97 2232.63 Q1535.92 2237.21 1530.11 2237.21 Q1524.3 2237.21 1521.22 2232.63 Q1518.16 2228.02 1518.16 2219.29 Q1518.16 2210.54 1521.22 2205.96 Q1524.3 2201.35 1530.11 2201.35 Z" fill="#000000" fill-rule="evenodd" fill-opacity="1" /><path clip-path="url(#clip370)" d="M1560.27 2205.06 Q1556.66 2205.06 1554.83 2208.62 Q1553.03 2212.16 1553.03 2219.29 Q1553.03 2226.4 1554.83 2229.97 Q1556.66 2233.51 1560.27 2233.51 Q1563.9 2233.51 1565.71 2229.97 Q1567.54 2226.4 1567.54 2219.29 Q1567.54 2212.16 1565.71 2208.62 Q1563.9 2205.06 1560.27 2205.06 M1560.27 2201.35 Q1566.08 2201.35 1569.14 2205.96 Q1572.21 2210.54 1572.21 2219.29 Q1572.21 2228.02 1569.14 2232.63 Q1566.08 2237.21 1560.27 2237.21 Q1554.46 2237.21 1551.38 2232.63 Q1548.33 2228.02 1548.33 2219.29 Q1548.33 2210.54 1551.38 2205.96 Q1554.46 2201.35 1560.27 2201.35 Z" fill="#000000" fill-rule="evenodd" fill-opacity="1" /><path clip-path="url(#clip370)" d="M1892.02 2206.05 L1880.22 2224.5 L1892.02 2224.5 L1892.02 2206.05 M1890.8 2201.98 L1896.68 2201.98 L1896.68 2224.5 L1901.61 2224.5 L1901.61 2228.39 L1896.68 2228.39 L1896.68 2236.54 L1892.02 2236.54 L1892.02 2228.39 L1876.42 2228.39 L1876.42 2223.88 L1890.8 2201.98 Z" fill="#000000" fill-rule="evenodd" fill-opacity="1" /><path clip-path="url(#clip370)" d="M1919.34 2205.06 Q1915.73 2205.06 1913.9 2208.62 Q1912.09 2212.16 1912.09 2219.29 Q1912.09 2226.4 1913.9 2229.97 Q1915.73 2233.51 1919.34 2233.51 Q1922.97 2233.51 1924.78 2229.97 Q1926.61 2226.4 1926.61 2219.29 Q1926.61 2212.16 1924.78 2208.62 Q1922.97 2205.06 1919.34 2205.06 M1919.34 2201.35 Q1925.15 2201.35 1928.2 2205.96 Q1931.28 2210.54 1931.28 2219.29 Q1931.28 2228.02 1928.2 2232.63 Q1925.15 2237.21 1919.34 2237.21 Q1913.53 2237.21 1910.45 2232.63 Q1907.39 2228.02 1907.39 2219.29 Q1907.39 2210.54 1910.45 2205.96 Q1913.53 2201.35 1919.34 2201.35 Z" fill="#000000" fill-rule="evenodd" fill-opacity="1" /><path clip-path="url(#clip370)" d="M1949.5 2205.06 Q1945.89 2205.06 1944.06 2208.62 Q1942.25 2212.16 1942.25 2219.29 Q1942.25 2226.4 1944.06 2229.97 Q1945.89 2233.51 1949.5 2233.51 Q1953.13 2233.51 1954.94 2229.97 Q1956.77 2226.4 1956.77 2219.29 Q1956.77 2212.16 1954.94 2208.62 Q1953.13 2205.06 1949.5 2205.06 M1949.5 2201.35 Q1955.31 2201.35 1958.37 2205.96 Q1961.44 2210.54 1961.44 2219.29 Q1961.44 2228.02 1958.37 2232.63 Q1955.31 2237.21 1949.5 2237.21 Q1943.69 2237.21 1940.61 2232.63 Q1937.55 2228.02 1937.55 2219.29 Q1937.55 2210.54 1940.61 2205.96 Q1943.69 2201.35 1949.5 2201.35 Z" fill="#000000" fill-rule="evenodd" fill-opacity="1" /><path clip-path="url(#clip370)" d="M1979.66 2205.06 Q1976.05 2205.06 1974.22 2208.62 Q1972.42 2212.16 1972.42 2219.29 Q1972.42 2226.4 1974.22 2229.97 Q1976.05 2233.51 1979.66 2233.51 Q1983.3 2233.51 1985.1 2229.97 Q1986.93 2226.4 1986.93 2219.29 Q1986.93 2212.16 1985.1 2208.62 Q1983.3 2205.06 1979.66 2205.06 M1979.66 2201.35 Q1985.47 2201.35 1988.53 2205.96 Q1991.61 2210.54 1991.61 2219.29 Q1991.61 2228.02 1988.53 2232.63 Q1985.47 2237.21 1979.66 2237.21 Q1973.85 2237.21 1970.77 2232.63 Q1967.72 2228.02 1967.72 2219.29 Q1967.72 2210.54 1970.77 2205.96 Q1973.85 2201.35 1979.66 2201.35 Z" fill="#000000" fill-rule="evenodd" fill-opacity="1" /><path clip-path="url(#clip370)" d="M2297.29 2201.98 L2315.65 2201.98 L2315.65 2205.92 L2301.58 2205.92 L2301.58 2214.39 Q2302.59 2214.04 2303.61 2213.88 Q2304.63 2213.69 2305.65 2213.69 Q2311.44 2213.69 2314.82 2216.86 Q2318.2 2220.04 2318.2 2225.45 Q2318.2 2231.03 2314.72 2234.13 Q2311.25 2237.21 2304.93 2237.21 Q2302.76 2237.21 2300.49 2236.84 Q2298.24 2236.47 2295.83 2235.73 L2295.83 2231.03 Q2297.92 2232.16 2300.14 2232.72 Q2302.36 2233.28 2304.84 2233.28 Q2308.84 2233.28 2311.18 2231.17 Q2313.52 2229.06 2313.52 2225.45 Q2313.52 2221.84 2311.18 2219.73 Q2308.84 2217.63 2304.84 2217.63 Q2302.96 2217.63 2301.09 2218.04 Q2299.24 2218.46 2297.29 2219.34 L2297.29 2201.98 Z" fill="#000000" fill-rule="evenodd" fill-opacity="1" /><path clip-path="url(#clip370)" d="M2337.41 2205.06 Q2333.8 2205.06 2331.97 2208.62 Q2330.16 2212.16 2330.16 2219.29 Q2330.16 2226.4 2331.97 2229.97 Q2333.8 2233.51 2337.41 2233.51 Q2341.04 2233.51 2342.85 2229.97 Q2344.68 2226.4 2344.68 2219.29 Q2344.68 2212.16 2342.85 2208.62 Q2341.04 2205.06 2337.41 2205.06 M2337.41 2201.35 Q2343.22 2201.35 2346.27 2205.96 Q2349.35 2210.54 2349.35 2219.29 Q2349.35 2228.02 2346.27 2232.63 Q2343.22 2237.21 2337.41 2237.21 Q2331.6 2237.21 2328.52 2232.63 Q2325.46 2228.02 2325.46 2219.29 Q2325.46 2210.54 2328.52 2205.96 Q2331.6 2201.35 2337.41 2201.35 Z" fill="#000000" fill-rule="evenodd" fill-opacity="1" /><path clip-path="url(#clip370)" d="M2367.57 2205.06 Q2363.96 2205.06 2362.13 2208.62 Q2360.33 2212.16 2360.33 2219.29 Q2360.33 2226.4 2362.13 2229.97 Q2363.96 2233.51 2367.57 2233.51 Q2371.2 2233.51 2373.01 2229.97 Q2374.84 2226.4 2374.84 2219.29 Q2374.84 2212.16 2373.01 2208.62 Q2371.2 2205.06 2367.57 2205.06 M2367.57 2201.35 Q2373.38 2201.35 2376.44 2205.96 Q2379.52 2210.54 2379.52 2219.29 Q2379.52 2228.02 2376.44 2232.63 Q2373.38 2237.21 2367.57 2237.21 Q2361.76 2237.21 2358.68 2232.63 Q2355.63 2228.02 2355.63 2219.29 Q2355.63 2210.54 2358.68 2205.96 Q2361.76 2201.35 2367.57 2201.35 Z" fill="#000000" fill-rule="evenodd" fill-opacity="1" /><path clip-path="url(#clip370)" d="M2397.73 2205.06 Q2394.12 2205.06 2392.29 2208.62 Q2390.49 2212.16 2390.49 2219.29 Q2390.49 2226.4 2392.29 2229.97 Q2394.12 2233.51 2397.73 2233.51 Q2401.37 2233.51 2403.17 2229.97 Q2405 2226.4 2405 2219.29 Q2405 2212.16 2403.17 2208.62 Q2401.37 2205.06 2397.73 2205.06 M2397.73 2201.35 Q2403.54 2201.35 2406.6 2205.96 Q2409.68 2210.54 2409.68 2219.29 Q2409.68 2228.02 2406.6 2232.63 Q2403.54 2237.21 2397.73 2237.21 Q2391.92 2237.21 2388.84 2232.63 Q2385.79 2228.02 2385.79 2219.29 Q2385.79 2210.54 2388.84 2205.96 Q2391.92 2201.35 2397.73 2201.35 Z" fill="#000000" fill-rule="evenodd" fill-opacity="1" /><path clip-path="url(#clip370)" d="M1177.39 2273.04 L1177.39 2279.31 Q1173.73 2277.56 1170.48 2276.7 Q1167.24 2275.84 1164.21 2275.84 Q1158.96 2275.84 1156.1 2277.88 Q1153.27 2279.92 1153.27 2283.67 Q1153.27 2286.83 1155.14 2288.45 Q1157.05 2290.04 1162.34 2291.03 L1166.22 2291.82 Q1173.41 2293.19 1176.82 2296.66 Q1180.26 2300.1 1180.26 2305.89 Q1180.26 2312.8 1175.61 2316.36 Q1170.99 2319.93 1162.05 2319.93 Q1158.68 2319.93 1154.86 2319.16 Q1151.07 2318.4 1147 2316.9 L1147 2310.28 Q1150.91 2312.48 1154.67 2313.59 Q1158.42 2314.71 1162.05 2314.71 Q1167.56 2314.71 1170.55 2312.54 Q1173.54 2310.38 1173.54 2306.37 Q1173.54 2302.87 1171.38 2300.89 Q1169.24 2298.92 1164.34 2297.93 L1160.43 2297.17 Q1153.23 2295.74 1150.02 2292.68 Q1146.8 2289.63 1146.8 2284.18 Q1146.8 2277.88 1151.23 2274.25 Q1155.68 2270.62 1163.48 2270.62 Q1166.82 2270.62 1170.29 2271.23 Q1173.76 2271.83 1177.39 2273.04 Z" fill="#000000" fill-rule="evenodd" fill-opacity="1" /><path clip-path="url(#clip370)" d="M1190.03 2283.36 L1195.88 2283.36 L1195.88 2319 L1190.03 2319 L1190.03 2283.36 M1190.03 2269.48 L1195.88 2269.48 L1195.88 2276.89 L1190.03 2276.89 L1190.03 2269.48 Z" fill="#000000" fill-rule="evenodd" fill-opacity="1" /><path clip-path="url(#clip370)" d="M1205.59 2283.36 L1233.41 2283.36 L1233.41 2288.7 L1211.38 2314.33 L1233.41 2314.33 L1233.41 2319 L1204.8 2319 L1204.8 2313.66 L1226.82 2288.03 L1205.59 2288.03 L1205.59 2283.36 Z" fill="#000000" fill-rule="evenodd" fill-opacity="1" /><path clip-path="url(#clip370)" d="M1272.85 2299.72 L1272.85 2302.58 L1245.92 2302.58 Q1246.3 2308.63 1249.55 2311.81 Q1252.83 2314.96 1258.65 2314.96 Q1262.02 2314.96 1265.17 2314.13 Q1268.36 2313.31 1271.48 2311.65 L1271.48 2317.19 Q1268.33 2318.53 1265.02 2319.23 Q1261.71 2319.93 1258.3 2319.93 Q1249.77 2319.93 1244.77 2314.96 Q1239.81 2310 1239.81 2301.53 Q1239.81 2292.78 1244.52 2287.65 Q1249.26 2282.5 1257.28 2282.5 Q1264.47 2282.5 1268.64 2287.14 Q1272.85 2291.76 1272.85 2299.72 M1266.99 2298 Q1266.93 2293.19 1264.28 2290.33 Q1261.67 2287.46 1257.34 2287.46 Q1252.44 2287.46 1249.48 2290.23 Q1246.56 2293 1246.11 2298.03 L1266.99 2298 Z" fill="#000000" fill-rule="evenodd" fill-opacity="1" /><path clip-path="url(#clip370)" d="M1317.25 2269.54 Q1312.98 2276.86 1310.91 2284.02 Q1308.84 2291.19 1308.84 2298.54 Q1308.84 2305.89 1310.91 2313.12 Q1313.01 2320.31 1317.25 2327.6 L1312.15 2327.6 Q1307.38 2320.12 1304.99 2312.89 Q1302.64 2305.67 1302.64 2298.54 Q1302.64 2291.44 1304.99 2284.25 Q1307.35 2277.05 1312.15 2269.54 L1317.25 2269.54 Z" fill="#000000" fill-rule="evenodd" fill-opacity="1" /><path clip-path="url(#clip370)" d="M1351.33 2284.41 L1351.33 2289.94 Q1348.85 2288.67 1346.18 2288.03 Q1343.5 2287.4 1340.64 2287.4 Q1336.28 2287.4 1334.08 2288.73 Q1331.92 2290.07 1331.92 2292.75 Q1331.92 2294.78 1333.48 2295.96 Q1335.04 2297.11 1339.75 2298.16 L1341.75 2298.6 Q1347.99 2299.94 1350.6 2302.39 Q1353.24 2304.81 1353.24 2309.17 Q1353.24 2314.13 1349.3 2317.03 Q1345.38 2319.93 1338.51 2319.93 Q1335.64 2319.93 1332.52 2319.35 Q1329.44 2318.81 1326 2317.7 L1326 2311.65 Q1329.25 2313.34 1332.4 2314.2 Q1335.55 2315.03 1338.64 2315.03 Q1342.77 2315.03 1345 2313.62 Q1347.23 2312.19 1347.23 2309.61 Q1347.23 2307.23 1345.61 2305.95 Q1344.01 2304.68 1338.57 2303.5 L1336.53 2303.03 Q1331.09 2301.88 1328.67 2299.52 Q1326.25 2297.14 1326.25 2293 Q1326.25 2287.97 1329.82 2285.23 Q1333.38 2282.5 1339.94 2282.5 Q1343.19 2282.5 1346.05 2282.97 Q1348.92 2283.45 1351.33 2284.41 Z" fill="#000000" fill-rule="evenodd" fill-opacity="1" /><path clip-path="url(#clip370)" d="M1366.07 2301.21 Q1366.07 2307.67 1368.71 2311.36 Q1371.39 2315.03 1376.03 2315.03 Q1380.68 2315.03 1383.35 2311.36 Q1386.03 2307.67 1386.03 2301.21 Q1386.03 2294.75 1383.35 2291.09 Q1380.68 2287.4 1376.03 2287.4 Q1371.39 2287.4 1368.71 2291.09 Q1366.07 2294.75 1366.07 2301.21 M1386.03 2313.66 Q1384.18 2316.84 1381.35 2318.4 Q1378.55 2319.93 1374.6 2319.93 Q1368.14 2319.93 1364.07 2314.77 Q1360.02 2309.61 1360.02 2301.21 Q1360.02 2292.81 1364.07 2287.65 Q1368.14 2282.5 1374.6 2282.5 Q1378.55 2282.5 1381.35 2284.06 Q1384.18 2285.58 1386.03 2288.77 L1386.03 2283.36 L1391.88 2283.36 L1391.88 2332.56 L1386.03 2332.56 L1386.03 2313.66 Z" fill="#000000" fill-rule="evenodd" fill-opacity="1" /><path clip-path="url(#clip370)" d="M1421.99 2269.48 L1421.99 2274.35 L1416.39 2274.35 Q1413.24 2274.35 1412 2275.62 Q1410.79 2276.89 1410.79 2280.2 L1410.79 2283.36 L1420.43 2283.36 L1420.43 2287.91 L1410.79 2287.91 L1410.79 2319 L1404.9 2319 L1404.9 2287.91 L1399.3 2287.91 L1399.3 2283.36 L1404.9 2283.36 L1404.9 2280.87 Q1404.9 2274.92 1407.67 2272.22 Q1410.44 2269.48 1416.46 2269.48 L1421.99 2269.48 Z" fill="#000000" fill-rule="evenodd" fill-opacity="1" /><path clip-path="url(#clip370)" d="M1431.54 2273.23 L1431.54 2283.36 L1443.61 2283.36 L1443.61 2287.91 L1431.54 2287.91 L1431.54 2307.26 Q1431.54 2311.62 1432.72 2312.86 Q1433.93 2314.1 1437.59 2314.1 L1443.61 2314.1 L1443.61 2319 L1437.59 2319 Q1430.81 2319 1428.23 2316.49 Q1425.65 2313.94 1425.65 2307.26 L1425.65 2287.91 L1421.36 2287.91 L1421.36 2283.36 L1425.65 2283.36 L1425.65 2273.23 L1431.54 2273.23 Z" fill="#000000" fill-rule="evenodd" fill-opacity="1" /><path clip-path="url(#clip370)" d="M1450.39 2269.54 L1455.48 2269.54 Q1460.25 2277.05 1462.61 2284.25 Q1464.99 2291.44 1464.99 2298.54 Q1464.99 2305.67 1462.61 2312.89 Q1460.25 2320.12 1455.48 2327.6 L1450.39 2327.6 Q1454.62 2320.31 1456.69 2313.12 Q1458.79 2305.89 1458.79 2298.54 Q1458.79 2291.19 1456.69 2284.02 Q1454.62 2276.86 1450.39 2269.54 Z" fill="#000000" fill-rule="evenodd" fill-opacity="1" /><polyline clip-path="url(#clip372)" style="stroke:#000000; stroke-linecap:butt; stroke-linejoin:round; stroke-width:2; stroke-opacity:0.1; fill:none" points="
  259.043,2174.14 2352.76,2174.14 
  "/>
<polyline clip-path="url(#clip372)" style="stroke:#000000; stroke-linecap:butt; stroke-linejoin:round; stroke-width:2; stroke-opacity:0.1; fill:none" points="
  259.043,1669.03 2352.76,1669.03 
  "/>
<polyline clip-path="url(#clip372)" style="stroke:#000000; stroke-linecap:butt; stroke-linejoin:round; stroke-width:2; stroke-opacity:0.1; fill:none" points="
  259.043,1163.93 2352.76,1163.93 
  "/>
<polyline clip-path="url(#clip372)" style="stroke:#000000; stroke-linecap:butt; stroke-linejoin:round; stroke-width:2; stroke-opacity:0.1; fill:none" points="
  259.043,658.819 2352.76,658.819 
  "/>
<polyline clip-path="url(#clip372)" style="stroke:#000000; stroke-linecap:butt; stroke-linejoin:round; stroke-width:2; stroke-opacity:0.1; fill:none" points="
  259.043,153.712 2352.76,153.712 
  "/>
<polyline clip-path="url(#clip370)" style="stroke:#000000; stroke-linecap:butt; stroke-linejoin:round; stroke-width:4; stroke-opacity:1; fill:none" points="
  259.043,2174.14 259.043,153.712 
  "/>
<polyline clip-path="url(#clip370)" style="stroke:#000000; stroke-linecap:butt; stroke-linejoin:round; stroke-width:4; stroke-opacity:1; fill:none" points="
  259.043,2174.14 277.94,2174.14 
  "/>
<polyline clip-path="url(#clip370)" style="stroke:#000000; stroke-linecap:butt; stroke-linejoin:round; stroke-width:4; stroke-opacity:1; fill:none" points="
  259.043,1669.03 277.94,1669.03 
  "/>
<polyline clip-path="url(#clip370)" style="stroke:#000000; stroke-linecap:butt; stroke-linejoin:round; stroke-width:4; stroke-opacity:1; fill:none" points="
  259.043,1163.93 277.94,1163.93 
  "/>
<polyline clip-path="url(#clip370)" style="stroke:#000000; stroke-linecap:butt; stroke-linejoin:round; stroke-width:4; stroke-opacity:1; fill:none" points="
  259.043,658.819 277.94,658.819 
  "/>
<polyline clip-path="url(#clip370)" style="stroke:#000000; stroke-linecap:butt; stroke-linejoin:round; stroke-width:4; stroke-opacity:1; fill:none" points="
  259.043,153.712 277.94,153.712 
  "/>
<path clip-path="url(#clip370)" d="M211.098 2159.94 Q207.487 2159.94 205.659 2163.5 Q203.853 2167.04 203.853 2174.17 Q203.853 2181.28 205.659 2184.85 Q207.487 2188.39 211.098 2188.39 Q214.733 2188.39 216.538 2184.85 Q218.367 2181.28 218.367 2174.17 Q218.367 2167.04 216.538 2163.5 Q214.733 2159.94 211.098 2159.94 M211.098 2156.23 Q216.909 2156.23 219.964 2160.84 Q223.043 2165.42 223.043 2174.17 Q223.043 2182.9 219.964 2187.51 Q216.909 2192.09 211.098 2192.09 Q205.288 2192.09 202.21 2187.51 Q199.154 2182.9 199.154 2174.17 Q199.154 2165.42 202.21 2160.84 Q205.288 2156.23 211.098 2156.23 Z" fill="#000000" fill-rule="evenodd" fill-opacity="1" /><path clip-path="url(#clip370)" d="M144.803 1682.38 L161.122 1682.38 L161.122 1686.31 L139.178 1686.31 L139.178 1682.38 Q141.84 1679.62 146.423 1674.99 Q151.029 1670.34 152.21 1669 Q154.455 1666.48 155.335 1664.74 Q156.238 1662.98 156.238 1661.29 Q156.238 1658.54 154.293 1656.8 Q152.372 1655.06 149.27 1655.06 Q147.071 1655.06 144.617 1655.83 Q142.187 1656.59 139.409 1658.14 L139.409 1653.42 Q142.233 1652.29 144.687 1651.71 Q147.14 1651.13 149.178 1651.13 Q154.548 1651.13 157.742 1653.81 Q160.937 1656.5 160.937 1660.99 Q160.937 1663.12 160.127 1665.04 Q159.339 1666.94 157.233 1669.53 Q156.654 1670.2 153.552 1673.42 Q150.451 1676.61 144.803 1682.38 Z" fill="#000000" fill-rule="evenodd" fill-opacity="1" /><path clip-path="url(#clip370)" d="M180.937 1654.83 Q177.326 1654.83 175.497 1658.4 Q173.691 1661.94 173.691 1669.07 Q173.691 1676.17 175.497 1679.74 Q177.326 1683.28 180.937 1683.28 Q184.571 1683.28 186.376 1679.74 Q188.205 1676.17 188.205 1669.07 Q188.205 1661.94 186.376 1658.4 Q184.571 1654.83 180.937 1654.83 M180.937 1651.13 Q186.747 1651.13 189.802 1655.73 Q192.881 1660.32 192.881 1669.07 Q192.881 1677.79 189.802 1682.4 Q186.747 1686.98 180.937 1686.98 Q175.126 1686.98 172.048 1682.4 Q168.992 1677.79 168.992 1669.07 Q168.992 1660.32 172.048 1655.73 Q175.126 1651.13 180.937 1651.13 Z" fill="#000000" fill-rule="evenodd" fill-opacity="1" /><path clip-path="url(#clip370)" d="M211.098 1654.83 Q207.487 1654.83 205.659 1658.4 Q203.853 1661.94 203.853 1669.07 Q203.853 1676.17 205.659 1679.74 Q207.487 1683.28 211.098 1683.28 Q214.733 1683.28 216.538 1679.74 Q218.367 1676.17 218.367 1669.07 Q218.367 1661.94 216.538 1658.4 Q214.733 1654.83 211.098 1654.83 M211.098 1651.13 Q216.909 1651.13 219.964 1655.73 Q223.043 1660.32 223.043 1669.07 Q223.043 1677.79 219.964 1682.4 Q216.909 1686.98 211.098 1686.98 Q205.288 1686.98 202.21 1682.4 Q199.154 1677.79 199.154 1669.07 Q199.154 1660.32 202.21 1655.73 Q205.288 1651.13 211.098 1651.13 Z" fill="#000000" fill-rule="evenodd" fill-opacity="1" /><path clip-path="url(#clip370)" d="M153.622 1150.72 L141.816 1169.17 L153.622 1169.17 L153.622 1150.72 M152.395 1146.65 L158.275 1146.65 L158.275 1169.17 L163.205 1169.17 L163.205 1173.06 L158.275 1173.06 L158.275 1181.21 L153.622 1181.21 L153.622 1173.06 L138.02 1173.06 L138.02 1168.54 L152.395 1146.65 Z" fill="#000000" fill-rule="evenodd" fill-opacity="1" /><path clip-path="url(#clip370)" d="M180.937 1149.72 Q177.326 1149.72 175.497 1153.29 Q173.691 1156.83 173.691 1163.96 Q173.691 1171.07 175.497 1174.63 Q177.326 1178.17 180.937 1178.17 Q184.571 1178.17 186.376 1174.63 Q188.205 1171.07 188.205 1163.96 Q188.205 1156.83 186.376 1153.29 Q184.571 1149.72 180.937 1149.72 M180.937 1146.02 Q186.747 1146.02 189.802 1150.63 Q192.881 1155.21 192.881 1163.96 Q192.881 1172.69 189.802 1177.29 Q186.747 1181.88 180.937 1181.88 Q175.126 1181.88 172.048 1177.29 Q168.992 1172.69 168.992 1163.96 Q168.992 1155.21 172.048 1150.63 Q175.126 1146.02 180.937 1146.02 Z" fill="#000000" fill-rule="evenodd" fill-opacity="1" /><path clip-path="url(#clip370)" d="M211.098 1149.72 Q207.487 1149.72 205.659 1153.29 Q203.853 1156.83 203.853 1163.96 Q203.853 1171.07 205.659 1174.63 Q207.487 1178.17 211.098 1178.17 Q214.733 1178.17 216.538 1174.63 Q218.367 1171.07 218.367 1163.96 Q218.367 1156.83 216.538 1153.29 Q214.733 1149.72 211.098 1149.72 M211.098 1146.02 Q216.909 1146.02 219.964 1150.63 Q223.043 1155.21 223.043 1163.96 Q223.043 1172.69 219.964 1177.29 Q216.909 1181.88 211.098 1181.88 Q205.288 1181.88 202.21 1177.29 Q199.154 1172.69 199.154 1163.96 Q199.154 1155.21 202.21 1150.63 Q205.288 1146.02 211.098 1146.02 Z" fill="#000000" fill-rule="evenodd" fill-opacity="1" /><path clip-path="url(#clip370)" d="M151.353 656.956 Q148.205 656.956 146.353 659.108 Q144.525 661.261 144.525 665.011 Q144.525 668.738 146.353 670.914 Q148.205 673.067 151.353 673.067 Q154.502 673.067 156.33 670.914 Q158.182 668.738 158.182 665.011 Q158.182 661.261 156.33 659.108 Q154.502 656.956 151.353 656.956 M160.636 642.303 L160.636 646.562 Q158.877 645.729 157.071 645.289 Q155.289 644.849 153.529 644.849 Q148.9 644.849 146.446 647.974 Q144.015 651.099 143.668 657.419 Q145.034 655.405 147.094 654.34 Q149.154 653.252 151.631 653.252 Q156.84 653.252 159.849 656.423 Q162.881 659.571 162.881 665.011 Q162.881 670.335 159.733 673.553 Q156.585 676.77 151.353 676.77 Q145.358 676.77 142.187 672.187 Q139.016 667.581 139.016 658.854 Q139.016 650.659 142.904 645.798 Q146.793 640.914 153.344 640.914 Q155.103 640.914 156.886 641.261 Q158.691 641.608 160.636 642.303 Z" fill="#000000" fill-rule="evenodd" fill-opacity="1" /><path clip-path="url(#clip370)" d="M180.937 644.618 Q177.326 644.618 175.497 648.183 Q173.691 651.724 173.691 658.854 Q173.691 665.96 175.497 669.525 Q177.326 673.067 180.937 673.067 Q184.571 673.067 186.376 669.525 Q188.205 665.96 188.205 658.854 Q188.205 651.724 186.376 648.183 Q184.571 644.618 180.937 644.618 M180.937 640.914 Q186.747 640.914 189.802 645.521 Q192.881 650.104 192.881 658.854 Q192.881 667.581 189.802 672.187 Q186.747 676.77 180.937 676.77 Q175.126 676.77 172.048 672.187 Q168.992 667.581 168.992 658.854 Q168.992 650.104 172.048 645.521 Q175.126 640.914 180.937 640.914 Z" fill="#000000" fill-rule="evenodd" fill-opacity="1" /><path clip-path="url(#clip370)" d="M211.098 644.618 Q207.487 644.618 205.659 648.183 Q203.853 651.724 203.853 658.854 Q203.853 665.96 205.659 669.525 Q207.487 673.067 211.098 673.067 Q214.733 673.067 216.538 669.525 Q218.367 665.96 218.367 658.854 Q218.367 651.724 216.538 648.183 Q214.733 644.618 211.098 644.618 M211.098 640.914 Q216.909 640.914 219.964 645.521 Q223.043 650.104 223.043 658.854 Q223.043 667.581 219.964 672.187 Q216.909 676.77 211.098 676.77 Q205.288 676.77 202.21 672.187 Q199.154 667.581 199.154 658.854 Q199.154 650.104 202.21 645.521 Q205.288 640.914 211.098 640.914 Z" fill="#000000" fill-rule="evenodd" fill-opacity="1" /><path clip-path="url(#clip370)" d="M150.775 154.58 Q147.441 154.58 145.52 156.363 Q143.622 158.145 143.622 161.27 Q143.622 164.395 145.52 166.177 Q147.441 167.96 150.775 167.96 Q154.108 167.96 156.029 166.177 Q157.951 164.372 157.951 161.27 Q157.951 158.145 156.029 156.363 Q154.131 154.58 150.775 154.58 M146.099 152.589 Q143.09 151.849 141.4 149.789 Q139.733 147.728 139.733 144.765 Q139.733 140.622 142.673 138.215 Q145.636 135.807 150.775 135.807 Q155.937 135.807 158.877 138.215 Q161.816 140.622 161.816 144.765 Q161.816 147.728 160.127 149.789 Q158.46 151.849 155.474 152.589 Q158.853 153.376 160.728 155.668 Q162.627 157.96 162.627 161.27 Q162.627 166.293 159.548 168.978 Q156.492 171.663 150.775 171.663 Q145.057 171.663 141.978 168.978 Q138.923 166.293 138.923 161.27 Q138.923 157.96 140.821 155.668 Q142.719 153.376 146.099 152.589 M144.386 145.205 Q144.386 147.89 146.053 149.395 Q147.742 150.9 150.775 150.9 Q153.784 150.9 155.474 149.395 Q157.187 147.89 157.187 145.205 Q157.187 142.52 155.474 141.015 Q153.784 139.511 150.775 139.511 Q147.742 139.511 146.053 141.015 Q144.386 142.52 144.386 145.205 Z" fill="#000000" fill-rule="evenodd" fill-opacity="1" /><path clip-path="url(#clip370)" d="M180.937 139.511 Q177.326 139.511 175.497 143.076 Q173.691 146.617 173.691 153.747 Q173.691 160.853 175.497 164.418 Q177.326 167.96 180.937 167.96 Q184.571 167.96 186.376 164.418 Q188.205 160.853 188.205 153.747 Q188.205 146.617 186.376 143.076 Q184.571 139.511 180.937 139.511 M180.937 135.807 Q186.747 135.807 189.802 140.414 Q192.881 144.997 192.881 153.747 Q192.881 162.474 189.802 167.08 Q186.747 171.663 180.937 171.663 Q175.126 171.663 172.048 167.08 Q168.992 162.474 168.992 153.747 Q168.992 144.997 172.048 140.414 Q175.126 135.807 180.937 135.807 Z" fill="#000000" fill-rule="evenodd" fill-opacity="1" /><path clip-path="url(#clip370)" d="M211.098 139.511 Q207.487 139.511 205.659 143.076 Q203.853 146.617 203.853 153.747 Q203.853 160.853 205.659 164.418 Q207.487 167.96 211.098 167.96 Q214.733 167.96 216.538 164.418 Q218.367 160.853 218.367 153.747 Q218.367 146.617 216.538 143.076 Q214.733 139.511 211.098 139.511 M211.098 135.807 Q216.909 135.807 219.964 140.414 Q223.043 144.997 223.043 153.747 Q223.043 162.474 219.964 167.08 Q216.909 171.663 211.098 171.663 Q205.288 171.663 202.21 167.08 Q199.154 162.474 199.154 153.747 Q199.154 144.997 202.21 140.414 Q205.288 135.807 211.098 135.807 Z" fill="#000000" fill-rule="evenodd" fill-opacity="1" /><path clip-path="url(#clip370)" d="M45.5277 1637.41 L63.3835 1637.41 L63.3835 1629.32 Q63.3835 1624.83 61.06 1622.38 Q58.7365 1619.93 54.4397 1619.93 Q50.1747 1619.93 47.8512 1622.38 Q45.5277 1624.83 45.5277 1629.32 L45.5277 1637.41 M40.2442 1643.84 L40.2442 1629.32 Q40.2442 1621.33 43.8726 1617.26 Q47.4692 1613.15 54.4397 1613.15 Q61.4738 1613.15 65.0704 1617.26 Q68.667 1621.33 68.667 1629.32 L68.667 1637.41 L87.7642 1637.41 L87.7642 1643.84 L40.2442 1643.84 Z" fill="#000000" fill-rule="evenodd" fill-opacity="1" /><path clip-path="url(#clip370)" d="M57.5907 1585.27 Q57.0178 1586.26 56.7632 1587.44 Q56.4767 1588.58 56.4767 1589.98 Q56.4767 1594.95 59.7232 1597.62 Q62.9379 1600.26 68.9853 1600.26 L87.7642 1600.26 L87.7642 1606.15 L52.1162 1606.15 L52.1162 1600.26 L57.6544 1600.26 Q54.4079 1598.42 52.8483 1595.46 Q51.2568 1592.5 51.2568 1588.26 Q51.2568 1587.66 51.3523 1586.93 Q51.416 1586.2 51.5751 1585.3 L57.5907 1585.27 Z" fill="#000000" fill-rule="evenodd" fill-opacity="1" /><path clip-path="url(#clip370)" d="M52.1162 1579.13 L52.1162 1573.27 L87.7642 1573.27 L87.7642 1579.13 L52.1162 1579.13 M38.239 1579.13 L38.239 1573.27 L45.655 1573.27 L45.655 1579.13 L38.239 1579.13 Z" fill="#000000" fill-rule="evenodd" fill-opacity="1" /><path clip-path="url(#clip370)" d="M53.4848 1535.36 L58.9593 1535.36 Q57.5907 1537.85 56.9223 1540.36 Q56.2221 1542.84 56.2221 1545.39 Q56.2221 1551.09 59.8505 1554.24 Q63.4472 1557.39 69.972 1557.39 Q76.4969 1557.39 80.1253 1554.24 Q83.7219 1551.09 83.7219 1545.39 Q83.7219 1542.84 83.0535 1540.36 Q82.3533 1537.85 80.9847 1535.36 L86.3955 1535.36 Q87.5414 1537.82 88.1143 1540.46 Q88.6872 1543.07 88.6872 1546.03 Q88.6872 1554.08 83.6264 1558.82 Q78.5657 1563.57 69.972 1563.57 Q61.251 1563.57 56.2539 1558.79 Q51.2568 1553.98 51.2568 1545.65 Q51.2568 1542.94 51.8297 1540.36 Q52.3708 1537.78 53.4848 1535.36 Z" fill="#000000" fill-rule="evenodd" fill-opacity="1" /><path clip-path="url(#clip370)" d="M68.4761 1494.69 L71.3406 1494.69 L71.3406 1521.62 Q77.3881 1521.23 80.5709 1517.99 Q83.7219 1514.71 83.7219 1508.88 Q83.7219 1505.51 82.8944 1502.36 Q82.0669 1499.18 80.4118 1496.06 L85.9499 1496.06 Q87.2867 1499.21 87.987 1502.52 Q88.6872 1505.83 88.6872 1509.23 Q88.6872 1517.76 83.7219 1522.76 Q78.7567 1527.73 70.2903 1527.73 Q61.5374 1527.73 56.4131 1523.02 Q51.2568 1518.27 51.2568 1510.25 Q51.2568 1503.06 55.9038 1498.89 Q60.5189 1494.69 68.4761 1494.69 M66.7573 1500.54 Q61.9512 1500.61 59.0866 1503.25 Q56.2221 1505.86 56.2221 1510.19 Q56.2221 1515.09 58.9912 1518.05 Q61.7602 1520.98 66.7892 1521.42 L66.7573 1500.54 Z" fill="#000000" fill-rule="evenodd" fill-opacity="1" /><path clip-path="url(#clip370)" d="M38.3026 1450.29 Q45.6232 1454.55 52.7846 1456.62 Q59.946 1458.69 67.2984 1458.69 Q74.6508 1458.69 81.8759 1456.62 Q89.0691 1454.52 96.3579 1450.29 L96.3579 1455.38 Q88.8782 1460.15 81.6531 1462.54 Q74.428 1464.9 67.2984 1464.9 Q60.2006 1464.9 53.0074 1462.54 Q45.8142 1460.19 38.3026 1455.38 L38.3026 1450.29 Z" fill="#000000" fill-rule="evenodd" fill-opacity="1" /><path clip-path="url(#clip370)" d="M52.1162 1438.92 L52.1162 1433.07 L87.7642 1433.07 L87.7642 1438.92 L52.1162 1438.92 M38.239 1438.92 L38.239 1433.07 L45.655 1433.07 L45.655 1438.92 L38.239 1438.92 Z" fill="#000000" fill-rule="evenodd" fill-opacity="1" /><path clip-path="url(#clip370)" d="M66.2481 1391.18 L87.7642 1391.18 L87.7642 1397.04 L66.439 1397.04 Q61.3783 1397.04 58.8638 1399.01 Q56.3494 1400.98 56.3494 1404.93 Q56.3494 1409.67 59.3731 1412.41 Q62.3968 1415.15 67.6167 1415.15 L87.7642 1415.15 L87.7642 1421.04 L52.1162 1421.04 L52.1162 1415.15 L57.6544 1415.15 Q54.4397 1413.05 52.8483 1410.22 Q51.2568 1407.35 51.2568 1403.63 Q51.2568 1397.48 55.0763 1394.33 Q58.8638 1391.18 66.2481 1391.18 Z" fill="#000000" fill-rule="evenodd" fill-opacity="1" /><path clip-path="url(#clip370)" d="M41.9947 1352.99 L52.1162 1352.99 L52.1162 1340.92 L56.6677 1340.92 L56.6677 1352.99 L76.0194 1352.99 Q80.3799 1352.99 81.6213 1351.81 Q82.8626 1350.6 82.8626 1346.94 L82.8626 1340.92 L87.7642 1340.92 L87.7642 1346.94 Q87.7642 1353.72 85.2497 1356.3 Q82.7034 1358.88 76.0194 1358.88 L56.6677 1358.88 L56.6677 1363.17 L52.1162 1363.17 L52.1162 1358.88 L41.9947 1358.88 L41.9947 1352.99 Z" fill="#000000" fill-rule="evenodd" fill-opacity="1" /><path clip-path="url(#clip370)" d="M66.2481 1303.59 L87.7642 1303.59 L87.7642 1309.45 L66.439 1309.45 Q61.3783 1309.45 58.8638 1311.42 Q56.3494 1313.39 56.3494 1317.34 Q56.3494 1322.08 59.3731 1324.82 Q62.3968 1327.56 67.6167 1327.56 L87.7642 1327.56 L87.7642 1333.44 L38.239 1333.44 L38.239 1327.56 L57.6544 1327.56 Q54.4397 1325.46 52.8483 1322.62 Q51.2568 1319.76 51.2568 1316.03 Q51.2568 1309.89 55.0763 1306.74 Q58.8638 1303.59 66.2481 1303.59 Z" fill="#000000" fill-rule="evenodd" fill-opacity="1" /><path clip-path="url(#clip370)" d="M56.2221 1278.09 Q56.2221 1282.81 59.9142 1285.54 Q63.5745 1288.28 69.972 1288.28 Q76.3695 1288.28 80.0617 1285.57 Q83.7219 1282.84 83.7219 1278.09 Q83.7219 1273.42 80.0298 1270.68 Q76.3377 1267.94 69.972 1267.94 Q63.6381 1267.94 59.946 1270.68 Q56.2221 1273.42 56.2221 1278.09 M51.2568 1278.09 Q51.2568 1270.46 56.2221 1266.1 Q61.1873 1261.74 69.972 1261.74 Q78.7249 1261.74 83.7219 1266.1 Q88.6872 1270.46 88.6872 1278.09 Q88.6872 1285.77 83.7219 1290.13 Q78.7249 1294.45 69.972 1294.45 Q61.1873 1294.45 56.2221 1290.13 Q51.2568 1285.77 51.2568 1278.09 Z" fill="#000000" fill-rule="evenodd" fill-opacity="1" /><path clip-path="url(#clip370)" d="M73.6959 1252.63 L52.1162 1252.63 L52.1162 1246.78 L73.4731 1246.78 Q78.5339 1246.78 81.0802 1244.8 Q83.5946 1242.83 83.5946 1238.88 Q83.5946 1234.14 80.5709 1231.4 Q77.5472 1228.63 72.3273 1228.63 L52.1162 1228.63 L52.1162 1222.78 L87.7642 1222.78 L87.7642 1228.63 L82.2896 1228.63 Q85.5362 1230.77 87.1276 1233.6 Q88.6872 1236.4 88.6872 1240.12 Q88.6872 1246.27 84.8678 1249.45 Q81.0483 1252.63 73.6959 1252.63 M51.2568 1237.9 L51.2568 1237.9 Z" fill="#000000" fill-rule="evenodd" fill-opacity="1" /><path clip-path="url(#clip370)" d="M53.1665 1187.99 L58.7047 1187.99 Q57.4316 1190.47 56.795 1193.14 Q56.1584 1195.82 56.1584 1198.68 Q56.1584 1203.04 57.4952 1205.24 Q58.832 1207.4 61.5056 1207.4 Q63.5426 1207.4 64.7203 1205.84 Q65.8661 1204.28 66.9165 1199.57 L67.3621 1197.57 Q68.6989 1191.33 71.1497 1188.72 Q73.5686 1186.08 77.9291 1186.08 Q82.8944 1186.08 85.7908 1190.03 Q88.6872 1193.94 88.6872 1200.82 Q88.6872 1203.68 88.1143 1206.8 Q87.5732 1209.89 86.4592 1213.32 L80.4118 1213.32 Q82.0987 1210.08 82.958 1206.93 Q83.7856 1203.78 83.7856 1200.69 Q83.7856 1196.55 82.3851 1194.32 Q80.9529 1192.09 78.3747 1192.09 Q75.9876 1192.09 74.7145 1193.72 Q73.4413 1195.31 72.2637 1200.75 L71.7862 1202.79 Q70.6404 1208.23 68.2851 1210.65 Q65.898 1213.07 61.7602 1213.07 Q56.7313 1213.07 53.9941 1209.5 Q51.2568 1205.94 51.2568 1199.38 Q51.2568 1196.14 51.7343 1193.27 Q52.2117 1190.41 53.1665 1187.99 Z" fill="#000000" fill-rule="evenodd" fill-opacity="1" /><path clip-path="url(#clip370)" d="M69.8447 1160.55 Q69.8447 1167.65 71.4679 1170.39 Q73.0912 1173.12 77.0061 1173.12 Q80.1253 1173.12 81.9714 1171.09 Q83.7856 1169.02 83.7856 1165.49 Q83.7856 1160.62 80.3481 1157.69 Q76.8788 1154.73 71.1497 1154.73 L69.8447 1154.73 L69.8447 1160.55 M67.4257 1148.87 L87.7642 1148.87 L87.7642 1154.73 L82.3533 1154.73 Q85.5998 1156.73 87.1594 1159.72 Q88.6872 1162.72 88.6872 1167.05 Q88.6872 1172.52 85.6316 1175.77 Q82.5443 1178.98 77.3881 1178.98 Q71.3725 1178.98 68.3169 1174.97 Q65.2614 1170.93 65.2614 1162.94 L65.2614 1154.73 L64.6885 1154.73 Q60.6462 1154.73 58.4501 1157.4 Q56.2221 1160.04 56.2221 1164.85 Q56.2221 1167.9 56.9541 1170.8 Q57.6862 1173.7 59.1503 1176.37 L53.7395 1176.37 Q52.4981 1173.16 51.8934 1170.13 Q51.2568 1167.11 51.2568 1164.24 Q51.2568 1156.51 55.2672 1152.69 Q59.2776 1148.87 67.4257 1148.87 Z" fill="#000000" fill-rule="evenodd" fill-opacity="1" /><path clip-path="url(#clip370)" d="M66.2481 1107.18 L87.7642 1107.18 L87.7642 1113.03 L66.439 1113.03 Q61.3783 1113.03 58.8638 1115.01 Q56.3494 1116.98 56.3494 1120.93 Q56.3494 1125.67 59.3731 1128.41 Q62.3968 1131.14 67.6167 1131.14 L87.7642 1131.14 L87.7642 1137.03 L52.1162 1137.03 L52.1162 1131.14 L57.6544 1131.14 Q54.4397 1129.04 52.8483 1126.21 Q51.2568 1123.34 51.2568 1119.62 Q51.2568 1113.48 55.0763 1110.33 Q58.8638 1107.18 66.2481 1107.18 Z" fill="#000000" fill-rule="evenodd" fill-opacity="1" /><path clip-path="url(#clip370)" d="M57.5271 1072.04 L38.239 1072.04 L38.239 1066.18 L87.7642 1066.18 L87.7642 1072.04 L82.417 1072.04 Q85.5998 1073.88 87.1594 1076.72 Q88.6872 1079.52 88.6872 1083.46 Q88.6872 1089.92 83.531 1094 Q78.3747 1098.04 69.972 1098.04 Q61.5693 1098.04 56.4131 1094 Q51.2568 1089.92 51.2568 1083.46 Q51.2568 1079.52 52.8164 1076.72 Q54.3442 1073.88 57.5271 1072.04 M69.972 1091.99 Q76.4332 1091.99 80.1253 1089.35 Q83.7856 1086.68 83.7856 1082.03 Q83.7856 1077.38 80.1253 1074.71 Q76.4332 1072.04 69.972 1072.04 Q63.5108 1072.04 59.8505 1074.71 Q56.1584 1077.38 56.1584 1082.03 Q56.1584 1086.68 59.8505 1089.35 Q63.5108 1091.99 69.972 1091.99 Z" fill="#000000" fill-rule="evenodd" fill-opacity="1" /><path clip-path="url(#clip370)" d="M53.1665 1031.39 L58.7047 1031.39 Q57.4316 1033.87 56.795 1036.55 Q56.1584 1039.22 56.1584 1042.09 Q56.1584 1046.45 57.4952 1048.64 Q58.832 1050.81 61.5056 1050.81 Q63.5426 1050.81 64.7203 1049.25 Q65.8661 1047.69 66.9165 1042.98 L67.3621 1040.97 Q68.6989 1034.73 71.1497 1032.12 Q73.5686 1029.48 77.9291 1029.48 Q82.8944 1029.48 85.7908 1033.43 Q88.6872 1037.34 88.6872 1044.22 Q88.6872 1047.08 88.1143 1050.2 Q87.5732 1053.29 86.4592 1056.73 L80.4118 1056.73 Q82.0987 1053.48 82.958 1050.33 Q83.7856 1047.18 83.7856 1044.09 Q83.7856 1039.95 82.3851 1037.73 Q80.9529 1035.5 78.3747 1035.5 Q75.9876 1035.5 74.7145 1037.12 Q73.4413 1038.71 72.2637 1044.16 L71.7862 1046.19 Q70.6404 1051.63 68.2851 1054.05 Q65.898 1056.47 61.7602 1056.47 Q56.7313 1056.47 53.9941 1052.91 Q51.2568 1049.34 51.2568 1042.79 Q51.2568 1039.54 51.7343 1036.68 Q52.2117 1033.81 53.1665 1031.39 Z" fill="#000000" fill-rule="evenodd" fill-opacity="1" /><path clip-path="url(#clip370)" d="M56.2221 985.623 Q56.2221 990.333 59.9142 993.07 Q63.5745 995.808 69.972 995.808 Q76.3695 995.808 80.0617 993.102 Q83.7219 990.365 83.7219 985.623 Q83.7219 980.944 80.0298 978.206 Q76.3377 975.469 69.972 975.469 Q63.6381 975.469 59.946 978.206 Q56.2221 980.944 56.2221 985.623 M51.2568 985.623 Q51.2568 977.984 56.2221 973.623 Q61.1873 969.263 69.972 969.263 Q78.7249 969.263 83.7219 973.623 Q88.6872 977.984 88.6872 985.623 Q88.6872 993.293 83.7219 997.654 Q78.7249 1001.98 69.972 1001.98 Q61.1873 1001.98 56.2221 997.654 Q51.2568 993.293 51.2568 985.623 Z" fill="#000000" fill-rule="evenodd" fill-opacity="1" /><path clip-path="url(#clip370)" d="M38.239 941.508 L43.1087 941.508 L43.1087 947.11 Q43.1087 950.261 44.3819 951.502 Q45.655 952.712 48.9652 952.712 L52.1162 952.712 L52.1162 943.068 L56.6677 943.068 L56.6677 952.712 L87.7642 952.712 L87.7642 958.6 L56.6677 958.6 L56.6677 964.202 L52.1162 964.202 L52.1162 958.6 L49.6336 958.6 Q43.6816 958.6 40.9762 955.831 Q38.239 953.062 38.239 947.046 L38.239 941.508 Z" fill="#000000" fill-rule="evenodd" fill-opacity="1" /><path clip-path="url(#clip370)" d="M57.5271 892.429 L38.239 892.429 L38.239 886.572 L87.7642 886.572 L87.7642 892.429 L82.417 892.429 Q85.5998 894.275 87.1594 897.107 Q88.6872 899.908 88.6872 903.855 Q88.6872 910.316 83.531 914.39 Q78.3747 918.433 69.972 918.433 Q61.5693 918.433 56.4131 914.39 Q51.2568 910.316 51.2568 903.855 Q51.2568 899.908 52.8164 897.107 Q54.3442 894.275 57.5271 892.429 M69.972 912.385 Q76.4332 912.385 80.1253 909.743 Q83.7856 907.07 83.7856 902.423 Q83.7856 897.776 80.1253 895.102 Q76.4332 892.429 69.972 892.429 Q63.5108 892.429 59.8505 895.102 Q56.1584 897.776 56.1584 902.423 Q56.1584 907.07 59.8505 909.743 Q63.5108 912.385 69.972 912.385 Z" fill="#000000" fill-rule="evenodd" fill-opacity="1" /><path clip-path="url(#clip370)" d="M56.2221 860.696 Q56.2221 865.406 59.9142 868.143 Q63.5745 870.881 69.972 870.881 Q76.3695 870.881 80.0617 868.175 Q83.7219 865.438 83.7219 860.696 Q83.7219 856.017 80.0298 853.28 Q76.3377 850.542 69.972 850.542 Q63.6381 850.542 59.946 853.28 Q56.2221 856.017 56.2221 860.696 M51.2568 860.696 Q51.2568 853.057 56.2221 848.696 Q61.1873 844.336 69.972 844.336 Q78.7249 844.336 83.7219 848.696 Q88.6872 853.057 88.6872 860.696 Q88.6872 868.366 83.7219 872.727 Q78.7249 877.055 69.972 877.055 Q61.1873 877.055 56.2221 872.727 Q51.2568 868.366 51.2568 860.696 Z" fill="#000000" fill-rule="evenodd" fill-opacity="1" /><path clip-path="url(#clip370)" d="M38.239 834.628 L38.239 828.772 L87.7642 828.772 L87.7642 834.628 L38.239 834.628 Z" fill="#000000" fill-rule="evenodd" fill-opacity="1" /><path clip-path="url(#clip370)" d="M38.239 816.518 L38.239 810.661 L87.7642 810.661 L87.7642 816.518 L38.239 816.518 Z" fill="#000000" fill-rule="evenodd" fill-opacity="1" /><path clip-path="url(#clip370)" d="M69.8447 782.206 Q69.8447 789.304 71.4679 792.041 Q73.0912 794.779 77.0061 794.779 Q80.1253 794.779 81.9714 792.742 Q83.7856 790.673 83.7856 787.14 Q83.7856 782.27 80.3481 779.342 Q76.8788 776.382 71.1497 776.382 L69.8447 776.382 L69.8447 782.206 M67.4257 770.525 L87.7642 770.525 L87.7642 776.382 L82.3533 776.382 Q85.5998 778.387 87.1594 781.379 Q88.6872 784.371 88.6872 788.699 Q88.6872 794.174 85.6316 797.42 Q82.5443 800.635 77.3881 800.635 Q71.3725 800.635 68.3169 796.625 Q65.2614 792.582 65.2614 784.594 L65.2614 776.382 L64.6885 776.382 Q60.6462 776.382 58.4501 779.055 Q56.2221 781.697 56.2221 786.503 Q56.2221 789.559 56.9541 792.455 Q57.6862 795.352 59.1503 798.025 L53.7395 798.025 Q52.4981 794.81 51.8934 791.787 Q51.2568 788.763 51.2568 785.898 Q51.2568 778.164 55.2672 774.345 Q59.2776 770.525 67.4257 770.525 Z" fill="#000000" fill-rule="evenodd" fill-opacity="1" /><path clip-path="url(#clip370)" d="M57.5907 737.806 Q57.0178 738.792 56.7632 739.97 Q56.4767 741.116 56.4767 742.516 Q56.4767 747.481 59.7232 750.155 Q62.9379 752.797 68.9853 752.797 L87.7642 752.797 L87.7642 758.685 L52.1162 758.685 L52.1162 752.797 L57.6544 752.797 Q54.4079 750.951 52.8483 747.991 Q51.2568 745.031 51.2568 740.797 Q51.2568 740.193 51.3523 739.461 Q51.416 738.729 51.5751 737.837 L57.5907 737.806 Z" fill="#000000" fill-rule="evenodd" fill-opacity="1" /><path clip-path="url(#clip370)" d="M53.1665 708.937 L58.7047 708.937 Q57.4316 711.42 56.795 714.093 Q56.1584 716.767 56.1584 719.631 Q56.1584 723.992 57.4952 726.188 Q58.832 728.353 61.5056 728.353 Q63.5426 728.353 64.7203 726.793 Q65.8661 725.233 66.9165 720.523 L67.3621 718.517 Q68.6989 712.279 71.1497 709.669 Q73.5686 707.027 77.9291 707.027 Q82.8944 707.027 85.7908 710.974 Q88.6872 714.889 88.6872 721.764 Q88.6872 724.629 88.1143 727.748 Q87.5732 730.835 86.4592 734.273 L80.4118 734.273 Q82.0987 731.026 82.958 727.875 Q83.7856 724.724 83.7856 721.637 Q83.7856 717.499 82.3851 715.271 Q80.9529 713.043 78.3747 713.043 Q75.9876 713.043 74.7145 714.666 Q73.4413 716.258 72.2637 721.7 L71.7862 723.737 Q70.6404 729.18 68.2851 731.599 Q65.898 734.018 61.7602 734.018 Q56.7313 734.018 53.9941 730.453 Q51.2568 726.888 51.2568 720.332 Q51.2568 717.085 51.7343 714.221 Q52.2117 711.356 53.1665 708.937 Z" fill="#000000" fill-rule="evenodd" fill-opacity="1" /><path clip-path="url(#clip370)" d="M38.3026 698.625 L38.3026 693.532 Q45.8142 688.758 53.0074 686.403 Q60.2006 684.015 67.2984 684.015 Q74.428 684.015 81.6531 686.403 Q88.8782 688.758 96.3579 693.532 L96.3579 698.625 Q89.0691 694.391 81.8759 692.323 Q74.6508 690.222 67.2984 690.222 Q59.946 690.222 52.7846 692.323 Q45.6232 694.391 38.3026 698.625 Z" fill="#000000" fill-rule="evenodd" fill-opacity="1" /><path clip-path="url(#clip370)" d="M491.931 12.096 L500.114 12.096 L500.114 36.8875 L529.847 36.8875 L529.847 12.096 L538.03 12.096 L538.03 72.576 L529.847 72.576 L529.847 43.7741 L500.114 43.7741 L500.114 72.576 L491.931 72.576 L491.931 12.096 Z" fill="#000000" fill-rule="evenodd" fill-opacity="1" /><path clip-path="url(#clip370)" d="M571.572 32.4315 Q565.576 32.4315 562.093 37.1306 Q558.609 41.7891 558.609 49.9314 Q558.609 58.0738 562.052 62.7728 Q565.536 67.4314 571.572 67.4314 Q577.527 67.4314 581.01 62.7323 Q584.494 58.0333 584.494 49.9314 Q584.494 41.8701 581.01 37.1711 Q577.527 32.4315 571.572 32.4315 M571.572 26.1121 Q581.294 26.1121 586.844 32.4315 Q592.393 38.7509 592.393 49.9314 Q592.393 61.0714 586.844 67.4314 Q581.294 73.7508 571.572 73.7508 Q561.809 73.7508 556.259 67.4314 Q550.75 61.0714 550.75 49.9314 Q550.75 38.7509 556.259 32.4315 Q561.809 26.1121 571.572 26.1121 Z" fill="#000000" fill-rule="evenodd" fill-opacity="1" /><path clip-path="url(#clip370)" d="M603.979 54.671 L603.979 27.2059 L611.433 27.2059 L611.433 54.3874 Q611.433 60.8284 613.944 64.0691 Q616.456 67.2693 621.479 67.2693 Q627.515 67.2693 630.998 63.421 Q634.523 59.5726 634.523 52.9291 L634.523 27.2059 L641.976 27.2059 L641.976 72.576 L634.523 72.576 L634.523 65.6084 Q631.809 69.7404 628.203 71.7658 Q624.639 73.7508 619.899 73.7508 Q612.081 73.7508 608.03 68.8897 Q603.979 64.0286 603.979 54.671 M622.735 26.1121 L622.735 26.1121 Z" fill="#000000" fill-rule="evenodd" fill-opacity="1" /><path clip-path="url(#clip370)" d="M686.253 28.5427 L686.253 35.5912 Q683.093 33.9709 679.69 33.1607 Q676.288 32.3505 672.642 32.3505 Q667.092 32.3505 664.297 34.0519 Q661.542 35.7533 661.542 39.156 Q661.542 41.7486 663.527 43.2475 Q665.512 44.7058 671.508 46.0426 L674.06 46.6097 Q681.999 48.3111 685.321 51.4303 Q688.683 54.509 688.683 60.0587 Q688.683 66.3781 683.66 70.0644 Q678.678 73.7508 669.928 73.7508 Q666.282 73.7508 662.312 73.0216 Q658.383 72.3329 654.008 70.9151 L654.008 63.2184 Q658.14 65.3654 662.15 66.4591 Q666.16 67.5124 670.09 67.5124 Q675.356 67.5124 678.192 65.73 Q681.027 63.9071 681.027 60.6258 Q681.027 57.5877 678.961 55.9673 Q676.936 54.3469 670.009 52.8481 L667.416 52.2405 Q660.489 50.7821 657.41 47.7845 Q654.332 44.7463 654.332 39.4801 Q654.332 33.0797 658.869 29.5959 Q663.406 26.1121 671.751 26.1121 Q675.882 26.1121 679.528 26.7198 Q683.174 27.3274 686.253 28.5427 Z" fill="#000000" fill-rule="evenodd" fill-opacity="1" /><path clip-path="url(#clip370)" d="M700.553 27.2059 L708.006 27.2059 L708.006 72.576 L700.553 72.576 L700.553 27.2059 M700.553 9.54393 L708.006 9.54393 L708.006 18.9825 L700.553 18.9825 L700.553 9.54393 Z" fill="#000000" fill-rule="evenodd" fill-opacity="1" /><path clip-path="url(#clip370)" d="M761.316 45.1919 L761.316 72.576 L753.862 72.576 L753.862 45.4349 Q753.862 38.994 751.351 35.7938 Q748.839 32.5936 743.816 32.5936 Q737.78 32.5936 734.297 36.4419 Q730.813 40.2903 730.813 46.9338 L730.813 72.576 L723.319 72.576 L723.319 27.2059 L730.813 27.2059 L730.813 34.2544 Q733.486 30.163 737.092 28.1376 Q740.737 26.1121 745.477 26.1121 Q753.295 26.1121 757.306 30.9732 Q761.316 35.7938 761.316 45.1919 Z" fill="#000000" fill-rule="evenodd" fill-opacity="1" /><path clip-path="url(#clip370)" d="M806.038 49.3643 Q806.038 41.2625 802.676 36.8065 Q799.354 32.3505 793.318 32.3505 Q787.323 32.3505 783.961 36.8065 Q780.639 41.2625 780.639 49.3643 Q780.639 57.4256 783.961 61.8816 Q787.323 66.3376 793.318 66.3376 Q799.354 66.3376 802.676 61.8816 Q806.038 57.4256 806.038 49.3643 M813.492 66.9452 Q813.492 78.5308 808.347 84.1616 Q803.202 89.8329 792.589 89.8329 Q788.66 89.8329 785.176 89.2252 Q781.692 88.6581 778.411 87.4428 L778.411 80.1917 Q781.692 81.9741 784.892 82.8248 Q788.093 83.6755 791.414 83.6755 Q798.746 83.6755 802.392 79.8271 Q806.038 76.0193 806.038 68.282 L806.038 64.5957 Q803.729 68.6061 800.124 70.5911 Q796.518 72.576 791.495 72.576 Q783.15 72.576 778.046 66.2161 Q772.942 59.8562 772.942 49.3643 Q772.942 38.832 778.046 32.472 Q783.15 26.1121 791.495 26.1121 Q796.518 26.1121 800.124 28.0971 Q803.729 30.082 806.038 34.0924 L806.038 27.2059 L813.492 27.2059 L813.492 66.9452 Z" fill="#000000" fill-rule="evenodd" fill-opacity="1" /><path clip-path="url(#clip370)" d="M863.723 18.8205 L863.723 41.5461 L874.012 41.5461 Q879.724 41.5461 882.843 38.5889 Q885.962 35.6318 885.962 30.163 Q885.962 24.7348 882.843 21.7777 Q879.724 18.8205 874.012 18.8205 L863.723 18.8205 M855.54 12.096 L874.012 12.096 Q884.18 12.096 889.365 16.714 Q894.591 21.2916 894.591 30.163 Q894.591 39.1155 889.365 43.6931 Q884.18 48.2706 874.012 48.2706 L863.723 48.2706 L863.723 72.576 L855.54 72.576 L855.54 12.096 Z" fill="#000000" fill-rule="evenodd" fill-opacity="1" /><path clip-path="url(#clip370)" d="M930.077 34.1734 Q928.821 33.4443 927.322 33.1202 Q925.864 32.7556 924.081 32.7556 Q917.762 32.7556 914.359 36.8875 Q910.997 40.9789 910.997 48.6757 L910.997 72.576 L903.503 72.576 L903.503 27.2059 L910.997 27.2059 L910.997 34.2544 Q913.347 30.1225 917.114 28.1376 Q920.881 26.1121 926.269 26.1121 Q927.039 26.1121 927.97 26.2337 Q928.902 26.3147 930.036 26.5172 L930.077 34.1734 Z" fill="#000000" fill-rule="evenodd" fill-opacity="1" /><path clip-path="url(#clip370)" d="M937.895 27.2059 L945.349 27.2059 L945.349 72.576 L937.895 72.576 L937.895 27.2059 M937.895 9.54393 L945.349 9.54393 L945.349 18.9825 L937.895 18.9825 L937.895 9.54393 Z" fill="#000000" fill-rule="evenodd" fill-opacity="1" /><path clip-path="url(#clip370)" d="M993.595 28.9478 L993.595 35.9153 Q990.435 34.1734 987.235 33.3227 Q984.075 32.4315 980.835 32.4315 Q973.583 32.4315 969.573 37.0496 Q965.563 41.6271 965.563 49.9314 Q965.563 58.2358 969.573 62.8538 Q973.583 67.4314 980.835 67.4314 Q984.075 67.4314 987.235 66.5807 Q990.435 65.6895 993.595 63.9476 L993.595 70.8341 Q990.476 72.2924 987.113 73.0216 Q983.792 73.7508 980.024 73.7508 Q969.776 73.7508 963.74 67.3098 Q957.704 60.8689 957.704 49.9314 Q957.704 38.832 963.78 32.472 Q969.897 26.1121 980.51 26.1121 Q983.954 26.1121 987.235 26.8413 Q990.516 27.5299 993.595 28.9478 Z" fill="#000000" fill-rule="evenodd" fill-opacity="1" /><path clip-path="url(#clip370)" d="M1045.37 48.0275 L1045.37 51.6733 L1011.09 51.6733 Q1011.58 59.3701 1015.71 63.421 Q1019.89 67.4314 1027.3 67.4314 Q1031.59 67.4314 1035.6 66.3781 Q1039.65 65.3249 1043.62 63.2184 L1043.62 70.267 Q1039.61 71.9684 1035.4 72.8596 Q1031.19 73.7508 1026.85 73.7508 Q1016 73.7508 1009.64 67.4314 Q1003.32 61.1119 1003.32 50.3365 Q1003.32 39.1965 1009.31 32.6746 Q1015.35 26.1121 1025.56 26.1121 Q1034.71 26.1121 1040.02 32.0264 Q1045.37 37.9003 1045.37 48.0275 M1037.91 45.84 Q1037.83 39.7232 1034.47 36.0774 Q1031.15 32.4315 1025.64 32.4315 Q1019.4 32.4315 1015.63 35.9558 Q1011.91 39.4801 1011.34 45.8805 L1037.91 45.84 Z" fill="#000000" fill-rule="evenodd" fill-opacity="1" /><path clip-path="url(#clip370)" d="M1086.52 28.5427 L1086.52 35.5912 Q1083.36 33.9709 1079.96 33.1607 Q1076.56 32.3505 1072.91 32.3505 Q1067.36 32.3505 1064.57 34.0519 Q1061.81 35.7533 1061.81 39.156 Q1061.81 41.7486 1063.8 43.2475 Q1065.78 44.7058 1071.78 46.0426 L1074.33 46.6097 Q1082.27 48.3111 1085.59 51.4303 Q1088.95 54.509 1088.95 60.0587 Q1088.95 66.3781 1083.93 70.0644 Q1078.95 73.7508 1070.2 73.7508 Q1066.55 73.7508 1062.58 73.0216 Q1058.65 72.3329 1054.28 70.9151 L1054.28 63.2184 Q1058.41 65.3654 1062.42 66.4591 Q1066.43 67.5124 1070.36 67.5124 Q1075.63 67.5124 1078.46 65.73 Q1081.3 63.9071 1081.3 60.6258 Q1081.3 57.5877 1079.23 55.9673 Q1077.21 54.3469 1070.28 52.8481 L1067.69 52.2405 Q1060.76 50.7821 1057.68 47.7845 Q1054.6 44.7463 1054.6 39.4801 Q1054.6 33.0797 1059.14 29.5959 Q1063.68 26.1121 1072.02 26.1121 Q1076.15 26.1121 1079.8 26.7198 Q1083.44 27.3274 1086.52 28.5427 Z" fill="#000000" fill-rule="evenodd" fill-opacity="1" /><path clip-path="url(#clip370)" d="M1127.19 27.2059 L1134.65 27.2059 L1134.65 72.576 L1127.19 72.576 L1127.19 27.2059 M1127.19 9.54393 L1134.65 9.54393 L1134.65 18.9825 L1127.19 18.9825 L1127.19 9.54393 Z" fill="#000000" fill-rule="evenodd" fill-opacity="1" /><path clip-path="url(#clip370)" d="M1187.96 45.1919 L1187.96 72.576 L1180.5 72.576 L1180.5 45.4349 Q1180.5 38.994 1177.99 35.7938 Q1175.48 32.5936 1170.46 32.5936 Q1164.42 32.5936 1160.94 36.4419 Q1157.45 40.2903 1157.45 46.9338 L1157.45 72.576 L1149.96 72.576 L1149.96 27.2059 L1157.45 27.2059 L1157.45 34.2544 Q1160.13 30.163 1163.73 28.1376 Q1167.38 26.1121 1172.12 26.1121 Q1179.94 26.1121 1183.95 30.9732 Q1187.96 35.7938 1187.96 45.1919 Z" fill="#000000" fill-rule="evenodd" fill-opacity="1" /><path clip-path="url(#clip370)" d="M1237.7 18.8205 L1237.7 41.5461 L1247.99 41.5461 Q1253.7 41.5461 1256.82 38.5889 Q1259.94 35.6318 1259.94 30.163 Q1259.94 24.7348 1256.82 21.7777 Q1253.7 18.8205 1247.99 18.8205 L1237.7 18.8205 M1229.52 12.096 L1247.99 12.096 Q1258.16 12.096 1263.34 16.714 Q1268.57 21.2916 1268.57 30.163 Q1268.57 39.1155 1263.34 43.6931 Q1258.16 48.2706 1247.99 48.2706 L1237.7 48.2706 L1237.7 72.576 L1229.52 72.576 L1229.52 12.096 Z" fill="#000000" fill-rule="evenodd" fill-opacity="1" /><path clip-path="url(#clip370)" d="M1293.85 32.4315 Q1287.85 32.4315 1284.37 37.1306 Q1280.89 41.7891 1280.89 49.9314 Q1280.89 58.0738 1284.33 62.7728 Q1287.81 67.4314 1293.85 67.4314 Q1299.8 67.4314 1303.29 62.7323 Q1306.77 58.0333 1306.77 49.9314 Q1306.77 41.8701 1303.29 37.1711 Q1299.8 32.4315 1293.85 32.4315 M1293.85 26.1121 Q1303.57 26.1121 1309.12 32.4315 Q1314.67 38.7509 1314.67 49.9314 Q1314.67 61.0714 1309.12 67.4314 Q1303.57 73.7508 1293.85 73.7508 Q1284.09 73.7508 1278.54 67.4314 Q1273.03 61.0714 1273.03 49.9314 Q1273.03 38.7509 1278.54 32.4315 Q1284.09 26.1121 1293.85 26.1121 Z" fill="#000000" fill-rule="evenodd" fill-opacity="1" /><path clip-path="url(#clip370)" d="M1353.32 34.1734 Q1352.06 33.4443 1350.56 33.1202 Q1349.1 32.7556 1347.32 32.7556 Q1341 32.7556 1337.6 36.8875 Q1334.24 40.9789 1334.24 48.6757 L1334.24 72.576 L1326.74 72.576 L1326.74 27.2059 L1334.24 27.2059 L1334.24 34.2544 Q1336.58 30.1225 1340.35 28.1376 Q1344.12 26.1121 1349.51 26.1121 Q1350.28 26.1121 1351.21 26.2337 Q1352.14 26.3147 1353.27 26.5172 L1353.32 34.1734 Z" fill="#000000" fill-rule="evenodd" fill-opacity="1" /><path clip-path="url(#clip370)" d="M1368.51 14.324 L1368.51 27.2059 L1383.86 27.2059 L1383.86 32.9987 L1368.51 32.9987 L1368.51 57.6282 Q1368.51 63.1779 1370 64.7578 Q1371.54 66.3376 1376.2 66.3376 L1383.86 66.3376 L1383.86 72.576 L1376.2 72.576 Q1367.57 72.576 1364.29 69.3758 Q1361.01 66.1351 1361.01 57.6282 L1361.01 32.9987 L1355.54 32.9987 L1355.54 27.2059 L1361.01 27.2059 L1361.01 14.324 L1368.51 14.324 Z" fill="#000000" fill-rule="evenodd" fill-opacity="1" /><path clip-path="url(#clip370)" d="M1393.66 9.54393 L1401.12 9.54393 L1401.12 72.576 L1393.66 72.576 L1393.66 9.54393 Z" fill="#000000" fill-rule="evenodd" fill-opacity="1" /><path clip-path="url(#clip370)" d="M1437.33 49.7694 Q1428.3 49.7694 1424.81 51.8354 Q1421.33 53.9013 1421.33 58.8839 Q1421.33 62.8538 1423.92 65.2034 Q1426.56 67.5124 1431.05 67.5124 Q1437.25 67.5124 1440.98 63.1374 Q1444.74 58.7219 1444.74 51.4303 L1444.74 49.7694 L1437.33 49.7694 M1452.2 46.6907 L1452.2 72.576 L1444.74 72.576 L1444.74 65.6895 Q1442.19 69.8214 1438.38 71.8063 Q1434.58 73.7508 1429.07 73.7508 Q1422.1 73.7508 1417.97 69.8619 Q1413.88 65.9325 1413.88 59.3701 Q1413.88 51.7138 1418.98 47.825 Q1424.13 43.9361 1434.29 43.9361 L1444.74 43.9361 L1444.74 43.2069 Q1444.74 38.0623 1441.34 35.2672 Q1437.98 32.4315 1431.86 32.4315 Q1427.97 32.4315 1424.29 33.3632 Q1420.6 34.295 1417.2 36.1584 L1417.2 29.2718 Q1421.29 27.692 1425.14 26.9223 Q1428.99 26.1121 1432.63 26.1121 Q1442.48 26.1121 1447.34 31.2163 Q1452.2 36.3204 1452.2 46.6907 Z" fill="#000000" fill-rule="evenodd" fill-opacity="1" /><path clip-path="url(#clip370)" d="M1505.26 45.1919 L1505.26 72.576 L1497.81 72.576 L1497.81 45.4349 Q1497.81 38.994 1495.3 35.7938 Q1492.79 32.5936 1487.76 32.5936 Q1481.73 32.5936 1478.25 36.4419 Q1474.76 40.2903 1474.76 46.9338 L1474.76 72.576 L1467.27 72.576 L1467.27 27.2059 L1474.76 27.2059 L1474.76 34.2544 Q1477.43 30.163 1481.04 28.1376 Q1484.69 26.1121 1489.43 26.1121 Q1497.24 26.1121 1501.25 30.9732 Q1505.26 35.7938 1505.26 45.1919 Z" fill="#000000" fill-rule="evenodd" fill-opacity="1" /><path clip-path="url(#clip370)" d="M1549.99 34.0924 L1549.99 9.54393 L1557.44 9.54393 L1557.44 72.576 L1549.99 72.576 L1549.99 65.7705 Q1547.64 69.8214 1544.03 71.8063 Q1540.47 73.7508 1535.44 73.7508 Q1527.22 73.7508 1522.04 67.1883 Q1516.89 60.6258 1516.89 49.9314 Q1516.89 39.2371 1522.04 32.6746 Q1527.22 26.1121 1535.44 26.1121 Q1540.47 26.1121 1544.03 28.0971 Q1547.64 30.0415 1549.99 34.0924 M1524.59 49.9314 Q1524.59 58.1548 1527.95 62.8538 Q1531.35 67.5124 1537.27 67.5124 Q1543.18 67.5124 1546.58 62.8538 Q1549.99 58.1548 1549.99 49.9314 Q1549.99 41.7081 1546.58 37.0496 Q1543.18 32.3505 1537.27 32.3505 Q1531.35 32.3505 1527.95 37.0496 Q1524.59 41.7081 1524.59 49.9314 Z" fill="#000000" fill-rule="evenodd" fill-opacity="1" /><path clip-path="url(#clip370)" d="M1617.07 9.62495 Q1611.64 18.942 1609.01 28.0566 Q1606.38 37.1711 1606.38 46.5287 Q1606.38 55.8863 1609.01 65.0818 Q1611.68 74.2369 1617.07 83.5134 L1610.59 83.5134 Q1604.51 73.9938 1601.47 64.7983 Q1598.48 55.6027 1598.48 46.5287 Q1598.48 37.4952 1601.47 28.3401 Q1604.47 19.1851 1610.59 9.62495 L1617.07 9.62495 Z" fill="#000000" fill-rule="evenodd" fill-opacity="1" /><path clip-path="url(#clip370)" d="M1670.34 48.0275 L1670.34 51.6733 L1636.07 51.6733 Q1636.55 59.3701 1640.69 63.421 Q1644.86 67.4314 1652.27 67.4314 Q1656.57 67.4314 1660.58 66.3781 Q1664.63 65.3249 1668.6 63.2184 L1668.6 70.267 Q1664.59 71.9684 1660.37 72.8596 Q1656.16 73.7508 1651.83 73.7508 Q1640.97 73.7508 1634.61 67.4314 Q1628.29 61.1119 1628.29 50.3365 Q1628.29 39.1965 1634.29 32.6746 Q1640.32 26.1121 1650.53 26.1121 Q1659.69 26.1121 1664.99 32.0264 Q1670.34 37.9003 1670.34 48.0275 M1662.89 45.84 Q1662.8 39.7232 1659.44 36.0774 Q1656.12 32.4315 1650.61 32.4315 Q1644.37 32.4315 1640.61 35.9558 Q1636.88 39.4801 1636.31 45.8805 L1662.89 45.84 Z" fill="#000000" fill-rule="evenodd" fill-opacity="1" /><path clip-path="url(#clip370)" d="M1689.78 65.7705 L1689.78 89.8329 L1682.29 89.8329 L1682.29 27.2059 L1689.78 27.2059 L1689.78 34.0924 Q1692.13 30.0415 1695.7 28.0971 Q1699.3 26.1121 1704.29 26.1121 Q1712.55 26.1121 1717.69 32.6746 Q1722.88 39.2371 1722.88 49.9314 Q1722.88 60.6258 1717.69 67.1883 Q1712.55 73.7508 1704.29 73.7508 Q1699.3 73.7508 1695.7 71.8063 Q1692.13 69.8214 1689.78 65.7705 M1715.14 49.9314 Q1715.14 41.7081 1711.74 37.0496 Q1708.38 32.3505 1702.46 32.3505 Q1696.55 32.3505 1693.15 37.0496 Q1689.78 41.7081 1689.78 49.9314 Q1689.78 58.1548 1693.15 62.8538 Q1696.55 67.5124 1702.46 67.5124 Q1708.38 67.5124 1711.74 62.8538 Q1715.14 58.1548 1715.14 49.9314 Z" fill="#000000" fill-rule="evenodd" fill-opacity="1" /><path clip-path="url(#clip370)" d="M1752.82 32.4315 Q1746.82 32.4315 1743.34 37.1306 Q1739.85 41.7891 1739.85 49.9314 Q1739.85 58.0738 1743.3 62.7728 Q1746.78 67.4314 1752.82 67.4314 Q1758.77 67.4314 1762.25 62.7323 Q1765.74 58.0333 1765.74 49.9314 Q1765.74 41.8701 1762.25 37.1711 Q1758.77 32.4315 1752.82 32.4315 M1752.82 26.1121 Q1762.54 26.1121 1768.09 32.4315 Q1773.64 38.7509 1773.64 49.9314 Q1773.64 61.0714 1768.09 67.4314 Q1762.54 73.7508 1752.82 73.7508 Q1743.05 73.7508 1737.5 67.4314 Q1731.99 61.0714 1731.99 49.9314 Q1731.99 38.7509 1737.5 32.4315 Q1743.05 26.1121 1752.82 26.1121 Z" fill="#000000" fill-rule="evenodd" fill-opacity="1" /><path clip-path="url(#clip370)" d="M1818.64 28.9478 L1818.64 35.9153 Q1815.48 34.1734 1812.28 33.3227 Q1809.12 32.4315 1805.88 32.4315 Q1798.63 32.4315 1794.62 37.0496 Q1790.61 41.6271 1790.61 49.9314 Q1790.61 58.2358 1794.62 62.8538 Q1798.63 67.4314 1805.88 67.4314 Q1809.12 67.4314 1812.28 66.5807 Q1815.48 65.6895 1818.64 63.9476 L1818.64 70.8341 Q1815.52 72.2924 1812.16 73.0216 Q1808.84 73.7508 1805.07 73.7508 Q1794.82 73.7508 1788.79 67.3098 Q1782.75 60.8689 1782.75 49.9314 Q1782.75 38.832 1788.83 32.472 Q1794.94 26.1121 1805.56 26.1121 Q1809 26.1121 1812.28 26.8413 Q1815.56 27.5299 1818.64 28.9478 Z" fill="#000000" fill-rule="evenodd" fill-opacity="1" /><path clip-path="url(#clip370)" d="M1869.32 45.1919 L1869.32 72.576 L1861.87 72.576 L1861.87 45.4349 Q1861.87 38.994 1859.35 35.7938 Q1856.84 32.5936 1851.82 32.5936 Q1845.78 32.5936 1842.3 36.4419 Q1838.82 40.2903 1838.82 46.9338 L1838.82 72.576 L1831.32 72.576 L1831.32 9.54393 L1838.82 9.54393 L1838.82 34.2544 Q1841.49 30.163 1845.09 28.1376 Q1848.74 26.1121 1853.48 26.1121 Q1861.3 26.1121 1865.31 30.9732 Q1869.32 35.7938 1869.32 45.1919 Z" fill="#000000" fill-rule="evenodd" fill-opacity="1" /><path clip-path="url(#clip370)" d="M1913.11 28.5427 L1913.11 35.5912 Q1909.95 33.9709 1906.55 33.1607 Q1903.14 32.3505 1899.5 32.3505 Q1893.95 32.3505 1891.15 34.0519 Q1888.4 35.7533 1888.4 39.156 Q1888.4 41.7486 1890.38 43.2475 Q1892.37 44.7058 1898.36 46.0426 L1900.92 46.6097 Q1908.86 48.3111 1912.18 51.4303 Q1915.54 54.509 1915.54 60.0587 Q1915.54 66.3781 1910.52 70.0644 Q1905.53 73.7508 1896.78 73.7508 Q1893.14 73.7508 1889.17 73.0216 Q1885.24 72.3329 1880.86 70.9151 L1880.86 63.2184 Q1885 65.3654 1889.01 66.4591 Q1893.02 67.5124 1896.95 67.5124 Q1902.21 67.5124 1905.05 65.73 Q1907.88 63.9071 1907.88 60.6258 Q1907.88 57.5877 1905.82 55.9673 Q1903.79 54.3469 1896.87 52.8481 L1894.27 52.2405 Q1887.35 50.7821 1884.27 47.7845 Q1881.19 44.7463 1881.19 39.4801 Q1881.19 33.0797 1885.73 29.5959 Q1890.26 26.1121 1898.61 26.1121 Q1902.74 26.1121 1906.39 26.7198 Q1910.03 27.3274 1913.11 28.5427 Z" fill="#000000" fill-rule="evenodd" fill-opacity="1" /><path clip-path="url(#clip370)" d="M1954.75 34.9026 L2006.69 34.9026 L2006.69 41.7081 L1954.75 41.7081 L1954.75 34.9026 M1954.75 51.4303 L2006.69 51.4303 L2006.69 58.3168 L1954.75 58.3168 L1954.75 51.4303 Z" fill="#000000" fill-rule="evenodd" fill-opacity="1" /><path clip-path="url(#clip370)" d="M2050.96 71.3202 L2050.96 63.8666 Q2054.04 65.3249 2057.2 66.0946 Q2060.36 66.8642 2063.4 66.8642 Q2071.5 66.8642 2075.75 61.436 Q2080.05 55.9673 2080.66 44.8678 Q2078.31 48.3516 2074.7 50.215 Q2071.09 52.0784 2066.72 52.0784 Q2057.65 52.0784 2052.34 46.6097 Q2047.07 41.1005 2047.07 31.5808 Q2047.07 22.2638 2052.58 16.633 Q2058.09 11.0023 2067.25 11.0023 Q2077.74 11.0023 2083.25 19.0636 Q2088.8 27.0843 2088.8 42.3968 Q2088.8 56.6965 2081.99 65.2439 Q2075.23 73.7508 2063.76 73.7508 Q2060.68 73.7508 2057.52 73.1431 Q2054.36 72.5355 2050.96 71.3202 M2067.25 45.678 Q2072.76 45.678 2075.96 41.9107 Q2079.2 38.1433 2079.2 31.5808 Q2079.2 25.0589 2075.96 21.2916 Q2072.76 17.4837 2067.25 17.4837 Q2061.74 17.4837 2058.5 21.2916 Q2055.3 25.0589 2055.3 31.5808 Q2055.3 38.1433 2058.5 41.9107 Q2061.74 45.678 2067.25 45.678 Z" fill="#000000" fill-rule="evenodd" fill-opacity="1" /><path clip-path="url(#clip370)" d="M2101.27 9.62495 L2107.76 9.62495 Q2113.83 19.1851 2116.83 28.3401 Q2119.87 37.4952 2119.87 46.5287 Q2119.87 55.6027 2116.83 64.7983 Q2113.83 73.9938 2107.76 83.5134 L2101.27 83.5134 Q2106.66 74.2369 2109.29 65.0818 Q2111.97 55.8863 2111.97 46.5287 Q2111.97 37.1711 2109.29 28.0566 Q2106.66 18.942 2101.27 9.62495 Z" fill="#000000" fill-rule="evenodd" fill-opacity="1" /><circle clip-path="url(#clip372)" cx="1140.08" cy="1163.93" r="14" fill="#ff0000" fill-rule="evenodd" fill-opacity="1" stroke="#000000" stroke-opacity="1" stroke-width="4.8"/>
<circle clip-path="url(#clip372)" cx="929.031" cy="1340.71" r="14" fill="#ff0000" fill-rule="evenodd" fill-opacity="1" stroke="#000000" stroke-opacity="1" stroke-width="4.8"/>
<circle clip-path="url(#clip372)" cx="1264.03" cy="1242.22" r="14" fill="#ff0000" fill-rule="evenodd" fill-opacity="1" stroke="#000000" stroke-opacity="1" stroke-width="4.8"/>
<circle clip-path="url(#clip372)" cx="851.982" cy="1588.22" r="14" fill="#ff0000" fill-rule="evenodd" fill-opacity="1" stroke="#000000" stroke-opacity="1" stroke-width="4.8"/>
<circle clip-path="url(#clip372)" cx="1515.27" cy="810.351" r="14" fill="#ff0000" fill-rule="evenodd" fill-opacity="1" stroke="#000000" stroke-opacity="1" stroke-width="4.8"/>
<circle clip-path="url(#clip372)" cx="1090.25" cy="1416.48" r="14" fill="#ff0000" fill-rule="evenodd" fill-opacity="1" stroke="#000000" stroke-opacity="1" stroke-width="4.8"/>
<circle clip-path="url(#clip372)" cx="901.394" cy="1378.6" r="14" fill="#ff0000" fill-rule="evenodd" fill-opacity="1" stroke="#000000" stroke-opacity="1" stroke-width="4.8"/>
<circle clip-path="url(#clip372)" cx="856.589" cy="1671.56" r="14" fill="#ff0000" fill-rule="evenodd" fill-opacity="1" stroke="#000000" stroke-opacity="1" stroke-width="4.8"/>
<circle clip-path="url(#clip372)" cx="836.908" cy="1638.73" r="14" fill="#ff0000" fill-rule="evenodd" fill-opacity="1" stroke="#000000" stroke-opacity="1" stroke-width="4.8"/>
<circle clip-path="url(#clip372)" cx="884.644" cy="1562.96" r="14" fill="#ff0000" fill-rule="evenodd" fill-opacity="1" stroke="#000000" stroke-opacity="1" stroke-width="4.8"/>
<circle clip-path="url(#clip372)" cx="1071.4" cy="1568.01" r="14" fill="#ff0000" fill-rule="evenodd" fill-opacity="1" stroke="#000000" stroke-opacity="1" stroke-width="4.8"/>
<circle clip-path="url(#clip372)" cx="1096.53" cy="1297.78" r="14" fill="#ff0000" fill-rule="evenodd" fill-opacity="1" stroke="#000000" stroke-opacity="1" stroke-width="4.8"/>
<circle clip-path="url(#clip372)" cx="1050.47" cy="1340.71" r="14" fill="#ff0000" fill-rule="evenodd" fill-opacity="1" stroke="#000000" stroke-opacity="1" stroke-width="4.8"/>
<circle clip-path="url(#clip372)" cx="2134.17" cy="406.266" r="14" fill="#ff0000" fill-rule="evenodd" fill-opacity="1" stroke="#000000" stroke-opacity="1" stroke-width="4.8"/>
<circle clip-path="url(#clip372)" cx="790.008" cy="1517.5" r="14" fill="#ff0000" fill-rule="evenodd" fill-opacity="1" stroke="#000000" stroke-opacity="1" stroke-width="4.8"/>
<circle clip-path="url(#clip372)" cx="1222.15" cy="1037.65" r="14" fill="#ff0000" fill-rule="evenodd" fill-opacity="1" stroke="#000000" stroke-opacity="1" stroke-width="4.8"/>
<circle clip-path="url(#clip372)" cx="811.783" cy="1416.48" r="14" fill="#ff0000" fill-rule="evenodd" fill-opacity="1" stroke="#000000" stroke-opacity="1" stroke-width="4.8"/>
<circle clip-path="url(#clip372)" cx="776.609" cy="1669.03" r="14" fill="#ff0000" fill-rule="evenodd" fill-opacity="1" stroke="#000000" stroke-opacity="1" stroke-width="4.8"/>
<circle clip-path="url(#clip372)" cx="1351.54" cy="911.373" r="14" fill="#ff0000" fill-rule="evenodd" fill-opacity="1" stroke="#000000" stroke-opacity="1" stroke-width="4.8"/>
<circle clip-path="url(#clip372)" cx="1528.25" cy="661.345" r="14" fill="#ff0000" fill-rule="evenodd" fill-opacity="1" stroke="#000000" stroke-opacity="1" stroke-width="4.8"/>
<circle clip-path="url(#clip372)" cx="998.961" cy="1535.18" r="14" fill="#ff0000" fill-rule="evenodd" fill-opacity="1" stroke="#000000" stroke-opacity="1" stroke-width="4.8"/>
<circle clip-path="url(#clip372)" cx="1049.63" cy="1530.13" r="14" fill="#ff0000" fill-rule="evenodd" fill-opacity="1" stroke="#000000" stroke-opacity="1" stroke-width="4.8"/>
<circle clip-path="url(#clip372)" cx="930.706" cy="1560.43" r="14" fill="#ff0000" fill-rule="evenodd" fill-opacity="1" stroke="#000000" stroke-opacity="1" stroke-width="4.8"/>
<circle clip-path="url(#clip372)" cx="1080.62" cy="1517.5" r="14" fill="#ff0000" fill-rule="evenodd" fill-opacity="1" stroke="#000000" stroke-opacity="1" stroke-width="4.8"/>
<circle clip-path="url(#clip372)" cx="1887.95" cy="724.483" r="14" fill="#ff0000" fill-rule="evenodd" fill-opacity="1" stroke="#000000" stroke-opacity="1" stroke-width="4.8"/>
<circle clip-path="url(#clip372)" cx="719.66" cy="1542.76" r="14" fill="#ff0000" fill-rule="evenodd" fill-opacity="1" stroke="#000000" stroke-opacity="1" stroke-width="4.8"/>
<circle clip-path="url(#clip372)" cx="869.57" cy="1002.29" r="14" fill="#ff0000" fill-rule="evenodd" fill-opacity="1" stroke="#000000" stroke-opacity="1" stroke-width="4.8"/>
<circle clip-path="url(#clip372)" cx="1316.79" cy="989.664" r="14" fill="#ff0000" fill-rule="evenodd" fill-opacity="1" stroke="#000000" stroke-opacity="1" stroke-width="4.8"/>
<circle clip-path="url(#clip372)" cx="1180.28" cy="974.511" r="14" fill="#ff0000" fill-rule="evenodd" fill-opacity="1" stroke="#000000" stroke-opacity="1" stroke-width="4.8"/>
<circle clip-path="url(#clip372)" cx="1363.27" cy="1416.48" r="14" fill="#ff0000" fill-rule="evenodd" fill-opacity="1" stroke="#000000" stroke-opacity="1" stroke-width="4.8"/>
<circle clip-path="url(#clip372)" cx="1029.11" cy="1290.2" r="14" fill="#ff0000" fill-rule="evenodd" fill-opacity="1" stroke="#000000" stroke-opacity="1" stroke-width="4.8"/>
<circle clip-path="url(#clip372)" cx="677.785" cy="1744.8" r="14" fill="#ff0000" fill-rule="evenodd" fill-opacity="1" stroke="#000000" stroke-opacity="1" stroke-width="4.8"/>
<circle clip-path="url(#clip372)" cx="1113.28" cy="1378.6" r="14" fill="#ff0000" fill-rule="evenodd" fill-opacity="1" stroke="#000000" stroke-opacity="1" stroke-width="4.8"/>
<circle clip-path="url(#clip372)" cx="1572.64" cy="709.33" r="14" fill="#ff0000" fill-rule="evenodd" fill-opacity="1" stroke="#000000" stroke-opacity="1" stroke-width="4.8"/>
<circle clip-path="url(#clip372)" cx="1017.39" cy="1451.84" r="14" fill="#ff0000" fill-rule="evenodd" fill-opacity="1" stroke="#000000" stroke-opacity="1" stroke-width="4.8"/>
<circle clip-path="url(#clip372)" cx="860.776" cy="1542.76" r="14" fill="#ff0000" fill-rule="evenodd" fill-opacity="1" stroke="#000000" stroke-opacity="1" stroke-width="4.8"/>
<circle clip-path="url(#clip372)" cx="777.865" cy="1593.27" r="14" fill="#ff0000" fill-rule="evenodd" fill-opacity="1" stroke="#000000" stroke-opacity="1" stroke-width="4.8"/>
<circle clip-path="url(#clip372)" cx="1151.8" cy="1302.83" r="14" fill="#ff0000" fill-rule="evenodd" fill-opacity="1" stroke="#000000" stroke-opacity="1" stroke-width="4.8"/>
<circle clip-path="url(#clip372)" cx="2024.04" cy="787.621" r="14" fill="#ff0000" fill-rule="evenodd" fill-opacity="1" stroke="#000000" stroke-opacity="1" stroke-width="4.8"/>
<circle clip-path="url(#clip372)" cx="1164.36" cy="1449.31" r="14" fill="#ff0000" fill-rule="evenodd" fill-opacity="1" stroke="#000000" stroke-opacity="1" stroke-width="4.8"/>
<circle clip-path="url(#clip372)" cx="955.831" cy="1244.74" r="14" fill="#ff0000" fill-rule="evenodd" fill-opacity="1" stroke="#000000" stroke-opacity="1" stroke-width="4.8"/>
<circle clip-path="url(#clip372)" cx="1196.19" cy="1340.71" r="14" fill="#ff0000" fill-rule="evenodd" fill-opacity="1" stroke="#000000" stroke-opacity="1" stroke-width="4.8"/>
<circle clip-path="url(#clip372)" cx="1333.96" cy="1381.12" r="14" fill="#ff0000" fill-rule="evenodd" fill-opacity="1" stroke="#000000" stroke-opacity="1" stroke-width="4.8"/>
<circle clip-path="url(#clip372)" cx="761.534" cy="1419" r="14" fill="#ff0000" fill-rule="evenodd" fill-opacity="1" stroke="#000000" stroke-opacity="1" stroke-width="4.8"/>
<circle clip-path="url(#clip372)" cx="615.812" cy="1719.54" r="14" fill="#ff0000" fill-rule="evenodd" fill-opacity="1" stroke="#000000" stroke-opacity="1" stroke-width="4.8"/>
<circle clip-path="url(#clip372)" cx="1034.55" cy="1416.48" r="14" fill="#ff0000" fill-rule="evenodd" fill-opacity="1" stroke="#000000" stroke-opacity="1" stroke-width="4.8"/>
<circle clip-path="url(#clip372)" cx="762.79" cy="1568.01" r="14" fill="#ff0000" fill-rule="evenodd" fill-opacity="1" stroke="#000000" stroke-opacity="1" stroke-width="4.8"/>
<polyline clip-path="url(#clip372)" style="stroke:#0000ff; stroke-linecap:butt; stroke-linejoin:round; stroke-width:12; stroke-opacity:1; fill:none" points="
  1140.08,2174.14 929.031,2174.14 1264.03,2174.14 851.982,2174.14 1515.27,2174.14 1090.25,2174.14 901.394,2174.14 856.589,2174.14 836.908,2174.14 884.644,2174.14 
  1071.4,2174.14 1096.53,2174.14 1050.47,2174.14 2134.17,2174.14 790.008,2174.14 1222.15,2174.14 811.783,2174.14 776.609,2174.14 1351.54,2174.14 1528.25,2174.14 
  998.961,2174.14 1049.63,2174.14 930.706,2174.14 1080.62,2174.14 1887.95,2174.14 719.66,2174.14 869.57,2174.14 1316.79,2174.14 1180.28,2174.14 1363.27,2174.14 
  1029.11,2174.14 677.785,2174.14 1113.28,2174.14 1572.64,2174.14 1017.39,2174.14 860.776,2174.14 777.865,2174.14 1151.8,2174.14 2024.04,2174.14 1164.36,2174.14 
  955.831,2174.14 1196.19,2174.14 1333.96,2174.14 761.534,2174.14 615.812,2174.14 1034.55,2174.14 762.79,2174.14 
  "/>
<polyline clip-path="url(#clip372)" style="stroke:#0000ff; stroke-linecap:butt; stroke-linejoin:round; stroke-width:4; stroke-opacity:0.5; fill:none" points="
  1140.08,1771.86 929.031,1849.69 1264.03,1726.15 851.982,1878.1 1515.27,1633.5 1090.25,1790.24 901.394,1859.88 856.589,1876.4 836.908,1883.66 884.644,1866.06 
  1071.4,1797.19 1096.53,1787.92 1050.47,1804.91 2134.17,1405.27 790.008,1900.96 1222.15,1741.6 811.783,1892.93 776.609,1905.9 1351.54,1693.88 1528.25,1628.72 
  998.961,1823.9 1049.63,1805.22 930.706,1849.07 1080.62,1793.79 1887.95,1496.07 719.66,1926.9 869.57,1871.62 1316.79,1706.7 1180.28,1757.04 1363.27,1689.56 
  1029.11,1812.78 677.785,1942.34 1113.28,1781.74 1572.64,1612.35 1017.39,1817.11 860.776,1874.86 777.865,1905.43 1151.8,1767.54 2024.04,1445.89 1164.36,1762.91 
  955.831,1839.81 1196.19,1751.17 1333.96,1700.37 761.534,1911.46 615.812,1965.19 1034.55,1810.78 762.79,1910.99 
  "/>
<polyline clip-path="url(#clip372)" style="stroke:#0000ff; stroke-linecap:butt; stroke-linejoin:round; stroke-width:4; stroke-opacity:0.5; fill:none" points="
  1140.08,1550.52 929.031,1671.16 1264.03,1479.66 851.982,1715.2 1515.27,1336.04 1090.25,1579 901.394,1686.95 856.589,1712.57 836.908,1723.82 884.644,1696.53 
  1071.4,1589.77 1096.53,1575.41 1050.47,1601.74 2134.17,982.259 790.008,1750.63 1222.15,1503.6 811.783,1738.18 776.609,1758.29 1351.54,1429.64 1528.25,1328.62 
  998.961,1631.18 1049.63,1602.22 930.706,1670.2 1080.62,1584.51 1887.95,1123.01 719.66,1790.84 869.57,1705.15 1316.79,1449.5 1180.28,1527.54 1363.27,1422.93 
  1029.11,1613.95 677.785,1814.78 1113.28,1565.84 1572.64,1303.25 1017.39,1620.65 860.776,1710.17 777.865,1757.57 1151.8,1543.81 2024.04,1045.21 1164.36,1536.63 
  955.831,1655.84 1196.19,1518.44 1333.96,1439.69 761.534,1766.9 615.812,1850.2 1034.55,1610.84 762.79,1766.18 
  "/>
<polyline clip-path="url(#clip372)" style="stroke:#0000ff; stroke-linecap:butt; stroke-linejoin:round; stroke-width:4; stroke-opacity:0.5; fill:none" points="
  1140.08,1428.72 929.031,1572.91 1264.03,1344.04 851.982,1625.55 1515.27,1172.38 1090.25,1462.77 901.394,1591.79 856.589,1622.41 836.908,1635.85 884.644,1603.24 
  1071.4,1475.64 1096.53,1458.48 1050.47,1489.95 2134.17,749.539 790.008,1667.9 1222.15,1372.65 811.783,1653.02 776.609,1677.05 1351.54,1284.25 1528.25,1163.51 
  998.961,1525.14 1049.63,1490.52 930.706,1571.77 1080.62,1469.35 1887.95,917.761 719.66,1715.96 869.57,1613.54 1316.79,1307.99 1180.28,1401.26 1363.27,1276.23 
  1029.11,1504.54 677.785,1744.57 1113.28,1447.03 1572.64,1133.19 1017.39,1512.55 860.776,1619.55 777.865,1676.19 1151.8,1420.71 2024.04,824.781 1164.36,1412.13 
  955.831,1554.6 1196.19,1390.39 1333.96,1296.26 761.534,1687.35 615.812,1786.91 1034.55,1500.82 762.79,1686.49 
  "/>
<polyline clip-path="url(#clip372)" style="stroke:#0000ff; stroke-linecap:butt; stroke-linejoin:round; stroke-width:4; stroke-opacity:0.5; fill:none" points="
  1140.08,1361.71 929.031,1518.85 1264.03,1269.42 851.982,1576.22 1515.27,1082.35 1090.25,1398.81 901.394,1539.42 856.589,1572.79 836.908,1587.44 884.644,1551.9 
  1071.4,1412.84 1096.53,1394.13 1050.47,1428.43 2134.17,621.525 790.008,1622.36 1222.15,1300.6 811.783,1606.15 776.609,1632.34 1351.54,1204.25 1528.25,1072.68 
  998.961,1466.78 1049.63,1429.05 930.706,1517.6 1080.62,1405.98 1887.95,804.855 719.66,1674.74 869.57,1563.12 1316.79,1230.13 1180.28,1331.77 1363.27,1195.52 
  1029.11,1444.33 677.785,1705.92 1113.28,1381.66 1572.64,1039.63 1017.39,1453.06 860.776,1569.67 777.865,1631.4 1151.8,1352.98 2024.04,703.524 1164.36,1343.62 
  955.831,1498.89 1196.19,1319.93 1333.96,1217.35 761.534,1643.56 615.812,1752.06 1034.55,1440.28 762.79,1642.63 
  "/>
<polyline clip-path="url(#clip372)" style="stroke:#0000ff; stroke-linecap:butt; stroke-linejoin:round; stroke-width:4; stroke-opacity:0.5; fill:none" points="
  1140.08,1324.83 929.031,1489.09 1264.03,1228.36 851.982,1549.05 1515.27,1032.82 1090.25,1363.61 901.394,1510.6 856.589,1545.47 836.908,1560.79 884.644,1523.63 
  1071.4,1378.28 1096.53,1358.72 1050.47,1394.57 2134.17,551.122 790.008,1597.29 1222.15,1260.95 811.783,1580.34 776.609,1607.72 1351.54,1160.25 1528.25,1022.71 
  998.961,1434.66 1049.63,1395.23 930.706,1487.78 1080.62,1371.11 1887.95,742.756 719.66,1652.04 869.57,1535.37 1316.79,1187.3 1180.28,1293.54 1363.27,1151.12 
  1029.11,1411.2 677.785,1684.63 1113.28,1345.69 1572.64,988.166 1017.39,1420.32 860.776,1542.21 777.865,1606.74 1151.8,1315.7 2024.04,636.836 1164.36,1305.93 
  955.831,1468.23 1196.19,1281.16 1333.96,1173.93 761.534,1619.45 615.812,1732.87 1034.55,1406.96 762.79,1618.47 
  "/>
<polyline clip-path="url(#clip372)" style="stroke:#0000ff; stroke-linecap:butt; stroke-linejoin:round; stroke-width:4; stroke-opacity:0.5; fill:none" points="
  1140.08,1304.54 929.031,1472.7 1264.03,1205.77 851.982,1534.1 1515.27,1005.57 1090.25,1344.24 901.394,1494.73 856.589,1530.43 836.908,1546.11 884.644,1508.07 
  1071.4,1359.26 1096.53,1339.24 1050.47,1375.94 2134.17,512.418 790.008,1583.48 1222.15,1239.14 811.783,1566.13 776.609,1594.16 1351.54,1136.04 1528.25,995.23 
  998.961,1416.98 1049.63,1376.61 930.706,1471.37 1080.62,1351.92 1887.95,708.613 719.66,1639.54 869.57,1520.08 1316.79,1163.73 1180.28,1272.51 1363.27,1126.69 
  1029.11,1392.96 677.785,1672.9 1113.28,1325.89 1572.64,959.862 1017.39,1402.3 860.776,1527.09 777.865,1593.16 1151.8,1295.19 2024.04,600.172 1164.36,1285.18 
  955.831,1451.35 1196.19,1259.83 1333.96,1150.05 761.534,1606.17 615.812,1722.28 1034.55,1388.62 762.79,1605.17 
  "/>
<polyline clip-path="url(#clip372)" style="stroke:#0000ff; stroke-linecap:butt; stroke-linejoin:round; stroke-width:4; stroke-opacity:0.5; fill:none" points="
  1140.08,1293.37 929.031,1463.68 1264.03,1193.35 851.982,1525.86 1515.27,990.596 1090.25,1333.58 901.394,1485.98 856.589,1522.14 836.908,1538.02 884.644,1499.5 
  1071.4,1348.79 1096.53,1328.51 1050.47,1365.68 2134.17,491.156 790.008,1575.87 1222.15,1227.14 811.783,1558.3 776.609,1586.68 1351.54,1122.72 1528.25,980.121 
  998.961,1407.25 1049.63,1366.36 930.706,1462.33 1080.62,1341.35 1887.95,689.851 719.66,1632.64 869.57,1511.66 1316.79,1150.77 1180.28,1260.93 1363.27,1113.26 
  1029.11,1382.92 677.785,1666.43 1113.28,1315 1572.64,944.302 1017.39,1392.38 860.776,1518.76 777.865,1585.67 1151.8,1283.91 2024.04,580.028 1164.36,1273.77 
  955.831,1442.05 1196.19,1248.09 1333.96,1136.91 761.534,1598.85 615.812,1716.44 1034.55,1378.52 762.79,1597.83 
  "/>
<polyline clip-path="url(#clip372)" style="stroke:#0000ff; stroke-linecap:butt; stroke-linejoin:round; stroke-width:4; stroke-opacity:0.5; fill:none" points="
  1140.08,1287.22 929.031,1458.7 1264.03,1186.51 851.982,1521.31 1515.27,982.366 1090.25,1327.71 901.394,1481.16 856.589,1517.57 836.908,1533.56 884.644,1494.77 
  1071.4,1343.02 1096.53,1322.61 1050.47,1360.03 2134.17,479.49 790.008,1571.66 1222.15,1220.53 811.783,1553.97 776.609,1582.55 1351.54,1115.4 1528.25,971.819 
  998.961,1401.88 1049.63,1360.71 930.706,1457.34 1080.62,1335.54 1887.95,679.552 719.66,1628.82 869.57,1507.02 1316.79,1143.64 1180.28,1254.56 1363.27,1105.87 
  1029.11,1377.39 677.785,1662.85 1113.28,1309 1572.64,935.753 1017.39,1386.91 860.776,1514.16 777.865,1581.53 1151.8,1277.7 2024.04,568.973 1164.36,1267.49 
  955.831,1436.93 1196.19,1241.63 1333.96,1129.69 761.534,1594.8 615.812,1713.2 1034.55,1372.96 762.79,1593.78 
  "/>
<polyline clip-path="url(#clip372)" style="stroke:#0000ff; stroke-linecap:butt; stroke-linejoin:round; stroke-width:4; stroke-opacity:0.5; fill:none" points="
  1140.08,1283.84 929.031,1455.96 1264.03,1182.75 851.982,1518.79 1515.27,977.849 1090.25,1324.48 901.394,1478.5 856.589,1515.04 836.908,1531.09 884.644,1492.16 
  1071.4,1339.84 1096.53,1319.35 1050.47,1356.92 2134.17,473.104 790.008,1569.34 1222.15,1216.9 811.783,1551.58 776.609,1580.26 1351.54,1111.38 1528.25,967.262 
  998.961,1398.93 1049.63,1357.6 930.706,1454.59 1080.62,1332.33 1887.95,673.909 719.66,1626.71 869.57,1504.45 1316.79,1139.72 1180.28,1251.05 1363.27,1101.82 
  1029.11,1374.34 677.785,1660.86 1113.28,1305.69 1572.64,931.063 1017.39,1383.9 860.776,1511.62 777.865,1579.24 1151.8,1274.28 2024.04,562.92 1164.36,1264.03 
  955.831,1434.1 1196.19,1238.08 1333.96,1125.72 761.534,1592.56 615.812,1711.4 1034.55,1369.9 762.79,1591.53 
  "/>
</svg>
