<svg xmlns="http://www.w3.org/2000/svg" xmlns:xlink="http://www.w3.org/1999/xlink" width="600" height="600" viewBox="0 0 2400 2400">
<defs>
  <clipPath id="clip270">
    <rect x="0" y="0" width="2400" height="2400"></rect>
  </clipPath>
</defs>
<path clip-path="url(#clip270)" d="M0 2400 L2400 2400 L2400 0 L0 0  Z" fill="#ffffff" fill-rule="evenodd" fill-opacity="1"></path>
<defs>
  <clipPath id="clip271">
    <rect x="480" y="240" width="1681" height="1681"></rect>
  </clipPath>
</defs>
<path clip-path="url(#clip270)" d="M186.274 1061.17 L2352.76 1061.17 L2352.76 153.712 L186.274 153.712  Z" fill="#ffffff" fill-rule="evenodd" fill-opacity="1"></path>
<defs>
  <clipPath id="clip272">
    <rect x="186" y="153" width="2167" height="908"></rect>
  </clipPath>
</defs>
<polyline clip-path="url(#clip272)" style="stroke:#000000; stroke-linecap:round; stroke-linejoin:round; stroke-width:2; stroke-opacity:0.1; fill:none" points="186.274,1061.17 186.274,153.712 "></polyline>
<polyline clip-path="url(#clip272)" style="stroke:#000000; stroke-linecap:round; stroke-linejoin:round; stroke-width:2; stroke-opacity:0.1; fill:none" points="619.57,1061.17 619.57,153.712 "></polyline>
<polyline clip-path="url(#clip272)" style="stroke:#000000; stroke-linecap:round; stroke-linejoin:round; stroke-width:2; stroke-opacity:0.1; fill:none" points="1052.87,1061.17 1052.87,153.712 "></polyline>
<polyline clip-path="url(#clip272)" style="stroke:#000000; stroke-linecap:round; stroke-linejoin:round; stroke-width:2; stroke-opacity:0.1; fill:none" points="1486.16,1061.17 1486.16,153.712 "></polyline>
<polyline clip-path="url(#clip272)" style="stroke:#000000; stroke-linecap:round; stroke-linejoin:round; stroke-width:2; stroke-opacity:0.1; fill:none" points="1919.46,1061.17 1919.46,153.712 "></polyline>
<polyline clip-path="url(#clip272)" style="stroke:#000000; stroke-linecap:round; stroke-linejoin:round; stroke-width:2; stroke-opacity:0.1; fill:none" points="2352.76,1061.17 2352.76,153.712 "></polyline>
<polyline clip-path="url(#clip270)" style="stroke:#000000; stroke-linecap:round; stroke-linejoin:round; stroke-width:4; stroke-opacity:1; fill:none" points="186.274,1061.17 2352.76,1061.17 "></polyline>
<polyline clip-path="url(#clip270)" style="stroke:#000000; stroke-linecap:round; stroke-linejoin:round; stroke-width:4; stroke-opacity:1; fill:none" points="186.274,1061.17 186.274,1042.27 "></polyline>
<polyline clip-path="url(#clip270)" style="stroke:#000000; stroke-linecap:round; stroke-linejoin:round; stroke-width:4; stroke-opacity:1; fill:none" points="619.57,1061.17 619.57,1042.27 "></polyline>
<polyline clip-path="url(#clip270)" style="stroke:#000000; stroke-linecap:round; stroke-linejoin:round; stroke-width:4; stroke-opacity:1; fill:none" points="1052.87,1061.17 1052.87,1042.27 "></polyline>
<polyline clip-path="url(#clip270)" style="stroke:#000000; stroke-linecap:round; stroke-linejoin:round; stroke-width:4; stroke-opacity:1; fill:none" points="1486.16,1061.17 1486.16,1042.27 "></polyline>
<polyline clip-path="url(#clip270)" style="stroke:#000000; stroke-linecap:round; stroke-linejoin:round; stroke-width:4; stroke-opacity:1; fill:none" points="1919.46,1061.17 1919.46,1042.27 "></polyline>
<polyline clip-path="url(#clip270)" style="stroke:#000000; stroke-linecap:round; stroke-linejoin:round; stroke-width:4; stroke-opacity:1; fill:none" points="2352.76,1061.17 2352.76,1042.27 "></polyline>
<path clip-path="url(#clip270)" d="M163.658 1092.09 Q160.047 1092.09 158.219 1095.65 Q156.413 1099.19 156.413 1106.32 Q156.413 1113.43 158.219 1116.99 Q160.047 1120.54 163.658 1120.54 Q167.293 1120.54 169.098 1116.99 Q170.927 1113.43 170.927 1106.32 Q170.927 1099.19 169.098 1095.65 Q167.293 1092.09 163.658 1092.09 M163.658 1088.38 Q169.469 1088.38 172.524 1092.99 Q175.603 1097.57 175.603 1106.32 Q175.603 1115.05 172.524 1119.66 Q169.469 1124.24 163.658 1124.24 Q157.848 1124.24 154.77 1119.66 Q151.714 1115.05 151.714 1106.32 Q151.714 1097.57 154.77 1092.99 Q157.848 1088.38 163.658 1088.38 Z" fill="#000000" fill-rule="nonzero" fill-opacity="1"></path><path clip-path="url(#clip270)" d="M183.82 1117.69 L188.705 1117.69 L188.705 1123.57 L183.82 1123.57 L183.82 1117.69 Z" fill="#000000" fill-rule="nonzero" fill-opacity="1"></path><path clip-path="url(#clip270)" d="M208.89 1092.09 Q205.279 1092.09 203.45 1095.65 Q201.644 1099.19 201.644 1106.32 Q201.644 1113.43 203.45 1116.99 Q205.279 1120.54 208.89 1120.54 Q212.524 1120.54 214.329 1116.99 Q216.158 1113.43 216.158 1106.32 Q216.158 1099.19 214.329 1095.65 Q212.524 1092.09 208.89 1092.09 M208.89 1088.38 Q214.7 1088.38 217.755 1092.99 Q220.834 1097.57 220.834 1106.32 Q220.834 1115.05 217.755 1119.66 Q214.7 1124.24 208.89 1124.24 Q203.079 1124.24 200.001 1119.66 Q196.945 1115.05 196.945 1106.32 Q196.945 1097.57 200.001 1092.99 Q203.079 1088.38 208.89 1088.38 Z" fill="#000000" fill-rule="nonzero" fill-opacity="1"></path><path clip-path="url(#clip270)" d="M597.753 1092.09 Q594.142 1092.09 592.314 1095.65 Q590.508 1099.19 590.508 1106.32 Q590.508 1113.43 592.314 1116.99 Q594.142 1120.54 597.753 1120.54 Q601.388 1120.54 603.193 1116.99 Q605.022 1113.43 605.022 1106.32 Q605.022 1099.19 603.193 1095.65 Q601.388 1092.09 597.753 1092.09 M597.753 1088.38 Q603.564 1088.38 606.619 1092.99 Q609.698 1097.57 609.698 1106.32 Q609.698 1115.05 606.619 1119.66 Q603.564 1124.24 597.753 1124.24 Q591.943 1124.24 588.865 1119.66 Q585.809 1115.05 585.809 1106.32 Q585.809 1097.57 588.865 1092.99 Q591.943 1088.38 597.753 1088.38 Z" fill="#000000" fill-rule="nonzero" fill-opacity="1"></path><path clip-path="url(#clip270)" d="M617.915 1117.69 L622.8 1117.69 L622.8 1123.57 L617.915 1123.57 L617.915 1117.69 Z" fill="#000000" fill-rule="nonzero" fill-opacity="1"></path><path clip-path="url(#clip270)" d="M637.012 1119.63 L653.332 1119.63 L653.332 1123.57 L631.387 1123.57 L631.387 1119.63 Q634.049 1116.88 638.633 1112.25 Q643.239 1107.6 644.42 1106.25 Q646.665 1103.73 647.545 1101.99 Q648.448 1100.23 648.448 1098.54 Q648.448 1095.79 646.503 1094.05 Q644.582 1092.32 641.48 1092.32 Q639.281 1092.32 636.827 1093.08 Q634.397 1093.85 631.619 1095.4 L631.619 1090.67 Q634.443 1089.54 636.897 1088.96 Q639.35 1088.38 641.387 1088.38 Q646.758 1088.38 649.952 1091.07 Q653.147 1093.75 653.147 1098.24 Q653.147 1100.37 652.336 1102.29 Q651.549 1104.19 649.443 1106.79 Q648.864 1107.46 645.762 1110.67 Q642.661 1113.87 637.012 1119.63 Z" fill="#000000" fill-rule="nonzero" fill-opacity="1"></path><path clip-path="url(#clip270)" d="M1030.01 1092.09 Q1026.4 1092.09 1024.57 1095.65 Q1022.76 1099.19 1022.76 1106.32 Q1022.76 1113.43 1024.57 1116.99 Q1026.4 1120.54 1030.01 1120.54 Q1033.64 1120.54 1035.45 1116.99 Q1037.28 1113.43 1037.28 1106.32 Q1037.28 1099.19 1035.45 1095.65 Q1033.64 1092.09 1030.01 1092.09 M1030.01 1088.38 Q1035.82 1088.38 1038.87 1092.99 Q1041.95 1097.57 1041.95 1106.32 Q1041.95 1115.05 1038.87 1119.66 Q1035.82 1124.24 1030.01 1124.24 Q1024.2 1124.24 1021.12 1119.66 Q1018.06 1115.05 1018.06 1106.32 Q1018.06 1097.57 1021.12 1092.99 Q1024.2 1088.38 1030.01 1088.38 Z" fill="#000000" fill-rule="nonzero" fill-opacity="1"></path><path clip-path="url(#clip270)" d="M1050.17 1117.69 L1055.05 1117.69 L1055.05 1123.57 L1050.17 1123.57 L1050.17 1117.69 Z" fill="#000000" fill-rule="nonzero" fill-opacity="1"></path><path clip-path="url(#clip270)" d="M1078.09 1093.08 L1066.28 1111.53 L1078.09 1111.53 L1078.09 1093.08 M1076.86 1089.01 L1082.74 1089.01 L1082.74 1111.53 L1087.67 1111.53 L1087.67 1115.42 L1082.74 1115.42 L1082.74 1123.57 L1078.09 1123.57 L1078.09 1115.42 L1062.48 1115.42 L1062.48 1110.91 L1076.86 1089.01 Z" fill="#000000" fill-rule="nonzero" fill-opacity="1"></path><path clip-path="url(#clip270)" d="M1463.47 1092.09 Q1459.86 1092.09 1458.03 1095.65 Q1456.22 1099.19 1456.22 1106.32 Q1456.22 1113.43 1458.03 1116.99 Q1459.86 1120.54 1463.47 1120.54 Q1467.1 1120.54 1468.91 1116.99 Q1470.73 1113.43 1470.73 1106.32 Q1470.73 1099.19 1468.91 1095.65 Q1467.1 1092.09 1463.47 1092.09 M1463.47 1088.38 Q1469.28 1088.38 1472.33 1092.99 Q1475.41 1097.57 1475.41 1106.32 Q1475.41 1115.05 1472.33 1119.66 Q1469.28 1124.24 1463.47 1124.24 Q1457.66 1124.24 1454.58 1119.66 Q1451.52 1115.05 1451.52 1106.32 Q1451.52 1097.57 1454.58 1092.99 Q1457.66 1088.38 1463.47 1088.38 Z" fill="#000000" fill-rule="nonzero" fill-opacity="1"></path><path clip-path="url(#clip270)" d="M1483.63 1117.69 L1488.51 1117.69 L1488.51 1123.57 L1483.63 1123.57 L1483.63 1117.69 Z" fill="#000000" fill-rule="nonzero" fill-opacity="1"></path><path clip-path="url(#clip270)" d="M1509.28 1104.42 Q1506.13 1104.42 1504.28 1106.58 Q1502.45 1108.73 1502.45 1112.48 Q1502.45 1116.21 1504.28 1118.38 Q1506.13 1120.54 1509.28 1120.54 Q1512.42 1120.54 1514.25 1118.38 Q1516.11 1116.21 1516.11 1112.48 Q1516.11 1108.73 1514.25 1106.58 Q1512.42 1104.42 1509.28 1104.42 M1518.56 1089.77 L1518.56 1094.03 Q1516.8 1093.2 1514.99 1092.76 Q1513.21 1092.32 1511.45 1092.32 Q1506.82 1092.32 1504.37 1095.44 Q1501.94 1098.57 1501.59 1104.89 Q1502.96 1102.87 1505.02 1101.81 Q1507.08 1100.72 1509.55 1100.72 Q1514.76 1100.72 1517.77 1103.89 Q1520.8 1107.04 1520.8 1112.48 Q1520.8 1117.8 1517.66 1121.02 Q1514.51 1124.24 1509.28 1124.24 Q1503.28 1124.24 1500.11 1119.66 Q1496.94 1115.05 1496.94 1106.32 Q1496.94 1098.13 1500.83 1093.27 Q1504.72 1088.38 1511.27 1088.38 Q1513.03 1088.38 1514.81 1088.73 Q1516.61 1089.08 1518.56 1089.77 Z" fill="#000000" fill-rule="nonzero" fill-opacity="1"></path><path clip-path="url(#clip270)" d="M1896.89 1092.09 Q1893.28 1092.09 1891.45 1095.65 Q1889.64 1099.19 1889.64 1106.32 Q1889.64 1113.43 1891.45 1116.99 Q1893.28 1120.54 1896.89 1120.54 Q1900.52 1120.54 1902.33 1116.99 Q1904.16 1113.43 1904.16 1106.32 Q1904.16 1099.19 1902.33 1095.65 Q1900.52 1092.09 1896.89 1092.09 M1896.89 1088.38 Q1902.7 1088.38 1905.76 1092.99 Q1908.83 1097.57 1908.83 1106.32 Q1908.83 1115.05 1905.76 1119.66 Q1902.7 1124.24 1896.89 1124.24 Q1891.08 1124.24 1888 1119.66 Q1884.95 1115.05 1884.95 1106.32 Q1884.95 1097.57 1888 1092.99 Q1891.08 1088.38 1896.89 1088.38 Z" fill="#000000" fill-rule="nonzero" fill-opacity="1"></path><path clip-path="url(#clip270)" d="M1917.05 1117.69 L1921.94 1117.69 L1921.94 1123.57 L1917.05 1123.57 L1917.05 1117.69 Z" fill="#000000" fill-rule="nonzero" fill-opacity="1"></path><path clip-path="url(#clip270)" d="M1942.12 1107.16 Q1938.79 1107.16 1936.87 1108.94 Q1934.97 1110.72 1934.97 1113.85 Q1934.97 1116.97 1936.87 1118.75 Q1938.79 1120.54 1942.12 1120.54 Q1945.45 1120.54 1947.38 1118.75 Q1949.3 1116.95 1949.3 1113.85 Q1949.3 1110.72 1947.38 1108.94 Q1945.48 1107.16 1942.12 1107.16 M1937.45 1105.17 Q1934.44 1104.42 1932.75 1102.36 Q1931.08 1100.3 1931.08 1097.34 Q1931.08 1093.2 1934.02 1090.79 Q1936.98 1088.38 1942.12 1088.38 Q1947.28 1088.38 1950.22 1090.79 Q1953.16 1093.2 1953.16 1097.34 Q1953.16 1100.3 1951.47 1102.36 Q1949.81 1104.42 1946.82 1105.17 Q1950.2 1105.95 1952.08 1108.24 Q1953.97 1110.54 1953.97 1113.85 Q1953.97 1118.87 1950.89 1121.55 Q1947.84 1124.24 1942.12 1124.24 Q1936.4 1124.24 1933.33 1121.55 Q1930.27 1118.87 1930.27 1113.85 Q1930.27 1110.54 1932.17 1108.24 Q1934.07 1105.95 1937.45 1105.17 M1935.73 1097.78 Q1935.73 1100.47 1937.4 1101.97 Q1939.09 1103.48 1942.12 1103.48 Q1945.13 1103.48 1946.82 1101.97 Q1948.53 1100.47 1948.53 1097.78 Q1948.53 1095.1 1946.82 1093.59 Q1945.13 1092.09 1942.12 1092.09 Q1939.09 1092.09 1937.4 1093.59 Q1935.73 1095.1 1935.73 1097.78 Z" fill="#000000" fill-rule="nonzero" fill-opacity="1"></path><path clip-path="url(#clip270)" d="M2319.91 1119.63 L2327.55 1119.63 L2327.55 1093.27 L2319.24 1094.93 L2319.24 1090.67 L2327.5 1089.01 L2332.18 1089.01 L2332.18 1119.63 L2339.82 1119.63 L2339.82 1123.57 L2319.91 1123.57 L2319.91 1119.63 Z" fill="#000000" fill-rule="nonzero" fill-opacity="1"></path><path clip-path="url(#clip270)" d="M2349.26 1117.69 L2354.14 1117.69 L2354.14 1123.57 L2349.26 1123.57 L2349.26 1117.69 Z" fill="#000000" fill-rule="nonzero" fill-opacity="1"></path><path clip-path="url(#clip270)" d="M2374.33 1092.09 Q2370.72 1092.09 2368.89 1095.65 Q2367.08 1099.19 2367.08 1106.32 Q2367.08 1113.43 2368.89 1116.99 Q2370.72 1120.54 2374.33 1120.54 Q2377.96 1120.54 2379.77 1116.99 Q2381.6 1113.43 2381.6 1106.32 Q2381.6 1099.19 2379.77 1095.65 Q2377.96 1092.09 2374.33 1092.09 M2374.33 1088.38 Q2380.14 1088.38 2383.2 1092.99 Q2386.27 1097.57 2386.27 1106.32 Q2386.27 1115.05 2383.2 1119.66 Q2380.14 1124.24 2374.33 1124.24 Q2368.52 1124.24 2365.44 1119.66 Q2362.39 1115.05 2362.39 1106.32 Q2362.39 1097.57 2365.44 1092.99 Q2368.52 1088.38 2374.33 1088.38 Z" fill="#000000" fill-rule="nonzero" fill-opacity="1"></path><polyline clip-path="url(#clip272)" style="stroke:#000000; stroke-linecap:round; stroke-linejoin:round; stroke-width:2; stroke-opacity:0.1; fill:none" points="186.274,1035.49 2352.76,1035.49 "></polyline>
<polyline clip-path="url(#clip272)" style="stroke:#000000; stroke-linecap:round; stroke-linejoin:round; stroke-width:2; stroke-opacity:0.1; fill:none" points="186.274,821.463 2352.76,821.463 "></polyline>
<polyline clip-path="url(#clip272)" style="stroke:#000000; stroke-linecap:round; stroke-linejoin:round; stroke-width:2; stroke-opacity:0.1; fill:none" points="186.274,607.44 2352.76,607.44 "></polyline>
<polyline clip-path="url(#clip272)" style="stroke:#000000; stroke-linecap:round; stroke-linejoin:round; stroke-width:2; stroke-opacity:0.1; fill:none" points="186.274,393.417 2352.76,393.417 "></polyline>
<polyline clip-path="url(#clip272)" style="stroke:#000000; stroke-linecap:round; stroke-linejoin:round; stroke-width:2; stroke-opacity:0.1; fill:none" points="186.274,179.395 2352.76,179.395 "></polyline>
<polyline clip-path="url(#clip270)" style="stroke:#000000; stroke-linecap:round; stroke-linejoin:round; stroke-width:4; stroke-opacity:1; fill:none" points="186.274,1061.17 186.274,153.712 "></polyline>
<polyline clip-path="url(#clip270)" style="stroke:#000000; stroke-linecap:round; stroke-linejoin:round; stroke-width:4; stroke-opacity:1; fill:none" points="186.274,1035.49 205.172,1035.49 "></polyline>
<polyline clip-path="url(#clip270)" style="stroke:#000000; stroke-linecap:round; stroke-linejoin:round; stroke-width:4; stroke-opacity:1; fill:none" points="186.274,821.463 205.172,821.463 "></polyline>
<polyline clip-path="url(#clip270)" style="stroke:#000000; stroke-linecap:round; stroke-linejoin:round; stroke-width:4; stroke-opacity:1; fill:none" points="186.274,607.44 205.172,607.44 "></polyline>
<polyline clip-path="url(#clip270)" style="stroke:#000000; stroke-linecap:round; stroke-linejoin:round; stroke-width:4; stroke-opacity:1; fill:none" points="186.274,393.417 205.172,393.417 "></polyline>
<polyline clip-path="url(#clip270)" style="stroke:#000000; stroke-linecap:round; stroke-linejoin:round; stroke-width:4; stroke-opacity:1; fill:none" points="186.274,179.395 205.172,179.395 "></polyline>
<path clip-path="url(#clip270)" d="M62.9365 1021.28 Q59.3254 1021.28 57.4967 1024.85 Q55.6912 1028.39 55.6912 1035.52 Q55.6912 1042.63 57.4967 1046.19 Q59.3254 1049.73 62.9365 1049.73 Q66.5707 1049.73 68.3763 1046.19 Q70.205 1042.63 70.205 1035.52 Q70.205 1028.39 68.3763 1024.85 Q66.5707 1021.28 62.9365 1021.28 M62.9365 1017.58 Q68.7467 1017.58 71.8022 1022.19 Q74.8809 1026.77 74.8809 1035.52 Q74.8809 1044.25 71.8022 1048.85 Q68.7467 1053.44 62.9365 1053.44 Q57.1264 1053.44 54.0477 1048.85 Q50.9921 1044.25 50.9921 1035.52 Q50.9921 1026.77 54.0477 1022.19 Q57.1264 1017.58 62.9365 1017.58 Z" fill="#000000" fill-rule="nonzero" fill-opacity="1"></path><path clip-path="url(#clip270)" d="M83.0984 1046.89 L87.9827 1046.89 L87.9827 1052.77 L83.0984 1052.77 L83.0984 1046.89 Z" fill="#000000" fill-rule="nonzero" fill-opacity="1"></path><path clip-path="url(#clip270)" d="M108.168 1021.28 Q104.557 1021.28 102.728 1024.85 Q100.922 1028.39 100.922 1035.52 Q100.922 1042.63 102.728 1046.19 Q104.557 1049.73 108.168 1049.73 Q111.802 1049.73 113.608 1046.19 Q115.436 1042.63 115.436 1035.52 Q115.436 1028.39 113.608 1024.85 Q111.802 1021.28 108.168 1021.28 M108.168 1017.58 Q113.978 1017.58 117.033 1022.19 Q120.112 1026.77 120.112 1035.52 Q120.112 1044.25 117.033 1048.85 Q113.978 1053.44 108.168 1053.44 Q102.358 1053.44 99.2789 1048.85 Q96.2234 1044.25 96.2234 1035.52 Q96.2234 1026.77 99.2789 1022.19 Q102.358 1017.58 108.168 1017.58 Z" fill="#000000" fill-rule="nonzero" fill-opacity="1"></path><path clip-path="url(#clip270)" d="M138.33 1021.28 Q134.719 1021.28 132.89 1024.85 Q131.084 1028.39 131.084 1035.52 Q131.084 1042.63 132.89 1046.19 Q134.719 1049.73 138.33 1049.73 Q141.964 1049.73 143.769 1046.19 Q145.598 1042.63 145.598 1035.52 Q145.598 1028.39 143.769 1024.85 Q141.964 1021.28 138.33 1021.28 M138.33 1017.58 Q144.14 1017.58 147.195 1022.19 Q150.274 1026.77 150.274 1035.52 Q150.274 1044.25 147.195 1048.85 Q144.14 1053.44 138.33 1053.44 Q132.519 1053.44 129.441 1048.85 Q126.385 1044.25 126.385 1035.52 Q126.385 1026.77 129.441 1022.19 Q132.519 1017.58 138.33 1017.58 Z" fill="#000000" fill-rule="nonzero" fill-opacity="1"></path><path clip-path="url(#clip270)" d="M63.9319 807.261 Q60.3208 807.261 58.4921 810.826 Q56.6865 814.368 56.6865 821.497 Q56.6865 828.604 58.4921 832.169 Q60.3208 835.71 63.9319 835.71 Q67.5661 835.71 69.3717 832.169 Q71.2004 828.604 71.2004 821.497 Q71.2004 814.368 69.3717 810.826 Q67.5661 807.261 63.9319 807.261 M63.9319 803.558 Q69.742 803.558 72.7976 808.164 Q75.8763 812.747 75.8763 821.497 Q75.8763 830.224 72.7976 834.831 Q69.742 839.414 63.9319 839.414 Q58.1217 839.414 55.043 834.831 Q51.9875 830.224 51.9875 821.497 Q51.9875 812.747 55.043 808.164 Q58.1217 803.558 63.9319 803.558 Z" fill="#000000" fill-rule="nonzero" fill-opacity="1"></path><path clip-path="url(#clip270)" d="M84.0938 832.863 L88.978 832.863 L88.978 838.743 L84.0938 838.743 L84.0938 832.863 Z" fill="#000000" fill-rule="nonzero" fill-opacity="1"></path><path clip-path="url(#clip270)" d="M103.191 834.807 L119.51 834.807 L119.51 838.743 L97.566 838.743 L97.566 834.807 Q100.228 832.053 104.811 827.423 Q109.418 822.77 110.598 821.428 Q112.844 818.905 113.723 817.169 Q114.626 815.409 114.626 813.72 Q114.626 810.965 112.682 809.229 Q110.76 807.493 107.658 807.493 Q105.459 807.493 103.006 808.257 Q100.575 809.021 97.7974 810.571 L97.7974 805.849 Q100.621 804.715 103.075 804.136 Q105.529 803.558 107.566 803.558 Q112.936 803.558 116.131 806.243 Q119.325 808.928 119.325 813.419 Q119.325 815.548 118.515 817.47 Q117.728 819.368 115.621 821.96 Q115.043 822.632 111.941 825.849 Q108.839 829.044 103.191 834.807 Z" fill="#000000" fill-rule="nonzero" fill-opacity="1"></path><path clip-path="url(#clip270)" d="M129.371 804.183 L147.728 804.183 L147.728 808.118 L133.654 808.118 L133.654 816.59 Q134.672 816.243 135.691 816.081 Q136.709 815.895 137.728 815.895 Q143.515 815.895 146.894 819.067 Q150.274 822.238 150.274 827.655 Q150.274 833.233 146.802 836.335 Q143.33 839.414 137.01 839.414 Q134.834 839.414 132.566 839.044 Q130.32 838.673 127.913 837.932 L127.913 833.233 Q129.996 834.368 132.219 834.923 Q134.441 835.479 136.918 835.479 Q140.922 835.479 143.26 833.372 Q145.598 831.266 145.598 827.655 Q145.598 824.044 143.26 821.937 Q140.922 819.831 136.918 819.831 Q135.043 819.831 133.168 820.247 Q131.316 820.664 129.371 821.544 L129.371 804.183 Z" fill="#000000" fill-rule="nonzero" fill-opacity="1"></path><path clip-path="url(#clip270)" d="M62.9365 593.239 Q59.3254 593.239 57.4967 596.803 Q55.6912 600.345 55.6912 607.475 Q55.6912 614.581 57.4967 618.146 Q59.3254 621.688 62.9365 621.688 Q66.5707 621.688 68.3763 618.146 Q70.205 614.581 70.205 607.475 Q70.205 600.345 68.3763 596.803 Q66.5707 593.239 62.9365 593.239 M62.9365 589.535 Q68.7467 589.535 71.8022 594.141 Q74.8809 598.725 74.8809 607.475 Q74.8809 616.202 71.8022 620.808 Q68.7467 625.391 62.9365 625.391 Q57.1264 625.391 54.0477 620.808 Q50.9921 616.202 50.9921 607.475 Q50.9921 598.725 54.0477 594.141 Q57.1264 589.535 62.9365 589.535 Z" fill="#000000" fill-rule="nonzero" fill-opacity="1"></path><path clip-path="url(#clip270)" d="M83.0984 618.84 L87.9827 618.84 L87.9827 624.72 L83.0984 624.72 L83.0984 618.84 Z" fill="#000000" fill-rule="nonzero" fill-opacity="1"></path><path clip-path="url(#clip270)" d="M98.2141 590.16 L116.57 590.16 L116.57 594.095 L102.496 594.095 L102.496 602.567 Q103.515 602.22 104.534 602.058 Q105.552 601.873 106.571 601.873 Q112.358 601.873 115.737 605.044 Q119.117 608.215 119.117 613.632 Q119.117 619.211 115.645 622.313 Q112.172 625.391 105.853 625.391 Q103.677 625.391 101.409 625.021 Q99.1632 624.651 96.7558 623.91 L96.7558 619.211 Q98.8391 620.345 101.061 620.901 Q103.284 621.456 105.76 621.456 Q109.765 621.456 112.103 619.35 Q114.441 617.243 114.441 613.632 Q114.441 610.021 112.103 607.915 Q109.765 605.808 105.76 605.808 Q103.885 605.808 102.01 606.225 Q100.159 606.641 98.2141 607.521 L98.2141 590.16 Z" fill="#000000" fill-rule="nonzero" fill-opacity="1"></path><path clip-path="url(#clip270)" d="M138.33 593.239 Q134.719 593.239 132.89 596.803 Q131.084 600.345 131.084 607.475 Q131.084 614.581 132.89 618.146 Q134.719 621.688 138.33 621.688 Q141.964 621.688 143.769 618.146 Q145.598 614.581 145.598 607.475 Q145.598 600.345 143.769 596.803 Q141.964 593.239 138.33 593.239 M138.33 589.535 Q144.14 589.535 147.195 594.141 Q150.274 598.725 150.274 607.475 Q150.274 616.202 147.195 620.808 Q144.14 625.391 138.33 625.391 Q132.519 625.391 129.441 620.808 Q126.385 616.202 126.385 607.475 Q126.385 598.725 129.441 594.141 Q132.519 589.535 138.33 589.535 Z" fill="#000000" fill-rule="nonzero" fill-opacity="1"></path><path clip-path="url(#clip270)" d="M63.9319 379.216 Q60.3208 379.216 58.4921 382.781 Q56.6865 386.323 56.6865 393.452 Q56.6865 400.559 58.4921 404.123 Q60.3208 407.665 63.9319 407.665 Q67.5661 407.665 69.3717 404.123 Q71.2004 400.559 71.2004 393.452 Q71.2004 386.323 69.3717 382.781 Q67.5661 379.216 63.9319 379.216 M63.9319 375.512 Q69.742 375.512 72.7976 380.119 Q75.8763 384.702 75.8763 393.452 Q75.8763 402.179 72.7976 406.785 Q69.742 411.369 63.9319 411.369 Q58.1217 411.369 55.043 406.785 Q51.9875 402.179 51.9875 393.452 Q51.9875 384.702 55.043 380.119 Q58.1217 375.512 63.9319 375.512 Z" fill="#000000" fill-rule="nonzero" fill-opacity="1"></path><path clip-path="url(#clip270)" d="M84.0938 404.818 L88.978 404.818 L88.978 410.697 L84.0938 410.697 L84.0938 404.818 Z" fill="#000000" fill-rule="nonzero" fill-opacity="1"></path><path clip-path="url(#clip270)" d="M97.9826 376.137 L120.205 376.137 L120.205 378.128 L107.658 410.697 L102.774 410.697 L114.58 380.073 L97.9826 380.073 L97.9826 376.137 Z" fill="#000000" fill-rule="nonzero" fill-opacity="1"></path><path clip-path="url(#clip270)" d="M129.371 376.137 L147.728 376.137 L147.728 380.073 L133.654 380.073 L133.654 388.545 Q134.672 388.198 135.691 388.036 Q136.709 387.85 137.728 387.85 Q143.515 387.85 146.894 391.022 Q150.274 394.193 150.274 399.61 Q150.274 405.188 146.802 408.29 Q143.33 411.369 137.01 411.369 Q134.834 411.369 132.566 410.998 Q130.32 410.628 127.913 409.887 L127.913 405.188 Q129.996 406.322 132.219 406.878 Q134.441 407.434 136.918 407.434 Q140.922 407.434 143.26 405.327 Q145.598 403.221 145.598 399.61 Q145.598 395.998 143.26 393.892 Q140.922 391.785 136.918 391.785 Q135.043 391.785 133.168 392.202 Q131.316 392.619 129.371 393.498 L129.371 376.137 Z" fill="#000000" fill-rule="nonzero" fill-opacity="1"></path><path clip-path="url(#clip270)" d="M53.7467 192.74 L61.3856 192.74 L61.3856 166.374 L53.0754 168.041 L53.0754 163.781 L61.3393 162.115 L66.0152 162.115 L66.0152 192.74 L73.654 192.74 L73.654 196.675 L53.7467 196.675 L53.7467 192.74 Z" fill="#000000" fill-rule="nonzero" fill-opacity="1"></path><path clip-path="url(#clip270)" d="M83.0984 190.795 L87.9827 190.795 L87.9827 196.675 L83.0984 196.675 L83.0984 190.795 Z" fill="#000000" fill-rule="nonzero" fill-opacity="1"></path><path clip-path="url(#clip270)" d="M108.168 165.194 Q104.557 165.194 102.728 168.758 Q100.922 172.3 100.922 179.43 Q100.922 186.536 102.728 190.101 Q104.557 193.642 108.168 193.642 Q111.802 193.642 113.608 190.101 Q115.436 186.536 115.436 179.43 Q115.436 172.3 113.608 168.758 Q111.802 165.194 108.168 165.194 M108.168 161.49 Q113.978 161.49 117.033 166.096 Q120.112 170.68 120.112 179.43 Q120.112 188.156 117.033 192.763 Q113.978 197.346 108.168 197.346 Q102.358 197.346 99.2789 192.763 Q96.2234 188.156 96.2234 179.43 Q96.2234 170.68 99.2789 166.096 Q102.358 161.49 108.168 161.49 Z" fill="#000000" fill-rule="nonzero" fill-opacity="1"></path><path clip-path="url(#clip270)" d="M138.33 165.194 Q134.719 165.194 132.89 168.758 Q131.084 172.3 131.084 179.43 Q131.084 186.536 132.89 190.101 Q134.719 193.642 138.33 193.642 Q141.964 193.642 143.769 190.101 Q145.598 186.536 145.598 179.43 Q145.598 172.3 143.769 168.758 Q141.964 165.194 138.33 165.194 M138.33 161.49 Q144.14 161.49 147.195 166.096 Q150.274 170.68 150.274 179.43 Q150.274 188.156 147.195 192.763 Q144.14 197.346 138.33 197.346 Q132.519 197.346 129.441 192.763 Q126.385 188.156 126.385 179.43 Q126.385 170.68 129.441 166.096 Q132.519 161.49 138.33 161.49 Z" fill="#000000" fill-rule="nonzero" fill-opacity="1"></path><path clip-path="url(#clip270)" d="M1186.47 18.8205 L1186.47 41.5461 L1196.76 41.5461 Q1202.47 41.5461 1205.59 38.5889 Q1208.71 35.6318 1208.71 30.163 Q1208.71 24.7348 1205.59 21.7777 Q1202.47 18.8205 1196.76 18.8205 L1186.47 18.8205 M1178.29 12.096 L1196.76 12.096 Q1206.93 12.096 1212.11 16.714 Q1217.34 21.2916 1217.34 30.163 Q1217.34 39.1155 1212.11 43.6931 Q1206.93 48.2706 1196.76 48.2706 L1186.47 48.2706 L1186.47 72.576 L1178.29 72.576 L1178.29 12.096 Z" fill="#000000" fill-rule="nonzero" fill-opacity="1"></path><path clip-path="url(#clip270)" d="M1252.83 34.1734 Q1251.57 33.4443 1250.07 33.1202 Q1248.61 32.7556 1246.83 32.7556 Q1240.51 32.7556 1237.11 36.8875 Q1233.75 40.9789 1233.75 48.6757 L1233.75 72.576 L1226.25 72.576 L1226.25 27.2059 L1233.75 27.2059 L1233.75 34.2544 Q1236.09 30.1225 1239.86 28.1376 Q1243.63 26.1121 1249.02 26.1121 Q1249.79 26.1121 1250.72 26.2337 Q1251.65 26.3147 1252.78 26.5172 L1252.83 34.1734 Z" fill="#000000" fill-rule="nonzero" fill-opacity="1"></path><path clip-path="url(#clip270)" d="M1260.64 27.2059 L1268.1 27.2059 L1268.1 72.576 L1260.64 72.576 L1260.64 27.2059 M1260.64 9.54393 L1268.1 9.54393 L1268.1 18.9825 L1260.64 18.9825 L1260.64 9.54393 Z" fill="#000000" fill-rule="nonzero" fill-opacity="1"></path><path clip-path="url(#clip270)" d="M1301.27 32.4315 Q1295.28 32.4315 1291.79 37.1306 Q1288.31 41.7891 1288.31 49.9314 Q1288.31 58.0738 1291.75 62.7728 Q1295.24 67.4314 1301.27 67.4314 Q1307.23 67.4314 1310.71 62.7323 Q1314.2 58.0333 1314.2 49.9314 Q1314.2 41.8701 1310.71 37.1711 Q1307.23 32.4315 1301.27 32.4315 M1301.27 26.1121 Q1311 26.1121 1316.55 32.4315 Q1322.1 38.7509 1322.1 49.9314 Q1322.1 61.0714 1316.55 67.4314 Q1311 73.7508 1301.27 73.7508 Q1291.51 73.7508 1285.96 67.4314 Q1280.45 61.0714 1280.45 49.9314 Q1280.45 38.7509 1285.96 32.4315 Q1291.51 26.1121 1301.27 26.1121 Z" fill="#000000" fill-rule="nonzero" fill-opacity="1"></path><path clip-path="url(#clip270)" d="M1360.74 34.1734 Q1359.49 33.4443 1357.99 33.1202 Q1356.53 32.7556 1354.75 32.7556 Q1348.43 32.7556 1345.02 36.8875 Q1341.66 40.9789 1341.66 48.6757 L1341.66 72.576 L1334.17 72.576 L1334.17 27.2059 L1341.66 27.2059 L1341.66 34.2544 Q1344.01 30.1225 1347.78 28.1376 Q1351.55 26.1121 1356.93 26.1121 Q1357.7 26.1121 1358.63 26.2337 Q1359.57 26.3147 1360.7 26.5172 L1360.74 34.1734 Z" fill="#000000" fill-rule="nonzero" fill-opacity="1"></path><path clip-path="url(#clip272)" d="M186.274 179.395 L200.379 179.395 L330.8 179.395 L409.177 179.395 L475.445 179.395 L547.429 179.395 L613.793 179.395 L684.942 179.395 L767.375 179.395 L840.631 179.395 L904.871 179.395 L974.909 179.395 L1045.36 179.395 L1123.26 179.395 L1197.38 179.395 L1274.44 179.395 L1339.31 179.395 L1418.51 179.395 L1491.06 179.395 L1558.07 179.395 L1625.95 179.395 L1702.02 179.395 L1770.95 179.395 L1849.88 179.395 L1922.95 179.395 L1995 179.395 L2064.95 179.395 L2136.65 179.395 L2215.22 179.395 L2329.34 179.395 L2352.76 179.395 L2352.76 1035.49 L2329.34 1035.49 L2215.22 1035.49 L2136.65 1035.49 L2064.95 1035.49 L1995 1035.49 L1922.95 1035.49 L1849.88 1035.49 L1770.95 1035.49 L1702.02 1035.49 L1625.95 1035.49 L1558.07 1035.49 L1491.06 1035.49 L1418.51 1035.49 L1339.31 1035.49 L1274.44 1035.49 L1197.38 1035.49 L1123.26 1035.49 L1045.36 1035.49 L974.909 1035.49 L904.871 1035.49 L840.631 1035.49 L767.375 1035.49 L684.942 1035.49 L613.793 1035.49 L547.429 1035.49 L475.445 1035.49 L409.177 1035.49 L330.8 1035.49 L200.379 1035.49 L186.274 1035.49  Z" fill="#009af9" fill-rule="evenodd" fill-opacity="0.3"></path>
<polyline clip-path="url(#clip272)" style="stroke:#009af9; stroke-linecap:round; stroke-linejoin:round; stroke-width:4; stroke-opacity:0.3; fill:none" points="186.274,179.395 200.379,179.395 330.8,179.395 409.177,179.395 475.445,179.395 547.429,179.395 613.793,179.395 684.942,179.395 767.375,179.395 840.631,179.395 904.871,179.395 974.909,179.395 1045.36,179.395 1123.26,179.395 1197.38,179.395 1274.44,179.395 1339.31,179.395 1418.51,179.395 1491.06,179.395 1558.07,179.395 1625.95,179.395 1702.02,179.395 1770.95,179.395 1849.88,179.395 1922.95,179.395 1995,179.395 2064.95,179.395 2136.65,179.395 2215.22,179.395 2329.34,179.395 2352.76,179.395 "></polyline>
<path clip-path="url(#clip270)" d="M186.274 2261.17 L2352.76 2261.17 L2352.76 1353.71 L186.274 1353.71  Z" fill="#ffffff" fill-rule="evenodd" fill-opacity="1"></path>
<defs>
  <clipPath id="clip273">
    <rect x="186" y="1353" width="2167" height="908"></rect>
  </clipPath>
</defs>
<polyline clip-path="url(#clip273)" style="stroke:#000000; stroke-linecap:round; stroke-linejoin:round; stroke-width:2; stroke-opacity:0.1; fill:none" points="186.274,2261.17 186.274,1353.71 "></polyline>
<polyline clip-path="url(#clip273)" style="stroke:#000000; stroke-linecap:round; stroke-linejoin:round; stroke-width:2; stroke-opacity:0.1; fill:none" points="619.57,2261.17 619.57,1353.71 "></polyline>
<polyline clip-path="url(#clip273)" style="stroke:#000000; stroke-linecap:round; stroke-linejoin:round; stroke-width:2; stroke-opacity:0.1; fill:none" points="1052.87,2261.17 1052.87,1353.71 "></polyline>
<polyline clip-path="url(#clip273)" style="stroke:#000000; stroke-linecap:round; stroke-linejoin:round; stroke-width:2; stroke-opacity:0.1; fill:none" points="1486.16,2261.17 1486.16,1353.71 "></polyline>
<polyline clip-path="url(#clip273)" style="stroke:#000000; stroke-linecap:round; stroke-linejoin:round; stroke-width:2; stroke-opacity:0.1; fill:none" points="1919.46,2261.17 1919.46,1353.71 "></polyline>
<polyline clip-path="url(#clip273)" style="stroke:#000000; stroke-linecap:round; stroke-linejoin:round; stroke-width:2; stroke-opacity:0.1; fill:none" points="2352.76,2261.17 2352.76,1353.71 "></polyline>
<polyline clip-path="url(#clip270)" style="stroke:#000000; stroke-linecap:round; stroke-linejoin:round; stroke-width:4; stroke-opacity:1; fill:none" points="186.274,2261.17 2352.76,2261.17 "></polyline>
<polyline clip-path="url(#clip270)" style="stroke:#000000; stroke-linecap:round; stroke-linejoin:round; stroke-width:4; stroke-opacity:1; fill:none" points="186.274,2261.17 186.274,2242.27 "></polyline>
<polyline clip-path="url(#clip270)" style="stroke:#000000; stroke-linecap:round; stroke-linejoin:round; stroke-width:4; stroke-opacity:1; fill:none" points="619.57,2261.17 619.57,2242.27 "></polyline>
<polyline clip-path="url(#clip270)" style="stroke:#000000; stroke-linecap:round; stroke-linejoin:round; stroke-width:4; stroke-opacity:1; fill:none" points="1052.87,2261.17 1052.87,2242.27 "></polyline>
<polyline clip-path="url(#clip270)" style="stroke:#000000; stroke-linecap:round; stroke-linejoin:round; stroke-width:4; stroke-opacity:1; fill:none" points="1486.16,2261.17 1486.16,2242.27 "></polyline>
<polyline clip-path="url(#clip270)" style="stroke:#000000; stroke-linecap:round; stroke-linejoin:round; stroke-width:4; stroke-opacity:1; fill:none" points="1919.46,2261.17 1919.46,2242.27 "></polyline>
<polyline clip-path="url(#clip270)" style="stroke:#000000; stroke-linecap:round; stroke-linejoin:round; stroke-width:4; stroke-opacity:1; fill:none" points="2352.76,2261.17 2352.76,2242.27 "></polyline>
<path clip-path="url(#clip270)" d="M163.658 2292.09 Q160.047 2292.09 158.219 2295.65 Q156.413 2299.19 156.413 2306.32 Q156.413 2313.43 158.219 2316.99 Q160.047 2320.54 163.658 2320.54 Q167.293 2320.54 169.098 2316.99 Q170.927 2313.43 170.927 2306.32 Q170.927 2299.19 169.098 2295.65 Q167.293 2292.09 163.658 2292.09 M163.658 2288.38 Q169.469 2288.38 172.524 2292.99 Q175.603 2297.57 175.603 2306.32 Q175.603 2315.05 172.524 2319.66 Q169.469 2324.24 163.658 2324.24 Q157.848 2324.24 154.77 2319.66 Q151.714 2315.05 151.714 2306.32 Q151.714 2297.57 154.77 2292.99 Q157.848 2288.38 163.658 2288.38 Z" fill="#000000" fill-rule="nonzero" fill-opacity="1"></path><path clip-path="url(#clip270)" d="M183.82 2317.69 L188.705 2317.69 L188.705 2323.57 L183.82 2323.57 L183.82 2317.69 Z" fill="#000000" fill-rule="nonzero" fill-opacity="1"></path><path clip-path="url(#clip270)" d="M208.89 2292.09 Q205.279 2292.09 203.45 2295.65 Q201.644 2299.19 201.644 2306.32 Q201.644 2313.43 203.45 2316.99 Q205.279 2320.54 208.89 2320.54 Q212.524 2320.54 214.329 2316.99 Q216.158 2313.43 216.158 2306.32 Q216.158 2299.19 214.329 2295.65 Q212.524 2292.09 208.89 2292.09 M208.89 2288.38 Q214.7 2288.38 217.755 2292.99 Q220.834 2297.57 220.834 2306.32 Q220.834 2315.05 217.755 2319.66 Q214.7 2324.24 208.89 2324.24 Q203.079 2324.24 200.001 2319.66 Q196.945 2315.05 196.945 2306.32 Q196.945 2297.57 200.001 2292.99 Q203.079 2288.38 208.89 2288.38 Z" fill="#000000" fill-rule="nonzero" fill-opacity="1"></path><path clip-path="url(#clip270)" d="M597.753 2292.09 Q594.142 2292.09 592.314 2295.65 Q590.508 2299.19 590.508 2306.32 Q590.508 2313.43 592.314 2316.99 Q594.142 2320.54 597.753 2320.54 Q601.388 2320.54 603.193 2316.99 Q605.022 2313.43 605.022 2306.32 Q605.022 2299.19 603.193 2295.65 Q601.388 2292.09 597.753 2292.09 M597.753 2288.38 Q603.564 2288.38 606.619 2292.99 Q609.698 2297.57 609.698 2306.32 Q609.698 2315.05 606.619 2319.66 Q603.564 2324.24 597.753 2324.24 Q591.943 2324.24 588.865 2319.66 Q585.809 2315.05 585.809 2306.32 Q585.809 2297.57 588.865 2292.99 Q591.943 2288.38 597.753 2288.38 Z" fill="#000000" fill-rule="nonzero" fill-opacity="1"></path><path clip-path="url(#clip270)" d="M617.915 2317.69 L622.8 2317.69 L622.8 2323.57 L617.915 2323.57 L617.915 2317.69 Z" fill="#000000" fill-rule="nonzero" fill-opacity="1"></path><path clip-path="url(#clip270)" d="M637.012 2319.63 L653.332 2319.63 L653.332 2323.57 L631.387 2323.57 L631.387 2319.63 Q634.049 2316.88 638.633 2312.25 Q643.239 2307.6 644.42 2306.25 Q646.665 2303.73 647.545 2301.99 Q648.448 2300.23 648.448 2298.54 Q648.448 2295.79 646.503 2294.05 Q644.582 2292.32 641.48 2292.32 Q639.281 2292.32 636.827 2293.08 Q634.397 2293.85 631.619 2295.4 L631.619 2290.67 Q634.443 2289.54 636.897 2288.96 Q639.35 2288.38 641.387 2288.38 Q646.758 2288.38 649.952 2291.07 Q653.147 2293.75 653.147 2298.24 Q653.147 2300.37 652.336 2302.29 Q651.549 2304.19 649.443 2306.79 Q648.864 2307.46 645.762 2310.67 Q642.661 2313.87 637.012 2319.63 Z" fill="#000000" fill-rule="nonzero" fill-opacity="1"></path><path clip-path="url(#clip270)" d="M1030.01 2292.09 Q1026.4 2292.09 1024.57 2295.65 Q1022.76 2299.19 1022.76 2306.32 Q1022.76 2313.43 1024.57 2316.99 Q1026.4 2320.54 1030.01 2320.54 Q1033.64 2320.54 1035.45 2316.99 Q1037.28 2313.43 1037.28 2306.32 Q1037.28 2299.19 1035.45 2295.65 Q1033.64 2292.09 1030.01 2292.09 M1030.01 2288.38 Q1035.82 2288.38 1038.87 2292.99 Q1041.95 2297.57 1041.95 2306.32 Q1041.95 2315.05 1038.87 2319.66 Q1035.82 2324.24 1030.01 2324.24 Q1024.2 2324.24 1021.12 2319.66 Q1018.06 2315.05 1018.06 2306.32 Q1018.06 2297.57 1021.12 2292.99 Q1024.2 2288.38 1030.01 2288.38 Z" fill="#000000" fill-rule="nonzero" fill-opacity="1"></path><path clip-path="url(#clip270)" d="M1050.17 2317.69 L1055.05 2317.69 L1055.05 2323.57 L1050.17 2323.57 L1050.17 2317.69 Z" fill="#000000" fill-rule="nonzero" fill-opacity="1"></path><path clip-path="url(#clip270)" d="M1078.09 2293.08 L1066.28 2311.53 L1078.09 2311.53 L1078.09 2293.08 M1076.86 2289.01 L1082.74 2289.01 L1082.74 2311.53 L1087.67 2311.53 L1087.67 2315.42 L1082.74 2315.42 L1082.74 2323.57 L1078.09 2323.57 L1078.09 2315.42 L1062.48 2315.42 L1062.48 2310.91 L1076.86 2289.01 Z" fill="#000000" fill-rule="nonzero" fill-opacity="1"></path><path clip-path="url(#clip270)" d="M1463.47 2292.09 Q1459.86 2292.09 1458.03 2295.65 Q1456.22 2299.19 1456.22 2306.32 Q1456.22 2313.43 1458.03 2316.99 Q1459.86 2320.54 1463.47 2320.54 Q1467.1 2320.54 1468.91 2316.99 Q1470.73 2313.43 1470.73 2306.32 Q1470.73 2299.19 1468.91 2295.65 Q1467.1 2292.09 1463.47 2292.09 M1463.47 2288.38 Q1469.28 2288.38 1472.33 2292.99 Q1475.41 2297.57 1475.41 2306.32 Q1475.41 2315.05 1472.33 2319.66 Q1469.28 2324.24 1463.47 2324.24 Q1457.66 2324.24 1454.58 2319.66 Q1451.52 2315.05 1451.52 2306.32 Q1451.52 2297.57 1454.58 2292.99 Q1457.66 2288.38 1463.47 2288.38 Z" fill="#000000" fill-rule="nonzero" fill-opacity="1"></path><path clip-path="url(#clip270)" d="M1483.63 2317.69 L1488.51 2317.69 L1488.51 2323.57 L1483.63 2323.57 L1483.63 2317.69 Z" fill="#000000" fill-rule="nonzero" fill-opacity="1"></path><path clip-path="url(#clip270)" d="M1509.28 2304.42 Q1506.13 2304.42 1504.28 2306.58 Q1502.45 2308.73 1502.45 2312.48 Q1502.45 2316.21 1504.28 2318.38 Q1506.13 2320.54 1509.28 2320.54 Q1512.42 2320.54 1514.25 2318.38 Q1516.11 2316.21 1516.11 2312.48 Q1516.11 2308.73 1514.25 2306.58 Q1512.42 2304.42 1509.28 2304.42 M1518.56 2289.77 L1518.56 2294.03 Q1516.8 2293.2 1514.99 2292.76 Q1513.21 2292.32 1511.45 2292.32 Q1506.82 2292.32 1504.37 2295.44 Q1501.94 2298.57 1501.59 2304.89 Q1502.96 2302.87 1505.02 2301.81 Q1507.08 2300.72 1509.55 2300.72 Q1514.76 2300.72 1517.77 2303.89 Q1520.8 2307.04 1520.8 2312.48 Q1520.8 2317.8 1517.66 2321.02 Q1514.51 2324.24 1509.28 2324.24 Q1503.28 2324.24 1500.11 2319.66 Q1496.94 2315.05 1496.94 2306.32 Q1496.94 2298.13 1500.83 2293.27 Q1504.72 2288.38 1511.27 2288.38 Q1513.03 2288.38 1514.81 2288.73 Q1516.61 2289.08 1518.56 2289.77 Z" fill="#000000" fill-rule="nonzero" fill-opacity="1"></path><path clip-path="url(#clip270)" d="M1896.89 2292.09 Q1893.28 2292.09 1891.45 2295.65 Q1889.64 2299.19 1889.64 2306.32 Q1889.64 2313.43 1891.45 2316.99 Q1893.28 2320.54 1896.89 2320.54 Q1900.52 2320.54 1902.33 2316.99 Q1904.16 2313.43 1904.16 2306.32 Q1904.16 2299.19 1902.33 2295.65 Q1900.52 2292.09 1896.89 2292.09 M1896.89 2288.38 Q1902.7 2288.38 1905.76 2292.99 Q1908.83 2297.57 1908.83 2306.32 Q1908.83 2315.05 1905.76 2319.66 Q1902.7 2324.24 1896.89 2324.24 Q1891.08 2324.24 1888 2319.66 Q1884.95 2315.05 1884.95 2306.32 Q1884.95 2297.57 1888 2292.99 Q1891.08 2288.38 1896.89 2288.38 Z" fill="#000000" fill-rule="nonzero" fill-opacity="1"></path><path clip-path="url(#clip270)" d="M1917.05 2317.69 L1921.94 2317.69 L1921.94 2323.57 L1917.05 2323.57 L1917.05 2317.69 Z" fill="#000000" fill-rule="nonzero" fill-opacity="1"></path><path clip-path="url(#clip270)" d="M1942.12 2307.16 Q1938.79 2307.16 1936.87 2308.94 Q1934.97 2310.72 1934.97 2313.85 Q1934.97 2316.97 1936.87 2318.75 Q1938.79 2320.54 1942.12 2320.54 Q1945.45 2320.54 1947.38 2318.75 Q1949.3 2316.95 1949.3 2313.85 Q1949.3 2310.72 1947.38 2308.94 Q1945.48 2307.16 1942.12 2307.16 M1937.45 2305.17 Q1934.44 2304.42 1932.75 2302.36 Q1931.08 2300.3 1931.08 2297.34 Q1931.08 2293.2 1934.02 2290.79 Q1936.98 2288.38 1942.12 2288.38 Q1947.28 2288.38 1950.22 2290.79 Q1953.16 2293.2 1953.16 2297.34 Q1953.16 2300.3 1951.47 2302.36 Q1949.81 2304.42 1946.82 2305.17 Q1950.2 2305.95 1952.08 2308.24 Q1953.97 2310.54 1953.97 2313.85 Q1953.97 2318.87 1950.89 2321.55 Q1947.84 2324.24 1942.12 2324.24 Q1936.4 2324.24 1933.33 2321.55 Q1930.27 2318.87 1930.27 2313.85 Q1930.27 2310.54 1932.17 2308.24 Q1934.07 2305.95 1937.45 2305.17 M1935.73 2297.78 Q1935.73 2300.47 1937.4 2301.97 Q1939.09 2303.48 1942.12 2303.48 Q1945.13 2303.48 1946.82 2301.97 Q1948.53 2300.47 1948.53 2297.78 Q1948.53 2295.1 1946.82 2293.59 Q1945.13 2292.09 1942.12 2292.09 Q1939.09 2292.09 1937.4 2293.59 Q1935.73 2295.1 1935.73 2297.78 Z" fill="#000000" fill-rule="nonzero" fill-opacity="1"></path><path clip-path="url(#clip270)" d="M2319.91 2319.63 L2327.55 2319.63 L2327.55 2293.27 L2319.24 2294.93 L2319.24 2290.67 L2327.5 2289.01 L2332.18 2289.01 L2332.18 2319.63 L2339.82 2319.63 L2339.82 2323.57 L2319.91 2323.57 L2319.91 2319.63 Z" fill="#000000" fill-rule="nonzero" fill-opacity="1"></path><path clip-path="url(#clip270)" d="M2349.26 2317.69 L2354.14 2317.69 L2354.14 2323.57 L2349.26 2323.57 L2349.26 2317.69 Z" fill="#000000" fill-rule="nonzero" fill-opacity="1"></path><path clip-path="url(#clip270)" d="M2374.33 2292.09 Q2370.72 2292.09 2368.89 2295.65 Q2367.08 2299.19 2367.08 2306.32 Q2367.08 2313.43 2368.89 2316.99 Q2370.72 2320.54 2374.33 2320.54 Q2377.96 2320.54 2379.77 2316.99 Q2381.6 2313.43 2381.6 2306.32 Q2381.6 2299.19 2379.77 2295.65 Q2377.96 2292.09 2374.33 2292.09 M2374.33 2288.38 Q2380.14 2288.38 2383.2 2292.99 Q2386.27 2297.57 2386.27 2306.32 Q2386.27 2315.05 2383.2 2319.66 Q2380.14 2324.24 2374.33 2324.24 Q2368.52 2324.24 2365.44 2319.66 Q2362.39 2315.05 2362.39 2306.32 Q2362.39 2297.57 2365.44 2292.99 Q2368.52 2288.38 2374.33 2288.38 Z" fill="#000000" fill-rule="nonzero" fill-opacity="1"></path><polyline clip-path="url(#clip273)" style="stroke:#000000; stroke-linecap:round; stroke-linejoin:round; stroke-width:2; stroke-opacity:0.1; fill:none" points="186.274,2235.49 2352.76,2235.49 "></polyline>
<polyline clip-path="url(#clip273)" style="stroke:#000000; stroke-linecap:round; stroke-linejoin:round; stroke-width:2; stroke-opacity:0.1; fill:none" points="186.274,1943.81 2352.76,1943.81 "></polyline>
<polyline clip-path="url(#clip273)" style="stroke:#000000; stroke-linecap:round; stroke-linejoin:round; stroke-width:2; stroke-opacity:0.1; fill:none" points="186.274,1652.14 2352.76,1652.14 "></polyline>
<polyline clip-path="url(#clip273)" style="stroke:#000000; stroke-linecap:round; stroke-linejoin:round; stroke-width:2; stroke-opacity:0.1; fill:none" points="186.274,1360.46 2352.76,1360.46 "></polyline>
<polyline clip-path="url(#clip270)" style="stroke:#000000; stroke-linecap:round; stroke-linejoin:round; stroke-width:4; stroke-opacity:1; fill:none" points="186.274,2261.17 186.274,1353.71 "></polyline>
<polyline clip-path="url(#clip270)" style="stroke:#000000; stroke-linecap:round; stroke-linejoin:round; stroke-width:4; stroke-opacity:1; fill:none" points="186.274,2235.49 205.172,2235.49 "></polyline>
<polyline clip-path="url(#clip270)" style="stroke:#000000; stroke-linecap:round; stroke-linejoin:round; stroke-width:4; stroke-opacity:1; fill:none" points="186.274,1943.81 205.172,1943.81 "></polyline>
<polyline clip-path="url(#clip270)" style="stroke:#000000; stroke-linecap:round; stroke-linejoin:round; stroke-width:4; stroke-opacity:1; fill:none" points="186.274,1652.14 205.172,1652.14 "></polyline>
<polyline clip-path="url(#clip270)" style="stroke:#000000; stroke-linecap:round; stroke-linejoin:round; stroke-width:4; stroke-opacity:1; fill:none" points="186.274,1360.46 205.172,1360.46 "></polyline>
<path clip-path="url(#clip270)" d="M138.33 2221.28 Q134.719 2221.28 132.89 2224.85 Q131.084 2228.39 131.084 2235.52 Q131.084 2242.63 132.89 2246.19 Q134.719 2249.73 138.33 2249.73 Q141.964 2249.73 143.769 2246.19 Q145.598 2242.63 145.598 2235.52 Q145.598 2228.39 143.769 2224.85 Q141.964 2221.28 138.33 2221.28 M138.33 2217.58 Q144.14 2217.58 147.195 2222.19 Q150.274 2226.77 150.274 2235.52 Q150.274 2244.25 147.195 2248.85 Q144.14 2253.44 138.33 2253.44 Q132.519 2253.44 129.441 2248.85 Q126.385 2244.25 126.385 2235.52 Q126.385 2226.77 129.441 2222.19 Q132.519 2217.58 138.33 2217.58 Z" fill="#000000" fill-rule="nonzero" fill-opacity="1"></path><path clip-path="url(#clip270)" d="M130.367 1957.16 L138.006 1957.16 L138.006 1930.79 L129.695 1932.46 L129.695 1928.2 L137.959 1926.53 L142.635 1926.53 L142.635 1957.16 L150.274 1957.16 L150.274 1961.09 L130.367 1961.09 L130.367 1957.16 Z" fill="#000000" fill-rule="nonzero" fill-opacity="1"></path><path clip-path="url(#clip270)" d="M133.955 1665.48 L150.274 1665.48 L150.274 1669.42 L128.33 1669.42 L128.33 1665.48 Q130.992 1662.73 135.575 1658.1 Q140.181 1653.45 141.362 1652.1 Q143.607 1649.58 144.487 1647.84 Q145.39 1646.08 145.39 1644.4 Q145.39 1641.64 143.445 1639.9 Q141.524 1638.17 138.422 1638.17 Q136.223 1638.17 133.769 1638.93 Q131.339 1639.7 128.561 1641.25 L128.561 1636.52 Q131.385 1635.39 133.839 1634.81 Q136.293 1634.23 138.33 1634.23 Q143.7 1634.23 146.894 1636.92 Q150.089 1639.6 150.089 1644.09 Q150.089 1646.22 149.279 1648.15 Q148.492 1650.04 146.385 1652.64 Q145.806 1653.31 142.705 1656.52 Q139.603 1659.72 133.955 1665.48 Z" fill="#000000" fill-rule="nonzero" fill-opacity="1"></path><path clip-path="url(#clip270)" d="M143.144 1359.11 Q146.501 1359.83 148.376 1362.1 Q150.274 1364.37 150.274 1367.7 Q150.274 1372.81 146.756 1375.62 Q143.237 1378.42 136.756 1378.42 Q134.58 1378.42 132.265 1377.98 Q129.973 1377.56 127.519 1376.7 L127.519 1372.19 Q129.464 1373.32 131.779 1373.9 Q134.094 1374.48 136.617 1374.48 Q141.015 1374.48 143.306 1372.74 Q145.621 1371.01 145.621 1367.7 Q145.621 1364.64 143.468 1362.93 Q141.339 1361.19 137.519 1361.19 L133.492 1361.19 L133.492 1357.35 L137.705 1357.35 Q141.154 1357.35 142.982 1355.99 Q144.811 1354.6 144.811 1352 Q144.811 1349.34 142.913 1347.93 Q141.038 1346.49 137.519 1346.49 Q135.598 1346.49 133.399 1346.91 Q131.2 1347.33 128.561 1348.21 L128.561 1344.04 Q131.223 1343.3 133.538 1342.93 Q135.876 1342.56 137.936 1342.56 Q143.26 1342.56 146.362 1344.99 Q149.464 1347.4 149.464 1351.52 Q149.464 1354.39 147.82 1356.38 Q146.177 1358.35 143.144 1359.11 Z" fill="#000000" fill-rule="nonzero" fill-opacity="1"></path><path clip-path="url(#clip270)" d="M1098.45 1218.82 L1098.45 1241.55 L1108.73 1241.55 Q1114.45 1241.55 1117.57 1238.59 Q1120.68 1235.63 1120.68 1230.16 Q1120.68 1224.73 1117.57 1221.78 Q1114.45 1218.82 1108.73 1218.82 L1098.45 1218.82 M1090.26 1212.1 L1108.73 1212.1 Q1118.9 1212.1 1124.09 1216.71 Q1129.31 1221.29 1129.31 1230.16 Q1129.31 1239.12 1124.09 1243.69 Q1118.9 1248.27 1108.73 1248.27 L1098.45 1248.27 L1098.45 1272.58 L1090.26 1272.58 L1090.26 1212.1 Z" fill="#000000" fill-rule="nonzero" fill-opacity="1"></path><path clip-path="url(#clip270)" d="M1154.59 1232.43 Q1148.6 1232.43 1145.11 1237.13 Q1141.63 1241.79 1141.63 1249.93 Q1141.63 1258.07 1145.07 1262.77 Q1148.55 1267.43 1154.59 1267.43 Q1160.55 1267.43 1164.03 1262.73 Q1167.51 1258.03 1167.51 1249.93 Q1167.51 1241.87 1164.03 1237.17 Q1160.55 1232.43 1154.59 1232.43 M1154.59 1226.11 Q1164.31 1226.11 1169.86 1232.43 Q1175.41 1238.75 1175.41 1249.93 Q1175.41 1261.07 1169.86 1267.43 Q1164.31 1273.75 1154.59 1273.75 Q1144.83 1273.75 1139.28 1267.43 Q1133.77 1261.07 1133.77 1249.93 Q1133.77 1238.75 1139.28 1232.43 Q1144.83 1226.11 1154.59 1226.11 Z" fill="#000000" fill-rule="nonzero" fill-opacity="1"></path><path clip-path="url(#clip270)" d="M1216.69 1228.54 L1216.69 1235.59 Q1213.53 1233.97 1210.13 1233.16 Q1206.73 1232.35 1203.08 1232.35 Q1197.53 1232.35 1194.74 1234.05 Q1191.98 1235.75 1191.98 1239.16 Q1191.98 1241.75 1193.97 1243.25 Q1195.95 1244.71 1201.95 1246.04 L1204.5 1246.61 Q1212.44 1248.31 1215.76 1251.43 Q1219.12 1254.51 1219.12 1260.06 Q1219.12 1266.38 1214.1 1270.06 Q1209.12 1273.75 1200.37 1273.75 Q1196.72 1273.75 1192.75 1273.02 Q1188.82 1272.33 1184.45 1270.92 L1184.45 1263.22 Q1188.58 1265.37 1192.59 1266.46 Q1196.6 1267.51 1200.53 1267.51 Q1205.79 1267.51 1208.63 1265.73 Q1211.47 1263.91 1211.47 1260.63 Q1211.47 1257.59 1209.4 1255.97 Q1207.37 1254.35 1200.45 1252.85 L1197.85 1252.24 Q1190.93 1250.78 1187.85 1247.78 Q1184.77 1244.75 1184.77 1239.48 Q1184.77 1233.08 1189.31 1229.6 Q1193.84 1226.11 1202.19 1226.11 Q1206.32 1226.11 1209.97 1226.72 Q1213.61 1227.33 1216.69 1228.54 Z" fill="#000000" fill-rule="nonzero" fill-opacity="1"></path><path clip-path="url(#clip270)" d="M1238.36 1214.32 L1238.36 1227.21 L1253.72 1227.21 L1253.72 1233 L1238.36 1233 L1238.36 1257.63 Q1238.36 1263.18 1239.86 1264.76 Q1241.4 1266.34 1246.06 1266.34 L1253.72 1266.34 L1253.72 1272.58 L1246.06 1272.58 Q1237.43 1272.58 1234.15 1269.38 Q1230.87 1266.14 1230.87 1257.63 L1230.87 1233 L1225.4 1233 L1225.4 1227.21 L1230.87 1227.21 L1230.87 1214.32 L1238.36 1214.32 Z" fill="#000000" fill-rule="nonzero" fill-opacity="1"></path><path clip-path="url(#clip270)" d="M1302.33 1248.03 L1302.33 1251.67 L1268.06 1251.67 Q1268.54 1259.37 1272.67 1263.42 Q1276.85 1267.43 1284.26 1267.43 Q1288.55 1267.43 1292.56 1266.38 Q1296.62 1265.32 1300.59 1263.22 L1300.59 1270.27 Q1296.57 1271.97 1292.36 1272.86 Q1288.15 1273.75 1283.81 1273.75 Q1272.96 1273.75 1266.6 1267.43 Q1260.28 1261.11 1260.28 1250.34 Q1260.28 1239.2 1266.27 1232.67 Q1272.31 1226.11 1282.52 1226.11 Q1291.67 1226.11 1296.98 1232.03 Q1302.33 1237.9 1302.33 1248.03 M1294.87 1245.84 Q1294.79 1239.72 1291.43 1236.08 Q1288.11 1232.43 1282.6 1232.43 Q1276.36 1232.43 1272.59 1235.96 Q1268.87 1239.48 1268.3 1245.88 L1294.87 1245.84 Z" fill="#000000" fill-rule="nonzero" fill-opacity="1"></path><path clip-path="url(#clip270)" d="M1340.85 1234.17 Q1339.6 1233.44 1338.1 1233.12 Q1336.64 1232.76 1334.86 1232.76 Q1328.54 1232.76 1325.13 1236.89 Q1321.77 1240.98 1321.77 1248.68 L1321.77 1272.58 L1314.28 1272.58 L1314.28 1227.21 L1321.77 1227.21 L1321.77 1234.25 Q1324.12 1230.12 1327.89 1228.14 Q1331.66 1226.11 1337.04 1226.11 Q1337.81 1226.11 1338.74 1226.23 Q1339.68 1226.31 1340.81 1226.52 L1340.85 1234.17 Z" fill="#000000" fill-rule="nonzero" fill-opacity="1"></path><path clip-path="url(#clip270)" d="M1348.67 1227.21 L1356.12 1227.21 L1356.12 1272.58 L1348.67 1272.58 L1348.67 1227.21 M1348.67 1209.54 L1356.12 1209.54 L1356.12 1218.98 L1348.67 1218.98 L1348.67 1209.54 Z" fill="#000000" fill-rule="nonzero" fill-opacity="1"></path><path clip-path="url(#clip270)" d="M1389.3 1232.43 Q1383.3 1232.43 1379.82 1237.13 Q1376.34 1241.79 1376.34 1249.93 Q1376.34 1258.07 1379.78 1262.77 Q1383.26 1267.43 1389.3 1267.43 Q1395.26 1267.43 1398.74 1262.73 Q1402.22 1258.03 1402.22 1249.93 Q1402.22 1241.87 1398.74 1237.17 Q1395.26 1232.43 1389.3 1232.43 M1389.3 1226.11 Q1399.02 1226.11 1404.57 1232.43 Q1410.12 1238.75 1410.12 1249.93 Q1410.12 1261.07 1404.57 1267.43 Q1399.02 1273.75 1389.3 1273.75 Q1379.54 1273.75 1373.99 1267.43 Q1368.48 1261.07 1368.48 1249.93 Q1368.48 1238.75 1373.99 1232.43 Q1379.54 1226.11 1389.3 1226.11 Z" fill="#000000" fill-rule="nonzero" fill-opacity="1"></path><path clip-path="url(#clip270)" d="M1448.77 1234.17 Q1447.51 1233.44 1446.01 1233.12 Q1444.55 1232.76 1442.77 1232.76 Q1436.45 1232.76 1433.05 1236.89 Q1429.69 1240.98 1429.69 1248.68 L1429.69 1272.58 L1422.19 1272.58 L1422.19 1227.21 L1429.69 1227.21 L1429.69 1234.25 Q1432.04 1230.12 1435.8 1228.14 Q1439.57 1226.11 1444.96 1226.11 Q1445.73 1226.11 1446.66 1226.23 Q1447.59 1226.31 1448.73 1226.52 L1448.77 1234.17 Z" fill="#000000" fill-rule="nonzero" fill-opacity="1"></path><path clip-path="url(#clip273)" d="M186.274 2235.49 L200.379 2235.49 L330.8 2235.48 L409.177 2235.45 L475.445 2235.3 L547.429 2234.69 L613.793 2233.17 L649.367 2231.67 L684.942 2229.47 L726.158 2225.76 L767.375 2220.42 L804.003 2213.93 L840.631 2205.47 L872.751 2196.12 L904.871 2184.73 L922.38 2177.56 L939.89 2169.68 L957.399 2161.04 L974.909 2151.61 L992.522 2141.29 L1010.14 2130.1 L1027.75 2118.03 L1045.36 2105.05 L1064.84 2089.6 L1084.31 2073.01 L1103.79 2055.24 L1123.26 2036.31 L1141.79 2017.22 L1160.32 1997.1 L1178.85 1975.97 L1197.38 1953.87 L1216.64 1929.9 L1235.91 1904.99 L1255.17 1879.21 L1274.44 1852.64 L1306.88 1806.42 L1339.31 1758.81 L1378.91 1699.75 L1418.51 1640.97 L1436.65 1614.56 L1454.79 1588.69 L1472.93 1563.52 L1491.06 1539.24 L1507.82 1517.75 L1524.57 1497.29 L1541.32 1478.02 L1558.07 1460.07 L1575.04 1443.37 L1592.01 1428.31 L1608.98 1415.03 L1625.95 1403.67 L1635.46 1398.18 L1644.97 1393.36 L1654.48 1389.21 L1663.99 1385.77 L1673.49 1383.06 L1683 1381.08 L1692.51 1379.85 L1702.02 1379.39 L1710.64 1379.66 L1719.25 1380.58 L1727.87 1382.16 L1736.49 1384.4 L1745.1 1387.33 L1753.72 1390.93 L1762.34 1395.22 L1770.95 1400.2 L1780.82 1406.74 L1790.69 1414.18 L1800.55 1422.53 L1810.42 1431.77 L1820.28 1441.9 L1830.15 1452.91 L1840.01 1464.78 L1849.88 1477.5 L1859.01 1490.03 L1868.15 1503.26 L1877.28 1517.16 L1886.42 1531.72 L1895.55 1546.93 L1904.68 1562.74 L1913.82 1579.14 L1922.95 1596.1 L1940.96 1631.04 L1958.98 1667.77 L1976.99 1705.99 L1995 1745.37 L2029.97 1823.88 L2064.95 1902.68 L2082.87 1942.21 L2100.8 1980.61 L2118.73 2017.47 L2136.65 2052.37 L2146.47 2070.51 L2156.29 2087.9 L2166.11 2104.46 L2175.94 2120.15 L2185.76 2134.91 L2195.58 2148.7 L2205.4 2161.49 L2215.22 2173.24 L2229.48 2188.42 L2243.75 2201.32 L2250.88 2206.91 L2258.01 2211.94 L2265.15 2216.41 L2272.28 2220.35 L2286.55 2226.64 L2300.81 2231.01 L2315.08 2233.69 L2329.34 2235.03 L2335.2 2235.29 L2341.05 2235.43 L2346.9 2235.48 L2352.76 2235.49 L2352.76 2235.49 L2346.9 2235.49 L2341.05 2235.49 L2335.2 2235.49 L2329.34 2235.49 L2315.08 2235.49 L2300.81 2235.49 L2286.55 2235.49 L2272.28 2235.49 L2265.15 2235.49 L2258.01 2235.49 L2250.88 2235.49 L2243.75 2235.49 L2229.48 2235.49 L2215.22 2235.49 L2205.4 2235.49 L2195.58 2235.49 L2185.76 2235.49 L2175.94 2235.49 L2166.11 2235.49 L2156.29 2235.49 L2146.47 2235.49 L2136.65 2235.49 L2118.73 2235.49 L2100.8 2235.49 L2082.87 2235.49 L2064.95 2235.49 L2029.97 2235.49 L1995 2235.49 L1976.99 2235.49 L1958.98 2235.49 L1940.96 2235.49 L1922.95 2235.49 L1913.82 2235.49 L1904.68 2235.49 L1895.55 2235.49 L1886.42 2235.49 L1877.28 2235.49 L1868.15 2235.49 L1859.01 2235.49 L1849.88 2235.49 L1840.01 2235.49 L1830.15 2235.49 L1820.28 2235.49 L1810.42 2235.49 L1800.55 2235.49 L1790.69 2235.49 L1780.82 2235.49 L1770.95 2235.49 L1762.34 2235.49 L1753.72 2235.49 L1745.1 2235.49 L1736.49 2235.49 L1727.87 2235.49 L1719.25 2235.49 L1710.64 2235.49 L1702.02 2235.49 L1692.51 2235.49 L1683 2235.49 L1673.49 2235.49 L1663.99 2235.49 L1654.48 2235.49 L1644.97 2235.49 L1635.46 2235.49 L1625.95 2235.49 L1608.98 2235.49 L1592.01 2235.49 L1575.04 2235.49 L1558.07 2235.49 L1541.32 2235.49 L1524.57 2235.49 L1507.82 2235.49 L1491.06 2235.49 L1472.93 2235.49 L1454.79 2235.49 L1436.65 2235.49 L1418.51 2235.49 L1378.91 2235.49 L1339.31 2235.49 L1306.88 2235.49 L1274.44 2235.49 L1255.17 2235.49 L1235.91 2235.49 L1216.64 2235.49 L1197.38 2235.49 L1178.85 2235.49 L1160.32 2235.49 L1141.79 2235.49 L1123.26 2235.49 L1103.79 2235.49 L1084.31 2235.49 L1064.84 2235.49 L1045.36 2235.49 L1027.75 2235.49 L1010.14 2235.49 L992.522 2235.49 L974.909 2235.49 L957.399 2235.49 L939.89 2235.49 L922.38 2235.49 L904.871 2235.49 L872.751 2235.49 L840.631 2235.49 L804.003 2235.49 L767.375 2235.49 L726.158 2235.49 L684.942 2235.49 L649.367 2235.49 L613.793 2235.49 L547.429 2235.49 L475.445 2235.49 L409.177 2235.49 L330.8 2235.49 L200.379 2235.49 L186.274 2235.49  Z" fill="#3da44d" fill-rule="evenodd" fill-opacity="0.3"></path>
<polyline clip-path="url(#clip273)" style="stroke:#3da44d; stroke-linecap:round; stroke-linejoin:round; stroke-width:4; stroke-opacity:0.3; fill:none" points="186.274,2235.49 200.379,2235.49 330.8,2235.48 409.177,2235.45 475.445,2235.3 547.429,2234.69 613.793,2233.17 649.367,2231.67 684.942,2229.47 726.158,2225.76 767.375,2220.42 804.003,2213.93 840.631,2205.47 872.751,2196.12 904.871,2184.73 922.38,2177.56 939.89,2169.68 957.399,2161.04 974.909,2151.61 992.522,2141.29 1010.14,2130.1 1027.75,2118.03 1045.36,2105.05 1064.84,2089.6 1084.31,2073.01 1103.79,2055.24 1123.26,2036.31 1141.79,2017.22 1160.32,1997.1 1178.85,1975.97 1197.38,1953.87 1216.64,1929.9 1235.91,1904.99 1255.17,1879.21 1274.44,1852.64 1306.88,1806.42 1339.31,1758.81 1378.91,1699.75 1418.51,1640.97 1436.65,1614.56 1454.79,1588.69 1472.93,1563.52 1491.06,1539.24 1507.82,1517.75 1524.57,1497.29 1541.32,1478.02 1558.07,1460.07 1575.04,1443.37 1592.01,1428.31 1608.98,1415.03 1625.95,1403.67 1635.46,1398.18 1644.97,1393.36 1654.48,1389.21 1663.99,1385.77 1673.49,1383.06 1683,1381.08 1692.51,1379.85 1702.02,1379.39 1710.64,1379.66 1719.25,1380.58 1727.87,1382.16 1736.49,1384.4 1745.1,1387.33 1753.72,1390.93 1762.34,1395.22 1770.95,1400.2 1780.82,1406.74 1790.69,1414.18 1800.55,1422.53 1810.42,1431.77 1820.28,1441.9 1830.15,1452.91 1840.01,1464.78 1849.88,1477.5 1859.01,1490.03 1868.15,1503.26 1877.28,1517.16 1886.42,1531.72 1895.55,1546.93 1904.68,1562.74 1913.82,1579.14 1922.95,1596.1 1940.96,1631.04 1958.98,1667.77 1976.99,1705.99 1995,1745.37 2029.97,1823.88 2064.95,1902.68 2082.87,1942.21 2100.8,1980.61 2118.73,2017.47 2136.65,2052.37 2146.47,2070.51 2156.29,2087.9 2166.11,2104.46 2175.94,2120.15 2185.76,2134.91 2195.58,2148.7 2205.4,2161.49 2215.22,2173.24 2229.48,2188.42 2243.75,2201.32 2250.88,2206.91 2258.01,2211.94 2265.15,2216.41 2272.28,2220.35 2286.55,2226.64 2300.81,2231.01 2315.08,2233.69 2329.34,2235.03 2335.2,2235.29 2341.05,2235.43 2346.9,2235.48 2352.76,2235.49 "></polyline>
<polyline clip-path="url(#clip273)" style="stroke:#009af9; stroke-linecap:round; stroke-linejoin:round; stroke-width:4; stroke-opacity:1; fill:none" stroke-dasharray="16, 10" points="1630.6,3168.62 1630.6,446.256 "></polyline>
<polyline clip-path="url(#clip273)" style="stroke:#e26f46; stroke-linecap:round; stroke-linejoin:round; stroke-width:4; stroke-opacity:1; fill:none" stroke-dasharray="16, 10" points="1347.34,3168.62 1347.34,446.256 "></polyline>
<polyline clip-path="url(#clip273)" style="stroke:#e26f46; stroke-linecap:round; stroke-linejoin:round; stroke-width:4; stroke-opacity:1; fill:none" stroke-dasharray="16, 10" points="1913.85,3168.62 1913.85,446.256 "></polyline>
<polyline clip-path="url(#clip273)" style="stroke:#000000; stroke-linecap:round; stroke-linejoin:round; stroke-width:4; stroke-opacity:1; fill:none" stroke-dasharray="16, 10" points="1811.14,3168.62 1811.14,446.256 "></polyline>
<path clip-path="url(#clip270)" d="M258.49 1591.32 L903.122 1591.32 L903.122 1383.96 L258.49 1383.96  Z" fill="#ffffff" fill-rule="evenodd" fill-opacity="1"></path>
<polyline clip-path="url(#clip270)" style="stroke:#000000; stroke-linecap:round; stroke-linejoin:round; stroke-width:4; stroke-opacity:1; fill:none" points="258.49,1591.32 903.122,1591.32 903.122,1383.96 258.49,1383.96 258.49,1591.32 "></polyline>
<polyline clip-path="url(#clip270)" style="stroke:#009af9; stroke-linecap:round; stroke-linejoin:round; stroke-width:4; stroke-opacity:1; fill:none" stroke-dasharray="16, 10" points="282.562,1435.8 426.994,1435.8 "></polyline>
<path clip-path="url(#clip270)" d="M455.742 1422.36 L455.742 1435.35 L461.622 1435.35 Q464.886 1435.35 466.668 1433.66 Q468.45 1431.97 468.45 1428.84 Q468.45 1425.74 466.668 1424.05 Q464.886 1422.36 461.622 1422.36 L455.742 1422.36 M451.066 1418.52 L461.622 1418.52 Q467.432 1418.52 470.395 1421.16 Q473.381 1423.78 473.381 1428.84 Q473.381 1433.96 470.395 1436.58 Q467.432 1439.19 461.622 1439.19 L455.742 1439.19 L455.742 1453.08 L451.066 1453.08 L451.066 1418.52 Z" fill="#000000" fill-rule="nonzero" fill-opacity="1"></path><path clip-path="url(#clip270)" d="M487.825 1430.14 Q484.399 1430.14 482.409 1432.83 Q480.418 1435.49 480.418 1440.14 Q480.418 1444.79 482.386 1447.48 Q484.376 1450.14 487.825 1450.14 Q491.228 1450.14 493.219 1447.46 Q495.21 1444.77 495.21 1440.14 Q495.21 1435.53 493.219 1432.85 Q491.228 1430.14 487.825 1430.14 M487.825 1426.53 Q493.381 1426.53 496.552 1430.14 Q499.723 1433.75 499.723 1440.14 Q499.723 1446.51 496.552 1450.14 Q493.381 1453.75 487.825 1453.75 Q482.247 1453.75 479.075 1450.14 Q475.927 1446.51 475.927 1440.14 Q475.927 1433.75 479.075 1430.14 Q482.247 1426.53 487.825 1426.53 Z" fill="#000000" fill-rule="nonzero" fill-opacity="1"></path><path clip-path="url(#clip270)" d="M523.311 1427.92 L523.311 1431.95 Q521.506 1431.02 519.561 1430.56 Q517.617 1430.09 515.533 1430.09 Q512.362 1430.09 510.765 1431.07 Q509.191 1432.04 509.191 1433.98 Q509.191 1435.47 510.325 1436.32 Q511.459 1437.15 514.885 1437.92 L516.344 1438.24 Q520.881 1439.21 522.779 1441 Q524.7 1442.76 524.7 1445.93 Q524.7 1449.54 521.83 1451.65 Q518.983 1453.75 513.983 1453.75 Q511.899 1453.75 509.631 1453.34 Q507.385 1452.94 504.885 1452.13 L504.885 1447.73 Q507.246 1448.96 509.538 1449.59 Q511.83 1450.19 514.075 1450.19 Q517.084 1450.19 518.705 1449.17 Q520.325 1448.13 520.325 1446.25 Q520.325 1444.52 519.145 1443.59 Q517.987 1442.66 514.029 1441.81 L512.547 1441.46 Q508.589 1440.63 506.83 1438.91 Q505.071 1437.18 505.071 1434.17 Q505.071 1430.51 507.663 1428.52 Q510.256 1426.53 515.024 1426.53 Q517.385 1426.53 519.469 1426.88 Q521.552 1427.22 523.311 1427.92 Z" fill="#000000" fill-rule="nonzero" fill-opacity="1"></path><path clip-path="url(#clip270)" d="M535.695 1419.79 L535.695 1427.15 L544.469 1427.15 L544.469 1430.47 L535.695 1430.47 L535.695 1444.54 Q535.695 1447.71 536.552 1448.61 Q537.432 1449.52 540.094 1449.52 L544.469 1449.52 L544.469 1453.08 L540.094 1453.08 Q535.163 1453.08 533.288 1451.25 Q531.413 1449.4 531.413 1444.54 L531.413 1430.47 L528.288 1430.47 L528.288 1427.15 L531.413 1427.15 L531.413 1419.79 L535.695 1419.79 Z" fill="#000000" fill-rule="nonzero" fill-opacity="1"></path><path clip-path="url(#clip270)" d="M572.246 1439.05 L572.246 1441.14 L552.663 1441.14 Q552.941 1445.53 555.302 1447.85 Q557.686 1450.14 561.922 1450.14 Q564.376 1450.14 566.667 1449.54 Q568.982 1448.94 571.251 1447.73 L571.251 1451.76 Q568.959 1452.73 566.552 1453.24 Q564.144 1453.75 561.667 1453.75 Q555.464 1453.75 551.83 1450.14 Q548.218 1446.53 548.218 1440.37 Q548.218 1434.01 551.644 1430.28 Q555.093 1426.53 560.927 1426.53 Q566.158 1426.53 569.191 1429.91 Q572.246 1433.27 572.246 1439.05 M567.987 1437.8 Q567.941 1434.31 566.019 1432.22 Q564.121 1430.14 560.973 1430.14 Q557.408 1430.14 555.255 1432.15 Q553.126 1434.17 552.802 1437.83 L567.987 1437.8 Z" fill="#000000" fill-rule="nonzero" fill-opacity="1"></path><path clip-path="url(#clip270)" d="M594.26 1431.14 Q593.542 1430.72 592.686 1430.53 Q591.853 1430.33 590.834 1430.33 Q587.223 1430.33 585.278 1432.69 Q583.357 1435.03 583.357 1439.42 L583.357 1453.08 L579.075 1453.08 L579.075 1427.15 L583.357 1427.15 L583.357 1431.18 Q584.7 1428.82 586.853 1427.69 Q589.005 1426.53 592.084 1426.53 Q592.524 1426.53 593.056 1426.6 Q593.589 1426.65 594.237 1426.76 L594.26 1431.14 Z" fill="#000000" fill-rule="nonzero" fill-opacity="1"></path><path clip-path="url(#clip270)" d="M598.727 1427.15 L602.987 1427.15 L602.987 1453.08 L598.727 1453.08 L598.727 1427.15 M598.727 1417.06 L602.987 1417.06 L602.987 1422.46 L598.727 1422.46 L598.727 1417.06 Z" fill="#000000" fill-rule="nonzero" fill-opacity="1"></path><path clip-path="url(#clip270)" d="M621.945 1430.14 Q618.519 1430.14 616.528 1432.83 Q614.538 1435.49 614.538 1440.14 Q614.538 1444.79 616.505 1447.48 Q618.496 1450.14 621.945 1450.14 Q625.348 1450.14 627.338 1447.46 Q629.329 1444.77 629.329 1440.14 Q629.329 1435.53 627.338 1432.85 Q625.348 1430.14 621.945 1430.14 M621.945 1426.53 Q627.5 1426.53 630.672 1430.14 Q633.843 1433.75 633.843 1440.14 Q633.843 1446.51 630.672 1450.14 Q627.5 1453.75 621.945 1453.75 Q616.366 1453.75 613.195 1450.14 Q610.047 1446.51 610.047 1440.14 Q610.047 1433.75 613.195 1430.14 Q616.366 1426.53 621.945 1426.53 Z" fill="#000000" fill-rule="nonzero" fill-opacity="1"></path><path clip-path="url(#clip270)" d="M655.926 1431.14 Q655.209 1430.72 654.352 1430.53 Q653.519 1430.33 652.5 1430.33 Q648.889 1430.33 646.945 1432.69 Q645.024 1435.03 645.024 1439.42 L645.024 1453.08 L640.741 1453.08 L640.741 1427.15 L645.024 1427.15 L645.024 1431.18 Q646.366 1428.82 648.519 1427.69 Q650.672 1426.53 653.75 1426.53 Q654.19 1426.53 654.723 1426.6 Q655.255 1426.65 655.903 1426.76 L655.926 1431.14 Z" fill="#000000" fill-rule="nonzero" fill-opacity="1"></path><path clip-path="url(#clip270)" d="M675.648 1418.52 L682.616 1418.52 L691.435 1442.04 L700.301 1418.52 L707.269 1418.52 L707.269 1453.08 L702.708 1453.08 L702.708 1422.73 L693.796 1446.44 L689.097 1446.44 L680.185 1422.73 L680.185 1453.08 L675.648 1453.08 L675.648 1418.52 Z" fill="#000000" fill-rule="nonzero" fill-opacity="1"></path><path clip-path="url(#clip270)" d="M738.542 1439.05 L738.542 1441.14 L718.958 1441.14 Q719.236 1445.53 721.597 1447.85 Q723.981 1450.14 728.218 1450.14 Q730.671 1450.14 732.963 1449.54 Q735.278 1448.94 737.546 1447.73 L737.546 1451.76 Q735.255 1452.73 732.847 1453.24 Q730.44 1453.75 727.963 1453.75 Q721.759 1453.75 718.125 1450.14 Q714.514 1446.53 714.514 1440.37 Q714.514 1434.01 717.94 1430.28 Q721.389 1426.53 727.222 1426.53 Q732.454 1426.53 735.486 1429.91 Q738.542 1433.27 738.542 1439.05 M734.282 1437.8 Q734.236 1434.31 732.315 1432.22 Q730.417 1430.14 727.268 1430.14 Q723.704 1430.14 721.551 1432.15 Q719.421 1434.17 719.097 1437.83 L734.282 1437.8 Z" fill="#000000" fill-rule="nonzero" fill-opacity="1"></path><path clip-path="url(#clip270)" d="M757.315 1440.05 Q752.153 1440.05 750.162 1441.23 Q748.171 1442.41 748.171 1445.26 Q748.171 1447.53 749.653 1448.87 Q751.157 1450.19 753.727 1450.19 Q757.268 1450.19 759.398 1447.69 Q761.551 1445.16 761.551 1441 L761.551 1440.05 L757.315 1440.05 M765.81 1438.29 L765.81 1453.08 L761.551 1453.08 L761.551 1449.15 Q760.092 1451.51 757.916 1452.64 Q755.741 1453.75 752.592 1453.75 Q748.611 1453.75 746.25 1451.53 Q743.912 1449.28 743.912 1445.53 Q743.912 1441.16 746.829 1438.94 Q749.768 1436.71 755.578 1436.71 L761.551 1436.71 L761.551 1436.3 Q761.551 1433.36 759.606 1431.76 Q757.685 1430.14 754.19 1430.14 Q751.967 1430.14 749.861 1430.67 Q747.754 1431.21 745.81 1432.27 L745.81 1428.34 Q748.148 1427.43 750.347 1426.99 Q752.546 1426.53 754.629 1426.53 Q760.254 1426.53 763.032 1429.45 Q765.81 1432.36 765.81 1438.29 Z" fill="#000000" fill-rule="nonzero" fill-opacity="1"></path><path clip-path="url(#clip270)" d="M796.134 1437.43 L796.134 1453.08 L791.875 1453.08 L791.875 1437.57 Q791.875 1433.89 790.439 1432.06 Q789.004 1430.23 786.134 1430.23 Q782.685 1430.23 780.694 1432.43 Q778.703 1434.63 778.703 1438.43 L778.703 1453.08 L774.421 1453.08 L774.421 1427.15 L778.703 1427.15 L778.703 1431.18 Q780.231 1428.84 782.291 1427.69 Q784.375 1426.53 787.083 1426.53 Q791.551 1426.53 793.842 1429.31 Q796.134 1432.06 796.134 1437.43 Z" fill="#000000" fill-rule="nonzero" fill-opacity="1"></path><polyline clip-path="url(#clip270)" style="stroke:#e26f46; stroke-linecap:round; stroke-linejoin:round; stroke-width:4; stroke-opacity:1; fill:none" stroke-dasharray="16, 10" points="282.562,1487.64 426.994,1487.64 "></polyline>
<path clip-path="url(#clip270)" d="M455.742 1474.2 L455.742 1487.19 L461.622 1487.19 Q464.886 1487.19 466.668 1485.5 Q468.45 1483.81 468.45 1480.68 Q468.45 1477.58 466.668 1475.89 Q464.886 1474.2 461.622 1474.2 L455.742 1474.2 M451.066 1470.36 L461.622 1470.36 Q467.432 1470.36 470.395 1473 Q473.381 1475.62 473.381 1480.68 Q473.381 1485.8 470.395 1488.42 Q467.432 1491.03 461.622 1491.03 L455.742 1491.03 L455.742 1504.92 L451.066 1504.92 L451.066 1470.36 Z" fill="#000000" fill-rule="nonzero" fill-opacity="1"></path><path clip-path="url(#clip270)" d="M487.825 1481.98 Q484.399 1481.98 482.409 1484.67 Q480.418 1487.33 480.418 1491.98 Q480.418 1496.63 482.386 1499.32 Q484.376 1501.98 487.825 1501.98 Q491.228 1501.98 493.219 1499.3 Q495.21 1496.61 495.21 1491.98 Q495.21 1487.37 493.219 1484.69 Q491.228 1481.98 487.825 1481.98 M487.825 1478.37 Q493.381 1478.37 496.552 1481.98 Q499.723 1485.59 499.723 1491.98 Q499.723 1498.35 496.552 1501.98 Q493.381 1505.59 487.825 1505.59 Q482.247 1505.59 479.075 1501.98 Q475.927 1498.35 475.927 1491.98 Q475.927 1485.59 479.075 1481.98 Q482.247 1478.37 487.825 1478.37 Z" fill="#000000" fill-rule="nonzero" fill-opacity="1"></path><path clip-path="url(#clip270)" d="M523.311 1479.76 L523.311 1483.79 Q521.506 1482.86 519.561 1482.4 Q517.617 1481.93 515.533 1481.93 Q512.362 1481.93 510.765 1482.91 Q509.191 1483.88 509.191 1485.82 Q509.191 1487.31 510.325 1488.16 Q511.459 1488.99 514.885 1489.76 L516.344 1490.08 Q520.881 1491.05 522.779 1492.84 Q524.7 1494.6 524.7 1497.77 Q524.7 1501.38 521.83 1503.49 Q518.983 1505.59 513.983 1505.59 Q511.899 1505.59 509.631 1505.18 Q507.385 1504.78 504.885 1503.97 L504.885 1499.57 Q507.246 1500.8 509.538 1501.43 Q511.83 1502.03 514.075 1502.03 Q517.084 1502.03 518.705 1501.01 Q520.325 1499.97 520.325 1498.09 Q520.325 1496.36 519.145 1495.43 Q517.987 1494.5 514.029 1493.65 L512.547 1493.3 Q508.589 1492.47 506.83 1490.75 Q505.071 1489.02 505.071 1486.01 Q505.071 1482.35 507.663 1480.36 Q510.256 1478.37 515.024 1478.37 Q517.385 1478.37 519.469 1478.72 Q521.552 1479.06 523.311 1479.76 Z" fill="#000000" fill-rule="nonzero" fill-opacity="1"></path><path clip-path="url(#clip270)" d="M535.695 1471.63 L535.695 1478.99 L544.469 1478.99 L544.469 1482.31 L535.695 1482.31 L535.695 1496.38 Q535.695 1499.55 536.552 1500.45 Q537.432 1501.36 540.094 1501.36 L544.469 1501.36 L544.469 1504.92 L540.094 1504.92 Q535.163 1504.92 533.288 1503.09 Q531.413 1501.24 531.413 1496.38 L531.413 1482.31 L528.288 1482.31 L528.288 1478.99 L531.413 1478.99 L531.413 1471.63 L535.695 1471.63 Z" fill="#000000" fill-rule="nonzero" fill-opacity="1"></path><path clip-path="url(#clip270)" d="M572.246 1490.89 L572.246 1492.98 L552.663 1492.98 Q552.941 1497.37 555.302 1499.69 Q557.686 1501.98 561.922 1501.98 Q564.376 1501.98 566.667 1501.38 Q568.982 1500.78 571.251 1499.57 L571.251 1503.6 Q568.959 1504.57 566.552 1505.08 Q564.144 1505.59 561.667 1505.59 Q555.464 1505.59 551.83 1501.98 Q548.218 1498.37 548.218 1492.21 Q548.218 1485.85 551.644 1482.12 Q555.093 1478.37 560.927 1478.37 Q566.158 1478.37 569.191 1481.75 Q572.246 1485.11 572.246 1490.89 M567.987 1489.64 Q567.941 1486.15 566.019 1484.06 Q564.121 1481.98 560.973 1481.98 Q557.408 1481.98 555.255 1483.99 Q553.126 1486.01 552.802 1489.67 L567.987 1489.64 Z" fill="#000000" fill-rule="nonzero" fill-opacity="1"></path><path clip-path="url(#clip270)" d="M594.26 1482.98 Q593.542 1482.56 592.686 1482.37 Q591.853 1482.17 590.834 1482.17 Q587.223 1482.17 585.278 1484.53 Q583.357 1486.87 583.357 1491.26 L583.357 1504.92 L579.075 1504.92 L579.075 1478.99 L583.357 1478.99 L583.357 1483.02 Q584.7 1480.66 586.853 1479.53 Q589.005 1478.37 592.084 1478.37 Q592.524 1478.37 593.056 1478.44 Q593.589 1478.49 594.237 1478.6 L594.26 1482.98 Z" fill="#000000" fill-rule="nonzero" fill-opacity="1"></path><path clip-path="url(#clip270)" d="M598.727 1478.99 L602.987 1478.99 L602.987 1504.92 L598.727 1504.92 L598.727 1478.99 M598.727 1468.9 L602.987 1468.9 L602.987 1474.3 L598.727 1474.3 L598.727 1468.9 Z" fill="#000000" fill-rule="nonzero" fill-opacity="1"></path><path clip-path="url(#clip270)" d="M621.945 1481.98 Q618.519 1481.98 616.528 1484.67 Q614.538 1487.33 614.538 1491.98 Q614.538 1496.63 616.505 1499.32 Q618.496 1501.98 621.945 1501.98 Q625.348 1501.98 627.338 1499.3 Q629.329 1496.61 629.329 1491.98 Q629.329 1487.37 627.338 1484.69 Q625.348 1481.98 621.945 1481.98 M621.945 1478.37 Q627.5 1478.37 630.672 1481.98 Q633.843 1485.59 633.843 1491.98 Q633.843 1498.35 630.672 1501.98 Q627.5 1505.59 621.945 1505.59 Q616.366 1505.59 613.195 1501.98 Q610.047 1498.35 610.047 1491.98 Q610.047 1485.59 613.195 1481.98 Q616.366 1478.37 621.945 1478.37 Z" fill="#000000" fill-rule="nonzero" fill-opacity="1"></path><path clip-path="url(#clip270)" d="M655.926 1482.98 Q655.209 1482.56 654.352 1482.37 Q653.519 1482.17 652.5 1482.17 Q648.889 1482.17 646.945 1484.53 Q645.024 1486.87 645.024 1491.26 L645.024 1504.92 L640.741 1504.92 L640.741 1478.99 L645.024 1478.99 L645.024 1483.02 Q646.366 1480.66 648.519 1479.53 Q650.672 1478.37 653.75 1478.37 Q654.19 1478.37 654.723 1478.44 Q655.255 1478.49 655.903 1478.6 L655.926 1482.98 Z" fill="#000000" fill-rule="nonzero" fill-opacity="1"></path><path clip-path="url(#clip270)" d="M696.366 1471.49 L696.366 1476.06 Q693.704 1474.78 691.343 1474.16 Q688.982 1473.53 686.783 1473.53 Q682.963 1473.53 680.88 1475.01 Q678.82 1476.49 678.82 1479.23 Q678.82 1481.52 680.185 1482.7 Q681.574 1483.86 685.417 1484.57 L688.241 1485.15 Q693.472 1486.15 695.949 1488.67 Q698.449 1491.17 698.449 1495.38 Q698.449 1500.41 695.07 1503 Q691.713 1505.59 685.208 1505.59 Q682.755 1505.59 679.977 1505.04 Q677.222 1504.48 674.259 1503.39 L674.259 1498.58 Q677.107 1500.18 679.838 1500.99 Q682.57 1501.8 685.208 1501.8 Q689.213 1501.8 691.389 1500.22 Q693.565 1498.65 693.565 1495.73 Q693.565 1493.18 691.991 1491.75 Q690.44 1490.31 686.875 1489.6 L684.028 1489.04 Q678.796 1488 676.459 1485.78 Q674.121 1483.56 674.121 1479.6 Q674.121 1475.01 677.338 1472.37 Q680.579 1469.74 686.25 1469.74 Q688.681 1469.74 691.204 1470.18 Q693.727 1470.62 696.366 1471.49 Z" fill="#000000" fill-rule="nonzero" fill-opacity="1"></path><path clip-path="url(#clip270)" d="M709.769 1471.63 L709.769 1478.99 L718.542 1478.99 L718.542 1482.31 L709.769 1482.31 L709.769 1496.38 Q709.769 1499.55 710.625 1500.45 Q711.505 1501.36 714.167 1501.36 L718.542 1501.36 L718.542 1504.92 L714.167 1504.92 Q709.236 1504.92 707.361 1503.09 Q705.486 1501.24 705.486 1496.38 L705.486 1482.31 L702.361 1482.31 L702.361 1478.99 L705.486 1478.99 L705.486 1471.63 L709.769 1471.63 Z" fill="#000000" fill-rule="nonzero" fill-opacity="1"></path><path clip-path="url(#clip270)" d="M741.204 1482.93 L741.204 1468.9 L745.463 1468.9 L745.463 1504.92 L741.204 1504.92 L741.204 1501.03 Q739.861 1503.35 737.801 1504.48 Q735.764 1505.59 732.893 1505.59 Q728.194 1505.59 725.231 1501.84 Q722.292 1498.09 722.292 1491.98 Q722.292 1485.87 725.231 1482.12 Q728.194 1478.37 732.893 1478.37 Q735.764 1478.37 737.801 1479.5 Q739.861 1480.62 741.204 1482.93 M726.69 1491.98 Q726.69 1496.68 728.611 1499.37 Q730.555 1502.03 733.935 1502.03 Q737.315 1502.03 739.259 1499.37 Q741.204 1496.68 741.204 1491.98 Q741.204 1487.28 739.259 1484.62 Q737.315 1481.93 733.935 1481.93 Q730.555 1481.93 728.611 1484.62 Q726.69 1487.28 726.69 1491.98 Z" fill="#000000" fill-rule="nonzero" fill-opacity="1"></path><polyline clip-path="url(#clip270)" style="stroke:#000000; stroke-linecap:round; stroke-linejoin:round; stroke-width:4; stroke-opacity:1; fill:none" stroke-dasharray="16, 10" points="282.562,1539.48 426.994,1539.48 "></polyline>
<path clip-path="url(#clip270)" d="M451.066 1522.2 L480.302 1522.2 L480.302 1526.14 L468.034 1526.14 L468.034 1556.76 L463.335 1556.76 L463.335 1526.14 L451.066 1526.14 L451.066 1522.2 Z" fill="#000000" fill-rule="nonzero" fill-opacity="1"></path><path clip-path="url(#clip270)" d="M492.686 1534.82 Q491.969 1534.4 491.112 1534.21 Q490.279 1534.01 489.26 1534.01 Q485.649 1534.01 483.705 1536.37 Q481.784 1538.71 481.784 1543.1 L481.784 1556.76 L477.501 1556.76 L477.501 1530.83 L481.784 1530.83 L481.784 1534.86 Q483.126 1532.5 485.279 1531.37 Q487.432 1530.21 490.51 1530.21 Q490.95 1530.21 491.483 1530.28 Q492.015 1530.33 492.663 1530.44 L492.686 1534.82 Z" fill="#000000" fill-rule="nonzero" fill-opacity="1"></path><path clip-path="url(#clip270)" d="M496.714 1546.53 L496.714 1530.83 L500.973 1530.83 L500.973 1546.37 Q500.973 1550.05 502.409 1551.9 Q503.844 1553.73 506.714 1553.73 Q510.163 1553.73 512.154 1551.53 Q514.168 1549.33 514.168 1545.53 L514.168 1530.83 L518.427 1530.83 L518.427 1556.76 L514.168 1556.76 L514.168 1552.78 Q512.617 1555.14 510.557 1556.3 Q508.52 1557.43 505.811 1557.43 Q501.344 1557.43 499.029 1554.65 Q496.714 1551.88 496.714 1546.53 M507.432 1530.21 L507.432 1530.21 Z" fill="#000000" fill-rule="nonzero" fill-opacity="1"></path><path clip-path="url(#clip270)" d="M549.376 1542.73 L549.376 1544.82 L529.793 1544.82 Q530.07 1549.21 532.432 1551.53 Q534.816 1553.82 539.052 1553.82 Q541.506 1553.82 543.797 1553.22 Q546.112 1552.62 548.381 1551.41 L548.381 1555.44 Q546.089 1556.41 543.681 1556.92 Q541.274 1557.43 538.797 1557.43 Q532.594 1557.43 528.959 1553.82 Q525.348 1550.21 525.348 1544.05 Q525.348 1537.69 528.774 1533.96 Q532.223 1530.21 538.057 1530.21 Q543.288 1530.21 546.32 1533.59 Q549.376 1536.95 549.376 1542.73 M545.117 1541.48 Q545.07 1537.99 543.149 1535.9 Q541.251 1533.82 538.103 1533.82 Q534.538 1533.82 532.385 1535.83 Q530.256 1537.85 529.932 1541.51 L545.117 1541.48 Z" fill="#000000" fill-rule="nonzero" fill-opacity="1"></path><path clip-path="url(#clip270)" d="M592.339 1523.33 L592.339 1527.9 Q589.677 1526.62 587.316 1526 Q584.954 1525.37 582.755 1525.37 Q578.936 1525.37 576.853 1526.85 Q574.792 1528.33 574.792 1531.07 Q574.792 1533.36 576.158 1534.54 Q577.547 1535.7 581.39 1536.41 L584.214 1536.99 Q589.445 1537.99 591.922 1540.51 Q594.422 1543.01 594.422 1547.22 Q594.422 1552.25 591.042 1554.84 Q587.686 1557.43 581.181 1557.43 Q578.728 1557.43 575.95 1556.88 Q573.195 1556.32 570.232 1555.23 L570.232 1550.42 Q573.079 1552.02 575.811 1552.83 Q578.542 1553.64 581.181 1553.64 Q585.186 1553.64 587.362 1552.06 Q589.538 1550.49 589.538 1547.57 Q589.538 1545.02 587.964 1543.59 Q586.413 1542.15 582.848 1541.44 L580.001 1540.88 Q574.769 1539.84 572.431 1537.62 Q570.093 1535.4 570.093 1531.44 Q570.093 1526.85 573.311 1524.21 Q576.552 1521.58 582.223 1521.58 Q584.653 1521.58 587.177 1522.02 Q589.7 1522.46 592.339 1523.33 Z" fill="#000000" fill-rule="nonzero" fill-opacity="1"></path><path clip-path="url(#clip270)" d="M601.089 1546.53 L601.089 1530.83 L605.348 1530.83 L605.348 1546.37 Q605.348 1550.05 606.783 1551.9 Q608.218 1553.73 611.089 1553.73 Q614.538 1553.73 616.528 1551.53 Q618.542 1549.33 618.542 1545.53 L618.542 1530.83 L622.801 1530.83 L622.801 1556.76 L618.542 1556.76 L618.542 1552.78 Q616.991 1555.14 614.931 1556.3 Q612.894 1557.43 610.186 1557.43 Q605.718 1557.43 603.403 1554.65 Q601.089 1551.88 601.089 1546.53 M611.806 1530.21 L611.806 1530.21 Z" fill="#000000" fill-rule="nonzero" fill-opacity="1"></path><path clip-path="url(#clip270)" d="M650.232 1531.83 L650.232 1535.81 Q648.426 1534.82 646.598 1534.33 Q644.792 1533.82 642.94 1533.82 Q638.797 1533.82 636.505 1536.46 Q634.213 1539.08 634.213 1543.82 Q634.213 1548.57 636.505 1551.21 Q638.797 1553.82 642.94 1553.82 Q644.792 1553.82 646.598 1553.33 Q648.426 1552.83 650.232 1551.83 L650.232 1555.77 Q648.449 1556.6 646.528 1557.02 Q644.63 1557.43 642.477 1557.43 Q636.621 1557.43 633.172 1553.75 Q629.723 1550.07 629.723 1543.82 Q629.723 1537.48 633.195 1533.84 Q636.69 1530.21 642.755 1530.21 Q644.723 1530.21 646.598 1530.63 Q648.473 1531.02 650.232 1531.83 Z" fill="#000000" fill-rule="nonzero" fill-opacity="1"></path><path clip-path="url(#clip270)" d="M676.297 1531.83 L676.297 1535.81 Q674.491 1534.82 672.662 1534.33 Q670.857 1533.82 669.005 1533.82 Q664.861 1533.82 662.57 1536.46 Q660.278 1539.08 660.278 1543.82 Q660.278 1548.57 662.57 1551.21 Q664.861 1553.82 669.005 1553.82 Q670.857 1553.82 672.662 1553.33 Q674.491 1552.83 676.297 1551.83 L676.297 1555.77 Q674.514 1556.6 672.593 1557.02 Q670.695 1557.43 668.542 1557.43 Q662.685 1557.43 659.236 1553.75 Q655.787 1550.07 655.787 1543.82 Q655.787 1537.48 659.26 1533.84 Q662.755 1530.21 668.82 1530.21 Q670.787 1530.21 672.662 1530.63 Q674.537 1531.02 676.297 1531.83 Z" fill="#000000" fill-rule="nonzero" fill-opacity="1"></path><path clip-path="url(#clip270)" d="M705.88 1542.73 L705.88 1544.82 L686.296 1544.82 Q686.574 1549.21 688.935 1551.53 Q691.32 1553.82 695.556 1553.82 Q698.009 1553.82 700.301 1553.22 Q702.616 1552.62 704.884 1551.41 L704.884 1555.44 Q702.593 1556.41 700.185 1556.92 Q697.778 1557.43 695.301 1557.43 Q689.097 1557.43 685.463 1553.82 Q681.852 1550.21 681.852 1544.05 Q681.852 1537.69 685.278 1533.96 Q688.727 1530.21 694.56 1530.21 Q699.792 1530.21 702.824 1533.59 Q705.88 1536.95 705.88 1542.73 M701.62 1541.48 Q701.574 1537.99 699.653 1535.9 Q697.755 1533.82 694.607 1533.82 Q691.042 1533.82 688.889 1535.83 Q686.759 1537.85 686.435 1541.51 L701.62 1541.48 Z" fill="#000000" fill-rule="nonzero" fill-opacity="1"></path><path clip-path="url(#clip270)" d="M729.398 1531.6 L729.398 1535.63 Q727.593 1534.7 725.648 1534.24 Q723.704 1533.77 721.62 1533.77 Q718.449 1533.77 716.852 1534.75 Q715.278 1535.72 715.278 1537.66 Q715.278 1539.15 716.412 1540 Q717.546 1540.83 720.972 1541.6 L722.431 1541.92 Q726.968 1542.89 728.866 1544.68 Q730.787 1546.44 730.787 1549.61 Q730.787 1553.22 727.917 1555.33 Q725.069 1557.43 720.069 1557.43 Q717.986 1557.43 715.718 1557.02 Q713.472 1556.62 710.972 1555.81 L710.972 1551.41 Q713.333 1552.64 715.625 1553.27 Q717.917 1553.87 720.162 1553.87 Q723.171 1553.87 724.792 1552.85 Q726.412 1551.81 726.412 1549.93 Q726.412 1548.2 725.231 1547.27 Q724.074 1546.34 720.116 1545.49 L718.634 1545.14 Q714.676 1544.31 712.917 1542.59 Q711.157 1540.86 711.157 1537.85 Q711.157 1534.19 713.75 1532.2 Q716.343 1530.21 721.111 1530.21 Q723.472 1530.21 725.556 1530.56 Q727.639 1530.9 729.398 1531.6 Z" fill="#000000" fill-rule="nonzero" fill-opacity="1"></path><path clip-path="url(#clip270)" d="M754.097 1531.6 L754.097 1535.63 Q752.291 1534.7 750.347 1534.24 Q748.403 1533.77 746.319 1533.77 Q743.148 1533.77 741.551 1534.75 Q739.977 1535.72 739.977 1537.66 Q739.977 1539.15 741.111 1540 Q742.245 1540.83 745.671 1541.6 L747.129 1541.92 Q751.666 1542.89 753.565 1544.68 Q755.486 1546.44 755.486 1549.61 Q755.486 1553.22 752.616 1555.33 Q749.768 1557.43 744.768 1557.43 Q742.685 1557.43 740.417 1557.02 Q738.171 1556.62 735.671 1555.81 L735.671 1551.41 Q738.032 1552.64 740.324 1553.27 Q742.616 1553.87 744.861 1553.87 Q747.87 1553.87 749.491 1552.85 Q751.111 1551.81 751.111 1549.93 Q751.111 1548.2 749.93 1547.27 Q748.773 1546.34 744.815 1545.49 L743.333 1545.14 Q739.375 1544.31 737.616 1542.59 Q735.856 1540.86 735.856 1537.85 Q735.856 1534.19 738.449 1532.2 Q741.042 1530.21 745.81 1530.21 Q748.171 1530.21 750.254 1530.56 Q752.338 1530.9 754.097 1531.6 Z" fill="#000000" fill-rule="nonzero" fill-opacity="1"></path><path clip-path="url(#clip270)" d="M793.912 1540.56 Q795.416 1541.07 796.828 1542.73 Q798.263 1544.4 799.699 1547.32 L804.444 1556.76 L799.421 1556.76 L795 1547.89 Q793.287 1544.42 791.666 1543.29 Q790.069 1542.15 787.291 1542.15 L782.199 1542.15 L782.199 1556.76 L777.523 1556.76 L777.523 1522.2 L788.078 1522.2 Q794.004 1522.2 796.921 1524.68 Q799.838 1527.15 799.838 1532.15 Q799.838 1535.42 798.31 1537.57 Q796.805 1539.72 793.912 1540.56 M782.199 1526.04 L782.199 1538.31 L788.078 1538.31 Q791.458 1538.31 793.171 1536.76 Q794.907 1535.19 794.907 1532.15 Q794.907 1529.12 793.171 1527.59 Q791.458 1526.04 788.078 1526.04 L782.199 1526.04 Z" fill="#000000" fill-rule="nonzero" fill-opacity="1"></path><path clip-path="url(#clip270)" d="M821.018 1543.73 Q815.856 1543.73 813.865 1544.91 Q811.874 1546.09 811.874 1548.94 Q811.874 1551.21 813.356 1552.55 Q814.861 1553.87 817.43 1553.87 Q820.972 1553.87 823.101 1551.37 Q825.254 1548.84 825.254 1544.68 L825.254 1543.73 L821.018 1543.73 M829.513 1541.97 L829.513 1556.76 L825.254 1556.76 L825.254 1552.83 Q823.796 1555.19 821.62 1556.32 Q819.444 1557.43 816.296 1557.43 Q812.314 1557.43 809.953 1555.21 Q807.615 1552.96 807.615 1549.21 Q807.615 1544.84 810.532 1542.62 Q813.472 1540.39 819.282 1540.39 L825.254 1540.39 L825.254 1539.98 Q825.254 1537.04 823.31 1535.44 Q821.388 1533.82 817.893 1533.82 Q815.671 1533.82 813.564 1534.35 Q811.458 1534.89 809.513 1535.95 L809.513 1532.02 Q811.851 1531.11 814.05 1530.67 Q816.249 1530.21 818.333 1530.21 Q823.958 1530.21 826.736 1533.13 Q829.513 1536.04 829.513 1541.97 Z" fill="#000000" fill-rule="nonzero" fill-opacity="1"></path><path clip-path="url(#clip270)" d="M842.499 1523.47 L842.499 1530.83 L851.272 1530.83 L851.272 1534.15 L842.499 1534.15 L842.499 1548.22 Q842.499 1551.39 843.356 1552.29 Q844.235 1553.2 846.897 1553.2 L851.272 1553.2 L851.272 1556.76 L846.897 1556.76 Q841.967 1556.76 840.092 1554.93 Q838.217 1553.08 838.217 1548.22 L838.217 1534.15 L835.092 1534.15 L835.092 1530.83 L838.217 1530.83 L838.217 1523.47 L842.499 1523.47 Z" fill="#000000" fill-rule="nonzero" fill-opacity="1"></path><path clip-path="url(#clip270)" d="M879.05 1542.73 L879.05 1544.82 L859.467 1544.82 Q859.745 1549.21 862.106 1551.53 Q864.49 1553.82 868.726 1553.82 Q871.18 1553.82 873.471 1553.22 Q875.786 1552.62 878.055 1551.41 L878.055 1555.44 Q875.763 1556.41 873.356 1556.92 Q870.948 1557.43 868.471 1557.43 Q862.268 1557.43 858.633 1553.82 Q855.022 1550.21 855.022 1544.05 Q855.022 1537.69 858.448 1533.96 Q861.897 1530.21 867.731 1530.21 Q872.962 1530.21 875.995 1533.59 Q879.05 1536.95 879.05 1542.73 M874.791 1541.48 Q874.745 1537.99 872.823 1535.9 Q870.925 1533.82 867.777 1533.82 Q864.212 1533.82 862.059 1535.83 Q859.93 1537.85 859.606 1541.51 L874.791 1541.48 Z" fill="#000000" fill-rule="nonzero" fill-opacity="1"></path></svg>