<svg xmlns="http://www.w3.org/2000/svg" xmlns:xlink="http://www.w3.org/1999/xlink" width="600" height="400" viewBox="0 0 2400 1600">
<defs>
  <clipPath id="clip110">
    <rect x="0" y="0" width="2400" height="1600"></rect>
  </clipPath>
</defs>
<path clip-path="url(#clip110)" d="M0 1600 L2400 1600 L2400 0 L0 0  Z" fill="#ffffff" fill-rule="evenodd" fill-opacity="1"></path>
<defs>
  <clipPath id="clip111">
    <rect x="480" y="0" width="1681" height="1600"></rect>
  </clipPath>
</defs>
<path clip-path="url(#clip110)" d="M110.881 1486.45 L2352.76 1486.45 L2352.76 123.472 L110.881 123.472  Z" fill="#ffffff" fill-rule="evenodd" fill-opacity="1"></path>
<defs>
  <clipPath id="clip112">
    <rect x="110" y="123" width="2243" height="1364"></rect>
  </clipPath>
</defs>
<polyline clip-path="url(#clip112)" style="stroke:#000000; stroke-linecap:round; stroke-linejoin:round; stroke-width:2; stroke-opacity:0.1; fill:none" points="110.881,1486.45 110.881,123.472 "></polyline>
<polyline clip-path="url(#clip112)" style="stroke:#000000; stroke-linecap:round; stroke-linejoin:round; stroke-width:2; stroke-opacity:0.1; fill:none" points="559.256,1486.45 559.256,123.472 "></polyline>
<polyline clip-path="url(#clip112)" style="stroke:#000000; stroke-linecap:round; stroke-linejoin:round; stroke-width:2; stroke-opacity:0.1; fill:none" points="1007.63,1486.45 1007.63,123.472 "></polyline>
<polyline clip-path="url(#clip112)" style="stroke:#000000; stroke-linecap:round; stroke-linejoin:round; stroke-width:2; stroke-opacity:0.1; fill:none" points="1456.01,1486.45 1456.01,123.472 "></polyline>
<polyline clip-path="url(#clip112)" style="stroke:#000000; stroke-linecap:round; stroke-linejoin:round; stroke-width:2; stroke-opacity:0.1; fill:none" points="1904.38,1486.45 1904.38,123.472 "></polyline>
<polyline clip-path="url(#clip112)" style="stroke:#000000; stroke-linecap:round; stroke-linejoin:round; stroke-width:2; stroke-opacity:0.1; fill:none" points="2352.76,1486.45 2352.76,123.472 "></polyline>
<polyline clip-path="url(#clip110)" style="stroke:#000000; stroke-linecap:round; stroke-linejoin:round; stroke-width:4; stroke-opacity:1; fill:none" points="110.881,1486.45 2352.76,1486.45 "></polyline>
<polyline clip-path="url(#clip110)" style="stroke:#000000; stroke-linecap:round; stroke-linejoin:round; stroke-width:4; stroke-opacity:1; fill:none" points="110.881,1486.45 110.881,1467.55 "></polyline>
<polyline clip-path="url(#clip110)" style="stroke:#000000; stroke-linecap:round; stroke-linejoin:round; stroke-width:4; stroke-opacity:1; fill:none" points="559.256,1486.45 559.256,1467.55 "></polyline>
<polyline clip-path="url(#clip110)" style="stroke:#000000; stroke-linecap:round; stroke-linejoin:round; stroke-width:4; stroke-opacity:1; fill:none" points="1007.63,1486.45 1007.63,1467.55 "></polyline>
<polyline clip-path="url(#clip110)" style="stroke:#000000; stroke-linecap:round; stroke-linejoin:round; stroke-width:4; stroke-opacity:1; fill:none" points="1456.01,1486.45 1456.01,1467.55 "></polyline>
<polyline clip-path="url(#clip110)" style="stroke:#000000; stroke-linecap:round; stroke-linejoin:round; stroke-width:4; stroke-opacity:1; fill:none" points="1904.38,1486.45 1904.38,1467.55 "></polyline>
<polyline clip-path="url(#clip110)" style="stroke:#000000; stroke-linecap:round; stroke-linejoin:round; stroke-width:4; stroke-opacity:1; fill:none" points="2352.76,1486.45 2352.76,1467.55 "></polyline>
<path clip-path="url(#clip110)" d="M88.2653 1517.37 Q84.6542 1517.37 82.8255 1520.93 Q81.0199 1524.47 81.0199 1531.6 Q81.0199 1538.71 82.8255 1542.27 Q84.6542 1545.82 88.2653 1545.82 Q91.8995 1545.82 93.7051 1542.27 Q95.5337 1538.71 95.5337 1531.6 Q95.5337 1524.47 93.7051 1520.93 Q91.8995 1517.37 88.2653 1517.37 M88.2653 1513.66 Q94.0754 1513.66 97.131 1518.27 Q100.21 1522.85 100.21 1531.6 Q100.21 1540.33 97.131 1544.94 Q94.0754 1549.52 88.2653 1549.52 Q82.4551 1549.52 79.3764 1544.94 Q76.3209 1540.33 76.3209 1531.6 Q76.3209 1522.85 79.3764 1518.27 Q82.4551 1513.66 88.2653 1513.66 Z" fill="#000000" fill-rule="nonzero" fill-opacity="1"></path><path clip-path="url(#clip110)" d="M108.427 1542.97 L113.311 1542.97 L113.311 1548.85 L108.427 1548.85 L108.427 1542.97 Z" fill="#000000" fill-rule="nonzero" fill-opacity="1"></path><path clip-path="url(#clip110)" d="M133.497 1517.37 Q129.885 1517.37 128.057 1520.93 Q126.251 1524.47 126.251 1531.6 Q126.251 1538.71 128.057 1542.27 Q129.885 1545.82 133.497 1545.82 Q137.131 1545.82 138.936 1542.27 Q140.765 1538.71 140.765 1531.6 Q140.765 1524.47 138.936 1520.93 Q137.131 1517.37 133.497 1517.37 M133.497 1513.66 Q139.307 1513.66 142.362 1518.27 Q145.441 1522.85 145.441 1531.6 Q145.441 1540.33 142.362 1544.94 Q139.307 1549.52 133.497 1549.52 Q127.686 1549.52 124.608 1544.94 Q121.552 1540.33 121.552 1531.6 Q121.552 1522.85 124.608 1518.27 Q127.686 1513.66 133.497 1513.66 Z" fill="#000000" fill-rule="nonzero" fill-opacity="1"></path><path clip-path="url(#clip110)" d="M537.439 1517.37 Q533.828 1517.37 531.999 1520.93 Q530.194 1524.47 530.194 1531.6 Q530.194 1538.71 531.999 1542.27 Q533.828 1545.82 537.439 1545.82 Q541.073 1545.82 542.879 1542.27 Q544.707 1538.71 544.707 1531.6 Q544.707 1524.47 542.879 1520.93 Q541.073 1517.37 537.439 1517.37 M537.439 1513.66 Q543.249 1513.66 546.305 1518.27 Q549.383 1522.85 549.383 1531.6 Q549.383 1540.33 546.305 1544.94 Q543.249 1549.52 537.439 1549.52 Q531.629 1549.52 528.55 1544.94 Q525.494 1540.33 525.494 1531.6 Q525.494 1522.85 528.55 1518.27 Q531.629 1513.66 537.439 1513.66 Z" fill="#000000" fill-rule="nonzero" fill-opacity="1"></path><path clip-path="url(#clip110)" d="M557.601 1542.97 L562.485 1542.97 L562.485 1548.85 L557.601 1548.85 L557.601 1542.97 Z" fill="#000000" fill-rule="nonzero" fill-opacity="1"></path><path clip-path="url(#clip110)" d="M576.698 1544.91 L593.017 1544.91 L593.017 1548.85 L571.073 1548.85 L571.073 1544.91 Q573.735 1542.16 578.318 1537.53 Q582.925 1532.88 584.105 1531.53 Q586.351 1529.01 587.23 1527.27 Q588.133 1525.51 588.133 1523.82 Q588.133 1521.07 586.189 1519.33 Q584.267 1517.6 581.165 1517.6 Q578.966 1517.6 576.513 1518.36 Q574.082 1519.13 571.304 1520.68 L571.304 1515.95 Q574.128 1514.82 576.582 1514.24 Q579.036 1513.66 581.073 1513.66 Q586.443 1513.66 589.638 1516.35 Q592.832 1519.03 592.832 1523.52 Q592.832 1525.65 592.022 1527.57 Q591.235 1529.47 589.128 1532.07 Q588.55 1532.74 585.448 1535.95 Q582.346 1539.15 576.698 1544.91 Z" fill="#000000" fill-rule="nonzero" fill-opacity="1"></path><path clip-path="url(#clip110)" d="M984.772 1517.37 Q981.161 1517.37 979.332 1520.93 Q977.527 1524.47 977.527 1531.6 Q977.527 1538.71 979.332 1542.27 Q981.161 1545.82 984.772 1545.82 Q988.406 1545.82 990.212 1542.27 Q992.041 1538.71 992.041 1531.6 Q992.041 1524.47 990.212 1520.93 Q988.406 1517.37 984.772 1517.37 M984.772 1513.66 Q990.582 1513.66 993.638 1518.27 Q996.717 1522.85 996.717 1531.6 Q996.717 1540.33 993.638 1544.94 Q990.582 1549.52 984.772 1549.52 Q978.962 1549.52 975.883 1544.94 Q972.828 1540.33 972.828 1531.6 Q972.828 1522.85 975.883 1518.27 Q978.962 1513.66 984.772 1513.66 Z" fill="#000000" fill-rule="nonzero" fill-opacity="1"></path><path clip-path="url(#clip110)" d="M1004.93 1542.97 L1009.82 1542.97 L1009.82 1548.85 L1004.93 1548.85 L1004.93 1542.97 Z" fill="#000000" fill-rule="nonzero" fill-opacity="1"></path><path clip-path="url(#clip110)" d="M1032.85 1518.36 L1021.05 1536.81 L1032.85 1536.81 L1032.85 1518.36 M1031.62 1514.29 L1037.5 1514.29 L1037.5 1536.81 L1042.43 1536.81 L1042.43 1540.7 L1037.5 1540.7 L1037.5 1548.85 L1032.85 1548.85 L1032.85 1540.7 L1017.25 1540.7 L1017.25 1536.19 L1031.62 1514.29 Z" fill="#000000" fill-rule="nonzero" fill-opacity="1"></path><path clip-path="url(#clip110)" d="M1433.31 1517.37 Q1429.7 1517.37 1427.87 1520.93 Q1426.06 1524.47 1426.06 1531.6 Q1426.06 1538.71 1427.87 1542.27 Q1429.7 1545.82 1433.31 1545.82 Q1436.94 1545.82 1438.75 1542.27 Q1440.58 1538.71 1440.58 1531.6 Q1440.58 1524.47 1438.75 1520.93 Q1436.94 1517.37 1433.31 1517.37 M1433.31 1513.66 Q1439.12 1513.66 1442.17 1518.27 Q1445.25 1522.85 1445.25 1531.6 Q1445.25 1540.33 1442.17 1544.94 Q1439.12 1549.52 1433.31 1549.52 Q1427.5 1549.52 1424.42 1544.94 Q1421.36 1540.33 1421.36 1531.6 Q1421.36 1522.85 1424.42 1518.27 Q1427.5 1513.66 1433.31 1513.66 Z" fill="#000000" fill-rule="nonzero" fill-opacity="1"></path><path clip-path="url(#clip110)" d="M1453.47 1542.97 L1458.36 1542.97 L1458.36 1548.85 L1453.47 1548.85 L1453.47 1542.97 Z" fill="#000000" fill-rule="nonzero" fill-opacity="1"></path><path clip-path="url(#clip110)" d="M1479.12 1529.7 Q1475.97 1529.7 1474.12 1531.86 Q1472.29 1534.01 1472.29 1537.76 Q1472.29 1541.49 1474.12 1543.66 Q1475.97 1545.82 1479.12 1545.82 Q1482.27 1545.82 1484.1 1543.66 Q1485.95 1541.49 1485.95 1537.76 Q1485.95 1534.01 1484.1 1531.86 Q1482.27 1529.7 1479.12 1529.7 M1488.4 1515.05 L1488.4 1519.31 Q1486.64 1518.48 1484.84 1518.04 Q1483.05 1517.6 1481.3 1517.6 Q1476.67 1517.6 1474.21 1520.72 Q1471.78 1523.85 1471.43 1530.17 Q1472.8 1528.15 1474.86 1527.09 Q1476.92 1526 1479.4 1526 Q1484.61 1526 1487.61 1529.17 Q1490.65 1532.32 1490.65 1537.76 Q1490.65 1543.08 1487.5 1546.3 Q1484.35 1549.52 1479.12 1549.52 Q1473.12 1549.52 1469.95 1544.94 Q1466.78 1540.33 1466.78 1531.6 Q1466.78 1523.41 1470.67 1518.55 Q1474.56 1513.66 1481.11 1513.66 Q1482.87 1513.66 1484.65 1514.01 Q1486.46 1514.36 1488.4 1515.05 Z" fill="#000000" fill-rule="nonzero" fill-opacity="1"></path><path clip-path="url(#clip110)" d="M1881.81 1517.37 Q1878.2 1517.37 1876.37 1520.93 Q1874.57 1524.47 1874.57 1531.6 Q1874.57 1538.71 1876.37 1542.27 Q1878.2 1545.82 1881.81 1545.82 Q1885.45 1545.82 1887.25 1542.27 Q1889.08 1538.71 1889.08 1531.6 Q1889.08 1524.47 1887.25 1520.93 Q1885.45 1517.37 1881.81 1517.37 M1881.81 1513.66 Q1887.62 1513.66 1890.68 1518.27 Q1893.76 1522.85 1893.76 1531.6 Q1893.76 1540.33 1890.68 1544.94 Q1887.62 1549.52 1881.81 1549.52 Q1876 1549.52 1872.92 1544.94 Q1869.87 1540.33 1869.87 1531.6 Q1869.87 1522.85 1872.92 1518.27 Q1876 1513.66 1881.81 1513.66 Z" fill="#000000" fill-rule="nonzero" fill-opacity="1"></path><path clip-path="url(#clip110)" d="M1901.97 1542.97 L1906.86 1542.97 L1906.86 1548.85 L1901.97 1548.85 L1901.97 1542.97 Z" fill="#000000" fill-rule="nonzero" fill-opacity="1"></path><path clip-path="url(#clip110)" d="M1927.04 1532.44 Q1923.71 1532.44 1921.79 1534.22 Q1919.89 1536 1919.89 1539.13 Q1919.89 1542.25 1921.79 1544.03 Q1923.71 1545.82 1927.04 1545.82 Q1930.38 1545.82 1932.3 1544.03 Q1934.22 1542.23 1934.22 1539.13 Q1934.22 1536 1932.3 1534.22 Q1930.4 1532.44 1927.04 1532.44 M1922.37 1530.45 Q1919.36 1529.7 1917.67 1527.64 Q1916 1525.58 1916 1522.62 Q1916 1518.48 1918.94 1516.07 Q1921.9 1513.66 1927.04 1513.66 Q1932.2 1513.66 1935.14 1516.07 Q1938.08 1518.48 1938.08 1522.62 Q1938.08 1525.58 1936.39 1527.64 Q1934.73 1529.7 1931.74 1530.45 Q1935.12 1531.23 1937 1533.52 Q1938.89 1535.82 1938.89 1539.13 Q1938.89 1544.15 1935.82 1546.83 Q1932.76 1549.52 1927.04 1549.52 Q1921.33 1549.52 1918.25 1546.83 Q1915.19 1544.15 1915.19 1539.13 Q1915.19 1535.82 1917.09 1533.52 Q1918.99 1531.23 1922.37 1530.45 M1920.65 1523.06 Q1920.65 1525.75 1922.32 1527.25 Q1924.01 1528.76 1927.04 1528.76 Q1930.05 1528.76 1931.74 1527.25 Q1933.45 1525.75 1933.45 1523.06 Q1933.45 1520.38 1931.74 1518.87 Q1930.05 1517.37 1927.04 1517.37 Q1924.01 1517.37 1922.32 1518.87 Q1920.65 1520.38 1920.65 1523.06 Z" fill="#000000" fill-rule="nonzero" fill-opacity="1"></path><path clip-path="url(#clip110)" d="M2319.91 1544.91 L2327.55 1544.91 L2327.55 1518.55 L2319.24 1520.21 L2319.24 1515.95 L2327.5 1514.29 L2332.18 1514.29 L2332.18 1544.91 L2339.82 1544.91 L2339.82 1548.85 L2319.91 1548.85 L2319.91 1544.91 Z" fill="#000000" fill-rule="nonzero" fill-opacity="1"></path><path clip-path="url(#clip110)" d="M2349.26 1542.97 L2354.14 1542.97 L2354.14 1548.85 L2349.26 1548.85 L2349.26 1542.97 Z" fill="#000000" fill-rule="nonzero" fill-opacity="1"></path><path clip-path="url(#clip110)" d="M2374.33 1517.37 Q2370.72 1517.37 2368.89 1520.93 Q2367.08 1524.47 2367.08 1531.6 Q2367.08 1538.71 2368.89 1542.27 Q2370.72 1545.82 2374.33 1545.82 Q2377.96 1545.82 2379.77 1542.27 Q2381.6 1538.71 2381.6 1531.6 Q2381.6 1524.47 2379.77 1520.93 Q2377.96 1517.37 2374.33 1517.37 M2374.33 1513.66 Q2380.14 1513.66 2383.2 1518.27 Q2386.27 1522.85 2386.27 1531.6 Q2386.27 1540.33 2383.2 1544.94 Q2380.14 1549.52 2374.33 1549.52 Q2368.52 1549.52 2365.44 1544.94 Q2362.39 1540.33 2362.39 1531.6 Q2362.39 1522.85 2365.44 1518.27 Q2368.52 1513.66 2374.33 1513.66 Z" fill="#000000" fill-rule="nonzero" fill-opacity="1"></path><polyline clip-path="url(#clip112)" style="stroke:#000000; stroke-linecap:round; stroke-linejoin:round; stroke-width:2; stroke-opacity:0.1; fill:none" points="110.881,1447.87 2352.76,1447.87 "></polyline>
<polyline clip-path="url(#clip112)" style="stroke:#000000; stroke-linecap:round; stroke-linejoin:round; stroke-width:2; stroke-opacity:0.1; fill:none" points="110.881,1009.79 2352.76,1009.79 "></polyline>
<polyline clip-path="url(#clip112)" style="stroke:#000000; stroke-linecap:round; stroke-linejoin:round; stroke-width:2; stroke-opacity:0.1; fill:none" points="110.881,571.701 2352.76,571.701 "></polyline>
<polyline clip-path="url(#clip112)" style="stroke:#000000; stroke-linecap:round; stroke-linejoin:round; stroke-width:2; stroke-opacity:0.1; fill:none" points="110.881,133.614 2352.76,133.614 "></polyline>
<polyline clip-path="url(#clip110)" style="stroke:#000000; stroke-linecap:round; stroke-linejoin:round; stroke-width:4; stroke-opacity:1; fill:none" points="110.881,1486.45 110.881,123.472 "></polyline>
<polyline clip-path="url(#clip110)" style="stroke:#000000; stroke-linecap:round; stroke-linejoin:round; stroke-width:4; stroke-opacity:1; fill:none" points="110.881,1447.87 129.779,1447.87 "></polyline>
<polyline clip-path="url(#clip110)" style="stroke:#000000; stroke-linecap:round; stroke-linejoin:round; stroke-width:4; stroke-opacity:1; fill:none" points="110.881,1009.79 129.779,1009.79 "></polyline>
<polyline clip-path="url(#clip110)" style="stroke:#000000; stroke-linecap:round; stroke-linejoin:round; stroke-width:4; stroke-opacity:1; fill:none" points="110.881,571.701 129.779,571.701 "></polyline>
<polyline clip-path="url(#clip110)" style="stroke:#000000; stroke-linecap:round; stroke-linejoin:round; stroke-width:4; stroke-opacity:1; fill:none" points="110.881,133.614 129.779,133.614 "></polyline>
<path clip-path="url(#clip110)" d="M62.9365 1433.67 Q59.3254 1433.67 57.4967 1437.24 Q55.6912 1440.78 55.6912 1447.91 Q55.6912 1455.01 57.4967 1458.58 Q59.3254 1462.12 62.9365 1462.12 Q66.5707 1462.12 68.3763 1458.58 Q70.205 1455.01 70.205 1447.91 Q70.205 1440.78 68.3763 1437.24 Q66.5707 1433.67 62.9365 1433.67 M62.9365 1429.97 Q68.7467 1429.97 71.8022 1434.57 Q74.8809 1439.16 74.8809 1447.91 Q74.8809 1456.63 71.8022 1461.24 Q68.7467 1465.82 62.9365 1465.82 Q57.1264 1465.82 54.0477 1461.24 Q50.9921 1456.63 50.9921 1447.91 Q50.9921 1439.16 54.0477 1434.57 Q57.1264 1429.97 62.9365 1429.97 Z" fill="#000000" fill-rule="nonzero" fill-opacity="1"></path><path clip-path="url(#clip110)" d="M54.9736 1023.13 L62.6124 1023.13 L62.6124 996.766 L54.3023 998.433 L54.3023 994.173 L62.5661 992.507 L67.242 992.507 L67.242 1023.13 L74.8809 1023.13 L74.8809 1027.07 L54.9736 1027.07 L54.9736 1023.13 Z" fill="#000000" fill-rule="nonzero" fill-opacity="1"></path><path clip-path="url(#clip110)" d="M58.5615 585.045 L74.8809 585.045 L74.8809 588.981 L52.9366 588.981 L52.9366 585.045 Q55.5986 582.291 60.1819 577.661 Q64.7883 573.008 65.9689 571.666 Q68.2143 569.143 69.0939 567.407 Q69.9967 565.647 69.9967 563.957 Q69.9967 561.203 68.0522 559.467 Q66.1309 557.731 63.0291 557.731 Q60.83 557.731 58.3763 558.495 Q55.9458 559.258 53.168 560.809 L53.168 556.087 Q55.9921 554.953 58.4458 554.374 Q60.8995 553.796 62.9365 553.796 Q68.3068 553.796 71.5013 556.481 Q74.6957 559.166 74.6957 563.657 Q74.6957 565.786 73.8855 567.707 Q73.0985 569.606 70.992 572.198 Q70.4133 572.869 67.3115 576.087 Q64.2096 579.281 58.5615 585.045 Z" fill="#000000" fill-rule="nonzero" fill-opacity="1"></path><path clip-path="url(#clip110)" d="M67.7513 132.26 Q71.1078 132.978 72.9827 135.246 Q74.8809 137.515 74.8809 140.848 Q74.8809 145.964 71.3624 148.765 Q67.8439 151.566 61.3624 151.566 Q59.1865 151.566 56.8717 151.126 Q54.5801 150.709 52.1264 149.853 L52.1264 145.339 Q54.0708 146.473 56.3856 147.052 Q58.7004 147.63 61.2236 147.63 Q65.6217 147.63 67.9133 145.894 Q70.2281 144.158 70.2281 140.848 Q70.2281 137.792 68.0754 136.079 Q65.9457 134.343 62.1263 134.343 L58.0986 134.343 L58.0986 130.501 L62.3115 130.501 Q65.7606 130.501 67.5893 129.135 Q69.418 127.746 69.418 125.154 Q69.418 122.492 67.5198 121.08 Q65.6448 119.644 62.1263 119.644 Q60.205 119.644 58.006 120.061 Q55.8069 120.478 53.168 121.357 L53.168 117.191 Q55.8301 116.45 58.1449 116.08 Q60.4828 115.709 62.543 115.709 Q67.867 115.709 70.9689 118.14 Q74.0707 120.547 74.0707 124.668 Q74.0707 127.538 72.4272 129.529 Q70.7837 131.496 67.7513 132.26 Z" fill="#000000" fill-rule="nonzero" fill-opacity="1"></path><path clip-path="url(#clip110)" d="M1060.75 18.8205 L1060.75 41.5461 L1071.04 41.5461 Q1076.75 41.5461 1079.87 38.5889 Q1082.99 35.6318 1082.99 30.163 Q1082.99 24.7348 1079.87 21.7777 Q1076.75 18.8205 1071.04 18.8205 L1060.75 18.8205 M1052.57 12.096 L1071.04 12.096 Q1081.21 12.096 1086.39 16.714 Q1091.62 21.2916 1091.62 30.163 Q1091.62 39.1155 1086.39 43.6931 Q1081.21 48.2706 1071.04 48.2706 L1060.75 48.2706 L1060.75 72.576 L1052.57 72.576 L1052.57 12.096 Z" fill="#000000" fill-rule="nonzero" fill-opacity="1"></path><path clip-path="url(#clip110)" d="M1116.89 32.4315 Q1110.9 32.4315 1107.42 37.1306 Q1103.93 41.7891 1103.93 49.9314 Q1103.93 58.0738 1107.37 62.7728 Q1110.86 67.4314 1116.89 67.4314 Q1122.85 67.4314 1126.33 62.7323 Q1129.82 58.0333 1129.82 49.9314 Q1129.82 41.8701 1126.33 37.1711 Q1122.85 32.4315 1116.89 32.4315 M1116.89 26.1121 Q1126.62 26.1121 1132.17 32.4315 Q1137.72 38.7509 1137.72 49.9314 Q1137.72 61.0714 1132.17 67.4314 Q1126.62 73.7508 1116.89 73.7508 Q1107.13 73.7508 1101.58 67.4314 Q1096.07 61.0714 1096.07 49.9314 Q1096.07 38.7509 1101.58 32.4315 Q1107.13 26.1121 1116.89 26.1121 Z" fill="#000000" fill-rule="nonzero" fill-opacity="1"></path><path clip-path="url(#clip110)" d="M1178.99 28.5427 L1178.99 35.5912 Q1175.83 33.9709 1172.43 33.1607 Q1169.03 32.3505 1165.38 32.3505 Q1159.83 32.3505 1157.04 34.0519 Q1154.28 35.7533 1154.28 39.156 Q1154.28 41.7486 1156.27 43.2475 Q1158.25 44.7058 1164.25 46.0426 L1166.8 46.6097 Q1174.74 48.3111 1178.06 51.4303 Q1181.43 54.509 1181.43 60.0587 Q1181.43 66.3781 1176.4 70.0644 Q1171.42 73.7508 1162.67 73.7508 Q1159.02 73.7508 1155.05 73.0216 Q1151.12 72.3329 1146.75 70.9151 L1146.75 63.2184 Q1150.88 65.3654 1154.89 66.4591 Q1158.9 67.5124 1162.83 67.5124 Q1168.1 67.5124 1170.93 65.73 Q1173.77 63.9071 1173.77 60.6258 Q1173.77 57.5877 1171.7 55.9673 Q1169.68 54.3469 1162.75 52.8481 L1160.16 52.2405 Q1153.23 50.7821 1150.15 47.7845 Q1147.07 44.7463 1147.07 39.4801 Q1147.07 33.0797 1151.61 29.5959 Q1156.15 26.1121 1164.49 26.1121 Q1168.62 26.1121 1172.27 26.7198 Q1175.92 27.3274 1178.99 28.5427 Z" fill="#000000" fill-rule="nonzero" fill-opacity="1"></path><path clip-path="url(#clip110)" d="M1200.67 14.324 L1200.67 27.2059 L1216.02 27.2059 L1216.02 32.9987 L1200.67 32.9987 L1200.67 57.6282 Q1200.67 63.1779 1202.17 64.7578 Q1203.71 66.3376 1208.36 66.3376 L1216.02 66.3376 L1216.02 72.576 L1208.36 72.576 Q1199.74 72.576 1196.45 69.3758 Q1193.17 66.1351 1193.17 57.6282 L1193.17 32.9987 L1187.7 32.9987 L1187.7 27.2059 L1193.17 27.2059 L1193.17 14.324 L1200.67 14.324 Z" fill="#000000" fill-rule="nonzero" fill-opacity="1"></path><path clip-path="url(#clip110)" d="M1264.63 48.0275 L1264.63 51.6733 L1230.36 51.6733 Q1230.85 59.3701 1234.98 63.421 Q1239.15 67.4314 1246.56 67.4314 Q1250.86 67.4314 1254.87 66.3781 Q1258.92 65.3249 1262.89 63.2184 L1262.89 70.267 Q1258.88 71.9684 1254.67 72.8596 Q1250.45 73.7508 1246.12 73.7508 Q1235.26 73.7508 1228.9 67.4314 Q1222.58 61.1119 1222.58 50.3365 Q1222.58 39.1965 1228.58 32.6746 Q1234.61 26.1121 1244.82 26.1121 Q1253.98 26.1121 1259.28 32.0264 Q1264.63 37.9003 1264.63 48.0275 M1257.18 45.84 Q1257.1 39.7232 1253.73 36.0774 Q1250.41 32.4315 1244.9 32.4315 Q1238.66 32.4315 1234.9 35.9558 Q1231.17 39.4801 1230.6 45.8805 L1257.18 45.84 Z" fill="#000000" fill-rule="nonzero" fill-opacity="1"></path><path clip-path="url(#clip110)" d="M1303.15 34.1734 Q1301.9 33.4443 1300.4 33.1202 Q1298.94 32.7556 1297.16 32.7556 Q1290.84 32.7556 1287.44 36.8875 Q1284.08 40.9789 1284.08 48.6757 L1284.08 72.576 L1276.58 72.576 L1276.58 27.2059 L1284.08 27.2059 L1284.08 34.2544 Q1286.42 30.1225 1290.19 28.1376 Q1293.96 26.1121 1299.35 26.1121 Q1300.12 26.1121 1301.05 26.2337 Q1301.98 26.3147 1303.11 26.5172 L1303.15 34.1734 Z" fill="#000000" fill-rule="nonzero" fill-opacity="1"></path><path clip-path="url(#clip110)" d="M1310.97 27.2059 L1318.43 27.2059 L1318.43 72.576 L1310.97 72.576 L1310.97 27.2059 M1310.97 9.54393 L1318.43 9.54393 L1318.43 18.9825 L1310.97 18.9825 L1310.97 9.54393 Z" fill="#000000" fill-rule="nonzero" fill-opacity="1"></path><path clip-path="url(#clip110)" d="M1351.6 32.4315 Q1345.61 32.4315 1342.12 37.1306 Q1338.64 41.7891 1338.64 49.9314 Q1338.64 58.0738 1342.08 62.7728 Q1345.57 67.4314 1351.6 67.4314 Q1357.56 67.4314 1361.04 62.7323 Q1364.53 58.0333 1364.53 49.9314 Q1364.53 41.8701 1361.04 37.1711 Q1357.56 32.4315 1351.6 32.4315 M1351.6 26.1121 Q1361.33 26.1121 1366.88 32.4315 Q1372.43 38.7509 1372.43 49.9314 Q1372.43 61.0714 1366.88 67.4314 Q1361.33 73.7508 1351.6 73.7508 Q1341.84 73.7508 1336.29 67.4314 Q1330.78 61.0714 1330.78 49.9314 Q1330.78 38.7509 1336.29 32.4315 Q1341.84 26.1121 1351.6 26.1121 Z" fill="#000000" fill-rule="nonzero" fill-opacity="1"></path><path clip-path="url(#clip110)" d="M1411.07 34.1734 Q1409.82 33.4443 1408.32 33.1202 Q1406.86 32.7556 1405.08 32.7556 Q1398.76 32.7556 1395.35 36.8875 Q1391.99 40.9789 1391.99 48.6757 L1391.99 72.576 L1384.5 72.576 L1384.5 27.2059 L1391.99 27.2059 L1391.99 34.2544 Q1394.34 30.1225 1398.11 28.1376 Q1401.88 26.1121 1407.26 26.1121 Q1408.03 26.1121 1408.96 26.2337 Q1409.9 26.3147 1411.03 26.5172 L1411.07 34.1734 Z" fill="#000000" fill-rule="nonzero" fill-opacity="1"></path><path clip-path="url(#clip112)" d="M110.881 1447.87 L125.477 1447.87 L260.436 1447.87 L341.541 1447.82 L410.115 1447.59 L484.604 1446.68 L553.277 1444.39 L590.09 1442.14 L626.902 1438.84 L669.553 1433.27 L712.204 1425.24 L750.107 1415.51 L788.01 1402.79 L821.247 1388.75 L854.484 1371.63 L872.603 1360.87 L890.722 1349.03 L908.841 1336.05 L926.96 1321.89 L945.187 1306.39 L963.413 1289.59 L981.64 1271.46 L999.866 1251.96 L1020.02 1228.76 L1040.17 1203.83 L1060.32 1177.15 L1080.47 1148.72 L1099.65 1120.05 L1118.82 1089.83 L1138 1058.09 L1157.17 1024.89 L1177.11 988.892 L1197.04 951.475 L1216.98 912.75 L1236.91 872.848 L1270.48 803.425 L1304.04 731.917 L1345.02 643.215 L1386 554.925 L1404.77 515.253 L1423.54 476.396 L1442.31 438.603 L1461.08 402.132 L1478.41 369.85 L1495.75 339.13 L1513.08 310.182 L1530.42 283.216 L1547.98 258.137 L1565.54 235.521 L1583.1 215.575 L1600.66 198.501 L1610.5 190.261 L1620.34 183.015 L1630.18 176.794 L1640.02 171.628 L1649.86 167.545 L1659.7 164.571 L1669.54 162.73 L1679.38 162.047 L1688.29 162.444 L1697.21 163.823 L1706.13 166.195 L1715.04 169.572 L1723.96 173.963 L1732.87 179.376 L1741.79 185.817 L1750.71 193.29 L1760.92 203.116 L1771.13 214.298 L1781.33 226.832 L1791.54 240.711 L1801.75 255.924 L1811.96 272.458 L1822.17 290.292 L1832.38 309.406 L1841.83 328.22 L1851.28 348.083 L1860.73 368.967 L1870.19 390.843 L1879.64 413.675 L1889.09 437.427 L1898.54 462.06 L1908 487.528 L1926.63 540.014 L1945.27 595.177 L1963.91 652.579 L1982.55 711.739 L2018.74 829.649 L2054.93 948.007 L2073.48 1007.38 L2092.03 1065.06 L2110.58 1120.42 L2129.13 1172.83 L2139.3 1200.09 L2149.46 1226.2 L2159.62 1251.08 L2169.78 1274.64 L2179.94 1296.81 L2190.11 1317.53 L2200.27 1336.74 L2210.43 1354.39 L2225.19 1377.18 L2239.95 1396.55 L2247.34 1404.95 L2254.72 1412.51 L2262.1 1419.23 L2269.48 1425.13 L2284.24 1434.59 L2299 1441.15 L2313.77 1445.18 L2328.53 1447.2 L2334.58 1447.58 L2340.64 1447.79 L2346.7 1447.86 L2352.76 1447.87 L2352.76 1447.87 L2346.7 1447.87 L2340.64 1447.87 L2334.58 1447.87 L2328.53 1447.87 L2313.77 1447.87 L2299 1447.87 L2284.24 1447.87 L2269.48 1447.87 L2262.1 1447.87 L2254.72 1447.87 L2247.34 1447.87 L2239.95 1447.87 L2225.19 1447.87 L2210.43 1447.87 L2200.27 1447.87 L2190.11 1447.87 L2179.94 1447.87 L2169.78 1447.87 L2159.62 1447.87 L2149.46 1447.87 L2139.3 1447.87 L2129.13 1447.87 L2110.58 1447.87 L2092.03 1447.87 L2073.48 1447.87 L2054.93 1447.87 L2018.74 1447.87 L1982.55 1447.87 L1963.91 1447.87 L1945.27 1447.87 L1926.63 1447.87 L1908 1447.87 L1898.54 1447.87 L1889.09 1447.87 L1879.64 1447.87 L1870.19 1447.87 L1860.73 1447.87 L1851.28 1447.87 L1841.83 1447.87 L1832.38 1447.87 L1822.17 1447.87 L1811.96 1447.87 L1801.75 1447.87 L1791.54 1447.87 L1781.33 1447.87 L1771.13 1447.87 L1760.92 1447.87 L1750.71 1447.87 L1741.79 1447.87 L1732.87 1447.87 L1723.96 1447.87 L1715.04 1447.87 L1706.13 1447.87 L1697.21 1447.87 L1688.29 1447.87 L1679.38 1447.87 L1669.54 1447.87 L1659.7 1447.87 L1649.86 1447.87 L1640.02 1447.87 L1630.18 1447.87 L1620.34 1447.87 L1610.5 1447.87 L1600.66 1447.87 L1583.1 1447.87 L1565.54 1447.87 L1547.98 1447.87 L1530.42 1447.87 L1513.08 1447.87 L1495.75 1447.87 L1478.41 1447.87 L1461.08 1447.87 L1442.31 1447.87 L1423.54 1447.87 L1404.77 1447.87 L1386 1447.87 L1345.02 1447.87 L1304.04 1447.87 L1270.48 1447.87 L1236.91 1447.87 L1216.98 1447.87 L1197.04 1447.87 L1177.11 1447.87 L1157.17 1447.87 L1138 1447.87 L1118.82 1447.87 L1099.65 1447.87 L1080.47 1447.87 L1060.32 1447.87 L1040.17 1447.87 L1020.02 1447.87 L999.866 1447.87 L981.64 1447.87 L963.413 1447.87 L945.187 1447.87 L926.96 1447.87 L908.841 1447.87 L890.722 1447.87 L872.603 1447.87 L854.484 1447.87 L821.247 1447.87 L788.01 1447.87 L750.107 1447.87 L712.204 1447.87 L669.553 1447.87 L626.902 1447.87 L590.09 1447.87 L553.277 1447.87 L484.604 1447.87 L410.115 1447.87 L341.541 1447.87 L260.436 1447.87 L125.477 1447.87 L110.881 1447.87  Z" fill="#3da44d" fill-rule="evenodd" fill-opacity="0.3"></path>
<polyline clip-path="url(#clip112)" style="stroke:#3da44d; stroke-linecap:round; stroke-linejoin:round; stroke-width:4; stroke-opacity:0.3; fill:none" points="110.881,1447.87 125.477,1447.87 260.436,1447.87 341.541,1447.82 410.115,1447.59 484.604,1446.68 553.277,1444.39 590.09,1442.14 626.902,1438.84 669.553,1433.27 712.204,1425.24 750.107,1415.51 788.01,1402.79 821.247,1388.75 854.484,1371.63 872.603,1360.87 890.722,1349.03 908.841,1336.05 926.96,1321.89 945.187,1306.39 963.413,1289.59 981.64,1271.46 999.866,1251.96 1020.02,1228.76 1040.17,1203.83 1060.32,1177.15 1080.47,1148.72 1099.65,1120.05 1118.82,1089.83 1138,1058.09 1157.17,1024.89 1177.11,988.892 1197.04,951.475 1216.98,912.75 1236.91,872.848 1270.48,803.425 1304.04,731.917 1345.02,643.215 1386,554.925 1404.77,515.253 1423.54,476.396 1442.31,438.603 1461.08,402.132 1478.41,369.85 1495.75,339.13 1513.08,310.182 1530.42,283.216 1547.98,258.137 1565.54,235.521 1583.1,215.575 1600.66,198.501 1610.5,190.261 1620.34,183.015 1630.18,176.794 1640.02,171.628 1649.86,167.545 1659.7,164.571 1669.54,162.73 1679.38,162.047 1688.29,162.444 1697.21,163.823 1706.13,166.195 1715.04,169.572 1723.96,173.963 1732.87,179.376 1741.79,185.817 1750.71,193.29 1760.92,203.116 1771.13,214.298 1781.33,226.832 1791.54,240.711 1801.75,255.924 1811.96,272.458 1822.17,290.292 1832.38,309.406 1841.83,328.22 1851.28,348.083 1860.73,368.967 1870.19,390.843 1879.64,413.675 1889.09,437.427 1898.54,462.06 1908,487.528 1926.63,540.014 1945.27,595.177 1963.91,652.579 1982.55,711.739 2018.74,829.649 2054.93,948.007 2073.48,1007.38 2092.03,1065.06 2110.58,1120.42 2129.13,1172.83 2139.3,1200.09 2149.46,1226.2 2159.62,1251.08 2169.78,1274.64 2179.94,1296.81 2190.11,1317.53 2200.27,1336.74 2210.43,1354.39 2225.19,1377.18 2239.95,1396.55 2247.34,1404.95 2254.72,1412.51 2262.1,1419.23 2269.48,1425.13 2284.24,1434.59 2299,1441.15 2313.77,1445.18 2328.53,1447.2 2334.58,1447.58 2340.64,1447.79 2346.7,1447.86 2352.76,1447.87 "></polyline>
</svg>