<svg xmlns="http://www.w3.org/2000/svg" xmlns:xlink="http://www.w3.org/1999/xlink" width="600" height="400" viewBox="0 0 2400 1600">
<defs>
  <clipPath id="clip070">
    <rect x="0" y="0" width="2400" height="1600"></rect>
  </clipPath>
</defs>
<path clip-path="url(#clip070)" d="M0 1600 L2400 1600 L2400 0 L0 0  Z" fill="#ffffff" fill-rule="evenodd" fill-opacity="1"></path>
<defs>
  <clipPath id="clip071">
    <rect x="480" y="0" width="1681" height="1600"></rect>
  </clipPath>
</defs>
<path clip-path="url(#clip070)" d="M186.274 1486.45 L2352.76 1486.45 L2352.76 123.472 L186.274 123.472  Z" fill="#ffffff" fill-rule="evenodd" fill-opacity="1"></path>
<defs>
  <clipPath id="clip072">
    <rect x="186" y="123" width="2167" height="1364"></rect>
  </clipPath>
</defs>
<polyline clip-path="url(#clip072)" style="stroke:#000000; stroke-linecap:round; stroke-linejoin:round; stroke-width:2; stroke-opacity:0.1; fill:none" points="186.274,1486.45 186.274,123.472 "></polyline>
<polyline clip-path="url(#clip072)" style="stroke:#000000; stroke-linecap:round; stroke-linejoin:round; stroke-width:2; stroke-opacity:0.1; fill:none" points="619.57,1486.45 619.57,123.472 "></polyline>
<polyline clip-path="url(#clip072)" style="stroke:#000000; stroke-linecap:round; stroke-linejoin:round; stroke-width:2; stroke-opacity:0.1; fill:none" points="1052.87,1486.45 1052.87,123.472 "></polyline>
<polyline clip-path="url(#clip072)" style="stroke:#000000; stroke-linecap:round; stroke-linejoin:round; stroke-width:2; stroke-opacity:0.1; fill:none" points="1486.16,1486.45 1486.16,123.472 "></polyline>
<polyline clip-path="url(#clip072)" style="stroke:#000000; stroke-linecap:round; stroke-linejoin:round; stroke-width:2; stroke-opacity:0.1; fill:none" points="1919.46,1486.45 1919.46,123.472 "></polyline>
<polyline clip-path="url(#clip072)" style="stroke:#000000; stroke-linecap:round; stroke-linejoin:round; stroke-width:2; stroke-opacity:0.1; fill:none" points="2352.76,1486.45 2352.76,123.472 "></polyline>
<polyline clip-path="url(#clip070)" style="stroke:#000000; stroke-linecap:round; stroke-linejoin:round; stroke-width:4; stroke-opacity:1; fill:none" points="186.274,1486.45 2352.76,1486.45 "></polyline>
<polyline clip-path="url(#clip070)" style="stroke:#000000; stroke-linecap:round; stroke-linejoin:round; stroke-width:4; stroke-opacity:1; fill:none" points="186.274,1486.45 186.274,1467.55 "></polyline>
<polyline clip-path="url(#clip070)" style="stroke:#000000; stroke-linecap:round; stroke-linejoin:round; stroke-width:4; stroke-opacity:1; fill:none" points="619.57,1486.45 619.57,1467.55 "></polyline>
<polyline clip-path="url(#clip070)" style="stroke:#000000; stroke-linecap:round; stroke-linejoin:round; stroke-width:4; stroke-opacity:1; fill:none" points="1052.87,1486.45 1052.87,1467.55 "></polyline>
<polyline clip-path="url(#clip070)" style="stroke:#000000; stroke-linecap:round; stroke-linejoin:round; stroke-width:4; stroke-opacity:1; fill:none" points="1486.16,1486.45 1486.16,1467.55 "></polyline>
<polyline clip-path="url(#clip070)" style="stroke:#000000; stroke-linecap:round; stroke-linejoin:round; stroke-width:4; stroke-opacity:1; fill:none" points="1919.46,1486.45 1919.46,1467.55 "></polyline>
<polyline clip-path="url(#clip070)" style="stroke:#000000; stroke-linecap:round; stroke-linejoin:round; stroke-width:4; stroke-opacity:1; fill:none" points="2352.76,1486.45 2352.76,1467.55 "></polyline>
<path clip-path="url(#clip070)" d="M163.658 1517.37 Q160.047 1517.37 158.219 1520.93 Q156.413 1524.47 156.413 1531.6 Q156.413 1538.71 158.219 1542.27 Q160.047 1545.82 163.658 1545.82 Q167.293 1545.82 169.098 1542.27 Q170.927 1538.71 170.927 1531.6 Q170.927 1524.47 169.098 1520.93 Q167.293 1517.37 163.658 1517.37 M163.658 1513.66 Q169.469 1513.66 172.524 1518.27 Q175.603 1522.85 175.603 1531.6 Q175.603 1540.33 172.524 1544.94 Q169.469 1549.52 163.658 1549.52 Q157.848 1549.52 154.77 1544.94 Q151.714 1540.33 151.714 1531.6 Q151.714 1522.85 154.77 1518.27 Q157.848 1513.66 163.658 1513.66 Z" fill="#000000" fill-rule="nonzero" fill-opacity="1"></path><path clip-path="url(#clip070)" d="M183.82 1542.97 L188.705 1542.97 L188.705 1548.85 L183.82 1548.85 L183.82 1542.97 Z" fill="#000000" fill-rule="nonzero" fill-opacity="1"></path><path clip-path="url(#clip070)" d="M208.89 1517.37 Q205.279 1517.37 203.45 1520.93 Q201.644 1524.47 201.644 1531.6 Q201.644 1538.71 203.45 1542.27 Q205.279 1545.82 208.89 1545.82 Q212.524 1545.82 214.329 1542.27 Q216.158 1538.71 216.158 1531.6 Q216.158 1524.47 214.329 1520.93 Q212.524 1517.37 208.89 1517.37 M208.89 1513.66 Q214.7 1513.66 217.755 1518.27 Q220.834 1522.85 220.834 1531.6 Q220.834 1540.33 217.755 1544.94 Q214.7 1549.52 208.89 1549.52 Q203.079 1549.52 200.001 1544.94 Q196.945 1540.33 196.945 1531.6 Q196.945 1522.85 200.001 1518.27 Q203.079 1513.66 208.89 1513.66 Z" fill="#000000" fill-rule="nonzero" fill-opacity="1"></path><path clip-path="url(#clip070)" d="M597.753 1517.37 Q594.142 1517.37 592.314 1520.93 Q590.508 1524.47 590.508 1531.6 Q590.508 1538.71 592.314 1542.27 Q594.142 1545.82 597.753 1545.82 Q601.388 1545.82 603.193 1542.27 Q605.022 1538.71 605.022 1531.6 Q605.022 1524.47 603.193 1520.93 Q601.388 1517.37 597.753 1517.37 M597.753 1513.66 Q603.564 1513.66 606.619 1518.27 Q609.698 1522.85 609.698 1531.6 Q609.698 1540.33 606.619 1544.94 Q603.564 1549.52 597.753 1549.52 Q591.943 1549.52 588.865 1544.94 Q585.809 1540.33 585.809 1531.6 Q585.809 1522.85 588.865 1518.27 Q591.943 1513.66 597.753 1513.66 Z" fill="#000000" fill-rule="nonzero" fill-opacity="1"></path><path clip-path="url(#clip070)" d="M617.915 1542.97 L622.8 1542.97 L622.8 1548.85 L617.915 1548.85 L617.915 1542.97 Z" fill="#000000" fill-rule="nonzero" fill-opacity="1"></path><path clip-path="url(#clip070)" d="M637.012 1544.91 L653.332 1544.91 L653.332 1548.85 L631.387 1548.85 L631.387 1544.91 Q634.049 1542.16 638.633 1537.53 Q643.239 1532.88 644.42 1531.53 Q646.665 1529.01 647.545 1527.27 Q648.448 1525.51 648.448 1523.82 Q648.448 1521.07 646.503 1519.33 Q644.582 1517.6 641.48 1517.6 Q639.281 1517.6 636.827 1518.36 Q634.397 1519.13 631.619 1520.68 L631.619 1515.95 Q634.443 1514.82 636.897 1514.24 Q639.35 1513.66 641.387 1513.66 Q646.758 1513.66 649.952 1516.35 Q653.147 1519.03 653.147 1523.52 Q653.147 1525.65 652.336 1527.57 Q651.549 1529.47 649.443 1532.07 Q648.864 1532.74 645.762 1535.95 Q642.661 1539.15 637.012 1544.91 Z" fill="#000000" fill-rule="nonzero" fill-opacity="1"></path><path clip-path="url(#clip070)" d="M1030.01 1517.37 Q1026.4 1517.37 1024.57 1520.93 Q1022.76 1524.47 1022.76 1531.6 Q1022.76 1538.71 1024.57 1542.27 Q1026.4 1545.82 1030.01 1545.82 Q1033.64 1545.82 1035.45 1542.27 Q1037.28 1538.71 1037.28 1531.6 Q1037.28 1524.47 1035.45 1520.93 Q1033.64 1517.37 1030.01 1517.37 M1030.01 1513.66 Q1035.82 1513.66 1038.87 1518.27 Q1041.95 1522.85 1041.95 1531.6 Q1041.95 1540.33 1038.87 1544.94 Q1035.82 1549.52 1030.01 1549.52 Q1024.2 1549.52 1021.12 1544.94 Q1018.06 1540.33 1018.06 1531.6 Q1018.06 1522.85 1021.12 1518.27 Q1024.2 1513.66 1030.01 1513.66 Z" fill="#000000" fill-rule="nonzero" fill-opacity="1"></path><path clip-path="url(#clip070)" d="M1050.17 1542.97 L1055.05 1542.97 L1055.05 1548.85 L1050.17 1548.85 L1050.17 1542.97 Z" fill="#000000" fill-rule="nonzero" fill-opacity="1"></path><path clip-path="url(#clip070)" d="M1078.09 1518.36 L1066.28 1536.81 L1078.09 1536.81 L1078.09 1518.36 M1076.86 1514.29 L1082.74 1514.29 L1082.74 1536.81 L1087.67 1536.81 L1087.67 1540.7 L1082.74 1540.7 L1082.74 1548.85 L1078.09 1548.85 L1078.09 1540.7 L1062.48 1540.7 L1062.48 1536.19 L1076.86 1514.29 Z" fill="#000000" fill-rule="nonzero" fill-opacity="1"></path><path clip-path="url(#clip070)" d="M1463.47 1517.37 Q1459.86 1517.37 1458.03 1520.93 Q1456.22 1524.47 1456.22 1531.6 Q1456.22 1538.71 1458.03 1542.27 Q1459.86 1545.82 1463.47 1545.82 Q1467.1 1545.82 1468.91 1542.27 Q1470.73 1538.71 1470.73 1531.6 Q1470.73 1524.47 1468.91 1520.93 Q1467.1 1517.37 1463.47 1517.37 M1463.47 1513.66 Q1469.28 1513.66 1472.33 1518.27 Q1475.41 1522.85 1475.41 1531.6 Q1475.41 1540.33 1472.33 1544.94 Q1469.28 1549.52 1463.47 1549.52 Q1457.66 1549.52 1454.58 1544.94 Q1451.52 1540.33 1451.52 1531.6 Q1451.52 1522.85 1454.58 1518.27 Q1457.66 1513.66 1463.47 1513.66 Z" fill="#000000" fill-rule="nonzero" fill-opacity="1"></path><path clip-path="url(#clip070)" d="M1483.63 1542.97 L1488.51 1542.97 L1488.51 1548.85 L1483.63 1548.85 L1483.63 1542.97 Z" fill="#000000" fill-rule="nonzero" fill-opacity="1"></path><path clip-path="url(#clip070)" d="M1509.28 1529.7 Q1506.13 1529.7 1504.28 1531.86 Q1502.45 1534.01 1502.45 1537.76 Q1502.45 1541.49 1504.28 1543.66 Q1506.13 1545.82 1509.28 1545.82 Q1512.42 1545.82 1514.25 1543.66 Q1516.11 1541.49 1516.11 1537.76 Q1516.11 1534.01 1514.25 1531.86 Q1512.42 1529.7 1509.28 1529.7 M1518.56 1515.05 L1518.56 1519.31 Q1516.8 1518.48 1514.99 1518.04 Q1513.21 1517.6 1511.45 1517.6 Q1506.82 1517.6 1504.37 1520.72 Q1501.94 1523.85 1501.59 1530.17 Q1502.96 1528.15 1505.02 1527.09 Q1507.08 1526 1509.55 1526 Q1514.76 1526 1517.77 1529.17 Q1520.8 1532.32 1520.8 1537.76 Q1520.8 1543.08 1517.66 1546.3 Q1514.51 1549.52 1509.28 1549.52 Q1503.28 1549.52 1500.11 1544.94 Q1496.94 1540.33 1496.94 1531.6 Q1496.94 1523.41 1500.83 1518.55 Q1504.72 1513.66 1511.27 1513.66 Q1513.03 1513.66 1514.81 1514.01 Q1516.61 1514.36 1518.56 1515.05 Z" fill="#000000" fill-rule="nonzero" fill-opacity="1"></path><path clip-path="url(#clip070)" d="M1896.89 1517.37 Q1893.28 1517.37 1891.45 1520.93 Q1889.64 1524.47 1889.64 1531.6 Q1889.64 1538.71 1891.45 1542.27 Q1893.28 1545.82 1896.89 1545.82 Q1900.52 1545.82 1902.33 1542.27 Q1904.16 1538.71 1904.16 1531.6 Q1904.16 1524.47 1902.33 1520.93 Q1900.52 1517.37 1896.89 1517.37 M1896.89 1513.66 Q1902.7 1513.66 1905.76 1518.27 Q1908.83 1522.85 1908.83 1531.6 Q1908.83 1540.33 1905.76 1544.94 Q1902.7 1549.52 1896.89 1549.52 Q1891.08 1549.52 1888 1544.94 Q1884.95 1540.33 1884.95 1531.6 Q1884.95 1522.85 1888 1518.27 Q1891.08 1513.66 1896.89 1513.66 Z" fill="#000000" fill-rule="nonzero" fill-opacity="1"></path><path clip-path="url(#clip070)" d="M1917.05 1542.97 L1921.94 1542.97 L1921.94 1548.85 L1917.05 1548.85 L1917.05 1542.97 Z" fill="#000000" fill-rule="nonzero" fill-opacity="1"></path><path clip-path="url(#clip070)" d="M1942.12 1532.44 Q1938.79 1532.44 1936.87 1534.22 Q1934.97 1536 1934.97 1539.13 Q1934.97 1542.25 1936.87 1544.03 Q1938.79 1545.82 1942.12 1545.82 Q1945.45 1545.82 1947.38 1544.03 Q1949.3 1542.23 1949.3 1539.13 Q1949.3 1536 1947.38 1534.22 Q1945.48 1532.44 1942.12 1532.44 M1937.45 1530.45 Q1934.44 1529.7 1932.75 1527.64 Q1931.08 1525.58 1931.08 1522.62 Q1931.08 1518.48 1934.02 1516.07 Q1936.98 1513.66 1942.12 1513.66 Q1947.28 1513.66 1950.22 1516.07 Q1953.16 1518.48 1953.16 1522.62 Q1953.16 1525.58 1951.47 1527.64 Q1949.81 1529.7 1946.82 1530.45 Q1950.2 1531.23 1952.08 1533.52 Q1953.97 1535.82 1953.97 1539.13 Q1953.97 1544.15 1950.89 1546.83 Q1947.84 1549.52 1942.12 1549.52 Q1936.4 1549.52 1933.33 1546.83 Q1930.27 1544.15 1930.27 1539.13 Q1930.27 1535.82 1932.17 1533.52 Q1934.07 1531.23 1937.45 1530.45 M1935.73 1523.06 Q1935.73 1525.75 1937.4 1527.25 Q1939.09 1528.76 1942.12 1528.76 Q1945.13 1528.76 1946.82 1527.25 Q1948.53 1525.75 1948.53 1523.06 Q1948.53 1520.38 1946.82 1518.87 Q1945.13 1517.37 1942.12 1517.37 Q1939.09 1517.37 1937.4 1518.87 Q1935.73 1520.38 1935.73 1523.06 Z" fill="#000000" fill-rule="nonzero" fill-opacity="1"></path><path clip-path="url(#clip070)" d="M2319.91 1544.91 L2327.55 1544.91 L2327.55 1518.55 L2319.24 1520.21 L2319.24 1515.95 L2327.5 1514.29 L2332.18 1514.29 L2332.18 1544.91 L2339.82 1544.91 L2339.82 1548.85 L2319.91 1548.85 L2319.91 1544.91 Z" fill="#000000" fill-rule="nonzero" fill-opacity="1"></path><path clip-path="url(#clip070)" d="M2349.26 1542.97 L2354.14 1542.97 L2354.14 1548.85 L2349.26 1548.85 L2349.26 1542.97 Z" fill="#000000" fill-rule="nonzero" fill-opacity="1"></path><path clip-path="url(#clip070)" d="M2374.33 1517.37 Q2370.72 1517.37 2368.89 1520.93 Q2367.08 1524.47 2367.08 1531.6 Q2367.08 1538.71 2368.89 1542.27 Q2370.72 1545.82 2374.33 1545.82 Q2377.96 1545.82 2379.77 1542.27 Q2381.6 1538.71 2381.6 1531.6 Q2381.6 1524.47 2379.77 1520.93 Q2377.96 1517.37 2374.33 1517.37 M2374.33 1513.66 Q2380.14 1513.66 2383.2 1518.27 Q2386.27 1522.85 2386.27 1531.6 Q2386.27 1540.33 2383.2 1544.94 Q2380.14 1549.52 2374.33 1549.52 Q2368.52 1549.52 2365.44 1544.94 Q2362.39 1540.33 2362.39 1531.6 Q2362.39 1522.85 2365.44 1518.27 Q2368.52 1513.66 2374.33 1513.66 Z" fill="#000000" fill-rule="nonzero" fill-opacity="1"></path><polyline clip-path="url(#clip072)" style="stroke:#000000; stroke-linecap:round; stroke-linejoin:round; stroke-width:2; stroke-opacity:0.1; fill:none" points="186.274,1447.87 2352.76,1447.87 "></polyline>
<polyline clip-path="url(#clip072)" style="stroke:#000000; stroke-linecap:round; stroke-linejoin:round; stroke-width:2; stroke-opacity:0.1; fill:none" points="186.274,1126.42 2352.76,1126.42 "></polyline>
<polyline clip-path="url(#clip072)" style="stroke:#000000; stroke-linecap:round; stroke-linejoin:round; stroke-width:2; stroke-opacity:0.1; fill:none" points="186.274,804.96 2352.76,804.96 "></polyline>
<polyline clip-path="url(#clip072)" style="stroke:#000000; stroke-linecap:round; stroke-linejoin:round; stroke-width:2; stroke-opacity:0.1; fill:none" points="186.274,483.503 2352.76,483.503 "></polyline>
<polyline clip-path="url(#clip072)" style="stroke:#000000; stroke-linecap:round; stroke-linejoin:round; stroke-width:2; stroke-opacity:0.1; fill:none" points="186.274,162.047 2352.76,162.047 "></polyline>
<polyline clip-path="url(#clip070)" style="stroke:#000000; stroke-linecap:round; stroke-linejoin:round; stroke-width:4; stroke-opacity:1; fill:none" points="186.274,1486.45 186.274,123.472 "></polyline>
<polyline clip-path="url(#clip070)" style="stroke:#000000; stroke-linecap:round; stroke-linejoin:round; stroke-width:4; stroke-opacity:1; fill:none" points="186.274,1447.87 205.172,1447.87 "></polyline>
<polyline clip-path="url(#clip070)" style="stroke:#000000; stroke-linecap:round; stroke-linejoin:round; stroke-width:4; stroke-opacity:1; fill:none" points="186.274,1126.42 205.172,1126.42 "></polyline>
<polyline clip-path="url(#clip070)" style="stroke:#000000; stroke-linecap:round; stroke-linejoin:round; stroke-width:4; stroke-opacity:1; fill:none" points="186.274,804.96 205.172,804.96 "></polyline>
<polyline clip-path="url(#clip070)" style="stroke:#000000; stroke-linecap:round; stroke-linejoin:round; stroke-width:4; stroke-opacity:1; fill:none" points="186.274,483.503 205.172,483.503 "></polyline>
<polyline clip-path="url(#clip070)" style="stroke:#000000; stroke-linecap:round; stroke-linejoin:round; stroke-width:4; stroke-opacity:1; fill:none" points="186.274,162.047 205.172,162.047 "></polyline>
<path clip-path="url(#clip070)" d="M62.9365 1433.67 Q59.3254 1433.67 57.4967 1437.24 Q55.6912 1440.78 55.6912 1447.91 Q55.6912 1455.01 57.4967 1458.58 Q59.3254 1462.12 62.9365 1462.12 Q66.5707 1462.12 68.3763 1458.58 Q70.205 1455.01 70.205 1447.91 Q70.205 1440.78 68.3763 1437.24 Q66.5707 1433.67 62.9365 1433.67 M62.9365 1429.97 Q68.7467 1429.97 71.8022 1434.57 Q74.8809 1439.16 74.8809 1447.91 Q74.8809 1456.63 71.8022 1461.24 Q68.7467 1465.82 62.9365 1465.82 Q57.1264 1465.82 54.0477 1461.24 Q50.9921 1456.63 50.9921 1447.91 Q50.9921 1439.16 54.0477 1434.57 Q57.1264 1429.97 62.9365 1429.97 Z" fill="#000000" fill-rule="nonzero" fill-opacity="1"></path><path clip-path="url(#clip070)" d="M83.0984 1459.27 L87.9827 1459.27 L87.9827 1465.15 L83.0984 1465.15 L83.0984 1459.27 Z" fill="#000000" fill-rule="nonzero" fill-opacity="1"></path><path clip-path="url(#clip070)" d="M108.168 1433.67 Q104.557 1433.67 102.728 1437.24 Q100.922 1440.78 100.922 1447.91 Q100.922 1455.01 102.728 1458.58 Q104.557 1462.12 108.168 1462.12 Q111.802 1462.12 113.608 1458.58 Q115.436 1455.01 115.436 1447.91 Q115.436 1440.78 113.608 1437.24 Q111.802 1433.67 108.168 1433.67 M108.168 1429.97 Q113.978 1429.97 117.033 1434.57 Q120.112 1439.16 120.112 1447.91 Q120.112 1456.63 117.033 1461.24 Q113.978 1465.82 108.168 1465.82 Q102.358 1465.82 99.2789 1461.24 Q96.2234 1456.63 96.2234 1447.91 Q96.2234 1439.16 99.2789 1434.57 Q102.358 1429.97 108.168 1429.97 Z" fill="#000000" fill-rule="nonzero" fill-opacity="1"></path><path clip-path="url(#clip070)" d="M138.33 1433.67 Q134.719 1433.67 132.89 1437.24 Q131.084 1440.78 131.084 1447.91 Q131.084 1455.01 132.89 1458.58 Q134.719 1462.12 138.33 1462.12 Q141.964 1462.12 143.769 1458.58 Q145.598 1455.01 145.598 1447.91 Q145.598 1440.78 143.769 1437.24 Q141.964 1433.67 138.33 1433.67 M138.33 1429.97 Q144.14 1429.97 147.195 1434.57 Q150.274 1439.16 150.274 1447.91 Q150.274 1456.63 147.195 1461.24 Q144.14 1465.82 138.33 1465.82 Q132.519 1465.82 129.441 1461.24 Q126.385 1456.63 126.385 1447.91 Q126.385 1439.16 129.441 1434.57 Q132.519 1429.97 138.33 1429.97 Z" fill="#000000" fill-rule="nonzero" fill-opacity="1"></path><path clip-path="url(#clip070)" d="M63.9319 1112.22 Q60.3208 1112.22 58.4921 1115.78 Q56.6865 1119.32 56.6865 1126.45 Q56.6865 1133.56 58.4921 1137.12 Q60.3208 1140.66 63.9319 1140.66 Q67.5661 1140.66 69.3717 1137.12 Q71.2004 1133.56 71.2004 1126.45 Q71.2004 1119.32 69.3717 1115.78 Q67.5661 1112.22 63.9319 1112.22 M63.9319 1108.51 Q69.742 1108.51 72.7976 1113.12 Q75.8763 1117.7 75.8763 1126.45 Q75.8763 1135.18 72.7976 1139.78 Q69.742 1144.37 63.9319 1144.37 Q58.1217 1144.37 55.043 1139.78 Q51.9875 1135.18 51.9875 1126.45 Q51.9875 1117.7 55.043 1113.12 Q58.1217 1108.51 63.9319 1108.51 Z" fill="#000000" fill-rule="nonzero" fill-opacity="1"></path><path clip-path="url(#clip070)" d="M84.0938 1137.82 L88.978 1137.82 L88.978 1143.7 L84.0938 1143.7 L84.0938 1137.82 Z" fill="#000000" fill-rule="nonzero" fill-opacity="1"></path><path clip-path="url(#clip070)" d="M103.191 1139.76 L119.51 1139.76 L119.51 1143.7 L97.566 1143.7 L97.566 1139.76 Q100.228 1137.01 104.811 1132.38 Q109.418 1127.72 110.598 1126.38 Q112.844 1123.86 113.723 1122.12 Q114.626 1120.36 114.626 1118.67 Q114.626 1115.92 112.682 1114.18 Q110.76 1112.45 107.658 1112.45 Q105.459 1112.45 103.006 1113.21 Q100.575 1113.97 97.7974 1115.53 L97.7974 1110.8 Q100.621 1109.67 103.075 1109.09 Q105.529 1108.51 107.566 1108.51 Q112.936 1108.51 116.131 1111.2 Q119.325 1113.88 119.325 1118.37 Q119.325 1120.5 118.515 1122.42 Q117.728 1124.32 115.621 1126.91 Q115.043 1127.59 111.941 1130.8 Q108.839 1134 103.191 1139.76 Z" fill="#000000" fill-rule="nonzero" fill-opacity="1"></path><path clip-path="url(#clip070)" d="M129.371 1109.14 L147.728 1109.14 L147.728 1113.07 L133.654 1113.07 L133.654 1121.54 Q134.672 1121.2 135.691 1121.03 Q136.709 1120.85 137.728 1120.85 Q143.515 1120.85 146.894 1124.02 Q150.274 1127.19 150.274 1132.61 Q150.274 1138.19 146.802 1141.29 Q143.33 1144.37 137.01 1144.37 Q134.834 1144.37 132.566 1144 Q130.32 1143.63 127.913 1142.89 L127.913 1138.19 Q129.996 1139.32 132.219 1139.88 Q134.441 1140.43 136.918 1140.43 Q140.922 1140.43 143.26 1138.33 Q145.598 1136.22 145.598 1132.61 Q145.598 1129 143.26 1126.89 Q140.922 1124.78 136.918 1124.78 Q135.043 1124.78 133.168 1125.2 Q131.316 1125.62 129.371 1126.5 L129.371 1109.14 Z" fill="#000000" fill-rule="nonzero" fill-opacity="1"></path><path clip-path="url(#clip070)" d="M62.9365 790.759 Q59.3254 790.759 57.4967 794.323 Q55.6912 797.865 55.6912 804.995 Q55.6912 812.101 57.4967 815.666 Q59.3254 819.208 62.9365 819.208 Q66.5707 819.208 68.3763 815.666 Q70.205 812.101 70.205 804.995 Q70.205 797.865 68.3763 794.323 Q66.5707 790.759 62.9365 790.759 M62.9365 787.055 Q68.7467 787.055 71.8022 791.661 Q74.8809 796.245 74.8809 804.995 Q74.8809 813.722 71.8022 818.328 Q68.7467 822.911 62.9365 822.911 Q57.1264 822.911 54.0477 818.328 Q50.9921 813.722 50.9921 804.995 Q50.9921 796.245 54.0477 791.661 Q57.1264 787.055 62.9365 787.055 Z" fill="#000000" fill-rule="nonzero" fill-opacity="1"></path><path clip-path="url(#clip070)" d="M83.0984 816.36 L87.9827 816.36 L87.9827 822.24 L83.0984 822.24 L83.0984 816.36 Z" fill="#000000" fill-rule="nonzero" fill-opacity="1"></path><path clip-path="url(#clip070)" d="M98.2141 787.68 L116.57 787.68 L116.57 791.615 L102.496 791.615 L102.496 800.087 Q103.515 799.74 104.534 799.578 Q105.552 799.393 106.571 799.393 Q112.358 799.393 115.737 802.564 Q119.117 805.735 119.117 811.152 Q119.117 816.731 115.645 819.833 Q112.172 822.911 105.853 822.911 Q103.677 822.911 101.409 822.541 Q99.1632 822.171 96.7558 821.43 L96.7558 816.731 Q98.8391 817.865 101.061 818.421 Q103.284 818.976 105.76 818.976 Q109.765 818.976 112.103 816.87 Q114.441 814.763 114.441 811.152 Q114.441 807.541 112.103 805.435 Q109.765 803.328 105.76 803.328 Q103.885 803.328 102.01 803.745 Q100.159 804.161 98.2141 805.041 L98.2141 787.68 Z" fill="#000000" fill-rule="nonzero" fill-opacity="1"></path><path clip-path="url(#clip070)" d="M138.33 790.759 Q134.719 790.759 132.89 794.323 Q131.084 797.865 131.084 804.995 Q131.084 812.101 132.89 815.666 Q134.719 819.208 138.33 819.208 Q141.964 819.208 143.769 815.666 Q145.598 812.101 145.598 804.995 Q145.598 797.865 143.769 794.323 Q141.964 790.759 138.33 790.759 M138.33 787.055 Q144.14 787.055 147.195 791.661 Q150.274 796.245 150.274 804.995 Q150.274 813.722 147.195 818.328 Q144.14 822.911 138.33 822.911 Q132.519 822.911 129.441 818.328 Q126.385 813.722 126.385 804.995 Q126.385 796.245 129.441 791.661 Q132.519 787.055 138.33 787.055 Z" fill="#000000" fill-rule="nonzero" fill-opacity="1"></path><path clip-path="url(#clip070)" d="M63.9319 469.302 Q60.3208 469.302 58.4921 472.867 Q56.6865 476.409 56.6865 483.538 Q56.6865 490.645 58.4921 494.209 Q60.3208 497.751 63.9319 497.751 Q67.5661 497.751 69.3717 494.209 Q71.2004 490.645 71.2004 483.538 Q71.2004 476.409 69.3717 472.867 Q67.5661 469.302 63.9319 469.302 M63.9319 465.598 Q69.742 465.598 72.7976 470.205 Q75.8763 474.788 75.8763 483.538 Q75.8763 492.265 72.7976 496.871 Q69.742 501.455 63.9319 501.455 Q58.1217 501.455 55.043 496.871 Q51.9875 492.265 51.9875 483.538 Q51.9875 474.788 55.043 470.205 Q58.1217 465.598 63.9319 465.598 Z" fill="#000000" fill-rule="nonzero" fill-opacity="1"></path><path clip-path="url(#clip070)" d="M84.0938 494.904 L88.978 494.904 L88.978 500.783 L84.0938 500.783 L84.0938 494.904 Z" fill="#000000" fill-rule="nonzero" fill-opacity="1"></path><path clip-path="url(#clip070)" d="M97.9826 466.223 L120.205 466.223 L120.205 468.214 L107.658 500.783 L102.774 500.783 L114.58 470.159 L97.9826 470.159 L97.9826 466.223 Z" fill="#000000" fill-rule="nonzero" fill-opacity="1"></path><path clip-path="url(#clip070)" d="M129.371 466.223 L147.728 466.223 L147.728 470.159 L133.654 470.159 L133.654 478.631 Q134.672 478.284 135.691 478.122 Q136.709 477.936 137.728 477.936 Q143.515 477.936 146.894 481.108 Q150.274 484.279 150.274 489.696 Q150.274 495.274 146.802 498.376 Q143.33 501.455 137.01 501.455 Q134.834 501.455 132.566 501.084 Q130.32 500.714 127.913 499.973 L127.913 495.274 Q129.996 496.408 132.219 496.964 Q134.441 497.52 136.918 497.52 Q140.922 497.52 143.26 495.413 Q145.598 493.307 145.598 489.696 Q145.598 486.084 143.26 483.978 Q140.922 481.872 136.918 481.872 Q135.043 481.872 133.168 482.288 Q131.316 482.705 129.371 483.584 L129.371 466.223 Z" fill="#000000" fill-rule="nonzero" fill-opacity="1"></path><path clip-path="url(#clip070)" d="M53.7467 175.392 L61.3856 175.392 L61.3856 149.026 L53.0754 150.693 L53.0754 146.434 L61.3393 144.767 L66.0152 144.767 L66.0152 175.392 L73.654 175.392 L73.654 179.327 L53.7467 179.327 L53.7467 175.392 Z" fill="#000000" fill-rule="nonzero" fill-opacity="1"></path><path clip-path="url(#clip070)" d="M83.0984 173.447 L87.9827 173.447 L87.9827 179.327 L83.0984 179.327 L83.0984 173.447 Z" fill="#000000" fill-rule="nonzero" fill-opacity="1"></path><path clip-path="url(#clip070)" d="M108.168 147.846 Q104.557 147.846 102.728 151.41 Q100.922 154.952 100.922 162.082 Q100.922 169.188 102.728 172.753 Q104.557 176.295 108.168 176.295 Q111.802 176.295 113.608 172.753 Q115.436 169.188 115.436 162.082 Q115.436 154.952 113.608 151.41 Q111.802 147.846 108.168 147.846 M108.168 144.142 Q113.978 144.142 117.033 148.748 Q120.112 153.332 120.112 162.082 Q120.112 170.808 117.033 175.415 Q113.978 179.998 108.168 179.998 Q102.358 179.998 99.2789 175.415 Q96.2234 170.808 96.2234 162.082 Q96.2234 153.332 99.2789 148.748 Q102.358 144.142 108.168 144.142 Z" fill="#000000" fill-rule="nonzero" fill-opacity="1"></path><path clip-path="url(#clip070)" d="M138.33 147.846 Q134.719 147.846 132.89 151.41 Q131.084 154.952 131.084 162.082 Q131.084 169.188 132.89 172.753 Q134.719 176.295 138.33 176.295 Q141.964 176.295 143.769 172.753 Q145.598 169.188 145.598 162.082 Q145.598 154.952 143.769 151.41 Q141.964 147.846 138.33 147.846 M138.33 144.142 Q144.14 144.142 147.195 148.748 Q150.274 153.332 150.274 162.082 Q150.274 170.808 147.195 175.415 Q144.14 179.998 138.33 179.998 Q132.519 179.998 129.441 175.415 Q126.385 170.808 126.385 162.082 Q126.385 153.332 129.441 148.748 Q132.519 144.142 138.33 144.142 Z" fill="#000000" fill-rule="nonzero" fill-opacity="1"></path><path clip-path="url(#clip070)" d="M1186.47 18.8205 L1186.47 41.5461 L1196.76 41.5461 Q1202.47 41.5461 1205.59 38.5889 Q1208.71 35.6318 1208.71 30.163 Q1208.71 24.7348 1205.59 21.7777 Q1202.47 18.8205 1196.76 18.8205 L1186.47 18.8205 M1178.29 12.096 L1196.76 12.096 Q1206.93 12.096 1212.11 16.714 Q1217.34 21.2916 1217.34 30.163 Q1217.34 39.1155 1212.11 43.6931 Q1206.93 48.2706 1196.76 48.2706 L1186.47 48.2706 L1186.47 72.576 L1178.29 72.576 L1178.29 12.096 Z" fill="#000000" fill-rule="nonzero" fill-opacity="1"></path><path clip-path="url(#clip070)" d="M1252.83 34.1734 Q1251.57 33.4443 1250.07 33.1202 Q1248.61 32.7556 1246.83 32.7556 Q1240.51 32.7556 1237.11 36.8875 Q1233.75 40.9789 1233.75 48.6757 L1233.75 72.576 L1226.25 72.576 L1226.25 27.2059 L1233.75 27.2059 L1233.75 34.2544 Q1236.09 30.1225 1239.86 28.1376 Q1243.63 26.1121 1249.02 26.1121 Q1249.79 26.1121 1250.72 26.2337 Q1251.65 26.3147 1252.78 26.5172 L1252.83 34.1734 Z" fill="#000000" fill-rule="nonzero" fill-opacity="1"></path><path clip-path="url(#clip070)" d="M1260.64 27.2059 L1268.1 27.2059 L1268.1 72.576 L1260.64 72.576 L1260.64 27.2059 M1260.64 9.54393 L1268.1 9.54393 L1268.1 18.9825 L1260.64 18.9825 L1260.64 9.54393 Z" fill="#000000" fill-rule="nonzero" fill-opacity="1"></path><path clip-path="url(#clip070)" d="M1301.27 32.4315 Q1295.28 32.4315 1291.79 37.1306 Q1288.31 41.7891 1288.31 49.9314 Q1288.31 58.0738 1291.75 62.7728 Q1295.24 67.4314 1301.27 67.4314 Q1307.23 67.4314 1310.71 62.7323 Q1314.2 58.0333 1314.2 49.9314 Q1314.2 41.8701 1310.71 37.1711 Q1307.23 32.4315 1301.27 32.4315 M1301.27 26.1121 Q1311 26.1121 1316.55 32.4315 Q1322.1 38.7509 1322.1 49.9314 Q1322.1 61.0714 1316.55 67.4314 Q1311 73.7508 1301.27 73.7508 Q1291.51 73.7508 1285.96 67.4314 Q1280.45 61.0714 1280.45 49.9314 Q1280.45 38.7509 1285.96 32.4315 Q1291.51 26.1121 1301.27 26.1121 Z" fill="#000000" fill-rule="nonzero" fill-opacity="1"></path><path clip-path="url(#clip070)" d="M1360.74 34.1734 Q1359.49 33.4443 1357.99 33.1202 Q1356.53 32.7556 1354.75 32.7556 Q1348.43 32.7556 1345.02 36.8875 Q1341.66 40.9789 1341.66 48.6757 L1341.66 72.576 L1334.17 72.576 L1334.17 27.2059 L1341.66 27.2059 L1341.66 34.2544 Q1344.01 30.1225 1347.78 28.1376 Q1351.55 26.1121 1356.93 26.1121 Q1357.7 26.1121 1358.63 26.2337 Q1359.57 26.3147 1360.7 26.5172 L1360.74 34.1734 Z" fill="#000000" fill-rule="nonzero" fill-opacity="1"></path><path clip-path="url(#clip072)" d="M186.274 162.047 L200.379 162.047 L330.8 162.047 L409.177 162.047 L475.445 162.047 L547.429 162.047 L613.793 162.047 L684.942 162.047 L767.375 162.047 L840.631 162.047 L904.871 162.047 L974.909 162.047 L1045.36 162.047 L1123.26 162.047 L1197.38 162.047 L1274.44 162.047 L1339.31 162.047 L1418.51 162.047 L1491.06 162.047 L1558.07 162.047 L1625.95 162.047 L1702.02 162.047 L1770.95 162.047 L1849.88 162.047 L1922.95 162.047 L1995 162.047 L2064.95 162.047 L2136.65 162.047 L2215.22 162.047 L2329.34 162.047 L2352.76 162.047 L2352.76 1447.87 L2329.34 1447.87 L2215.22 1447.87 L2136.65 1447.87 L2064.95 1447.87 L1995 1447.87 L1922.95 1447.87 L1849.88 1447.87 L1770.95 1447.87 L1702.02 1447.87 L1625.95 1447.87 L1558.07 1447.87 L1491.06 1447.87 L1418.51 1447.87 L1339.31 1447.87 L1274.44 1447.87 L1197.38 1447.87 L1123.26 1447.87 L1045.36 1447.87 L974.909 1447.87 L904.871 1447.87 L840.631 1447.87 L767.375 1447.87 L684.942 1447.87 L613.793 1447.87 L547.429 1447.87 L475.445 1447.87 L409.177 1447.87 L330.8 1447.87 L200.379 1447.87 L186.274 1447.87  Z" fill="#009af9" fill-rule="evenodd" fill-opacity="0.3"></path>
<polyline clip-path="url(#clip072)" style="stroke:#009af9; stroke-linecap:round; stroke-linejoin:round; stroke-width:4; stroke-opacity:0.3; fill:none" points="186.274,162.047 200.379,162.047 330.8,162.047 409.177,162.047 475.445,162.047 547.429,162.047 613.793,162.047 684.942,162.047 767.375,162.047 840.631,162.047 904.871,162.047 974.909,162.047 1045.36,162.047 1123.26,162.047 1197.38,162.047 1274.44,162.047 1339.31,162.047 1418.51,162.047 1491.06,162.047 1558.07,162.047 1625.95,162.047 1702.02,162.047 1770.95,162.047 1849.88,162.047 1922.95,162.047 1995,162.047 2064.95,162.047 2136.65,162.047 2215.22,162.047 2329.34,162.047 2352.76,162.047 "></polyline>
</svg>