<svg xmlns="http://www.w3.org/2000/svg" xmlns:xlink="http://www.w3.org/1999/xlink" width="600" height="400" viewBox="0 0 2400 1600">
<defs>
  <clipPath id="clip530">
    <rect x="0" y="0" width="2400" height="1600"></rect>
  </clipPath>
</defs>
<path clip-path="url(#clip530)" d="M0 1600 L2400 1600 L2400 0 L0 0  Z" fill="#ffffff" fill-rule="evenodd" fill-opacity="1"></path>
<defs>
  <clipPath id="clip531">
    <rect x="480" y="0" width="1681" height="1600"></rect>
  </clipPath>
</defs>
<path clip-path="url(#clip530)" d="M249.542 1423.18 L2352.76 1423.18 L2352.76 123.472 L249.542 123.472  Z" fill="#ffffff" fill-rule="evenodd" fill-opacity="1"></path>
<defs>
  <clipPath id="clip532">
    <rect x="249" y="123" width="2104" height="1301"></rect>
  </clipPath>
</defs>
<polyline clip-path="url(#clip532)" style="stroke:#000000; stroke-linecap:round; stroke-linejoin:round; stroke-width:2; stroke-opacity:0.1; fill:none" points="309.067,1423.18 309.067,123.472 "></polyline>
<polyline clip-path="url(#clip532)" style="stroke:#000000; stroke-linecap:round; stroke-linejoin:round; stroke-width:2; stroke-opacity:0.1; fill:none" points="626.533,1423.18 626.533,123.472 "></polyline>
<polyline clip-path="url(#clip532)" style="stroke:#000000; stroke-linecap:round; stroke-linejoin:round; stroke-width:2; stroke-opacity:0.1; fill:none" points="943.999,1423.18 943.999,123.472 "></polyline>
<polyline clip-path="url(#clip532)" style="stroke:#000000; stroke-linecap:round; stroke-linejoin:round; stroke-width:2; stroke-opacity:0.1; fill:none" points="1261.47,1423.18 1261.47,123.472 "></polyline>
<polyline clip-path="url(#clip532)" style="stroke:#000000; stroke-linecap:round; stroke-linejoin:round; stroke-width:2; stroke-opacity:0.1; fill:none" points="1578.93,1423.18 1578.93,123.472 "></polyline>
<polyline clip-path="url(#clip532)" style="stroke:#000000; stroke-linecap:round; stroke-linejoin:round; stroke-width:2; stroke-opacity:0.1; fill:none" points="1896.4,1423.18 1896.4,123.472 "></polyline>
<polyline clip-path="url(#clip532)" style="stroke:#000000; stroke-linecap:round; stroke-linejoin:round; stroke-width:2; stroke-opacity:0.1; fill:none" points="2213.86,1423.18 2213.86,123.472 "></polyline>
<polyline clip-path="url(#clip530)" style="stroke:#000000; stroke-linecap:round; stroke-linejoin:round; stroke-width:4; stroke-opacity:1; fill:none" points="249.542,1423.18 2352.76,1423.18 "></polyline>
<polyline clip-path="url(#clip530)" style="stroke:#000000; stroke-linecap:round; stroke-linejoin:round; stroke-width:4; stroke-opacity:1; fill:none" points="309.067,1423.18 309.067,1404.28 "></polyline>
<polyline clip-path="url(#clip530)" style="stroke:#000000; stroke-linecap:round; stroke-linejoin:round; stroke-width:4; stroke-opacity:1; fill:none" points="626.533,1423.18 626.533,1404.28 "></polyline>
<polyline clip-path="url(#clip530)" style="stroke:#000000; stroke-linecap:round; stroke-linejoin:round; stroke-width:4; stroke-opacity:1; fill:none" points="943.999,1423.18 943.999,1404.28 "></polyline>
<polyline clip-path="url(#clip530)" style="stroke:#000000; stroke-linecap:round; stroke-linejoin:round; stroke-width:4; stroke-opacity:1; fill:none" points="1261.47,1423.18 1261.47,1404.28 "></polyline>
<polyline clip-path="url(#clip530)" style="stroke:#000000; stroke-linecap:round; stroke-linejoin:round; stroke-width:4; stroke-opacity:1; fill:none" points="1578.93,1423.18 1578.93,1404.28 "></polyline>
<polyline clip-path="url(#clip530)" style="stroke:#000000; stroke-linecap:round; stroke-linejoin:round; stroke-width:4; stroke-opacity:1; fill:none" points="1896.4,1423.18 1896.4,1404.28 "></polyline>
<polyline clip-path="url(#clip530)" style="stroke:#000000; stroke-linecap:round; stroke-linejoin:round; stroke-width:4; stroke-opacity:1; fill:none" points="2213.86,1423.18 2213.86,1404.28 "></polyline>
<path clip-path="url(#clip530)" d="M286.451 1454.1 Q282.84 1454.1 281.012 1457.66 Q279.206 1461.2 279.206 1468.33 Q279.206 1475.44 281.012 1479.01 Q282.84 1482.55 286.451 1482.55 Q290.086 1482.55 291.891 1479.01 Q293.72 1475.44 293.72 1468.33 Q293.72 1461.2 291.891 1457.66 Q290.086 1454.1 286.451 1454.1 M286.451 1450.39 Q292.261 1450.39 295.317 1455 Q298.396 1459.58 298.396 1468.33 Q298.396 1477.06 295.317 1481.67 Q292.261 1486.25 286.451 1486.25 Q280.641 1486.25 277.562 1481.67 Q274.507 1477.06 274.507 1468.33 Q274.507 1459.58 277.562 1455 Q280.641 1450.39 286.451 1450.39 Z" fill="#000000" fill-rule="nonzero" fill-opacity="1"></path><path clip-path="url(#clip530)" d="M306.613 1479.7 L311.497 1479.7 L311.497 1485.58 L306.613 1485.58 L306.613 1479.7 Z" fill="#000000" fill-rule="nonzero" fill-opacity="1"></path><path clip-path="url(#clip530)" d="M331.683 1454.1 Q328.071 1454.1 326.243 1457.66 Q324.437 1461.2 324.437 1468.33 Q324.437 1475.44 326.243 1479.01 Q328.071 1482.55 331.683 1482.55 Q335.317 1482.55 337.122 1479.01 Q338.951 1475.44 338.951 1468.33 Q338.951 1461.2 337.122 1457.66 Q335.317 1454.1 331.683 1454.1 M331.683 1450.39 Q337.493 1450.39 340.548 1455 Q343.627 1459.58 343.627 1468.33 Q343.627 1477.06 340.548 1481.67 Q337.493 1486.25 331.683 1486.25 Q325.872 1486.25 322.794 1481.67 Q319.738 1477.06 319.738 1468.33 Q319.738 1459.58 322.794 1455 Q325.872 1450.39 331.683 1450.39 Z" fill="#000000" fill-rule="nonzero" fill-opacity="1"></path><path clip-path="url(#clip530)" d="M604.716 1454.1 Q601.105 1454.1 599.276 1457.66 Q597.471 1461.2 597.471 1468.33 Q597.471 1475.44 599.276 1479.01 Q601.105 1482.55 604.716 1482.55 Q608.35 1482.55 610.156 1479.01 Q611.985 1475.44 611.985 1468.33 Q611.985 1461.2 610.156 1457.66 Q608.35 1454.1 604.716 1454.1 M604.716 1450.39 Q610.526 1450.39 613.582 1455 Q616.661 1459.58 616.661 1468.33 Q616.661 1477.06 613.582 1481.67 Q610.526 1486.25 604.716 1486.25 Q598.906 1486.25 595.827 1481.67 Q592.772 1477.06 592.772 1468.33 Q592.772 1459.58 595.827 1455 Q598.906 1450.39 604.716 1450.39 Z" fill="#000000" fill-rule="nonzero" fill-opacity="1"></path><path clip-path="url(#clip530)" d="M624.878 1479.7 L629.762 1479.7 L629.762 1485.58 L624.878 1485.58 L624.878 1479.7 Z" fill="#000000" fill-rule="nonzero" fill-opacity="1"></path><path clip-path="url(#clip530)" d="M643.975 1481.64 L660.295 1481.64 L660.295 1485.58 L638.35 1485.58 L638.35 1481.64 Q641.012 1478.89 645.596 1474.26 Q650.202 1469.61 651.383 1468.27 Q653.628 1465.74 654.508 1464.01 Q655.41 1462.25 655.41 1460.56 Q655.41 1457.8 653.466 1456.07 Q651.545 1454.33 648.443 1454.33 Q646.244 1454.33 643.79 1455.09 Q641.36 1455.86 638.582 1457.41 L638.582 1452.69 Q641.406 1451.55 643.859 1450.97 Q646.313 1450.39 648.35 1450.39 Q653.721 1450.39 656.915 1453.08 Q660.109 1455.77 660.109 1460.26 Q660.109 1462.39 659.299 1464.31 Q658.512 1466.2 656.406 1468.8 Q655.827 1469.47 652.725 1472.69 Q649.623 1475.88 643.975 1481.64 Z" fill="#000000" fill-rule="nonzero" fill-opacity="1"></path><path clip-path="url(#clip530)" d="M921.141 1454.1 Q917.53 1454.1 915.701 1457.66 Q913.895 1461.2 913.895 1468.33 Q913.895 1475.44 915.701 1479.01 Q917.53 1482.55 921.141 1482.55 Q924.775 1482.55 926.581 1479.01 Q928.409 1475.44 928.409 1468.33 Q928.409 1461.2 926.581 1457.66 Q924.775 1454.1 921.141 1454.1 M921.141 1450.39 Q926.951 1450.39 930.006 1455 Q933.085 1459.58 933.085 1468.33 Q933.085 1477.06 930.006 1481.67 Q926.951 1486.25 921.141 1486.25 Q915.331 1486.25 912.252 1481.67 Q909.196 1477.06 909.196 1468.33 Q909.196 1459.58 912.252 1455 Q915.331 1450.39 921.141 1450.39 Z" fill="#000000" fill-rule="nonzero" fill-opacity="1"></path><path clip-path="url(#clip530)" d="M941.303 1479.7 L946.187 1479.7 L946.187 1485.58 L941.303 1485.58 L941.303 1479.7 Z" fill="#000000" fill-rule="nonzero" fill-opacity="1"></path><path clip-path="url(#clip530)" d="M969.219 1455.09 L957.414 1473.54 L969.219 1473.54 L969.219 1455.09 M967.992 1451.02 L973.872 1451.02 L973.872 1473.54 L978.802 1473.54 L978.802 1477.43 L973.872 1477.43 L973.872 1485.58 L969.219 1485.58 L969.219 1477.43 L953.617 1477.43 L953.617 1472.92 L967.992 1451.02 Z" fill="#000000" fill-rule="nonzero" fill-opacity="1"></path><path clip-path="url(#clip530)" d="M1238.77 1454.1 Q1235.16 1454.1 1233.33 1457.66 Q1231.52 1461.2 1231.52 1468.33 Q1231.52 1475.44 1233.33 1479.01 Q1235.16 1482.55 1238.77 1482.55 Q1242.4 1482.55 1244.21 1479.01 Q1246.04 1475.44 1246.04 1468.33 Q1246.04 1461.2 1244.21 1457.66 Q1242.4 1454.1 1238.77 1454.1 M1238.77 1450.39 Q1244.58 1450.39 1247.63 1455 Q1250.71 1459.58 1250.71 1468.33 Q1250.71 1477.06 1247.63 1481.67 Q1244.58 1486.25 1238.77 1486.25 Q1232.96 1486.25 1229.88 1481.67 Q1226.82 1477.06 1226.82 1468.33 Q1226.82 1459.58 1229.88 1455 Q1232.96 1450.39 1238.77 1450.39 Z" fill="#000000" fill-rule="nonzero" fill-opacity="1"></path><path clip-path="url(#clip530)" d="M1258.93 1479.7 L1263.82 1479.7 L1263.82 1485.58 L1258.93 1485.58 L1258.93 1479.7 Z" fill="#000000" fill-rule="nonzero" fill-opacity="1"></path><path clip-path="url(#clip530)" d="M1284.58 1466.44 Q1281.43 1466.44 1279.58 1468.59 Q1277.75 1470.74 1277.75 1474.49 Q1277.75 1478.22 1279.58 1480.39 Q1281.43 1482.55 1284.58 1482.55 Q1287.73 1482.55 1289.56 1480.39 Q1291.41 1478.22 1291.41 1474.49 Q1291.41 1470.74 1289.56 1468.59 Q1287.73 1466.44 1284.58 1466.44 M1293.86 1451.78 L1293.86 1456.04 Q1292.1 1455.21 1290.3 1454.77 Q1288.51 1454.33 1286.75 1454.33 Q1282.13 1454.33 1279.67 1457.45 Q1277.24 1460.58 1276.89 1466.9 Q1278.26 1464.89 1280.32 1463.82 Q1282.38 1462.73 1284.86 1462.73 Q1290.07 1462.73 1293.07 1465.9 Q1296.11 1469.05 1296.11 1474.49 Q1296.11 1479.82 1292.96 1483.03 Q1289.81 1486.25 1284.58 1486.25 Q1278.58 1486.25 1275.41 1481.67 Q1272.24 1477.06 1272.24 1468.33 Q1272.24 1460.14 1276.13 1455.28 Q1280.02 1450.39 1286.57 1450.39 Q1288.33 1450.39 1290.11 1450.74 Q1291.92 1451.09 1293.86 1451.78 Z" fill="#000000" fill-rule="nonzero" fill-opacity="1"></path><path clip-path="url(#clip530)" d="M1556.36 1454.1 Q1552.75 1454.1 1550.92 1457.66 Q1549.12 1461.2 1549.12 1468.33 Q1549.12 1475.44 1550.92 1479.01 Q1552.75 1482.55 1556.36 1482.55 Q1560 1482.55 1561.8 1479.01 Q1563.63 1475.44 1563.63 1468.33 Q1563.63 1461.2 1561.8 1457.66 Q1560 1454.1 1556.36 1454.1 M1556.36 1450.39 Q1562.17 1450.39 1565.23 1455 Q1568.31 1459.58 1568.31 1468.33 Q1568.31 1477.06 1565.23 1481.67 Q1562.17 1486.25 1556.36 1486.25 Q1550.55 1486.25 1547.47 1481.67 Q1544.42 1477.06 1544.42 1468.33 Q1544.42 1459.58 1547.47 1455 Q1550.55 1450.39 1556.36 1450.39 Z" fill="#000000" fill-rule="nonzero" fill-opacity="1"></path><path clip-path="url(#clip530)" d="M1576.52 1479.7 L1581.41 1479.7 L1581.41 1485.58 L1576.52 1485.58 L1576.52 1479.7 Z" fill="#000000" fill-rule="nonzero" fill-opacity="1"></path><path clip-path="url(#clip530)" d="M1601.59 1469.17 Q1598.26 1469.17 1596.34 1470.95 Q1594.44 1472.73 1594.44 1475.86 Q1594.44 1478.98 1596.34 1480.77 Q1598.26 1482.55 1601.59 1482.55 Q1604.93 1482.55 1606.85 1480.77 Q1608.77 1478.96 1608.77 1475.86 Q1608.77 1472.73 1606.85 1470.95 Q1604.95 1469.17 1601.59 1469.17 M1596.92 1467.18 Q1593.91 1466.44 1592.22 1464.38 Q1590.55 1462.32 1590.55 1459.35 Q1590.55 1455.21 1593.49 1452.8 Q1596.45 1450.39 1601.59 1450.39 Q1606.76 1450.39 1609.7 1452.8 Q1612.64 1455.21 1612.64 1459.35 Q1612.64 1462.32 1610.95 1464.38 Q1609.28 1466.44 1606.29 1467.18 Q1609.67 1467.96 1611.55 1470.26 Q1613.45 1472.55 1613.45 1475.86 Q1613.45 1480.88 1610.37 1483.57 Q1607.31 1486.25 1601.59 1486.25 Q1595.88 1486.25 1592.8 1483.57 Q1589.74 1480.88 1589.74 1475.86 Q1589.74 1472.55 1591.64 1470.26 Q1593.54 1467.96 1596.92 1467.18 M1595.2 1459.79 Q1595.2 1462.48 1596.87 1463.98 Q1598.56 1465.49 1601.59 1465.49 Q1604.6 1465.49 1606.29 1463.98 Q1608.01 1462.48 1608.01 1459.79 Q1608.01 1457.11 1606.29 1455.6 Q1604.6 1454.1 1601.59 1454.1 Q1598.56 1454.1 1596.87 1455.6 Q1595.2 1457.11 1595.2 1459.79 Z" fill="#000000" fill-rule="nonzero" fill-opacity="1"></path><path clip-path="url(#clip530)" d="M1863.55 1481.64 L1871.19 1481.64 L1871.19 1455.28 L1862.88 1456.95 L1862.88 1452.69 L1871.14 1451.02 L1875.82 1451.02 L1875.82 1481.64 L1883.46 1481.64 L1883.46 1485.58 L1863.55 1485.58 L1863.55 1481.64 Z" fill="#000000" fill-rule="nonzero" fill-opacity="1"></path><path clip-path="url(#clip530)" d="M1892.9 1479.7 L1897.79 1479.7 L1897.79 1485.58 L1892.9 1485.58 L1892.9 1479.7 Z" fill="#000000" fill-rule="nonzero" fill-opacity="1"></path><path clip-path="url(#clip530)" d="M1917.97 1454.1 Q1914.36 1454.1 1912.53 1457.66 Q1910.73 1461.2 1910.73 1468.33 Q1910.73 1475.44 1912.53 1479.01 Q1914.36 1482.55 1917.97 1482.55 Q1921.61 1482.55 1923.41 1479.01 Q1925.24 1475.44 1925.24 1468.33 Q1925.24 1461.2 1923.41 1457.66 Q1921.61 1454.1 1917.97 1454.1 M1917.97 1450.39 Q1923.78 1450.39 1926.84 1455 Q1929.92 1459.58 1929.92 1468.33 Q1929.92 1477.06 1926.84 1481.67 Q1923.78 1486.25 1917.97 1486.25 Q1912.16 1486.25 1909.08 1481.67 Q1906.03 1477.06 1906.03 1468.33 Q1906.03 1459.58 1909.08 1455 Q1912.16 1450.39 1917.97 1450.39 Z" fill="#000000" fill-rule="nonzero" fill-opacity="1"></path><path clip-path="url(#clip530)" d="M2181.82 1481.64 L2189.45 1481.64 L2189.45 1455.28 L2181.14 1456.95 L2181.14 1452.69 L2189.41 1451.02 L2194.08 1451.02 L2194.08 1481.64 L2201.72 1481.64 L2201.72 1485.58 L2181.82 1485.58 L2181.82 1481.64 Z" fill="#000000" fill-rule="nonzero" fill-opacity="1"></path><path clip-path="url(#clip530)" d="M2211.17 1479.7 L2216.05 1479.7 L2216.05 1485.58 L2211.17 1485.58 L2211.17 1479.7 Z" fill="#000000" fill-rule="nonzero" fill-opacity="1"></path><path clip-path="url(#clip530)" d="M2230.26 1481.64 L2246.58 1481.64 L2246.58 1485.58 L2224.64 1485.58 L2224.64 1481.64 Q2227.3 1478.89 2231.89 1474.26 Q2236.49 1469.61 2237.67 1468.27 Q2239.92 1465.74 2240.8 1464.01 Q2241.7 1462.25 2241.7 1460.56 Q2241.7 1457.8 2239.76 1456.07 Q2237.83 1454.33 2234.73 1454.33 Q2232.53 1454.33 2230.08 1455.09 Q2227.65 1455.86 2224.87 1457.41 L2224.87 1452.69 Q2227.7 1451.55 2230.15 1450.97 Q2232.6 1450.39 2234.64 1450.39 Q2240.01 1450.39 2243.2 1453.08 Q2246.4 1455.77 2246.4 1460.26 Q2246.4 1462.39 2245.59 1464.31 Q2244.8 1466.2 2242.7 1468.8 Q2242.12 1469.47 2239.01 1472.69 Q2235.91 1475.88 2230.26 1481.64 Z" fill="#000000" fill-rule="nonzero" fill-opacity="1"></path><path clip-path="url(#clip530)" d="M779.209 1520.52 L788.789 1520.52 L800.916 1552.86 L813.106 1520.52 L822.687 1520.52 L822.687 1568.04 L816.416 1568.04 L816.416 1526.32 L804.162 1558.91 L797.701 1558.91 L785.447 1526.32 L785.447 1568.04 L779.209 1568.04 L779.209 1520.52 Z" fill="#000000" fill-rule="nonzero" fill-opacity="1"></path><path clip-path="url(#clip530)" d="M865.687 1548.76 L865.687 1551.62 L838.76 1551.62 Q839.142 1557.67 842.388 1560.85 Q845.667 1564 851.491 1564 Q854.865 1564 858.016 1563.17 Q861.199 1562.35 864.318 1560.69 L864.318 1566.23 Q861.167 1567.57 857.857 1568.27 Q854.547 1568.97 851.141 1568.97 Q842.611 1568.97 837.614 1564 Q832.649 1559.04 832.649 1550.57 Q832.649 1541.82 837.359 1536.69 Q842.102 1531.54 850.123 1531.54 Q857.316 1531.54 861.486 1536.18 Q865.687 1540.8 865.687 1548.76 M859.83 1547.04 Q859.767 1542.23 857.125 1539.37 Q854.515 1536.5 850.186 1536.5 Q845.285 1536.5 842.325 1539.27 Q839.397 1542.04 838.951 1547.07 L859.83 1547.04 Z" fill="#000000" fill-rule="nonzero" fill-opacity="1"></path><path clip-path="url(#clip530)" d="M898.757 1537.81 L898.757 1518.52 L904.613 1518.52 L904.613 1568.04 L898.757 1568.04 L898.757 1562.7 Q896.911 1565.88 894.078 1567.44 Q891.277 1568.97 887.33 1568.97 Q880.869 1568.97 876.795 1563.81 Q872.753 1558.65 872.753 1550.25 Q872.753 1541.85 876.795 1536.69 Q880.869 1531.54 887.33 1531.54 Q891.277 1531.54 894.078 1533.1 Q896.911 1534.62 898.757 1537.81 M878.8 1550.25 Q878.8 1556.71 881.442 1560.4 Q884.116 1564.07 888.763 1564.07 Q893.41 1564.07 896.083 1560.4 Q898.757 1556.71 898.757 1550.25 Q898.757 1543.79 896.083 1540.13 Q893.41 1536.44 888.763 1536.44 Q884.116 1536.44 881.442 1540.13 Q878.8 1543.79 878.8 1550.25 Z" fill="#000000" fill-rule="nonzero" fill-opacity="1"></path><path clip-path="url(#clip530)" d="M916.676 1532.4 L922.533 1532.4 L922.533 1568.04 L916.676 1568.04 L916.676 1532.4 M916.676 1518.52 L922.533 1518.52 L922.533 1525.93 L916.676 1525.93 L916.676 1518.52 Z" fill="#000000" fill-rule="nonzero" fill-opacity="1"></path><path clip-path="url(#clip530)" d="M950.987 1550.12 Q943.89 1550.12 941.152 1551.75 Q938.415 1553.37 938.415 1557.29 Q938.415 1560.4 940.452 1562.25 Q942.521 1564.07 946.054 1564.07 Q950.924 1564.07 953.852 1560.63 Q956.812 1557.16 956.812 1551.43 L956.812 1550.12 L950.987 1550.12 M962.668 1547.71 L962.668 1568.04 L956.812 1568.04 L956.812 1562.63 Q954.807 1565.88 951.815 1567.44 Q948.823 1568.97 944.494 1568.97 Q939.02 1568.97 935.773 1565.91 Q932.559 1562.82 932.559 1557.67 Q932.559 1551.65 936.569 1548.6 Q940.611 1545.54 948.6 1545.54 L956.812 1545.54 L956.812 1544.97 Q956.812 1540.93 954.138 1538.73 Q951.497 1536.5 946.691 1536.5 Q943.635 1536.5 940.739 1537.23 Q937.842 1537.97 935.169 1539.43 L935.169 1534.02 Q938.383 1532.78 941.407 1532.17 Q944.431 1531.54 947.295 1531.54 Q955.03 1531.54 958.849 1535.55 Q962.668 1539.56 962.668 1547.71 Z" fill="#000000" fill-rule="nonzero" fill-opacity="1"></path><path clip-path="url(#clip530)" d="M1004.36 1546.53 L1004.36 1568.04 L998.507 1568.04 L998.507 1546.72 Q998.507 1541.66 996.534 1539.14 Q994.561 1536.63 990.614 1536.63 Q985.871 1536.63 983.134 1539.65 Q980.397 1542.68 980.397 1547.9 L980.397 1568.04 L974.509 1568.04 L974.509 1532.4 L980.397 1532.4 L980.397 1537.93 Q982.498 1534.72 985.33 1533.13 Q988.195 1531.54 991.919 1531.54 Q998.062 1531.54 1001.21 1535.36 Q1004.36 1539.14 1004.36 1546.53 Z" fill="#000000" fill-rule="nonzero" fill-opacity="1"></path><path clip-path="url(#clip530)" d="M1069.42 1561.26 L1069.42 1548.5 L1058.92 1548.5 L1058.92 1543.22 L1075.79 1543.22 L1075.79 1563.62 Q1072.06 1566.26 1067.58 1567.63 Q1063.09 1568.97 1057.99 1568.97 Q1046.85 1568.97 1040.55 1562.47 Q1034.28 1555.95 1034.28 1544.33 Q1034.28 1532.68 1040.55 1526.19 Q1046.85 1519.66 1057.99 1519.66 Q1062.64 1519.66 1066.81 1520.81 Q1071.01 1521.96 1074.55 1524.18 L1074.55 1531.03 Q1070.98 1528 1066.97 1526.48 Q1062.96 1524.95 1058.54 1524.95 Q1049.81 1524.95 1045.42 1529.82 Q1041.06 1534.69 1041.06 1544.33 Q1041.06 1553.94 1045.42 1558.81 Q1049.81 1563.68 1058.54 1563.68 Q1061.94 1563.68 1064.62 1563.11 Q1067.29 1562.51 1069.42 1561.26 Z" fill="#000000" fill-rule="nonzero" fill-opacity="1"></path><path clip-path="url(#clip530)" d="M1107.93 1537.87 Q1106.95 1537.3 1105.77 1537.04 Q1104.62 1536.76 1103.22 1536.76 Q1098.26 1536.76 1095.58 1540 Q1092.94 1543.22 1092.94 1549.27 L1092.94 1568.04 L1087.05 1568.04 L1087.05 1532.4 L1092.94 1532.4 L1092.94 1537.93 Q1094.79 1534.69 1097.75 1533.13 Q1100.71 1531.54 1104.94 1531.54 Q1105.55 1531.54 1106.28 1531.63 Q1107.01 1531.7 1107.9 1531.85 L1107.93 1537.87 Z" fill="#000000" fill-rule="nonzero" fill-opacity="1"></path><path clip-path="url(#clip530)" d="M1130.28 1550.12 Q1123.18 1550.12 1120.44 1551.75 Q1117.71 1553.37 1117.71 1557.29 Q1117.71 1560.4 1119.74 1562.25 Q1121.81 1564.07 1125.34 1564.07 Q1130.21 1564.07 1133.14 1560.63 Q1136.1 1557.16 1136.1 1551.43 L1136.1 1550.12 L1130.28 1550.12 M1141.96 1547.71 L1141.96 1568.04 L1136.1 1568.04 L1136.1 1562.63 Q1134.1 1565.88 1131.11 1567.44 Q1128.11 1568.97 1123.78 1568.97 Q1118.31 1568.97 1115.06 1565.91 Q1111.85 1562.82 1111.85 1557.67 Q1111.85 1551.65 1115.86 1548.6 Q1119.9 1545.54 1127.89 1545.54 L1136.1 1545.54 L1136.1 1544.97 Q1136.1 1540.93 1133.43 1538.73 Q1130.79 1536.5 1125.98 1536.5 Q1122.93 1536.5 1120.03 1537.23 Q1117.13 1537.97 1114.46 1539.43 L1114.46 1534.02 Q1117.67 1532.78 1120.7 1532.17 Q1123.72 1531.54 1126.59 1531.54 Q1134.32 1531.54 1138.14 1535.55 Q1141.96 1539.56 1141.96 1547.71 Z" fill="#000000" fill-rule="nonzero" fill-opacity="1"></path><path clip-path="url(#clip530)" d="M1154.02 1532.4 L1159.88 1532.4 L1159.88 1568.04 L1154.02 1568.04 L1154.02 1532.4 M1154.02 1518.52 L1159.88 1518.52 L1159.88 1525.93 L1154.02 1525.93 L1154.02 1518.52 Z" fill="#000000" fill-rule="nonzero" fill-opacity="1"></path><path clip-path="url(#clip530)" d="M1201.76 1546.53 L1201.76 1568.04 L1195.91 1568.04 L1195.91 1546.72 Q1195.91 1541.66 1193.93 1539.14 Q1191.96 1536.63 1188.01 1536.63 Q1183.27 1536.63 1180.53 1539.65 Q1177.8 1542.68 1177.8 1547.9 L1177.8 1568.04 L1171.91 1568.04 L1171.91 1532.4 L1177.8 1532.4 L1177.8 1537.93 Q1179.9 1534.72 1182.73 1533.13 Q1185.6 1531.54 1189.32 1531.54 Q1195.46 1531.54 1198.61 1535.36 Q1201.76 1539.14 1201.76 1546.53 Z" fill="#000000" fill-rule="nonzero" fill-opacity="1"></path><path clip-path="url(#clip530)" d="M1262.91 1522.08 L1262.91 1528.35 Q1259.25 1526.6 1256 1525.74 Q1252.75 1524.88 1249.73 1524.88 Q1244.48 1524.88 1241.61 1526.92 Q1238.78 1528.96 1238.78 1532.71 Q1238.78 1535.87 1240.66 1537.49 Q1242.57 1539.08 1247.85 1540.07 L1251.74 1540.86 Q1258.93 1542.23 1262.33 1545.7 Q1265.77 1549.14 1265.77 1554.93 Q1265.77 1561.84 1261.12 1565.4 Q1256.51 1568.97 1247.57 1568.97 Q1244.19 1568.97 1240.37 1568.2 Q1236.58 1567.44 1232.51 1565.94 L1232.51 1559.32 Q1236.43 1561.52 1240.18 1562.63 Q1243.94 1563.75 1247.57 1563.75 Q1253.07 1563.75 1256.06 1561.58 Q1259.06 1559.42 1259.06 1555.41 Q1259.06 1551.91 1256.89 1549.93 Q1254.76 1547.96 1249.86 1546.97 L1245.94 1546.21 Q1238.75 1544.78 1235.53 1541.72 Q1232.32 1538.67 1232.32 1533.22 Q1232.32 1526.92 1236.74 1523.29 Q1241.2 1519.66 1249 1519.66 Q1252.34 1519.66 1255.81 1520.27 Q1259.28 1520.87 1262.91 1522.08 Z" fill="#000000" fill-rule="nonzero" fill-opacity="1"></path><path clip-path="url(#clip530)" d="M1275.54 1532.4 L1281.4 1532.4 L1281.4 1568.04 L1275.54 1568.04 L1275.54 1532.4 M1275.54 1518.52 L1281.4 1518.52 L1281.4 1525.93 L1275.54 1525.93 L1275.54 1518.52 Z" fill="#000000" fill-rule="nonzero" fill-opacity="1"></path><path clip-path="url(#clip530)" d="M1291.11 1532.4 L1318.93 1532.4 L1318.93 1537.74 L1296.9 1563.37 L1318.93 1563.37 L1318.93 1568.04 L1290.31 1568.04 L1290.31 1562.7 L1312.34 1537.07 L1291.11 1537.07 L1291.11 1532.4 Z" fill="#000000" fill-rule="nonzero" fill-opacity="1"></path><path clip-path="url(#clip530)" d="M1358.36 1548.76 L1358.36 1551.62 L1331.43 1551.62 Q1331.82 1557.67 1335.06 1560.85 Q1338.34 1564 1344.17 1564 Q1347.54 1564 1350.69 1563.17 Q1353.87 1562.35 1356.99 1560.69 L1356.99 1566.23 Q1353.84 1567.57 1350.53 1568.27 Q1347.22 1568.97 1343.82 1568.97 Q1335.29 1568.97 1330.29 1564 Q1325.32 1559.04 1325.32 1550.57 Q1325.32 1541.82 1330.03 1536.69 Q1334.78 1531.54 1342.8 1531.54 Q1349.99 1531.54 1354.16 1536.18 Q1358.36 1540.8 1358.36 1548.76 M1352.5 1547.04 Q1352.44 1542.23 1349.8 1539.37 Q1347.19 1536.5 1342.86 1536.5 Q1337.96 1536.5 1335 1539.27 Q1332.07 1542.04 1331.62 1547.07 L1352.5 1547.04 Z" fill="#000000" fill-rule="nonzero" fill-opacity="1"></path><path clip-path="url(#clip530)" d="M1402.51 1536.5 Q1397.8 1536.5 1395.06 1540.19 Q1392.32 1543.85 1392.32 1550.25 Q1392.32 1556.65 1395.03 1560.34 Q1397.76 1564 1402.51 1564 Q1407.19 1564 1409.92 1560.31 Q1412.66 1556.62 1412.66 1550.25 Q1412.66 1543.92 1409.92 1540.23 Q1407.19 1536.5 1402.51 1536.5 M1402.51 1531.54 Q1410.15 1531.54 1414.51 1536.5 Q1418.87 1541.47 1418.87 1550.25 Q1418.87 1559 1414.51 1564 Q1410.15 1568.97 1402.51 1568.97 Q1394.84 1568.97 1390.48 1564 Q1386.15 1559 1386.15 1550.25 Q1386.15 1541.47 1390.48 1536.5 Q1394.84 1531.54 1402.51 1531.54 Z" fill="#000000" fill-rule="nonzero" fill-opacity="1"></path><path clip-path="url(#clip530)" d="M1446.62 1518.52 L1446.62 1523.39 L1441.02 1523.39 Q1437.87 1523.39 1436.63 1524.66 Q1435.42 1525.93 1435.42 1529.24 L1435.42 1532.4 L1445.06 1532.4 L1445.06 1536.95 L1435.42 1536.95 L1435.42 1568.04 L1429.53 1568.04 L1429.53 1536.95 L1423.93 1536.95 L1423.93 1532.4 L1429.53 1532.4 L1429.53 1529.91 Q1429.53 1523.96 1432.3 1521.26 Q1435.07 1518.52 1441.08 1518.52 L1446.62 1518.52 Z" fill="#000000" fill-rule="nonzero" fill-opacity="1"></path><path clip-path="url(#clip530)" d="M1500.98 1522.08 L1500.98 1528.35 Q1497.32 1526.6 1494.08 1525.74 Q1490.83 1524.88 1487.81 1524.88 Q1482.56 1524.88 1479.69 1526.92 Q1476.86 1528.96 1476.86 1532.71 Q1476.86 1535.87 1478.74 1537.49 Q1480.65 1539.08 1485.93 1540.07 L1489.81 1540.86 Q1497.01 1542.23 1500.41 1545.7 Q1503.85 1549.14 1503.85 1554.93 Q1503.85 1561.84 1499.2 1565.4 Q1494.59 1568.97 1485.64 1568.97 Q1482.27 1568.97 1478.45 1568.2 Q1474.66 1567.44 1470.59 1565.94 L1470.59 1559.32 Q1474.5 1561.52 1478.26 1562.63 Q1482.01 1563.75 1485.64 1563.75 Q1491.15 1563.75 1494.14 1561.58 Q1497.13 1559.42 1497.13 1555.41 Q1497.13 1551.91 1494.97 1549.93 Q1492.84 1547.96 1487.93 1546.97 L1484.02 1546.21 Q1476.83 1544.78 1473.61 1541.72 Q1470.4 1538.67 1470.4 1533.22 Q1470.4 1526.92 1474.82 1523.29 Q1479.28 1519.66 1487.08 1519.66 Q1490.42 1519.66 1493.89 1520.27 Q1497.36 1520.87 1500.98 1522.08 Z" fill="#000000" fill-rule="nonzero" fill-opacity="1"></path><path clip-path="url(#clip530)" d="M1529.82 1550.12 Q1522.72 1550.12 1519.99 1551.75 Q1517.25 1553.37 1517.25 1557.29 Q1517.25 1560.4 1519.29 1562.25 Q1521.35 1564.07 1524.89 1564.07 Q1529.76 1564.07 1532.69 1560.63 Q1535.65 1557.16 1535.65 1551.43 L1535.65 1550.12 L1529.82 1550.12 M1541.5 1547.71 L1541.5 1568.04 L1535.65 1568.04 L1535.65 1562.63 Q1533.64 1565.88 1530.65 1567.44 Q1527.66 1568.97 1523.33 1568.97 Q1517.85 1568.97 1514.61 1565.91 Q1511.39 1562.82 1511.39 1557.67 Q1511.39 1551.65 1515.4 1548.6 Q1519.44 1545.54 1527.43 1545.54 L1535.65 1545.54 L1535.65 1544.97 Q1535.65 1540.93 1532.97 1538.73 Q1530.33 1536.5 1525.52 1536.5 Q1522.47 1536.5 1519.57 1537.23 Q1516.68 1537.97 1514 1539.43 L1514 1534.02 Q1517.22 1532.78 1520.24 1532.17 Q1523.26 1531.54 1526.13 1531.54 Q1533.86 1531.54 1537.68 1535.55 Q1541.5 1539.56 1541.5 1547.71 Z" fill="#000000" fill-rule="nonzero" fill-opacity="1"></path><path clip-path="url(#clip530)" d="M1583.2 1546.53 L1583.2 1568.04 L1577.34 1568.04 L1577.34 1546.72 Q1577.34 1541.66 1575.37 1539.14 Q1573.39 1536.63 1569.45 1536.63 Q1564.71 1536.63 1561.97 1539.65 Q1559.23 1542.68 1559.23 1547.9 L1559.23 1568.04 L1553.34 1568.04 L1553.34 1532.4 L1559.23 1532.4 L1559.23 1537.93 Q1561.33 1534.72 1564.16 1533.13 Q1567.03 1531.54 1570.75 1531.54 Q1576.9 1531.54 1580.05 1535.36 Q1583.2 1539.14 1583.2 1546.53 Z" fill="#000000" fill-rule="nonzero" fill-opacity="1"></path><path clip-path="url(#clip530)" d="M1618.34 1537.81 L1618.34 1518.52 L1624.19 1518.52 L1624.19 1568.04 L1618.34 1568.04 L1618.34 1562.7 Q1616.49 1565.88 1613.66 1567.44 Q1610.86 1568.97 1606.91 1568.97 Q1600.45 1568.97 1596.37 1563.81 Q1592.33 1558.65 1592.33 1550.25 Q1592.33 1541.85 1596.37 1536.69 Q1600.45 1531.54 1606.91 1531.54 Q1610.86 1531.54 1613.66 1533.1 Q1616.49 1534.62 1618.34 1537.81 M1598.38 1550.25 Q1598.38 1556.71 1601.02 1560.4 Q1603.7 1564.07 1608.34 1564.07 Q1612.99 1564.07 1615.66 1560.4 Q1618.34 1556.71 1618.34 1550.25 Q1618.34 1543.79 1615.66 1540.13 Q1612.99 1536.44 1608.34 1536.44 Q1603.7 1536.44 1601.02 1540.13 Q1598.38 1543.79 1598.38 1550.25 Z" fill="#000000" fill-rule="nonzero" fill-opacity="1"></path><path clip-path="url(#clip530)" d="M1671.04 1518.58 Q1666.78 1525.9 1664.71 1533.06 Q1662.64 1540.23 1662.64 1547.58 Q1662.64 1554.93 1664.71 1562.16 Q1666.81 1569.35 1671.04 1576.64 L1665.95 1576.64 Q1661.18 1569.16 1658.79 1561.93 Q1656.43 1554.71 1656.43 1547.58 Q1656.43 1540.48 1658.79 1533.29 Q1661.15 1526.09 1665.95 1518.58 L1671.04 1518.58 Z" fill="#000000" fill-rule="nonzero" fill-opacity="1"></path><path clip-path="url(#clip530)" d="M1710.16 1539.24 Q1712.36 1535.29 1715.41 1533.41 Q1718.47 1531.54 1722.61 1531.54 Q1728.18 1531.54 1731.2 1535.45 Q1734.22 1539.33 1734.22 1546.53 L1734.22 1568.04 L1728.34 1568.04 L1728.34 1546.72 Q1728.34 1541.59 1726.52 1539.11 Q1724.71 1536.63 1720.98 1536.63 Q1716.43 1536.63 1713.79 1539.65 Q1711.15 1542.68 1711.15 1547.9 L1711.15 1568.04 L1705.26 1568.04 L1705.26 1546.72 Q1705.26 1541.56 1703.45 1539.11 Q1701.63 1536.63 1697.84 1536.63 Q1693.36 1536.63 1690.71 1539.68 Q1688.07 1542.71 1688.07 1547.9 L1688.07 1568.04 L1682.18 1568.04 L1682.18 1532.4 L1688.07 1532.4 L1688.07 1537.93 Q1690.08 1534.66 1692.88 1533.1 Q1695.68 1531.54 1699.53 1531.54 Q1703.41 1531.54 1706.12 1533.51 Q1708.86 1535.48 1710.16 1539.24 Z" fill="#000000" fill-rule="nonzero" fill-opacity="1"></path><path clip-path="url(#clip530)" d="M1773.66 1539.24 Q1775.86 1535.29 1778.91 1533.41 Q1781.97 1531.54 1786.1 1531.54 Q1791.67 1531.54 1794.7 1535.45 Q1797.72 1539.33 1797.72 1546.53 L1797.72 1568.04 L1791.83 1568.04 L1791.83 1546.72 Q1791.83 1541.59 1790.02 1539.11 Q1788.21 1536.63 1784.48 1536.63 Q1779.93 1536.63 1777.29 1539.65 Q1774.65 1542.68 1774.65 1547.9 L1774.65 1568.04 L1768.76 1568.04 L1768.76 1546.72 Q1768.76 1541.56 1766.94 1539.11 Q1765.13 1536.63 1761.34 1536.63 Q1756.85 1536.63 1754.21 1539.68 Q1751.57 1542.71 1751.57 1547.9 L1751.57 1568.04 L1745.68 1568.04 L1745.68 1532.4 L1751.57 1532.4 L1751.57 1537.93 Q1753.58 1534.66 1756.38 1533.1 Q1759.18 1531.54 1763.03 1531.54 Q1766.91 1531.54 1769.62 1533.51 Q1772.35 1535.48 1773.66 1539.24 Z" fill="#000000" fill-rule="nonzero" fill-opacity="1"></path><path clip-path="url(#clip530)" d="M1808.48 1518.58 L1813.57 1518.58 Q1818.35 1526.09 1820.7 1533.29 Q1823.09 1540.48 1823.09 1547.58 Q1823.09 1554.71 1820.7 1561.93 Q1818.35 1569.16 1813.57 1576.64 L1808.48 1576.64 Q1812.71 1569.35 1814.78 1562.16 Q1816.88 1554.93 1816.88 1547.58 Q1816.88 1540.23 1814.78 1533.06 Q1812.71 1525.9 1808.48 1518.58 Z" fill="#000000" fill-rule="nonzero" fill-opacity="1"></path><polyline clip-path="url(#clip532)" style="stroke:#000000; stroke-linecap:round; stroke-linejoin:round; stroke-width:2; stroke-opacity:0.1; fill:none" points="249.542,1386.4 2352.76,1386.4 "></polyline>
<polyline clip-path="url(#clip532)" style="stroke:#000000; stroke-linecap:round; stroke-linejoin:round; stroke-width:2; stroke-opacity:0.1; fill:none" points="249.542,1079.86 2352.76,1079.86 "></polyline>
<polyline clip-path="url(#clip532)" style="stroke:#000000; stroke-linecap:round; stroke-linejoin:round; stroke-width:2; stroke-opacity:0.1; fill:none" points="249.542,773.326 2352.76,773.326 "></polyline>
<polyline clip-path="url(#clip532)" style="stroke:#000000; stroke-linecap:round; stroke-linejoin:round; stroke-width:2; stroke-opacity:0.1; fill:none" points="249.542,466.791 2352.76,466.791 "></polyline>
<polyline clip-path="url(#clip532)" style="stroke:#000000; stroke-linecap:round; stroke-linejoin:round; stroke-width:2; stroke-opacity:0.1; fill:none" points="249.542,160.256 2352.76,160.256 "></polyline>
<polyline clip-path="url(#clip530)" style="stroke:#000000; stroke-linecap:round; stroke-linejoin:round; stroke-width:4; stroke-opacity:1; fill:none" points="249.542,1423.18 249.542,123.472 "></polyline>
<polyline clip-path="url(#clip530)" style="stroke:#000000; stroke-linecap:round; stroke-linejoin:round; stroke-width:4; stroke-opacity:1; fill:none" points="249.542,1386.4 268.44,1386.4 "></polyline>
<polyline clip-path="url(#clip530)" style="stroke:#000000; stroke-linecap:round; stroke-linejoin:round; stroke-width:4; stroke-opacity:1; fill:none" points="249.542,1079.86 268.44,1079.86 "></polyline>
<polyline clip-path="url(#clip530)" style="stroke:#000000; stroke-linecap:round; stroke-linejoin:round; stroke-width:4; stroke-opacity:1; fill:none" points="249.542,773.326 268.44,773.326 "></polyline>
<polyline clip-path="url(#clip530)" style="stroke:#000000; stroke-linecap:round; stroke-linejoin:round; stroke-width:4; stroke-opacity:1; fill:none" points="249.542,466.791 268.44,466.791 "></polyline>
<polyline clip-path="url(#clip530)" style="stroke:#000000; stroke-linecap:round; stroke-linejoin:round; stroke-width:4; stroke-opacity:1; fill:none" points="249.542,160.256 268.44,160.256 "></polyline>
<path clip-path="url(#clip530)" d="M126.205 1372.19 Q122.593 1372.19 120.765 1375.76 Q118.959 1379.3 118.959 1386.43 Q118.959 1393.54 120.765 1397.1 Q122.593 1400.64 126.205 1400.64 Q129.839 1400.64 131.644 1397.1 Q133.473 1393.54 133.473 1386.43 Q133.473 1379.3 131.644 1375.76 Q129.839 1372.19 126.205 1372.19 M126.205 1368.49 Q132.015 1368.49 135.07 1373.1 Q138.149 1377.68 138.149 1386.43 Q138.149 1395.16 135.07 1399.76 Q132.015 1404.35 126.205 1404.35 Q120.394 1404.35 117.316 1399.76 Q114.26 1395.16 114.26 1386.43 Q114.26 1377.68 117.316 1373.1 Q120.394 1368.49 126.205 1368.49 Z" fill="#000000" fill-rule="nonzero" fill-opacity="1"></path><path clip-path="url(#clip530)" d="M146.366 1397.8 L151.251 1397.8 L151.251 1403.68 L146.366 1403.68 L146.366 1397.8 Z" fill="#000000" fill-rule="nonzero" fill-opacity="1"></path><path clip-path="url(#clip530)" d="M171.436 1372.19 Q167.825 1372.19 165.996 1375.76 Q164.19 1379.3 164.19 1386.43 Q164.19 1393.54 165.996 1397.1 Q167.825 1400.64 171.436 1400.64 Q175.07 1400.64 176.876 1397.1 Q178.704 1393.54 178.704 1386.43 Q178.704 1379.3 176.876 1375.76 Q175.07 1372.19 171.436 1372.19 M171.436 1368.49 Q177.246 1368.49 180.301 1373.1 Q183.38 1377.68 183.38 1386.43 Q183.38 1395.16 180.301 1399.76 Q177.246 1404.35 171.436 1404.35 Q165.626 1404.35 162.547 1399.76 Q159.491 1395.16 159.491 1386.43 Q159.491 1377.68 162.547 1373.1 Q165.626 1368.49 171.436 1368.49 Z" fill="#000000" fill-rule="nonzero" fill-opacity="1"></path><path clip-path="url(#clip530)" d="M201.598 1372.19 Q197.987 1372.19 196.158 1375.76 Q194.352 1379.3 194.352 1386.43 Q194.352 1393.54 196.158 1397.1 Q197.987 1400.64 201.598 1400.64 Q205.232 1400.64 207.037 1397.1 Q208.866 1393.54 208.866 1386.43 Q208.866 1379.3 207.037 1375.76 Q205.232 1372.19 201.598 1372.19 M201.598 1368.49 Q207.408 1368.49 210.463 1373.1 Q213.542 1377.68 213.542 1386.43 Q213.542 1395.16 210.463 1399.76 Q207.408 1404.35 201.598 1404.35 Q195.787 1404.35 192.709 1399.76 Q189.653 1395.16 189.653 1386.43 Q189.653 1377.68 192.709 1373.1 Q195.787 1368.49 201.598 1368.49 Z" fill="#000000" fill-rule="nonzero" fill-opacity="1"></path><path clip-path="url(#clip530)" d="M127.2 1065.66 Q123.589 1065.66 121.76 1069.22 Q119.955 1072.77 119.955 1079.9 Q119.955 1087 121.76 1090.57 Q123.589 1094.11 127.2 1094.11 Q130.834 1094.11 132.64 1090.57 Q134.468 1087 134.468 1079.9 Q134.468 1072.77 132.64 1069.22 Q130.834 1065.66 127.2 1065.66 M127.2 1061.96 Q133.01 1061.96 136.066 1066.56 Q139.144 1071.15 139.144 1079.9 Q139.144 1088.62 136.066 1093.23 Q133.01 1097.81 127.2 1097.81 Q121.39 1097.81 118.311 1093.23 Q115.256 1088.62 115.256 1079.9 Q115.256 1071.15 118.311 1066.56 Q121.39 1061.96 127.2 1061.96 Z" fill="#000000" fill-rule="nonzero" fill-opacity="1"></path><path clip-path="url(#clip530)" d="M147.362 1091.26 L152.246 1091.26 L152.246 1097.14 L147.362 1097.14 L147.362 1091.26 Z" fill="#000000" fill-rule="nonzero" fill-opacity="1"></path><path clip-path="url(#clip530)" d="M166.459 1093.21 L182.778 1093.21 L182.778 1097.14 L160.834 1097.14 L160.834 1093.21 Q163.496 1090.45 168.079 1085.82 Q172.686 1081.17 173.866 1079.83 Q176.112 1077.3 176.991 1075.57 Q177.894 1073.81 177.894 1072.12 Q177.894 1069.36 175.95 1067.63 Q174.028 1065.89 170.927 1065.89 Q168.727 1065.89 166.274 1066.65 Q163.843 1067.42 161.065 1068.97 L161.065 1064.25 Q163.89 1063.11 166.343 1062.53 Q168.797 1061.96 170.834 1061.96 Q176.204 1061.96 179.399 1064.64 Q182.593 1067.33 182.593 1071.82 Q182.593 1073.95 181.783 1075.87 Q180.996 1077.77 178.889 1080.36 Q178.311 1081.03 175.209 1084.25 Q172.107 1087.44 166.459 1093.21 Z" fill="#000000" fill-rule="nonzero" fill-opacity="1"></path><path clip-path="url(#clip530)" d="M192.639 1062.58 L210.996 1062.58 L210.996 1066.52 L196.922 1066.52 L196.922 1074.99 Q197.94 1074.64 198.959 1074.48 Q199.977 1074.29 200.996 1074.29 Q206.783 1074.29 210.162 1077.47 Q213.542 1080.64 213.542 1086.05 Q213.542 1091.63 210.07 1094.73 Q206.598 1097.81 200.278 1097.81 Q198.102 1097.81 195.834 1097.44 Q193.588 1097.07 191.181 1096.33 L191.181 1091.63 Q193.264 1092.77 195.487 1093.32 Q197.709 1093.88 200.186 1093.88 Q204.19 1093.88 206.528 1091.77 Q208.866 1089.66 208.866 1086.05 Q208.866 1082.44 206.528 1080.34 Q204.19 1078.23 200.186 1078.23 Q198.311 1078.23 196.436 1078.65 Q194.584 1079.06 192.639 1079.94 L192.639 1062.58 Z" fill="#000000" fill-rule="nonzero" fill-opacity="1"></path><path clip-path="url(#clip530)" d="M126.205 759.125 Q122.593 759.125 120.765 762.689 Q118.959 766.231 118.959 773.361 Q118.959 780.467 120.765 784.032 Q122.593 787.574 126.205 787.574 Q129.839 787.574 131.644 784.032 Q133.473 780.467 133.473 773.361 Q133.473 766.231 131.644 762.689 Q129.839 759.125 126.205 759.125 M126.205 755.421 Q132.015 755.421 135.07 760.027 Q138.149 764.611 138.149 773.361 Q138.149 782.088 135.07 786.694 Q132.015 791.277 126.205 791.277 Q120.394 791.277 117.316 786.694 Q114.26 782.088 114.26 773.361 Q114.26 764.611 117.316 760.027 Q120.394 755.421 126.205 755.421 Z" fill="#000000" fill-rule="nonzero" fill-opacity="1"></path><path clip-path="url(#clip530)" d="M146.366 784.726 L151.251 784.726 L151.251 790.606 L146.366 790.606 L146.366 784.726 Z" fill="#000000" fill-rule="nonzero" fill-opacity="1"></path><path clip-path="url(#clip530)" d="M161.482 756.046 L179.839 756.046 L179.839 759.981 L165.765 759.981 L165.765 768.453 Q166.783 768.106 167.802 767.944 Q168.82 767.759 169.839 767.759 Q175.626 767.759 179.005 770.93 Q182.385 774.101 182.385 779.518 Q182.385 785.097 178.913 788.199 Q175.44 791.277 169.121 791.277 Q166.945 791.277 164.677 790.907 Q162.431 790.537 160.024 789.796 L160.024 785.097 Q162.107 786.231 164.329 786.787 Q166.552 787.342 169.028 787.342 Q173.033 787.342 175.371 785.236 Q177.709 783.129 177.709 779.518 Q177.709 775.907 175.371 773.801 Q173.033 771.694 169.028 771.694 Q167.153 771.694 165.278 772.111 Q163.427 772.527 161.482 773.407 L161.482 756.046 Z" fill="#000000" fill-rule="nonzero" fill-opacity="1"></path><path clip-path="url(#clip530)" d="M201.598 759.125 Q197.987 759.125 196.158 762.689 Q194.352 766.231 194.352 773.361 Q194.352 780.467 196.158 784.032 Q197.987 787.574 201.598 787.574 Q205.232 787.574 207.037 784.032 Q208.866 780.467 208.866 773.361 Q208.866 766.231 207.037 762.689 Q205.232 759.125 201.598 759.125 M201.598 755.421 Q207.408 755.421 210.463 760.027 Q213.542 764.611 213.542 773.361 Q213.542 782.088 210.463 786.694 Q207.408 791.277 201.598 791.277 Q195.787 791.277 192.709 786.694 Q189.653 782.088 189.653 773.361 Q189.653 764.611 192.709 760.027 Q195.787 755.421 201.598 755.421 Z" fill="#000000" fill-rule="nonzero" fill-opacity="1"></path><path clip-path="url(#clip530)" d="M127.2 452.59 Q123.589 452.59 121.76 456.155 Q119.955 459.696 119.955 466.826 Q119.955 473.932 121.76 477.497 Q123.589 481.039 127.2 481.039 Q130.834 481.039 132.64 477.497 Q134.468 473.932 134.468 466.826 Q134.468 459.696 132.64 456.155 Q130.834 452.59 127.2 452.59 M127.2 448.886 Q133.01 448.886 136.066 453.493 Q139.144 458.076 139.144 466.826 Q139.144 475.553 136.066 480.159 Q133.01 484.742 127.2 484.742 Q121.39 484.742 118.311 480.159 Q115.256 475.553 115.256 466.826 Q115.256 458.076 118.311 453.493 Q121.39 448.886 127.2 448.886 Z" fill="#000000" fill-rule="nonzero" fill-opacity="1"></path><path clip-path="url(#clip530)" d="M147.362 478.192 L152.246 478.192 L152.246 484.071 L147.362 484.071 L147.362 478.192 Z" fill="#000000" fill-rule="nonzero" fill-opacity="1"></path><path clip-path="url(#clip530)" d="M161.251 449.511 L183.473 449.511 L183.473 451.502 L170.927 484.071 L166.042 484.071 L177.848 453.446 L161.251 453.446 L161.251 449.511 Z" fill="#000000" fill-rule="nonzero" fill-opacity="1"></path><path clip-path="url(#clip530)" d="M192.639 449.511 L210.996 449.511 L210.996 453.446 L196.922 453.446 L196.922 461.918 Q197.94 461.571 198.959 461.409 Q199.977 461.224 200.996 461.224 Q206.783 461.224 210.162 464.395 Q213.542 467.567 213.542 472.983 Q213.542 478.562 210.07 481.664 Q206.598 484.742 200.278 484.742 Q198.102 484.742 195.834 484.372 Q193.588 484.002 191.181 483.261 L191.181 478.562 Q193.264 479.696 195.487 480.252 Q197.709 480.807 200.186 480.807 Q204.19 480.807 206.528 478.701 Q208.866 476.594 208.866 472.983 Q208.866 469.372 206.528 467.266 Q204.19 465.159 200.186 465.159 Q198.311 465.159 196.436 465.576 Q194.584 465.993 192.639 466.872 L192.639 449.511 Z" fill="#000000" fill-rule="nonzero" fill-opacity="1"></path><path clip-path="url(#clip530)" d="M117.015 173.601 L124.654 173.601 L124.654 147.236 L116.343 148.902 L116.343 144.643 L124.607 142.976 L129.283 142.976 L129.283 173.601 L136.922 173.601 L136.922 177.536 L117.015 177.536 L117.015 173.601 Z" fill="#000000" fill-rule="nonzero" fill-opacity="1"></path><path clip-path="url(#clip530)" d="M146.366 171.657 L151.251 171.657 L151.251 177.536 L146.366 177.536 L146.366 171.657 Z" fill="#000000" fill-rule="nonzero" fill-opacity="1"></path><path clip-path="url(#clip530)" d="M171.436 146.055 Q167.825 146.055 165.996 149.62 Q164.19 153.161 164.19 160.291 Q164.19 167.397 165.996 170.962 Q167.825 174.504 171.436 174.504 Q175.07 174.504 176.876 170.962 Q178.704 167.397 178.704 160.291 Q178.704 153.161 176.876 149.62 Q175.07 146.055 171.436 146.055 M171.436 142.351 Q177.246 142.351 180.301 146.958 Q183.38 151.541 183.38 160.291 Q183.38 169.018 180.301 173.624 Q177.246 178.208 171.436 178.208 Q165.626 178.208 162.547 173.624 Q159.491 169.018 159.491 160.291 Q159.491 151.541 162.547 146.958 Q165.626 142.351 171.436 142.351 Z" fill="#000000" fill-rule="nonzero" fill-opacity="1"></path><path clip-path="url(#clip530)" d="M201.598 146.055 Q197.987 146.055 196.158 149.62 Q194.352 153.161 194.352 160.291 Q194.352 167.397 196.158 170.962 Q197.987 174.504 201.598 174.504 Q205.232 174.504 207.037 170.962 Q208.866 167.397 208.866 160.291 Q208.866 153.161 207.037 149.62 Q205.232 146.055 201.598 146.055 M201.598 142.351 Q207.408 142.351 210.463 146.958 Q213.542 151.541 213.542 160.291 Q213.542 169.018 210.463 173.624 Q207.408 178.208 201.598 178.208 Q195.787 178.208 192.709 173.624 Q189.653 169.018 189.653 160.291 Q189.653 151.541 192.709 146.958 Q195.787 142.351 201.598 142.351 Z" fill="#000000" fill-rule="nonzero" fill-opacity="1"></path><path clip-path="url(#clip530)" d="M21.7677 1133.86 L39.6235 1133.86 L39.6235 1125.78 Q39.6235 1121.29 37.3 1118.84 Q34.9765 1116.39 30.6797 1116.39 Q26.4147 1116.39 24.0912 1118.84 Q21.7677 1121.29 21.7677 1125.78 L21.7677 1133.86 M16.4842 1140.29 L16.4842 1125.78 Q16.4842 1117.79 20.1126 1113.72 Q23.7092 1109.61 30.6797 1109.61 Q37.7138 1109.61 41.3104 1113.72 Q44.907 1117.79 44.907 1125.78 L44.907 1133.86 L64.0042 1133.86 L64.0042 1140.29 L16.4842 1140.29 Z" fill="#000000" fill-rule="nonzero" fill-opacity="1"></path><path clip-path="url(#clip530)" d="M33.8307 1081.73 Q33.2578 1082.72 33.0032 1083.89 Q32.7167 1085.04 32.7167 1086.44 Q32.7167 1091.4 35.9632 1094.08 Q39.1779 1096.72 45.2253 1096.72 L64.0042 1096.72 L64.0042 1102.61 L28.3562 1102.61 L28.3562 1096.72 L33.8944 1096.72 Q30.6479 1094.87 29.0883 1091.91 Q27.4968 1088.95 27.4968 1084.72 Q27.4968 1084.12 27.5923 1083.38 Q27.656 1082.65 27.8151 1081.76 L33.8307 1081.73 Z" fill="#000000" fill-rule="nonzero" fill-opacity="1"></path><path clip-path="url(#clip530)" d="M32.4621 1063.2 Q32.4621 1067.91 36.1542 1070.65 Q39.8145 1073.39 46.212 1073.39 Q52.6095 1073.39 56.3017 1070.68 Q59.9619 1067.95 59.9619 1063.2 Q59.9619 1058.53 56.2698 1055.79 Q52.5777 1053.05 46.212 1053.05 Q39.8781 1053.05 36.186 1055.79 Q32.4621 1058.53 32.4621 1063.2 M27.4968 1063.2 Q27.4968 1055.57 32.4621 1051.2 Q37.4273 1046.84 46.212 1046.84 Q54.9649 1046.84 59.9619 1051.2 Q64.9272 1055.57 64.9272 1063.2 Q64.9272 1070.88 59.9619 1075.24 Q54.9649 1079.56 46.212 1079.56 Q37.4273 1079.56 32.4621 1075.24 Q27.4968 1070.88 27.4968 1063.2 Z" fill="#000000" fill-rule="nonzero" fill-opacity="1"></path><path clip-path="url(#clip530)" d="M46.212 1011.55 Q39.7508 1011.55 36.0905 1014.22 Q32.3984 1016.86 32.3984 1021.51 Q32.3984 1026.16 36.0905 1028.83 Q39.7508 1031.47 46.212 1031.47 Q52.6732 1031.47 56.3653 1028.83 Q60.0256 1026.16 60.0256 1021.51 Q60.0256 1016.86 56.3653 1014.22 Q52.6732 1011.55 46.212 1011.55 M33.7671 1031.47 Q30.5842 1029.63 29.0564 1026.82 Q27.4968 1023.99 27.4968 1020.08 Q27.4968 1013.58 32.6531 1009.54 Q37.8093 1005.47 46.212 1005.47 Q54.6147 1005.47 59.771 1009.54 Q64.9272 1013.58 64.9272 1020.08 Q64.9272 1023.99 63.3994 1026.82 Q61.8398 1029.63 58.657 1031.47 L64.0042 1031.47 L64.0042 1037.36 L14.479 1037.36 L14.479 1031.47 L33.7671 1031.47 Z" fill="#000000" fill-rule="nonzero" fill-opacity="1"></path><path clip-path="url(#clip530)" d="M46.0847 979.559 Q46.0847 986.657 47.7079 989.394 Q49.3312 992.131 53.2461 992.131 Q56.3653 992.131 58.2114 990.094 Q60.0256 988.025 60.0256 984.492 Q60.0256 979.623 56.5881 976.694 Q53.1188 973.734 47.3897 973.734 L46.0847 973.734 L46.0847 979.559 M43.6657 967.878 L64.0042 967.878 L64.0042 973.734 L58.5933 973.734 Q61.8398 975.74 63.3994 978.731 Q64.9272 981.723 64.9272 986.052 Q64.9272 991.526 61.8716 994.773 Q58.7843 997.988 53.6281 997.988 Q47.6125 997.988 44.5569 993.977 Q41.5014 989.935 41.5014 981.946 L41.5014 973.734 L40.9285 973.734 Q36.8862 973.734 34.6901 976.408 Q32.4621 979.05 32.4621 983.856 Q32.4621 986.911 33.1941 989.808 Q33.9262 992.704 35.3903 995.378 L29.9795 995.378 Q28.7381 992.163 28.1334 989.139 Q27.4968 986.116 27.4968 983.251 Q27.4968 975.517 31.5072 971.697 Q35.5176 967.878 43.6657 967.878 Z" fill="#000000" fill-rule="nonzero" fill-opacity="1"></path><path clip-path="url(#clip530)" d="M46.212 930.225 Q39.7508 930.225 36.0905 932.898 Q32.3984 935.54 32.3984 940.187 Q32.3984 944.834 36.0905 947.508 Q39.7508 950.149 46.212 950.149 Q52.6732 950.149 56.3653 947.508 Q60.0256 944.834 60.0256 940.187 Q60.0256 935.54 56.3653 932.898 Q52.6732 930.225 46.212 930.225 M33.7671 950.149 Q30.5842 948.303 29.0564 945.502 Q27.4968 942.67 27.4968 938.755 Q27.4968 932.262 32.6531 928.22 Q37.8093 924.145 46.212 924.145 Q54.6147 924.145 59.771 928.22 Q64.9272 932.262 64.9272 938.755 Q64.9272 942.67 63.3994 945.502 Q61.8398 948.303 58.657 950.149 L64.0042 950.149 L64.0042 956.038 L14.479 956.038 L14.479 950.149 L33.7671 950.149 Z" fill="#000000" fill-rule="nonzero" fill-opacity="1"></path><path clip-path="url(#clip530)" d="M28.3562 914.438 L28.3562 908.581 L64.0042 908.581 L64.0042 914.438 L28.3562 914.438 M14.479 914.438 L14.479 908.581 L21.895 908.581 L21.895 914.438 L14.479 914.438 Z" fill="#000000" fill-rule="nonzero" fill-opacity="1"></path><path clip-path="url(#clip530)" d="M14.479 896.327 L14.479 890.471 L64.0042 890.471 L64.0042 896.327 L14.479 896.327 Z" fill="#000000" fill-rule="nonzero" fill-opacity="1"></path><path clip-path="url(#clip530)" d="M28.3562 878.217 L28.3562 872.36 L64.0042 872.36 L64.0042 878.217 L28.3562 878.217 M14.479 878.217 L14.479 872.36 L21.895 872.36 L21.895 878.217 L14.479 878.217 Z" fill="#000000" fill-rule="nonzero" fill-opacity="1"></path><path clip-path="url(#clip530)" d="M18.2347 854.314 L28.3562 854.314 L28.3562 842.251 L32.9077 842.251 L32.9077 854.314 L52.2594 854.314 Q56.6199 854.314 57.8613 853.136 Q59.1026 851.927 59.1026 848.266 L59.1026 842.251 L64.0042 842.251 L64.0042 848.266 Q64.0042 855.046 61.4897 857.624 Q58.9434 860.202 52.2594 860.202 L32.9077 860.202 L32.9077 864.499 L28.3562 864.499 L28.3562 860.202 L18.2347 860.202 L18.2347 854.314 Z" fill="#000000" fill-rule="nonzero" fill-opacity="1"></path><path clip-path="url(#clip530)" d="M67.3143 819.716 Q73.68 822.199 75.6216 824.554 Q77.5631 826.909 77.5631 830.856 L77.5631 835.535 L72.6615 835.535 L72.6615 832.097 Q72.6615 829.678 71.5157 828.342 Q70.3699 827.005 66.1048 825.382 L63.4312 824.331 L28.3562 838.75 L28.3562 832.543 L56.238 821.403 L28.3562 810.263 L28.3562 804.056 L67.3143 819.716 Z" fill="#000000" fill-rule="nonzero" fill-opacity="1"></path><path clip-path="url(#clip530)" d="M32.4621 761.438 Q32.4621 766.149 36.1542 768.886 Q39.8145 771.623 46.212 771.623 Q52.6095 771.623 56.3017 768.918 Q59.9619 766.18 59.9619 761.438 Q59.9619 756.759 56.2698 754.022 Q52.5777 751.285 46.212 751.285 Q39.8781 751.285 36.186 754.022 Q32.4621 756.759 32.4621 761.438 M27.4968 761.438 Q27.4968 753.799 32.4621 749.439 Q37.4273 745.078 46.212 745.078 Q54.9649 745.078 59.9619 749.439 Q64.9272 753.799 64.9272 761.438 Q64.9272 769.109 59.9619 773.469 Q54.9649 777.798 46.212 777.798 Q37.4273 777.798 32.4621 773.469 Q27.4968 769.109 27.4968 761.438 Z" fill="#000000" fill-rule="nonzero" fill-opacity="1"></path><path clip-path="url(#clip530)" d="M14.479 717.324 L19.3487 717.324 L19.3487 722.926 Q19.3487 726.077 20.6219 727.318 Q21.895 728.527 25.2052 728.527 L28.3562 728.527 L28.3562 718.883 L32.9077 718.883 L32.9077 728.527 L64.0042 728.527 L64.0042 734.416 L32.9077 734.416 L32.9077 740.017 L28.3562 740.017 L28.3562 734.416 L25.8736 734.416 Q19.9216 734.416 17.2162 731.647 Q14.479 728.877 14.479 722.862 L14.479 717.324 Z" fill="#000000" fill-rule="nonzero" fill-opacity="1"></path><path clip-path="url(#clip530)" d="M21.7677 685.018 L39.6235 685.018 L39.6235 676.933 Q39.6235 672.445 37.3 669.995 Q34.9765 667.544 30.6797 667.544 Q26.4147 667.544 24.0912 669.995 Q21.7677 672.445 21.7677 676.933 L21.7677 685.018 M16.4842 691.447 L16.4842 676.933 Q16.4842 668.944 20.1126 664.87 Q23.7092 660.764 30.6797 660.764 Q37.7138 660.764 41.3104 664.87 Q44.907 668.944 44.907 676.933 L44.907 685.018 L64.0042 685.018 L64.0042 691.447 L16.4842 691.447 Z" fill="#000000" fill-rule="nonzero" fill-opacity="1"></path><path clip-path="url(#clip530)" d="M33.8307 632.883 Q33.2578 633.869 33.0032 635.047 Q32.7167 636.193 32.7167 637.593 Q32.7167 642.558 35.9632 645.232 Q39.1779 647.874 45.2253 647.874 L64.0042 647.874 L64.0042 653.762 L28.3562 653.762 L28.3562 647.874 L33.8944 647.874 Q30.6479 646.028 29.0883 643.068 Q27.4968 640.108 27.4968 635.874 Q27.4968 635.27 27.5923 634.538 Q27.656 633.806 27.8151 632.914 L33.8307 632.883 Z" fill="#000000" fill-rule="nonzero" fill-opacity="1"></path><path clip-path="url(#clip530)" d="M44.7161 597.68 L47.5806 597.68 L47.5806 624.607 Q53.6281 624.225 56.8109 620.979 Q59.9619 617.7 59.9619 611.876 Q59.9619 608.502 59.1344 605.351 Q58.3069 602.168 56.6518 599.049 L62.1899 599.049 Q63.5267 602.2 64.227 605.51 Q64.9272 608.82 64.9272 612.226 Q64.9272 620.756 59.9619 625.753 Q54.9967 630.718 46.5303 630.718 Q37.7774 630.718 32.6531 626.008 Q27.4968 621.265 27.4968 613.244 Q27.4968 606.051 32.1438 601.882 Q36.7589 597.68 44.7161 597.68 M42.9973 603.537 Q38.1912 603.6 35.3266 606.242 Q32.4621 608.852 32.4621 613.181 Q32.4621 618.082 35.2312 621.042 Q38.0002 623.971 43.0292 624.416 L42.9973 603.537 Z" fill="#000000" fill-rule="nonzero" fill-opacity="1"></path><path clip-path="url(#clip530)" d="M29.4065 565.342 L34.9447 565.342 Q33.6716 567.825 33.035 570.499 Q32.3984 573.172 32.3984 576.037 Q32.3984 580.397 33.7352 582.593 Q35.072 584.758 37.7456 584.758 Q39.7826 584.758 40.9603 583.198 Q42.1061 581.639 43.1565 576.928 L43.6021 574.923 Q44.9389 568.684 47.3897 566.074 Q49.8086 563.433 54.1691 563.433 Q59.1344 563.433 62.0308 567.379 Q64.9272 571.294 64.9272 578.169 Q64.9272 581.034 64.3543 584.153 Q63.8132 587.24 62.6992 590.678 L56.6518 590.678 Q58.3387 587.431 59.198 584.28 Q60.0256 581.129 60.0256 578.042 Q60.0256 573.904 58.6251 571.676 Q57.1929 569.448 54.6147 569.448 Q52.2276 569.448 50.9545 571.072 Q49.6813 572.663 48.5037 578.106 L48.0262 580.143 Q46.8804 585.585 44.5251 588.004 Q42.138 590.423 38.0002 590.423 Q32.9713 590.423 30.2341 586.859 Q27.4968 583.294 27.4968 576.737 Q27.4968 573.491 27.9743 570.626 Q28.4517 567.761 29.4065 565.342 Z" fill="#000000" fill-rule="nonzero" fill-opacity="1"></path><path clip-path="url(#clip530)" d="M44.7161 523.615 L47.5806 523.615 L47.5806 550.542 Q53.6281 550.16 56.8109 546.914 Q59.9619 543.635 59.9619 537.811 Q59.9619 534.437 59.1344 531.286 Q58.3069 528.103 56.6518 524.984 L62.1899 524.984 Q63.5267 528.135 64.227 531.445 Q64.9272 534.755 64.9272 538.161 Q64.9272 546.691 59.9619 551.688 Q54.9967 556.653 46.5303 556.653 Q37.7774 556.653 32.6531 551.943 Q27.4968 547.2 27.4968 539.179 Q27.4968 531.986 32.1438 527.817 Q36.7589 523.615 44.7161 523.615 M42.9973 529.472 Q38.1912 529.535 35.3266 532.177 Q32.4621 534.787 32.4621 539.116 Q32.4621 544.017 35.2312 546.977 Q38.0002 549.906 43.0292 550.351 L42.9973 529.472 Z" fill="#000000" fill-rule="nonzero" fill-opacity="1"></path><path clip-path="url(#clip530)" d="M42.4881 484.371 L64.0042 484.371 L64.0042 490.227 L42.679 490.227 Q37.6183 490.227 35.1038 492.2 Q32.5894 494.174 32.5894 498.121 Q32.5894 502.863 35.6131 505.6 Q38.6368 508.338 43.8567 508.338 L64.0042 508.338 L64.0042 514.226 L28.3562 514.226 L28.3562 508.338 L33.8944 508.338 Q30.6797 506.237 29.0883 503.404 Q27.4968 500.54 27.4968 496.816 Q27.4968 490.673 31.3163 487.522 Q35.1038 484.371 42.4881 484.371 Z" fill="#000000" fill-rule="nonzero" fill-opacity="1"></path><path clip-path="url(#clip530)" d="M29.7248 447.036 L35.1993 447.036 Q33.8307 449.518 33.1623 452.033 Q32.4621 454.515 32.4621 457.062 Q32.4621 462.759 36.0905 465.91 Q39.6872 469.061 46.212 469.061 Q52.7369 469.061 56.3653 465.91 Q59.9619 462.759 59.9619 457.062 Q59.9619 454.515 59.2935 452.033 Q58.5933 449.518 57.2247 447.036 L62.6355 447.036 Q63.7814 449.487 64.3543 452.128 Q64.9272 454.738 64.9272 457.698 Q64.9272 465.751 59.8664 470.493 Q54.8057 475.236 46.212 475.236 Q37.491 475.236 32.4939 470.462 Q27.4968 465.655 27.4968 457.316 Q27.4968 454.611 28.0697 452.033 Q28.6108 449.455 29.7248 447.036 Z" fill="#000000" fill-rule="nonzero" fill-opacity="1"></path><path clip-path="url(#clip530)" d="M44.7161 406.359 L47.5806 406.359 L47.5806 433.286 Q53.6281 432.904 56.8109 429.657 Q59.9619 426.379 59.9619 420.554 Q59.9619 417.181 59.1344 414.03 Q58.3069 410.847 56.6518 407.728 L62.1899 407.728 Q63.5267 410.879 64.227 414.189 Q64.9272 417.499 64.9272 420.905 Q64.9272 429.435 59.9619 434.432 Q54.9967 439.397 46.5303 439.397 Q37.7774 439.397 32.6531 434.686 Q27.4968 429.944 27.4968 421.923 Q27.4968 414.73 32.1438 410.56 Q36.7589 406.359 44.7161 406.359 M42.9973 412.215 Q38.1912 412.279 35.3266 414.921 Q32.4621 417.531 32.4621 421.859 Q32.4621 426.761 35.2312 429.721 Q38.0002 432.649 43.0292 433.095 L42.9973 412.215 Z" fill="#000000" fill-rule="nonzero" fill-opacity="1"></path><path clip-path="url(#clip530)" d="M543.812 12.096 L552.076 12.096 L564.796 63.2184 L577.475 12.096 L586.671 12.096 L599.391 63.2184 L612.07 12.096 L620.374 12.096 L605.183 72.576 L594.894 72.576 L582.134 20.0763 L569.252 72.576 L558.963 72.576 L543.812 12.096 Z" fill="#000000" fill-rule="nonzero" fill-opacity="1"></path><path clip-path="url(#clip530)" d="M643.626 32.4315 Q637.631 32.4315 634.147 37.1306 Q630.664 41.7891 630.664 49.9314 Q630.664 58.0738 634.107 62.7728 Q637.591 67.4314 643.626 67.4314 Q649.581 67.4314 653.065 62.7323 Q656.549 58.0333 656.549 49.9314 Q656.549 41.8701 653.065 37.1711 Q649.581 32.4315 643.626 32.4315 M643.626 26.1121 Q653.349 26.1121 658.898 32.4315 Q664.448 38.7509 664.448 49.9314 Q664.448 61.0714 658.898 67.4314 Q653.349 73.7508 643.626 73.7508 Q633.864 73.7508 628.314 67.4314 Q622.805 61.0714 622.805 49.9314 Q622.805 38.7509 628.314 32.4315 Q633.864 26.1121 643.626 26.1121 Z" fill="#000000" fill-rule="nonzero" fill-opacity="1"></path><path clip-path="url(#clip530)" d="M676.803 9.54393 L684.257 9.54393 L684.257 72.576 L676.803 72.576 L676.803 9.54393 Z" fill="#000000" fill-rule="nonzero" fill-opacity="1"></path><path clip-path="url(#clip530)" d="M722.822 9.54393 L722.822 15.7418 L715.692 15.7418 Q711.682 15.7418 710.102 17.3622 Q708.562 18.9825 708.562 23.1955 L708.562 27.2059 L720.837 27.2059 L720.837 32.9987 L708.562 32.9987 L708.562 72.576 L701.068 72.576 L701.068 32.9987 L693.939 32.9987 L693.939 27.2059 L701.068 27.2059 L701.068 24.0462 Q701.068 16.471 704.593 13.0277 Q708.117 9.54393 715.773 9.54393 L722.822 9.54393 Z" fill="#000000" fill-rule="nonzero" fill-opacity="1"></path><path clip-path="url(#clip530)" d="M792.011 14.0809 L792.011 22.0612 Q787.353 19.8332 783.221 18.7395 Q779.089 17.6457 775.24 17.6457 Q768.556 17.6457 764.911 20.2383 Q761.305 22.8309 761.305 27.611 Q761.305 31.6214 763.695 33.6873 Q766.126 35.7128 772.85 36.9686 L777.792 37.9813 Q786.947 39.7232 791.282 44.1387 Q795.657 48.5136 795.657 55.8863 Q795.657 64.6767 789.743 69.2137 Q783.869 73.7508 772.486 73.7508 Q768.192 73.7508 763.331 72.7785 Q758.51 71.8063 753.325 69.9024 L753.325 61.4765 Q758.308 64.2716 763.088 65.6895 Q767.868 67.1073 772.486 67.1073 Q779.494 67.1073 783.302 64.3527 Q787.109 61.598 787.109 56.4939 Q787.109 52.0379 784.355 49.5264 Q781.641 47.0148 775.402 45.759 L770.42 44.7868 Q761.265 42.9639 757.173 39.075 Q753.082 35.1862 753.082 28.2591 Q753.082 20.2383 758.713 15.6203 Q764.384 11.0023 774.309 11.0023 Q778.562 11.0023 782.978 11.7719 Q787.393 12.5416 792.011 14.0809 Z" fill="#000000" fill-rule="nonzero" fill-opacity="1"></path><path clip-path="url(#clip530)" d="M815.304 65.7705 L815.304 89.8329 L807.81 89.8329 L807.81 27.2059 L815.304 27.2059 L815.304 34.0924 Q817.653 30.0415 821.218 28.0971 Q824.823 26.1121 829.806 26.1121 Q838.07 26.1121 843.215 32.6746 Q848.4 39.2371 848.4 49.9314 Q848.4 60.6258 843.215 67.1883 Q838.07 73.7508 829.806 73.7508 Q824.823 73.7508 821.218 71.8063 Q817.653 69.8214 815.304 65.7705 M840.662 49.9314 Q840.662 41.7081 837.26 37.0496 Q833.897 32.3505 827.983 32.3505 Q822.069 32.3505 818.666 37.0496 Q815.304 41.7081 815.304 49.9314 Q815.304 58.1548 818.666 62.8538 Q822.069 67.5124 827.983 67.5124 Q833.897 67.5124 837.26 62.8538 Q840.662 58.1548 840.662 49.9314 Z" fill="#000000" fill-rule="nonzero" fill-opacity="1"></path><path clip-path="url(#clip530)" d="M860.755 27.2059 L868.209 27.2059 L868.209 72.576 L860.755 72.576 L860.755 27.2059 M860.755 9.54393 L868.209 9.54393 L868.209 18.9825 L860.755 18.9825 L860.755 9.54393 Z" fill="#000000" fill-rule="nonzero" fill-opacity="1"></path><path clip-path="url(#clip530)" d="M913.66 34.0924 L913.66 9.54393 L921.113 9.54393 L921.113 72.576 L913.66 72.576 L913.66 65.7705 Q911.31 69.8214 907.705 71.8063 Q904.14 73.7508 899.117 73.7508 Q890.894 73.7508 885.708 67.1883 Q880.564 60.6258 880.564 49.9314 Q880.564 39.2371 885.708 32.6746 Q890.894 26.1121 899.117 26.1121 Q904.14 26.1121 907.705 28.0971 Q911.31 30.0415 913.66 34.0924 M888.261 49.9314 Q888.261 58.1548 891.623 62.8538 Q895.026 67.5124 900.94 67.5124 Q906.854 67.5124 910.257 62.8538 Q913.66 58.1548 913.66 49.9314 Q913.66 41.7081 910.257 37.0496 Q906.854 32.3505 900.94 32.3505 Q895.026 32.3505 891.623 37.0496 Q888.261 41.7081 888.261 49.9314 Z" fill="#000000" fill-rule="nonzero" fill-opacity="1"></path><path clip-path="url(#clip530)" d="M975.274 48.0275 L975.274 51.6733 L941.003 51.6733 Q941.489 59.3701 945.621 63.421 Q949.794 67.4314 957.207 67.4314 Q961.501 67.4314 965.511 66.3781 Q969.562 65.3249 973.532 63.2184 L973.532 70.267 Q969.522 71.9684 965.309 72.8596 Q961.096 73.7508 956.761 73.7508 Q945.905 73.7508 939.545 67.4314 Q933.226 61.1119 933.226 50.3365 Q933.226 39.1965 939.221 32.6746 Q945.257 26.1121 955.465 26.1121 Q964.62 26.1121 969.927 32.0264 Q975.274 37.9003 975.274 48.0275 M967.82 45.84 Q967.739 39.7232 964.377 36.0774 Q961.055 32.4315 955.546 32.4315 Q949.308 32.4315 945.54 35.9558 Q941.814 39.4801 941.246 45.8805 L967.82 45.84 Z" fill="#000000" fill-rule="nonzero" fill-opacity="1"></path><path clip-path="url(#clip530)" d="M1013.8 34.1734 Q1012.54 33.4443 1011.04 33.1202 Q1009.59 32.7556 1007.8 32.7556 Q1001.48 32.7556 998.081 36.8875 Q994.718 40.9789 994.718 48.6757 L994.718 72.576 L987.224 72.576 L987.224 27.2059 L994.718 27.2059 L994.718 34.2544 Q997.068 30.1225 1000.84 28.1376 Q1004.6 26.1121 1009.99 26.1121 Q1010.76 26.1121 1011.69 26.2337 Q1012.62 26.3147 1013.76 26.5172 L1013.8 34.1734 Z" fill="#000000" fill-rule="nonzero" fill-opacity="1"></path><path clip-path="url(#clip530)" d="M1056.49 18.8205 L1056.49 41.5461 L1066.78 41.5461 Q1072.5 41.5461 1075.61 38.5889 Q1078.73 35.6318 1078.73 30.163 Q1078.73 24.7348 1075.61 21.7777 Q1072.5 18.8205 1066.78 18.8205 L1056.49 18.8205 M1048.31 12.096 L1066.78 12.096 Q1076.95 12.096 1082.14 16.714 Q1087.36 21.2916 1087.36 30.163 Q1087.36 39.1155 1082.14 43.6931 Q1076.95 48.2706 1066.78 48.2706 L1056.49 48.2706 L1056.49 72.576 L1048.31 72.576 L1048.31 12.096 Z" fill="#000000" fill-rule="nonzero" fill-opacity="1"></path><path clip-path="url(#clip530)" d="M1122.85 34.1734 Q1121.59 33.4443 1120.09 33.1202 Q1118.64 32.7556 1116.85 32.7556 Q1110.53 32.7556 1107.13 36.8875 Q1103.77 40.9789 1103.77 48.6757 L1103.77 72.576 L1096.27 72.576 L1096.27 27.2059 L1103.77 27.2059 L1103.77 34.2544 Q1106.12 30.1225 1109.89 28.1376 Q1113.65 26.1121 1119.04 26.1121 Q1119.81 26.1121 1120.74 26.2337 Q1121.67 26.3147 1122.81 26.5172 L1122.85 34.1734 Z" fill="#000000" fill-rule="nonzero" fill-opacity="1"></path><path clip-path="url(#clip530)" d="M1167.65 48.0275 L1167.65 51.6733 L1133.38 51.6733 Q1133.87 59.3701 1138 63.421 Q1142.17 67.4314 1149.58 67.4314 Q1153.88 67.4314 1157.89 66.3781 Q1161.94 65.3249 1165.91 63.2184 L1165.91 70.267 Q1161.9 71.9684 1157.69 72.8596 Q1153.47 73.7508 1149.14 73.7508 Q1138.28 73.7508 1131.92 67.4314 Q1125.6 61.1119 1125.6 50.3365 Q1125.6 39.1965 1131.6 32.6746 Q1137.63 26.1121 1147.84 26.1121 Q1157 26.1121 1162.3 32.0264 Q1167.65 37.9003 1167.65 48.0275 M1160.2 45.84 Q1160.12 39.7232 1156.75 36.0774 Q1153.43 32.4315 1147.92 32.4315 Q1141.69 32.4315 1137.92 35.9558 Q1134.19 39.4801 1133.62 45.8805 L1160.2 45.84 Z" fill="#000000" fill-rule="nonzero" fill-opacity="1"></path><path clip-path="url(#clip530)" d="M1208.81 28.5427 L1208.81 35.5912 Q1205.65 33.9709 1202.25 33.1607 Q1198.84 32.3505 1195.2 32.3505 Q1189.65 32.3505 1186.85 34.0519 Q1184.1 35.7533 1184.1 39.156 Q1184.1 41.7486 1186.08 43.2475 Q1188.07 44.7058 1194.06 46.0426 L1196.62 46.6097 Q1204.56 48.3111 1207.88 51.4303 Q1211.24 54.509 1211.24 60.0587 Q1211.24 66.3781 1206.22 70.0644 Q1201.23 73.7508 1192.48 73.7508 Q1188.84 73.7508 1184.87 73.0216 Q1180.94 72.3329 1176.56 70.9151 L1176.56 63.2184 Q1180.7 65.3654 1184.71 66.4591 Q1188.72 67.5124 1192.65 67.5124 Q1197.91 67.5124 1200.75 65.73 Q1203.58 63.9071 1203.58 60.6258 Q1203.58 57.5877 1201.52 55.9673 Q1199.49 54.3469 1192.56 52.8481 L1189.97 52.2405 Q1183.04 50.7821 1179.97 47.7845 Q1176.89 44.7463 1176.89 39.4801 Q1176.89 33.0797 1181.42 29.5959 Q1185.96 26.1121 1194.31 26.1121 Q1198.44 26.1121 1202.08 26.7198 Q1205.73 27.3274 1208.81 28.5427 Z" fill="#000000" fill-rule="nonzero" fill-opacity="1"></path><path clip-path="url(#clip530)" d="M1261.92 48.0275 L1261.92 51.6733 L1227.65 51.6733 Q1228.13 59.3701 1232.26 63.421 Q1236.44 67.4314 1243.85 67.4314 Q1248.14 67.4314 1252.15 66.3781 Q1256.2 65.3249 1260.17 63.2184 L1260.17 70.267 Q1256.16 71.9684 1251.95 72.8596 Q1247.74 73.7508 1243.4 73.7508 Q1232.55 73.7508 1226.19 67.4314 Q1219.87 61.1119 1219.87 50.3365 Q1219.87 39.1965 1225.86 32.6746 Q1231.9 26.1121 1242.11 26.1121 Q1251.26 26.1121 1256.57 32.0264 Q1261.92 37.9003 1261.92 48.0275 M1254.46 45.84 Q1254.38 39.7232 1251.02 36.0774 Q1247.7 32.4315 1242.19 32.4315 Q1235.95 32.4315 1232.18 35.9558 Q1228.46 39.4801 1227.89 45.8805 L1254.46 45.84 Z" fill="#000000" fill-rule="nonzero" fill-opacity="1"></path><path clip-path="url(#clip530)" d="M1311.86 45.1919 L1311.86 72.576 L1304.41 72.576 L1304.41 45.4349 Q1304.41 38.994 1301.9 35.7938 Q1299.39 32.5936 1294.36 32.5936 Q1288.33 32.5936 1284.84 36.4419 Q1281.36 40.2903 1281.36 46.9338 L1281.36 72.576 L1273.87 72.576 L1273.87 27.2059 L1281.36 27.2059 L1281.36 34.2544 Q1284.03 30.163 1287.64 28.1376 Q1291.29 26.1121 1296.02 26.1121 Q1303.84 26.1121 1307.85 30.9732 Q1311.86 35.7938 1311.86 45.1919 Z" fill="#000000" fill-rule="nonzero" fill-opacity="1"></path><path clip-path="url(#clip530)" d="M1334.1 14.324 L1334.1 27.2059 L1349.46 27.2059 L1349.46 32.9987 L1334.1 32.9987 L1334.1 57.6282 Q1334.1 63.1779 1335.6 64.7578 Q1337.14 66.3376 1341.8 66.3376 L1349.46 66.3376 L1349.46 72.576 L1341.8 72.576 Q1333.17 72.576 1329.89 69.3758 Q1326.61 66.1351 1326.61 57.6282 L1326.61 32.9987 L1321.14 32.9987 L1321.14 27.2059 L1326.61 27.2059 L1326.61 14.324 L1334.1 14.324 Z" fill="#000000" fill-rule="nonzero" fill-opacity="1"></path><path clip-path="url(#clip530)" d="M1403.54 9.62495 Q1398.11 18.942 1395.47 28.0566 Q1392.84 37.1711 1392.84 46.5287 Q1392.84 55.8863 1395.47 65.0818 Q1398.15 74.2369 1403.54 83.5134 L1397.05 83.5134 Q1390.98 73.9938 1387.94 64.7983 Q1384.94 55.6027 1384.94 46.5287 Q1384.94 37.4952 1387.94 28.3401 Q1390.94 19.1851 1397.05 9.62495 L1403.54 9.62495 Z" fill="#000000" fill-rule="nonzero" fill-opacity="1"></path><path clip-path="url(#clip530)" d="M1420.47 65.6895 L1433.84 65.6895 L1433.84 19.5497 L1419.29 22.4663 L1419.29 15.0127 L1433.76 12.096 L1441.94 12.096 L1441.94 65.6895 L1455.31 65.6895 L1455.31 72.576 L1420.47 72.576 L1420.47 65.6895 Z" fill="#000000" fill-rule="nonzero" fill-opacity="1"></path><path clip-path="url(#clip530)" d="M1469.61 9.62495 L1476.09 9.62495 Q1482.16 19.1851 1485.16 28.3401 Q1488.2 37.4952 1488.2 46.5287 Q1488.2 55.6027 1485.16 64.7983 Q1482.16 73.9938 1476.09 83.5134 L1469.61 83.5134 Q1474.99 74.2369 1477.63 65.0818 Q1480.3 55.8863 1480.3 46.5287 Q1480.3 37.1711 1477.63 28.0566 Q1474.99 18.942 1469.61 9.62495 Z" fill="#000000" fill-rule="nonzero" fill-opacity="1"></path><path clip-path="url(#clip530)" d="M1547.1 32.4315 Q1541.1 32.4315 1537.62 37.1306 Q1534.14 41.7891 1534.14 49.9314 Q1534.14 58.0738 1537.58 62.7728 Q1541.06 67.4314 1547.1 67.4314 Q1553.05 67.4314 1556.54 62.7323 Q1560.02 58.0333 1560.02 49.9314 Q1560.02 41.8701 1556.54 37.1711 Q1553.05 32.4315 1547.1 32.4315 M1547.1 26.1121 Q1556.82 26.1121 1562.37 32.4315 Q1567.92 38.7509 1567.92 49.9314 Q1567.92 61.0714 1562.37 67.4314 Q1556.82 73.7508 1547.1 73.7508 Q1537.34 73.7508 1531.79 67.4314 Q1526.28 61.0714 1526.28 49.9314 Q1526.28 38.7509 1531.79 32.4315 Q1537.34 26.1121 1547.1 26.1121 Z" fill="#000000" fill-rule="nonzero" fill-opacity="1"></path><path clip-path="url(#clip530)" d="M1606.57 34.1734 Q1605.31 33.4443 1603.81 33.1202 Q1602.35 32.7556 1600.57 32.7556 Q1594.25 32.7556 1590.85 36.8875 Q1587.49 40.9789 1587.49 48.6757 L1587.49 72.576 L1579.99 72.576 L1579.99 27.2059 L1587.49 27.2059 L1587.49 34.2544 Q1589.84 30.1225 1593.6 28.1376 Q1597.37 26.1121 1602.76 26.1121 Q1603.53 26.1121 1604.46 26.2337 Q1605.39 26.3147 1606.53 26.5172 L1606.57 34.1734 Z" fill="#000000" fill-rule="nonzero" fill-opacity="1"></path><path clip-path="url(#clip530)" d="M1661.29 20.1573 L1650.2 50.2555 L1672.43 50.2555 L1661.29 20.1573 M1656.68 12.096 L1665.95 12.096 L1689 72.576 L1680.5 72.576 L1674.99 57.061 L1647.72 57.061 L1642.21 72.576 L1633.59 72.576 L1656.68 12.096 Z" fill="#000000" fill-rule="nonzero" fill-opacity="1"></path><path clip-path="url(#clip530)" d="M1730.08 49.9314 Q1730.08 41.7081 1726.68 37.0496 Q1723.31 32.3505 1717.4 32.3505 Q1711.49 32.3505 1708.08 37.0496 Q1704.72 41.7081 1704.72 49.9314 Q1704.72 58.1548 1708.08 62.8538 Q1711.49 67.5124 1717.4 67.5124 Q1723.31 67.5124 1726.68 62.8538 Q1730.08 58.1548 1730.08 49.9314 M1704.72 34.0924 Q1707.07 30.0415 1710.63 28.0971 Q1714.24 26.1121 1719.22 26.1121 Q1727.49 26.1121 1732.63 32.6746 Q1737.82 39.2371 1737.82 49.9314 Q1737.82 60.6258 1732.63 67.1883 Q1727.49 73.7508 1719.22 73.7508 Q1714.24 73.7508 1710.63 71.8063 Q1707.07 69.8214 1704.72 65.7705 L1704.72 72.576 L1697.23 72.576 L1697.23 9.54393 L1704.72 9.54393 L1704.72 34.0924 Z" fill="#000000" fill-rule="nonzero" fill-opacity="1"></path><path clip-path="url(#clip530)" d="M1779.09 28.5427 L1779.09 35.5912 Q1775.94 33.9709 1772.53 33.1607 Q1769.13 32.3505 1765.48 32.3505 Q1759.93 32.3505 1757.14 34.0519 Q1754.38 35.7533 1754.38 39.156 Q1754.38 41.7486 1756.37 43.2475 Q1758.35 44.7058 1764.35 46.0426 L1766.9 46.6097 Q1774.84 48.3111 1778.16 51.4303 Q1781.53 54.509 1781.53 60.0587 Q1781.53 66.3781 1776.5 70.0644 Q1771.52 73.7508 1762.77 73.7508 Q1759.12 73.7508 1755.15 73.0216 Q1751.22 72.3329 1746.85 70.9151 L1746.85 63.2184 Q1750.98 65.3654 1754.99 66.4591 Q1759 67.5124 1762.93 67.5124 Q1768.2 67.5124 1771.03 65.73 Q1773.87 63.9071 1773.87 60.6258 Q1773.87 57.5877 1771.8 55.9673 Q1769.78 54.3469 1762.85 52.8481 L1760.26 52.2405 Q1753.33 50.7821 1750.25 47.7845 Q1747.17 44.7463 1747.17 39.4801 Q1747.17 33.0797 1751.71 29.5959 Q1756.25 26.1121 1764.59 26.1121 Q1768.72 26.1121 1772.37 26.7198 Q1776.02 27.3274 1779.09 28.5427 Z" fill="#000000" fill-rule="nonzero" fill-opacity="1"></path><path clip-path="url(#clip530)" d="M1832.2 48.0275 L1832.2 51.6733 L1797.93 51.6733 Q1798.42 59.3701 1802.55 63.421 Q1806.72 67.4314 1814.14 67.4314 Q1818.43 67.4314 1822.44 66.3781 Q1826.49 65.3249 1830.46 63.2184 L1830.46 70.267 Q1826.45 71.9684 1822.24 72.8596 Q1818.02 73.7508 1813.69 73.7508 Q1802.83 73.7508 1796.47 67.4314 Q1790.15 61.1119 1790.15 50.3365 Q1790.15 39.1965 1796.15 32.6746 Q1802.19 26.1121 1812.39 26.1121 Q1821.55 26.1121 1826.86 32.0264 Q1832.2 37.9003 1832.2 48.0275 M1824.75 45.84 Q1824.67 39.7232 1821.31 36.0774 Q1817.98 32.4315 1812.47 32.4315 Q1806.24 32.4315 1802.47 35.9558 Q1798.74 39.4801 1798.17 45.8805 L1824.75 45.84 Z" fill="#000000" fill-rule="nonzero" fill-opacity="1"></path><path clip-path="url(#clip530)" d="M1882.15 45.1919 L1882.15 72.576 L1874.7 72.576 L1874.7 45.4349 Q1874.7 38.994 1872.18 35.7938 Q1869.67 32.5936 1864.65 32.5936 Q1858.61 32.5936 1855.13 36.4419 Q1851.65 40.2903 1851.65 46.9338 L1851.65 72.576 L1844.15 72.576 L1844.15 27.2059 L1851.65 27.2059 L1851.65 34.2544 Q1854.32 30.163 1857.93 28.1376 Q1861.57 26.1121 1866.31 26.1121 Q1874.13 26.1121 1878.14 30.9732 Q1882.15 35.7938 1882.15 45.1919 Z" fill="#000000" fill-rule="nonzero" fill-opacity="1"></path><path clip-path="url(#clip530)" d="M1904.39 14.324 L1904.39 27.2059 L1919.74 27.2059 L1919.74 32.9987 L1904.39 32.9987 L1904.39 57.6282 Q1904.39 63.1779 1905.89 64.7578 Q1907.43 66.3376 1912.09 66.3376 L1919.74 66.3376 L1919.74 72.576 L1912.09 72.576 Q1903.46 72.576 1900.18 69.3758 Q1896.9 66.1351 1896.9 57.6282 L1896.9 32.9987 L1891.43 32.9987 L1891.43 27.2059 L1896.9 27.2059 L1896.9 14.324 L1904.39 14.324 Z" fill="#000000" fill-rule="nonzero" fill-opacity="1"></path><path clip-path="url(#clip530)" d="M1973.82 9.62495 Q1968.39 18.942 1965.76 28.0566 Q1963.13 37.1711 1963.13 46.5287 Q1963.13 55.8863 1965.76 65.0818 Q1968.43 74.2369 1973.82 83.5134 L1967.34 83.5134 Q1961.26 73.9938 1958.23 64.7983 Q1955.23 55.6027 1955.23 46.5287 Q1955.23 37.4952 1958.23 28.3401 Q1961.22 19.1851 1967.34 9.62495 L1973.82 9.62495 Z" fill="#000000" fill-rule="nonzero" fill-opacity="1"></path><path clip-path="url(#clip530)" d="M2006.84 17.4837 Q2000.52 17.4837 1997.32 23.7221 Q1994.16 29.92 1994.16 42.3968 Q1994.16 54.833 1997.32 61.0714 Q2000.52 67.2693 2006.84 67.2693 Q2013.2 67.2693 2016.36 61.0714 Q2019.56 54.833 2019.56 42.3968 Q2019.56 29.92 2016.36 23.7221 Q2013.2 17.4837 2006.84 17.4837 M2006.84 11.0023 Q2017 11.0023 2022.35 19.0636 Q2027.74 27.0843 2027.74 42.3968 Q2027.74 57.6687 2022.35 65.73 Q2017 73.7508 2006.84 73.7508 Q1996.67 73.7508 1991.28 65.73 Q1985.93 57.6687 1985.93 42.3968 Q1985.93 27.0843 1991.28 19.0636 Q1996.67 11.0023 2006.84 11.0023 Z" fill="#000000" fill-rule="nonzero" fill-opacity="1"></path><path clip-path="url(#clip530)" d="M2039.89 9.62495 L2046.37 9.62495 Q2052.45 19.1851 2055.45 28.3401 Q2058.49 37.4952 2058.49 46.5287 Q2058.49 55.6027 2055.45 64.7983 Q2052.45 73.9938 2046.37 83.5134 L2039.89 83.5134 Q2045.28 74.2369 2047.91 65.0818 Q2050.59 55.8863 2050.59 46.5287 Q2050.59 37.1711 2047.91 28.0566 Q2045.28 18.942 2039.89 9.62495 Z" fill="#000000" fill-rule="nonzero" fill-opacity="1"></path><circle clip-path="url(#clip532)" cx="701.138" cy="1386.4" r="18" fill="#ff0000" fill-rule="evenodd" fill-opacity="1" stroke="#000000" stroke-opacity="1" stroke-width="3.2"></circle>
<circle clip-path="url(#clip532)" cx="828.124" cy="160.256" r="18" fill="#ff0000" fill-rule="evenodd" fill-opacity="1" stroke="#000000" stroke-opacity="1" stroke-width="3.2"></circle>
<circle clip-path="url(#clip532)" cx="1797.98" cy="160.256" r="18" fill="#ff0000" fill-rule="evenodd" fill-opacity="1" stroke="#000000" stroke-opacity="1" stroke-width="3.2"></circle>
<circle clip-path="url(#clip532)" cx="859.871" cy="160.256" r="18" fill="#ff0000" fill-rule="evenodd" fill-opacity="1" stroke="#000000" stroke-opacity="1" stroke-width="3.2"></circle>
<circle clip-path="url(#clip532)" cx="783.679" cy="160.256" r="18" fill="#ff0000" fill-rule="evenodd" fill-opacity="1" stroke="#000000" stroke-opacity="1" stroke-width="3.2"></circle>
<circle clip-path="url(#clip532)" cx="697.963" cy="1386.4" r="18" fill="#ff0000" fill-rule="evenodd" fill-opacity="1" stroke="#000000" stroke-opacity="1" stroke-width="3.2"></circle>
<circle clip-path="url(#clip532)" cx="761.456" cy="160.256" r="18" fill="#ff0000" fill-rule="evenodd" fill-opacity="1" stroke="#000000" stroke-opacity="1" stroke-width="3.2"></circle>
<circle clip-path="url(#clip532)" cx="880.506" cy="160.256" r="18" fill="#ff0000" fill-rule="evenodd" fill-opacity="1" stroke="#000000" stroke-opacity="1" stroke-width="3.2"></circle>
<circle clip-path="url(#clip532)" cx="934.475" cy="160.256" r="18" fill="#ff0000" fill-rule="evenodd" fill-opacity="1" stroke="#000000" stroke-opacity="1" stroke-width="3.2"></circle>
<circle clip-path="url(#clip532)" cx="1117.02" cy="160.256" r="18" fill="#ff0000" fill-rule="evenodd" fill-opacity="1" stroke="#000000" stroke-opacity="1" stroke-width="3.2"></circle>
<circle clip-path="url(#clip532)" cx="1967.83" cy="160.256" r="18" fill="#ff0000" fill-rule="evenodd" fill-opacity="1" stroke="#000000" stroke-opacity="1" stroke-width="3.2"></circle>
<circle clip-path="url(#clip532)" cx="1321.78" cy="160.256" r="18" fill="#ff0000" fill-rule="evenodd" fill-opacity="1" stroke="#000000" stroke-opacity="1" stroke-width="3.2"></circle>
<circle clip-path="url(#clip532)" cx="1604.33" cy="160.256" r="18" fill="#ff0000" fill-rule="evenodd" fill-opacity="1" stroke="#000000" stroke-opacity="1" stroke-width="3.2"></circle>
<circle clip-path="url(#clip532)" cx="1953.54" cy="160.256" r="18" fill="#ff0000" fill-rule="evenodd" fill-opacity="1" stroke="#000000" stroke-opacity="1" stroke-width="3.2"></circle>
<circle clip-path="url(#clip532)" cx="1251.94" cy="160.256" r="18" fill="#ff0000" fill-rule="evenodd" fill-opacity="1" stroke="#000000" stroke-opacity="1" stroke-width="3.2"></circle>
<circle clip-path="url(#clip532)" cx="940.825" cy="1386.4" r="18" fill="#ff0000" fill-rule="evenodd" fill-opacity="1" stroke="#000000" stroke-opacity="1" stroke-width="3.2"></circle>
<circle clip-path="url(#clip532)" cx="885.268" cy="1386.4" r="18" fill="#ff0000" fill-rule="evenodd" fill-opacity="1" stroke="#000000" stroke-opacity="1" stroke-width="3.2"></circle>
<circle clip-path="url(#clip532)" cx="1199.56" cy="1386.4" r="18" fill="#ff0000" fill-rule="evenodd" fill-opacity="1" stroke="#000000" stroke-opacity="1" stroke-width="3.2"></circle>
<circle clip-path="url(#clip532)" cx="994.794" cy="1386.4" r="18" fill="#ff0000" fill-rule="evenodd" fill-opacity="1" stroke="#000000" stroke-opacity="1" stroke-width="3.2"></circle>
<circle clip-path="url(#clip532)" cx="958.285" cy="1386.4" r="18" fill="#ff0000" fill-rule="evenodd" fill-opacity="1" stroke="#000000" stroke-opacity="1" stroke-width="3.2"></circle>
<circle clip-path="url(#clip532)" cx="1212.26" cy="1386.4" r="18" fill="#ff0000" fill-rule="evenodd" fill-opacity="1" stroke="#000000" stroke-opacity="1" stroke-width="3.2"></circle>
<circle clip-path="url(#clip532)" cx="1059.87" cy="160.256" r="18" fill="#ff0000" fill-rule="evenodd" fill-opacity="1" stroke="#000000" stroke-opacity="1" stroke-width="3.2"></circle>
<circle clip-path="url(#clip532)" cx="1148.77" cy="160.256" r="18" fill="#ff0000" fill-rule="evenodd" fill-opacity="1" stroke="#000000" stroke-opacity="1" stroke-width="3.2"></circle>
<circle clip-path="url(#clip532)" cx="874.157" cy="1386.4" r="18" fill="#ff0000" fill-rule="evenodd" fill-opacity="1" stroke="#000000" stroke-opacity="1" stroke-width="3.2"></circle>
<circle clip-path="url(#clip532)" cx="977.333" cy="160.256" r="18" fill="#ff0000" fill-rule="evenodd" fill-opacity="1" stroke="#000000" stroke-opacity="1" stroke-width="3.2"></circle>
<circle clip-path="url(#clip532)" cx="1350.36" cy="160.256" r="18" fill="#ff0000" fill-rule="evenodd" fill-opacity="1" stroke="#000000" stroke-opacity="1" stroke-width="3.2"></circle>
<circle clip-path="url(#clip532)" cx="943.999" cy="160.256" r="18" fill="#ff0000" fill-rule="evenodd" fill-opacity="1" stroke="#000000" stroke-opacity="1" stroke-width="3.2"></circle>
<circle clip-path="url(#clip532)" cx="1663.06" cy="160.256" r="18" fill="#ff0000" fill-rule="evenodd" fill-opacity="1" stroke="#000000" stroke-opacity="1" stroke-width="3.2"></circle>
</svg>