<svg class="main-svg" xmlns="http://www.w3.org/2000/svg" xmlns:xlink="http://www.w3.org/1999/xlink" width="700" height="500" style="" viewBox="0 0 700 500"><rect x="0" y="0" width="700" height="500" style="fill: rgb(255, 255, 255); fill-opacity: 1;"/><defs id="defs-5225b6"><g class="clips"><clipPath id="clip5225b6xyplot" class="plotclip"><rect width="640.853291776028" height="405.09915427238263"/></clipPath><clipPath class="axesclip" id="clip5225b6x"><rect x="55.70182633420823" y="0" width="640.853291776028" height="500"/></clipPath><clipPath class="axesclip" id="clip5225b6y"><rect x="0" y="43.901040147759296" width="700" height="405.09915427238263"/></clipPath><clipPath class="axesclip" id="clip5225b6xy"><rect x="55.70182633420823" y="43.901040147759296" width="640.853291776028" height="405.09915427238263"/></clipPath></g><g class="gradients"/></defs><g class="bglayer"/><g class="layer-below"><g class="imagelayer"/><g class="shapelayer"/></g><g class="cartesianlayer"><g class="subplot xy"><g class="layer-subplot"><g class="shapelayer"/><g class="imagelayer"/></g><g class="gridlayer"><g class="x"><path class="xgrid crisp" transform="translate(182.14182633420822,0)" d="M0,43.901040147759296v405.09915427238263" style="stroke: rgb(0, 0, 0); stroke-opacity: 0.1; stroke-width: 0.5px;"/><path class="xgrid crisp" transform="translate(317.8018263342083,0)" d="M0,43.901040147759296v405.09915427238263" style="stroke: rgb(0, 0, 0); stroke-opacity: 0.1; stroke-width: 0.5px;"/><path class="xgrid crisp" transform="translate(453.45182633420825,0)" d="M0,43.901040147759296v405.09915427238263" style="stroke: rgb(0, 0, 0); stroke-opacity: 0.1; stroke-width: 0.5px;"/><path class="xgrid crisp" transform="translate(589.1018263342082,0)" d="M0,43.901040147759296v405.09915427238263" style="stroke: rgb(0, 0, 0); stroke-opacity: 0.1; stroke-width: 0.5px;"/></g><g class="y"><path class="ygrid crisp" transform="translate(0,437.5310401477593)" d="M55.70182633420823,0h640.853291776028" style="stroke: rgb(0, 0, 0); stroke-opacity: 0.1; stroke-width: 0.5px;"/><path class="ygrid crisp" transform="translate(0,316.62104014775935)" d="M55.70182633420823,0h640.853291776028" style="stroke: rgb(0, 0, 0); stroke-opacity: 0.1; stroke-width: 0.5px;"/><path class="ygrid crisp" transform="translate(0,195.7010401477593)" d="M55.70182633420823,0h640.853291776028" style="stroke: rgb(0, 0, 0); stroke-opacity: 0.1; stroke-width: 0.5px;"/><path class="ygrid crisp" transform="translate(0,74.7810401477593)" d="M55.70182633420823,0h640.853291776028" style="stroke: rgb(0, 0, 0); stroke-opacity: 0.1; stroke-width: 0.5px;"/></g></g><g class="zerolinelayer"/><path class="xlines-below"/><path class="ylines-below"/><g class="overlines-below"/><g class="xaxislayer-below"/><g class="yaxislayer-below"/><g class="overaxes-below"/><g class="plot" transform="translate(55.70182633420823,43.901040147759296)" clip-path="url('#clip5225b6xyplot')"><g class="scatterlayer mlayer"><g class="trace scatter traceb70936" style="stroke-miterlimit: 2;"><g class="fills"><g><path class="js-fill" d="M622.72,393.63L18.14,393.63L18.14,393.61L60.67,392.95L63.71,392.78L78.9,391.18L81.94,390.65L94.09,387.53L97.13,386.43L106.24,382.24L109.28,380.51L118.39,374.24L121.43,371.79L133.58,360.43L136.62,357.26L167,325.1L170.04,322.38L182.19,312.98L185.23,310.97L218.65,290.16L221.69,287.84L252.07,263.93L255.11,262.18L264.22,258.4L267.26,257.63L276.37,256.46L279.41,256.32L291.56,255.16L294.6,254.31L300.68,251.31L303.72,248.97L309.79,242.24L312.83,237.71L318.91,226.07L321.95,218.91L328.02,201.93L331.06,192.17L340.17,158.61L343.21,146.34L364.48,60.04L367.52,49.68L373.59,32.05L376.63,25.06L382.71,15.26L385.75,12.59L388.78,11.47L391.82,11.9L394.86,13.88L397.9,17.37L403.97,28.6L407.01,36.17L413.09,54.66L416.13,65.31L425.24,101.24L428.28,114.07L452.58,215.84L455.62,227.29L467.77,268.6L470.81,277.78L479.93,302.65L482.96,310.08L492.08,329.96L495.12,335.81L504.23,351.2L507.27,355.63L516.38,366.99L519.42,370.16L528.54,378.02L531.57,380.13L540.69,385.16L543.73,386.45L552.84,389.4L555.88,390.12L568.03,392.06L571.07,392.36L592.34,393.39L595.37,393.45L622.72,393.61" style="fill: rgb(30, 144, 255); fill-opacity: 0.5; stroke-width: 0;"/></g></g><g class="errorbars"/><g class="lines"><path class="js-line" d="M18.14,393.61L60.67,392.95L63.71,392.78L78.9,391.18L81.94,390.65L94.09,387.53L97.13,386.43L106.24,382.24L109.28,380.51L118.39,374.24L121.43,371.79L133.58,360.43L136.62,357.26L167,325.1L170.04,322.38L182.19,312.98L185.23,310.97L218.65,290.16L221.69,287.84L252.07,263.93L255.11,262.18L264.22,258.4L267.26,257.63L276.37,256.46L279.41,256.32L291.56,255.16L294.6,254.31L300.68,251.31L303.72,248.97L309.79,242.24L312.83,237.71L318.91,226.07L321.95,218.91L328.02,201.93L331.06,192.17L340.17,158.61L343.21,146.34L364.48,60.04L367.52,49.68L373.59,32.05L376.63,25.06L382.71,15.26L385.75,12.59L388.78,11.47L391.82,11.9L394.86,13.88L397.9,17.37L403.97,28.6L407.01,36.17L413.09,54.66L416.13,65.31L425.24,101.24L428.28,114.07L452.58,215.84L455.62,227.29L467.77,268.6L470.81,277.78L479.93,302.65L482.96,310.08L492.08,329.96L495.12,335.81L504.23,351.2L507.27,355.63L516.38,366.99L519.42,370.16L528.54,378.02L531.57,380.13L540.69,385.16L543.73,386.45L552.84,389.4L555.88,390.12L568.03,392.06L571.07,392.36L592.34,393.39L595.37,393.45L622.72,393.61" style="vector-effect: non-scaling-stroke; fill: none; stroke: rgb(0, 154, 250); stroke-opacity: 0.5; stroke-width: 1px; opacity: 1;"/></g><g class="points"/><g class="text"/></g><g class="trace scatter trace612ee0" style="stroke-miterlimit: 2; opacity: 1;"><g class="fills"/><g class="errorbars"/><g class="lines"><path class="js-line" d="M267.85,8507.082239720035L267.85,-8101.98308544766L267.85,-8101.983085447653" style="vector-effect: non-scaling-stroke; fill: none; stroke: rgb(0, 128, 0); stroke-opacity: 1; stroke-width: 1px; opacity: 1; stroke-dasharray: 9px, 9px;"/></g><g class="points"/><g class="text"/></g><g class="trace scatter trace7c61f8" style="stroke-miterlimit: 2; opacity: 1;"><g class="fills"/><g class="errorbars"/><g class="lines"><path class="js-line" d="M349.86,8507.082239720035L349.86,-8101.98308544766L349.86,-8101.983085447653" style="vector-effect: non-scaling-stroke; fill: none; stroke: rgb(0, 128, 0); stroke-opacity: 1; stroke-width: 1px; opacity: 1; stroke-dasharray: 9px, 9px;"/></g><g class="points"/><g class="text"/></g><g class="trace scatter trace284682" style="stroke-miterlimit: 2; opacity: 1;"><g class="fills"/><g class="errorbars"/><g class="lines"><path class="js-line" d="M431.87,8507.082239720035L431.87,-8101.98308544766L431.87,-8101.983085447653" style="vector-effect: non-scaling-stroke; fill: none; stroke: rgb(0, 128, 0); stroke-opacity: 1; stroke-width: 1px; opacity: 1; stroke-dasharray: 9px, 9px;"/></g><g class="points"/><g class="text"/></g></g></g><g class="overplot"/><path class="xlines-above crisp" d="M54.70182633420823,449.50019442014195H696.5551181102362" style="fill: none; stroke-width: 1px; stroke: rgb(0, 0, 0); stroke-opacity: 1;"/><path class="ylines-above crisp" d="M55.20182633420823,43.901040147759296V449.00019442014195" style="fill: none; stroke-width: 1px; stroke: rgb(0, 0, 0); stroke-opacity: 1;"/><g class="overlines-above"/><g class="xaxislayer-above"><path class="xtick ticks crisp" d="M0,449.00019442014195v-5" transform="translate(182.14182633420822,0)" style="stroke: rgb(0, 0, 0); stroke-opacity: 1; stroke-width: 1px;"/><path class="xtick ticks crisp" d="M0,449.00019442014195v-5" transform="translate(317.8018263342083,0)" style="stroke: rgb(0, 0, 0); stroke-opacity: 1; stroke-width: 1px;"/><path class="xtick ticks crisp" d="M0,449.00019442014195v-5" transform="translate(453.45182633420825,0)" style="stroke: rgb(0, 0, 0); stroke-opacity: 1; stroke-width: 1px;"/><path class="xtick ticks crisp" d="M0,449.00019442014195v-5" transform="translate(589.1018263342082,0)" style="stroke: rgb(0, 0, 0); stroke-opacity: 1; stroke-width: 1px;"/><g class="xtick"><text text-anchor="middle" x="0" y="463.20019442014194" transform="translate(182.14182633420822,0)" style="font-family: sans-serif; font-size: 11px; fill: rgb(0, 0, 0); fill-opacity: 1; white-space: pre;">50</text></g><g class="xtick"><text text-anchor="middle" x="0" y="463.20019442014194" transform="translate(317.8018263342083,0)" style="font-family: sans-serif; font-size: 11px; fill: rgb(0, 0, 0); fill-opacity: 1; white-space: pre;">100</text></g><g class="xtick"><text text-anchor="middle" x="0" y="463.20019442014194" transform="translate(453.45182633420825,0)" style="font-family: sans-serif; font-size: 11px; fill: rgb(0, 0, 0); fill-opacity: 1; white-space: pre;">150</text></g><g class="xtick"><text text-anchor="middle" x="0" y="463.20019442014194" transform="translate(589.1018263342082,0)" style="font-family: sans-serif; font-size: 11px; fill: rgb(0, 0, 0); fill-opacity: 1; white-space: pre;">200</text></g></g><g class="yaxislayer-above"><path class="ytick ticks crisp" d="M55.70182633420823,0h5" transform="translate(0,437.5310401477593)" style="stroke: rgb(0, 0, 0); stroke-opacity: 1; stroke-width: 1px;"/><path class="ytick ticks crisp" d="M55.70182633420823,0h5" transform="translate(0,316.62104014775935)" style="stroke: rgb(0, 0, 0); stroke-opacity: 1; stroke-width: 1px;"/><path class="ytick ticks crisp" d="M55.70182633420823,0h5" transform="translate(0,195.7010401477593)" style="stroke: rgb(0, 0, 0); stroke-opacity: 1; stroke-width: 1px;"/><path class="ytick ticks crisp" d="M55.70182633420823,0h5" transform="translate(0,74.7810401477593)" style="stroke: rgb(0, 0, 0); stroke-opacity: 1; stroke-width: 1px;"/><g class="ytick"><text text-anchor="end" x="52.501826334208225" y="3.8499999999999996" transform="translate(0,437.5310401477593)" style="font-family: sans-serif; font-size: 11px; fill: rgb(0, 0, 0); fill-opacity: 1; white-space: pre;">0.000</text></g><g class="ytick"><text text-anchor="end" x="52.501826334208225" y="3.8499999999999996" transform="translate(0,316.62104014775935)" style="font-family: sans-serif; font-size: 11px; fill: rgb(0, 0, 0); fill-opacity: 1; white-space: pre;">0.005</text></g><g class="ytick"><text text-anchor="end" x="52.501826334208225" y="3.8499999999999996" transform="translate(0,195.7010401477593)" style="font-family: sans-serif; font-size: 11px; fill: rgb(0, 0, 0); fill-opacity: 1; white-space: pre;">0.010</text></g><g class="ytick"><text text-anchor="end" x="52.501826334208225" y="3.8499999999999996" transform="translate(0,74.7810401477593)" style="font-family: sans-serif; font-size: 11px; fill: rgb(0, 0, 0); fill-opacity: 1; white-space: pre;">0.015</text></g></g><g class="overaxes-above"/></g></g><g class="polarlayer"/><g class="ternarylayer"/><g class="geolayer"/><g class="funnelarealayer"/><g class="pielayer"/><g class="treemaplayer"/><g class="sunburstlayer"/><g class="glimages"/><defs id="topdefs-5225b6"><g class="clips"/></defs><g class="layer-above"><g class="imagelayer"/><g class="shapelayer"/></g><g class="infolayer"><g class="g-gtitle"/><g class="g-xtitle" transform="translate(0,-7.000194420141952)"><text class="xtitle" x="376.12847222222223" y="504.00019442014195" text-anchor="middle" style="font-family: sans-serif; font-size: 15px; fill: rgb(0, 0, 0); opacity: 1; font-weight: normal; white-space: pre;">Observations</text></g><g class="g-ytitle"><text class="ytitle" transform="rotate(-90,15.701826334208228,246.4506172839506)" x="15.701826334208228" y="246.4506172839506" text-anchor="middle" style="font-family: sans-serif; font-size: 15px; fill: rgb(0, 0, 0); opacity: 1; font-weight: normal; white-space: pre;">Density</text></g><g class="annotation" data-index="0" style="opacity: 1;"><g class="annotation-text-g" transform="rotate(0,376.1284722222223,33.00000000000001)"><g class="cursor-pointer" transform="translate(234,20)"><rect class="bg" x="0.5" y="0.5" width="284" height="25" style="stroke-width: 1px; stroke: rgb(0, 0, 0); stroke-opacity: 0; fill: rgb(0, 0, 0); fill-opacity: 0;"/><text class="annotation-text" text-anchor="middle" x="142.0625" y="20" style="font-family: sans-serif; font-size: 20px; fill: rgb(0, 0, 0); fill-opacity: 1; white-space: pre;">StatsPlots/PlotlyJS Density Plot</text></g></g></g></g></svg>