<svg class="main-svg" xmlns="http://www.w3.org/2000/svg" xmlns:xlink="http://www.w3.org/1999/xlink" width="700" height="500" style="" viewBox="0 0 700 500"><rect x="0" y="0" width="700" height="500" style="fill: rgb(255, 255, 255); fill-opacity: 1;"/><defs id="defs-388150"><g class="clips"><clipPath id="clip388150xyplot" class="plotclip"><rect width="671.9644028871392" height="405.09915427238263"/></clipPath><clipPath class="axesclip" id="clip388150x"><rect x="24.590715223097114" y="0" width="671.9644028871392" height="500"/></clipPath><clipPath class="axesclip" id="clip388150y"><rect x="0" y="43.901040147759296" width="700" height="405.09915427238263"/></clipPath><clipPath class="axesclip" id="clip388150xy"><rect x="24.590715223097114" y="43.901040147759296" width="671.9644028871392" height="405.09915427238263"/></clipPath></g><g class="gradients"/></defs><g class="bglayer"/><g class="layer-below"><g class="imagelayer"/><g class="shapelayer"/></g><g class="cartesianlayer"><g class="subplot xy"><g class="layer-subplot"><g class="shapelayer"/><g class="imagelayer"/></g><g class="gridlayer"><g class="x"><path class="xgrid crisp" transform="translate(136.30071522309711,0)" d="M0,43.901040147759296v405.09915427238263" style="stroke: rgb(0, 0, 0); stroke-opacity: 0.1; stroke-width: 0.5px;"/><path class="xgrid crisp" transform="translate(260.9007152230971,0)" d="M0,43.901040147759296v405.09915427238263" style="stroke: rgb(0, 0, 0); stroke-opacity: 0.1; stroke-width: 0.5px;"/><path class="xgrid crisp" transform="translate(385.4907152230971,0)" d="M0,43.901040147759296v405.09915427238263" style="stroke: rgb(0, 0, 0); stroke-opacity: 0.1; stroke-width: 0.5px;"/><path class="xgrid crisp" transform="translate(510.0807152230971,0)" d="M0,43.901040147759296v405.09915427238263" style="stroke: rgb(0, 0, 0); stroke-opacity: 0.1; stroke-width: 0.5px;"/><path class="xgrid crisp" transform="translate(634.6807152230972,0)" d="M0,43.901040147759296v405.09915427238263" style="stroke: rgb(0, 0, 0); stroke-opacity: 0.1; stroke-width: 0.5px;"/></g><g class="y"><path class="ygrid crisp" transform="translate(0,437.5310401477593)" d="M24.590715223097114,0h671.9644028871392" style="stroke: rgb(0, 0, 0); stroke-opacity: 0.1; stroke-width: 0.5px;"/><path class="ygrid crisp" transform="translate(0,328.3410401477593)" d="M24.590715223097114,0h671.9644028871392" style="stroke: rgb(0, 0, 0); stroke-opacity: 0.1; stroke-width: 0.5px;"/><path class="ygrid crisp" transform="translate(0,219.1510401477593)" d="M24.590715223097114,0h671.9644028871392" style="stroke: rgb(0, 0, 0); stroke-opacity: 0.1; stroke-width: 0.5px;"/><path class="ygrid crisp" transform="translate(0,109.96104014775929)" d="M24.590715223097114,0h671.9644028871392" style="stroke: rgb(0, 0, 0); stroke-opacity: 0.1; stroke-width: 0.5px;"/></g></g><g class="zerolinelayer"/><path class="xlines-below"/><path class="ylines-below"/><g class="overlines-below"/><g class="xaxislayer-below"/><g class="yaxislayer-below"/><g class="overaxes-below"/><g class="plot" transform="translate(24.590715223097114,43.901040147759296)" clip-path="url('#clip388150xyplot')"><g class="scatterlayer mlayer"><g class="trace scatter trace6c805f" style="stroke-miterlimit: 2;"><g class="fills"><g><path class="js-fill" d="M36.96,393.63L36.96,393.63L36.96,339.04L36.96,393.63L86.8,393.63L86.8,339.04L36.96,339.04L36.96,339.04" style="fill: rgb(30, 144, 255); fill-opacity: 0.5; stroke-width: 0;"/></g></g><g class="errorbars"/><g class="lines"><path class="js-line" d="M36.96,339.04L36.96,393.63L86.8,393.63L86.8,339.04L36.96,339.04L36.96,339.04" style="vector-effect: non-scaling-stroke; fill: none; stroke: rgb(0, 0, 0); stroke-opacity: 0.5; stroke-width: 1px; opacity: 1;"/></g><g class="points"/><g class="text"/></g><g class="trace scatter trace3c0ee3" style="stroke-miterlimit: 2;"><g class="fills"><g><path class="js-fill" d="M86.8,393.63L86.8,393.63L86.8,339.04L86.8,393.63L136.63,393.63L136.63,339.04L86.8,339.04L86.8,339.04" style="fill: rgb(30, 144, 255); fill-opacity: 0.5; stroke-width: 0;"/></g></g><g class="errorbars"/><g class="lines"><path class="js-line" d="M86.8,339.04L86.8,393.63L136.63,393.63L136.63,339.04L86.8,339.04L86.8,339.04" style="vector-effect: non-scaling-stroke; fill: none; stroke: rgb(0, 0, 0); stroke-opacity: 0.5; stroke-width: 1px; opacity: 1;"/></g><g class="points"/><g class="text"/></g><g class="trace scatter traceef2aa5" style="stroke-miterlimit: 2;"><g class="fills"><g><path class="js-fill" d="M136.63,393.63L136.63,393.63L136.63,393.63L186.47,393.63L136.63,393.63" style="fill: rgb(30, 144, 255); fill-opacity: 0.5; stroke-width: 0;"/></g></g><g class="errorbars"/><g class="lines"><path class="js-line" d="M136.63,393.63L186.47,393.63L136.63,393.63" style="vector-effect: non-scaling-stroke; fill: none; stroke: rgb(0, 0, 0); stroke-opacity: 0.5; stroke-width: 1px; opacity: 1;"/></g><g class="points"/><g class="text"/></g><g class="trace scatter trace76d841" style="stroke-miterlimit: 2;"><g class="fills"><g><path class="js-fill" d="M186.47,393.63L186.47,393.63L186.47,284.44L186.47,393.63L236.31,393.63L236.31,284.44L186.47,284.44L186.47,284.44" style="fill: rgb(30, 144, 255); fill-opacity: 0.5; stroke-width: 0;"/></g></g><g class="errorbars"/><g class="lines"><path class="js-line" d="M186.47,284.44L186.47,393.63L236.31,393.63L236.31,284.44L186.47,284.44L186.47,284.44" style="vector-effect: non-scaling-stroke; fill: none; stroke: rgb(0, 0, 0); stroke-opacity: 0.5; stroke-width: 1px; opacity: 1;"/></g><g class="points"/><g class="text"/></g><g class="trace scatter trace44bc11" style="stroke-miterlimit: 2;"><g class="fills"><g><path class="js-fill" d="M236.31,393.63L236.31,393.63L236.31,339.04L236.31,393.63L286.15,393.63L286.15,339.04L236.31,339.04L236.31,339.04" style="fill: rgb(30, 144, 255); fill-opacity: 0.5; stroke-width: 0;"/></g></g><g class="errorbars"/><g class="lines"><path class="js-line" d="M236.31,339.04L236.31,393.63L286.15,393.63L286.15,339.04L236.31,339.04L236.31,339.04" style="vector-effect: non-scaling-stroke; fill: none; stroke: rgb(0, 0, 0); stroke-opacity: 0.5; stroke-width: 1px; opacity: 1;"/></g><g class="points"/><g class="text"/></g><g class="trace scatter tracedcd7f8" style="stroke-miterlimit: 2;"><g class="fills"><g><path class="js-fill" d="M286.15,393.63L286.15,393.63L286.15,339.04L286.15,393.63L335.98,393.63L335.98,339.04L286.15,339.04L286.15,339.04" style="fill: rgb(30, 144, 255); fill-opacity: 0.5; stroke-width: 0;"/></g></g><g class="errorbars"/><g class="lines"><path class="js-line" d="M286.15,339.04L286.15,393.63L335.98,393.63L335.98,339.04L286.15,339.04L286.15,339.04" style="vector-effect: non-scaling-stroke; fill: none; stroke: rgb(0, 0, 0); stroke-opacity: 0.5; stroke-width: 1px; opacity: 1;"/></g><g class="points"/><g class="text"/></g><g class="trace scatter trace4b93f7" style="stroke-miterlimit: 2;"><g class="fills"><g><path class="js-fill" d="M335.98,393.63L335.98,393.63L335.98,393.63L385.82,393.63L335.98,393.63" style="fill: rgb(30, 144, 255); fill-opacity: 0.5; stroke-width: 0;"/></g></g><g class="errorbars"/><g class="lines"><path class="js-line" d="M335.98,393.63L385.82,393.63L335.98,393.63" style="vector-effect: non-scaling-stroke; fill: none; stroke: rgb(0, 0, 0); stroke-opacity: 0.5; stroke-width: 1px; opacity: 1;"/></g><g class="points"/><g class="text"/></g><g class="trace scatter trace978ef1" style="stroke-miterlimit: 2;"><g class="fills"><g><path class="js-fill" d="M385.82,393.63L385.82,393.63L385.82,284.44L385.82,393.63L435.66,393.63L435.66,284.44L385.82,284.44L385.82,284.44" style="fill: rgb(30, 144, 255); fill-opacity: 0.5; stroke-width: 0;"/></g></g><g class="errorbars"/><g class="lines"><path class="js-line" d="M385.82,284.44L385.82,393.63L435.66,393.63L435.66,284.44L385.82,284.44L385.82,284.44" style="vector-effect: non-scaling-stroke; fill: none; stroke: rgb(0, 0, 0); stroke-opacity: 0.5; stroke-width: 1px; opacity: 1;"/></g><g class="points"/><g class="text"/></g><g class="trace scatter tracec8c945" style="stroke-miterlimit: 2;"><g class="fills"><g><path class="js-fill" d="M435.66,393.63L435.66,393.63L435.66,11.47L435.66,393.63L485.49,393.63L485.49,11.47L435.66,11.47L435.66,11.47" style="fill: rgb(30, 144, 255); fill-opacity: 0.5; stroke-width: 0;"/></g></g><g class="errorbars"/><g class="lines"><path class="js-line" d="M435.66,11.47L435.66,393.63L485.49,393.63L485.49,11.47L435.66,11.47L435.66,11.47" style="vector-effect: non-scaling-stroke; fill: none; stroke: rgb(0, 0, 0); stroke-opacity: 0.5; stroke-width: 1px; opacity: 1;"/></g><g class="points"/><g class="text"/></g><g class="trace scatter traced876f0" style="stroke-miterlimit: 2;"><g class="fills"><g><path class="js-fill" d="M485.49,393.63L485.49,393.63L485.49,229.85L485.49,393.63L535.33,393.63L535.33,229.85L485.49,229.85L485.49,229.85" style="fill: rgb(30, 144, 255); fill-opacity: 0.5; stroke-width: 0;"/></g></g><g class="errorbars"/><g class="lines"><path class="js-line" d="M485.49,229.85L485.49,393.63L535.33,393.63L535.33,229.85L485.49,229.85L485.49,229.85" style="vector-effect: non-scaling-stroke; fill: none; stroke: rgb(0, 0, 0); stroke-opacity: 0.5; stroke-width: 1px; opacity: 1;"/></g><g class="points"/><g class="text"/></g><g class="trace scatter tracefa10dc" style="stroke-miterlimit: 2;"><g class="fills"><g><path class="js-fill" d="M535.33,393.63L535.33,393.63L535.33,393.63L585.17,393.63L535.33,393.63" style="fill: rgb(30, 144, 255); fill-opacity: 0.5; stroke-width: 0;"/></g></g><g class="errorbars"/><g class="lines"><path class="js-line" d="M535.33,393.63L585.17,393.63L535.33,393.63" style="vector-effect: non-scaling-stroke; fill: none; stroke: rgb(0, 0, 0); stroke-opacity: 0.5; stroke-width: 1px; opacity: 1;"/></g><g class="points"/><g class="text"/></g><g class="trace scatter trace7ae73b" style="stroke-miterlimit: 2;"><g class="fills"><g><path class="js-fill" d="M585.17,393.63L585.17,393.63L585.17,284.44L585.17,393.63L635.01,393.63L635.01,284.44L585.17,284.44L585.17,284.44" style="fill: rgb(30, 144, 255); fill-opacity: 0.5; stroke-width: 0;"/></g></g><g class="errorbars"/><g class="lines"><path class="js-line" d="M585.17,284.44L585.17,393.63L635.01,393.63L635.01,284.44L585.17,284.44L585.17,284.44" style="vector-effect: non-scaling-stroke; fill: none; stroke: rgb(0, 0, 0); stroke-opacity: 0.5; stroke-width: 1px; opacity: 1;"/></g><g class="points"/><g class="text"/></g><g class="trace scatter trace6ec064" style="stroke-miterlimit: 2; opacity: 1;"><g class="fills"/><g class="errorbars"/><g class="lines"><path class="js-line" d="M246.88,8507.082239720035L246.88,8507.082239720032L246.88,-8101.983085447653" style="vector-effect: non-scaling-stroke; fill: none; stroke: rgb(0, 128, 0); stroke-opacity: 1; stroke-width: 1px; opacity: 1; stroke-dasharray: 9px, 9px;"/></g><g class="points"/><g class="text"/></g><g class="trace scatter traceb66a7e" style="stroke-miterlimit: 2; opacity: 1;"><g class="fills"/><g class="errorbars"/><g class="lines"><path class="js-line" d="M397.53,8507.082239720035L397.53,8507.082239720032L397.53,-8101.983085447653" style="vector-effect: non-scaling-stroke; fill: none; stroke: rgb(0, 128, 0); stroke-opacity: 1; stroke-width: 1px; opacity: 1; stroke-dasharray: 9px, 9px;"/></g><g class="points"/><g class="text"/></g><g class="trace scatter tracef29638" style="stroke-miterlimit: 2; opacity: 1;"><g class="fills"/><g class="errorbars"/><g class="lines"><path class="js-line" d="M548.18,8507.082239720035L548.18,8507.082239720032L548.18,-8101.983085447653" style="vector-effect: non-scaling-stroke; fill: none; stroke: rgb(0, 128, 0); stroke-opacity: 1; stroke-width: 1px; opacity: 1; stroke-dasharray: 9px, 9px;"/></g><g class="points"/><g class="text"/></g></g></g><g class="overplot"/><path class="xlines-above crisp" d="M23.590715223097114,449.50019442014195H696.5551181102363" style="fill: none; stroke-width: 1px; stroke: rgb(0, 0, 0); stroke-opacity: 1;"/><path class="ylines-above crisp" d="M24.090715223097114,43.901040147759296V449.00019442014195" style="fill: none; stroke-width: 1px; stroke: rgb(0, 0, 0); stroke-opacity: 1;"/><g class="overlines-above"/><g class="xaxislayer-above"><path class="xtick ticks crisp" d="M0,449.00019442014195v-5" transform="translate(136.30071522309711,0)" style="stroke: rgb(0, 0, 0); stroke-opacity: 1; stroke-width: 1px;"/><path class="xtick ticks crisp" d="M0,449.00019442014195v-5" transform="translate(260.9007152230971,0)" style="stroke: rgb(0, 0, 0); stroke-opacity: 1; stroke-width: 1px;"/><path class="xtick ticks crisp" d="M0,449.00019442014195v-5" transform="translate(385.4907152230971,0)" style="stroke: rgb(0, 0, 0); stroke-opacity: 1; stroke-width: 1px;"/><path class="xtick ticks crisp" d="M0,449.00019442014195v-5" transform="translate(510.0807152230971,0)" style="stroke: rgb(0, 0, 0); stroke-opacity: 1; stroke-width: 1px;"/><path class="xtick ticks crisp" d="M0,449.00019442014195v-5" transform="translate(634.6807152230972,0)" style="stroke: rgb(0, 0, 0); stroke-opacity: 1; stroke-width: 1px;"/><g class="xtick"><text text-anchor="middle" x="0" y="463.20019442014194" transform="translate(136.30071522309711,0)" style="font-family: sans-serif; font-size: 11px; fill: rgb(0, 0, 0); fill-opacity: 1; white-space: pre;">75</text></g><g class="xtick"><text text-anchor="middle" x="0" y="463.20019442014194" transform="translate(260.9007152230971,0)" style="font-family: sans-serif; font-size: 11px; fill: rgb(0, 0, 0); fill-opacity: 1; white-space: pre;">100</text></g><g class="xtick"><text text-anchor="middle" x="0" y="463.20019442014194" transform="translate(385.4907152230971,0)" style="font-family: sans-serif; font-size: 11px; fill: rgb(0, 0, 0); fill-opacity: 1; white-space: pre;">125</text></g><g class="xtick"><text text-anchor="middle" x="0" y="463.20019442014194" transform="translate(510.0807152230971,0)" style="font-family: sans-serif; font-size: 11px; fill: rgb(0, 0, 0); fill-opacity: 1; white-space: pre;">150</text></g><g class="xtick"><text text-anchor="middle" x="0" y="463.20019442014194" transform="translate(634.6807152230972,0)" style="font-family: sans-serif; font-size: 11px; fill: rgb(0, 0, 0); fill-opacity: 1; white-space: pre;">175</text></g></g><g class="yaxislayer-above"><path class="ytick ticks crisp" d="M24.590715223097114,0h5" transform="translate(0,437.5310401477593)" style="stroke: rgb(0, 0, 0); stroke-opacity: 1; stroke-width: 1px;"/><path class="ytick ticks crisp" d="M24.590715223097114,0h5" transform="translate(0,328.3410401477593)" style="stroke: rgb(0, 0, 0); stroke-opacity: 1; stroke-width: 1px;"/><path class="ytick ticks crisp" d="M24.590715223097114,0h5" transform="translate(0,219.1510401477593)" style="stroke: rgb(0, 0, 0); stroke-opacity: 1; stroke-width: 1px;"/><path class="ytick ticks crisp" d="M24.590715223097114,0h5" transform="translate(0,109.96104014775929)" style="stroke: rgb(0, 0, 0); stroke-opacity: 1; stroke-width: 1px;"/><g class="ytick"><text text-anchor="end" x="21.390715223097114" y="3.8499999999999996" transform="translate(0,437.5310401477593)" style="font-family: sans-serif; font-size: 11px; fill: rgb(0, 0, 0); fill-opacity: 1; white-space: pre;">0</text></g><g class="ytick"><text text-anchor="end" x="21.390715223097114" y="3.8499999999999996" transform="translate(0,328.3410401477593)" style="font-family: sans-serif; font-size: 11px; fill: rgb(0, 0, 0); fill-opacity: 1; white-space: pre;">2</text></g><g class="ytick"><text text-anchor="end" x="21.390715223097114" y="3.8499999999999996" transform="translate(0,219.1510401477593)" style="font-family: sans-serif; font-size: 11px; fill: rgb(0, 0, 0); fill-opacity: 1; white-space: pre;">4</text></g><g class="ytick"><text text-anchor="end" x="21.390715223097114" y="3.8499999999999996" transform="translate(0,109.96104014775929)" style="font-family: sans-serif; font-size: 11px; fill: rgb(0, 0, 0); fill-opacity: 1; white-space: pre;">6</text></g></g><g class="overaxes-above"/></g></g><g class="polarlayer"/><g class="ternarylayer"/><g class="geolayer"/><g class="funnelarealayer"/><g class="pielayer"/><g class="treemaplayer"/><g class="sunburstlayer"/><g class="glimages"/><defs id="topdefs-388150"><g class="clips"/></defs><g class="layer-above"><g class="imagelayer"/><g class="shapelayer"/></g><g class="infolayer"><g class="g-gtitle"/><g class="g-xtitle" transform="translate(0,-7.000194420141952)"><text class="xtitle" x="360.5729166666667" y="504.00019442014195" text-anchor="middle" style="font-family: sans-serif; font-size: 15px; fill: rgb(0, 0, 0); opacity: 1; font-weight: normal; white-space: pre;">Observations</text></g><g class="g-ytitle" transform="translate(29.4228515625,0)"><text class="ytitle" transform="rotate(-90,-15.409284776902886,246.4506172839506)" x="-15.409284776902886" y="246.4506172839506" text-anchor="middle" style="font-family: sans-serif; font-size: 15px; fill: rgb(0, 0, 0); opacity: 1; font-weight: normal; white-space: pre;">Count</text></g><g class="annotation" data-index="0" style="opacity: 1;"><g class="annotation-text-g" transform="rotate(0,360.57291666666663,33.00000000000001)"><g class="cursor-pointer" transform="translate(226,20)"><rect class="bg" x="0.5" y="0.5" width="268" height="25" style="stroke-width: 1px; stroke: rgb(0, 0, 0); stroke-opacity: 0; fill: rgb(0, 0, 0); fill-opacity: 0;"/><text class="annotation-text" text-anchor="middle" x="134.265625" y="20" style="font-family: sans-serif; font-size: 20px; fill: rgb(0, 0, 0); fill-opacity: 1; white-space: pre;">StatsPlots/PlotlyJS Histogram</text></g></g></g></g></svg>