<?xml version="1.0" encoding="utf-8"?>
<svg xmlns="http://www.w3.org/2000/svg" xmlns:xlink="http://www.w3.org/1999/xlink" width="800" height="450" viewBox="0 0 3200 1800">
<defs>
  <clipPath id="clip280">
    <rect x="0" y="0" width="3200" height="1800"/>
  </clipPath>
</defs>
<path clip-path="url(#clip280)" d="
M0 1800 L3200 1800 L3200 0 L0 0  Z
  " fill="#ffffff" fill-rule="evenodd" fill-opacity="1"/>
<defs>
  <clipPath id="clip281">
    <rect x="640" y="0" width="2241" height="1800"/>
  </clipPath>
</defs>
<path clip-path="url(#clip280)" d="
M176.02 1634 L3152.76 1634 L3152.76 114.022 L176.02 114.022  Z
  " fill="#ffffff" fill-rule="evenodd" fill-opacity="1"/>
<defs>
  <clipPath id="clip282">
    <rect x="176" y="114" width="2978" height="1521"/>
  </clipPath>
</defs>
<polyline clip-path="url(#clip282)" style="stroke:#000000; stroke-width:2; stroke-opacity:0.1; fill:none" points="
  654.068,1634 654.068,114.022 
  "/>
<polyline clip-path="url(#clip282)" style="stroke:#000000; stroke-width:2; stroke-opacity:0.1; fill:none" points="
  1215.36,1634 1215.36,114.022 
  "/>
<polyline clip-path="url(#clip282)" style="stroke:#000000; stroke-width:2; stroke-opacity:0.1; fill:none" points="
  1776.65,1634 1776.65,114.022 
  "/>
<polyline clip-path="url(#clip282)" style="stroke:#000000; stroke-width:2; stroke-opacity:0.1; fill:none" points="
  2337.93,1634 2337.93,114.022 
  "/>
<polyline clip-path="url(#clip282)" style="stroke:#000000; stroke-width:2; stroke-opacity:0.1; fill:none" points="
  2899.22,1634 2899.22,114.022 
  "/>
<polyline clip-path="url(#clip280)" style="stroke:#000000; stroke-width:4; stroke-opacity:1; fill:none" points="
  176.02,1634 3152.76,1634 
  "/>
<polyline clip-path="url(#clip280)" style="stroke:#000000; stroke-width:4; stroke-opacity:1; fill:none" points="
  654.068,1634 654.068,1615.77 
  "/>
<polyline clip-path="url(#clip280)" style="stroke:#000000; stroke-width:4; stroke-opacity:1; fill:none" points="
  1215.36,1634 1215.36,1615.77 
  "/>
<polyline clip-path="url(#clip280)" style="stroke:#000000; stroke-width:4; stroke-opacity:1; fill:none" points="
  1776.65,1634 1776.65,1615.77 
  "/>
<polyline clip-path="url(#clip280)" style="stroke:#000000; stroke-width:4; stroke-opacity:1; fill:none" points="
  2337.93,1634 2337.93,1615.77 
  "/>
<polyline clip-path="url(#clip280)" style="stroke:#000000; stroke-width:4; stroke-opacity:1; fill:none" points="
  2899.22,1634 2899.22,1615.77 
  "/>
<path clip-path="url(#clip280)" d="M 0 0 M629.948 1666.52 L652.17 1666.52 L652.17 1668.51 L639.623 1701.08 L634.739 1701.08 L646.545 1670.45 L629.948 1670.45 L629.948 1666.52 Z" fill="#000000" fill-rule="evenodd" fill-opacity="1" /><path clip-path="url(#clip280)" d="M 0 0 M657.285 1666.52 L675.642 1666.52 L675.642 1670.45 L661.568 1670.45 L661.568 1678.92 Q662.586 1678.58 663.605 1678.41 Q664.623 1678.23 665.642 1678.23 Q671.429 1678.23 674.808 1681.4 Q678.188 1684.57 678.188 1689.99 Q678.188 1695.57 674.716 1698.67 Q671.244 1701.75 664.924 1701.75 Q662.748 1701.75 660.48 1701.38 Q658.234 1701.01 655.827 1700.27 L655.827 1695.57 Q657.91 1696.7 660.133 1697.26 Q662.355 1697.81 664.832 1697.81 Q668.836 1697.81 671.174 1695.71 Q673.512 1693.6 673.512 1689.99 Q673.512 1686.38 671.174 1684.27 Q668.836 1682.16 664.832 1682.16 Q662.957 1682.16 661.082 1682.58 Q659.23 1683 657.285 1683.88 L657.285 1666.52 Z" fill="#000000" fill-rule="evenodd" fill-opacity="1" /><path clip-path="url(#clip280)" d="M 0 0 M1178.73 1697.14 L1186.36 1697.14 L1186.36 1670.78 L1178.05 1672.44 L1178.05 1668.18 L1186.32 1666.52 L1190.99 1666.52 L1190.99 1697.14 L1198.63 1697.14 L1198.63 1701.08 L1178.73 1701.08 L1178.73 1697.14 Z" fill="#000000" fill-rule="evenodd" fill-opacity="1" /><path clip-path="url(#clip280)" d="M 0 0 M1213.7 1669.6 Q1210.09 1669.6 1208.26 1673.16 Q1206.46 1676.7 1206.46 1683.83 Q1206.46 1690.94 1208.26 1694.5 Q1210.09 1698.04 1213.7 1698.04 Q1217.34 1698.04 1219.14 1694.5 Q1220.97 1690.94 1220.97 1683.83 Q1220.97 1676.7 1219.14 1673.16 Q1217.34 1669.6 1213.7 1669.6 M1213.7 1665.89 Q1219.51 1665.89 1222.57 1670.5 Q1225.65 1675.08 1225.65 1683.83 Q1225.65 1692.56 1222.57 1697.16 Q1219.51 1701.75 1213.7 1701.75 Q1207.89 1701.75 1204.81 1697.16 Q1201.76 1692.56 1201.76 1683.83 Q1201.76 1675.08 1204.81 1670.5 Q1207.89 1665.89 1213.7 1665.89 Z" fill="#000000" fill-rule="evenodd" fill-opacity="1" /><path clip-path="url(#clip280)" d="M 0 0 M1240.72 1669.6 Q1237.1 1669.6 1235.28 1673.16 Q1233.47 1676.7 1233.47 1683.83 Q1233.47 1690.94 1235.28 1694.5 Q1237.1 1698.04 1240.72 1698.04 Q1244.35 1698.04 1246.16 1694.5 Q1247.98 1690.94 1247.98 1683.83 Q1247.98 1676.7 1246.16 1673.16 Q1244.35 1669.6 1240.72 1669.6 M1240.72 1665.89 Q1246.53 1665.89 1249.58 1670.5 Q1252.66 1675.08 1252.66 1683.83 Q1252.66 1692.56 1249.58 1697.16 Q1246.53 1701.75 1240.72 1701.75 Q1234.91 1701.75 1231.83 1697.16 Q1228.77 1692.56 1228.77 1683.83 Q1228.77 1675.08 1231.83 1670.5 Q1234.91 1665.89 1240.72 1665.89 Z" fill="#000000" fill-rule="evenodd" fill-opacity="1" /><path clip-path="url(#clip280)" d="M 0 0 M1741.31 1697.14 L1748.95 1697.14 L1748.95 1670.78 L1740.64 1672.44 L1740.64 1668.18 L1748.9 1666.52 L1753.58 1666.52 L1753.58 1697.14 L1761.22 1697.14 L1761.22 1701.08 L1741.31 1701.08 L1741.31 1697.14 Z" fill="#000000" fill-rule="evenodd" fill-opacity="1" /><path clip-path="url(#clip280)" d="M 0 0 M1770.31 1697.14 L1786.63 1697.14 L1786.63 1701.08 L1764.69 1701.08 L1764.69 1697.14 Q1767.35 1694.39 1771.94 1689.76 Q1776.54 1685.1 1777.72 1683.76 Q1779.97 1681.24 1780.85 1679.5 Q1781.75 1677.74 1781.75 1676.05 Q1781.75 1673.3 1779.81 1671.56 Q1777.88 1669.83 1774.78 1669.83 Q1772.58 1669.83 1770.13 1670.59 Q1767.7 1671.35 1764.92 1672.91 L1764.92 1668.18 Q1767.75 1667.05 1770.2 1666.47 Q1772.65 1665.89 1774.69 1665.89 Q1780.06 1665.89 1783.25 1668.58 Q1786.45 1671.26 1786.45 1675.75 Q1786.45 1677.88 1785.64 1679.8 Q1784.85 1681.7 1782.75 1684.29 Q1782.17 1684.97 1779.06 1688.18 Q1775.96 1691.38 1770.31 1697.14 Z" fill="#000000" fill-rule="evenodd" fill-opacity="1" /><path clip-path="url(#clip280)" d="M 0 0 M1791.75 1666.52 L1810.11 1666.52 L1810.11 1670.45 L1796.03 1670.45 L1796.03 1678.92 Q1797.05 1678.58 1798.07 1678.41 Q1799.09 1678.23 1800.11 1678.23 Q1805.89 1678.23 1809.27 1681.4 Q1812.65 1684.57 1812.65 1689.99 Q1812.65 1695.57 1809.18 1698.67 Q1805.71 1701.75 1799.39 1701.75 Q1797.21 1701.75 1794.94 1701.38 Q1792.7 1701.01 1790.29 1700.27 L1790.29 1695.57 Q1792.37 1696.7 1794.6 1697.26 Q1796.82 1697.81 1799.3 1697.81 Q1803.3 1697.81 1805.64 1695.71 Q1807.98 1693.6 1807.98 1689.99 Q1807.98 1686.38 1805.64 1684.27 Q1803.3 1682.16 1799.3 1682.16 Q1797.42 1682.16 1795.55 1682.58 Q1793.69 1683 1791.75 1683.88 L1791.75 1666.52 Z" fill="#000000" fill-rule="evenodd" fill-opacity="1" /><path clip-path="url(#clip280)" d="M 0 0 M2301.8 1697.14 L2309.44 1697.14 L2309.44 1670.78 L2301.13 1672.44 L2301.13 1668.18 L2309.39 1666.52 L2314.07 1666.52 L2314.07 1697.14 L2321.71 1697.14 L2321.71 1701.08 L2301.8 1701.08 L2301.8 1697.14 Z" fill="#000000" fill-rule="evenodd" fill-opacity="1" /><path clip-path="url(#clip280)" d="M 0 0 M2326.82 1666.52 L2345.18 1666.52 L2345.18 1670.45 L2331.11 1670.45 L2331.11 1678.92 Q2332.12 1678.58 2333.14 1678.41 Q2334.16 1678.23 2335.18 1678.23 Q2340.97 1678.23 2344.35 1681.4 Q2347.73 1684.57 2347.73 1689.99 Q2347.73 1695.57 2344.25 1698.67 Q2340.78 1701.75 2334.46 1701.75 Q2332.29 1701.75 2330.02 1701.38 Q2327.77 1701.01 2325.37 1700.27 L2325.37 1695.57 Q2327.45 1696.7 2329.67 1697.26 Q2331.89 1697.81 2334.37 1697.81 Q2338.37 1697.81 2340.71 1695.71 Q2343.05 1693.6 2343.05 1689.99 Q2343.05 1686.38 2340.71 1684.27 Q2338.37 1682.16 2334.37 1682.16 Q2332.5 1682.16 2330.62 1682.58 Q2328.77 1683 2326.82 1683.88 L2326.82 1666.52 Z" fill="#000000" fill-rule="evenodd" fill-opacity="1" /><path clip-path="url(#clip280)" d="M 0 0 M2362.8 1669.6 Q2359.18 1669.6 2357.36 1673.16 Q2355.55 1676.7 2355.55 1683.83 Q2355.55 1690.94 2357.36 1694.5 Q2359.18 1698.04 2362.8 1698.04 Q2366.43 1698.04 2368.24 1694.5 Q2370.06 1690.94 2370.06 1683.83 Q2370.06 1676.7 2368.24 1673.16 Q2366.43 1669.6 2362.8 1669.6 M2362.8 1665.89 Q2368.61 1665.89 2371.66 1670.5 Q2374.74 1675.08 2374.74 1683.83 Q2374.74 1692.56 2371.66 1697.16 Q2368.61 1701.75 2362.8 1701.75 Q2356.99 1701.75 2353.91 1697.16 Q2350.85 1692.56 2350.85 1683.83 Q2350.85 1675.08 2353.91 1670.5 Q2356.99 1665.89 2362.8 1665.89 Z" fill="#000000" fill-rule="evenodd" fill-opacity="1" /><path clip-path="url(#clip280)" d="M 0 0 M2863.54 1697.14 L2871.18 1697.14 L2871.18 1670.78 L2862.87 1672.44 L2862.87 1668.18 L2871.13 1666.52 L2875.81 1666.52 L2875.81 1697.14 L2883.45 1697.14 L2883.45 1701.08 L2863.54 1701.08 L2863.54 1697.14 Z" fill="#000000" fill-rule="evenodd" fill-opacity="1" /><path clip-path="url(#clip280)" d="M 0 0 M2887.34 1666.52 L2909.56 1666.52 L2909.56 1668.51 L2897.01 1701.08 L2892.13 1701.08 L2903.93 1670.45 L2887.34 1670.45 L2887.34 1666.52 Z" fill="#000000" fill-rule="evenodd" fill-opacity="1" /><path clip-path="url(#clip280)" d="M 0 0 M2914.68 1666.52 L2933.03 1666.52 L2933.03 1670.45 L2918.96 1670.45 L2918.96 1678.92 Q2919.98 1678.58 2920.99 1678.41 Q2922.01 1678.23 2923.03 1678.23 Q2928.82 1678.23 2932.2 1681.4 Q2935.58 1684.57 2935.58 1689.99 Q2935.58 1695.57 2932.11 1698.67 Q2928.63 1701.75 2922.31 1701.75 Q2920.14 1701.75 2917.87 1701.38 Q2915.62 1701.01 2913.22 1700.27 L2913.22 1695.57 Q2915.3 1696.7 2917.52 1697.26 Q2919.74 1697.81 2922.22 1697.81 Q2926.23 1697.81 2928.56 1695.71 Q2930.9 1693.6 2930.9 1689.99 Q2930.9 1686.38 2928.56 1684.27 Q2926.23 1682.16 2922.22 1682.16 Q2920.35 1682.16 2918.47 1682.58 Q2916.62 1683 2914.68 1683.88 L2914.68 1666.52 Z" fill="#000000" fill-rule="evenodd" fill-opacity="1" /><path clip-path="url(#clip280)" d="M 0 0 M1493.64 1747.71 Q1486.64 1747.71 1482.5 1752.93 Q1478.4 1758.15 1478.4 1767.16 Q1478.4 1776.13 1482.5 1781.35 Q1486.64 1786.57 1493.64 1786.57 Q1500.65 1786.57 1504.72 1781.35 Q1508.83 1776.13 1508.83 1767.16 Q1508.83 1758.15 1504.72 1752.93 Q1500.65 1747.71 1493.64 1747.71 M1493.64 1742.49 Q1503.64 1742.49 1509.62 1749.21 Q1515.61 1755.89 1515.61 1767.16 Q1515.61 1778.39 1509.62 1785.11 Q1503.64 1791.79 1493.64 1791.79 Q1483.62 1791.79 1477.6 1785.11 Q1471.62 1778.42 1471.62 1767.16 Q1471.62 1755.89 1477.6 1749.21 Q1483.62 1742.49 1493.64 1742.49 Z" fill="#000000" fill-rule="evenodd" fill-opacity="1" /><path clip-path="url(#clip280)" d="M 0 0 M1547.34 1773.08 Q1547.34 1766.62 1544.67 1762.96 Q1542.02 1759.26 1537.38 1759.26 Q1532.73 1759.26 1530.06 1762.96 Q1527.41 1766.62 1527.41 1773.08 Q1527.41 1779.54 1530.06 1783.23 Q1532.73 1786.89 1537.38 1786.89 Q1542.02 1786.89 1544.67 1783.23 Q1547.34 1779.54 1547.34 1773.08 M1527.41 1760.63 Q1529.26 1757.45 1532.06 1755.92 Q1534.89 1754.36 1538.81 1754.36 Q1545.3 1754.36 1549.34 1759.52 Q1553.42 1764.67 1553.42 1773.08 Q1553.42 1781.48 1549.34 1786.64 Q1545.3 1791.79 1538.81 1791.79 Q1534.89 1791.79 1532.06 1790.26 Q1529.26 1788.7 1527.41 1785.52 L1527.41 1790.87 L1521.53 1790.87 L1521.53 1741.34 L1527.41 1741.34 L1527.41 1760.63 Z" fill="#000000" fill-rule="evenodd" fill-opacity="1" /><path clip-path="url(#clip280)" d="M 0 0 M1582.29 1756.27 L1582.29 1761.81 Q1579.8 1760.54 1577.13 1759.9 Q1574.46 1759.26 1571.59 1759.26 Q1567.23 1759.26 1565.04 1760.6 Q1562.87 1761.94 1562.87 1764.61 Q1562.87 1766.65 1564.43 1767.82 Q1565.99 1768.97 1570.7 1770.02 L1572.71 1770.47 Q1578.94 1771.8 1581.55 1774.25 Q1584.2 1776.67 1584.2 1781.03 Q1584.2 1786 1580.25 1788.9 Q1576.33 1791.79 1569.46 1791.79 Q1566.59 1791.79 1563.48 1791.22 Q1560.39 1790.68 1556.95 1789.56 L1556.95 1783.52 Q1560.2 1785.2 1563.35 1786.06 Q1566.5 1786.89 1569.59 1786.89 Q1573.72 1786.89 1575.95 1785.49 Q1578.18 1784.06 1578.18 1781.48 Q1578.18 1779.09 1576.56 1777.82 Q1574.97 1776.55 1569.52 1775.37 L1567.49 1774.89 Q1562.04 1773.75 1559.62 1771.39 Q1557.21 1769 1557.21 1764.86 Q1557.21 1759.84 1560.77 1757.1 Q1564.34 1754.36 1570.89 1754.36 Q1574.14 1754.36 1577 1754.84 Q1579.87 1755.32 1582.29 1756.27 Z" fill="#000000" fill-rule="evenodd" fill-opacity="1" /><path clip-path="url(#clip280)" d="M 0 0 M1620.83 1771.58 L1620.83 1774.45 L1593.9 1774.45 Q1594.29 1780.49 1597.53 1783.68 Q1600.81 1786.83 1606.64 1786.83 Q1610.01 1786.83 1613.16 1786 Q1616.34 1785.17 1619.46 1783.52 L1619.46 1789.05 Q1616.31 1790.39 1613 1791.09 Q1609.69 1791.79 1606.29 1791.79 Q1597.76 1791.79 1592.76 1786.83 Q1587.79 1781.86 1587.79 1773.39 Q1587.79 1764.64 1592.5 1759.52 Q1597.25 1754.36 1605.27 1754.36 Q1612.46 1754.36 1616.63 1759.01 Q1620.83 1763.62 1620.83 1771.58 M1614.97 1769.86 Q1614.91 1765.06 1612.27 1762.19 Q1609.66 1759.33 1605.33 1759.33 Q1600.43 1759.33 1597.47 1762.1 Q1594.54 1764.86 1594.09 1769.89 L1614.97 1769.86 Z" fill="#000000" fill-rule="evenodd" fill-opacity="1" /><path clip-path="url(#clip280)" d="M 0 0 M1647.63 1760.7 Q1646.64 1760.12 1645.47 1759.87 Q1644.32 1759.58 1642.92 1759.58 Q1637.95 1759.58 1635.28 1762.83 Q1632.64 1766.04 1632.64 1772.09 L1632.64 1790.87 L1626.75 1790.87 L1626.75 1755.22 L1632.64 1755.22 L1632.64 1760.76 Q1634.49 1757.51 1637.45 1755.95 Q1640.41 1754.36 1644.64 1754.36 Q1645.24 1754.36 1645.98 1754.46 Q1646.71 1754.52 1647.6 1754.68 L1647.63 1760.7 Z" fill="#000000" fill-rule="evenodd" fill-opacity="1" /><path clip-path="url(#clip280)" d="M 0 0 M1649.57 1755.22 L1655.78 1755.22 L1666.92 1785.14 L1678.06 1755.22 L1684.26 1755.22 L1670.9 1790.87 L1662.94 1790.87 L1649.57 1755.22 Z" fill="#000000" fill-rule="evenodd" fill-opacity="1" /><path clip-path="url(#clip280)" d="M 0 0 M1706.61 1772.95 Q1699.51 1772.95 1696.77 1774.57 Q1694.04 1776.2 1694.04 1780.11 Q1694.04 1783.23 1696.07 1785.08 Q1698.14 1786.89 1701.68 1786.89 Q1706.54 1786.89 1709.47 1783.45 Q1712.43 1779.98 1712.43 1774.25 L1712.43 1772.95 L1706.61 1772.95 M1718.29 1770.53 L1718.29 1790.87 L1712.43 1790.87 L1712.43 1785.46 Q1710.43 1788.7 1707.44 1790.26 Q1704.44 1791.79 1700.12 1791.79 Q1694.64 1791.79 1691.39 1788.74 Q1688.18 1785.65 1688.18 1780.49 Q1688.18 1774.48 1692.19 1771.42 Q1696.23 1768.37 1704.22 1768.37 L1712.43 1768.37 L1712.43 1767.79 Q1712.43 1763.75 1709.76 1761.55 Q1707.12 1759.33 1702.31 1759.33 Q1699.26 1759.33 1696.36 1760.06 Q1693.46 1760.79 1690.79 1762.25 L1690.79 1756.84 Q1694 1755.6 1697.03 1755 Q1700.05 1754.36 1702.92 1754.36 Q1710.65 1754.36 1714.47 1758.37 Q1718.29 1762.38 1718.29 1770.53 Z" fill="#000000" fill-rule="evenodd" fill-opacity="1" /><path clip-path="url(#clip280)" d="M 0 0 M1730.23 1745.1 L1730.23 1755.22 L1742.29 1755.22 L1742.29 1759.77 L1730.23 1759.77 L1730.23 1779.12 Q1730.23 1783.48 1731.4 1784.73 Q1732.61 1785.97 1736.27 1785.97 L1742.29 1785.97 L1742.29 1790.87 L1736.27 1790.87 Q1729.49 1790.87 1726.92 1788.35 Q1724.34 1785.81 1724.34 1779.12 L1724.34 1759.77 L1720.04 1759.77 L1720.04 1755.22 L1724.34 1755.22 L1724.34 1745.1 L1730.23 1745.1 Z" fill="#000000" fill-rule="evenodd" fill-opacity="1" /><path clip-path="url(#clip280)" d="M 0 0 M1748.43 1755.22 L1754.29 1755.22 L1754.29 1790.87 L1748.43 1790.87 L1748.43 1755.22 M1748.43 1741.34 L1754.29 1741.34 L1754.29 1748.76 L1748.43 1748.76 L1748.43 1741.34 Z" fill="#000000" fill-rule="evenodd" fill-opacity="1" /><path clip-path="url(#clip280)" d="M 0 0 M1774.24 1759.33 Q1769.53 1759.33 1766.8 1763.02 Q1764.06 1766.68 1764.06 1773.08 Q1764.06 1779.47 1766.76 1783.17 Q1769.5 1786.83 1774.24 1786.83 Q1778.92 1786.83 1781.66 1783.13 Q1784.4 1779.44 1784.4 1773.08 Q1784.4 1766.74 1781.66 1763.05 Q1778.92 1759.33 1774.24 1759.33 M1774.24 1754.36 Q1781.88 1754.36 1786.24 1759.33 Q1790.6 1764.29 1790.6 1773.08 Q1790.6 1781.83 1786.24 1786.83 Q1781.88 1791.79 1774.24 1791.79 Q1766.57 1791.79 1762.21 1786.83 Q1757.88 1781.83 1757.88 1773.08 Q1757.88 1764.29 1762.21 1759.33 Q1766.57 1754.36 1774.24 1754.36 Z" fill="#000000" fill-rule="evenodd" fill-opacity="1" /><path clip-path="url(#clip280)" d="M 0 0 M1826.38 1769.35 L1826.38 1790.87 L1820.52 1790.87 L1820.52 1769.54 Q1820.52 1764.48 1818.55 1761.97 Q1816.58 1759.45 1812.63 1759.45 Q1807.89 1759.45 1805.15 1762.48 Q1802.41 1765.5 1802.41 1770.72 L1802.41 1790.87 L1796.52 1790.87 L1796.52 1755.22 L1802.41 1755.22 L1802.41 1760.76 Q1804.51 1757.54 1807.35 1755.95 Q1810.21 1754.36 1813.93 1754.36 Q1820.08 1754.36 1823.23 1758.18 Q1826.38 1761.97 1826.38 1769.35 Z" fill="#000000" fill-rule="evenodd" fill-opacity="1" /><path clip-path="url(#clip280)" d="M 0 0 M1855.25 1756.27 L1855.25 1761.81 Q1852.77 1760.54 1850.09 1759.9 Q1847.42 1759.26 1844.55 1759.26 Q1840.19 1759.26 1838 1760.6 Q1835.83 1761.94 1835.83 1764.61 Q1835.83 1766.65 1837.39 1767.82 Q1838.95 1768.97 1843.66 1770.02 L1845.67 1770.47 Q1851.91 1771.8 1854.52 1774.25 Q1857.16 1776.67 1857.16 1781.03 Q1857.16 1786 1853.21 1788.9 Q1849.3 1791.79 1842.42 1791.79 Q1839.56 1791.79 1836.44 1791.22 Q1833.35 1790.68 1829.91 1789.56 L1829.91 1783.52 Q1833.16 1785.2 1836.31 1786.06 Q1839.46 1786.89 1842.55 1786.89 Q1846.69 1786.89 1848.91 1785.49 Q1851.14 1784.06 1851.14 1781.48 Q1851.14 1779.09 1849.52 1777.82 Q1847.93 1776.55 1842.48 1775.37 L1840.45 1774.89 Q1835 1773.75 1832.59 1771.39 Q1830.17 1769 1830.17 1764.86 Q1830.17 1759.84 1833.73 1757.1 Q1837.3 1754.36 1843.85 1754.36 Q1847.1 1754.36 1849.96 1754.84 Q1852.83 1755.32 1855.25 1756.27 Z" fill="#000000" fill-rule="evenodd" fill-opacity="1" /><polyline clip-path="url(#clip282)" style="stroke:#000000; stroke-width:2; stroke-opacity:0.1; fill:none" points="
  176.02,1590.99 3152.76,1590.99 
  "/>
<polyline clip-path="url(#clip282)" style="stroke:#000000; stroke-width:2; stroke-opacity:0.1; fill:none" points="
  176.02,1181.29 3152.76,1181.29 
  "/>
<polyline clip-path="url(#clip282)" style="stroke:#000000; stroke-width:2; stroke-opacity:0.1; fill:none" points="
  176.02,771.589 3152.76,771.589 
  "/>
<polyline clip-path="url(#clip282)" style="stroke:#000000; stroke-width:2; stroke-opacity:0.1; fill:none" points="
  176.02,361.89 3152.76,361.89 
  "/>
<polyline clip-path="url(#clip280)" style="stroke:#000000; stroke-width:4; stroke-opacity:1; fill:none" points="
  176.02,1634 176.02,114.022 
  "/>
<polyline clip-path="url(#clip280)" style="stroke:#000000; stroke-width:4; stroke-opacity:1; fill:none" points="
  176.02,1590.99 211.741,1590.99 
  "/>
<polyline clip-path="url(#clip280)" style="stroke:#000000; stroke-width:4; stroke-opacity:1; fill:none" points="
  176.02,1181.29 211.741,1181.29 
  "/>
<polyline clip-path="url(#clip280)" style="stroke:#000000; stroke-width:4; stroke-opacity:1; fill:none" points="
  176.02,771.589 211.741,771.589 
  "/>
<polyline clip-path="url(#clip280)" style="stroke:#000000; stroke-width:4; stroke-opacity:1; fill:none" points="
  176.02,361.89 211.741,361.89 
  "/>
<path clip-path="url(#clip280)" d="M 0 0 M116.076 1576.79 Q112.465 1576.79 110.636 1580.35 Q108.83 1583.89 108.83 1591.02 Q108.83 1598.13 110.636 1601.69 Q112.465 1605.23 116.076 1605.23 Q119.71 1605.23 121.516 1601.69 Q123.344 1598.13 123.344 1591.02 Q123.344 1583.89 121.516 1580.35 Q119.71 1576.79 116.076 1576.79 M116.076 1573.08 Q121.886 1573.08 124.942 1577.69 Q128.02 1582.27 128.02 1591.02 Q128.02 1599.75 124.942 1604.35 Q121.886 1608.94 116.076 1608.94 Q110.266 1608.94 107.187 1604.35 Q104.131 1599.75 104.131 1591.02 Q104.131 1582.27 107.187 1577.69 Q110.266 1573.08 116.076 1573.08 Z" fill="#000000" fill-rule="evenodd" fill-opacity="1" /><path clip-path="url(#clip280)" d="M 0 0 M111.701 1194.63 L128.02 1194.63 L128.02 1198.57 L106.076 1198.57 L106.076 1194.63 Q108.738 1191.88 113.321 1187.25 Q117.928 1182.6 119.108 1181.25 Q121.354 1178.73 122.233 1176.99 Q123.136 1175.23 123.136 1173.54 Q123.136 1170.79 121.192 1169.05 Q119.27 1167.32 116.168 1167.32 Q113.969 1167.32 111.516 1168.08 Q109.085 1168.85 106.307 1170.4 L106.307 1165.67 Q109.131 1164.54 111.585 1163.96 Q114.039 1163.38 116.076 1163.38 Q121.446 1163.38 124.641 1166.07 Q127.835 1168.75 127.835 1173.24 Q127.835 1175.37 127.025 1177.29 Q126.238 1179.19 124.131 1181.79 Q123.553 1182.46 120.451 1185.67 Q117.349 1188.87 111.701 1194.63 Z" fill="#000000" fill-rule="evenodd" fill-opacity="1" /><path clip-path="url(#clip280)" d="M 0 0 M118.437 758.383 L106.631 776.832 L118.437 776.832 L118.437 758.383 M117.21 754.309 L123.09 754.309 L123.09 776.832 L128.02 776.832 L128.02 780.721 L123.09 780.721 L123.09 788.869 L118.437 788.869 L118.437 780.721 L102.835 780.721 L102.835 776.207 L117.21 754.309 Z" fill="#000000" fill-rule="evenodd" fill-opacity="1" /><path clip-path="url(#clip280)" d="M 0 0 M116.492 360.027 Q113.344 360.027 111.493 362.179 Q109.664 364.332 109.664 368.082 Q109.664 371.809 111.493 373.985 Q113.344 376.138 116.492 376.138 Q119.641 376.138 121.469 373.985 Q123.321 371.809 123.321 368.082 Q123.321 364.332 121.469 362.179 Q119.641 360.027 116.492 360.027 M125.775 345.374 L125.775 349.633 Q124.016 348.8 122.21 348.36 Q120.428 347.92 118.668 347.92 Q114.039 347.92 111.585 351.045 Q109.155 354.17 108.807 360.489 Q110.173 358.476 112.233 357.411 Q114.293 356.323 116.77 356.323 Q121.979 356.323 124.988 359.494 Q128.02 362.642 128.02 368.082 Q128.02 373.406 124.872 376.624 Q121.724 379.841 116.492 379.841 Q110.497 379.841 107.326 375.258 Q104.155 370.651 104.155 361.925 Q104.155 353.73 108.043 348.869 Q111.932 343.985 118.483 343.985 Q120.242 343.985 122.025 344.332 Q123.83 344.679 125.775 345.374 Z" fill="#000000" fill-rule="evenodd" fill-opacity="1" /><path clip-path="url(#clip280)" d="M 0 0 M-3.28056 920.595 L3.49892 920.595 Q0.475206 923.841 -1.02074 927.533 Q-2.51668 931.193 -2.51668 935.331 Q-2.51668 943.479 2.4804 947.808 Q7.44565 952.137 16.8669 952.137 Q26.2563 952.137 31.2534 947.808 Q36.2186 943.479 36.2186 935.331 Q36.2186 931.193 34.7227 927.533 Q33.2268 923.841 30.2031 920.595 L36.9189 920.595 Q39.2105 923.968 40.3564 927.756 Q41.5022 931.512 41.5022 935.713 Q41.5022 946.503 34.9137 952.71 Q28.2933 958.916 16.8669 958.916 Q5.40863 958.916 -1.17988 952.71 Q-7.80021 946.503 -7.80021 935.713 Q-7.80021 931.448 -6.65439 927.692 Q-5.54039 923.905 -3.28056 920.595 Z" fill="#000000" fill-rule="evenodd" fill-opacity="1" /><path clip-path="url(#clip280)" d="M 0 0 M9.03708 900.638 Q9.03708 905.349 12.7292 908.086 Q16.3895 910.823 22.787 910.823 Q29.1845 910.823 32.8767 908.118 Q36.5369 905.381 36.5369 900.638 Q36.5369 895.959 32.8448 893.222 Q29.1527 890.485 22.787 890.485 Q16.4531 890.485 12.761 893.222 Q9.03708 895.959 9.03708 900.638 M4.07183 900.638 Q4.07183 892.999 9.03708 888.639 Q14.0023 884.278 22.787 884.278 Q31.5399 884.278 36.5369 888.639 Q41.5022 892.999 41.5022 900.638 Q41.5022 908.309 36.5369 912.669 Q31.5399 916.998 22.787 916.998 Q14.0023 916.998 9.03708 912.669 Q4.07183 908.309 4.07183 900.638 Z" fill="#000000" fill-rule="evenodd" fill-opacity="1" /><path clip-path="url(#clip280)" d="M 0 0 M26.5109 878.74 L4.9312 878.74 L4.9312 872.884 L26.2881 872.884 Q31.3489 872.884 33.8952 870.91 Q36.4096 868.937 36.4096 864.99 Q36.4096 860.248 33.3859 857.51 Q30.3622 854.741 25.1423 854.741 L4.9312 854.741 L4.9312 848.885 L40.5792 848.885 L40.5792 854.741 L35.1046 854.741 Q38.3512 856.874 39.9426 859.707 Q41.5022 862.507 41.5022 866.231 Q41.5022 872.374 37.6828 875.557 Q33.8633 878.74 26.5109 878.74 M4.07183 864.003 L4.07183 864.003 Z" fill="#000000" fill-rule="evenodd" fill-opacity="1" /><path clip-path="url(#clip280)" d="M 0 0 M19.0631 813.11 L40.5792 813.11 L40.5792 818.966 L19.254 818.966 Q14.1933 818.966 11.6788 820.939 Q9.1644 822.913 9.1644 826.86 Q9.1644 831.602 12.1881 834.339 Q15.2118 837.076 20.4317 837.076 L40.5792 837.076 L40.5792 842.965 L4.9312 842.965 L4.9312 837.076 L10.4694 837.076 Q7.25468 834.976 5.66326 832.143 Q4.07183 829.278 4.07183 825.555 Q4.07183 819.412 7.89125 816.261 Q11.6788 813.11 19.0631 813.11 Z" fill="#000000" fill-rule="evenodd" fill-opacity="1" /><path clip-path="url(#clip280)" d="M 0 0 M-5.19027 801.174 L4.9312 801.174 L4.9312 789.111 L9.48268 789.111 L9.48268 801.174 L28.8344 801.174 Q33.1949 801.174 34.4363 799.996 Q35.6776 798.787 35.6776 795.126 L35.6776 789.111 L40.5792 789.111 L40.5792 795.126 Q40.5792 801.906 38.0647 804.484 Q35.5184 807.062 28.8344 807.062 L9.48268 807.062 L9.48268 811.359 L4.9312 811.359 L4.9312 807.062 L-5.19027 807.062 L-5.19027 801.174 Z" fill="#000000" fill-rule="evenodd" fill-opacity="1" /><path clip-path="url(#clip280)" d="M 0 0 M1313.03 18.8205 L1313.03 41.5461 L1323.32 41.5461 Q1329.03 41.5461 1332.15 38.5889 Q1335.27 35.6318 1335.27 30.163 Q1335.27 24.7348 1332.15 21.7777 Q1329.03 18.8205 1323.32 18.8205 L1313.03 18.8205 M1304.85 12.096 L1323.32 12.096 Q1333.49 12.096 1338.68 16.714 Q1343.9 21.2916 1343.9 30.163 Q1343.9 39.1155 1338.68 43.6931 Q1333.49 48.2706 1323.32 48.2706 L1313.03 48.2706 L1313.03 72.576 L1304.85 72.576 L1304.85 12.096 Z" fill="#000000" fill-rule="evenodd" fill-opacity="1" /><path clip-path="url(#clip280)" d="M 0 0 M1351.72 9.54393 L1359.17 9.54393 L1359.17 72.576 L1351.72 72.576 L1351.72 9.54393 Z" fill="#000000" fill-rule="evenodd" fill-opacity="1" /><path clip-path="url(#clip280)" d="M 0 0 M1384.57 32.4315 Q1378.58 32.4315 1375.09 37.1306 Q1371.61 41.7891 1371.61 49.9314 Q1371.61 58.0738 1375.05 62.7728 Q1378.54 67.4314 1384.57 67.4314 Q1390.53 67.4314 1394.01 62.7323 Q1397.49 58.0333 1397.49 49.9314 Q1397.49 41.8701 1394.01 37.1711 Q1390.53 32.4315 1384.57 32.4315 M1384.57 26.1121 Q1394.29 26.1121 1399.84 32.4315 Q1405.39 38.7509 1405.39 49.9314 Q1405.39 61.0714 1399.84 67.4314 Q1394.29 73.7508 1384.57 73.7508 Q1374.81 73.7508 1369.26 67.4314 Q1363.75 61.0714 1363.75 49.9314 Q1363.75 38.7509 1369.26 32.4315 Q1374.81 26.1121 1384.57 26.1121 Z" fill="#000000" fill-rule="evenodd" fill-opacity="1" /><path clip-path="url(#clip280)" d="M 0 0 M1420.58 14.324 L1420.58 27.2059 L1435.94 27.2059 L1435.94 32.9987 L1420.58 32.9987 L1420.58 57.6282 Q1420.58 63.1779 1422.08 64.7578 Q1423.62 66.3376 1428.28 66.3376 L1435.94 66.3376 L1435.94 72.576 L1428.28 72.576 Q1419.65 72.576 1416.37 69.3758 Q1413.09 66.1351 1413.09 57.6282 L1413.09 32.9987 L1407.62 32.9987 L1407.62 27.2059 L1413.09 27.2059 L1413.09 14.324 L1420.58 14.324 Z" fill="#000000" fill-rule="evenodd" fill-opacity="1" /><path clip-path="url(#clip280)" d="M 0 0 M1472.68 28.5427 L1472.68 35.5912 Q1469.52 33.9709 1466.12 33.1607 Q1462.71 32.3505 1459.07 32.3505 Q1453.52 32.3505 1450.72 34.0519 Q1447.97 35.7533 1447.97 39.156 Q1447.97 41.7486 1449.95 43.2475 Q1451.94 44.7058 1457.93 46.0426 L1460.49 46.6097 Q1468.43 48.3111 1471.75 51.4303 Q1475.11 54.509 1475.11 60.0587 Q1475.11 66.3781 1470.09 70.0644 Q1465.1 73.7508 1456.35 73.7508 Q1452.71 73.7508 1448.74 73.0216 Q1444.81 72.3329 1440.43 70.9151 L1440.43 63.2184 Q1444.57 65.3654 1448.58 66.4591 Q1452.59 67.5124 1456.52 67.5124 Q1461.78 67.5124 1464.62 65.73 Q1467.45 63.9071 1467.45 60.6258 Q1467.45 57.5877 1465.39 55.9673 Q1463.36 54.3469 1456.43 52.8481 L1453.84 52.2405 Q1446.92 50.7821 1443.84 47.7845 Q1440.76 44.7463 1440.76 39.4801 Q1440.76 33.0797 1445.29 29.5959 Q1449.83 26.1121 1458.18 26.1121 Q1462.31 26.1121 1465.95 26.7198 Q1469.6 27.3274 1472.68 28.5427 Z" fill="#000000" fill-rule="evenodd" fill-opacity="1" /><path clip-path="url(#clip280)" d="M 0 0 M1496.17 12.096 L1503.06 12.096 L1482 80.2727 L1475.11 80.2727 L1496.17 12.096 Z" fill="#000000" fill-rule="evenodd" fill-opacity="1" /><path clip-path="url(#clip280)" d="M 0 0 M1552.44 63.9476 L1552.44 47.7034 L1539.07 47.7034 L1539.07 40.9789 L1560.54 40.9789 L1560.54 66.9452 Q1555.8 70.3075 1550.09 72.0494 Q1544.38 73.7508 1537.9 73.7508 Q1523.72 73.7508 1515.7 65.4869 Q1507.72 57.1826 1507.72 42.3968 Q1507.72 27.5705 1515.7 19.3066 Q1523.72 11.0023 1537.9 11.0023 Q1543.81 11.0023 1549.12 12.4606 Q1554.47 13.9189 1558.96 16.7545 L1558.96 25.464 Q1554.43 21.6156 1549.32 19.6712 Q1544.22 17.7268 1538.59 17.7268 Q1527.49 17.7268 1521.9 23.9246 Q1516.35 30.1225 1516.35 42.3968 Q1516.35 54.6305 1521.9 60.8284 Q1527.49 67.0263 1538.59 67.0263 Q1542.92 67.0263 1546.32 66.2971 Q1549.73 65.5274 1552.44 63.9476 Z" fill="#000000" fill-rule="evenodd" fill-opacity="1" /><path clip-path="url(#clip280)" d="M 0 0 M1597.37 44.2197 Q1600 45.1109 1602.47 48.0275 Q1604.98 50.9442 1607.49 56.0483 L1615.8 72.576 L1607.01 72.576 L1599.27 57.061 Q1596.27 50.9847 1593.44 48.9997 Q1590.64 47.0148 1585.78 47.0148 L1576.87 47.0148 L1576.87 72.576 L1568.69 72.576 L1568.69 12.096 L1587.16 12.096 Q1597.53 12.096 1602.63 16.4305 Q1607.74 20.7649 1607.74 29.5149 Q1607.74 35.2267 1605.06 38.994 Q1602.43 42.7613 1597.37 44.2197 M1576.87 18.8205 L1576.87 40.2903 L1587.16 40.2903 Q1593.07 40.2903 1596.07 37.5762 Q1599.11 34.8216 1599.11 29.5149 Q1599.11 24.2082 1596.07 21.5346 Q1593.07 18.8205 1587.16 18.8205 L1576.87 18.8205 Z" fill="#000000" fill-rule="evenodd" fill-opacity="1" /><path clip-path="url(#clip280)" d="M 0 0 M1650.31 12.096 L1658.49 12.096 L1658.49 36.8875 L1688.23 36.8875 L1688.23 12.096 L1696.41 12.096 L1696.41 72.576 L1688.23 72.576 L1688.23 43.7741 L1658.49 43.7741 L1658.49 72.576 L1650.31 72.576 L1650.31 12.096 Z" fill="#000000" fill-rule="evenodd" fill-opacity="1" /><path clip-path="url(#clip280)" d="M 0 0 M1704.23 27.2059 L1711.68 27.2059 L1711.68 72.576 L1704.23 72.576 L1704.23 27.2059 M1704.23 9.54393 L1711.68 9.54393 L1711.68 18.9825 L1704.23 18.9825 L1704.23 9.54393 Z" fill="#000000" fill-rule="evenodd" fill-opacity="1" /><path clip-path="url(#clip280)" d="M 0 0 M1748.42 28.5427 L1748.42 35.5912 Q1745.26 33.9709 1741.86 33.1607 Q1738.46 32.3505 1734.81 32.3505 Q1729.26 32.3505 1726.47 34.0519 Q1723.71 35.7533 1723.71 39.156 Q1723.71 41.7486 1725.7 43.2475 Q1727.68 44.7058 1733.68 46.0426 L1736.23 46.6097 Q1744.17 48.3111 1747.49 51.4303 Q1750.85 54.509 1750.85 60.0587 Q1750.85 66.3781 1745.83 70.0644 Q1740.85 73.7508 1732.1 73.7508 Q1728.45 73.7508 1724.48 73.0216 Q1720.55 72.3329 1716.18 70.9151 L1716.18 63.2184 Q1720.31 65.3654 1724.32 66.4591 Q1728.33 67.5124 1732.26 67.5124 Q1737.53 67.5124 1740.36 65.73 Q1743.2 63.9071 1743.2 60.6258 Q1743.2 57.5877 1741.13 55.9673 Q1739.11 54.3469 1732.18 52.8481 L1729.59 52.2405 Q1722.66 50.7821 1719.58 47.7845 Q1716.5 44.7463 1716.5 39.4801 Q1716.5 33.0797 1721.04 29.5959 Q1725.58 26.1121 1733.92 26.1121 Q1738.05 26.1121 1741.7 26.7198 Q1745.35 27.3274 1748.42 28.5427 Z" fill="#000000" fill-rule="evenodd" fill-opacity="1" /><path clip-path="url(#clip280)" d="M 0 0 M1766.05 14.324 L1766.05 27.2059 L1781.4 27.2059 L1781.4 32.9987 L1766.05 32.9987 L1766.05 57.6282 Q1766.05 63.1779 1767.54 64.7578 Q1769.08 66.3376 1773.74 66.3376 L1781.4 66.3376 L1781.4 72.576 L1773.74 72.576 Q1765.11 72.576 1761.83 69.3758 Q1758.55 66.1351 1758.55 57.6282 L1758.55 32.9987 L1753.08 32.9987 L1753.08 27.2059 L1758.55 27.2059 L1758.55 14.324 L1766.05 14.324 Z" fill="#000000" fill-rule="evenodd" fill-opacity="1" /><path clip-path="url(#clip280)" d="M 0 0 M1806.8 32.4315 Q1800.8 32.4315 1797.32 37.1306 Q1793.83 41.7891 1793.83 49.9314 Q1793.83 58.0738 1797.28 62.7728 Q1800.76 67.4314 1806.8 67.4314 Q1812.75 67.4314 1816.24 62.7323 Q1819.72 58.0333 1819.72 49.9314 Q1819.72 41.8701 1816.24 37.1711 Q1812.75 32.4315 1806.8 32.4315 M1806.8 26.1121 Q1816.52 26.1121 1822.07 32.4315 Q1827.62 38.7509 1827.62 49.9314 Q1827.62 61.0714 1822.07 67.4314 Q1816.52 73.7508 1806.8 73.7508 Q1797.03 73.7508 1791.49 67.4314 Q1785.98 61.0714 1785.98 49.9314 Q1785.98 38.7509 1791.49 32.4315 Q1797.03 26.1121 1806.8 26.1121 Z" fill="#000000" fill-rule="evenodd" fill-opacity="1" /><path clip-path="url(#clip280)" d="M 0 0 M1865.29 49.3643 Q1865.29 41.2625 1861.93 36.8065 Q1858.61 32.3505 1852.57 32.3505 Q1846.58 32.3505 1843.22 36.8065 Q1839.89 41.2625 1839.89 49.3643 Q1839.89 57.4256 1843.22 61.8816 Q1846.58 66.3376 1852.57 66.3376 Q1858.61 66.3376 1861.93 61.8816 Q1865.29 57.4256 1865.29 49.3643 M1872.75 66.9452 Q1872.75 78.5308 1867.6 84.1616 Q1862.46 89.8329 1851.84 89.8329 Q1847.91 89.8329 1844.43 89.2252 Q1840.95 88.6581 1837.67 87.4428 L1837.67 80.1917 Q1840.95 81.9741 1844.15 82.8248 Q1847.35 83.6755 1850.67 83.6755 Q1858 83.6755 1861.65 79.8271 Q1865.29 76.0193 1865.29 68.282 L1865.29 64.5957 Q1862.98 68.6061 1859.38 70.5911 Q1855.77 72.576 1850.75 72.576 Q1842.41 72.576 1837.3 66.2161 Q1832.2 59.8562 1832.2 49.3643 Q1832.2 38.832 1837.3 32.472 Q1842.41 26.1121 1850.75 26.1121 Q1855.77 26.1121 1859.38 28.0971 Q1862.98 30.082 1865.29 34.0924 L1865.29 27.2059 L1872.75 27.2059 L1872.75 66.9452 Z" fill="#000000" fill-rule="evenodd" fill-opacity="1" /><path clip-path="url(#clip280)" d="M 0 0 M1906.85 34.1734 Q1905.6 33.4443 1904.1 33.1202 Q1902.64 32.7556 1900.86 32.7556 Q1894.54 32.7556 1891.14 36.8875 Q1887.78 40.9789 1887.78 48.6757 L1887.78 72.576 L1880.28 72.576 L1880.28 27.2059 L1887.78 27.2059 L1887.78 34.2544 Q1890.12 30.1225 1893.89 28.1376 Q1897.66 26.1121 1903.05 26.1121 Q1903.82 26.1121 1904.75 26.2337 Q1905.68 26.3147 1906.81 26.5172 L1906.85 34.1734 Z" fill="#000000" fill-rule="evenodd" fill-opacity="1" /><path clip-path="url(#clip280)" d="M 0 0 M1935.29 49.7694 Q1926.26 49.7694 1922.77 51.8354 Q1919.29 53.9013 1919.29 58.8839 Q1919.29 62.8538 1921.88 65.2034 Q1924.52 67.5124 1929.01 67.5124 Q1935.21 67.5124 1938.94 63.1374 Q1942.71 58.7219 1942.71 51.4303 L1942.71 49.7694 L1935.29 49.7694 M1950.16 46.6907 L1950.16 72.576 L1942.71 72.576 L1942.71 65.6895 Q1940.15 69.8214 1936.35 71.8063 Q1932.54 73.7508 1927.03 73.7508 Q1920.06 73.7508 1915.93 69.8619 Q1911.84 65.9325 1911.84 59.3701 Q1911.84 51.7138 1916.94 47.825 Q1922.09 43.9361 1932.25 43.9361 L1942.71 43.9361 L1942.71 43.2069 Q1942.71 38.0623 1939.3 35.2672 Q1935.94 32.4315 1929.82 32.4315 Q1925.93 32.4315 1922.25 33.3632 Q1918.56 34.295 1915.16 36.1584 L1915.16 29.2718 Q1919.25 27.692 1923.1 26.9223 Q1926.95 26.1121 1930.59 26.1121 Q1940.44 26.1121 1945.3 31.2163 Q1950.16 36.3204 1950.16 46.6907 Z" fill="#000000" fill-rule="evenodd" fill-opacity="1" /><path clip-path="url(#clip280)" d="M 0 0 M1993.3 35.9153 Q1996.1 30.8922 1999.99 28.5022 Q2003.87 26.1121 2009.14 26.1121 Q2016.23 26.1121 2020.08 31.0947 Q2023.93 36.0368 2023.93 45.1919 L2023.93 72.576 L2016.43 72.576 L2016.43 45.4349 Q2016.43 38.913 2014.12 35.7533 Q2011.81 32.5936 2007.07 32.5936 Q2001.28 32.5936 1997.92 36.4419 Q1994.56 40.2903 1994.56 46.9338 L1994.56 72.576 L1987.06 72.576 L1987.06 45.4349 Q1987.06 38.8725 1984.75 35.7533 Q1982.44 32.5936 1977.62 32.5936 Q1971.91 32.5936 1968.55 36.4824 Q1965.19 40.3308 1965.19 46.9338 L1965.19 72.576 L1957.69 72.576 L1957.69 27.2059 L1965.19 27.2059 L1965.19 34.2544 Q1967.74 30.082 1971.3 28.0971 Q1974.87 26.1121 1979.77 26.1121 Q1984.71 26.1121 1988.16 28.6237 Q1991.64 31.1352 1993.3 35.9153 Z" fill="#000000" fill-rule="evenodd" fill-opacity="1" /><path clip-path="url(#clip282)" d="
M339.746 1386.14 L339.746 1590.99 L519.358 1590.99 L519.358 1386.14 L339.746 1386.14 L339.746 1386.14  Z
  " fill="#1e90ff" fill-rule="evenodd" fill-opacity="0.5"/>
<polyline clip-path="url(#clip282)" style="stroke:#000000; stroke-width:4; stroke-opacity:0.5; fill:none" points="
  339.746,1386.14 339.746,1590.99 519.358,1590.99 519.358,1386.14 339.746,1386.14 
  "/>
<path clip-path="url(#clip282)" d="
M564.262 1386.14 L564.262 1590.99 L743.874 1590.99 L743.874 1386.14 L564.262 1386.14 L564.262 1386.14  Z
  " fill="#1e90ff" fill-rule="evenodd" fill-opacity="0.5"/>
<polyline clip-path="url(#clip282)" style="stroke:#000000; stroke-width:4; stroke-opacity:0.5; fill:none" points="
  564.262,1386.14 564.262,1590.99 743.874,1590.99 743.874,1386.14 564.262,1386.14 
  "/>
<path clip-path="url(#clip282)" d="
M788.777 1590.99 L788.777 1590.99 L968.39 1590.99 L968.39 1590.99 L788.777 1590.99 L788.777 1590.99  Z
  " fill="#1e90ff" fill-rule="evenodd" fill-opacity="0.5"/>
<polyline clip-path="url(#clip282)" style="stroke:#000000; stroke-width:4; stroke-opacity:0.5; fill:none" points="
  788.777,1590.99 788.777,1590.99 968.39,1590.99 788.777,1590.99 
  "/>
<path clip-path="url(#clip282)" d="
M1013.29 1181.29 L1013.29 1590.99 L1192.91 1590.99 L1192.91 1181.29 L1013.29 1181.29 L1013.29 1181.29  Z
  " fill="#1e90ff" fill-rule="evenodd" fill-opacity="0.5"/>
<polyline clip-path="url(#clip282)" style="stroke:#000000; stroke-width:4; stroke-opacity:0.5; fill:none" points="
  1013.29,1181.29 1013.29,1590.99 1192.91,1590.99 1192.91,1181.29 1013.29,1181.29 
  "/>
<path clip-path="url(#clip282)" d="
M1237.81 1386.14 L1237.81 1590.99 L1417.42 1590.99 L1417.42 1386.14 L1237.81 1386.14 L1237.81 1386.14  Z
  " fill="#1e90ff" fill-rule="evenodd" fill-opacity="0.5"/>
<polyline clip-path="url(#clip282)" style="stroke:#000000; stroke-width:4; stroke-opacity:0.5; fill:none" points="
  1237.81,1386.14 1237.81,1590.99 1417.42,1590.99 1417.42,1386.14 1237.81,1386.14 
  "/>
<path clip-path="url(#clip282)" d="
M1462.32 1386.14 L1462.32 1590.99 L1641.94 1590.99 L1641.94 1386.14 L1462.32 1386.14 L1462.32 1386.14  Z
  " fill="#1e90ff" fill-rule="evenodd" fill-opacity="0.5"/>
<polyline clip-path="url(#clip282)" style="stroke:#000000; stroke-width:4; stroke-opacity:0.5; fill:none" points="
  1462.32,1386.14 1462.32,1590.99 1641.94,1590.99 1641.94,1386.14 1462.32,1386.14 
  "/>
<path clip-path="url(#clip282)" d="
M1686.84 1590.99 L1686.84 1590.99 L1866.45 1590.99 L1866.45 1590.99 L1686.84 1590.99 L1686.84 1590.99  Z
  " fill="#1e90ff" fill-rule="evenodd" fill-opacity="0.5"/>
<polyline clip-path="url(#clip282)" style="stroke:#000000; stroke-width:4; stroke-opacity:0.5; fill:none" points="
  1686.84,1590.99 1686.84,1590.99 1866.45,1590.99 1686.84,1590.99 
  "/>
<path clip-path="url(#clip282)" d="
M1911.36 1181.29 L1911.36 1590.99 L2090.97 1590.99 L2090.97 1181.29 L1911.36 1181.29 L1911.36 1181.29  Z
  " fill="#1e90ff" fill-rule="evenodd" fill-opacity="0.5"/>
<polyline clip-path="url(#clip282)" style="stroke:#000000; stroke-width:4; stroke-opacity:0.5; fill:none" points="
  1911.36,1181.29 1911.36,1590.99 2090.97,1590.99 2090.97,1181.29 1911.36,1181.29 
  "/>
<path clip-path="url(#clip282)" d="
M2135.87 157.041 L2135.87 1590.99 L2315.48 1590.99 L2315.48 157.041 L2135.87 157.041 L2135.87 157.041  Z
  " fill="#1e90ff" fill-rule="evenodd" fill-opacity="0.5"/>
<polyline clip-path="url(#clip282)" style="stroke:#000000; stroke-width:4; stroke-opacity:0.5; fill:none" points="
  2135.87,157.041 2135.87,1590.99 2315.48,1590.99 2315.48,157.041 2135.87,157.041 
  "/>
<path clip-path="url(#clip282)" d="
M2360.39 976.438 L2360.39 1590.99 L2540 1590.99 L2540 976.438 L2360.39 976.438 L2360.39 976.438  Z
  " fill="#1e90ff" fill-rule="evenodd" fill-opacity="0.5"/>
<polyline clip-path="url(#clip282)" style="stroke:#000000; stroke-width:4; stroke-opacity:0.5; fill:none" points="
  2360.39,976.438 2360.39,1590.99 2540,1590.99 2540,976.438 2360.39,976.438 
  "/>
<path clip-path="url(#clip282)" d="
M2584.9 1590.99 L2584.9 1590.99 L2764.51 1590.99 L2764.51 1590.99 L2584.9 1590.99 L2584.9 1590.99  Z
  " fill="#1e90ff" fill-rule="evenodd" fill-opacity="0.5"/>
<polyline clip-path="url(#clip282)" style="stroke:#000000; stroke-width:4; stroke-opacity:0.5; fill:none" points="
  2584.9,1590.99 2584.9,1590.99 2764.51,1590.99 2584.9,1590.99 
  "/>
<path clip-path="url(#clip282)" d="
M2809.42 1181.29 L2809.42 1590.99 L2989.03 1590.99 L2989.03 1181.29 L2809.42 1181.29 L2809.42 1181.29  Z
  " fill="#1e90ff" fill-rule="evenodd" fill-opacity="0.5"/>
<polyline clip-path="url(#clip282)" style="stroke:#000000; stroke-width:4; stroke-opacity:0.5; fill:none" points="
  2809.42,1181.29 2809.42,1590.99 2989.03,1590.99 2989.03,1181.29 2809.42,1181.29 
  "/>
<polyline clip-path="url(#clip282)" style="stroke:#008000; stroke-width:4; stroke-opacity:1; fill:none" stroke-dasharray="16, 10" points="
  1263.01,3153.99 1263.01,-1405.96 
  "/>
<polyline clip-path="url(#clip282)" style="stroke:#008000; stroke-width:4; stroke-opacity:1; fill:none" stroke-dasharray="16, 10" points="
  1941.66,3153.99 1941.66,-1405.96 
  "/>
<polyline clip-path="url(#clip282)" style="stroke:#008000; stroke-width:4; stroke-opacity:1; fill:none" stroke-dasharray="16, 10" points="
  2620.32,3153.99 2620.32,-1405.96 
  "/>
</svg>
