<svg class="main-svg" xmlns="http://www.w3.org/2000/svg" xmlns:xlink="http://www.w3.org/1999/xlink" width="700" height="500" style="" viewBox="0 0 700 500"><rect x="0" y="0" width="700" height="500" style="fill: rgb(255, 255, 255); fill-opacity: 1;"/><defs id="defs-4c5e4b"><g class="clips"><clipPath id="clip4c5e4bxyplot" class="plotclip"><rect width="656.4088473315835" height="405.09915427238263"/></clipPath><clipPath class="axesclip" id="clip4c5e4bx"><rect x="40.14627077865267" y="0" width="656.4088473315835" height="500"/></clipPath><clipPath class="axesclip" id="clip4c5e4by"><rect x="0" y="43.901040147759296" width="700" height="405.09915427238263"/></clipPath><clipPath class="axesclip" id="clip4c5e4bxy"><rect x="40.14627077865267" y="43.901040147759296" width="656.4088473315835" height="405.09915427238263"/></clipPath></g><g class="gradients"/></defs><g class="bglayer"/><g class="layer-below"><g class="imagelayer"/><g class="shapelayer"/></g><g class="cartesianlayer"><g class="subplot xy"><g class="layer-subplot"><g class="shapelayer"/><g class="imagelayer"/></g><g class="gridlayer"><g class="x"><path class="xgrid crisp" transform="translate(189.09627077865267,0)" d="M0,43.901040147759296v405.09915427238263" style="stroke: rgb(0, 0, 0); stroke-opacity: 0.1; stroke-width: 0.5px;"/><path class="xgrid crisp" transform="translate(352.0562707786527,0)" d="M0,43.901040147759296v405.09915427238263" style="stroke: rgb(0, 0, 0); stroke-opacity: 0.1; stroke-width: 0.5px;"/><path class="xgrid crisp" transform="translate(515.0162707786527,0)" d="M0,43.901040147759296v405.09915427238263" style="stroke: rgb(0, 0, 0); stroke-opacity: 0.1; stroke-width: 0.5px;"/><path class="xgrid crisp" transform="translate(677.9762707786527,0)" d="M0,43.901040147759296v405.09915427238263" style="stroke: rgb(0, 0, 0); stroke-opacity: 0.1; stroke-width: 0.5px;"/></g><g class="y"><path class="ygrid crisp" transform="translate(0,394.6710401477593)" d="M40.14627077865267,0h656.4088473315835" style="stroke: rgb(0, 0, 0); stroke-opacity: 0.1; stroke-width: 0.5px;"/><path class="ygrid crisp" transform="translate(0,323.2410401477593)" d="M40.14627077865267,0h656.4088473315835" style="stroke: rgb(0, 0, 0); stroke-opacity: 0.1; stroke-width: 0.5px;"/><path class="ygrid crisp" transform="translate(0,251.8110401477593)" d="M40.14627077865267,0h656.4088473315835" style="stroke: rgb(0, 0, 0); stroke-opacity: 0.1; stroke-width: 0.5px;"/><path class="ygrid crisp" transform="translate(0,180.3710401477593)" d="M40.14627077865267,0h656.4088473315835" style="stroke: rgb(0, 0, 0); stroke-opacity: 0.1; stroke-width: 0.5px;"/><path class="ygrid crisp" transform="translate(0,108.94104014775931)" d="M40.14627077865267,0h656.4088473315835" style="stroke: rgb(0, 0, 0); stroke-opacity: 0.1; stroke-width: 0.5px;"/></g></g><g class="zerolinelayer"/><path class="xlines-below"/><path class="ylines-below"/><g class="overlines-below"/><g class="xaxislayer-below"/><g class="yaxislayer-below"/><g class="overaxes-below"/><g class="plot" transform="translate(40.14627077865267,43.901040147759296)" clip-path="url('#clip4c5e4bxyplot')"><g class="scatterlayer mlayer"><g class="trace scatter trace26dcf0" style="stroke-miterlimit: 2; opacity: 1;"><g class="fills"/><g class="errorbars"/><g class="lines"/><g class="points"><path class="point" transform="translate(18.58,122.19)" d="M4,0A4,4 0 1,1 0,-4A4,4 0 0,1 4,0Z" style="opacity: 1; stroke-width: 1px; fill: rgb(30, 144, 255); fill-opacity: 0.5; stroke: rgb(0, 0, 0); stroke-opacity: 0.5;"/><path class="point" transform="translate(51.17,97.19)" d="M4,0A4,4 0 1,1 0,-4A4,4 0 0,1 4,0Z" style="opacity: 1; stroke-width: 1px; fill: rgb(30, 144, 255); fill-opacity: 0.5; stroke: rgb(0, 0, 0); stroke-opacity: 0.5;"/><path class="point" transform="translate(83.76,75.76)" d="M4,0A4,4 0 1,1 0,-4A4,4 0 0,1 4,0Z" style="opacity: 1; stroke-width: 1px; fill: rgb(30, 144, 255); fill-opacity: 0.5; stroke: rgb(0, 0, 0); stroke-opacity: 0.5;"/><path class="point" transform="translate(116.35,29.32)" d="M4,0A4,4 0 1,1 0,-4A4,4 0 0,1 4,0Z" style="opacity: 1; stroke-width: 1px; fill: rgb(30, 144, 255); fill-opacity: 0.5; stroke: rgb(0, 0, 0); stroke-opacity: 0.5;"/><path class="point" transform="translate(148.95,93.61)" d="M4,0A4,4 0 1,1 0,-4A4,4 0 0,1 4,0Z" style="opacity: 1; stroke-width: 1px; fill: rgb(30, 144, 255); fill-opacity: 0.5; stroke: rgb(0, 0, 0); stroke-opacity: 0.5;"/><path class="point" transform="translate(181.54,118.62)" d="M4,0A4,4 0 1,1 0,-4A4,4 0 0,1 4,0Z" style="opacity: 1; stroke-width: 1px; fill: rgb(30, 144, 255); fill-opacity: 0.5; stroke: rgb(0, 0, 0); stroke-opacity: 0.5;"/><path class="point" transform="translate(214.13,11.47)" d="M4,0A4,4 0 1,1 0,-4A4,4 0 0,1 4,0Z" style="opacity: 1; stroke-width: 1px; fill: rgb(30, 144, 255); fill-opacity: 0.5; stroke: rgb(0, 0, 0); stroke-opacity: 0.5;"/><path class="point" transform="translate(246.72,104.33)" d="M4,0A4,4 0 1,1 0,-4A4,4 0 0,1 4,0Z" style="opacity: 1; stroke-width: 1px; fill: rgb(30, 144, 255); fill-opacity: 0.5; stroke: rgb(0, 0, 0); stroke-opacity: 0.5;"/><path class="point" transform="translate(279.32,282.91)" d="M4,0A4,4 0 1,1 0,-4A4,4 0 0,1 4,0Z" style="opacity: 1; stroke-width: 1px; fill: rgb(30, 144, 255); fill-opacity: 0.5; stroke: rgb(0, 0, 0); stroke-opacity: 0.5;"/><path class="point" transform="translate(311.91,232.91)" d="M4,0A4,4 0 1,1 0,-4A4,4 0 0,1 4,0Z" style="opacity: 1; stroke-width: 1px; fill: rgb(30, 144, 255); fill-opacity: 0.5; stroke: rgb(0, 0, 0); stroke-opacity: 0.5;"/><path class="point" transform="translate(344.5,136.47)" d="M4,0A4,4 0 1,1 0,-4A4,4 0 0,1 4,0Z" style="opacity: 1; stroke-width: 1px; fill: rgb(30, 144, 255); fill-opacity: 0.5; stroke: rgb(0, 0, 0); stroke-opacity: 0.5;"/><path class="point" transform="translate(377.09,272.2)" d="M4,0A4,4 0 1,1 0,-4A4,4 0 0,1 4,0Z" style="opacity: 1; stroke-width: 1px; fill: rgb(30, 144, 255); fill-opacity: 0.5; stroke: rgb(0, 0, 0); stroke-opacity: 0.5;"/><path class="point" transform="translate(409.69,154.33)" d="M4,0A4,4 0 1,1 0,-4A4,4 0 0,1 4,0Z" style="opacity: 1; stroke-width: 1px; fill: rgb(30, 144, 255); fill-opacity: 0.5; stroke: rgb(0, 0, 0); stroke-opacity: 0.5;"/><path class="point" transform="translate(442.28,104.33)" d="M4,0A4,4 0 1,1 0,-4A4,4 0 0,1 4,0Z" style="opacity: 1; stroke-width: 1px; fill: rgb(30, 144, 255); fill-opacity: 0.5; stroke: rgb(0, 0, 0); stroke-opacity: 0.5;"/><path class="point" transform="translate(474.87,104.33)" d="M4,0A4,4 0 1,1 0,-4A4,4 0 0,1 4,0Z" style="opacity: 1; stroke-width: 1px; fill: rgb(30, 144, 255); fill-opacity: 0.5; stroke: rgb(0, 0, 0); stroke-opacity: 0.5;"/><path class="point" transform="translate(507.46,393.63)" d="M4,0A4,4 0 1,1 0,-4A4,4 0 0,1 4,0Z" style="opacity: 1; stroke-width: 1px; fill: rgb(30, 144, 255); fill-opacity: 0.5; stroke: rgb(0, 0, 0); stroke-opacity: 0.5;"/><path class="point" transform="translate(540.05,150.76)" d="M4,0A4,4 0 1,1 0,-4A4,4 0 0,1 4,0Z" style="opacity: 1; stroke-width: 1px; fill: rgb(30, 144, 255); fill-opacity: 0.5; stroke: rgb(0, 0, 0); stroke-opacity: 0.5;"/><path class="point" transform="translate(572.65,122.19)" d="M4,0A4,4 0 1,1 0,-4A4,4 0 0,1 4,0Z" style="opacity: 1; stroke-width: 1px; fill: rgb(30, 144, 255); fill-opacity: 0.5; stroke: rgb(0, 0, 0); stroke-opacity: 0.5;"/><path class="point" transform="translate(605.24,379.35)" d="M4,0A4,4 0 1,1 0,-4A4,4 0 0,1 4,0Z" style="opacity: 1; stroke-width: 1px; fill: rgb(30, 144, 255); fill-opacity: 0.5; stroke: rgb(0, 0, 0); stroke-opacity: 0.5;"/><path class="point" transform="translate(637.83,290.06)" d="M4,0A4,4 0 1,1 0,-4A4,4 0 0,1 4,0Z" style="opacity: 1; stroke-width: 1px; fill: rgb(30, 144, 255); fill-opacity: 0.5; stroke: rgb(0, 0, 0); stroke-opacity: 0.5;"/></g><g class="text"/></g><g class="trace scatter trace9fafed" style="stroke-miterlimit: 2; opacity: 1;"><g class="fills"/><g class="errorbars"/><g class="lines"><path class="js-line" d="M18.58,62.34L637.83,265.26" style="vector-effect: non-scaling-stroke; fill: none; stroke: rgb(30, 144, 255); stroke-opacity: 0.5; stroke-width: 1px; opacity: 1;"/></g><g class="points"/><g class="text"/></g><g class="trace scatter tracec2e498" style="stroke-miterlimit: 2; opacity: 1;"><g class="fills"/><g class="errorbars"/><g class="lines"><path class="js-line" d="M-13128.17694663167,271.76L-13128.176946631676,271.76L13784.58579396324,271.76L13784.585793963253,271.76" style="vector-effect: non-scaling-stroke; fill: none; stroke: rgb(0, 128, 0); stroke-opacity: 1; stroke-width: 1px; opacity: 1; stroke-dasharray: 9px, 9px;"/></g><g class="points"/><g class="text"/></g><g class="trace scatter tracedc3ae7" style="stroke-miterlimit: 2; opacity: 1;"><g class="fills"/><g class="errorbars"/><g class="lines"><path class="js-line" d="M-13128.17694663167,163.8L-13128.176946631676,163.8L13784.58579396324,163.8L13784.585793963253,163.8" style="vector-effect: non-scaling-stroke; fill: none; stroke: rgb(0, 128, 0); stroke-opacity: 1; stroke-width: 1px; opacity: 1; stroke-dasharray: 9px, 9px;"/></g><g class="points"/><g class="text"/></g><g class="trace scatter trace5d6d3a" style="stroke-miterlimit: 2; opacity: 1;"><g class="fills"/><g class="errorbars"/><g class="lines"><path class="js-line" d="M-13128.17694663167,55.83L-13128.176946631676,55.83L13784.58579396324,55.83L13784.585793963253,55.83" style="vector-effect: non-scaling-stroke; fill: none; stroke: rgb(0, 128, 0); stroke-opacity: 1; stroke-width: 1px; opacity: 1; stroke-dasharray: 9px, 9px;"/></g><g class="points"/><g class="text"/></g></g></g><g class="overplot"/><path class="xlines-above crisp" d="M39.14627077865267,449.50019442014195H696.5551181102362" style="fill: none; stroke-width: 1px; stroke: rgb(0, 0, 0); stroke-opacity: 1;"/><path class="ylines-above crisp" d="M39.64627077865267,43.901040147759296V449.00019442014195" style="fill: none; stroke-width: 1px; stroke: rgb(0, 0, 0); stroke-opacity: 1;"/><g class="overlines-above"/><g class="xaxislayer-above"><path class="xtick ticks crisp" d="M0,449.00019442014195v-5" transform="translate(189.09627077865267,0)" style="stroke: rgb(0, 0, 0); stroke-opacity: 1; stroke-width: 1px;"/><path class="xtick ticks crisp" d="M0,449.00019442014195v-5" transform="translate(352.0562707786527,0)" style="stroke: rgb(0, 0, 0); stroke-opacity: 1; stroke-width: 1px;"/><path class="xtick ticks crisp" d="M0,449.00019442014195v-5" transform="translate(515.0162707786527,0)" style="stroke: rgb(0, 0, 0); stroke-opacity: 1; stroke-width: 1px;"/><path class="xtick ticks crisp" d="M0,449.00019442014195v-5" transform="translate(677.9762707786527,0)" style="stroke: rgb(0, 0, 0); stroke-opacity: 1; stroke-width: 1px;"/><g class="xtick"><text text-anchor="middle" x="0" y="463.20019442014194" transform="translate(189.09627077865267,0)" style="font-family: sans-serif; font-size: 11px; fill: rgb(0, 0, 0); fill-opacity: 1; white-space: pre;">5</text></g><g class="xtick"><text text-anchor="middle" x="0" y="463.20019442014194" transform="translate(352.0562707786527,0)" style="font-family: sans-serif; font-size: 11px; fill: rgb(0, 0, 0); fill-opacity: 1; white-space: pre;">10</text></g><g class="xtick"><text text-anchor="middle" x="0" y="463.20019442014194" transform="translate(515.0162707786527,0)" style="font-family: sans-serif; font-size: 11px; fill: rgb(0, 0, 0); fill-opacity: 1; white-space: pre;">15</text></g><g class="xtick"><text text-anchor="middle" x="0" y="463.20019442014194" transform="translate(677.9762707786527,0)" style="font-family: sans-serif; font-size: 11px; fill: rgb(0, 0, 0); fill-opacity: 1; white-space: pre;">20</text></g></g><g class="yaxislayer-above"><path class="ytick ticks crisp" d="M40.14627077865267,0h5" transform="translate(0,394.6710401477593)" style="stroke: rgb(0, 0, 0); stroke-opacity: 1; stroke-width: 1px;"/><path class="ytick ticks crisp" d="M40.14627077865267,0h5" transform="translate(0,323.2410401477593)" style="stroke: rgb(0, 0, 0); stroke-opacity: 1; stroke-width: 1px;"/><path class="ytick ticks crisp" d="M40.14627077865267,0h5" transform="translate(0,251.8110401477593)" style="stroke: rgb(0, 0, 0); stroke-opacity: 1; stroke-width: 1px;"/><path class="ytick ticks crisp" d="M40.14627077865267,0h5" transform="translate(0,180.3710401477593)" style="stroke: rgb(0, 0, 0); stroke-opacity: 1; stroke-width: 1px;"/><path class="ytick ticks crisp" d="M40.14627077865267,0h5" transform="translate(0,108.94104014775931)" style="stroke: rgb(0, 0, 0); stroke-opacity: 1; stroke-width: 1px;"/><g class="ytick"><text text-anchor="end" x="36.94627077865267" y="3.8499999999999996" transform="translate(0,394.6710401477593)" style="font-family: sans-serif; font-size: 11px; fill: rgb(0, 0, 0); fill-opacity: 1; white-space: pre;">80</text></g><g class="ytick"><text text-anchor="end" x="36.94627077865267" y="3.8499999999999996" transform="translate(0,323.2410401477593)" style="font-family: sans-serif; font-size: 11px; fill: rgb(0, 0, 0); fill-opacity: 1; white-space: pre;">100</text></g><g class="ytick"><text text-anchor="end" x="36.94627077865267" y="3.8499999999999996" transform="translate(0,251.8110401477593)" style="font-family: sans-serif; font-size: 11px; fill: rgb(0, 0, 0); fill-opacity: 1; white-space: pre;">120</text></g><g class="ytick"><text text-anchor="end" x="36.94627077865267" y="3.8499999999999996" transform="translate(0,180.3710401477593)" style="font-family: sans-serif; font-size: 11px; fill: rgb(0, 0, 0); fill-opacity: 1; white-space: pre;">140</text></g><g class="ytick"><text text-anchor="end" x="36.94627077865267" y="3.8499999999999996" transform="translate(0,108.94104014775931)" style="font-family: sans-serif; font-size: 11px; fill: rgb(0, 0, 0); fill-opacity: 1; white-space: pre;">160</text></g></g><g class="overaxes-above"/></g></g><g class="polarlayer"/><g class="ternarylayer"/><g class="geolayer"/><g class="funnelarealayer"/><g class="pielayer"/><g class="treemaplayer"/><g class="sunburstlayer"/><g class="glimages"/><defs id="topdefs-4c5e4b"><g class="clips"/></defs><g class="layer-above"><g class="imagelayer"/><g class="shapelayer"/></g><g class="infolayer"><g class="g-gtitle"/><g class="g-xtitle" transform="translate(0,-7.000194420141952)"><text class="xtitle" x="368.3506944444444" y="504.00019442014195" text-anchor="middle" style="font-family: sans-serif; font-size: 15px; fill: rgb(0, 0, 0); opacity: 1; font-weight: normal; white-space: pre;">Time</text></g><g class="g-ytitle" transform="translate(13.8671875,0)"><text class="ytitle" transform="rotate(-90,0.14627077865267069,246.4506172839506)" x="0.14627077865267069" y="246.4506172839506" text-anchor="middle" style="font-family: sans-serif; font-size: 15px; fill: rgb(0, 0, 0); opacity: 1; font-weight: normal; white-space: pre;">Observations</text></g><g class="annotation" data-index="0" style="opacity: 1;"><g class="annotation-text-g" transform="rotate(0,368.35069444444446,33.000000000000014)"><g class="cursor-pointer" transform="translate(198,20)"><rect class="bg" x="0.5" y="0.5" width="339" height="25" style="stroke-width: 1px; stroke: rgb(0, 0, 0); stroke-opacity: 0; fill: rgb(0, 0, 0); fill-opacity: 0;"/><text class="annotation-text" text-anchor="middle" x="169.859375" y="20" style="font-family: sans-serif; font-size: 20px; fill: rgb(0, 0, 0); fill-opacity: 1; white-space: pre;">StatsPlots/PlotlyJS Linear Regression</text></g></g></g></g></svg>