<?xml version="1.0" encoding="utf-8"?>
<svg xmlns="http://www.w3.org/2000/svg" xmlns:xlink="http://www.w3.org/1999/xlink" width="800" height="450" viewBox="0 0 3200 1800">
<defs>
  <clipPath id="clip160">
    <rect x="0" y="0" width="3200" height="1800"/>
  </clipPath>
</defs>
<path clip-path="url(#clip160)" d="
M0 1800 L3200 1800 L3200 0 L0 0  Z
  " fill="#ffffff" fill-rule="evenodd" fill-opacity="1"/>
<defs>
  <clipPath id="clip161">
    <rect x="640" y="0" width="2241" height="1800"/>
  </clipPath>
</defs>
<path clip-path="url(#clip160)" d="
M225.927 1634 L3152.76 1634 L3152.76 114.022 L225.927 114.022  Z
  " fill="#ffffff" fill-rule="evenodd" fill-opacity="1"/>
<defs>
  <clipPath id="clip162">
    <rect x="225" y="114" width="2928" height="1521"/>
  </clipPath>
</defs>
<polyline clip-path="url(#clip162)" style="stroke:#000000; stroke-width:2; stroke-opacity:0.1; fill:none" points="
  890.059,1634 890.059,114.022 
  "/>
<polyline clip-path="url(#clip162)" style="stroke:#000000; stroke-width:2; stroke-opacity:0.1; fill:none" points="
  1616.68,1634 1616.68,114.022 
  "/>
<polyline clip-path="url(#clip162)" style="stroke:#000000; stroke-width:2; stroke-opacity:0.1; fill:none" points="
  2343.3,1634 2343.3,114.022 
  "/>
<polyline clip-path="url(#clip162)" style="stroke:#000000; stroke-width:2; stroke-opacity:0.1; fill:none" points="
  3069.92,1634 3069.92,114.022 
  "/>
<polyline clip-path="url(#clip160)" style="stroke:#000000; stroke-width:4; stroke-opacity:1; fill:none" points="
  225.927,1634 3152.76,1634 
  "/>
<polyline clip-path="url(#clip160)" style="stroke:#000000; stroke-width:4; stroke-opacity:1; fill:none" points="
  890.059,1634 890.059,1615.77 
  "/>
<polyline clip-path="url(#clip160)" style="stroke:#000000; stroke-width:4; stroke-opacity:1; fill:none" points="
  1616.68,1634 1616.68,1615.77 
  "/>
<polyline clip-path="url(#clip160)" style="stroke:#000000; stroke-width:4; stroke-opacity:1; fill:none" points="
  2343.3,1634 2343.3,1615.77 
  "/>
<polyline clip-path="url(#clip160)" style="stroke:#000000; stroke-width:4; stroke-opacity:1; fill:none" points="
  3069.92,1634 3069.92,1615.77 
  "/>
<path clip-path="url(#clip160)" d="M 0 0 M880.337 1666.52 L898.693 1666.52 L898.693 1670.45 L884.619 1670.45 L884.619 1678.92 Q885.637 1678.58 886.656 1678.41 Q887.675 1678.23 888.693 1678.23 Q894.48 1678.23 897.86 1681.4 Q901.239 1684.57 901.239 1689.99 Q901.239 1695.57 897.767 1698.67 Q894.295 1701.75 887.975 1701.75 Q885.8 1701.75 883.531 1701.38 Q881.286 1701.01 878.878 1700.27 L878.878 1695.57 Q880.962 1696.7 883.184 1697.26 Q885.406 1697.81 887.883 1697.81 Q891.887 1697.81 894.225 1695.71 Q896.563 1693.6 896.563 1689.99 Q896.563 1686.38 894.225 1684.27 Q891.887 1682.16 887.883 1682.16 Q886.008 1682.16 884.133 1682.58 Q882.281 1683 880.337 1683.88 L880.337 1666.52 Z" fill="#000000" fill-rule="evenodd" fill-opacity="1" /><path clip-path="url(#clip160)" d="M 0 0 M1593.55 1697.14 L1601.19 1697.14 L1601.19 1670.78 L1592.88 1672.44 L1592.88 1668.18 L1601.15 1666.52 L1605.82 1666.52 L1605.82 1697.14 L1613.46 1697.14 L1613.46 1701.08 L1593.55 1701.08 L1593.55 1697.14 Z" fill="#000000" fill-rule="evenodd" fill-opacity="1" /><path clip-path="url(#clip160)" d="M 0 0 M1628.53 1669.6 Q1624.92 1669.6 1623.09 1673.16 Q1621.29 1676.7 1621.29 1683.83 Q1621.29 1690.94 1623.09 1694.5 Q1624.92 1698.04 1628.53 1698.04 Q1632.17 1698.04 1633.97 1694.5 Q1635.8 1690.94 1635.8 1683.83 Q1635.8 1676.7 1633.97 1673.16 Q1632.17 1669.6 1628.53 1669.6 M1628.53 1665.89 Q1634.34 1665.89 1637.4 1670.5 Q1640.48 1675.08 1640.48 1683.83 Q1640.48 1692.56 1637.4 1697.16 Q1634.34 1701.75 1628.53 1701.75 Q1622.72 1701.75 1619.64 1697.16 Q1616.59 1692.56 1616.59 1683.83 Q1616.59 1675.08 1619.64 1670.5 Q1622.72 1665.89 1628.53 1665.89 Z" fill="#000000" fill-rule="evenodd" fill-opacity="1" /><path clip-path="url(#clip160)" d="M 0 0 M2320.67 1697.14 L2328.31 1697.14 L2328.31 1670.78 L2320 1672.44 L2320 1668.18 L2328.27 1666.52 L2332.94 1666.52 L2332.94 1697.14 L2340.58 1697.14 L2340.58 1701.08 L2320.67 1701.08 L2320.67 1697.14 Z" fill="#000000" fill-rule="evenodd" fill-opacity="1" /><path clip-path="url(#clip160)" d="M 0 0 M2345.7 1666.52 L2364.05 1666.52 L2364.05 1670.45 L2349.98 1670.45 L2349.98 1678.92 Q2351 1678.58 2352.02 1678.41 Q2353.03 1678.23 2354.05 1678.23 Q2359.84 1678.23 2363.22 1681.4 Q2366.6 1684.57 2366.6 1689.99 Q2366.6 1695.57 2363.13 1698.67 Q2359.65 1701.75 2353.34 1701.75 Q2351.16 1701.75 2348.89 1701.38 Q2346.65 1701.01 2344.24 1700.27 L2344.24 1695.57 Q2346.32 1696.7 2348.54 1697.26 Q2350.77 1697.81 2353.24 1697.81 Q2357.25 1697.81 2359.58 1695.71 Q2361.92 1693.6 2361.92 1689.99 Q2361.92 1686.38 2359.58 1684.27 Q2357.25 1682.16 2353.24 1682.16 Q2351.37 1682.16 2349.49 1682.58 Q2347.64 1683 2345.7 1683.88 L2345.7 1666.52 Z" fill="#000000" fill-rule="evenodd" fill-opacity="1" /><path clip-path="url(#clip160)" d="M 0 0 M3051.07 1697.14 L3067.39 1697.14 L3067.39 1701.08 L3045.44 1701.08 L3045.44 1697.14 Q3048.1 1694.39 3052.69 1689.76 Q3057.29 1685.1 3058.47 1683.76 Q3060.72 1681.24 3061.6 1679.5 Q3062.5 1677.74 3062.5 1676.05 Q3062.5 1673.3 3060.56 1671.56 Q3058.64 1669.83 3055.53 1669.83 Q3053.34 1669.83 3050.88 1670.59 Q3048.45 1671.35 3045.67 1672.91 L3045.67 1668.18 Q3048.5 1667.05 3050.95 1666.47 Q3053.41 1665.89 3055.44 1665.89 Q3060.81 1665.89 3064.01 1668.58 Q3067.2 1671.26 3067.2 1675.75 Q3067.2 1677.88 3066.39 1679.8 Q3065.6 1681.7 3063.5 1684.29 Q3062.92 1684.97 3059.82 1688.18 Q3056.72 1691.38 3051.07 1697.14 Z" fill="#000000" fill-rule="evenodd" fill-opacity="1" /><path clip-path="url(#clip160)" d="M 0 0 M3082.46 1669.6 Q3078.84 1669.6 3077.02 1673.16 Q3075.21 1676.7 3075.21 1683.83 Q3075.21 1690.94 3077.02 1694.5 Q3078.84 1698.04 3082.46 1698.04 Q3086.09 1698.04 3087.9 1694.5 Q3089.72 1690.94 3089.72 1683.83 Q3089.72 1676.7 3087.9 1673.16 Q3086.09 1669.6 3082.46 1669.6 M3082.46 1665.89 Q3088.27 1665.89 3091.32 1670.5 Q3094.4 1675.08 3094.4 1683.83 Q3094.4 1692.56 3091.32 1697.16 Q3088.27 1701.75 3082.46 1701.75 Q3076.65 1701.75 3073.57 1697.16 Q3070.51 1692.56 3070.51 1683.83 Q3070.51 1675.08 3073.57 1670.5 Q3076.65 1665.89 3082.46 1665.89 Z" fill="#000000" fill-rule="evenodd" fill-opacity="1" /><path clip-path="url(#clip160)" d="M 0 0 M1616.95 1743.35 L1657.15 1743.35 L1657.15 1748.76 L1640.28 1748.76 L1640.28 1790.87 L1633.82 1790.87 L1633.82 1748.76 L1616.95 1748.76 L1616.95 1743.35 Z" fill="#000000" fill-rule="evenodd" fill-opacity="1" /><path clip-path="url(#clip160)" d="M 0 0 M1661.28 1755.22 L1667.14 1755.22 L1667.14 1790.87 L1661.28 1790.87 L1661.28 1755.22 M1661.28 1741.34 L1667.14 1741.34 L1667.14 1748.76 L1661.28 1748.76 L1661.28 1741.34 Z" fill="#000000" fill-rule="evenodd" fill-opacity="1" /><path clip-path="url(#clip160)" d="M 0 0 M1701.04 1762.06 Q1703.23 1758.12 1706.29 1756.24 Q1709.35 1754.36 1713.48 1754.36 Q1719.05 1754.36 1722.08 1758.28 Q1725.1 1762.16 1725.1 1769.35 L1725.1 1790.87 L1719.21 1790.87 L1719.21 1769.54 Q1719.21 1764.42 1717.4 1761.94 Q1715.58 1759.45 1711.86 1759.45 Q1707.31 1759.45 1704.67 1762.48 Q1702.03 1765.5 1702.03 1770.72 L1702.03 1790.87 L1696.14 1790.87 L1696.14 1769.54 Q1696.14 1764.39 1694.32 1761.94 Q1692.51 1759.45 1688.72 1759.45 Q1684.23 1759.45 1681.59 1762.51 Q1678.95 1765.53 1678.95 1770.72 L1678.95 1790.87 L1673.06 1790.87 L1673.06 1755.22 L1678.95 1755.22 L1678.95 1760.76 Q1680.95 1757.48 1683.76 1755.92 Q1686.56 1754.36 1690.41 1754.36 Q1694.29 1754.36 1697 1756.33 Q1699.73 1758.31 1701.04 1762.06 Z" fill="#000000" fill-rule="evenodd" fill-opacity="1" /><path clip-path="url(#clip160)" d="M 0 0 M1761.74 1771.58 L1761.74 1774.45 L1734.81 1774.45 Q1735.19 1780.49 1738.44 1783.68 Q1741.72 1786.83 1747.54 1786.83 Q1750.91 1786.83 1754.06 1786 Q1757.25 1785.17 1760.37 1783.52 L1760.37 1789.05 Q1757.22 1790.39 1753.91 1791.09 Q1750.6 1791.79 1747.19 1791.79 Q1738.66 1791.79 1733.66 1786.83 Q1728.7 1781.86 1728.7 1773.39 Q1728.7 1764.64 1733.41 1759.52 Q1738.15 1754.36 1746.17 1754.36 Q1753.36 1754.36 1757.53 1759.01 Q1761.74 1763.62 1761.74 1771.58 M1755.88 1769.86 Q1755.82 1765.06 1753.17 1762.19 Q1750.56 1759.33 1746.24 1759.33 Q1741.33 1759.33 1738.37 1762.1 Q1735.45 1764.86 1735 1769.89 L1755.88 1769.86 Z" fill="#000000" fill-rule="evenodd" fill-opacity="1" /><polyline clip-path="url(#clip162)" style="stroke:#000000; stroke-width:2; stroke-opacity:0.1; fill:none" points="
  225.927,1430.17 3152.76,1430.17 
  "/>
<polyline clip-path="url(#clip162)" style="stroke:#000000; stroke-width:2; stroke-opacity:0.1; fill:none" points="
  225.927,1162.14 3152.76,1162.14 
  "/>
<polyline clip-path="url(#clip162)" style="stroke:#000000; stroke-width:2; stroke-opacity:0.1; fill:none" points="
  225.927,894.116 3152.76,894.116 
  "/>
<polyline clip-path="url(#clip162)" style="stroke:#000000; stroke-width:2; stroke-opacity:0.1; fill:none" points="
  225.927,626.088 3152.76,626.088 
  "/>
<polyline clip-path="url(#clip162)" style="stroke:#000000; stroke-width:2; stroke-opacity:0.1; fill:none" points="
  225.927,358.061 3152.76,358.061 
  "/>
<polyline clip-path="url(#clip160)" style="stroke:#000000; stroke-width:4; stroke-opacity:1; fill:none" points="
  225.927,1634 225.927,114.022 
  "/>
<polyline clip-path="url(#clip160)" style="stroke:#000000; stroke-width:4; stroke-opacity:1; fill:none" points="
  225.927,1430.17 261.049,1430.17 
  "/>
<polyline clip-path="url(#clip160)" style="stroke:#000000; stroke-width:4; stroke-opacity:1; fill:none" points="
  225.927,1162.14 261.049,1162.14 
  "/>
<polyline clip-path="url(#clip160)" style="stroke:#000000; stroke-width:4; stroke-opacity:1; fill:none" points="
  225.927,894.116 261.049,894.116 
  "/>
<polyline clip-path="url(#clip160)" style="stroke:#000000; stroke-width:4; stroke-opacity:1; fill:none" points="
  225.927,626.088 261.049,626.088 
  "/>
<polyline clip-path="url(#clip160)" style="stroke:#000000; stroke-width:4; stroke-opacity:1; fill:none" points="
  225.927,358.061 261.049,358.061 
  "/>
<path clip-path="url(#clip160)" d="M 0 0 M139.062 1431.04 Q135.728 1431.04 133.807 1432.82 Q131.909 1434.6 131.909 1437.73 Q131.909 1440.85 133.807 1442.64 Q135.728 1444.42 139.062 1444.42 Q142.395 1444.42 144.316 1442.64 Q146.238 1440.83 146.238 1437.73 Q146.238 1434.6 144.316 1432.82 Q142.418 1431.04 139.062 1431.04 M134.386 1429.05 Q131.377 1428.31 129.687 1426.25 Q128.02 1424.19 128.02 1421.22 Q128.02 1417.08 130.96 1414.67 Q133.923 1412.27 139.062 1412.27 Q144.224 1412.27 147.164 1414.67 Q150.103 1417.08 150.103 1421.22 Q150.103 1424.19 148.414 1426.25 Q146.747 1428.31 143.761 1429.05 Q147.14 1429.83 149.015 1432.13 Q150.914 1434.42 150.914 1437.73 Q150.914 1442.75 147.835 1445.44 Q144.779 1448.12 139.062 1448.12 Q133.344 1448.12 130.266 1445.44 Q127.21 1442.75 127.21 1437.73 Q127.21 1434.42 129.108 1432.13 Q131.006 1429.83 134.386 1429.05 M132.673 1421.66 Q132.673 1424.35 134.34 1425.85 Q136.029 1427.36 139.062 1427.36 Q142.071 1427.36 143.761 1425.85 Q145.474 1424.35 145.474 1421.66 Q145.474 1418.98 143.761 1417.47 Q142.071 1415.97 139.062 1415.97 Q136.029 1415.97 134.34 1417.47 Q132.673 1418.98 132.673 1421.66 Z" fill="#000000" fill-rule="evenodd" fill-opacity="1" /><path clip-path="url(#clip160)" d="M 0 0 M165.983 1415.97 Q162.372 1415.97 160.543 1419.53 Q158.738 1423.08 158.738 1430.2 Q158.738 1437.31 160.543 1440.88 Q162.372 1444.42 165.983 1444.42 Q169.617 1444.42 171.423 1440.88 Q173.251 1437.31 173.251 1430.2 Q173.251 1423.08 171.423 1419.53 Q169.617 1415.97 165.983 1415.97 M165.983 1412.27 Q171.793 1412.27 174.849 1416.87 Q177.927 1421.45 177.927 1430.2 Q177.927 1438.93 174.849 1443.54 Q171.793 1448.12 165.983 1448.12 Q160.173 1448.12 157.094 1443.54 Q154.039 1438.93 154.039 1430.2 Q154.039 1421.45 157.094 1416.87 Q160.173 1412.27 165.983 1412.27 Z" fill="#000000" fill-rule="evenodd" fill-opacity="1" /><path clip-path="url(#clip160)" d="M 0 0 M103.993 1175.49 L111.631 1175.49 L111.631 1149.12 L103.321 1150.79 L103.321 1146.53 L111.585 1144.86 L116.261 1144.86 L116.261 1175.49 L123.9 1175.49 L123.9 1179.42 L103.993 1179.42 L103.993 1175.49 Z" fill="#000000" fill-rule="evenodd" fill-opacity="1" /><path clip-path="url(#clip160)" d="M 0 0 M138.969 1147.94 Q135.358 1147.94 133.529 1151.51 Q131.724 1155.05 131.724 1162.18 Q131.724 1169.28 133.529 1172.85 Q135.358 1176.39 138.969 1176.39 Q142.603 1176.39 144.409 1172.85 Q146.238 1169.28 146.238 1162.18 Q146.238 1155.05 144.409 1151.51 Q142.603 1147.94 138.969 1147.94 M138.969 1144.24 Q144.779 1144.24 147.835 1148.84 Q150.914 1153.43 150.914 1162.18 Q150.914 1170.9 147.835 1175.51 Q144.779 1180.09 138.969 1180.09 Q133.159 1180.09 130.08 1175.51 Q127.025 1170.9 127.025 1162.18 Q127.025 1153.43 130.08 1148.84 Q133.159 1144.24 138.969 1144.24 Z" fill="#000000" fill-rule="evenodd" fill-opacity="1" /><path clip-path="url(#clip160)" d="M 0 0 M165.983 1147.94 Q162.372 1147.94 160.543 1151.51 Q158.738 1155.05 158.738 1162.18 Q158.738 1169.28 160.543 1172.85 Q162.372 1176.39 165.983 1176.39 Q169.617 1176.39 171.423 1172.85 Q173.251 1169.28 173.251 1162.18 Q173.251 1155.05 171.423 1151.51 Q169.617 1147.94 165.983 1147.94 M165.983 1144.24 Q171.793 1144.24 174.849 1148.84 Q177.927 1153.43 177.927 1162.18 Q177.927 1170.9 174.849 1175.51 Q171.793 1180.09 165.983 1180.09 Q160.173 1180.09 157.094 1175.51 Q154.039 1170.9 154.039 1162.18 Q154.039 1153.43 157.094 1148.84 Q160.173 1144.24 165.983 1144.24 Z" fill="#000000" fill-rule="evenodd" fill-opacity="1" /><path clip-path="url(#clip160)" d="M 0 0 M105.59 907.46 L113.229 907.46 L113.229 881.095 L104.918 882.761 L104.918 878.502 L113.182 876.836 L117.858 876.836 L117.858 907.46 L125.497 907.46 L125.497 911.396 L105.59 911.396 L105.59 907.46 Z" fill="#000000" fill-rule="evenodd" fill-opacity="1" /><path clip-path="url(#clip160)" d="M 0 0 M134.594 907.46 L150.914 907.46 L150.914 911.396 L128.969 911.396 L128.969 907.46 Q131.631 904.706 136.215 900.076 Q140.821 895.423 142.002 894.081 Q144.247 891.558 145.127 889.822 Q146.029 888.062 146.029 886.373 Q146.029 883.618 144.085 881.882 Q142.164 880.146 139.062 880.146 Q136.863 880.146 134.409 880.91 Q131.979 881.673 129.201 883.224 L129.201 878.502 Q132.025 877.368 134.479 876.789 Q136.932 876.211 138.969 876.211 Q144.34 876.211 147.534 878.896 Q150.728 881.581 150.728 886.072 Q150.728 888.201 149.918 890.122 Q149.131 892.021 147.025 894.613 Q146.446 895.285 143.344 898.502 Q140.242 901.697 134.594 907.46 Z" fill="#000000" fill-rule="evenodd" fill-opacity="1" /><path clip-path="url(#clip160)" d="M 0 0 M165.983 879.914 Q162.372 879.914 160.543 883.479 Q158.738 887.021 158.738 894.15 Q158.738 901.257 160.543 904.821 Q162.372 908.363 165.983 908.363 Q169.617 908.363 171.423 904.821 Q173.251 901.257 173.251 894.15 Q173.251 887.021 171.423 883.479 Q169.617 879.914 165.983 879.914 M165.983 876.211 Q171.793 876.211 174.849 880.817 Q177.927 885.4 177.927 894.15 Q177.927 902.877 174.849 907.484 Q171.793 912.067 165.983 912.067 Q160.173 912.067 157.094 907.484 Q154.039 902.877 154.039 894.15 Q154.039 885.4 157.094 880.817 Q160.173 876.211 165.983 876.211 Z" fill="#000000" fill-rule="evenodd" fill-opacity="1" /><path clip-path="url(#clip160)" d="M 0 0 M103.506 639.433 L111.145 639.433 L111.145 613.067 L102.835 614.734 L102.835 610.475 L111.099 608.808 L115.775 608.808 L115.775 639.433 L123.414 639.433 L123.414 643.368 L103.506 643.368 L103.506 639.433 Z" fill="#000000" fill-rule="evenodd" fill-opacity="1" /><path clip-path="url(#clip160)" d="M 0 0 M141.33 612.882 L129.525 631.331 L141.33 631.331 L141.33 612.882 M140.103 608.808 L145.983 608.808 L145.983 631.331 L150.914 631.331 L150.914 635.22 L145.983 635.22 L145.983 643.368 L141.33 643.368 L141.33 635.22 L125.729 635.22 L125.729 630.706 L140.103 608.808 Z" fill="#000000" fill-rule="evenodd" fill-opacity="1" /><path clip-path="url(#clip160)" d="M 0 0 M165.983 611.887 Q162.372 611.887 160.543 615.452 Q158.738 618.993 158.738 626.123 Q158.738 633.229 160.543 636.794 Q162.372 640.336 165.983 640.336 Q169.617 640.336 171.423 636.794 Q173.251 633.229 173.251 626.123 Q173.251 618.993 171.423 615.452 Q169.617 611.887 165.983 611.887 M165.983 608.183 Q171.793 608.183 174.849 612.79 Q177.927 617.373 177.927 626.123 Q177.927 634.85 174.849 639.456 Q171.793 644.04 165.983 644.04 Q160.173 644.04 157.094 639.456 Q154.039 634.85 154.039 626.123 Q154.039 617.373 157.094 612.79 Q160.173 608.183 165.983 608.183 Z" fill="#000000" fill-rule="evenodd" fill-opacity="1" /><path clip-path="url(#clip160)" d="M 0 0 M103.831 371.406 L111.469 371.406 L111.469 345.04 L103.159 346.707 L103.159 342.448 L111.423 340.781 L116.099 340.781 L116.099 371.406 L123.738 371.406 L123.738 375.341 L103.831 375.341 L103.831 371.406 Z" fill="#000000" fill-rule="evenodd" fill-opacity="1" /><path clip-path="url(#clip160)" d="M 0 0 M139.386 356.198 Q136.238 356.198 134.386 358.35 Q132.557 360.503 132.557 364.253 Q132.557 367.98 134.386 370.156 Q136.238 372.309 139.386 372.309 Q142.534 372.309 144.363 370.156 Q146.215 367.98 146.215 364.253 Q146.215 360.503 144.363 358.35 Q142.534 356.198 139.386 356.198 M148.668 341.545 L148.668 345.804 Q146.909 344.971 145.103 344.531 Q143.321 344.091 141.562 344.091 Q136.932 344.091 134.479 347.216 Q132.048 350.341 131.701 356.661 Q133.066 354.647 135.127 353.582 Q137.187 352.494 139.664 352.494 Q144.872 352.494 147.881 355.665 Q150.914 358.813 150.914 364.253 Q150.914 369.577 147.765 372.795 Q144.617 376.012 139.386 376.012 Q133.391 376.012 130.219 371.429 Q127.048 366.822 127.048 358.096 Q127.048 349.901 130.937 345.04 Q134.826 340.156 141.377 340.156 Q143.136 340.156 144.918 340.503 Q146.724 340.85 148.668 341.545 Z" fill="#000000" fill-rule="evenodd" fill-opacity="1" /><path clip-path="url(#clip160)" d="M 0 0 M165.983 343.86 Q162.372 343.86 160.543 347.424 Q158.738 350.966 158.738 358.096 Q158.738 365.202 160.543 368.767 Q162.372 372.309 165.983 372.309 Q169.617 372.309 171.423 368.767 Q173.251 365.202 173.251 358.096 Q173.251 350.966 171.423 347.424 Q169.617 343.86 165.983 343.86 M165.983 340.156 Q171.793 340.156 174.849 344.762 Q177.927 349.346 177.927 358.096 Q177.927 366.822 174.849 371.429 Q171.793 376.012 165.983 376.012 Q160.173 376.012 157.094 371.429 Q154.039 366.822 154.039 358.096 Q154.039 349.346 157.094 344.762 Q160.173 340.156 165.983 340.156 Z" fill="#000000" fill-rule="evenodd" fill-opacity="1" /><path clip-path="url(#clip160)" d="M 0 0 M-2.58033 1044.76 Q-2.58033 1051.76 2.63955 1055.9 Q7.85943 1060 16.8669 1060 Q25.8425 1060 31.0624 1055.9 Q36.2823 1051.76 36.2823 1044.76 Q36.2823 1037.76 31.0624 1033.68 Q25.8425 1029.58 16.8669 1029.58 Q7.85943 1029.58 2.63955 1033.68 Q-2.58033 1037.76 -2.58033 1044.76 M-7.80021 1044.76 Q-7.80021 1034.76 -1.08439 1028.78 Q5.5996 1022.8 16.8669 1022.8 Q28.1024 1022.8 34.8182 1028.78 Q41.5022 1034.76 41.5022 1044.76 Q41.5022 1054.78 34.8182 1060.8 Q28.1342 1066.78 16.8669 1066.78 Q5.5996 1066.78 -1.08439 1060.8 Q-7.80021 1054.78 -7.80021 1044.76 Z" fill="#000000" fill-rule="evenodd" fill-opacity="1" /><path clip-path="url(#clip160)" d="M 0 0 M22.787 991.063 Q16.3258 991.063 12.6655 993.737 Q8.97342 996.378 8.97342 1001.03 Q8.97342 1005.67 12.6655 1008.35 Q16.3258 1010.99 22.787 1010.99 Q29.2482 1010.99 32.9403 1008.35 Q36.6006 1005.67 36.6006 1001.03 Q36.6006 996.378 32.9403 993.737 Q29.2482 991.063 22.787 991.063 M10.3421 1010.99 Q7.1592 1009.14 5.63143 1006.34 Q4.07183 1003.51 4.07183 999.593 Q4.07183 993.1 9.22805 989.058 Q14.3843 984.984 22.787 984.984 Q31.1897 984.984 36.346 989.058 Q41.5022 993.1 41.5022 999.593 Q41.5022 1003.51 39.9744 1006.34 Q38.4148 1009.14 35.232 1010.99 L40.5792 1010.99 L40.5792 1016.88 L-8.94604 1016.88 L-8.94604 1010.99 L10.3421 1010.99 Z" fill="#000000" fill-rule="evenodd" fill-opacity="1" /><path clip-path="url(#clip160)" d="M 0 0 M5.98154 956.115 L11.5197 956.115 Q10.2466 958.598 9.60999 961.271 Q8.97342 963.945 8.97342 966.81 Q8.97342 971.17 10.3102 973.366 Q11.647 975.531 14.3206 975.531 Q16.3576 975.531 17.5353 973.971 Q18.6811 972.411 19.7315 967.701 L20.1771 965.696 Q21.5139 959.457 23.9647 956.847 Q26.3836 954.205 30.7441 954.205 Q35.7094 954.205 38.6058 958.152 Q41.5022 962.067 41.5022 968.942 Q41.5022 971.807 40.9293 974.926 Q40.3882 978.013 39.2742 981.451 L33.2268 981.451 Q34.9137 978.204 35.773 975.053 Q36.6006 971.902 36.6006 968.815 Q36.6006 964.677 35.2001 962.449 Q33.7679 960.221 31.1897 960.221 Q28.8026 960.221 27.5295 961.844 Q26.2563 963.436 25.0787 968.878 L24.6012 970.915 Q23.4554 976.358 21.1001 978.777 Q18.713 981.196 14.5752 981.196 Q9.54634 981.196 6.80908 977.631 Q4.07183 974.066 4.07183 967.51 Q4.07183 964.263 4.54926 961.399 Q5.02669 958.534 5.98154 956.115 Z" fill="#000000" fill-rule="evenodd" fill-opacity="1" /><path clip-path="url(#clip160)" d="M 0 0 M21.2911 917.571 L24.1556 917.571 L24.1556 944.498 Q30.2031 944.116 33.3859 940.869 Q36.5369 937.591 36.5369 931.766 Q36.5369 928.393 35.7094 925.242 Q34.8819 922.059 33.2268 918.939 L38.7649 918.939 Q40.1017 922.09 40.802 925.401 Q41.5022 928.711 41.5022 932.116 Q41.5022 940.647 36.5369 945.644 Q31.5717 950.609 23.1053 950.609 Q14.3524 950.609 9.22805 945.898 Q4.07183 941.156 4.07183 933.135 Q4.07183 925.942 8.7188 921.772 Q13.3339 917.571 21.2911 917.571 M19.5723 923.427 Q14.7662 923.491 11.9016 926.133 Q9.03708 928.743 9.03708 933.071 Q9.03708 937.973 11.8062 940.933 Q14.5752 943.861 19.6042 944.307 L19.5723 923.427 Z" fill="#000000" fill-rule="evenodd" fill-opacity="1" /><path clip-path="url(#clip160)" d="M 0 0 M10.4057 890.771 Q9.83279 891.758 9.57817 892.936 Q9.29171 894.081 9.29171 895.482 Q9.29171 900.447 12.5382 903.121 Q15.7529 905.762 21.8003 905.762 L40.5792 905.762 L40.5792 911.651 L4.9312 911.651 L4.9312 905.762 L10.4694 905.762 Q7.22285 903.916 5.66326 900.956 Q4.07183 897.996 4.07183 893.763 Q4.07183 893.158 4.16732 892.426 Q4.23097 891.694 4.39012 890.803 L10.4057 890.771 Z" fill="#000000" fill-rule="evenodd" fill-opacity="1" /><path clip-path="url(#clip160)" d="M 0 0 M4.9312 888.83 L4.9312 882.623 L34.85 871.483 L4.9312 860.343 L4.9312 854.137 L40.5792 867.505 L40.5792 875.462 L4.9312 888.83 Z" fill="#000000" fill-rule="evenodd" fill-opacity="1" /><path clip-path="url(#clip160)" d="M 0 0 M22.6597 831.793 Q22.6597 838.891 24.2829 841.628 Q25.9062 844.365 29.8211 844.365 Q32.9403 844.365 34.7864 842.328 Q36.6006 840.259 36.6006 836.726 Q36.6006 831.857 33.1631 828.928 Q29.6938 825.968 23.9647 825.968 L22.6597 825.968 L22.6597 831.793 M20.2407 820.112 L40.5792 820.112 L40.5792 825.968 L35.1683 825.968 Q38.4148 827.974 39.9744 830.965 Q41.5022 833.957 41.5022 838.286 Q41.5022 843.76 38.4466 847.007 Q35.3593 850.222 30.2031 850.222 Q24.1875 850.222 21.1319 846.211 Q18.0764 842.169 18.0764 834.18 L18.0764 825.968 L17.5035 825.968 Q13.4612 825.968 11.2651 828.642 Q9.03708 831.284 9.03708 836.09 Q9.03708 839.145 9.76914 842.042 Q10.5012 844.938 11.9653 847.612 L6.55446 847.612 Q5.31314 844.397 4.7084 841.373 Q4.07183 838.35 4.07183 835.485 Q4.07183 827.751 8.08223 823.931 Q12.0926 820.112 20.2407 820.112 Z" fill="#000000" fill-rule="evenodd" fill-opacity="1" /><path clip-path="url(#clip160)" d="M 0 0 M-5.19027 808.176 L4.9312 808.176 L4.9312 796.113 L9.48268 796.113 L9.48268 808.176 L28.8344 808.176 Q33.1949 808.176 34.4363 806.999 Q35.6776 805.789 35.6776 802.129 L35.6776 796.113 L40.5792 796.113 L40.5792 802.129 Q40.5792 808.908 38.0647 811.486 Q35.5184 814.064 28.8344 814.064 L9.48268 814.064 L9.48268 818.361 L4.9312 818.361 L4.9312 814.064 L-5.19027 814.064 L-5.19027 808.176 Z" fill="#000000" fill-rule="evenodd" fill-opacity="1" /><path clip-path="url(#clip160)" d="M 0 0 M4.9312 789.97 L4.9312 784.114 L40.5792 784.114 L40.5792 789.97 L4.9312 789.97 M-8.94604 789.97 L-8.94604 784.114 L-1.52999 784.114 L-1.52999 789.97 L-8.94604 789.97 Z" fill="#000000" fill-rule="evenodd" fill-opacity="1" /><path clip-path="url(#clip160)" d="M 0 0 M9.03708 764.157 Q9.03708 768.868 12.7292 771.605 Q16.3895 774.342 22.787 774.342 Q29.1845 774.342 32.8767 771.637 Q36.5369 768.9 36.5369 764.157 Q36.5369 759.479 32.8448 756.741 Q29.1527 754.004 22.787 754.004 Q16.4531 754.004 12.761 756.741 Q9.03708 759.479 9.03708 764.157 M4.07183 764.157 Q4.07183 756.518 9.03708 752.158 Q14.0023 747.797 22.787 747.797 Q31.5399 747.797 36.5369 752.158 Q41.5022 756.518 41.5022 764.157 Q41.5022 771.828 36.5369 776.188 Q31.5399 780.517 22.787 780.517 Q14.0023 780.517 9.03708 776.188 Q4.07183 771.828 4.07183 764.157 Z" fill="#000000" fill-rule="evenodd" fill-opacity="1" /><path clip-path="url(#clip160)" d="M 0 0 M19.0631 712.022 L40.5792 712.022 L40.5792 717.879 L19.254 717.879 Q14.1933 717.879 11.6788 719.852 Q9.1644 721.825 9.1644 725.772 Q9.1644 730.515 12.1881 733.252 Q15.2118 735.989 20.4317 735.989 L40.5792 735.989 L40.5792 741.877 L4.9312 741.877 L4.9312 735.989 L10.4694 735.989 Q7.25468 733.888 5.66326 731.056 Q4.07183 728.191 4.07183 724.467 Q4.07183 718.324 7.89125 715.173 Q11.6788 712.022 19.0631 712.022 Z" fill="#000000" fill-rule="evenodd" fill-opacity="1" /><path clip-path="url(#clip160)" d="M 0 0 M5.98154 683.154 L11.5197 683.154 Q10.2466 685.636 9.60999 688.31 Q8.97342 690.984 8.97342 693.848 Q8.97342 698.209 10.3102 700.405 Q11.647 702.569 14.3206 702.569 Q16.3576 702.569 17.5353 701.009 Q18.6811 699.45 19.7315 694.739 L20.1771 692.734 Q21.5139 686.496 23.9647 683.886 Q26.3836 681.244 30.7441 681.244 Q35.7094 681.244 38.6058 685.191 Q41.5022 689.106 41.5022 695.981 Q41.5022 698.845 40.9293 701.964 Q40.3882 705.052 39.2742 708.489 L33.2268 708.489 Q34.9137 705.243 35.773 702.092 Q36.6006 698.941 36.6006 695.853 Q36.6006 691.716 35.2001 689.488 Q33.7679 687.26 31.1897 687.26 Q28.8026 687.26 27.5295 688.883 Q26.2563 690.474 25.0787 695.917 L24.6012 697.954 Q23.4554 703.397 21.1001 705.816 Q18.713 708.235 14.5752 708.235 Q9.54634 708.235 6.80908 704.67 Q4.07183 701.105 4.07183 694.548 Q4.07183 691.302 4.54926 688.437 Q5.02669 685.573 5.98154 683.154 Z" fill="#000000" fill-rule="evenodd" fill-opacity="1" /><path clip-path="url(#clip160)" d="M 0 0 M1196.59 18.8205 L1196.59 41.5461 L1206.88 41.5461 Q1212.59 41.5461 1215.71 38.5889 Q1218.83 35.6318 1218.83 30.163 Q1218.83 24.7348 1215.71 21.7777 Q1212.59 18.8205 1206.88 18.8205 L1196.59 18.8205 M1188.41 12.096 L1206.88 12.096 Q1217.05 12.096 1222.23 16.714 Q1227.46 21.2916 1227.46 30.163 Q1227.46 39.1155 1222.23 43.6931 Q1217.05 48.2706 1206.88 48.2706 L1196.59 48.2706 L1196.59 72.576 L1188.41 72.576 L1188.41 12.096 Z" fill="#000000" fill-rule="evenodd" fill-opacity="1" /><path clip-path="url(#clip160)" d="M 0 0 M1235.28 9.54393 L1242.73 9.54393 L1242.73 72.576 L1235.28 72.576 L1235.28 9.54393 Z" fill="#000000" fill-rule="evenodd" fill-opacity="1" /><path clip-path="url(#clip160)" d="M 0 0 M1268.13 32.4315 Q1262.13 32.4315 1258.65 37.1306 Q1255.17 41.7891 1255.17 49.9314 Q1255.17 58.0738 1258.61 62.7728 Q1262.09 67.4314 1268.13 67.4314 Q1274.08 67.4314 1277.57 62.7323 Q1281.05 58.0333 1281.05 49.9314 Q1281.05 41.8701 1277.57 37.1711 Q1274.08 32.4315 1268.13 32.4315 M1268.13 26.1121 Q1277.85 26.1121 1283.4 32.4315 Q1288.95 38.7509 1288.95 49.9314 Q1288.95 61.0714 1283.4 67.4314 Q1277.85 73.7508 1268.13 73.7508 Q1258.37 73.7508 1252.82 67.4314 Q1247.31 61.0714 1247.31 49.9314 Q1247.31 38.7509 1252.82 32.4315 Q1258.37 26.1121 1268.13 26.1121 Z" fill="#000000" fill-rule="evenodd" fill-opacity="1" /><path clip-path="url(#clip160)" d="M 0 0 M1304.14 14.324 L1304.14 27.2059 L1319.49 27.2059 L1319.49 32.9987 L1304.14 32.9987 L1304.14 57.6282 Q1304.14 63.1779 1305.64 64.7578 Q1307.18 66.3376 1311.84 66.3376 L1319.49 66.3376 L1319.49 72.576 L1311.84 72.576 Q1303.21 72.576 1299.93 69.3758 Q1296.65 66.1351 1296.65 57.6282 L1296.65 32.9987 L1291.18 32.9987 L1291.18 27.2059 L1296.65 27.2059 L1296.65 14.324 L1304.14 14.324 Z" fill="#000000" fill-rule="evenodd" fill-opacity="1" /><path clip-path="url(#clip160)" d="M 0 0 M1356.24 28.5427 L1356.24 35.5912 Q1353.08 33.9709 1349.67 33.1607 Q1346.27 32.3505 1342.62 32.3505 Q1337.07 32.3505 1334.28 34.0519 Q1331.53 35.7533 1331.53 39.156 Q1331.53 41.7486 1333.51 43.2475 Q1335.5 44.7058 1341.49 46.0426 L1344.04 46.6097 Q1351.98 48.3111 1355.3 51.4303 Q1358.67 54.509 1358.67 60.0587 Q1358.67 66.3781 1353.64 70.0644 Q1348.66 73.7508 1339.91 73.7508 Q1336.26 73.7508 1332.29 73.0216 Q1328.37 72.3329 1323.99 70.9151 L1323.99 63.2184 Q1328.12 65.3654 1332.13 66.4591 Q1336.14 67.5124 1340.07 67.5124 Q1345.34 67.5124 1348.17 65.73 Q1351.01 63.9071 1351.01 60.6258 Q1351.01 57.5877 1348.94 55.9673 Q1346.92 54.3469 1339.99 52.8481 L1337.4 52.2405 Q1330.47 50.7821 1327.39 47.7845 Q1324.31 44.7463 1324.31 39.4801 Q1324.31 33.0797 1328.85 29.5959 Q1333.39 26.1121 1341.73 26.1121 Q1345.87 26.1121 1349.51 26.7198 Q1353.16 27.3274 1356.24 28.5427 Z" fill="#000000" fill-rule="evenodd" fill-opacity="1" /><path clip-path="url(#clip160)" d="M 0 0 M1379.73 12.096 L1386.62 12.096 L1365.55 80.2727 L1358.67 80.2727 L1379.73 12.096 Z" fill="#000000" fill-rule="evenodd" fill-opacity="1" /><path clip-path="url(#clip160)" d="M 0 0 M1436 63.9476 L1436 47.7034 L1422.63 47.7034 L1422.63 40.9789 L1444.1 40.9789 L1444.1 66.9452 Q1439.36 70.3075 1433.65 72.0494 Q1427.94 73.7508 1421.46 73.7508 Q1407.28 73.7508 1399.26 65.4869 Q1391.28 57.1826 1391.28 42.3968 Q1391.28 27.5705 1399.26 19.3066 Q1407.28 11.0023 1421.46 11.0023 Q1427.37 11.0023 1432.68 12.4606 Q1438.02 13.9189 1442.52 16.7545 L1442.52 25.464 Q1437.98 21.6156 1432.88 19.6712 Q1427.77 17.7268 1422.14 17.7268 Q1411.04 17.7268 1405.45 23.9246 Q1399.9 30.1225 1399.9 42.3968 Q1399.9 54.6305 1405.45 60.8284 Q1411.04 67.0263 1422.14 67.0263 Q1426.48 67.0263 1429.88 66.2971 Q1433.28 65.5274 1436 63.9476 Z" fill="#000000" fill-rule="evenodd" fill-opacity="1" /><path clip-path="url(#clip160)" d="M 0 0 M1480.92 44.2197 Q1483.56 45.1109 1486.03 48.0275 Q1488.54 50.9442 1491.05 56.0483 L1499.35 72.576 L1490.56 72.576 L1482.83 57.061 Q1479.83 50.9847 1476.99 48.9997 Q1474.2 47.0148 1469.34 47.0148 L1460.43 47.0148 L1460.43 72.576 L1452.24 72.576 L1452.24 12.096 L1470.71 12.096 Q1481.08 12.096 1486.19 16.4305 Q1491.29 20.7649 1491.29 29.5149 Q1491.29 35.2267 1488.62 38.994 Q1485.99 42.7613 1480.92 44.2197 M1460.43 18.8205 L1460.43 40.2903 L1470.71 40.2903 Q1476.63 40.2903 1479.63 37.5762 Q1482.66 34.8216 1482.66 29.5149 Q1482.66 24.2082 1479.63 21.5346 Q1476.63 18.8205 1470.71 18.8205 L1460.43 18.8205 Z" fill="#000000" fill-rule="evenodd" fill-opacity="1" /><path clip-path="url(#clip160)" d="M 0 0 M1533.87 12.096 L1542.05 12.096 L1542.05 65.6895 L1571.5 65.6895 L1571.5 72.576 L1533.87 72.576 L1533.87 12.096 Z" fill="#000000" fill-rule="evenodd" fill-opacity="1" /><path clip-path="url(#clip160)" d="M 0 0 M1579.32 27.2059 L1586.77 27.2059 L1586.77 72.576 L1579.32 72.576 L1579.32 27.2059 M1579.32 9.54393 L1586.77 9.54393 L1586.77 18.9825 L1579.32 18.9825 L1579.32 9.54393 Z" fill="#000000" fill-rule="evenodd" fill-opacity="1" /><path clip-path="url(#clip160)" d="M 0 0 M1632.3 45.1919 L1632.3 72.576 L1624.85 72.576 L1624.85 45.4349 Q1624.85 38.994 1622.34 35.7938 Q1619.83 32.5936 1614.8 32.5936 Q1608.77 32.5936 1605.29 36.4419 Q1601.8 40.2903 1601.8 46.9338 L1601.8 72.576 L1594.31 72.576 L1594.31 27.2059 L1601.8 27.2059 L1601.8 34.2544 Q1604.48 30.163 1608.08 28.1376 Q1611.73 26.1121 1616.47 26.1121 Q1624.28 26.1121 1628.29 30.9732 Q1632.3 35.7938 1632.3 45.1919 Z" fill="#000000" fill-rule="evenodd" fill-opacity="1" /><path clip-path="url(#clip160)" d="M 0 0 M1678.93 48.0275 L1678.93 51.6733 L1644.66 51.6733 Q1645.15 59.3701 1649.28 63.421 Q1653.45 67.4314 1660.86 67.4314 Q1665.16 67.4314 1669.17 66.3781 Q1673.22 65.3249 1677.19 63.2184 L1677.19 70.267 Q1673.18 71.9684 1668.97 72.8596 Q1664.75 73.7508 1660.42 73.7508 Q1649.56 73.7508 1643.2 67.4314 Q1636.88 61.1119 1636.88 50.3365 Q1636.88 39.1965 1642.88 32.6746 Q1648.91 26.1121 1659.12 26.1121 Q1668.28 26.1121 1673.58 32.0264 Q1678.93 37.9003 1678.93 48.0275 M1671.48 45.84 Q1671.4 39.7232 1668.03 36.0774 Q1664.71 32.4315 1659.2 32.4315 Q1652.96 32.4315 1649.2 35.9558 Q1645.47 39.4801 1644.9 45.8805 L1671.48 45.84 Z" fill="#000000" fill-rule="evenodd" fill-opacity="1" /><path clip-path="url(#clip160)" d="M 0 0 M1707.37 49.7694 Q1698.33 49.7694 1694.85 51.8354 Q1691.37 53.9013 1691.37 58.8839 Q1691.37 62.8538 1693.96 65.2034 Q1696.59 67.5124 1701.09 67.5124 Q1707.29 67.5124 1711.01 63.1374 Q1714.78 58.7219 1714.78 51.4303 L1714.78 49.7694 L1707.37 49.7694 M1722.23 46.6907 L1722.23 72.576 L1714.78 72.576 L1714.78 65.6895 Q1712.23 69.8214 1708.42 71.8063 Q1704.61 73.7508 1699.1 73.7508 Q1692.14 73.7508 1688 69.8619 Q1683.91 65.9325 1683.91 59.3701 Q1683.91 51.7138 1689.02 47.825 Q1694.16 43.9361 1704.33 43.9361 L1714.78 43.9361 L1714.78 43.2069 Q1714.78 38.0623 1711.38 35.2672 Q1708.02 32.4315 1701.9 32.4315 Q1698.01 32.4315 1694.32 33.3632 Q1690.64 34.295 1687.24 36.1584 L1687.24 29.2718 Q1691.33 27.692 1695.17 26.9223 Q1699.02 26.1121 1702.67 26.1121 Q1712.51 26.1121 1717.37 31.2163 Q1722.23 36.3204 1722.23 46.6907 Z" fill="#000000" fill-rule="evenodd" fill-opacity="1" /><path clip-path="url(#clip160)" d="M 0 0 M1756.34 34.1734 Q1755.09 33.4443 1753.59 33.1202 Q1752.13 32.7556 1750.35 32.7556 Q1744.03 32.7556 1740.63 36.8875 Q1737.26 40.9789 1737.26 48.6757 L1737.26 72.576 L1729.77 72.576 L1729.77 27.2059 L1737.26 27.2059 L1737.26 34.2544 Q1739.61 30.1225 1743.38 28.1376 Q1747.15 26.1121 1752.54 26.1121 Q1753.31 26.1121 1754.24 26.2337 Q1755.17 26.3147 1756.3 26.5172 L1756.34 34.1734 Z" fill="#000000" fill-rule="evenodd" fill-opacity="1" /><path clip-path="url(#clip160)" d="M 0 0 M1819.54 44.2197 Q1822.17 45.1109 1824.64 48.0275 Q1827.15 50.9442 1829.66 56.0483 L1837.97 72.576 L1829.18 72.576 L1821.44 57.061 Q1818.44 50.9847 1815.61 48.9997 Q1812.81 47.0148 1807.95 47.0148 L1799.04 47.0148 L1799.04 72.576 L1790.86 72.576 L1790.86 12.096 L1809.33 12.096 Q1819.7 12.096 1824.8 16.4305 Q1829.91 20.7649 1829.91 29.5149 Q1829.91 35.2267 1827.23 38.994 Q1824.6 42.7613 1819.54 44.2197 M1799.04 18.8205 L1799.04 40.2903 L1809.33 40.2903 Q1815.24 40.2903 1818.24 37.5762 Q1821.28 34.8216 1821.28 29.5149 Q1821.28 24.2082 1818.24 21.5346 Q1815.24 18.8205 1809.33 18.8205 L1799.04 18.8205 Z" fill="#000000" fill-rule="evenodd" fill-opacity="1" /><path clip-path="url(#clip160)" d="M 0 0 M1880.87 48.0275 L1880.87 51.6733 L1846.6 51.6733 Q1847.08 59.3701 1851.22 63.421 Q1855.39 67.4314 1862.8 67.4314 Q1867.1 67.4314 1871.11 66.3781 Q1875.16 65.3249 1879.13 63.2184 L1879.13 70.267 Q1875.12 71.9684 1870.9 72.8596 Q1866.69 73.7508 1862.36 73.7508 Q1851.5 73.7508 1845.14 67.4314 Q1838.82 61.1119 1838.82 50.3365 Q1838.82 39.1965 1844.82 32.6746 Q1850.85 26.1121 1861.06 26.1121 Q1870.21 26.1121 1875.52 32.0264 Q1880.87 37.9003 1880.87 48.0275 M1873.41 45.84 Q1873.33 39.7232 1869.97 36.0774 Q1866.65 32.4315 1861.14 32.4315 Q1854.9 32.4315 1851.13 35.9558 Q1847.41 39.4801 1846.84 45.8805 L1873.41 45.84 Z" fill="#000000" fill-rule="evenodd" fill-opacity="1" /><path clip-path="url(#clip160)" d="M 0 0 M1918.54 49.3643 Q1918.54 41.2625 1915.18 36.8065 Q1911.86 32.3505 1905.82 32.3505 Q1899.83 32.3505 1896.46 36.8065 Q1893.14 41.2625 1893.14 49.3643 Q1893.14 57.4256 1896.46 61.8816 Q1899.83 66.3376 1905.82 66.3376 Q1911.86 66.3376 1915.18 61.8816 Q1918.54 57.4256 1918.54 49.3643 M1926 66.9452 Q1926 78.5308 1920.85 84.1616 Q1915.71 89.8329 1905.09 89.8329 Q1901.16 89.8329 1897.68 89.2252 Q1894.2 88.6581 1890.91 87.4428 L1890.91 80.1917 Q1894.2 81.9741 1897.4 82.8248 Q1900.6 83.6755 1903.92 83.6755 Q1911.25 83.6755 1914.9 79.8271 Q1918.54 76.0193 1918.54 68.282 L1918.54 64.5957 Q1916.23 68.6061 1912.63 70.5911 Q1909.02 72.576 1904 72.576 Q1895.65 72.576 1890.55 66.2161 Q1885.45 59.8562 1885.45 49.3643 Q1885.45 38.832 1890.55 32.472 Q1895.65 26.1121 1904 26.1121 Q1909.02 26.1121 1912.63 28.0971 Q1916.23 30.082 1918.54 34.0924 L1918.54 27.2059 L1926 27.2059 L1926 66.9452 Z" fill="#000000" fill-rule="evenodd" fill-opacity="1" /><path clip-path="url(#clip160)" d="M 0 0 M1960.1 34.1734 Q1958.85 33.4443 1957.35 33.1202 Q1955.89 32.7556 1954.11 32.7556 Q1947.79 32.7556 1944.39 36.8875 Q1941.02 40.9789 1941.02 48.6757 L1941.02 72.576 L1933.53 72.576 L1933.53 27.2059 L1941.02 27.2059 L1941.02 34.2544 Q1943.37 30.1225 1947.14 28.1376 Q1950.91 26.1121 1956.3 26.1121 Q1957.07 26.1121 1958 26.2337 Q1958.93 26.3147 1960.06 26.5172 L1960.1 34.1734 Z" fill="#000000" fill-rule="evenodd" fill-opacity="1" /><path clip-path="url(#clip160)" d="M 0 0 M2004.91 48.0275 L2004.91 51.6733 L1970.64 51.6733 Q1971.12 59.3701 1975.25 63.421 Q1979.43 67.4314 1986.84 67.4314 Q1991.13 67.4314 1995.14 66.3781 Q1999.2 65.3249 2003.17 63.2184 L2003.17 70.267 Q1999.15 71.9684 1994.94 72.8596 Q1990.73 73.7508 1986.39 73.7508 Q1975.54 73.7508 1969.18 67.4314 Q1962.86 61.1119 1962.86 50.3365 Q1962.86 39.1965 1968.85 32.6746 Q1974.89 26.1121 1985.1 26.1121 Q1994.25 26.1121 1999.56 32.0264 Q2004.91 37.9003 2004.91 48.0275 M1997.45 45.84 Q1997.37 39.7232 1994.01 36.0774 Q1990.69 32.4315 1985.18 32.4315 Q1978.94 32.4315 1975.17 35.9558 Q1971.45 39.4801 1970.88 45.8805 L1997.45 45.84 Z" fill="#000000" fill-rule="evenodd" fill-opacity="1" /><path clip-path="url(#clip160)" d="M 0 0 M2041.65 28.5427 L2041.65 35.5912 Q2038.49 33.9709 2035.09 33.1607 Q2031.68 32.3505 2028.04 32.3505 Q2022.49 32.3505 2019.69 34.0519 Q2016.94 35.7533 2016.94 39.156 Q2016.94 41.7486 2018.92 43.2475 Q2020.91 44.7058 2026.9 46.0426 L2029.46 46.6097 Q2037.4 48.3111 2040.72 51.4303 Q2044.08 54.509 2044.08 60.0587 Q2044.08 66.3781 2039.06 70.0644 Q2034.07 73.7508 2025.32 73.7508 Q2021.68 73.7508 2017.71 73.0216 Q2013.78 72.3329 2009.4 70.9151 L2009.4 63.2184 Q2013.54 65.3654 2017.55 66.4591 Q2021.56 67.5124 2025.49 67.5124 Q2030.75 67.5124 2033.59 65.73 Q2036.42 63.9071 2036.42 60.6258 Q2036.42 57.5877 2034.36 55.9673 Q2032.33 54.3469 2025.4 52.8481 L2022.81 52.2405 Q2015.89 50.7821 2012.81 47.7845 Q2009.73 44.7463 2009.73 39.4801 Q2009.73 33.0797 2014.26 29.5959 Q2018.8 26.1121 2027.15 26.1121 Q2031.28 26.1121 2034.92 26.7198 Q2038.57 27.3274 2041.65 28.5427 Z" fill="#000000" fill-rule="evenodd" fill-opacity="1" /><path clip-path="url(#clip160)" d="M 0 0 M2080.82 28.5427 L2080.82 35.5912 Q2077.66 33.9709 2074.26 33.1607 Q2070.86 32.3505 2067.21 32.3505 Q2061.66 32.3505 2058.87 34.0519 Q2056.11 35.7533 2056.11 39.156 Q2056.11 41.7486 2058.1 43.2475 Q2060.08 44.7058 2066.08 46.0426 L2068.63 46.6097 Q2076.57 48.3111 2079.89 51.4303 Q2083.25 54.509 2083.25 60.0587 Q2083.25 66.3781 2078.23 70.0644 Q2073.25 73.7508 2064.5 73.7508 Q2060.85 73.7508 2056.88 73.0216 Q2052.95 72.3329 2048.58 70.9151 L2048.58 63.2184 Q2052.71 65.3654 2056.72 66.4591 Q2060.73 67.5124 2064.66 67.5124 Q2069.92 67.5124 2072.76 65.73 Q2075.6 63.9071 2075.6 60.6258 Q2075.6 57.5877 2073.53 55.9673 Q2071.5 54.3469 2064.58 52.8481 L2061.98 52.2405 Q2055.06 50.7821 2051.98 47.7845 Q2048.9 44.7463 2048.9 39.4801 Q2048.9 33.0797 2053.44 29.5959 Q2057.97 26.1121 2066.32 26.1121 Q2070.45 26.1121 2074.1 26.7198 Q2077.74 27.3274 2080.82 28.5427 Z" fill="#000000" fill-rule="evenodd" fill-opacity="1" /><path clip-path="url(#clip160)" d="M 0 0 M2091.07 27.2059 L2098.52 27.2059 L2098.52 72.576 L2091.07 72.576 L2091.07 27.2059 M2091.07 9.54393 L2098.52 9.54393 L2098.52 18.9825 L2091.07 18.9825 L2091.07 9.54393 Z" fill="#000000" fill-rule="evenodd" fill-opacity="1" /><path clip-path="url(#clip160)" d="M 0 0 M2123.92 32.4315 Q2117.93 32.4315 2114.44 37.1306 Q2110.96 41.7891 2110.96 49.9314 Q2110.96 58.0738 2114.4 62.7728 Q2117.89 67.4314 2123.92 67.4314 Q2129.88 67.4314 2133.36 62.7323 Q2136.85 58.0333 2136.85 49.9314 Q2136.85 41.8701 2133.36 37.1711 Q2129.88 32.4315 2123.92 32.4315 M2123.92 26.1121 Q2133.64 26.1121 2139.19 32.4315 Q2144.74 38.7509 2144.74 49.9314 Q2144.74 61.0714 2139.19 67.4314 Q2133.64 73.7508 2123.92 73.7508 Q2114.16 73.7508 2108.61 67.4314 Q2103.1 61.0714 2103.1 49.9314 Q2103.1 38.7509 2108.61 32.4315 Q2114.16 26.1121 2123.92 26.1121 Z" fill="#000000" fill-rule="evenodd" fill-opacity="1" /><path clip-path="url(#clip160)" d="M 0 0 M2190.28 45.1919 L2190.28 72.576 L2182.82 72.576 L2182.82 45.4349 Q2182.82 38.994 2180.31 35.7938 Q2177.8 32.5936 2172.78 32.5936 Q2166.74 32.5936 2163.26 36.4419 Q2159.77 40.2903 2159.77 46.9338 L2159.77 72.576 L2152.28 72.576 L2152.28 27.2059 L2159.77 27.2059 L2159.77 34.2544 Q2162.45 30.163 2166.05 28.1376 Q2169.7 26.1121 2174.44 26.1121 Q2182.26 26.1121 2186.27 30.9732 Q2190.28 35.7938 2190.28 45.1919 Z" fill="#000000" fill-rule="evenodd" fill-opacity="1" /><circle clip-path="url(#clip162)" cx="308.762" cy="572.483" r="14" fill="#1e90ff" fill-rule="evenodd" fill-opacity="0.5" stroke="#000000" stroke-opacity="0.5" stroke-width="3.6"/>
<circle clip-path="url(#clip162)" cx="454.086" cy="478.673" r="14" fill="#1e90ff" fill-rule="evenodd" fill-opacity="0.5" stroke="#000000" stroke-opacity="0.5" stroke-width="3.6"/>
<circle clip-path="url(#clip162)" cx="599.41" cy="398.265" r="14" fill="#1e90ff" fill-rule="evenodd" fill-opacity="0.5" stroke="#000000" stroke-opacity="0.5" stroke-width="3.6"/>
<circle clip-path="url(#clip162)" cx="744.735" cy="224.047" r="14" fill="#1e90ff" fill-rule="evenodd" fill-opacity="0.5" stroke="#000000" stroke-opacity="0.5" stroke-width="3.6"/>
<circle clip-path="url(#clip162)" cx="890.059" cy="465.272" r="14" fill="#1e90ff" fill-rule="evenodd" fill-opacity="0.5" stroke="#000000" stroke-opacity="0.5" stroke-width="3.6"/>
<circle clip-path="url(#clip162)" cx="1035.38" cy="559.081" r="14" fill="#1e90ff" fill-rule="evenodd" fill-opacity="0.5" stroke="#000000" stroke-opacity="0.5" stroke-width="3.6"/>
<circle clip-path="url(#clip162)" cx="1180.71" cy="157.041" r="14" fill="#1e90ff" fill-rule="evenodd" fill-opacity="0.5" stroke="#000000" stroke-opacity="0.5" stroke-width="3.6"/>
<circle clip-path="url(#clip162)" cx="1326.03" cy="505.476" r="14" fill="#1e90ff" fill-rule="evenodd" fill-opacity="0.5" stroke="#000000" stroke-opacity="0.5" stroke-width="3.6"/>
<circle clip-path="url(#clip162)" cx="1471.36" cy="1175.54" r="14" fill="#1e90ff" fill-rule="evenodd" fill-opacity="0.5" stroke="#000000" stroke-opacity="0.5" stroke-width="3.6"/>
<circle clip-path="url(#clip162)" cx="1616.68" cy="987.925" r="14" fill="#1e90ff" fill-rule="evenodd" fill-opacity="0.5" stroke="#000000" stroke-opacity="0.5" stroke-width="3.6"/>
<circle clip-path="url(#clip162)" cx="1762" cy="626.088" r="14" fill="#1e90ff" fill-rule="evenodd" fill-opacity="0.5" stroke="#000000" stroke-opacity="0.5" stroke-width="3.6"/>
<circle clip-path="url(#clip162)" cx="1907.33" cy="1135.34" r="14" fill="#1e90ff" fill-rule="evenodd" fill-opacity="0.5" stroke="#000000" stroke-opacity="0.5" stroke-width="3.6"/>
<circle clip-path="url(#clip162)" cx="2052.65" cy="693.095" r="14" fill="#1e90ff" fill-rule="evenodd" fill-opacity="0.5" stroke="#000000" stroke-opacity="0.5" stroke-width="3.6"/>
<circle clip-path="url(#clip162)" cx="2197.98" cy="505.476" r="14" fill="#1e90ff" fill-rule="evenodd" fill-opacity="0.5" stroke="#000000" stroke-opacity="0.5" stroke-width="3.6"/>
<circle clip-path="url(#clip162)" cx="2343.3" cy="505.476" r="14" fill="#1e90ff" fill-rule="evenodd" fill-opacity="0.5" stroke="#000000" stroke-opacity="0.5" stroke-width="3.6"/>
<circle clip-path="url(#clip162)" cx="2488.62" cy="1590.99" r="14" fill="#1e90ff" fill-rule="evenodd" fill-opacity="0.5" stroke="#000000" stroke-opacity="0.5" stroke-width="3.6"/>
<circle clip-path="url(#clip162)" cx="2633.95" cy="679.694" r="14" fill="#1e90ff" fill-rule="evenodd" fill-opacity="0.5" stroke="#000000" stroke-opacity="0.5" stroke-width="3.6"/>
<circle clip-path="url(#clip162)" cx="2779.27" cy="572.483" r="14" fill="#1e90ff" fill-rule="evenodd" fill-opacity="0.5" stroke="#000000" stroke-opacity="0.5" stroke-width="3.6"/>
<circle clip-path="url(#clip162)" cx="2924.6" cy="1537.38" r="14" fill="#1e90ff" fill-rule="evenodd" fill-opacity="0.5" stroke="#000000" stroke-opacity="0.5" stroke-width="3.6"/>
<circle clip-path="url(#clip162)" cx="3069.92" cy="1202.35" r="14" fill="#1e90ff" fill-rule="evenodd" fill-opacity="0.5" stroke="#000000" stroke-opacity="0.5" stroke-width="3.6"/>
<polyline clip-path="url(#clip162)" style="stroke:#008000; stroke-width:4; stroke-opacity:1; fill:none" stroke-dasharray="16, 10" points="
  -2700.9,1133.7 6079.58,1133.7 
  "/>
<polyline clip-path="url(#clip162)" style="stroke:#008000; stroke-width:4; stroke-opacity:1; fill:none" stroke-dasharray="16, 10" points="
  -2700.9,728.609 6079.58,728.609 
  "/>
<polyline clip-path="url(#clip162)" style="stroke:#008000; stroke-width:4; stroke-opacity:1; fill:none" stroke-dasharray="16, 10" points="
  -2700.9,323.516 6079.58,323.516 
  "/>
<polyline clip-path="url(#clip162)" style="stroke:#ff0000; stroke-width:4; stroke-opacity:0.5; fill:none" points="
  308.762,347.914 454.086,387.987 599.41,428.06 744.735,468.134 890.059,508.207 1035.38,548.28 1180.71,588.353 1326.03,628.426 1471.36,668.499 1616.68,708.572 
  1762,748.645 1907.33,788.718 2052.65,828.791 2197.98,868.865 2343.3,908.938 2488.62,949.011 2633.95,989.084 2779.27,1029.16 2924.6,1069.23 3069.92,1109.3 
  
  "/>
</svg>
