<svg xmlns="http://www.w3.org/2000/svg" xmlns:xlink="http://www.w3.org/1999/xlink" width="600" height="400" viewBox="0 0 2400 1600">
<defs>
  <clipPath id="clip800">
    <rect x="0" y="0" width="2400" height="1600"></rect>
  </clipPath>
</defs>
<path clip-path="url(#clip800)" d="M0 1600 L2400 1600 L2400 0 L0 0  Z" fill="#ffffff" fill-rule="evenodd" fill-opacity="1"></path>
<defs>
  <clipPath id="clip801">
    <rect x="480" y="0" width="1681" height="1600"></rect>
  </clipPath>
</defs>
<path clip-path="url(#clip800)" d="M219.38 1423.18 L2352.76 1423.18 L2352.76 123.472 L219.38 123.472  Z" fill="#ffffff" fill-rule="evenodd" fill-opacity="1"></path>
<defs>
  <clipPath id="clip802">
    <rect x="219" y="123" width="2134" height="1301"></rect>
  </clipPath>
</defs>
<polyline clip-path="url(#clip802)" style="stroke:#000000; stroke-linecap:round; stroke-linejoin:round; stroke-width:2; stroke-opacity:0.1; fill:none" points="279.759,1423.18 279.759,123.472 "></polyline>
<polyline clip-path="url(#clip802)" style="stroke:#000000; stroke-linecap:round; stroke-linejoin:round; stroke-width:2; stroke-opacity:0.1; fill:none" points="782.913,1423.18 782.913,123.472 "></polyline>
<polyline clip-path="url(#clip802)" style="stroke:#000000; stroke-linecap:round; stroke-linejoin:round; stroke-width:2; stroke-opacity:0.1; fill:none" points="1286.07,1423.18 1286.07,123.472 "></polyline>
<polyline clip-path="url(#clip802)" style="stroke:#000000; stroke-linecap:round; stroke-linejoin:round; stroke-width:2; stroke-opacity:0.1; fill:none" points="1789.22,1423.18 1789.22,123.472 "></polyline>
<polyline clip-path="url(#clip802)" style="stroke:#000000; stroke-linecap:round; stroke-linejoin:round; stroke-width:2; stroke-opacity:0.1; fill:none" points="2292.38,1423.18 2292.38,123.472 "></polyline>
<polyline clip-path="url(#clip800)" style="stroke:#000000; stroke-linecap:round; stroke-linejoin:round; stroke-width:4; stroke-opacity:1; fill:none" points="219.38,1423.18 2352.76,1423.18 "></polyline>
<polyline clip-path="url(#clip800)" style="stroke:#000000; stroke-linecap:round; stroke-linejoin:round; stroke-width:4; stroke-opacity:1; fill:none" points="279.759,1423.18 279.759,1404.28 "></polyline>
<polyline clip-path="url(#clip800)" style="stroke:#000000; stroke-linecap:round; stroke-linejoin:round; stroke-width:4; stroke-opacity:1; fill:none" points="782.913,1423.18 782.913,1404.28 "></polyline>
<polyline clip-path="url(#clip800)" style="stroke:#000000; stroke-linecap:round; stroke-linejoin:round; stroke-width:4; stroke-opacity:1; fill:none" points="1286.07,1423.18 1286.07,1404.28 "></polyline>
<polyline clip-path="url(#clip800)" style="stroke:#000000; stroke-linecap:round; stroke-linejoin:round; stroke-width:4; stroke-opacity:1; fill:none" points="1789.22,1423.18 1789.22,1404.28 "></polyline>
<polyline clip-path="url(#clip800)" style="stroke:#000000; stroke-linecap:round; stroke-linejoin:round; stroke-width:4; stroke-opacity:1; fill:none" points="2292.38,1423.18 2292.38,1404.28 "></polyline>
<path clip-path="url(#clip800)" d="M242.062 1454.1 Q238.451 1454.1 236.622 1457.66 Q234.817 1461.2 234.817 1468.33 Q234.817 1475.44 236.622 1479.01 Q238.451 1482.55 242.062 1482.55 Q245.696 1482.55 247.502 1479.01 Q249.331 1475.44 249.331 1468.33 Q249.331 1461.2 247.502 1457.66 Q245.696 1454.1 242.062 1454.1 M242.062 1450.39 Q247.872 1450.39 250.928 1455 Q254.007 1459.58 254.007 1468.33 Q254.007 1477.06 250.928 1481.67 Q247.872 1486.25 242.062 1486.25 Q236.252 1486.25 233.173 1481.67 Q230.118 1477.06 230.118 1468.33 Q230.118 1459.58 233.173 1455 Q236.252 1450.39 242.062 1450.39 Z" fill="#000000" fill-rule="nonzero" fill-opacity="1"></path><path clip-path="url(#clip800)" d="M262.224 1479.7 L267.108 1479.7 L267.108 1485.58 L262.224 1485.58 L262.224 1479.7 Z" fill="#000000" fill-rule="nonzero" fill-opacity="1"></path><path clip-path="url(#clip800)" d="M287.293 1454.1 Q283.682 1454.1 281.854 1457.66 Q280.048 1461.2 280.048 1468.33 Q280.048 1475.44 281.854 1479.01 Q283.682 1482.55 287.293 1482.55 Q290.928 1482.55 292.733 1479.01 Q294.562 1475.44 294.562 1468.33 Q294.562 1461.2 292.733 1457.66 Q290.928 1454.1 287.293 1454.1 M287.293 1450.39 Q293.104 1450.39 296.159 1455 Q299.238 1459.58 299.238 1468.33 Q299.238 1477.06 296.159 1481.67 Q293.104 1486.25 287.293 1486.25 Q281.483 1486.25 278.405 1481.67 Q275.349 1477.06 275.349 1468.33 Q275.349 1459.58 278.405 1455 Q281.483 1450.39 287.293 1450.39 Z" fill="#000000" fill-rule="nonzero" fill-opacity="1"></path><path clip-path="url(#clip800)" d="M317.455 1454.1 Q313.844 1454.1 312.015 1457.66 Q310.21 1461.2 310.21 1468.33 Q310.21 1475.44 312.015 1479.01 Q313.844 1482.55 317.455 1482.55 Q321.09 1482.55 322.895 1479.01 Q324.724 1475.44 324.724 1468.33 Q324.724 1461.2 322.895 1457.66 Q321.09 1454.1 317.455 1454.1 M317.455 1450.39 Q323.265 1450.39 326.321 1455 Q329.4 1459.58 329.4 1468.33 Q329.4 1477.06 326.321 1481.67 Q323.265 1486.25 317.455 1486.25 Q311.645 1486.25 308.566 1481.67 Q305.511 1477.06 305.511 1468.33 Q305.511 1459.58 308.566 1455 Q311.645 1450.39 317.455 1450.39 Z" fill="#000000" fill-rule="nonzero" fill-opacity="1"></path><path clip-path="url(#clip800)" d="M745.714 1454.1 Q742.103 1454.1 740.275 1457.66 Q738.469 1461.2 738.469 1468.33 Q738.469 1475.44 740.275 1479.01 Q742.103 1482.55 745.714 1482.55 Q749.349 1482.55 751.154 1479.01 Q752.983 1475.44 752.983 1468.33 Q752.983 1461.2 751.154 1457.66 Q749.349 1454.1 745.714 1454.1 M745.714 1450.39 Q751.525 1450.39 754.58 1455 Q757.659 1459.58 757.659 1468.33 Q757.659 1477.06 754.58 1481.67 Q751.525 1486.25 745.714 1486.25 Q739.904 1486.25 736.826 1481.67 Q733.77 1477.06 733.77 1468.33 Q733.77 1459.58 736.826 1455 Q739.904 1450.39 745.714 1450.39 Z" fill="#000000" fill-rule="nonzero" fill-opacity="1"></path><path clip-path="url(#clip800)" d="M765.876 1479.7 L770.761 1479.7 L770.761 1485.58 L765.876 1485.58 L765.876 1479.7 Z" fill="#000000" fill-rule="nonzero" fill-opacity="1"></path><path clip-path="url(#clip800)" d="M784.974 1481.64 L801.293 1481.64 L801.293 1485.58 L779.349 1485.58 L779.349 1481.64 Q782.011 1478.89 786.594 1474.26 Q791.2 1469.61 792.381 1468.27 Q794.626 1465.74 795.506 1464.01 Q796.409 1462.25 796.409 1460.56 Q796.409 1457.8 794.464 1456.07 Q792.543 1454.33 789.441 1454.33 Q787.242 1454.33 784.788 1455.09 Q782.358 1455.86 779.58 1457.41 L779.58 1452.69 Q782.404 1451.55 784.858 1450.97 Q787.311 1450.39 789.349 1450.39 Q794.719 1450.39 797.913 1453.08 Q801.108 1455.77 801.108 1460.26 Q801.108 1462.39 800.298 1464.31 Q799.511 1466.2 797.404 1468.8 Q796.825 1469.47 793.724 1472.69 Q790.622 1475.88 784.974 1481.64 Z" fill="#000000" fill-rule="nonzero" fill-opacity="1"></path><path clip-path="url(#clip800)" d="M811.154 1451.02 L829.51 1451.02 L829.51 1454.96 L815.436 1454.96 L815.436 1463.43 Q816.455 1463.08 817.473 1462.92 Q818.492 1462.73 819.51 1462.73 Q825.297 1462.73 828.677 1465.9 Q832.057 1469.08 832.057 1474.49 Q832.057 1480.07 828.584 1483.17 Q825.112 1486.25 818.793 1486.25 Q816.617 1486.25 814.348 1485.88 Q812.103 1485.51 809.696 1484.77 L809.696 1480.07 Q811.779 1481.2 814.001 1481.76 Q816.223 1482.32 818.7 1482.32 Q822.705 1482.32 825.043 1480.21 Q827.381 1478.1 827.381 1474.49 Q827.381 1470.88 825.043 1468.77 Q822.705 1466.67 818.7 1466.67 Q816.825 1466.67 814.95 1467.08 Q813.098 1467.5 811.154 1468.38 L811.154 1451.02 Z" fill="#000000" fill-rule="nonzero" fill-opacity="1"></path><path clip-path="url(#clip800)" d="M1248.37 1454.1 Q1244.76 1454.1 1242.93 1457.66 Q1241.13 1461.2 1241.13 1468.33 Q1241.13 1475.44 1242.93 1479.01 Q1244.76 1482.55 1248.37 1482.55 Q1252.01 1482.55 1253.81 1479.01 Q1255.64 1475.44 1255.64 1468.33 Q1255.64 1461.2 1253.81 1457.66 Q1252.01 1454.1 1248.37 1454.1 M1248.37 1450.39 Q1254.18 1450.39 1257.24 1455 Q1260.32 1459.58 1260.32 1468.33 Q1260.32 1477.06 1257.24 1481.67 Q1254.18 1486.25 1248.37 1486.25 Q1242.56 1486.25 1239.48 1481.67 Q1236.43 1477.06 1236.43 1468.33 Q1236.43 1459.58 1239.48 1455 Q1242.56 1450.39 1248.37 1450.39 Z" fill="#000000" fill-rule="nonzero" fill-opacity="1"></path><path clip-path="url(#clip800)" d="M1268.53 1479.7 L1273.42 1479.7 L1273.42 1485.58 L1268.53 1485.58 L1268.53 1479.7 Z" fill="#000000" fill-rule="nonzero" fill-opacity="1"></path><path clip-path="url(#clip800)" d="M1283.65 1451.02 L1302.01 1451.02 L1302.01 1454.96 L1287.93 1454.96 L1287.93 1463.43 Q1288.95 1463.08 1289.97 1462.92 Q1290.99 1462.73 1292.01 1462.73 Q1297.79 1462.73 1301.17 1465.9 Q1304.55 1469.08 1304.55 1474.49 Q1304.55 1480.07 1301.08 1483.17 Q1297.61 1486.25 1291.29 1486.25 Q1289.11 1486.25 1286.84 1485.88 Q1284.6 1485.51 1282.19 1484.77 L1282.19 1480.07 Q1284.27 1481.2 1286.5 1481.76 Q1288.72 1482.32 1291.2 1482.32 Q1295.2 1482.32 1297.54 1480.21 Q1299.88 1478.1 1299.88 1474.49 Q1299.88 1470.88 1297.54 1468.77 Q1295.2 1466.67 1291.2 1466.67 Q1289.32 1466.67 1287.45 1467.08 Q1285.59 1467.5 1283.65 1468.38 L1283.65 1451.02 Z" fill="#000000" fill-rule="nonzero" fill-opacity="1"></path><path clip-path="url(#clip800)" d="M1323.76 1454.1 Q1320.15 1454.1 1318.32 1457.66 Q1316.52 1461.2 1316.52 1468.33 Q1316.52 1475.44 1318.32 1479.01 Q1320.15 1482.55 1323.76 1482.55 Q1327.4 1482.55 1329.2 1479.01 Q1331.03 1475.44 1331.03 1468.33 Q1331.03 1461.2 1329.2 1457.66 Q1327.4 1454.1 1323.76 1454.1 M1323.76 1450.39 Q1329.57 1450.39 1332.63 1455 Q1335.71 1459.58 1335.71 1468.33 Q1335.71 1477.06 1332.63 1481.67 Q1329.57 1486.25 1323.76 1486.25 Q1317.95 1486.25 1314.88 1481.67 Q1311.82 1477.06 1311.82 1468.33 Q1311.82 1459.58 1314.88 1455 Q1317.95 1450.39 1323.76 1450.39 Z" fill="#000000" fill-rule="nonzero" fill-opacity="1"></path><path clip-path="url(#clip800)" d="M1752.02 1454.1 Q1748.41 1454.1 1746.58 1457.66 Q1744.78 1461.2 1744.78 1468.33 Q1744.78 1475.44 1746.58 1479.01 Q1748.41 1482.55 1752.02 1482.55 Q1755.66 1482.55 1757.46 1479.01 Q1759.29 1475.44 1759.29 1468.33 Q1759.29 1461.2 1757.46 1457.66 Q1755.66 1454.1 1752.02 1454.1 M1752.02 1450.39 Q1757.83 1450.39 1760.89 1455 Q1763.97 1459.58 1763.97 1468.33 Q1763.97 1477.06 1760.89 1481.67 Q1757.83 1486.25 1752.02 1486.25 Q1746.21 1486.25 1743.13 1481.67 Q1740.08 1477.06 1740.08 1468.33 Q1740.08 1459.58 1743.13 1455 Q1746.21 1450.39 1752.02 1450.39 Z" fill="#000000" fill-rule="nonzero" fill-opacity="1"></path><path clip-path="url(#clip800)" d="M1772.19 1479.7 L1777.07 1479.7 L1777.07 1485.58 L1772.19 1485.58 L1772.19 1479.7 Z" fill="#000000" fill-rule="nonzero" fill-opacity="1"></path><path clip-path="url(#clip800)" d="M1786.07 1451.02 L1808.3 1451.02 L1808.3 1453.01 L1795.75 1485.58 L1790.87 1485.58 L1802.67 1454.96 L1786.07 1454.96 L1786.07 1451.02 Z" fill="#000000" fill-rule="nonzero" fill-opacity="1"></path><path clip-path="url(#clip800)" d="M1817.46 1451.02 L1835.82 1451.02 L1835.82 1454.96 L1821.75 1454.96 L1821.75 1463.43 Q1822.76 1463.08 1823.78 1462.92 Q1824.8 1462.73 1825.82 1462.73 Q1831.61 1462.73 1834.99 1465.9 Q1838.37 1469.08 1838.37 1474.49 Q1838.37 1480.07 1834.89 1483.17 Q1831.42 1486.25 1825.1 1486.25 Q1822.93 1486.25 1820.66 1485.88 Q1818.41 1485.51 1816 1484.77 L1816 1480.07 Q1818.09 1481.2 1820.31 1481.76 Q1822.53 1482.32 1825.01 1482.32 Q1829.01 1482.32 1831.35 1480.21 Q1833.69 1478.1 1833.69 1474.49 Q1833.69 1470.88 1831.35 1468.77 Q1829.01 1466.67 1825.01 1466.67 Q1823.13 1466.67 1821.26 1467.08 Q1819.41 1467.5 1817.46 1468.38 L1817.46 1451.02 Z" fill="#000000" fill-rule="nonzero" fill-opacity="1"></path><path clip-path="url(#clip800)" d="M2244.45 1481.64 L2252.09 1481.64 L2252.09 1455.28 L2243.78 1456.95 L2243.78 1452.69 L2252.04 1451.02 L2256.72 1451.02 L2256.72 1481.64 L2264.36 1481.64 L2264.36 1485.58 L2244.45 1485.58 L2244.45 1481.64 Z" fill="#000000" fill-rule="nonzero" fill-opacity="1"></path><path clip-path="url(#clip800)" d="M2273.8 1479.7 L2278.69 1479.7 L2278.69 1485.58 L2273.8 1485.58 L2273.8 1479.7 Z" fill="#000000" fill-rule="nonzero" fill-opacity="1"></path><path clip-path="url(#clip800)" d="M2298.87 1454.1 Q2295.26 1454.1 2293.43 1457.66 Q2291.63 1461.2 2291.63 1468.33 Q2291.63 1475.44 2293.43 1479.01 Q2295.26 1482.55 2298.87 1482.55 Q2302.5 1482.55 2304.31 1479.01 Q2306.14 1475.44 2306.14 1468.33 Q2306.14 1461.2 2304.31 1457.66 Q2302.5 1454.1 2298.87 1454.1 M2298.87 1450.39 Q2304.68 1450.39 2307.74 1455 Q2310.81 1459.58 2310.81 1468.33 Q2310.81 1477.06 2307.74 1481.67 Q2304.68 1486.25 2298.87 1486.25 Q2293.06 1486.25 2289.98 1481.67 Q2286.93 1477.06 2286.93 1468.33 Q2286.93 1459.58 2289.98 1455 Q2293.06 1450.39 2298.87 1450.39 Z" fill="#000000" fill-rule="nonzero" fill-opacity="1"></path><path clip-path="url(#clip800)" d="M2329.03 1454.1 Q2325.42 1454.1 2323.59 1457.66 Q2321.79 1461.2 2321.79 1468.33 Q2321.79 1475.44 2323.59 1479.01 Q2325.42 1482.55 2329.03 1482.55 Q2332.67 1482.55 2334.47 1479.01 Q2336.3 1475.44 2336.3 1468.33 Q2336.3 1461.2 2334.47 1457.66 Q2332.67 1454.1 2329.03 1454.1 M2329.03 1450.39 Q2334.84 1450.39 2337.9 1455 Q2340.98 1459.58 2340.98 1468.33 Q2340.98 1477.06 2337.9 1481.67 Q2334.84 1486.25 2329.03 1486.25 Q2323.22 1486.25 2320.14 1481.67 Q2317.09 1477.06 2317.09 1468.33 Q2317.09 1459.58 2320.14 1455 Q2323.22 1450.39 2329.03 1450.39 Z" fill="#000000" fill-rule="nonzero" fill-opacity="1"></path><path clip-path="url(#clip800)" d="M1060.93 1562.7 L1060.93 1581.6 L1055.04 1581.6 L1055.04 1532.4 L1060.93 1532.4 L1060.93 1537.81 Q1062.77 1534.62 1065.58 1533.1 Q1068.41 1531.54 1072.32 1531.54 Q1078.82 1531.54 1082.86 1536.69 Q1086.93 1541.85 1086.93 1550.25 Q1086.93 1558.65 1082.86 1563.81 Q1078.82 1568.97 1072.32 1568.97 Q1068.41 1568.97 1065.58 1567.44 Q1062.77 1565.88 1060.93 1562.7 M1080.85 1550.25 Q1080.85 1543.79 1078.18 1540.13 Q1075.54 1536.44 1070.89 1536.44 Q1066.24 1536.44 1063.57 1540.13 Q1060.93 1543.79 1060.93 1550.25 Q1060.93 1556.71 1063.57 1560.4 Q1066.24 1564.07 1070.89 1564.07 Q1075.54 1564.07 1078.18 1560.4 Q1080.85 1556.71 1080.85 1550.25 Z" fill="#000000" fill-rule="nonzero" fill-opacity="1"></path><path clip-path="url(#clip800)" d="M1127.13 1548.76 L1127.13 1551.62 L1100.21 1551.62 Q1100.59 1557.67 1103.83 1560.85 Q1107.11 1564 1112.94 1564 Q1116.31 1564 1119.46 1563.17 Q1122.64 1562.35 1125.76 1560.69 L1125.76 1566.23 Q1122.61 1567.57 1119.3 1568.27 Q1115.99 1568.97 1112.59 1568.97 Q1104.06 1568.97 1099.06 1564 Q1094.09 1559.04 1094.09 1550.57 Q1094.09 1541.82 1098.8 1536.69 Q1103.55 1531.54 1111.57 1531.54 Q1118.76 1531.54 1122.93 1536.18 Q1127.13 1540.8 1127.13 1548.76 M1121.28 1547.04 Q1121.21 1542.23 1118.57 1539.37 Q1115.96 1536.5 1111.63 1536.5 Q1106.73 1536.5 1103.77 1539.27 Q1100.84 1542.04 1100.4 1547.07 L1121.28 1547.04 Z" fill="#000000" fill-rule="nonzero" fill-opacity="1"></path><path clip-path="url(#clip800)" d="M1157.4 1537.87 Q1156.41 1537.3 1155.24 1537.04 Q1154.09 1536.76 1152.69 1536.76 Q1147.73 1536.76 1145.05 1540 Q1142.41 1543.22 1142.41 1549.27 L1142.41 1568.04 L1136.52 1568.04 L1136.52 1532.4 L1142.41 1532.4 L1142.41 1537.93 Q1144.26 1534.69 1147.22 1533.13 Q1150.18 1531.54 1154.41 1531.54 Q1155.01 1531.54 1155.75 1531.63 Q1156.48 1531.7 1157.37 1531.85 L1157.4 1537.87 Z" fill="#000000" fill-rule="nonzero" fill-opacity="1"></path><path clip-path="url(#clip800)" d="M1187.77 1533.76 L1187.77 1539.24 Q1185.28 1537.87 1182.77 1537.2 Q1180.29 1536.5 1177.74 1536.5 Q1172.04 1536.5 1168.89 1540.13 Q1165.74 1543.73 1165.74 1550.25 Q1165.74 1556.78 1168.89 1560.4 Q1172.04 1564 1177.74 1564 Q1180.29 1564 1182.77 1563.33 Q1185.28 1562.63 1187.77 1561.26 L1187.77 1566.68 Q1185.31 1567.82 1182.67 1568.39 Q1180.06 1568.97 1177.1 1568.97 Q1169.05 1568.97 1164.31 1563.91 Q1159.57 1558.85 1159.57 1550.25 Q1159.57 1541.53 1164.34 1536.53 Q1169.15 1531.54 1177.48 1531.54 Q1180.19 1531.54 1182.77 1532.11 Q1185.35 1532.65 1187.77 1533.76 Z" fill="#000000" fill-rule="nonzero" fill-opacity="1"></path><path clip-path="url(#clip800)" d="M1228.44 1548.76 L1228.44 1551.62 L1201.52 1551.62 Q1201.9 1557.67 1205.14 1560.85 Q1208.42 1564 1214.25 1564 Q1217.62 1564 1220.77 1563.17 Q1223.95 1562.35 1227.07 1560.69 L1227.07 1566.23 Q1223.92 1567.57 1220.61 1568.27 Q1217.3 1568.97 1213.9 1568.97 Q1205.37 1568.97 1200.37 1564 Q1195.4 1559.04 1195.4 1550.57 Q1195.4 1541.82 1200.12 1536.69 Q1204.86 1531.54 1212.88 1531.54 Q1220.07 1531.54 1224.24 1536.18 Q1228.44 1540.8 1228.44 1548.76 M1222.59 1547.04 Q1222.52 1542.23 1219.88 1539.37 Q1217.27 1536.5 1212.94 1536.5 Q1208.04 1536.5 1205.08 1539.27 Q1202.15 1542.04 1201.71 1547.07 L1222.59 1547.04 Z" fill="#000000" fill-rule="nonzero" fill-opacity="1"></path><path clip-path="url(#clip800)" d="M1267.69 1546.53 L1267.69 1568.04 L1261.83 1568.04 L1261.83 1546.72 Q1261.83 1541.66 1259.86 1539.14 Q1257.88 1536.63 1253.94 1536.63 Q1249.19 1536.63 1246.46 1539.65 Q1243.72 1542.68 1243.72 1547.9 L1243.72 1568.04 L1237.83 1568.04 L1237.83 1532.4 L1243.72 1532.4 L1243.72 1537.93 Q1245.82 1534.72 1248.65 1533.13 Q1251.52 1531.54 1255.24 1531.54 Q1261.39 1531.54 1264.54 1535.36 Q1267.69 1539.14 1267.69 1546.53 Z" fill="#000000" fill-rule="nonzero" fill-opacity="1"></path><path clip-path="url(#clip800)" d="M1285.16 1522.27 L1285.16 1532.4 L1297.22 1532.4 L1297.22 1536.95 L1285.16 1536.95 L1285.16 1556.3 Q1285.16 1560.66 1286.34 1561.9 Q1287.55 1563.14 1291.21 1563.14 L1297.22 1563.14 L1297.22 1568.04 L1291.21 1568.04 Q1284.43 1568.04 1281.85 1565.53 Q1279.27 1562.98 1279.27 1556.3 L1279.27 1536.95 L1274.98 1536.95 L1274.98 1532.4 L1279.27 1532.4 L1279.27 1522.27 L1285.16 1522.27 Z" fill="#000000" fill-rule="nonzero" fill-opacity="1"></path><path clip-path="url(#clip800)" d="M1332.01 1578.87 L1332.01 1583.42 L1298.15 1583.42 L1298.15 1578.87 L1332.01 1578.87 Z" fill="#000000" fill-rule="nonzero" fill-opacity="1"></path><path clip-path="url(#clip800)" d="M1334.11 1532.4 L1339.97 1532.4 L1347.29 1560.21 L1354.58 1532.4 L1361.49 1532.4 L1368.81 1560.21 L1376.1 1532.4 L1381.95 1532.4 L1372.63 1568.04 L1365.72 1568.04 L1358.05 1538.83 L1350.35 1568.04 L1343.44 1568.04 L1334.11 1532.4 Z" fill="#000000" fill-rule="nonzero" fill-opacity="1"></path><path clip-path="url(#clip800)" d="M1407.03 1550.12 Q1399.93 1550.12 1397.2 1551.75 Q1394.46 1553.37 1394.46 1557.29 Q1394.46 1560.4 1396.5 1562.25 Q1398.57 1564.07 1402.1 1564.07 Q1406.97 1564.07 1409.9 1560.63 Q1412.86 1557.16 1412.86 1551.43 L1412.86 1550.12 L1407.03 1550.12 M1418.71 1547.71 L1418.71 1568.04 L1412.86 1568.04 L1412.86 1562.63 Q1410.85 1565.88 1407.86 1567.44 Q1404.87 1568.97 1400.54 1568.97 Q1395.06 1568.97 1391.82 1565.91 Q1388.6 1562.82 1388.6 1557.67 Q1388.6 1551.65 1392.61 1548.6 Q1396.66 1545.54 1404.65 1545.54 L1412.86 1545.54 L1412.86 1544.97 Q1412.86 1540.93 1410.18 1538.73 Q1407.54 1536.5 1402.74 1536.5 Q1399.68 1536.5 1396.78 1537.23 Q1393.89 1537.97 1391.21 1539.43 L1391.21 1534.02 Q1394.43 1532.78 1397.45 1532.17 Q1400.48 1531.54 1403.34 1531.54 Q1411.07 1531.54 1414.89 1535.55 Q1418.71 1539.56 1418.71 1547.71 Z" fill="#000000" fill-rule="nonzero" fill-opacity="1"></path><path clip-path="url(#clip800)" d="M1436.57 1522.27 L1436.57 1532.4 L1448.63 1532.4 L1448.63 1536.95 L1436.57 1536.95 L1436.57 1556.3 Q1436.57 1560.66 1437.75 1561.9 Q1438.96 1563.14 1442.62 1563.14 L1448.63 1563.14 L1448.63 1568.04 L1442.62 1568.04 Q1435.84 1568.04 1433.26 1565.53 Q1430.68 1562.98 1430.68 1556.3 L1430.68 1536.95 L1426.38 1536.95 L1426.38 1532.4 L1430.68 1532.4 L1430.68 1522.27 L1436.57 1522.27 Z" fill="#000000" fill-rule="nonzero" fill-opacity="1"></path><path clip-path="url(#clip800)" d="M1486.83 1548.76 L1486.83 1551.62 L1459.9 1551.62 Q1460.28 1557.67 1463.53 1560.85 Q1466.81 1564 1472.63 1564 Q1476 1564 1479.16 1563.17 Q1482.34 1562.35 1485.46 1560.69 L1485.46 1566.23 Q1482.31 1567.57 1479 1568.27 Q1475.69 1568.97 1472.28 1568.97 Q1463.75 1568.97 1458.75 1564 Q1453.79 1559.04 1453.79 1550.57 Q1453.79 1541.82 1458.5 1536.69 Q1463.24 1531.54 1471.26 1531.54 Q1478.46 1531.54 1482.63 1536.18 Q1486.83 1540.8 1486.83 1548.76 M1480.97 1547.04 Q1480.91 1542.23 1478.26 1539.37 Q1475.65 1536.5 1471.33 1536.5 Q1466.42 1536.5 1463.46 1539.27 Q1460.54 1542.04 1460.09 1547.07 L1480.97 1547.04 Z" fill="#000000" fill-rule="nonzero" fill-opacity="1"></path><path clip-path="url(#clip800)" d="M1517.1 1537.87 Q1516.11 1537.3 1514.93 1537.04 Q1513.79 1536.76 1512.38 1536.76 Q1507.42 1536.76 1504.75 1540 Q1502.1 1543.22 1502.1 1549.27 L1502.1 1568.04 L1496.22 1568.04 L1496.22 1532.4 L1502.1 1532.4 L1502.1 1537.93 Q1503.95 1534.69 1506.91 1533.13 Q1509.87 1531.54 1514.1 1531.54 Q1514.71 1531.54 1515.44 1531.63 Q1516.17 1531.7 1517.06 1531.85 L1517.1 1537.87 Z" fill="#000000" fill-rule="nonzero" fill-opacity="1"></path><polyline clip-path="url(#clip802)" style="stroke:#000000; stroke-linecap:round; stroke-linejoin:round; stroke-width:2; stroke-opacity:0.1; fill:none" points="219.38,1386.4 2352.76,1386.4 "></polyline>
<polyline clip-path="url(#clip802)" style="stroke:#000000; stroke-linecap:round; stroke-linejoin:round; stroke-width:2; stroke-opacity:0.1; fill:none" points="219.38,1158.93 2352.76,1158.93 "></polyline>
<polyline clip-path="url(#clip802)" style="stroke:#000000; stroke-linecap:round; stroke-linejoin:round; stroke-width:2; stroke-opacity:0.1; fill:none" points="219.38,931.47 2352.76,931.47 "></polyline>
<polyline clip-path="url(#clip802)" style="stroke:#000000; stroke-linecap:round; stroke-linejoin:round; stroke-width:2; stroke-opacity:0.1; fill:none" points="219.38,704.007 2352.76,704.007 "></polyline>
<polyline clip-path="url(#clip802)" style="stroke:#000000; stroke-linecap:round; stroke-linejoin:round; stroke-width:2; stroke-opacity:0.1; fill:none" points="219.38,476.544 2352.76,476.544 "></polyline>
<polyline clip-path="url(#clip802)" style="stroke:#000000; stroke-linecap:round; stroke-linejoin:round; stroke-width:2; stroke-opacity:0.1; fill:none" points="219.38,249.081 2352.76,249.081 "></polyline>
<polyline clip-path="url(#clip800)" style="stroke:#000000; stroke-linecap:round; stroke-linejoin:round; stroke-width:4; stroke-opacity:1; fill:none" points="219.38,1423.18 219.38,123.472 "></polyline>
<polyline clip-path="url(#clip800)" style="stroke:#000000; stroke-linecap:round; stroke-linejoin:round; stroke-width:4; stroke-opacity:1; fill:none" points="219.38,1386.4 238.278,1386.4 "></polyline>
<polyline clip-path="url(#clip800)" style="stroke:#000000; stroke-linecap:round; stroke-linejoin:round; stroke-width:4; stroke-opacity:1; fill:none" points="219.38,1158.93 238.278,1158.93 "></polyline>
<polyline clip-path="url(#clip800)" style="stroke:#000000; stroke-linecap:round; stroke-linejoin:round; stroke-width:4; stroke-opacity:1; fill:none" points="219.38,931.47 238.278,931.47 "></polyline>
<polyline clip-path="url(#clip800)" style="stroke:#000000; stroke-linecap:round; stroke-linejoin:round; stroke-width:4; stroke-opacity:1; fill:none" points="219.38,704.007 238.278,704.007 "></polyline>
<polyline clip-path="url(#clip800)" style="stroke:#000000; stroke-linecap:round; stroke-linejoin:round; stroke-width:4; stroke-opacity:1; fill:none" points="219.38,476.544 238.278,476.544 "></polyline>
<polyline clip-path="url(#clip800)" style="stroke:#000000; stroke-linecap:round; stroke-linejoin:round; stroke-width:4; stroke-opacity:1; fill:none" points="219.38,249.081 238.278,249.081 "></polyline>
<path clip-path="url(#clip800)" d="M126.205 1372.19 Q122.593 1372.19 120.765 1375.76 Q118.959 1379.3 118.959 1386.43 Q118.959 1393.54 120.765 1397.1 Q122.593 1400.64 126.205 1400.64 Q129.839 1400.64 131.644 1397.1 Q133.473 1393.54 133.473 1386.43 Q133.473 1379.3 131.644 1375.76 Q129.839 1372.19 126.205 1372.19 M126.205 1368.49 Q132.015 1368.49 135.07 1373.1 Q138.149 1377.68 138.149 1386.43 Q138.149 1395.16 135.07 1399.76 Q132.015 1404.35 126.205 1404.35 Q120.394 1404.35 117.316 1399.76 Q114.26 1395.16 114.26 1386.43 Q114.26 1377.68 117.316 1373.1 Q120.394 1368.49 126.205 1368.49 Z" fill="#000000" fill-rule="nonzero" fill-opacity="1"></path><path clip-path="url(#clip800)" d="M146.366 1397.8 L151.251 1397.8 L151.251 1403.68 L146.366 1403.68 L146.366 1397.8 Z" fill="#000000" fill-rule="nonzero" fill-opacity="1"></path><path clip-path="url(#clip800)" d="M171.436 1372.19 Q167.825 1372.19 165.996 1375.76 Q164.19 1379.3 164.19 1386.43 Q164.19 1393.54 165.996 1397.1 Q167.825 1400.64 171.436 1400.64 Q175.07 1400.64 176.876 1397.1 Q178.704 1393.54 178.704 1386.43 Q178.704 1379.3 176.876 1375.76 Q175.07 1372.19 171.436 1372.19 M171.436 1368.49 Q177.246 1368.49 180.301 1373.1 Q183.38 1377.68 183.38 1386.43 Q183.38 1395.16 180.301 1399.76 Q177.246 1404.35 171.436 1404.35 Q165.626 1404.35 162.547 1399.76 Q159.491 1395.16 159.491 1386.43 Q159.491 1377.68 162.547 1373.1 Q165.626 1368.49 171.436 1368.49 Z" fill="#000000" fill-rule="nonzero" fill-opacity="1"></path><path clip-path="url(#clip800)" d="M127.2 1144.73 Q123.589 1144.73 121.76 1148.3 Q119.955 1151.84 119.955 1158.97 Q119.955 1166.07 121.76 1169.64 Q123.589 1173.18 127.2 1173.18 Q130.834 1173.18 132.64 1169.64 Q134.468 1166.07 134.468 1158.97 Q134.468 1151.84 132.64 1148.3 Q130.834 1144.73 127.2 1144.73 M127.2 1141.03 Q133.01 1141.03 136.066 1145.63 Q139.144 1150.22 139.144 1158.97 Q139.144 1167.69 136.066 1172.3 Q133.01 1176.88 127.2 1176.88 Q121.39 1176.88 118.311 1172.3 Q115.256 1167.69 115.256 1158.97 Q115.256 1150.22 118.311 1145.63 Q121.39 1141.03 127.2 1141.03 Z" fill="#000000" fill-rule="nonzero" fill-opacity="1"></path><path clip-path="url(#clip800)" d="M147.362 1170.33 L152.246 1170.33 L152.246 1176.21 L147.362 1176.21 L147.362 1170.33 Z" fill="#000000" fill-rule="nonzero" fill-opacity="1"></path><path clip-path="url(#clip800)" d="M162.477 1141.65 L180.834 1141.65 L180.834 1145.59 L166.76 1145.59 L166.76 1154.06 Q167.778 1153.71 168.797 1153.55 Q169.815 1153.37 170.834 1153.37 Q176.621 1153.37 180.001 1156.54 Q183.38 1159.71 183.38 1165.12 Q183.38 1170.7 179.908 1173.81 Q176.436 1176.88 170.116 1176.88 Q167.94 1176.88 165.672 1176.51 Q163.427 1176.14 161.019 1175.4 L161.019 1170.7 Q163.102 1171.84 165.325 1172.39 Q167.547 1172.95 170.024 1172.95 Q174.028 1172.95 176.366 1170.84 Q178.704 1168.74 178.704 1165.12 Q178.704 1161.51 176.366 1159.41 Q174.028 1157.3 170.024 1157.3 Q168.149 1157.3 166.274 1157.72 Q164.422 1158.13 162.477 1159.01 L162.477 1141.65 Z" fill="#000000" fill-rule="nonzero" fill-opacity="1"></path><path clip-path="url(#clip800)" d="M117.015 944.815 L124.654 944.815 L124.654 918.449 L116.343 920.116 L116.343 915.856 L124.607 914.19 L129.283 914.19 L129.283 944.815 L136.922 944.815 L136.922 948.75 L117.015 948.75 L117.015 944.815 Z" fill="#000000" fill-rule="nonzero" fill-opacity="1"></path><path clip-path="url(#clip800)" d="M146.366 942.87 L151.251 942.87 L151.251 948.75 L146.366 948.75 L146.366 942.87 Z" fill="#000000" fill-rule="nonzero" fill-opacity="1"></path><path clip-path="url(#clip800)" d="M171.436 917.268 Q167.825 917.268 165.996 920.833 Q164.19 924.375 164.19 931.504 Q164.19 938.611 165.996 942.176 Q167.825 945.717 171.436 945.717 Q175.07 945.717 176.876 942.176 Q178.704 938.611 178.704 931.504 Q178.704 924.375 176.876 920.833 Q175.07 917.268 171.436 917.268 M171.436 913.565 Q177.246 913.565 180.301 918.171 Q183.38 922.754 183.38 931.504 Q183.38 940.231 180.301 944.838 Q177.246 949.421 171.436 949.421 Q165.626 949.421 162.547 944.838 Q159.491 940.231 159.491 931.504 Q159.491 922.754 162.547 918.171 Q165.626 913.565 171.436 913.565 Z" fill="#000000" fill-rule="nonzero" fill-opacity="1"></path><path clip-path="url(#clip800)" d="M118.01 717.352 L125.649 717.352 L125.649 690.986 L117.339 692.653 L117.339 688.393 L125.603 686.727 L130.279 686.727 L130.279 717.352 L137.917 717.352 L137.917 721.287 L118.01 721.287 L118.01 717.352 Z" fill="#000000" fill-rule="nonzero" fill-opacity="1"></path><path clip-path="url(#clip800)" d="M147.362 715.407 L152.246 715.407 L152.246 721.287 L147.362 721.287 L147.362 715.407 Z" fill="#000000" fill-rule="nonzero" fill-opacity="1"></path><path clip-path="url(#clip800)" d="M162.477 686.727 L180.834 686.727 L180.834 690.662 L166.76 690.662 L166.76 699.134 Q167.778 698.787 168.797 698.625 Q169.815 698.44 170.834 698.44 Q176.621 698.44 180.001 701.611 Q183.38 704.782 183.38 710.199 Q183.38 715.777 179.908 718.879 Q176.436 721.958 170.116 721.958 Q167.94 721.958 165.672 721.588 Q163.427 721.217 161.019 720.477 L161.019 715.777 Q163.102 716.912 165.325 717.467 Q167.547 718.023 170.024 718.023 Q174.028 718.023 176.366 715.916 Q178.704 713.81 178.704 710.199 Q178.704 706.588 176.366 704.481 Q174.028 702.375 170.024 702.375 Q168.149 702.375 166.274 702.791 Q164.422 703.208 162.477 704.088 L162.477 686.727 Z" fill="#000000" fill-rule="nonzero" fill-opacity="1"></path><path clip-path="url(#clip800)" d="M120.232 489.889 L136.552 489.889 L136.552 493.824 L114.607 493.824 L114.607 489.889 Q117.269 487.134 121.853 482.504 Q126.459 477.852 127.64 476.509 Q129.885 473.986 130.765 472.25 Q131.667 470.491 131.667 468.801 Q131.667 466.046 129.723 464.31 Q127.802 462.574 124.7 462.574 Q122.501 462.574 120.047 463.338 Q117.617 464.102 114.839 465.653 L114.839 460.93 Q117.663 459.796 120.117 459.217 Q122.57 458.639 124.607 458.639 Q129.978 458.639 133.172 461.324 Q136.367 464.009 136.367 468.5 Q136.367 470.629 135.556 472.551 Q134.769 474.449 132.663 477.041 Q132.084 477.713 128.982 480.93 Q125.88 484.125 120.232 489.889 Z" fill="#000000" fill-rule="nonzero" fill-opacity="1"></path><path clip-path="url(#clip800)" d="M146.366 487.944 L151.251 487.944 L151.251 493.824 L146.366 493.824 L146.366 487.944 Z" fill="#000000" fill-rule="nonzero" fill-opacity="1"></path><path clip-path="url(#clip800)" d="M171.436 462.342 Q167.825 462.342 165.996 465.907 Q164.19 469.449 164.19 476.578 Q164.19 483.685 165.996 487.25 Q167.825 490.791 171.436 490.791 Q175.07 490.791 176.876 487.25 Q178.704 483.685 178.704 476.578 Q178.704 469.449 176.876 465.907 Q175.07 462.342 171.436 462.342 M171.436 458.639 Q177.246 458.639 180.301 463.245 Q183.38 467.828 183.38 476.578 Q183.38 485.305 180.301 489.912 Q177.246 494.495 171.436 494.495 Q165.626 494.495 162.547 489.912 Q159.491 485.305 159.491 476.578 Q159.491 467.828 162.547 463.245 Q165.626 458.639 171.436 458.639 Z" fill="#000000" fill-rule="nonzero" fill-opacity="1"></path><path clip-path="url(#clip800)" d="M121.228 262.426 L137.547 262.426 L137.547 266.361 L115.603 266.361 L115.603 262.426 Q118.265 259.671 122.848 255.041 Q127.455 250.389 128.635 249.046 Q130.88 246.523 131.76 244.787 Q132.663 243.028 132.663 241.338 Q132.663 238.583 130.718 236.847 Q128.797 235.111 125.695 235.111 Q123.496 235.111 121.043 235.875 Q118.612 236.639 115.834 238.19 L115.834 233.467 Q118.658 232.333 121.112 231.754 Q123.566 231.176 125.603 231.176 Q130.973 231.176 134.167 233.861 Q137.362 236.546 137.362 241.037 Q137.362 243.166 136.552 245.088 Q135.765 246.986 133.658 249.578 Q133.08 250.25 129.978 253.467 Q126.876 256.662 121.228 262.426 Z" fill="#000000" fill-rule="nonzero" fill-opacity="1"></path><path clip-path="url(#clip800)" d="M147.362 260.481 L152.246 260.481 L152.246 266.361 L147.362 266.361 L147.362 260.481 Z" fill="#000000" fill-rule="nonzero" fill-opacity="1"></path><path clip-path="url(#clip800)" d="M162.477 231.801 L180.834 231.801 L180.834 235.736 L166.76 235.736 L166.76 244.208 Q167.778 243.861 168.797 243.699 Q169.815 243.514 170.834 243.514 Q176.621 243.514 180.001 246.685 Q183.38 249.856 183.38 255.273 Q183.38 260.852 179.908 263.953 Q176.436 267.032 170.116 267.032 Q167.94 267.032 165.672 266.662 Q163.427 266.291 161.019 265.551 L161.019 260.852 Q163.102 261.986 165.325 262.541 Q167.547 263.097 170.024 263.097 Q174.028 263.097 176.366 260.99 Q178.704 258.884 178.704 255.273 Q178.704 251.662 176.366 249.555 Q174.028 247.449 170.024 247.449 Q168.149 247.449 166.274 247.865 Q164.422 248.282 162.477 249.162 L162.477 231.801 Z" fill="#000000" fill-rule="nonzero" fill-opacity="1"></path><path clip-path="url(#clip800)" d="M33.7671 864.053 L14.479 864.053 L14.479 858.197 L64.0042 858.197 L64.0042 864.053 L58.657 864.053 Q61.8398 865.899 63.3994 868.732 Q64.9272 871.533 64.9272 875.48 Q64.9272 881.941 59.771 886.015 Q54.6147 890.057 46.212 890.057 Q37.8093 890.057 32.6531 886.015 Q27.4968 881.941 27.4968 875.48 Q27.4968 871.533 29.0564 868.732 Q30.5842 865.899 33.7671 864.053 M46.212 884.01 Q52.6732 884.01 56.3653 881.368 Q60.0256 878.694 60.0256 874.047 Q60.0256 869.4 56.3653 866.727 Q52.6732 864.053 46.212 864.053 Q39.7508 864.053 36.0905 866.727 Q32.3984 869.4 32.3984 874.047 Q32.3984 878.694 36.0905 881.368 Q39.7508 884.01 46.212 884.01 Z" fill="#000000" fill-rule="nonzero" fill-opacity="1"></path><path clip-path="url(#clip800)" d="M44.7161 815.642 L47.5806 815.642 L47.5806 842.569 Q53.6281 842.187 56.8109 838.941 Q59.9619 835.662 59.9619 829.838 Q59.9619 826.464 59.1344 823.313 Q58.3069 820.13 56.6518 817.011 L62.1899 817.011 Q63.5267 820.162 64.227 823.472 Q64.9272 826.782 64.9272 830.188 Q64.9272 838.718 59.9619 843.715 Q54.9967 848.68 46.5303 848.68 Q37.7774 848.68 32.6531 843.969 Q27.4968 839.227 27.4968 831.206 Q27.4968 824.013 32.1438 819.843 Q36.7589 815.642 44.7161 815.642 M42.9973 821.498 Q38.1912 821.562 35.3266 824.204 Q32.4621 826.814 32.4621 831.143 Q32.4621 836.044 35.2312 839.004 Q38.0002 841.932 43.0292 842.378 L42.9973 821.498 Z" fill="#000000" fill-rule="nonzero" fill-opacity="1"></path><path clip-path="url(#clip800)" d="M42.4881 776.397 L64.0042 776.397 L64.0042 782.254 L42.679 782.254 Q37.6183 782.254 35.1038 784.227 Q32.5894 786.201 32.5894 790.147 Q32.5894 794.89 35.6131 797.627 Q38.6368 800.364 43.8567 800.364 L64.0042 800.364 L64.0042 806.253 L28.3562 806.253 L28.3562 800.364 L33.8944 800.364 Q30.6797 798.264 29.0883 795.431 Q27.4968 792.566 27.4968 788.842 Q27.4968 782.699 31.3163 779.548 Q35.1038 776.397 42.4881 776.397 Z" fill="#000000" fill-rule="nonzero" fill-opacity="1"></path><path clip-path="url(#clip800)" d="M29.4065 741.991 L34.9447 741.991 Q33.6716 744.473 33.035 747.147 Q32.3984 749.821 32.3984 752.685 Q32.3984 757.046 33.7352 759.242 Q35.072 761.406 37.7456 761.406 Q39.7826 761.406 40.9603 759.847 Q42.1061 758.287 43.1565 753.576 L43.6021 751.571 Q44.9389 745.333 47.3897 742.723 Q49.8086 740.081 54.1691 740.081 Q59.1344 740.081 62.0308 744.028 Q64.9272 747.943 64.9272 754.818 Q64.9272 757.682 64.3543 760.801 Q63.8132 763.889 62.6992 767.326 L56.6518 767.326 Q58.3387 764.08 59.198 760.929 Q60.0256 757.778 60.0256 754.69 Q60.0256 750.553 58.6251 748.325 Q57.1929 746.097 54.6147 746.097 Q52.2276 746.097 50.9545 747.72 Q49.6813 749.311 48.5037 754.754 L48.0262 756.791 Q46.8804 762.234 44.5251 764.653 Q42.138 767.072 38.0002 767.072 Q32.9713 767.072 30.2341 763.507 Q27.4968 759.942 27.4968 753.385 Q27.4968 750.139 27.9743 747.274 Q28.4517 744.41 29.4065 741.991 Z" fill="#000000" fill-rule="nonzero" fill-opacity="1"></path><path clip-path="url(#clip800)" d="M28.3562 730.755 L28.3562 724.899 L64.0042 724.899 L64.0042 730.755 L28.3562 730.755 M14.479 730.755 L14.479 724.899 L21.895 724.899 L21.895 730.755 L14.479 730.755 Z" fill="#000000" fill-rule="nonzero" fill-opacity="1"></path><path clip-path="url(#clip800)" d="M18.2347 706.852 L28.3562 706.852 L28.3562 694.789 L32.9077 694.789 L32.9077 706.852 L52.2594 706.852 Q56.6199 706.852 57.8613 705.674 Q59.1026 704.465 59.1026 700.805 L59.1026 694.789 L64.0042 694.789 L64.0042 700.805 Q64.0042 707.584 61.4897 710.162 Q58.9434 712.74 52.2594 712.74 L32.9077 712.74 L32.9077 717.037 L28.3562 717.037 L28.3562 712.74 L18.2347 712.74 L18.2347 706.852 Z" fill="#000000" fill-rule="nonzero" fill-opacity="1"></path><path clip-path="url(#clip800)" d="M67.3143 672.254 Q73.68 674.737 75.6216 677.092 Q77.5631 679.448 77.5631 683.394 L77.5631 688.073 L72.6615 688.073 L72.6615 684.636 Q72.6615 682.217 71.5157 680.88 Q70.3699 679.543 66.1048 677.92 L63.4312 676.87 L28.3562 691.288 L28.3562 685.081 L56.238 673.941 L28.3562 662.801 L28.3562 656.595 L67.3143 672.254 Z" fill="#000000" fill-rule="nonzero" fill-opacity="1"></path><path clip-path="url(#clip800)" d="M674.949 18.8205 L674.949 41.5461 L685.238 41.5461 Q690.95 41.5461 694.069 38.5889 Q697.188 35.6318 697.188 30.163 Q697.188 24.7348 694.069 21.7777 Q690.95 18.8205 685.238 18.8205 L674.949 18.8205 M666.766 12.096 L685.238 12.096 Q695.406 12.096 700.591 16.714 Q705.817 21.2916 705.817 30.163 Q705.817 39.1155 700.591 43.6931 Q695.406 48.2706 685.238 48.2706 L674.949 48.2706 L674.949 72.576 L666.766 72.576 L666.766 12.096 Z" fill="#000000" fill-rule="nonzero" fill-opacity="1"></path><path clip-path="url(#clip800)" d="M731.094 32.4315 Q725.099 32.4315 721.615 37.1306 Q718.131 41.7891 718.131 49.9314 Q718.131 58.0738 721.575 62.7728 Q725.058 67.4314 731.094 67.4314 Q737.049 67.4314 740.533 62.7323 Q744.017 58.0333 744.017 49.9314 Q744.017 41.8701 740.533 37.1711 Q737.049 32.4315 731.094 32.4315 M731.094 26.1121 Q740.816 26.1121 746.366 32.4315 Q751.916 38.7509 751.916 49.9314 Q751.916 61.0714 746.366 67.4314 Q740.816 73.7508 731.094 73.7508 Q721.331 73.7508 715.782 67.4314 Q710.273 61.0714 710.273 49.9314 Q710.273 38.7509 715.782 32.4315 Q721.331 26.1121 731.094 26.1121 Z" fill="#000000" fill-rule="nonzero" fill-opacity="1"></path><path clip-path="url(#clip800)" d="M793.195 28.5427 L793.195 35.5912 Q790.035 33.9709 786.632 33.1607 Q783.229 32.3505 779.583 32.3505 Q774.034 32.3505 771.239 34.0519 Q768.484 35.7533 768.484 39.156 Q768.484 41.7486 770.469 43.2475 Q772.454 44.7058 778.449 46.0426 L781.001 46.6097 Q788.941 48.3111 792.263 51.4303 Q795.625 54.509 795.625 60.0587 Q795.625 66.3781 790.602 70.0644 Q785.619 73.7508 776.869 73.7508 Q773.224 73.7508 769.254 73.0216 Q765.324 72.3329 760.949 70.9151 L760.949 63.2184 Q765.081 65.3654 769.092 66.4591 Q773.102 67.5124 777.031 67.5124 Q782.298 67.5124 785.133 65.73 Q787.969 63.9071 787.969 60.6258 Q787.969 57.5877 785.903 55.9673 Q783.877 54.3469 776.95 52.8481 L774.358 52.2405 Q767.431 50.7821 764.352 47.7845 Q761.273 44.7463 761.273 39.4801 Q761.273 33.0797 765.81 29.5959 Q770.347 26.1121 778.692 26.1121 Q782.824 26.1121 786.47 26.7198 Q790.116 27.3274 793.195 28.5427 Z" fill="#000000" fill-rule="nonzero" fill-opacity="1"></path><path clip-path="url(#clip800)" d="M814.867 14.324 L814.867 27.2059 L830.22 27.2059 L830.22 32.9987 L814.867 32.9987 L814.867 57.6282 Q814.867 63.1779 816.366 64.7578 Q817.905 66.3376 822.564 66.3376 L830.22 66.3376 L830.22 72.576 L822.564 72.576 Q813.935 72.576 810.654 69.3758 Q807.373 66.1351 807.373 57.6282 L807.373 32.9987 L801.904 32.9987 L801.904 27.2059 L807.373 27.2059 L807.373 14.324 L814.867 14.324 Z" fill="#000000" fill-rule="nonzero" fill-opacity="1"></path><path clip-path="url(#clip800)" d="M878.831 48.0275 L878.831 51.6733 L844.56 51.6733 Q845.046 59.3701 849.178 63.421 Q853.35 67.4314 860.764 67.4314 Q865.058 67.4314 869.068 66.3781 Q873.119 65.3249 877.089 63.2184 L877.089 70.267 Q873.078 71.9684 868.865 72.8596 Q864.652 73.7508 860.318 73.7508 Q849.462 73.7508 843.102 67.4314 Q836.782 61.1119 836.782 50.3365 Q836.782 39.1965 842.778 32.6746 Q848.813 26.1121 859.022 26.1121 Q868.177 26.1121 873.483 32.0264 Q878.831 37.9003 878.831 48.0275 M871.377 45.84 Q871.296 39.7232 867.934 36.0774 Q864.612 32.4315 859.103 32.4315 Q852.864 32.4315 849.097 35.9558 Q845.37 39.4801 844.803 45.8805 L871.377 45.84 Z" fill="#000000" fill-rule="nonzero" fill-opacity="1"></path><path clip-path="url(#clip800)" d="M917.355 34.1734 Q916.099 33.4443 914.6 33.1202 Q913.142 32.7556 911.359 32.7556 Q905.04 32.7556 901.637 36.8875 Q898.275 40.9789 898.275 48.6757 L898.275 72.576 L890.781 72.576 L890.781 27.2059 L898.275 27.2059 L898.275 34.2544 Q900.624 30.1225 904.392 28.1376 Q908.159 26.1121 913.547 26.1121 Q914.317 26.1121 915.248 26.2337 Q916.18 26.3147 917.314 26.5172 L917.355 34.1734 Z" fill="#000000" fill-rule="nonzero" fill-opacity="1"></path><path clip-path="url(#clip800)" d="M925.173 27.2059 L932.627 27.2059 L932.627 72.576 L925.173 72.576 L925.173 27.2059 M925.173 9.54393 L932.627 9.54393 L932.627 18.9825 L925.173 18.9825 L925.173 9.54393 Z" fill="#000000" fill-rule="nonzero" fill-opacity="1"></path><path clip-path="url(#clip800)" d="M965.804 32.4315 Q959.808 32.4315 956.324 37.1306 Q952.841 41.7891 952.841 49.9314 Q952.841 58.0738 956.284 62.7728 Q959.768 67.4314 965.804 67.4314 Q971.758 67.4314 975.242 62.7323 Q978.726 58.0333 978.726 49.9314 Q978.726 41.8701 975.242 37.1711 Q971.758 32.4315 965.804 32.4315 M965.804 26.1121 Q975.526 26.1121 981.075 32.4315 Q986.625 38.7509 986.625 49.9314 Q986.625 61.0714 981.075 67.4314 Q975.526 73.7508 965.804 73.7508 Q956.041 73.7508 950.491 67.4314 Q944.982 61.0714 944.982 49.9314 Q944.982 38.7509 950.491 32.4315 Q956.041 26.1121 965.804 26.1121 Z" fill="#000000" fill-rule="nonzero" fill-opacity="1"></path><path clip-path="url(#clip800)" d="M1025.27 34.1734 Q1024.02 33.4443 1022.52 33.1202 Q1021.06 32.7556 1019.28 32.7556 Q1012.96 32.7556 1009.55 36.8875 Q1006.19 40.9789 1006.19 48.6757 L1006.19 72.576 L998.697 72.576 L998.697 27.2059 L1006.19 27.2059 L1006.19 34.2544 Q1008.54 30.1225 1012.31 28.1376 Q1016.08 26.1121 1021.46 26.1121 Q1022.23 26.1121 1023.16 26.2337 Q1024.1 26.3147 1025.23 26.5172 L1025.27 34.1734 Z" fill="#000000" fill-rule="nonzero" fill-opacity="1"></path><path clip-path="url(#clip800)" d="M1067.97 18.8205 L1067.97 65.8515 L1077.85 65.8515 Q1090.37 65.8515 1096.16 60.1802 Q1101.99 54.509 1101.99 42.2752 Q1101.99 30.1225 1096.16 24.4918 Q1090.37 18.8205 1077.85 18.8205 L1067.97 18.8205 M1059.78 12.096 L1076.6 12.096 Q1094.18 12.096 1102.4 19.4281 Q1110.62 26.7198 1110.62 42.2752 Q1110.62 57.9117 1102.36 65.2439 Q1094.1 72.576 1076.6 72.576 L1059.78 72.576 L1059.78 12.096 Z" fill="#000000" fill-rule="nonzero" fill-opacity="1"></path><path clip-path="url(#clip800)" d="M1123.34 27.2059 L1130.8 27.2059 L1130.8 72.576 L1123.34 72.576 L1123.34 27.2059 M1123.34 9.54393 L1130.8 9.54393 L1130.8 18.9825 L1123.34 18.9825 L1123.34 9.54393 Z" fill="#000000" fill-rule="nonzero" fill-opacity="1"></path><path clip-path="url(#clip800)" d="M1175.32 28.5427 L1175.32 35.5912 Q1172.16 33.9709 1168.75 33.1607 Q1165.35 32.3505 1161.71 32.3505 Q1156.16 32.3505 1153.36 34.0519 Q1150.61 35.7533 1150.61 39.156 Q1150.61 41.7486 1152.59 43.2475 Q1154.58 44.7058 1160.57 46.0426 L1163.12 46.6097 Q1171.06 48.3111 1174.38 51.4303 Q1177.75 54.509 1177.75 60.0587 Q1177.75 66.3781 1172.72 70.0644 Q1167.74 73.7508 1158.99 73.7508 Q1155.35 73.7508 1151.38 73.0216 Q1147.45 72.3329 1143.07 70.9151 L1143.07 63.2184 Q1147.2 65.3654 1151.21 66.4591 Q1155.22 67.5124 1159.15 67.5124 Q1164.42 67.5124 1167.26 65.73 Q1170.09 63.9071 1170.09 60.6258 Q1170.09 57.5877 1168.02 55.9673 Q1166 54.3469 1159.07 52.8481 L1156.48 52.2405 Q1149.55 50.7821 1146.47 47.7845 Q1143.4 44.7463 1143.4 39.4801 Q1143.4 33.0797 1147.93 29.5959 Q1152.47 26.1121 1160.81 26.1121 Q1164.95 26.1121 1168.59 26.7198 Q1172.24 27.3274 1175.32 28.5427 Z" fill="#000000" fill-rule="nonzero" fill-opacity="1"></path><path clip-path="url(#clip800)" d="M1196.99 14.324 L1196.99 27.2059 L1212.34 27.2059 L1212.34 32.9987 L1196.99 32.9987 L1196.99 57.6282 Q1196.99 63.1779 1198.49 64.7578 Q1200.03 66.3376 1204.69 66.3376 L1212.34 66.3376 L1212.34 72.576 L1204.69 72.576 Q1196.06 72.576 1192.78 69.3758 Q1189.49 66.1351 1189.49 57.6282 L1189.49 32.9987 L1184.03 32.9987 L1184.03 27.2059 L1189.49 27.2059 L1189.49 14.324 L1196.99 14.324 Z" fill="#000000" fill-rule="nonzero" fill-opacity="1"></path><path clip-path="url(#clip800)" d="M1248.44 34.1734 Q1247.18 33.4443 1245.68 33.1202 Q1244.22 32.7556 1242.44 32.7556 Q1236.12 32.7556 1232.72 36.8875 Q1229.36 40.9789 1229.36 48.6757 L1229.36 72.576 L1221.86 72.576 L1221.86 27.2059 L1229.36 27.2059 L1229.36 34.2544 Q1231.7 30.1225 1235.47 28.1376 Q1239.24 26.1121 1244.63 26.1121 Q1245.4 26.1121 1246.33 26.2337 Q1247.26 26.3147 1248.39 26.5172 L1248.44 34.1734 Z" fill="#000000" fill-rule="nonzero" fill-opacity="1"></path><path clip-path="url(#clip800)" d="M1256.25 27.2059 L1263.71 27.2059 L1263.71 72.576 L1256.25 72.576 L1256.25 27.2059 M1256.25 9.54393 L1263.71 9.54393 L1263.71 18.9825 L1256.25 18.9825 L1256.25 9.54393 Z" fill="#000000" fill-rule="nonzero" fill-opacity="1"></path><path clip-path="url(#clip800)" d="M1311.87 49.9314 Q1311.87 41.7081 1308.47 37.0496 Q1305.11 32.3505 1299.19 32.3505 Q1293.28 32.3505 1289.88 37.0496 Q1286.51 41.7081 1286.51 49.9314 Q1286.51 58.1548 1289.88 62.8538 Q1293.28 67.5124 1299.19 67.5124 Q1305.11 67.5124 1308.47 62.8538 Q1311.87 58.1548 1311.87 49.9314 M1286.51 34.0924 Q1288.86 30.0415 1292.43 28.0971 Q1296.03 26.1121 1301.02 26.1121 Q1309.28 26.1121 1314.42 32.6746 Q1319.61 39.2371 1319.61 49.9314 Q1319.61 60.6258 1314.42 67.1883 Q1309.28 73.7508 1301.02 73.7508 Q1296.03 73.7508 1292.43 71.8063 Q1288.86 69.8214 1286.51 65.7705 L1286.51 72.576 L1279.02 72.576 L1279.02 9.54393 L1286.51 9.54393 L1286.51 34.0924 Z" fill="#000000" fill-rule="nonzero" fill-opacity="1"></path><path clip-path="url(#clip800)" d="M1331.2 54.671 L1331.2 27.2059 L1338.65 27.2059 L1338.65 54.3874 Q1338.65 60.8284 1341.16 64.0691 Q1343.67 67.2693 1348.7 67.2693 Q1354.73 67.2693 1358.21 63.421 Q1361.74 59.5726 1361.74 52.9291 L1361.74 27.2059 L1369.19 27.2059 L1369.19 72.576 L1361.74 72.576 L1361.74 65.6084 Q1359.02 69.7404 1355.42 71.7658 Q1351.85 73.7508 1347.12 73.7508 Q1339.3 73.7508 1335.25 68.8897 Q1331.2 64.0286 1331.2 54.671 M1349.95 26.1121 L1349.95 26.1121 Z" fill="#000000" fill-rule="nonzero" fill-opacity="1"></path><path clip-path="url(#clip800)" d="M1391.92 14.324 L1391.92 27.2059 L1407.27 27.2059 L1407.27 32.9987 L1391.92 32.9987 L1391.92 57.6282 Q1391.92 63.1779 1393.42 64.7578 Q1394.96 66.3376 1399.61 66.3376 L1407.27 66.3376 L1407.27 72.576 L1399.61 72.576 Q1390.99 72.576 1387.71 69.3758 Q1384.42 66.1351 1384.42 57.6282 L1384.42 32.9987 L1378.96 32.9987 L1378.96 27.2059 L1384.42 27.2059 L1384.42 14.324 L1391.92 14.324 Z" fill="#000000" fill-rule="nonzero" fill-opacity="1"></path><path clip-path="url(#clip800)" d="M1417.07 27.2059 L1424.53 27.2059 L1424.53 72.576 L1417.07 72.576 L1417.07 27.2059 M1417.07 9.54393 L1424.53 9.54393 L1424.53 18.9825 L1417.07 18.9825 L1417.07 9.54393 Z" fill="#000000" fill-rule="nonzero" fill-opacity="1"></path><path clip-path="url(#clip800)" d="M1457.7 32.4315 Q1451.71 32.4315 1448.23 37.1306 Q1444.74 41.7891 1444.74 49.9314 Q1444.74 58.0738 1448.19 62.7728 Q1451.67 67.4314 1457.7 67.4314 Q1463.66 67.4314 1467.14 62.7323 Q1470.63 58.0333 1470.63 49.9314 Q1470.63 41.8701 1467.14 37.1711 Q1463.66 32.4315 1457.7 32.4315 M1457.7 26.1121 Q1467.43 26.1121 1472.98 32.4315 Q1478.53 38.7509 1478.53 49.9314 Q1478.53 61.0714 1472.98 67.4314 Q1467.43 73.7508 1457.7 73.7508 Q1447.94 73.7508 1442.39 67.4314 Q1436.88 61.0714 1436.88 49.9314 Q1436.88 38.7509 1442.39 32.4315 Q1447.94 26.1121 1457.7 26.1121 Z" fill="#000000" fill-rule="nonzero" fill-opacity="1"></path><path clip-path="url(#clip800)" d="M1528.6 45.1919 L1528.6 72.576 L1521.14 72.576 L1521.14 45.4349 Q1521.14 38.994 1518.63 35.7938 Q1516.12 32.5936 1511.1 32.5936 Q1505.06 32.5936 1501.58 36.4419 Q1498.09 40.2903 1498.09 46.9338 L1498.09 72.576 L1490.6 72.576 L1490.6 27.2059 L1498.09 27.2059 L1498.09 34.2544 Q1500.77 30.163 1504.37 28.1376 Q1508.02 26.1121 1512.76 26.1121 Q1520.57 26.1121 1524.59 30.9732 Q1528.6 35.7938 1528.6 45.1919 Z" fill="#000000" fill-rule="nonzero" fill-opacity="1"></path><path clip-path="url(#clip800)" d="M1587.74 9.62495 Q1582.31 18.942 1579.68 28.0566 Q1577.04 37.1711 1577.04 46.5287 Q1577.04 55.8863 1579.68 65.0818 Q1582.35 74.2369 1587.74 83.5134 L1581.26 83.5134 Q1575.18 73.9938 1572.14 64.7983 Q1569.15 55.6027 1569.15 46.5287 Q1569.15 37.4952 1572.14 28.3401 Q1575.14 19.1851 1581.26 9.62495 L1587.74 9.62495 Z" fill="#000000" fill-rule="nonzero" fill-opacity="1"></path><path clip-path="url(#clip800)" d="M1622.82 49.7694 Q1613.79 49.7694 1610.3 51.8354 Q1606.82 53.9013 1606.82 58.8839 Q1606.82 62.8538 1609.41 65.2034 Q1612.04 67.5124 1616.54 67.5124 Q1622.74 67.5124 1626.47 63.1374 Q1630.23 58.7219 1630.23 51.4303 L1630.23 49.7694 L1622.82 49.7694 M1637.69 46.6907 L1637.69 72.576 L1630.23 72.576 L1630.23 65.6895 Q1627.68 69.8214 1623.87 71.8063 Q1620.07 73.7508 1614.56 73.7508 Q1607.59 73.7508 1603.46 69.8619 Q1599.36 65.9325 1599.36 59.3701 Q1599.36 51.7138 1604.47 47.825 Q1609.61 43.9361 1619.78 43.9361 L1630.23 43.9361 L1630.23 43.2069 Q1630.23 38.0623 1626.83 35.2672 Q1623.47 32.4315 1617.35 32.4315 Q1613.46 32.4315 1609.78 33.3632 Q1606.09 34.295 1602.69 36.1584 L1602.69 29.2718 Q1606.78 27.692 1610.63 26.9223 Q1614.47 26.1121 1618.12 26.1121 Q1627.96 26.1121 1632.83 31.2163 Q1637.69 36.3204 1637.69 46.6907 Z" fill="#000000" fill-rule="nonzero" fill-opacity="1"></path><path clip-path="url(#clip800)" d="M1660.25 65.7705 L1660.25 89.8329 L1652.76 89.8329 L1652.76 27.2059 L1660.25 27.2059 L1660.25 34.0924 Q1662.6 30.0415 1666.16 28.0971 Q1669.77 26.1121 1674.75 26.1121 Q1683.02 26.1121 1688.16 32.6746 Q1693.35 39.2371 1693.35 49.9314 Q1693.35 60.6258 1688.16 67.1883 Q1683.02 73.7508 1674.75 73.7508 Q1669.77 73.7508 1666.16 71.8063 Q1662.6 69.8214 1660.25 65.7705 M1685.61 49.9314 Q1685.61 41.7081 1682.21 37.0496 Q1678.84 32.3505 1672.93 32.3505 Q1667.02 32.3505 1663.61 37.0496 Q1660.25 41.7081 1660.25 49.9314 Q1660.25 58.1548 1663.61 62.8538 Q1667.02 67.5124 1672.93 67.5124 Q1678.84 67.5124 1682.21 62.8538 Q1685.61 58.1548 1685.61 49.9314 Z" fill="#000000" fill-rule="nonzero" fill-opacity="1"></path><path clip-path="url(#clip800)" d="M1712.91 65.7705 L1712.91 89.8329 L1705.42 89.8329 L1705.42 27.2059 L1712.91 27.2059 L1712.91 34.0924 Q1715.26 30.0415 1718.83 28.0971 Q1722.43 26.1121 1727.41 26.1121 Q1735.68 26.1121 1740.82 32.6746 Q1746.01 39.2371 1746.01 49.9314 Q1746.01 60.6258 1740.82 67.1883 Q1735.68 73.7508 1727.41 73.7508 Q1722.43 73.7508 1718.83 71.8063 Q1715.26 69.8214 1712.91 65.7705 M1738.27 49.9314 Q1738.27 41.7081 1734.87 37.0496 Q1731.51 32.3505 1725.59 32.3505 Q1719.68 32.3505 1716.27 37.0496 Q1712.91 41.7081 1712.91 49.9314 Q1712.91 58.1548 1716.27 62.8538 Q1719.68 67.5124 1725.59 67.5124 Q1731.51 67.5124 1734.87 62.8538 Q1738.27 58.1548 1738.27 49.9314 Z" fill="#000000" fill-rule="nonzero" fill-opacity="1"></path><path clip-path="url(#clip800)" d="M1784.65 34.1734 Q1783.4 33.4443 1781.9 33.1202 Q1780.44 32.7556 1778.66 32.7556 Q1772.34 32.7556 1768.94 36.8875 Q1765.57 40.9789 1765.57 48.6757 L1765.57 72.576 L1758.08 72.576 L1758.08 27.2059 L1765.57 27.2059 L1765.57 34.2544 Q1767.92 30.1225 1771.69 28.1376 Q1775.46 26.1121 1780.85 26.1121 Q1781.62 26.1121 1782.55 26.2337 Q1783.48 26.3147 1784.61 26.5172 L1784.65 34.1734 Z" fill="#000000" fill-rule="nonzero" fill-opacity="1"></path><path clip-path="url(#clip800)" d="M1808.23 32.4315 Q1802.23 32.4315 1798.75 37.1306 Q1795.27 41.7891 1795.27 49.9314 Q1795.27 58.0738 1798.71 62.7728 Q1802.19 67.4314 1808.23 67.4314 Q1814.18 67.4314 1817.67 62.7323 Q1821.15 58.0333 1821.15 49.9314 Q1821.15 41.8701 1817.67 37.1711 Q1814.18 32.4315 1808.23 32.4315 M1808.23 26.1121 Q1817.95 26.1121 1823.5 32.4315 Q1829.05 38.7509 1829.05 49.9314 Q1829.05 61.0714 1823.5 67.4314 Q1817.95 73.7508 1808.23 73.7508 Q1798.47 73.7508 1792.92 67.4314 Q1787.41 61.0714 1787.41 49.9314 Q1787.41 38.7509 1792.92 32.4315 Q1798.47 26.1121 1808.23 26.1121 Z" fill="#000000" fill-rule="nonzero" fill-opacity="1"></path><path clip-path="url(#clip800)" d="M1876.57 27.2059 L1860.16 49.2833 L1877.42 72.576 L1868.63 72.576 L1855.42 54.752 L1842.22 72.576 L1833.43 72.576 L1851.05 48.8377 L1834.93 27.2059 L1843.72 27.2059 L1855.75 43.369 L1867.78 27.2059 L1876.57 27.2059 Z" fill="#000000" fill-rule="nonzero" fill-opacity="1"></path><path clip-path="url(#clip800)" d="M1886.78 9.62495 L1893.26 9.62495 Q1899.33 19.1851 1902.33 28.3401 Q1905.37 37.4952 1905.37 46.5287 Q1905.37 55.6027 1902.33 64.7983 Q1899.33 73.9938 1893.26 83.5134 L1886.78 83.5134 Q1892.16 74.2369 1894.8 65.0818 Q1897.47 55.8863 1897.47 46.5287 Q1897.47 37.1711 1894.8 28.0566 Q1892.16 18.942 1886.78 9.62495 Z" fill="#000000" fill-rule="nonzero" fill-opacity="1"></path><path clip-path="url(#clip802)" d="M531.109 1386.39 L540.609 1386.39 L550.109 1386.38 L559.609 1386.38 L569.109 1386.36 L578.609 1386.33 L588.109 1386.29 L597.609 1386.23 L607.109 1386.13 L616.609 1385.97 L626.109 1385.75 L635.609 1385.43 L645.109 1384.97 L654.609 1384.35 L664.109 1383.51 L673.609 1382.41 L683.109 1381 L692.609 1379.23 L702.109 1377.06 L711.609 1374.45 L721.109 1371.39 L730.609 1367.85 L740.109 1363.84 L749.609 1359.38 L759.109 1354.51 L768.609 1349.25 L778.11 1343.67 L787.61 1337.81 L797.11 1331.73 L806.61 1325.45 L816.11 1319.04 L825.61 1312.5 L835.11 1305.86 L844.61 1299.11 L854.11 1292.23 L863.61 1285.17 L873.11 1277.87 L882.61 1270.24 L892.11 1262.19 L901.61 1253.59 L911.11 1244.35 L920.61 1234.37 L930.11 1223.59 L939.61 1211.99 L949.11 1199.58 L958.61 1186.45 L968.11 1172.72 L977.61 1158.55 L987.11 1144.11 L996.61 1129.6 L1006.11 1115.19 L1015.61 1101.02 L1025.11 1087.17 L1034.61 1073.69 L1044.11 1060.52 L1053.61 1047.57 L1063.11 1034.69 L1072.61 1021.67 L1082.11 1008.26 L1091.61 994.246 L1101.11 979.389 L1110.61 963.513 L1120.11 946.503 L1129.61 928.327 L1139.11 909.05 L1148.61 888.827 L1158.11 867.896 L1167.61 846.547 L1177.11 825.096 L1186.61 803.838 L1196.11 783.014 L1205.61 762.778 L1215.11 743.175 L1224.61 724.137 L1234.11 705.497 L1243.61 687.008 L1253.11 668.377 L1262.61 649.302 L1272.11 629.499 L1281.61 608.734 L1291.11 586.835 L1300.61 563.704 L1310.11 539.317 L1319.61 513.729 L1329.11 487.074 L1338.61 459.566 L1348.11 431.509 L1357.61 403.29 L1367.11 375.382 L1376.61 348.328 L1386.11 322.71 L1395.61 299.113 L1405.11 278.073 L1414.61 260.026 L1424.11 245.261 L1433.61 233.881 L1443.11 225.789 L1452.61 220.694 L1462.11 218.141 L1471.61 217.553 L1481.11 218.295 L1490.61 219.726 L1500.11 221.258 L1509.61 222.398 L1519.11 222.765 L1528.61 222.106 L1538.11 220.287 L1547.61 217.279 L1557.11 213.138 L1566.61 207.987 L1576.11 202.007 L1585.61 195.426 L1595.11 188.516 L1604.61 181.595 L1614.11 175.021 L1623.61 169.187 L1633.11 164.508 L1642.61 161.4 L1652.11 160.256 L1661.61 161.424 L1671.11 165.175 L1680.61 171.696 L1690.11 181.069 L1699.61 193.281 L1709.11 208.227 L1718.61 225.724 L1728.11 245.534 L1737.61 267.375 L1747.11 290.942 L1756.61 315.909 L1766.11 341.939 L1775.61 368.687 L1785.11 395.797 L1794.61 422.916 L1804.11 449.699 L1813.61 475.832 L1823.11 501.055 L1832.61 525.189 L1842.11 548.161 L1851.61 570.02 L1861.11 590.951 L1870.61 611.257 L1880.11 631.344 L1889.61 651.682 L1899.11 672.755 L1908.61 695.018 L1918.11 718.845 L1927.61 744.492 L1937.11 772.072 L1946.61 801.548 L1956.11 832.739 L1965.61 865.342 L1975.11 898.962 L1984.61 933.152 L1994.11 967.444 L2003.61 1001.39 L2013.11 1034.56 L2022.61 1066.62 L2032.11 1097.27 L2041.61 1126.29 L2051.11 1153.52 L2060.61 1178.86 L2070.11 1202.29 L2079.61 1223.8 L2089.11 1243.42 L2098.61 1261.24 L2108.11 1277.33 L2117.61 1291.8 L2127.11 1304.76 L2136.61 1316.32 L2146.11 1326.59 L2155.61 1335.68 L2165.11 1343.69 L2174.61 1350.71 L2184.11 1356.82 L2193.61 1362.1 L2203.11 1366.64 L2212.61 1370.5 L2222.11 1373.75 L2231.61 1376.46 L2241.11 1378.69 L2250.61 1380.5 L2260.11 1381.95 L2269.61 1383.09 L2279.11 1383.98 L2288.61 1384.66 L2298.11 1385.17 L2307.61 1385.54 L2317.11 1385.82 L2326.61 1386.01 L2336.11 1386.14 L2345.61 1386.23 L2355.11 1386.29 L2364.61 1386.33 L2374.11 1386.36 L2383.61 1386.37 L2393.11 1386.38 L2402.61 1386.39 L2412.11 1386.39 L2421.61 1386.39 L2421.61 1386.4 L2412.11 1386.4 L2402.61 1386.4 L2393.11 1386.4 L2383.61 1386.4 L2374.11 1386.4 L2364.61 1386.4 L2355.11 1386.4 L2345.61 1386.4 L2336.11 1386.4 L2326.61 1386.4 L2317.11 1386.4 L2307.61 1386.4 L2298.11 1386.4 L2288.61 1386.4 L2279.11 1386.4 L2269.61 1386.4 L2260.11 1386.4 L2250.61 1386.4 L2241.11 1386.4 L2231.61 1386.4 L2222.11 1386.4 L2212.61 1386.4 L2203.11 1386.4 L2193.61 1386.4 L2184.11 1386.4 L2174.61 1386.4 L2165.11 1386.4 L2155.61 1386.4 L2146.11 1386.4 L2136.61 1386.4 L2127.11 1386.4 L2117.61 1386.4 L2108.11 1386.4 L2098.61 1386.4 L2089.11 1386.4 L2079.61 1386.4 L2070.11 1386.4 L2060.61 1386.4 L2051.11 1386.4 L2041.61 1386.4 L2032.11 1386.4 L2022.61 1386.4 L2013.11 1386.4 L2003.61 1386.4 L1994.11 1386.4 L1984.61 1386.4 L1975.11 1386.4 L1965.61 1386.4 L1956.11 1386.4 L1946.61 1386.4 L1937.11 1386.4 L1927.61 1386.4 L1918.11 1386.4 L1908.61 1386.4 L1899.11 1386.4 L1889.61 1386.4 L1880.11 1386.4 L1870.61 1386.4 L1861.11 1386.4 L1851.61 1386.4 L1842.11 1386.4 L1832.61 1386.4 L1823.11 1386.4 L1813.61 1386.4 L1804.11 1386.4 L1794.61 1386.4 L1785.11 1386.4 L1775.61 1386.4 L1766.11 1386.4 L1756.61 1386.4 L1747.11 1386.4 L1737.61 1386.4 L1728.11 1386.4 L1718.61 1386.4 L1709.11 1386.4 L1699.61 1386.4 L1690.11 1386.4 L1680.61 1386.4 L1671.11 1386.4 L1661.61 1386.4 L1652.11 1386.4 L1642.61 1386.4 L1633.11 1386.4 L1623.61 1386.4 L1614.11 1386.4 L1604.61 1386.4 L1595.11 1386.4 L1585.61 1386.4 L1576.11 1386.4 L1566.61 1386.4 L1557.11 1386.4 L1547.61 1386.4 L1538.11 1386.4 L1528.61 1386.4 L1519.11 1386.4 L1509.61 1386.4 L1500.11 1386.4 L1490.61 1386.4 L1481.11 1386.4 L1471.61 1386.4 L1462.11 1386.4 L1452.61 1386.4 L1443.11 1386.4 L1433.61 1386.4 L1424.11 1386.4 L1414.61 1386.4 L1405.11 1386.4 L1395.61 1386.4 L1386.11 1386.4 L1376.61 1386.4 L1367.11 1386.4 L1357.61 1386.4 L1348.11 1386.4 L1338.61 1386.4 L1329.11 1386.4 L1319.61 1386.4 L1310.11 1386.4 L1300.61 1386.4 L1291.11 1386.4 L1281.61 1386.4 L1272.11 1386.4 L1262.61 1386.4 L1253.11 1386.4 L1243.61 1386.4 L1234.11 1386.4 L1224.61 1386.4 L1215.11 1386.4 L1205.61 1386.4 L1196.11 1386.4 L1186.61 1386.4 L1177.11 1386.4 L1167.61 1386.4 L1158.11 1386.4 L1148.61 1386.4 L1139.11 1386.4 L1129.61 1386.4 L1120.11 1386.4 L1110.61 1386.4 L1101.11 1386.4 L1091.61 1386.4 L1082.11 1386.4 L1072.61 1386.4 L1063.11 1386.4 L1053.61 1386.4 L1044.11 1386.4 L1034.61 1386.4 L1025.11 1386.4 L1015.61 1386.4 L1006.11 1386.4 L996.61 1386.4 L987.11 1386.4 L977.61 1386.4 L968.11 1386.4 L958.61 1386.4 L949.11 1386.4 L939.61 1386.4 L930.11 1386.4 L920.61 1386.4 L911.11 1386.4 L901.61 1386.4 L892.11 1386.4 L882.61 1386.4 L873.11 1386.4 L863.61 1386.4 L854.11 1386.4 L844.61 1386.4 L835.11 1386.4 L825.61 1386.4 L816.11 1386.4 L806.61 1386.4 L797.11 1386.4 L787.61 1386.4 L778.11 1386.4 L768.609 1386.4 L759.109 1386.4 L749.609 1386.4 L740.109 1386.4 L730.609 1386.4 L721.109 1386.4 L711.609 1386.4 L702.109 1386.4 L692.609 1386.4 L683.109 1386.4 L673.609 1386.4 L664.109 1386.4 L654.609 1386.4 L645.109 1386.4 L635.609 1386.4 L626.109 1386.4 L616.609 1386.4 L607.109 1386.4 L597.609 1386.4 L588.109 1386.4 L578.609 1386.4 L569.109 1386.4 L559.609 1386.4 L550.109 1386.4 L540.609 1386.4 L531.109 1386.4  Z" fill="#009af9" fill-rule="evenodd" fill-opacity="0.3"></path>
<polyline clip-path="url(#clip802)" style="stroke:#009af9; stroke-linecap:round; stroke-linejoin:round; stroke-width:8; stroke-opacity:0.3; fill:none" points="531.109,1386.39 540.609,1386.39 550.109,1386.38 559.609,1386.38 569.109,1386.36 578.609,1386.33 588.109,1386.29 597.609,1386.23 607.109,1386.13 616.609,1385.97 626.109,1385.75 635.609,1385.43 645.109,1384.97 654.609,1384.35 664.109,1383.51 673.609,1382.41 683.109,1381 692.609,1379.23 702.109,1377.06 711.609,1374.45 721.109,1371.39 730.609,1367.85 740.109,1363.84 749.609,1359.38 759.109,1354.51 768.609,1349.25 778.11,1343.67 787.61,1337.81 797.11,1331.73 806.61,1325.45 816.11,1319.04 825.61,1312.5 835.11,1305.86 844.61,1299.11 854.11,1292.23 863.61,1285.17 873.11,1277.87 882.61,1270.24 892.11,1262.19 901.61,1253.59 911.11,1244.35 920.61,1234.37 930.11,1223.59 939.61,1211.99 949.11,1199.58 958.61,1186.45 968.11,1172.72 977.61,1158.55 987.11,1144.11 996.61,1129.6 1006.11,1115.19 1015.61,1101.02 1025.11,1087.17 1034.61,1073.69 1044.11,1060.52 1053.61,1047.57 1063.11,1034.69 1072.61,1021.67 1082.11,1008.26 1091.61,994.246 1101.11,979.389 1110.61,963.513 1120.11,946.503 1129.61,928.327 1139.11,909.05 1148.61,888.827 1158.11,867.896 1167.61,846.547 1177.11,825.096 1186.61,803.838 1196.11,783.014 1205.61,762.778 1215.11,743.175 1224.61,724.137 1234.11,705.497 1243.61,687.008 1253.11,668.377 1262.61,649.302 1272.11,629.499 1281.61,608.734 1291.11,586.835 1300.61,563.704 1310.11,539.317 1319.61,513.729 1329.11,487.074 1338.61,459.566 1348.11,431.509 1357.61,403.29 1367.11,375.382 1376.61,348.328 1386.11,322.71 1395.61,299.113 1405.11,278.073 1414.61,260.026 1424.11,245.261 1433.61,233.881 1443.11,225.789 1452.61,220.694 1462.11,218.141 1471.61,217.553 1481.11,218.295 1490.61,219.726 1500.11,221.258 1509.61,222.398 1519.11,222.765 1528.61,222.106 1538.11,220.287 1547.61,217.279 1557.11,213.138 1566.61,207.987 1576.11,202.007 1585.61,195.426 1595.11,188.516 1604.61,181.595 1614.11,175.021 1623.61,169.187 1633.11,164.508 1642.61,161.4 1652.11,160.256 1661.61,161.424 1671.11,165.175 1680.61,171.696 1690.11,181.069 1699.61,193.281 1709.11,208.227 1718.61,225.724 1728.11,245.534 1737.61,267.375 1747.11,290.942 1756.61,315.909 1766.11,341.939 1775.61,368.687 1785.11,395.797 1794.61,422.916 1804.11,449.699 1813.61,475.832 1823.11,501.055 1832.61,525.189 1842.11,548.161 1851.61,570.02 1861.11,590.951 1870.61,611.257 1880.11,631.344 1889.61,651.682 1899.11,672.755 1908.61,695.018 1918.11,718.845 1927.61,744.492 1937.11,772.072 1946.61,801.548 1956.11,832.739 1965.61,865.342 1975.11,898.962 1984.61,933.152 1994.11,967.444 2003.61,1001.39 2013.11,1034.56 2022.61,1066.62 2032.11,1097.27 2041.61,1126.29 2051.11,1153.52 2060.61,1178.86 2070.11,1202.29 2079.61,1223.8 2089.11,1243.42 2098.61,1261.24 2108.11,1277.33 2117.61,1291.8 2127.11,1304.76 2136.61,1316.32 2146.11,1326.59 2155.61,1335.68 2165.11,1343.69 2174.61,1350.71 2184.11,1356.82 2193.61,1362.1 2203.11,1366.64 2212.61,1370.5 2222.11,1373.75 2231.61,1376.46 2241.11,1378.69 2250.61,1380.5 2260.11,1381.95 2269.61,1383.09 2279.11,1383.98 2288.61,1384.66 2298.11,1385.17 2307.61,1385.54 2317.11,1385.82 2326.61,1386.01 2336.11,1386.14 2345.61,1386.23 2355.11,1386.29 2364.61,1386.33 2374.11,1386.36 2383.61,1386.37 2393.11,1386.38 2402.61,1386.39 2412.11,1386.39 2421.61,1386.39 "></polyline>
</svg>