<svg class="main-svg" xmlns="http://www.w3.org/2000/svg" xmlns:xlink="http://www.w3.org/1999/xlink" width="700" height="500" style="" viewBox="0 0 700 500"><rect x="0" y="0" width="700" height="500" style="fill: rgb(255, 255, 255); fill-opacity: 1;"/><defs id="defs-6f53e4"><g class="clips"><clipPath id="clip6f53e4xyplot" class="plotclip"><rect width="637.740307132661" height="416.65722705714415"/></clipPath><clipPath class="axesclip" id="clip6f53e4x"><rect x="58.63350140442971" y="0" width="637.740307132661" height="500"/></clipPath><clipPath class="axesclip" id="clip6f53e4y"><rect x="0" y="38.869242221915286" width="700" height="416.65722705714415"/></clipPath><clipPath class="axesclip" id="clip6f53e4xy"><rect x="58.63350140442971" y="38.869242221915286" width="637.740307132661" height="416.65722705714415"/></clipPath></g><g class="gradients"/></defs><g class="bglayer"/><g class="layer-below"><g class="imagelayer"/><g class="shapelayer"/></g><g class="cartesianlayer"><g class="subplot xy"><g class="layer-subplot"><g class="shapelayer"/><g class="imagelayer"/></g><g class="gridlayer"><g class="x"><path class="xgrid crisp" transform="translate(116.7935014044297,0)" d="M0,38.869242221915286v416.65722705714415" style="stroke: rgb(0, 0, 0); stroke-opacity: 0.1; stroke-width: 0.5px;"/><path class="xgrid crisp" transform="translate(237.1235014044297,0)" d="M0,38.869242221915286v416.65722705714415" style="stroke: rgb(0, 0, 0); stroke-opacity: 0.1; stroke-width: 0.5px;"/><path class="xgrid crisp" transform="translate(357.4535014044297,0)" d="M0,38.869242221915286v416.65722705714415" style="stroke: rgb(0, 0, 0); stroke-opacity: 0.1; stroke-width: 0.5px;"/><path class="xgrid crisp" transform="translate(477.7735014044297,0)" d="M0,38.869242221915286v416.65722705714415" style="stroke: rgb(0, 0, 0); stroke-opacity: 0.1; stroke-width: 0.5px;"/><path class="xgrid crisp" transform="translate(598.1035014044297,0)" d="M0,38.869242221915286v416.65722705714415" style="stroke: rgb(0, 0, 0); stroke-opacity: 0.1; stroke-width: 0.5px;"/></g><g class="y"><path class="ygrid crisp" transform="translate(0,443.7392422219153)" d="M58.63350140442971,0h637.740307132661" style="stroke: rgb(0, 0, 0); stroke-opacity: 0.1; stroke-width: 0.5px;"/><path class="ygrid crisp" transform="translate(0,365.1192422219153)" d="M58.63350140442971,0h637.740307132661" style="stroke: rgb(0, 0, 0); stroke-opacity: 0.1; stroke-width: 0.5px;"/><path class="ygrid crisp" transform="translate(0,286.50924222191526)" d="M58.63350140442971,0h637.740307132661" style="stroke: rgb(0, 0, 0); stroke-opacity: 0.1; stroke-width: 0.5px;"/><path class="ygrid crisp" transform="translate(0,207.8892422219153)" d="M58.63350140442971,0h637.740307132661" style="stroke: rgb(0, 0, 0); stroke-opacity: 0.1; stroke-width: 0.5px;"/><path class="ygrid crisp" transform="translate(0,129.2792422219153)" d="M58.63350140442971,0h637.740307132661" style="stroke: rgb(0, 0, 0); stroke-opacity: 0.1; stroke-width: 0.5px;"/><path class="ygrid crisp" transform="translate(0,50.659242221915285)" d="M58.63350140442971,0h637.740307132661" style="stroke: rgb(0, 0, 0); stroke-opacity: 0.1; stroke-width: 0.5px;"/></g></g><g class="zerolinelayer"/><path class="xlines-below"/><path class="ylines-below"/><g class="overlines-below"/><g class="xaxislayer-below"/><g class="yaxislayer-below"/><g class="overaxes-below"/><g class="plot" transform="translate(58.63350140442971,38.869242221915286)" clip-path="url('#clip6f53e4xyplot')"><g class="scatterlayer mlayer"><g class="trace scatter trace454a8d" style="stroke-miterlimit: 2; opacity: 1;"><g class="fills"/><g class="errorbars"/><g class="lines"><path class="js-line" d="M18.05,110.06L38.1,91.39L42.11,87.89L62.17,71.58L66.18,68.55L86.24,54.6L90.25,52.04L110.3,40.45L114.31,38.36L134.37,29.13L138.38,27.52L154.42,21.85L158.43,20.64L174.48,16.55L178.49,15.72L198.54,12.77L202.55,12.42L218.6,11.79L222.61,11.83L238.65,12.77L242.66,13.21L258.71,15.72L262.72,16.55L278.76,20.64L282.77,21.85L302.83,29.13L306.84,30.82L326.89,40.45L330.9,42.61L350.96,54.6L354.97,57.23L375.02,71.58L379.03,74.68L399.09,91.39L403.1,94.97L423.15,114.03L427.17,118.08L447.22,139.5L451.23,144.02L471.29,167.8L475.3,172.79L499.36,204.4L503.37,209.94L527.44,244.85L531.45,250.94L555.52,289.14L559.53,295.79L583.59,337.3L587.6,344.49L611.67,389.3L615.68,397.04L619.69,404.87" style="vector-effect: non-scaling-stroke; fill: none; stroke: rgb(0, 154, 250); stroke-opacity: 1; stroke-width: 1px; opacity: 1;"/></g><g class="points"/><g class="text"/></g></g></g><g class="overplot"/><path class="xlines-above crisp" d="M57.63350140442971,456.0264692790594H696.3738085370907" style="fill: none; stroke-width: 1px; stroke: rgb(0, 0, 0); stroke-opacity: 1;"/><path class="ylines-above crisp" d="M58.13350140442971,38.869242221915286V455.5264692790594" style="fill: none; stroke-width: 1px; stroke: rgb(0, 0, 0); stroke-opacity: 1;"/><g class="overlines-above"/><g class="xaxislayer-above"><path class="xtick ticks crisp" d="M0,455.5264692790594v-5" transform="translate(116.7935014044297,0)" style="stroke: rgb(0, 0, 0); stroke-opacity: 1; stroke-width: 1px;"/><path class="xtick ticks crisp" d="M0,455.5264692790594v-5" transform="translate(237.1235014044297,0)" style="stroke: rgb(0, 0, 0); stroke-opacity: 1; stroke-width: 1px;"/><path class="xtick ticks crisp" d="M0,455.5264692790594v-5" transform="translate(357.4535014044297,0)" style="stroke: rgb(0, 0, 0); stroke-opacity: 1; stroke-width: 1px;"/><path class="xtick ticks crisp" d="M0,455.5264692790594v-5" transform="translate(477.7735014044297,0)" style="stroke: rgb(0, 0, 0); stroke-opacity: 1; stroke-width: 1px;"/><path class="xtick ticks crisp" d="M0,455.5264692790594v-5" transform="translate(598.1035014044297,0)" style="stroke: rgb(0, 0, 0); stroke-opacity: 1; stroke-width: 1px;"/><g class="xtick"><text text-anchor="middle" x="0" y="469.7264692790594" transform="translate(116.7935014044297,0)" style="font-family: sans-serif; font-size: 11px; fill: rgb(0, 0, 0); fill-opacity: 1; white-space: pre;">60</text></g><g class="xtick"><text text-anchor="middle" x="0" y="469.7264692790594" transform="translate(237.1235014044297,0)" style="font-family: sans-serif; font-size: 11px; fill: rgb(0, 0, 0); fill-opacity: 1; white-space: pre;">90</text></g><g class="xtick"><text text-anchor="middle" x="0" y="469.7264692790594" transform="translate(357.4535014044297,0)" style="font-family: sans-serif; font-size: 11px; fill: rgb(0, 0, 0); fill-opacity: 1; white-space: pre;">120</text></g><g class="xtick"><text text-anchor="middle" x="0" y="469.7264692790594" transform="translate(477.7735014044297,0)" style="font-family: sans-serif; font-size: 11px; fill: rgb(0, 0, 0); fill-opacity: 1; white-space: pre;">150</text></g><g class="xtick"><text text-anchor="middle" x="0" y="469.7264692790594" transform="translate(598.1035014044297,0)" style="font-family: sans-serif; font-size: 11px; fill: rgb(0, 0, 0); fill-opacity: 1; white-space: pre;">180</text></g></g><g class="yaxislayer-above"><path class="ytick ticks crisp" d="M58.63350140442971,0h5" transform="translate(0,443.7392422219153)" style="stroke: rgb(0, 0, 0); stroke-opacity: 1; stroke-width: 1px;"/><path class="ytick ticks crisp" d="M58.63350140442971,0h5" transform="translate(0,365.1192422219153)" style="stroke: rgb(0, 0, 0); stroke-opacity: 1; stroke-width: 1px;"/><path class="ytick ticks crisp" d="M58.63350140442971,0h5" transform="translate(0,286.50924222191526)" style="stroke: rgb(0, 0, 0); stroke-opacity: 1; stroke-width: 1px;"/><path class="ytick ticks crisp" d="M58.63350140442971,0h5" transform="translate(0,207.8892422219153)" style="stroke: rgb(0, 0, 0); stroke-opacity: 1; stroke-width: 1px;"/><path class="ytick ticks crisp" d="M58.63350140442971,0h5" transform="translate(0,129.2792422219153)" style="stroke: rgb(0, 0, 0); stroke-opacity: 1; stroke-width: 1px;"/><path class="ytick ticks crisp" d="M58.63350140442971,0h5" transform="translate(0,50.659242221915285)" style="stroke: rgb(0, 0, 0); stroke-opacity: 1; stroke-width: 1px;"/><g class="ytick"><text text-anchor="end" x="55.433501404429705" y="3.8499999999999996" transform="translate(0,443.7392422219153)" style="font-family: sans-serif; font-size: 11px; fill: rgb(0, 0, 0); fill-opacity: 1; white-space: pre;">0</text></g><g class="ytick"><text text-anchor="end" x="55.433501404429705" y="3.8499999999999996" transform="translate(0,365.1192422219153)" style="font-family: sans-serif; font-size: 11px; fill: rgb(0, 0, 0); fill-opacity: 1; white-space: pre;">1×10⁴</text></g><g class="ytick"><text text-anchor="end" x="55.433501404429705" y="3.8499999999999996" transform="translate(0,286.50924222191526)" style="font-family: sans-serif; font-size: 11px; fill: rgb(0, 0, 0); fill-opacity: 1; white-space: pre;">2×10⁴</text></g><g class="ytick"><text text-anchor="end" x="55.433501404429705" y="3.8499999999999996" transform="translate(0,207.8892422219153)" style="font-family: sans-serif; font-size: 11px; fill: rgb(0, 0, 0); fill-opacity: 1; white-space: pre;">3×10⁴</text></g><g class="ytick"><text text-anchor="end" x="55.433501404429705" y="3.8499999999999996" transform="translate(0,129.2792422219153)" style="font-family: sans-serif; font-size: 11px; fill: rgb(0, 0, 0); fill-opacity: 1; white-space: pre;">4×10⁴</text></g><g class="ytick"><text text-anchor="end" x="55.433501404429705" y="3.8499999999999996" transform="translate(0,50.659242221915285)" style="font-family: sans-serif; font-size: 11px; fill: rgb(0, 0, 0); fill-opacity: 1; white-space: pre;">5×10⁴</text></g></g><g class="overaxes-above"/></g></g><g class="polarlayer"/><g class="ternarylayer"/><g class="geolayer"/><g class="funnelarealayer"/><g class="pielayer"/><g class="treemaplayer"/><g class="sunburstlayer"/><g class="glimages"/><defs id="topdefs-6f53e4"><g class="clips"/><clipPath id="legend6f53e4"><rect width="57" height="29" x="1" y="1"/></clipPath></defs><g class="layer-above"><g class="imagelayer"/><g class="shapelayer"/></g><g class="infolayer"><g class="legend" pointer-events="all" transform="translate(641,20)"><rect class="bg" shape-rendering="crispEdges" width="58" height="30" x="0.5" y="0.5" style="stroke: rgb(0, 0, 0); stroke-opacity: 1; fill: rgb(255, 255, 255); fill-opacity: 1; stroke-width: 1px;"/><g class="scrollbox" transform="" clip-path="url('#legend6f53e4')"><g class="groups"><g class="traces" transform="translate(1,15.5)" style="opacity: 1;"><text class="legendtext" text-anchor="start" x="40" y="4.29" style="font-family: sans-serif; font-size: 11px; fill: rgb(0, 0, 0); fill-opacity: 1; white-space: pre;">y1</text><g class="layers" style="opacity: 1;"><g class="legendfill"/><g class="legendlines"><path class="js-line" d="M5,0h30" style="fill: none; stroke: rgb(0, 154, 250); stroke-opacity: 1; stroke-width: 1px;"/></g><g class="legendsymbols"><g class="legendpoints"/></g></g><rect class="legendtoggle" x="0" y="-9.5" width="51.625" height="19" style="fill: rgb(0, 0, 0); fill-opacity: 0;"/></g></g></g><rect class="scrollbar" rx="20" ry="3" width="0" height="0" x="0" y="0" style="fill: rgb(128, 139, 164); fill-opacity: 1;"/></g><g class="g-gtitle"/><g class="g-xtitle" transform="translate(0,-13.526469279059484)"><text class="xtitle" x="377.5036549707602" y="510.5264692790594" text-anchor="middle" style="font-family: sans-serif; font-size: 15px; fill: rgb(0, 0, 0); opacity: 1; font-weight: normal; white-space: pre;">Price (dollars)</text></g><g class="g-ytitle"><text class="ytitle" transform="rotate(-90,18.63350140442971,247.19785575048735)" x="18.63350140442971" y="247.19785575048735" text-anchor="middle" style="font-family: sans-serif; font-size: 15px; fill: rgb(0, 0, 0); opacity: 1; font-weight: normal; white-space: pre;">Revenue (dollars)</text></g><g class="annotation" data-index="0" style="opacity: 1;"><g class="annotation-text-g" transform="rotate(0,377.50365497076024,33.00000000000001)"><g class="cursor-pointer" transform="translate(291,20)"><rect class="bg" x="0.5" y="0.5" width="173" height="25" style="stroke-width: 1px; stroke: rgb(0, 0, 0); stroke-opacity: 0; fill: rgb(0, 0, 0); fill-opacity: 0;"/><text class="annotation-text" text-anchor="middle" x="87.046875" y="20" style="font-family: sans-serif; font-size: 20px; fill: rgb(0, 0, 0); fill-opacity: 1; white-space: pre;">Maximize Revenue</text></g></g></g></g></svg>