<svg class="main-svg" xmlns="http://www.w3.org/2000/svg" xmlns:xlink="http://www.w3.org/1999/xlink" width="700" height="500" style="" viewBox="0 0 700 500"><rect x="0" y="0" width="700" height="500" style="fill: rgb(255, 255, 255); fill-opacity: 1;"/><defs id="defs-cab788"><g class="clips"><clipPath id="clipcab788xyplot" class="plotclip"><rect width="645.9274416355851" height="416.65722705714415"/></clipPath><clipPath class="axesclip" id="clipcab788x"><rect x="50.44636690150573" y="0" width="645.9274416355851" height="500"/></clipPath><clipPath class="axesclip" id="clipcab788y"><rect x="0" y="38.869242221915286" width="700" height="416.65722705714415"/></clipPath><clipPath class="axesclip" id="clipcab788xy"><rect x="50.44636690150573" y="38.869242221915286" width="645.9274416355851" height="416.65722705714415"/></clipPath></g><g class="gradients"/></defs><g class="bglayer"/><g class="layer-below"><g class="imagelayer"/><g class="shapelayer"/></g><g class="cartesianlayer"><g class="subplot xy"><g class="layer-subplot"><g class="shapelayer"/><g class="imagelayer"/></g><g class="gridlayer"><g class="x"><path class="xgrid crisp" transform="translate(68.72636690150574,0)" d="M0,38.869242221915286v416.65722705714415" style="stroke: rgb(0, 0, 0); stroke-opacity: 0.1; stroke-width: 0.5px;"/><path class="xgrid crisp" transform="translate(221.06636690150575,0)" d="M0,38.869242221915286v416.65722705714415" style="stroke: rgb(0, 0, 0); stroke-opacity: 0.1; stroke-width: 0.5px;"/><path class="xgrid crisp" transform="translate(373.4063669015057,0)" d="M0,38.869242221915286v416.65722705714415" style="stroke: rgb(0, 0, 0); stroke-opacity: 0.1; stroke-width: 0.5px;"/><path class="xgrid crisp" transform="translate(525.7563669015058,0)" d="M0,38.869242221915286v416.65722705714415" style="stroke: rgb(0, 0, 0); stroke-opacity: 0.1; stroke-width: 0.5px;"/><path class="xgrid crisp" transform="translate(678.0963669015057,0)" d="M0,38.869242221915286v416.65722705714415" style="stroke: rgb(0, 0, 0); stroke-opacity: 0.1; stroke-width: 0.5px;"/></g><g class="y"><path class="ygrid crisp" transform="translate(0,443.7392422219153)" d="M50.44636690150573,0h645.9274416355851" style="stroke: rgb(0, 0, 0); stroke-opacity: 0.1; stroke-width: 0.5px;"/><path class="ygrid crisp" transform="translate(0,380.8392422219153)" d="M50.44636690150573,0h645.9274416355851" style="stroke: rgb(0, 0, 0); stroke-opacity: 0.1; stroke-width: 0.5px;"/><path class="ygrid crisp" transform="translate(0,317.94924222191526)" d="M50.44636690150573,0h645.9274416355851" style="stroke: rgb(0, 0, 0); stroke-opacity: 0.1; stroke-width: 0.5px;"/><path class="ygrid crisp" transform="translate(0,255.05924222191527)" d="M50.44636690150573,0h645.9274416355851" style="stroke: rgb(0, 0, 0); stroke-opacity: 0.1; stroke-width: 0.5px;"/><path class="ygrid crisp" transform="translate(0,192.16924222191528)" d="M50.44636690150573,0h645.9274416355851" style="stroke: rgb(0, 0, 0); stroke-opacity: 0.1; stroke-width: 0.5px;"/><path class="ygrid crisp" transform="translate(0,129.2792422219153)" d="M50.44636690150573,0h645.9274416355851" style="stroke: rgb(0, 0, 0); stroke-opacity: 0.1; stroke-width: 0.5px;"/><path class="ygrid crisp" transform="translate(0,66.38924222191528)" d="M50.44636690150573,0h645.9274416355851" style="stroke: rgb(0, 0, 0); stroke-opacity: 0.1; stroke-width: 0.5px;"/></g></g><g class="zerolinelayer"/><path class="xlines-below"/><path class="ylines-below"/><g class="overlines-below"/><g class="xaxislayer-below"/><g class="yaxislayer-below"/><g class="overaxes-below"/><g class="plot" transform="translate(50.44636690150573,38.869242221915286)" clip-path="url('#clipcab788xyplot')"><g class="scatterlayer mlayer"><g class="trace scatter trace6bc9f9" style="stroke-miterlimit: 2; opacity: 1;"><g class="fills"/><g class="errorbars"/><g class="lines"><path class="js-line" d="M18.28,404.87L42.66,344.49L48.75,330.18L67.03,289.14L73.12,276.09L91.4,238.83L97.5,227.04L115.78,193.55L121.87,183.01L140.15,153.3L146.25,144.02L164.53,118.08L170.62,110.06L188.9,87.89L195,81.13L213.28,62.73L219.37,57.23L237.65,42.61L243.75,38.36L255.93,30.82L262.03,27.52L274.21,21.85L280.31,19.5L292.5,15.72L298.59,14.31L310.78,12.42L316.87,11.95L329.06,11.95L335.15,12.42L347.34,14.31L353.43,15.72L365.62,19.5L371.71,21.85L383.9,27.52L389.99,30.82L402.18,38.36L408.27,42.61L420.46,52.04L426.56,57.23L444.84,74.68L450.93,81.13L469.21,102.36L475.31,110.06L493.59,135.06L499.68,144.02L517.96,172.79L524.05,183.01L542.34,215.56L548.43,227.04L566.71,263.36L572.8,276.09L591.08,316.19L597.18,330.18L621.55,389.3L627.65,404.87" style="vector-effect: non-scaling-stroke; fill: none; stroke: rgb(0, 154, 250); stroke-opacity: 1; stroke-width: 1px; opacity: 1;"/></g><g class="points"/><g class="text"/></g></g></g><g class="overplot"/><path class="xlines-above crisp" d="M49.44636690150573,456.0264692790594H696.3738085370908" style="fill: none; stroke-width: 1px; stroke: rgb(0, 0, 0); stroke-opacity: 1;"/><path class="ylines-above crisp" d="M49.94636690150573,38.869242221915286V455.5264692790594" style="fill: none; stroke-width: 1px; stroke: rgb(0, 0, 0); stroke-opacity: 1;"/><g class="overlines-above"/><g class="xaxislayer-above"><path class="xtick ticks crisp" d="M0,455.5264692790594v-5" transform="translate(68.72636690150574,0)" style="stroke: rgb(0, 0, 0); stroke-opacity: 1; stroke-width: 1px;"/><path class="xtick ticks crisp" d="M0,455.5264692790594v-5" transform="translate(221.06636690150575,0)" style="stroke: rgb(0, 0, 0); stroke-opacity: 1; stroke-width: 1px;"/><path class="xtick ticks crisp" d="M0,455.5264692790594v-5" transform="translate(373.4063669015057,0)" style="stroke: rgb(0, 0, 0); stroke-opacity: 1; stroke-width: 1px;"/><path class="xtick ticks crisp" d="M0,455.5264692790594v-5" transform="translate(525.7563669015058,0)" style="stroke: rgb(0, 0, 0); stroke-opacity: 1; stroke-width: 1px;"/><path class="xtick ticks crisp" d="M0,455.5264692790594v-5" transform="translate(678.0963669015057,0)" style="stroke: rgb(0, 0, 0); stroke-opacity: 1; stroke-width: 1px;"/><g class="xtick"><text text-anchor="middle" x="0" y="469.7264692790594" transform="translate(68.72636690150574,0)" style="font-family: sans-serif; font-size: 11px; fill: rgb(0, 0, 0); fill-opacity: 1; white-space: pre;">0</text></g><g class="xtick"><text text-anchor="middle" x="0" y="469.7264692790594" transform="translate(221.06636690150575,0)" style="font-family: sans-serif; font-size: 11px; fill: rgb(0, 0, 0); fill-opacity: 1; white-space: pre;">25</text></g><g class="xtick"><text text-anchor="middle" x="0" y="469.7264692790594" transform="translate(373.4063669015057,0)" style="font-family: sans-serif; font-size: 11px; fill: rgb(0, 0, 0); fill-opacity: 1; white-space: pre;">50</text></g><g class="xtick"><text text-anchor="middle" x="0" y="469.7264692790594" transform="translate(525.7563669015058,0)" style="font-family: sans-serif; font-size: 11px; fill: rgb(0, 0, 0); fill-opacity: 1; white-space: pre;">75</text></g><g class="xtick"><text text-anchor="middle" x="0" y="469.7264692790594" transform="translate(678.0963669015057,0)" style="font-family: sans-serif; font-size: 11px; fill: rgb(0, 0, 0); fill-opacity: 1; white-space: pre;">100</text></g></g><g class="yaxislayer-above"><path class="ytick ticks crisp" d="M50.44636690150573,0h5" transform="translate(0,443.7392422219153)" style="stroke: rgb(0, 0, 0); stroke-opacity: 1; stroke-width: 1px;"/><path class="ytick ticks crisp" d="M50.44636690150573,0h5" transform="translate(0,380.8392422219153)" style="stroke: rgb(0, 0, 0); stroke-opacity: 1; stroke-width: 1px;"/><path class="ytick ticks crisp" d="M50.44636690150573,0h5" transform="translate(0,317.94924222191526)" style="stroke: rgb(0, 0, 0); stroke-opacity: 1; stroke-width: 1px;"/><path class="ytick ticks crisp" d="M50.44636690150573,0h5" transform="translate(0,255.05924222191527)" style="stroke: rgb(0, 0, 0); stroke-opacity: 1; stroke-width: 1px;"/><path class="ytick ticks crisp" d="M50.44636690150573,0h5" transform="translate(0,192.16924222191528)" style="stroke: rgb(0, 0, 0); stroke-opacity: 1; stroke-width: 1px;"/><path class="ytick ticks crisp" d="M50.44636690150573,0h5" transform="translate(0,129.2792422219153)" style="stroke: rgb(0, 0, 0); stroke-opacity: 1; stroke-width: 1px;"/><path class="ytick ticks crisp" d="M50.44636690150573,0h5" transform="translate(0,66.38924222191528)" style="stroke: rgb(0, 0, 0); stroke-opacity: 1; stroke-width: 1px;"/><g class="ytick"><text text-anchor="end" x="47.24636690150573" y="3.8499999999999996" transform="translate(0,443.7392422219153)" style="font-family: sans-serif; font-size: 11px; fill: rgb(0, 0, 0); fill-opacity: 1; white-space: pre;">0</text></g><g class="ytick"><text text-anchor="end" x="47.24636690150573" y="3.8499999999999996" transform="translate(0,380.8392422219153)" style="font-family: sans-serif; font-size: 11px; fill: rgb(0, 0, 0); fill-opacity: 1; white-space: pre;">200</text></g><g class="ytick"><text text-anchor="end" x="47.24636690150573" y="3.8499999999999996" transform="translate(0,317.94924222191526)" style="font-family: sans-serif; font-size: 11px; fill: rgb(0, 0, 0); fill-opacity: 1; white-space: pre;">400</text></g><g class="ytick"><text text-anchor="end" x="47.24636690150573" y="3.8499999999999996" transform="translate(0,255.05924222191527)" style="font-family: sans-serif; font-size: 11px; fill: rgb(0, 0, 0); fill-opacity: 1; white-space: pre;">600</text></g><g class="ytick"><text text-anchor="end" x="47.24636690150573" y="3.8499999999999996" transform="translate(0,192.16924222191528)" style="font-family: sans-serif; font-size: 11px; fill: rgb(0, 0, 0); fill-opacity: 1; white-space: pre;">800</text></g><g class="ytick"><text text-anchor="end" x="47.24636690150573" y="3.8499999999999996" transform="translate(0,129.2792422219153)" style="font-family: sans-serif; font-size: 11px; fill: rgb(0, 0, 0); fill-opacity: 1; white-space: pre;">1000</text></g><g class="ytick"><text text-anchor="end" x="47.24636690150573" y="3.8499999999999996" transform="translate(0,66.38924222191528)" style="font-family: sans-serif; font-size: 11px; fill: rgb(0, 0, 0); fill-opacity: 1; white-space: pre;">1200</text></g></g><g class="overaxes-above"/></g></g><g class="polarlayer"/><g class="ternarylayer"/><g class="geolayer"/><g class="funnelarealayer"/><g class="pielayer"/><g class="treemaplayer"/><g class="sunburstlayer"/><g class="glimages"/><defs id="topdefs-cab788"><g class="clips"/><clipPath id="legendcab788"><rect width="57" height="29" x="1" y="1"/></clipPath></defs><g class="layer-above"><g class="imagelayer"/><g class="shapelayer"/></g><g class="infolayer"><g class="legend" pointer-events="all" transform="translate(641,20)"><rect class="bg" shape-rendering="crispEdges" style="stroke: rgb(0, 0, 0); stroke-opacity: 1; fill: rgb(255, 255, 255); fill-opacity: 1; stroke-width: 1px;" width="58" height="30" x="0.5" y="0.5"/><g class="scrollbox" transform="" clip-path="url('#legendcab788')"><g class="groups"><g class="traces" transform="translate(1,15.5)" style="opacity: 1;"><text class="legendtext" text-anchor="start" x="40" y="4.29" style="font-family: sans-serif; font-size: 11px; fill: rgb(0, 0, 0); fill-opacity: 1; white-space: pre;">y1</text><g class="layers" style="opacity: 1;"><g class="legendfill"/><g class="legendlines"><path class="js-line" d="M5,0h30" style="fill: none; stroke: rgb(0, 154, 250); stroke-opacity: 1; stroke-width: 1px;"/></g><g class="legendsymbols"><g class="legendpoints"/></g></g><rect class="legendtoggle" x="0" y="-9.5" width="51.625" height="19" style="fill: rgb(0, 0, 0); fill-opacity: 0;"/></g></g></g><rect class="scrollbar" rx="20" ry="3" width="0" height="0" style="fill: rgb(128, 139, 164); fill-opacity: 1;" x="0" y="0"/></g><g class="g-gtitle"/><g class="g-xtitle" transform="translate(0,-13.526469279059484)"><text class="xtitle" x="373.41008771929825" y="510.5264692790594" text-anchor="middle" style="font-family: sans-serif; font-size: 15px; fill: rgb(0, 0, 0); opacity: 1; font-weight: normal; white-space: pre;">Length of x (feet)</text></g><g class="g-ytitle" transform="translate(3.564453125,0)"><text class="ytitle" transform="rotate(-90,10.446366901505733,247.19785575048735)" x="10.446366901505733" y="247.19785575048735" text-anchor="middle" style="font-family: sans-serif; font-size: 15px; fill: rgb(0, 0, 0); opacity: 1; font-weight: normal; white-space: pre;">Area (square feet)</text></g><g class="annotation" data-index="0" style="opacity: 1;"><g class="annotation-text-g" transform="rotate(0,373.4100877192982,33)"><g class="cursor-pointer" transform="translate(305,20)"><rect class="bg" x="0.5" y="0.5" width="135" height="25" style="stroke-width: 1px; stroke: rgb(0, 0, 0); stroke-opacity: 0; fill: rgb(0, 0, 0); fill-opacity: 0;"/><text class="annotation-text" text-anchor="middle" x="68.140625" y="20" style="font-family: sans-serif; font-size: 20px; fill: rgb(0, 0, 0); fill-opacity: 1; white-space: pre;">Maximize Area</text></g></g></g></g></svg>