<svg class="main-svg" xmlns="http://www.w3.org/2000/svg" xmlns:xlink="http://www.w3.org/1999/xlink" width="700" height="500" style="" viewBox="0 0 700 500"><rect x="0" y="0" width="700" height="500" style="fill: rgb(255, 255, 255); fill-opacity: 1;"/><defs id="defs-f8b6b4"><g class="clips"><clipPath id="clipf8b6b4xyplot" class="plotclip"><rect width="654.1145761385089" height="416.65722705714415"/></clipPath><clipPath class="axesclip" id="clipf8b6b4x"><rect x="42.25923239858176" y="0" width="654.1145761385089" height="500"/></clipPath><clipPath class="axesclip" id="clipf8b6b4y"><rect x="0" y="38.869242221915286" width="700" height="416.65722705714415"/></clipPath><clipPath class="axesclip" id="clipf8b6b4xy"><rect x="42.25923239858176" y="38.869242221915286" width="654.1145761385089" height="416.65722705714415"/></clipPath></g><g class="gradients"/></defs><g class="bglayer"/><g class="layer-below"><g class="imagelayer"/><g class="shapelayer"/></g><g class="cartesianlayer"><g class="subplot xy"><g class="layer-subplot"><g class="shapelayer"/><g class="imagelayer"/></g><g class="gridlayer"><g class="x"><path class="xgrid crisp" transform="translate(60.769232398581764,0)" d="M0,38.869242221915286v416.65722705714415" style="stroke: rgb(0, 0, 0); stroke-opacity: 0.1; stroke-width: 0.5px;"/><path class="xgrid crisp" transform="translate(163.61923239858174,0)" d="M0,38.869242221915286v416.65722705714415" style="stroke: rgb(0, 0, 0); stroke-opacity: 0.1; stroke-width: 0.5px;"/><path class="xgrid crisp" transform="translate(266.46923239858177,0)" d="M0,38.869242221915286v416.65722705714415" style="stroke: rgb(0, 0, 0); stroke-opacity: 0.1; stroke-width: 0.5px;"/><path class="xgrid crisp" transform="translate(369.3192323985818,0)" d="M0,38.869242221915286v416.65722705714415" style="stroke: rgb(0, 0, 0); stroke-opacity: 0.1; stroke-width: 0.5px;"/><path class="xgrid crisp" transform="translate(472.1692323985818,0)" d="M0,38.869242221915286v416.65722705714415" style="stroke: rgb(0, 0, 0); stroke-opacity: 0.1; stroke-width: 0.5px;"/><path class="xgrid crisp" transform="translate(575.0092323985817,0)" d="M0,38.869242221915286v416.65722705714415" style="stroke: rgb(0, 0, 0); stroke-opacity: 0.1; stroke-width: 0.5px;"/><path class="xgrid crisp" transform="translate(677.8592323985818,0)" d="M0,38.869242221915286v416.65722705714415" style="stroke: rgb(0, 0, 0); stroke-opacity: 0.1; stroke-width: 0.5px;"/></g><g class="y"><path class="ygrid crisp" transform="translate(0,426.74924222191527)" d="M42.25923239858176,0h654.1145761385089" style="stroke: rgb(0, 0, 0); stroke-opacity: 0.1; stroke-width: 0.5px;"/><path class="ygrid crisp" transform="translate(0,320.5392422219153)" d="M42.25923239858176,0h654.1145761385089" style="stroke: rgb(0, 0, 0); stroke-opacity: 0.1; stroke-width: 0.5px;"/><path class="ygrid crisp" transform="translate(0,214.3292422219153)" d="M42.25923239858176,0h654.1145761385089" style="stroke: rgb(0, 0, 0); stroke-opacity: 0.1; stroke-width: 0.5px;"/><path class="ygrid crisp" transform="translate(0,108.10924222191528)" d="M42.25923239858176,0h654.1145761385089" style="stroke: rgb(0, 0, 0); stroke-opacity: 0.1; stroke-width: 0.5px;"/></g></g><g class="zerolinelayer"/><path class="xlines-below"/><path class="ylines-below"/><g class="overlines-below"/><g class="xaxislayer-below"/><g class="yaxislayer-below"/><g class="overaxes-below"/><g class="plot" transform="translate(42.25923239858176,38.869242221915286)" clip-path="url('#clipf8b6b4xyplot')"><g class="scatterlayer mlayer"><g class="trace scatter trace7c1ad3" style="stroke-miterlimit: 2; opacity: 1;"><g class="fills"/><g class="errorbars"/><g class="lines"><path class="js-line" d="M18.51,11.79L93.59,85.09L94.62,86.08L168.67,156.25L169.7,157.2L222.15,205.1L223.18,206.02L273.58,250.07L274.6,250.94L312.66,282.49L313.69,283.32L349.68,311.38L350.71,312.15L383.62,335.85L384.65,336.56L414.48,355.99L415.51,356.62L440.19,370.86L441.22,371.42L463.85,382.69L464.87,383.16L484.42,391.27L485.44,391.65L503.96,397.7L504.98,397.99L522.47,402.03L523.5,402.22L539.95,404.36L540.98,404.44L556.41,404.81L557.44,404.78L571.84,403.56L572.86,403.42L587.26,400.58L588.29,400.32L602.69,395.77L603.72,395.38L618.12,389.04L619.15,388.52L634.57,379.69L635.6,379.03" style="vector-effect: non-scaling-stroke; fill: none; stroke: rgb(0, 154, 250); stroke-opacity: 1; stroke-width: 1px; opacity: 1;"/></g><g class="points"/><g class="text"/></g></g></g><g class="overplot"/><path class="xlines-above crisp" d="M41.25923239858176,456.0264692790594H696.3738085370907" style="fill: none; stroke-width: 1px; stroke: rgb(0, 0, 0); stroke-opacity: 1;"/><path class="ylines-above crisp" d="M41.75923239858176,38.869242221915286V455.5264692790594" style="fill: none; stroke-width: 1px; stroke: rgb(0, 0, 0); stroke-opacity: 1;"/><g class="overlines-above"/><g class="xaxislayer-above"><path class="xtick ticks crisp" d="M0,455.5264692790594v-5" transform="translate(60.769232398581764,0)" style="stroke: rgb(0, 0, 0); stroke-opacity: 1; stroke-width: 1px;"/><path class="xtick ticks crisp" d="M0,455.5264692790594v-5" transform="translate(163.61923239858174,0)" style="stroke: rgb(0, 0, 0); stroke-opacity: 1; stroke-width: 1px;"/><path class="xtick ticks crisp" d="M0,455.5264692790594v-5" transform="translate(266.46923239858177,0)" style="stroke: rgb(0, 0, 0); stroke-opacity: 1; stroke-width: 1px;"/><path class="xtick ticks crisp" d="M0,455.5264692790594v-5" transform="translate(369.3192323985818,0)" style="stroke: rgb(0, 0, 0); stroke-opacity: 1; stroke-width: 1px;"/><path class="xtick ticks crisp" d="M0,455.5264692790594v-5" transform="translate(472.1692323985818,0)" style="stroke: rgb(0, 0, 0); stroke-opacity: 1; stroke-width: 1px;"/><path class="xtick ticks crisp" d="M0,455.5264692790594v-5" transform="translate(575.0092323985817,0)" style="stroke: rgb(0, 0, 0); stroke-opacity: 1; stroke-width: 1px;"/><path class="xtick ticks crisp" d="M0,455.5264692790594v-5" transform="translate(677.8592323985818,0)" style="stroke: rgb(0, 0, 0); stroke-opacity: 1; stroke-width: 1px;"/><g class="xtick"><text text-anchor="middle" x="0" y="469.7264692790594" transform="translate(60.769232398581764,0)" style="font-family: sans-serif; font-size: 11px; fill: rgb(0, 0, 0); fill-opacity: 1; white-space: pre;">0</text></g><g class="xtick"><text text-anchor="middle" x="0" y="469.7264692790594" transform="translate(163.61923239858174,0)" style="font-family: sans-serif; font-size: 11px; fill: rgb(0, 0, 0); fill-opacity: 1; white-space: pre;">1</text></g><g class="xtick"><text text-anchor="middle" x="0" y="469.7264692790594" transform="translate(266.46923239858177,0)" style="font-family: sans-serif; font-size: 11px; fill: rgb(0, 0, 0); fill-opacity: 1; white-space: pre;">2</text></g><g class="xtick"><text text-anchor="middle" x="0" y="469.7264692790594" transform="translate(369.3192323985818,0)" style="font-family: sans-serif; font-size: 11px; fill: rgb(0, 0, 0); fill-opacity: 1; white-space: pre;">3</text></g><g class="xtick"><text text-anchor="middle" x="0" y="469.7264692790594" transform="translate(472.1692323985818,0)" style="font-family: sans-serif; font-size: 11px; fill: rgb(0, 0, 0); fill-opacity: 1; white-space: pre;">4</text></g><g class="xtick"><text text-anchor="middle" x="0" y="469.7264692790594" transform="translate(575.0092323985817,0)" style="font-family: sans-serif; font-size: 11px; fill: rgb(0, 0, 0); fill-opacity: 1; white-space: pre;">5</text></g><g class="xtick"><text text-anchor="middle" x="0" y="469.7264692790594" transform="translate(677.8592323985818,0)" style="font-family: sans-serif; font-size: 11px; fill: rgb(0, 0, 0); fill-opacity: 1; white-space: pre;">6</text></g></g><g class="yaxislayer-above"><path class="ytick ticks crisp" d="M42.25923239858176,0h5" transform="translate(0,426.74924222191527)" style="stroke: rgb(0, 0, 0); stroke-opacity: 1; stroke-width: 1px;"/><path class="ytick ticks crisp" d="M42.25923239858176,0h5" transform="translate(0,320.5392422219153)" style="stroke: rgb(0, 0, 0); stroke-opacity: 1; stroke-width: 1px;"/><path class="ytick ticks crisp" d="M42.25923239858176,0h5" transform="translate(0,214.3292422219153)" style="stroke: rgb(0, 0, 0); stroke-opacity: 1; stroke-width: 1px;"/><path class="ytick ticks crisp" d="M42.25923239858176,0h5" transform="translate(0,108.10924222191528)" style="stroke: rgb(0, 0, 0); stroke-opacity: 1; stroke-width: 1px;"/><g class="ytick"><text text-anchor="end" x="39.059232398581756" y="3.8499999999999996" transform="translate(0,426.74924222191527)" style="font-family: sans-serif; font-size: 11px; fill: rgb(0, 0, 0); fill-opacity: 1; white-space: pre;">1.4</text></g><g class="ytick"><text text-anchor="end" x="39.059232398581756" y="3.8499999999999996" transform="translate(0,320.5392422219153)" style="font-family: sans-serif; font-size: 11px; fill: rgb(0, 0, 0); fill-opacity: 1; white-space: pre;">1.6</text></g><g class="ytick"><text text-anchor="end" x="39.059232398581756" y="3.8499999999999996" transform="translate(0,214.3292422219153)" style="font-family: sans-serif; font-size: 11px; fill: rgb(0, 0, 0); fill-opacity: 1; white-space: pre;">1.8</text></g><g class="ytick"><text text-anchor="end" x="39.059232398581756" y="3.8499999999999996" transform="translate(0,108.10924222191528)" style="font-family: sans-serif; font-size: 11px; fill: rgb(0, 0, 0); fill-opacity: 1; white-space: pre;">2.0</text></g></g><g class="overaxes-above"/></g></g><g class="polarlayer"/><g class="ternarylayer"/><g class="geolayer"/><g class="funnelarealayer"/><g class="pielayer"/><g class="treemaplayer"/><g class="sunburstlayer"/><g class="glimages"/><defs id="topdefs-f8b6b4"><g class="clips"/><clipPath id="legendf8b6b4"><rect width="57" height="29" x="1" y="1"/></clipPath></defs><g class="layer-above"><g class="imagelayer"/><g class="shapelayer"/></g><g class="infolayer"><g class="legend" pointer-events="all" transform="translate(641,20)"><rect class="bg" shape-rendering="crispEdges" width="58" height="30" x="0.5" y="0.5" style="stroke: rgb(0, 0, 0); stroke-opacity: 1; fill: rgb(255, 255, 255); fill-opacity: 1; stroke-width: 1px;"/><g class="scrollbox" transform="" clip-path="url('#legendf8b6b4')"><g class="groups"><g class="traces" transform="translate(1,15.5)" style="opacity: 1;"><text class="legendtext" text-anchor="start" x="40" y="4.29" style="font-family: sans-serif; font-size: 11px; fill: rgb(0, 0, 0); fill-opacity: 1; white-space: pre;">y1</text><g class="layers" style="opacity: 1;"><g class="legendfill"/><g class="legendlines"><path class="js-line" d="M5,0h30" style="fill: none; stroke: rgb(0, 154, 250); stroke-opacity: 1; stroke-width: 1px;"/></g><g class="legendsymbols"><g class="legendpoints"/></g></g><rect class="legendtoggle" x="0" y="-9.5" width="51.625" height="19" style="fill: rgb(0, 0, 0); fill-opacity: 0;"/></g></g></g><rect class="scrollbar" rx="20" ry="3" width="0" height="0" x="0" y="0" style="fill: rgb(128, 139, 164); fill-opacity: 1;"/></g><g class="g-gtitle"/><g class="g-xtitle" transform="translate(0,-13.526469279059484)"><text class="xtitle" x="369.3165204678362" y="510.5264692790594" text-anchor="middle" style="font-family: sans-serif; font-size: 15px; fill: rgb(0, 0, 0); opacity: 1; font-weight: normal; white-space: pre;">Distance (miles)</text></g><g class="g-ytitle" transform="translate(11.7509765625,0)"><text class="ytitle" transform="rotate(-90,2.2592323985817586,247.19785575048735)" x="2.2592323985817586" y="247.19785575048735" text-anchor="middle" style="font-family: sans-serif; font-size: 15px; fill: rgb(0, 0, 0); opacity: 1; font-weight: normal; white-space: pre;">Time (hours)</text></g><g class="annotation" data-index="0" style="opacity: 1;"><g class="annotation-text-g" transform="rotate(0,369.31652046783626,33.00000000000001)"><g class="cursor-pointer" transform="translate(273,20)"><rect class="bg" x="0.5" y="0.5" width="192" height="25" style="stroke-width: 1px; stroke: rgb(0, 0, 0); stroke-opacity: 0; fill: rgb(0, 0, 0); fill-opacity: 0;"/><text class="annotation-text" text-anchor="middle" x="96.28125" y="20" style="font-family: sans-serif; font-size: 20px; fill: rgb(0, 0, 0); fill-opacity: 1; white-space: pre;">Minimize Travel Time</text></g></g></g></g></svg>