<?xml version="1.0" encoding="utf-8"?>
<!DOCTYPE svg PUBLIC "-//W3C//DTD SVG 1.1//EN" "http://www.w3.org/Graphics/SVG/1.1/DTD/svg11.dtd">
<svg class="marks" width="653" height="387" viewBox="0 0 653 387" version="1.1" xmlns="http://www.w3.org/2000/svg" xmlns:xlink="http://www.w3.org/1999/xlink"><rect width="653" height="387" fill="white"></rect><g fill="none" stroke-miterlimit="10" transform="translate(7,22)"><g class="mark-group role-frame root" role="graphics-object" aria-roledescription="group mark container"><g transform="translate(0,0)"><path class="background" aria-hidden="true" d="M0.5,0.5h640v360h-640Z" stroke="#ddd"></path><g><g class="mark-shape role-mark layer_0_marks" role="graphics-symbol" aria-roledescription="shape mark container"><path transform="translate(0,0)" d="M59.87608186185821,332.89847759863426L58.03504999313884,327.9499523826755L55.437490461536925,325.25513224015765L55.661802926373696,324.5231780434701L58.686561370090146,327.32338226131196L60.67160057267381,332.37710516206744ZM112.6413947344833,345.44527283239495L112.70902881162584,342.75233549229324L114.32592523341839,343.1304008153013L113.97544216964275,344.79628532509867ZM115.16831815132014,345.47563031770255L114.61943598975819,344.13767789759265L115.70043992320586,343.40981902706085ZM117.8308097483615,344.8286561243194L116.50731652995302,343.4686172006303L117.91884510630376,343.5032553144649ZM93.95994996245241,341.3767934510944L92.22088821368544,339.1820112463463L94.32938820305253,338.91061225339195L92.19867253594333,335.0809055674232L92.85341267289829,334.58328869769286L95.62036923457975,335.36527413963336L95.58184609275986,336.6986272593431L98.36123891399018,338.4514230606236L96.33000496253271,338.29353432674804ZM102.74629290601979,342.2983959200179L100.81579205909452,341.1036200696609L97.16218007806697,340.17330129141806L102.42080525281682,340.64870547127487L103.48133742531911,340.28141956302704L104.2980531660657,338.29371776906476L105.47158886917333,338.62041482075983L103.38064066891855,342.5957911298093ZM55.86045754721488,319.51302390127137L55.87368839376387,317.86746588611413L57.20974003936351,319.13735726281243ZM104.99385698317695,345.5834374066276L104.96308916085309,344.12169325220304L106.70586057606943,343.5304318596628L106.79138888757694,341.74529824211584L108.51074313049628,342.4937395486122L109.37831336946579,339.416761319701L112.0025663252975,339.79575271000647L110.19569521631826,342.4292780299321L112.17558174827218,342.69743376984945L111.96333394343645,344.8763505807548L110.89910888304831,344.2256380545773L109.83131083692132,345.28511118310894L106.5684501125537,345.2078004152967L107.09634405021148,343.6039471101011ZM68.0160157423831,325.32396487809194L66.94326954974991,323.843471961809L67.41336001173363,322.72931079116233L69.53695532668917,322.706153644756L70.50146748602555,324.2166820682901ZM117.40747851677219,342.1914293165338L116.36489279011363,339.9104788387973L118.48247930502663,339.7387523875492ZM42.15993265592266,314.9110591560104L41.48787343161365,313.1538804731607L44.064016541277226,312.54016415374326L45.29754424480353,312.9685811732601L47.30341441643907,310.9735687256724L48.356702076356896,311.6824820084041L46.08553661458291,313.3289022162953L45.50531645350526,314.5996112804354L44.07488514480741,313.55477702020573ZM147.28224621643054,350.7303802590478L145.3736879520007,349.126031390262L143.53335464983667,349.22698716280536L141.56698868420065,347.1010974862894L143.40588911924914,347.14716693809305L149.28752916421954,350.0711013142352L151.32611645778994,350.19013059634744L153.89200966624819,351.26335559450126L151.56505754613423,351.2073983346189L147.71391270455985,350.34887681222995ZM159.56624312422886,349.8144859637316L158.65794287252305,349.3907291558363L159.6170767899621,347.7670841118313L161.32930820311506,347.39997371173297L162.6917480168289,349.04502444168054ZM128.77760371512537,345.3513576308454L128.49474061043082,344.68751097733093L131.7519797427851,344.3275251800201L132.91684387495275,345.0780955210447L136.22213694522287,344.9571788708232L140.2044550276259,343.51657738322126L138.97621160819293,342.2648201815605L139.76325633904204,341.2007693863451L141.97125348585337,341.04234795419325L143.2398011221939,343.8966562536617L141.91451409282124,344.970086527228L140.5985274594206,344.41658307585715L141.1436519238303,346.7179611756244L137.4600097943266,346.0513147247226L136.79945833362365,347.1325806740739L135.11304847080035,346.01487969675213L134.06291826772068,346.5978492814563L129.88077677198268,345.04397302323855ZM7.219603314148912,286.1535533368291L7.167756711619347,285.3349628458192L4.565143111794896,283.6526382613947L8.943157075609975,283.63044550272457L8.031213688581829,286.5474277861922ZM181.25898904791435,349.8204488611217L181.4450993623723,347.90658702174255L183.79431123403631,347.3253546319402L183.62065226932225,349.2094603554285ZM194.68047195061493,348.4923455415819L193.35304700616211,347.1179234257713L191.90098939056696,347.51560042065455L191.92343816867722,346.1772420873806L195.3157410478575,346.40072800331166ZM2.977943182917045,275.2650367725955L2.0787410073717183,273.2759167924613L2.632851459230153,272.1746107361878L1.1370346556141726,271.6401568606784L1.7846813962216856,270.63770409138465L-5.684341886080802e-14,269.6658609735057L2.6772214980686044,269.364463864732L5.5570377232592705,271.6753723762231L7.35440807742367,272.17391544999236L7.327872961485127,273.9158861794882L8.739735024281401,274.508962106912L7.764533036768569,276.23726961973455L6.193518680709246,276.0208661382852L5.332858561460171,274.6661005666974ZM202.17654422227824,349.08282413492714L206.99566670846056,345.08521790252746L207.01932993709295,343.6446138145833L209.68322780621548,341.9521269682192L212.5363697771851,342.85156707078374L211.74768283379336,341.3618071404197L212.3942777730779,339.7921272317079L214.90379200928396,338.09487313429906L217.6272684035466,337.92359070455836L219.95788753125194,339.3910974605103L218.82014815856962,341.7468344340158L213.36062803086133,343.4063085281406L210.39894611792997,346.48859588436926L206.86908928392552,347.94769158973486ZM238.5910088456331,339.3447271852359L237.74132822079645,337.5690607071599L240.17989596104874,336.68233830220333L239.94167851671358,338.2017138392737ZM220.32638712938018,344.9782922166373L218.8197060287239,343.16735483638433L220.50571338368496,342.0693115368729L221.64497924247124,342.55221602315873L223.19392921186721,341.46355485009667L224.80853046316074,342.5406482313805L225.4558926553516,341.24294182740925L228.10811943473004,341.1792516468339L227.40677506772235,339.1625123615288L229.31668404387338,339.15986627573363L229.04556717446437,337.5389335338391L233.00920549213626,337.81662869928005L229.72958796882642,336.65138116708204L228.3850270597896,334.92209825706925L229.60758390397285,333.2360349542846L231.9514786686489,332.44185537177134L234.4011001226017,332.3651444834786L235.15479983110745,333.6822178767304L234.40693884499007,336.0414990730071L238.80778278517684,333.8953439218167L239.51588875119634,335.0488742166949L234.26358929622944,338.32478958541424L237.526153501974,337.59251924065177L237.7483062037524,339.55984252647863L235.00700817887855,339.7444947741312L232.6391518084076,342.57954816532833L231.26984313002438,341.7495002060913L228.47939927937426,342.30824952544333ZM253.04057061628924,334.76326642209074L251.17112939144025,333.98007185849826L254.44197443532786,333.60773821492114ZM243.44629998741667,333.72751103208964L241.65952994324607,333.2000069414355L241.1637294202423,331.5769156146872L243.00600630781554,329.94670417108375L245.49024915438397,331.88377587810317L245.95931000183452,332.9982577152223ZM247.29632141731392,332.9902882760787L246.53788050857352,329.74259632871497L248.86820202976673,329.4836563090864L247.94689227141166,330.94789958770355L249.34904260424136,331.25640190016804ZM281.3034671813525,333.0329759411661L279.0044160443471,331.1346392830844L279.5967555201572,330.3899635088725L281.59962529301555,331.39314178289703ZM615.3593379866257,293.55046239564L612.5086539921224,290.97584322416867L614.7707356032145,291.2736780083692ZM285.8238196764487,324.57641975093793L284.7239439150909,323.3178643275497L286.0863155236107,321.52662850397246L287.02827128432534,322.0881555189201ZM628.4887342881389,286.9296900115794L626.3733476664177,285.7779968500395L628.5675652308292,283.910791370193L629.639056261137,285.5971972491784ZM258.5145244727547,329.2593579461005L256.38530037314604,328.38138869683144L255.99828311069888,324.7412630595204L258.6773237023186,323.9401918755309L260.9771556114773,320.0894602198988L262.58301059837095,319.22111238590935L264.40649704694704,320.05896577917065L268.8554511290384,318.0794146580321L272.90381795394126,318.38996560205953L274.4161633070487,324.59513377792075L276.00494111059425,324.32091649911933L276.38683471583937,325.98099569144017L273.0793796676003,325.0926606468041L273.0336704236531,326.27088451675365L271.0579357956134,326.90654847773203L268.7315377075739,326.0035655798446L265.5175715856865,325.83634362875216L262.48635947656834,327.1042076388628L261.2571058376019,328.8923810966388ZM318.0156164111743,325.70421755183884L318.86009500148566,323.7551754008082L319.4797380740105,325.05605621845166ZM292.7429886405837,320.97457797269817L291.283180671045,318.6600734577021L294.0590798644474,319.7142201154594ZM612.7080172019835,289.5306587127576L611.1538265197936,289.30467565298966L611.513067151737,287.96167945107413L610.1842349287895,286.9985330984201L610.6365800183582,285.9448374213696L613.139826761182,288.28352231843155ZM316.13080956991683,323.6647224254964L317.03278810961,322.5107560271217L316.97645220984055,320.31880681078644L317.8542530966675,321.81177020480084ZM614.8796850518635,295.4424200624221L613.6267980127141,295.39350418019205L608.5461752720663,291.79884242292883L606.9961422946194,289.0962343430609L606.341226530075,286.4226089194774L607.1862011609519,285.7959360346849L610.479623215656,289.82393938954885L610.9301465086967,291.1976254088265L613.5298932081355,292.5246874042666ZM624.9303374242658,285.30816135658154L624.1816010316566,284.74899304889243L624.6487268211306,282.2088902289337L623.2435511146101,280.1368544950815L626.6270441370443,281.0871358797252L627.2042447998931,283.5506417018537ZM309.22183345207014,326.4430715757826L311.3802207161201,322.31938008387147L311.6653956158139,320.08325479512393L313.36988697275007,321.20517003212376L312.235603143147,323.0915997710663L309.82892864710425,325.1427975892914ZM605.1705428129204,287.60402504927015L604.0102700689908,287.77791653237375L603.4062937427284,285.6274677686638L604.4124240011781,284.98560002349996L605.9594852235325,286.1495697985397ZM308.7239749178539,318.95534581949664L306.76237145935505,317.3012137651484L308.8258405868603,316.6383416971754ZM303.1142785423055,320.8514368879203L303.3183224206563,316.5425890376779L304.68547928053414,315.2919918506557L305.58051869542203,315.91971002566754L307.26701190766374,319.9200143309788L306.4035617148161,320.9408536377233L303.9831644785236,319.4342836443677ZM622.4769348891704,283.3908494387231L621.243645486557,282.5215044610777L619.5043881291112,278.35473374230423L622.2173572378517,279.4969018724187ZM602.0385387517874,287.8996324809557L601.1616603054902,287.11087256664416L601.0883598112608,284.50661733142135L602.8319403603514,284.87575292314773L601.9143996417358,285.9269515760684ZM311.02966467153976,316.56203607111604L309.1753782175045,315.07130081350294L311.2799909563017,315.1536108353123ZM601.797582427092,284.11636728508245L600.8006555622148,283.99302573532805L601.3258583469858,282.24235406822845L602.801213364897,283.34495537970315ZM598.785234854139,284.8591604445204L599.4135032545095,283.02427123767995L600.6650098326595,282.2544560537033L600.331074635792,284.350522715554ZM603.5254938052122,283.1347737818836L602.0515899656798,281.9118028756619L603.0742627981454,280.8243127475496ZM600.333380696121,279.1254338790517L598.0497088616336,278.0453594097472L599.2442069433393,276.6108849598139L601.9454698684688,277.0570941413747ZM361.5126512389033,312.43600564747567L359.89183422833685,311.1678690975667L362.0502924957078,309.65849215456456ZM602.6749872114876,276.7558732279749L601.4266032544198,275.9571559689688L601.2616383595331,274.2915792088496L602.4600156855852,274.94076792787087ZM591.6952162930322,279.18564758190746L591.2123236305302,277.20568747576294L592.8530160567115,276.942766171131ZM627.721588968144,280.2300016861245L626.0847919639378,279.3225004471749L624.576310884137,279.60111058619L625.452674170623,276.12106296921127L624.9580373312294,275.7963973441699L623.4841402538084,279.61917124246713L619.5202984722982,277.7945372453586L620.6755929730064,274.2503417753827L619.5089241769294,274.02489106040446L618.3051964304924,270.2135941827901L620.034442184019,269.6858915829232L619.0853079561418,268.64086583261815L622.158003537294,266.0525147403639L625.0248095302454,268.0114291536406L627.6701487564607,271.28190270440496L628.8164400639507,278.43480470415113ZM597.093581059899,275.9277063707391L595.7700323949163,275.2443951144787L596.7218699687141,271.76611531818173L598.5628980254722,270.1012156400428L600.0548816229418,269.9085395188589L600.8561227477651,272.3946298858465L599.9318415158625,272.32829730117237ZM611.2544114777236,271.06019724296425L609.2480131252184,268.6594983304492L607.1409171716365,269.49719220860356L605.5536058659172,266.6972165638622L606.6343699433478,265.8841193026001L606.6508516189793,263.9757420941248L608.4946548407538,263.8650885077466L608.599709101583,265.87804285427956L610.5356074826943,265.5333629421766L612.6121619498836,266.67631262451596L611.8231862684147,268.10939406166653L613.2430444539191,269.4869950363536ZM604.6501026984376,271.17134589362274L604.6337397588252,271.12151748890926L605.1184136832849,270.719217743973L608.2663743272328,271.8861992724476L610.7867602545598,273.8517271751256L611.2597427465934,276.12636054431766L612.7945133139497,275.9857143193178L614.0896147976064,277.71682631169665L616.2428565232672,278.75597888869277L612.2744104698888,278.0307345728197L610.815086197794,277.15992846376037L611.6483813216131,279.4016635046778L613.1080604776442,278.6461095143676L616.617001457787,280.4668219708326L617.9048048484527,282.14220248092374L616.5164695982096,283.6340107134173L618.339111673208,283.411311628145L618.6287626474685,281.6724196498251L619.7114958587515,283.5940104650997L619.2094701720544,287.4432529993202L620.5389972691047,286.24559468060215L621.5886015719333,288.5543369136017L622.200431959569,292.3199701012172L619.1168599819699,292.92900713431857L618.6618019853131,290.70569698954625L615.2883294317699,288.3833607888678L615.5407884327238,289.7682362578007L613.352275749977,285.6283791052099L612.3797816295846,286.50456506898263L609.0160812225864,284.97770863911114L605.7482661419294,285.7552562164951L605.5431669271263,283.8278162471332L607.9354301706129,283.85393450856384L607.1178933690517,281.992906867497L605.6884797015223,282.21600434829566L605.5305623121369,278.91598781177754L603.6692016503337,280.47849512617984L602.246073629659,280.05520548160484L602.1871697117917,278.32317118301455L603.6165838933927,275.58014394715667L602.1443484817917,274.6019347272397L600.3078607679023,269.8049084200229L596.8729320561167,270.30954894543345L595.5236691113746,268.62396844381647L595.4435003515534,267.086504296444L597.4125791352351,267.1424748732827L599.8261550806167,266.1675677036558L602.5055945471075,268.5069018260235L603.0342972018175,271.2585572297055ZM603.8781657567135,266.95272000137766L601.2361433060892,265.7426212117316L601.7221861161833,263.12172644278667L603.8897369117824,262.29644709555987L605.5139108674747,263.138686311054L605.792542493434,265.4458570341585ZM611.2258506808562,265.50906187705505L608.7660202414447,264.30503174714L607.2703527602191,260.4795311435769L608.5054048422737,260.63777826411274L610.6742320060524,262.4491141171436L611.8188620668112,261.84635970753175L613.8394711115218,264.2576730483015L612.7717517565584,266.30010307170346ZM378.49186152818555,297.85522740177566L378.30000942720716,296.8790301037699L380.30239602916623,296.5004666856089ZM344.7003122016035,296.5350252089926L344.21929506303746,295.3243000258217L346.0225041892753,295.4838445020738ZM370.8335097931933,299.6448480038233L371.59344327726217,297.239346945256L373.22268126843454,295.963537283705L373.98101203586856,297.5331546986407ZM378.18530510275565,296.16521875404624L377.2966362893639,297.63292000741376L375.3302500757037,297.5834262771175L376.6480152527201,295.5739528461148ZM213.22631017927756,277.51761625563097L211.7383297062694,275.47564995779544L214.74668271060244,276.61745239579864ZM605.7537802046613,258.6314500251176L604.6734424442789,257.34438751454877L606.709133813477,257.1351600858545ZM602.8594696408591,261.88569093771L601.4154294270991,262.0626647979959L601.0154987476051,259.48752948980564L599.3383939938142,256.7125031228004L600.9567696631256,256.3681866049535L605.1214265494875,259.2864253849316ZM590.6238328817263,260.6266608649628L590.0236106245351,259.604451965909L591.8423813075527,259.6500336602942L592.1797226337295,263.15305345189563L591.7111386480753,265.13637020951455L593.2887109799317,268.2383779650945L592.8527293213424,269.572903019211L593.4619191490723,273.0972650883025L592.9623987722215,273.46122389603556L591.1516278095605,271.0346560985795L592.2210612240096,275.4254137823382L590.824450736478,274.4722104217527L588.5641202870504,269.3490612226976L589.0857253626175,267.2244391762845L591.0413124437763,268.83932296692547L589.6252822411141,266.0918205163673L587.0175355058609,265.4762398677992L587.2259952998336,264.5784542489341L585.260978031642,262.74152299700313L584.4371815453196,260.6878135377747L585.9417128261048,258.2966425980228L588.4522323685837,258.92821300310675ZM592.3884496342889,260.49048876086886L590.1895343720569,257.7044959184684L587.1701329023267,255.95112868415094L588.4025306718869,254.1600983766441L593.7876466212023,254.30619302336663L596.8014350039753,253.3660926548423L598.5077965472861,254.42161326088603L600.6224918857531,259.152607262281L600.297991640485,260.5070563479312L595.2773409571912,257.20220780554246L597.6999030205905,260.3476903880321L599.1434556925051,260.5635683146959L599.8982781515452,262.26044753026963L599.1474668376698,264.0710523603659L596.4282527909292,263.8105443901918L596.7895489089416,264.68661494269827L594.6060429698312,265.7226089181124ZM386.37572985694607,288.15985512004227L385.4798797986607,285.9110042259017L387.3145875698206,283.8859200519021L390.96393311413595,284.9465463425063L387.64493272070445,286.15032977012766ZM208.54030758536985,264.8277843597009L207.6804744825268,262.9657236977637L211.07459637224758,262.7966145345117ZM569.3408506276327,262.0463837733723L568.5430707107365,260.1872597796812L569.3292111741839,258.3626152491786L568.2297083742649,258.50836909515056L567.239214762398,255.53581369308813L568.8427510654236,255.38986504235163L571.1141441279343,258.271222188662L571.1837147306188,261.013383405819ZM578.6054518759231,264.56445607982096L576.9910574879182,265.18891627848643L576.8468639463026,263.45978085923934L574.7918558373889,263.9237075246192L574.0562542364147,261.64460194039566L574.8857619082821,259.5798311151775L573.0287769608557,258.7608183074958L572.5792431500254,255.83048094916012L570.8995002518583,256.55247256746384L568.694239274369,254.44953913266045L570.8001188514407,254.14510146844304L569.2843559472358,253.49615058484233L570.1181206094242,250.26498770138232L571.5353371325361,251.52963817394175L572.8293417051366,250.87064793378295L575.3800725742208,251.9634457576101L576.9409380724085,251.27250053192415L577.9149070242993,253.2292859162401L576.6457238601315,252.7948452223004L578.5851421714185,255.48419401585284L582.9311343831089,263.37942330201895L585.2606086609711,272.35524716960185L585.7454530832258,273.9732983740912L583.8098450809039,273.06194260052246L577.9519628249261,265.88210357561866ZM395.9513206490827,270.52255220168195L394.2656310822427,269.82633477716354L395.20407918358194,268.74330677019884ZM387.21553005870715,272.36336594750765L384.07508656663657,270.21854835799957L384.435365484826,268.88132786152414L386.3751013127418,270.3028900968534ZM377.57601351506247,293.05730436672286L378.3060679035642,291.04288516896315L380.59329204303265,288.74233152609224L379.374772508256,288.8699554772264L380.2074537883548,285.719067002163L378.1943892733407,288.5965458427145L377.510176821107,288.09141575055L378.19791797871585,285.65652875089086L376.60827581057026,284.8652441297212L374.06595035388307,285.55539204548995L374.967053586628,287.06279278654995L375.8462692728944,285.8702817418374L377.8568889086402,285.54052770081375L377.7370127159525,288.86883066677876L376.28809773502553,289.2741317833147L373.47675065987596,288.1550947156571L373.4306795032506,284.40594658941984L372.5377209279816,282.749385773746L371.2558788358132,282.5682348569968L370.66883265897457,281.1540142893939L372.4693051661495,278.01163248018304L375.29572122812806,275.4799748103701L378.95741952150235,275.38505695926415L379.14449653531943,277.26541730092333L381.2942895019911,281.76778089133177L380.9058904489365,277.54653276156114L381.8041268498416,277.24940865341694L380.26554877437786,275.70963501175004L382.24248499676054,274.8418664335459L380.0763481691072,274.16565212771934L379.66426852254557,272.11746212994524L381.9635076779708,270.6931116149593L383.4541782076608,271.6938198470334L383.6545942680754,273.8778441706463L384.4191604782186,271.5398495665322L387.21677805932273,272.4684219030596L386.9336543911092,270.4963395728345L388.9585322288301,271.98319704006803L386.548774777108,269.2292006023024L389.9940945572466,269.3088793105371L391.4144882422408,270.02033111228843L390.4038116507381,271.6876299693414L392.1548448651919,271.89815252625795L393.11809924860484,269.91391201998715L394.908974272011,270.3897949364973L396.24593829499605,271.91306247056673L394.76331577379403,273.76658650185277L395.0041878900749,276.12537664873116L398.24776625581535,275.68563484441256L396.36229295928604,279.5706566283717L394.8205574683693,279.57583147976277L392.1212140283862,278.00347491385696L390.6651864836331,278.4180997857833L393.51356821063837,280.0139784711231L392.6211208639457,282.49006333342925L391.45443936267554,282.700845410237L389.3943037081657,281.2954344236591L390.10025676457707,283.0386977509203L387.08381394514515,283.55253657947287L384.7583976687881,285.812244191441L383.47128768117307,286.1785807447086L382.8343702098866,287.683856568852L383.8639460943314,288.1080479859818L380.1039371566858,292.53315282507685ZM558.4658291062988,247.63353106894897L557.0159500006312,246.6749593828049L556.4479959224092,243.13898582446132L558.7655765949598,244.20980033644946ZM389.80002579817995,268.7444757873443L386.89848991523934,267.43882966252704L385.01351173938036,267.2792628270381L386.5824693768524,265.5822806182741L388.3653014494163,266.66371923093993ZM565.0961654603257,241.7326621863333L564.4138378835111,243.12614913023003L565.7574311871532,243.11804543913672L567.3706678727559,239.08412914129826L568.1800880461406,239.36492583468157L572.2226221171294,239.65257822674585L573.1146328137534,240.846467303111L572.7755925068475,242.71011831087276L570.1862737956633,242.17530650066738L573.743541416405,244.155566545375L571.0702627033638,245.48533608672096L569.1047725905381,244.57706432962937L563.2387952979104,243.18280481616762L564.9450697481667,244.33018361564382L567.0724340419301,244.49219375236362L571.4416516667569,246.8981363972389L572.3854264999292,245.47421014007728L574.0914717646284,244.94018066984313L575.8176730990119,247.74902152253344L576.3782668721122,250.2999462500129L574.1420333215493,250.94737227903988L567.6675351980216,248.08044596340983L564.9766958281241,247.46438152599762L568.7340490363093,249.91774262282092L569.5506744881827,252.09888433055062L568.4577690797273,254.58188499039602L562.5246216767537,250.62067737489338L561.4385813138526,248.35883481216206L560.2231784146081,248.28847086937685L559.5799972835923,247.62522420114328L559.1524112240489,247.7523134488613L558.9040900485784,247.8305469265713L558.7575032875075,244.32090167857655L562.8212510997087,246.6584083112091L562.8675760026591,246.54742298462543L561.9673553443482,246.21888495514622L557.1736174571786,242.43156211868563L558.31597427015,240.04076765144077L559.0912664920463,241.2014213827224L559.6896875942654,239.63104123087737L561.4600021035508,239.41330140698892L562.7171682394737,237.5010487293057L565.2347775952464,238.30700397466285L566.2377001022264,240.34870436871734ZM578.0814618497916,234.94191121196081L575.0275787085652,235.13279403433808L573.6070829361505,233.84751583739808L574.7558104553054,232.83277846425494ZM573.7786740229678,235.57329826691307L574.2074031906097,236.75039375863253L575.3914907667375,235.70366655868088L577.9476969045505,236.26837593205983L578.0120509749587,236.22676955163774L579.3600542579348,235.22022265776195L579.0417575233112,236.0655734147349L584.0867220884813,240.97178851583317L584.9261831304582,243.28511797308556L584.0861494120072,243.3488861736389L580.5456057528643,238.31866856123588L578.2666144702324,236.80830305712288L579.858588226135,238.98052616612358L578.7818213059239,238.74950659780689L582.4498744800926,243.10801426105968L584.9563155764721,244.76135316460363L585.8293829088764,246.93183420644846L583.8012007656337,247.23142759760754L587.0412230682971,249.17222069061881L586.233728078707,250.63416717657537L583.7750157868297,249.5696477100323L585.0450523743704,252.9258311973058L582.6113407430687,256.8967885362754L581.3898899912549,257.3200043305085L580.024179660444,253.69529776584932L580.853175185723,251.99782315806556L579.6979668404883,250.6458766408366L581.0558628110797,250.58676736149982L579.2861652041792,249.2780432571633L576.3485869191823,245.0811218136671L576.0354072681137,242.9926426336683L573.6915892686125,239.0205511826614L573.9709250709707,238.14800553112173L573.6218718864814,236.33303471745853L573.6308854591646,236.36324593612267L573.7204902835474,238.21163326156443L571.1538840347031,235.37706956335478L570.3254611454954,232.82721876864161ZM396.2043991888752,260.02517410992095L397.41803021945327,261.64397429692235L399.7674450355653,261.77594829544L399.58026246312534,264.0737767600476L398.7286798697631,265.1503092325561L396.1434699061466,263.41199903267875L396.71900639397694,265.7731068059006L393.73963015771693,266.0645984735959L391.5459625323975,267.07529181470613L391.57135848711846,268.46211545613414L389.07865762064387,267.5048601433941L386.94685308853064,265.2418448937517L387.52257825844737,264.1734208487319L390.8130738438424,265.25955903939143L388.20995081422745,263.3552049380653L388.74944569465964,262.56991628565925L391.4703451647306,262.9459745933093L390.36577890661596,260.5371596650607L392.67324212456657,258.9071651213169L394.46973466328797,259.28901471645645L395.56206803980314,262.16486148478566ZM392.6747951913741,257.18296900618975L395.77199208993255,255.87235804667512L394.46517181212425,259.08936330058145L392.95934699564106,258.6279836855533ZM307.41133418482093,253.9434397586765L307.90562603148936,251.02568315422445L311.7024431445492,249.50735485717655L309.3889549728381,253.58130643163713ZM383.80133729067455,242.6171377871692L383.7917575637034,241.29232883717236L385.5731821274627,241.84485397850426ZM411.50726456549967,242.46508794035162L411.7379115334124,239.93756726309903L412.53092419379993,240.85563424590555ZM470.5763332829184,226.81073641714443L472.0220262058927,223.82980698490883L473.7579252605733,222.4375665939367ZM436.94710232966423,227.9426980473513L438.21310620386976,225.3141584386624L438.2084685052657,227.1626943120723ZM436.625599892228,225.9232554740488L435.6704381982364,226.58887268743956L437.2136963460452,223.54714199262344L438.0839529643835,224.67130332504462ZM434.5921833750464,226.66189680444018L434.2219365932238,225.20556050954383L436.38500623148167,223.24189265183213L435.47565606332313,226.36321147105582ZM438.8941665991942,231.16522788973225L438.64427042005906,229.22405778189523L442.553367847396,224.29641426582293L444.6702190515232,219.7484347421605L446.80076894133737,219.5354074741631L446.3883194640374,221.21838295070302L444.6576297309043,223.0058614758325L442.26349147496387,227.3895313114167L442.8787117324854,228.63913310912721ZM260.3538754896595,223.28537586103062L258.43370963028053,220.77468951862556L256.6172049173207,220.5777982738748L253.55356422595457,217.11867587461575L252.44047978897262,216.9935109265091L249.9903022542088,211.9362816936341L253.39764094339938,212.20881644641304L255.6451059696855,213.34010815954161L256.1356441928425,212.09669292306353L259.80393535808616,210.39504162955768L260.66662713089124,211.211513382701L263.23562577194326,210.97452420162608L263.3927831111604,212.40436581333756L265.394270559953,212.3954559702761L267.08366585866474,213.73481549937924L266.23557671453455,216.12599518725278L266.7240341746244,221.3498215134914L262.41555799828274,221.38785837200862ZM449.9325046659612,220.8231533020296L449.1818263610587,220.0175760615257L451.09134854366573,218.14238399509532L448.87311765155147,218.79257967121907L449.63271392294286,215.95736805263323L451.6799478141144,215.714684835835L452.172180747548,216.98117613356771L454.80421334687446,217.2433970133618L452.81503615987043,218.3358471803931ZM397.5616577620395,222.39642314926118L398.8691890708012,218.93769466452682L399.7113705588572,219.48952796024992ZM437.6250099101949,221.57703136906684L438.96489203595144,216.64629945387833L440.2051423528283,218.05952428942737L439.2937163621424,223.42842640597587ZM205.1507845123966,199.4384369181239L202.49704925709943,198.28836754297458L200.1432660447032,194.2869967316767L199.21352082439398,193.6737340265745L200.7400533739957,191.8866168974937L200.78500007297103,193.806469360572L201.92842999716154,195.7820380258854L204.40315595307956,197.269610488157ZM453.39184233005386,216.15077147835268L452.594221603387,214.9524388102709L457.07243256294396,212.85642308605702L456.9757802071706,213.74792829066882ZM436.7426227856166,213.84328933094707L435.7358255860343,212.57265914928416L437.48928476369787,213.01400139759585ZM434.5109168836105,214.6033174416366L433.880614256334,212.10391065863678L434.89642999076386,212.3733270549419ZM276.04200706320097,215.27288956566235L274.0833506628103,213.9906276720303L272.8160527540261,211.9650350019865L274.69427763717766,210.1157765661494L272.45975496884233,210.57126428965398L270.8031969068729,210.07371822068967L275.3210045665877,206.56343142592232L274.78643986833674,205.21589731515428L276.7220573768973,203.93902418779612L278.9319470161286,203.67131968943704L278.2156291604565,204.90820355803498L282.11743557187003,206.3595102873469L282.3191191422826,208.61505073402623L278.9049254468658,210.71792856437514L279.65819749260504,211.88129575489916L277.9998937092253,212.4579837886913L278.2111795856666,213.74868770194985ZM435.53206688688306,211.45068793026576L434.56880071609004,211.3783325610068L434.9061400484926,208.65616069629846L436.60961141220383,210.5290174410968ZM282.96865959822924,170.43689659778374L282.7699572042228,166.91157296295842L285.9393175665429,167.71354742357858ZM290.8388870211357,173.8187489463885L289.39428855991997,170.05063465965304L285.45302702872516,167.5187112497922L283.0656078175381,166.4918336980777L285.00340392839394,162.7213498569538L288.19432181167844,163.2309474135593L289.69569093707685,165.55828160810415L290.4095905680841,168.4835678094803L290.25031240077203,171.0311348793723ZM289.8806419843375,165.8204873420741L288.01114904478874,162.9682526353331L286.2071111598983,161.81994797852303L286.4860527300879,160.48182569762957L288.79795016657613,158.97734250034L291.39125632268747,158.8685600626652L294.06873777863643,160.31085661668544L295.53253853444454,162.2864286582112L293.065469231667,163.8573455024466L291.6745396380585,166.08200248679145ZM304.9670083475799,155.32299841949475L303.85929844354735,154.43701962095724L306.5385776084466,153.5774399832544L306.5570386939861,155.1565578668658ZM241.9254359415232,155.59612337632416L240.5746797254365,151.0867081020183L237.70874565883398,149.54552144569197L238.35745696106147,147.98642607927331L235.9571685008278,144.9440387913187L233.93328853414178,143.15466559233369L230.4398772361934,143.53996935992313L228.41031523348576,144.70415374617983L226.12252787191142,142.8433572703609L225.79465497949204,140.37962531843118L227.59702853204152,137.45611156171753L228.26205733483744,135.02635777397063L229.3825776956384,139.17040367512072L231.55850713192618,139.32894896097218L233.52523531115924,140.88939070350511L238.35888693837092,139.41267195606952L239.9214101178214,140.0550811215678L241.1742540781535,141.82700321441666L241.0491264428036,144.54270510768424L244.0994477862756,146.26766284675455L244.55686893301484,147.71594090794088L249.14630330872967,149.13617885244867L251.6581266035315,150.6765104455817L249.61416817673705,153.15373491913033L245.90071548802885,151.5843419430314L243.1034187733436,153.53424209478976ZM401.5783082902964,26.0901467323622L400.50556923290833,24.71376075614603L402.4064282670894,24.545031740523655ZM561.1124956095124,233.81412549079982L558.6745719363698,229.81294948766003L557.1052348857727,228.34997641773998L559.8718050541169,226.18099947806945L557.7783829569292,226.1885848685406L557.3377122515809,227.56572211291746L555.9713905281625,224.92220307663774L556.7700254574909,229.17314832588727L555.8976649299689,229.9578656911774L553.0820042346157,228.96944562920817L551.991476964185,226.58491474210268L551.4294353053388,228.3794196057172L548.9771389499791,227.7041671060456L547.6800528483489,229.14284469439212L550.4521889324795,228.9120783904666L553.2984140706367,229.77124410774923L552.7958048432292,230.4074465779538L557.0806684929984,232.48924162142634L559.4300466343533,235.52669183027456L559.4172189130986,237.2641011986459L556.8367797803105,238.9405770858989L554.4158844242963,238.2657164573825L555.2057375206543,239.93628381318672L554.1784835333127,241.21204595029417L551.4592695242642,239.39903420288556L549.2648335099533,238.96265397299408L543.3573008536985,236.3192784554749L539.1008000419981,233.32847551589543L538.3603679112302,231.52953585698674L535.3514876970739,229.5153678834481L532.0694543894217,228.896804686515L532.2614112293934,227.23009008408394L530.3026391989745,228.26605126119534L522.2283553955625,225.08937342642457L521.6877576294872,225.2745362410551L517.2222886376929,223.43350731565488L518.6157025456384,222.19430336952746L519.9114622923755,220.04633001403658L518.0454548516166,216.15068178288107L519.3668427392174,214.3611709678721L518.4486083105763,212.96008464382544L516.8162471122771,217.90494665935057L512.2955657400041,221.4601604401273L506.83368463523027,221.7841851035198L500.67221363974767,220.06553413888832L502.07619189864937,217.5673300620192L500.18218324057403,214.54871108433304L499.05608788358876,215.6846662046537L500.895498529176,217.1529903440162L499.0061446052065,218.7873862741169L489.0765967917694,218.11874798619147L485.9502968364876,218.6107767467688L479.0792493749178,220.8055648225536L476.89121571105466,221.93282719632566L472.90439786591986,219.52354379241046L473.0430746822069,218.80140880845056L469.58178832019735,219.3363112790014L468.3781987623242,217.75441599558826L465.9875224627723,217.6304653638581L466.9112607588143,213.50014653699145L466.46158623990493,211.26937814344114L464.81873153424124,213.1519535924515L463.97863181039133,215.398828899833L462.1104684057369,217.3020212300696L460.4372397623829,215.9288549609082L457.97774429252087,215.12806465051517L455.97698912416666,215.75652940889017L458.7153157009758,211.38887662081015L455.0129981918374,212.65312017057568L455.6803429115071,210.78165993930656L453.2970371994743,212.70991639611657L452.524939618129,212.29243358060376L454.26528458580617,210.44470908706558L451.75115377613633,210.07460465502527L450.88055090758985,211.7522776349042L448.62982032488486,211.90002030584083L452.95494644006595,208.36638233364533L452.2844632425421,207.60894954239757L451.3355169616766,209.14883463488582L449.4938447553032,209.50727090775968L447.4922876933564,207.7935938273913L448.23019121484106,204.31580521003343L451.7410612870675,203.85051737404342L450.92118909656807,202.92989546463036L447.93978757768633,203.84028683946894L445.96524015729915,206.9122668160744L443.87659904046393,206.1393586916472L442.7363116349765,206.6165654380468L441.60738838051066,208.91874108134675L440.19924488478443,208.81513514025664L440.1043531867618,205.42214169691738L439.44090683588803,205.57151365130562L438.1269178329524,210.32433557814716L434.96613949847733,208.56632754584962L435.9192816638986,205.5975148100922L437.3056031735298,203.40955145827434L437.56801248217624,201.54700276652807L435.32835481478656,205.4295880451789L434.7730932425348,207.16886850599258L433.6041537327105,205.06614949437903L431.7836437940104,207.52404443034152L433.74960928994545,205.950620639489L432.84098424363276,208.37305218439883L432.7678468160103,210.6908044008203L431.1189205024414,211.36817955484867L429.71833269621817,213.0443273223059L429.81293650445235,214.21832610780575L431.1128234142255,212.11788766275458L432.1462507867839,211.80971224114228L432.38365068104525,213.8053692547462L433.2420815304463,212.23323351551812L434.3662750646738,214.9116111242579L433.1396569813974,216.6328701139803L431.66642141645326,215.8918416082795L430.07816737385065,217.50974454394213L430.0729722712118,218.30143534444346L431.95277727610716,216.43778460885756L433.7877843757765,217.35820720060497L435.3856906400708,215.16978105149542L436.8287161484659,218.55575452893368L434.4004534141681,220.03899702347735L434.16003816304095,222.06543939353674L435.8193814401849,222.7539518996548L434.0729865586153,224.69062166828076L433.750886764907,223.7788610943296L433.03940567688267,228.16614959751382L431.82771460933867,226.64168834434622L430.84684095620145,228.78932756586437L426.42275030420893,228.20169600041572L427.2176434027147,226.6663529405928L425.91020583399677,226.93175412538062L425.002067775847,229.37999021607584L424.1155975525273,226.2378216658692L423.15483268105635,225.4507280825037L423.513608292802,228.12450741848534L421.5349008269758,229.9337680103729L420.52295339898524,228.91418330574834L420.5209027792291,233.8141863601461L418.18287016103164,232.4527780130511L418.78966311191346,234.90217557025494L417.3845976598228,235.0180787390682L417.5392100511088,236.4415336967511L414.49040929662664,238.92052310926283L415.45498173290844,235.22367443980806L413.78485922072025,239.0004602723211L412.3959330120998,237.51442604653835L412.5788421666101,239.70558324866442L411.23345132187603,239.79408524550377L408.7652684714085,244.13124099959032L408.34549775026414,241.92929371696368L407.7596307821518,244.01790483508307L404.9184673006293,243.53566186600983L401.4130373143669,245.39973231001022L399.1051367917136,243.62244482168785L399.92542683189,240.25165376024324L402.2586175125172,238.97377477894884L404.148325344194,239.27233508395648L404.20156833831174,237.89180093414666L406.77264621483465,236.76688437427038L406.4885767179861,235.89482277454726L409.02358766876273,232.70931057589723L407.69014929558494,232.73800493521549L403.5298515949731,236.02322661314656L400.2686254740072,234.45420449499193L399.88037964826555,233.31996771931108L401.321548523395,228.27407987767447L403.93511072846286,224.66332692404217L404.16657267369243,221.73903530470488L404.94160322814434,221.27649767651883L405.15478934526027,218.07868026176516L403.61689806451886,214.7198306615926L406.8991527988957,213.28860764752812L410.0851675257317,210.19139164269563L412.8904066574555,208.11879110962172L414.124687754609,209.6199088154849L416.2032204183444,210.35313110520065L418.8759853486466,209.1140057289649L420.1138985067577,209.88748057555995L423.87152578342517,210.16717466807722L425.9136396203364,211.09320259366154L424.30989135204055,209.176187178683L422.77859794692034,209.61199602956822L419.1172893232891,208.1186095006792L415.82274070454577,205.64590527168116L417.0367134463395,204.5509831363977L418.8970812849389,201.04142633139782L423.15698955816595,198.79071777767535L421.81751174189816,198.2530136890116L419.3927956529804,198.90180058078408L417.3855427543424,200.9581327494825L416.5298211925824,203.96029568639256L412.20090551598037,204.0806051559739L410.12554295688614,202.89316847116584L409.7145251253878,204.0717419633827L407.35464407096845,205.34187456651398L405.8532191651559,207.97661912597823L402.75443462177424,209.08075382989819L399.877874079935,212.07671687866105L400.8485605188348,214.6006732250312L399.43788353642026,214.22702851098825L397.10993288383594,217.45421728032943L395.1676226314572,219.20031553513695L395.98110901741546,221.37781324786647L392.91955648920776,224.8073255387087L389.2768204036826,224.44466303879062L391.7986438397556,225.92453150014694L392.8875709782168,228.15293792692592L391.6520094433799,230.86041648151127L390.65120026854567,231.59435575312364L386.63025433721083,231.93792601498808L386.08138065434304,232.98525089559735L388.5644464203842,232.50132438547598L388.28865352162865,235.2922515149735L386.753493812868,236.43747988193536L385.2616674000396,235.28614529536776L384.3303148787815,233.28582567249873L384.3175354194432,236.0411063057038L383.0970529789871,238.0898568209218L381.04827182357303,238.46739100346736L381.7277129928332,240.30509677327336L378.0011820249348,242.1603774391865L377.24263388591675,246.48010650312608L377.4164787055357,248.58328582483045L378.42299042511974,247.48106265403067L382.0437451525014,247.44300696472533L383.5613810622087,249.2006995562865L385.730208699966,250.4020034153084L385.9958498490354,251.70294790999742L386.53679237920784,251.67606536647213L385.7431926686485,251.69501953738222L384.6486770994579,254.56457625058624L382.41156308799503,256.4506776697451L380.086299253275,256.59496756990575L379.43347753456976,258.9186346805229L378.15701774492345,258.960215258523L379.14201175086635,260.8001335560232L375.43703866196324,262.93461293598193L377.5295449236462,262.3119085225612L377.52594041914676,263.93037962149583L375.15968310662726,266.5482572676117L372.76698653496703,266.0365349868887L373.1930557147283,267.931884980655L368.4998389588556,267.8756465112083L367.6718465662211,271.0045312721518L366.08019756787206,270.73464203693095L365.701284332038,273.0497593033356L364.60463280116267,273.83678502913347L362.2154866737154,272.4059414525443L362.45380373976894,274.88130419546496L361.286571717918,275.24111201731887L360.9408602648143,277.0290808074707L357.7293059479867,276.65398647294194L357.8421447495875,279.0955270766125L356.69811003595015,278.4291422567144L354.52201218487755,279.4172245401925L352.1640831325796,282.02078241958964L354.1920116926901,281.2867343021976L354.15511242758225,284.4484743672151L351.3408515481086,286.61270468366274L352.01909707097667,287.76342737058405L349.9359468010209,287.48067805381163L349.252866940763,289.2280288699494L348.37852304388554,288.265763780269L346.16415871026993,290.78282869301756L345.1687679757008,289.9895947795137L344.89301976216615,291.7420033028578L343.1131956005391,289.8038592913125L342.0456230122685,290.47406297754003L341.16470761656007,293.3497771935355L341.95708662322556,294.3691299171096L339.63676843545926,294.5595390558202L339.0573428714426,293.2235797730616L337.2198705200962,293.7379405170701L334.77964986938053,295.840317205682L337.78066695767507,295.34778237316516L337.5660035705167,297.0488581831511L334.6570736615515,295.94835208114034L334.65838632233687,297.1681639026609L332.5299774513993,296.5802761382221L328.8831232327723,300.60359451465285L332.32831566535805,299.66932234340834L333.64140006857554,300.39516809545796L331.7012472231265,301.5208307491372L330.73470029026987,306.07202682062325L329.8968558530048,306.28881985712917L329.1391903765319,304.2075571165469L329.7304933273286,302.42916117687207L328.23922459888274,303.66087524095997L328.5404493882853,306.05854601803117L326.1088095274032,305.52674658846126L324.3819191506189,307.6278671927555L323.69027813606175,306.9020878475304L320.608689312253,307.5854316202144L319.84318459209874,309.2488142623513L319.5440913789387,307.13034632804147L318.4506303648148,307.502607149877L318.85416100792,309.75664778156056L317.9107763740985,312.05586020890553L316.3339877481555,311.50077581778396L317.6086261922013,308.6103753907056L315.4515033510603,307.5714997400821L313.6969364417609,308.23645348518767L312.6307350957165,310.40340505842755L308.72226486326394,311.92095432922963L306.9442670072543,314.2436716026647L306.3199167327939,312.11682577468025L305.4944764615944,314.3940505643652L304.17508193960623,314.4285638420972L303.418837727397,312.87518545885916L301.82255933280294,314.41546113423897L299.0020264410789,315.74608047083325L296.0501955595872,315.30108665524824L296.56666745494863,312.85948841728055L298.1388457580113,311.27420295119737L297.6246009974426,310.1829133446753L295.71389533346195,310.2088352389675L294.03760960169143,312.3049616628223L294.1763641810767,314.19960251975647L291.6292695753858,317.4455345240726L289.954423048553,317.0011493342266L290.39608070121534,319.6722720616798L289.2441994259532,320.1869606253531L288.12600200695033,318.45547617982334L287.82242640213775,320.2549323629311L285.28886931782176,320.4751890281208L284.22076688035014,318.7221145101156L284.6459780618692,316.05104023593174L282.44085479602376,315.68927276641136L283.41164379958104,317.4971384389977L282.50717139610936,320.70738198612935L280.9303949547162,321.90458616679064L279.427476536022,321.31205347507034L278.743256906523,318.59706992865654L276.80543969684055,317.4094672596618L276.2770614395854,319.16587341062495L278.2252856587318,321.2014704840693L274.2206868056378,323.3827805144615L275.3072100203731,320.299229387085L275.41146450200205,318.12379765867604L276.85555400024816,316.7605152690818L280.6234025613744,316.9378531732351L280.6504120239051,315.23913296748697L282.1419295751109,314.9097223571282L283.4603584386143,313.43437452805915L284.98301544346634,313.74856367135874L284.75229763469235,311.816305393L288.60536703458195,307.84675398734566L293.90406691025197,304.6562188512263L299.37536595498807,303.69883055167793L301.99679060939746,304.5749378587725L304.25789420905573,303.6531864845698L304.31498130265254,304.9983320350656L302.3731462324823,305.47996252007295L304.6409232689884,309.1119633170945L304.9481747725425,306.1180016195507L308.0118959003288,306.6260709414105L308.5151268447653,308.34017092102863L310.51710883781277,308.89046597012145L311.0002492641678,307.5351072733847L308.03145645286287,305.22636252104803L307.6081012921413,303.9408058259851L310.63318880806446,298.59656413556013L316.5506027177024,294.18742622877835L322.1224561541697,292.1813413533872L327.0171673080216,288.4526966210208L327.00402043572547,288.6306854401639L326.9058090943577,289.96031885279274L329.78441730238296,291.01940631883497L329.3234769293507,286.6826242394625L333.7037453793518,280.91770625155857L335.92969818043866,279.77520726259706L337.9144644179476,277.4858913347613L340.22381218674155,275.8620555328831L341.83843697942825,277.9178793417333L341.55472212104684,274.8308318306325L340.57194872546495,274.99773943195646L340.5806010488418,272.83075596719266L342.2303302893655,265.10276006247136L344.121801888097,264.2027230536637L342.76459141581796,262.0162987397707L343.666717294197,258.1277711638231L345.97650504974064,255.71930785092718L348.29152106876643,253.63001029382372L349.05316843200285,250.40240792560326L348.6810106910012,249.0700617804166L347.26233602659124,250.8772059666503L343.2605503233881,252.74836589151573L337.13001424226553,255.12000468844099L335.43660629856635,254.2852528775577L335.1707765473284,252.79307874232063L333.0678135309088,251.17658140166282L333.7138685515097,250.19871781315692L334.06183255173636,246.6712786000005L332.7136592377035,248.981224596969L331.20061461429407,249.43268834115497L330.7427640135095,252.26650129810014L327.93271708799733,250.0858455063178L329.61683293989495,251.78360027934923L330.751260269788,255.6817500306854L331.3390609637418,257.16739427086304L330.23946368854257,258.721971460913L327.6656800849341,258.3411057000003L324.7160302931679,251.33943296788152L322.2893450208597,249.56537633405424L323.02414120326523,248.58318448164005L321.3884049407484,247.84176216833953L320.75633616869936,250.10823317971995L319.5874081018773,250.60648693039616L318.30316958739996,248.36885861323003L316.37676407815286,248.06317576289734L316.51978943878936,246.16534881143411L315.39264653391524,244.74824499832516L310.3742739692067,247.94484224703L308.37945072865784,248.28520953871384L307.98363198073247,248.59187238042L305.14012552669783,249.98453726068624L304.46472587442264,251.46412711233893L300.51091149290716,253.0848483119671L301.09224052698056,251.87234094973792L297.56692998643587,251.36665650943087L296.5909579709096,250.67480768407427L300.0511940697063,250.46918634283907L301.1721902980116,248.07154930391084L301.19233400004833,245.12064704082832L303.8476655840095,242.475731347914L301.3062180078308,242.01109439399124L300.32757243540914,242.65710310905138L299.42558809401896,239.67853973700585L300.53383110131267,236.74110839517311L303.166627669453,234.71295813412416L301.9630382423906,231.94536249525277L301.3703473466524,228.61245329022177L300.3249889488135,226.75875495004152L299.43558333699673,222.57996127837646L300.07386281466233,221.38764917117237L297.794246308166,218.15371294876923L299.29643335743856,217.00889806683813L300.7400162357061,213.22588515676375L300.4142989543116,212.5175771514423L298.47409336504137,216.09904008174294L296.7029165460914,217.70537388337834L296.6872088267039,219.70757177852556L297.61803130418446,220.34699062567938L296.6173181523456,224.04599456853293L294.1126770357479,223.83509059351468L293.91333141835923,224.80579888991815L289.41327885101913,226.2198366137875L285.9036549981889,226.4958349323581L282.33716187397073,225.91543081354644L280.79172133801234,225.11681939959112L280.0674787520019,222.6962908882133L281.0382834643798,222.3566038649078L278.79940769489116,219.97549048638848L276.7735181983801,215.2959536879273L278.1290571642262,212.52134514626573L279.62859787539855,212.0682597653422L278.9437663004914,210.69218588479157L280.52014333549596,210.60133881091383L281.6885147197153,209.1130666429549L283.0940862545692,208.96865630039338L285.3055439657345,206.90093436416691L286.52071582344325,208.22016043416943L285.8046614035212,210.25071488074082L286.7898658600112,211.31077013963522L289.8845167009651,208.78394409526982L288.8385008342208,206.96555585767578L285.43715028299937,205.57016949274043L286.75926513121567,204.99179390132804L288.01480430857254,205.78291801842556L289.2685824124464,205.17896296655067L287.00772510536774,204.24199038595725L285.28021017112235,205.4720654064879L285.36046949484603,201.7724541954567L283.5319630071551,203.4395291132148L284.0264790696778,204.90924116647852L279.70672764796825,204.83970894933077L278.8687132108498,203.00064184982534L277.2144687150903,203.45529506745675L276.96698825519354,202.4553427051619L274.3474077317281,202.5078046228141L273.97698369684895,201.25029786785672L276.355620646139,200.76574831471135L278.2805757944712,199.46363007399304L276.21237302634006,199.16403428516105L275.87770583230594,200.1422162943379L273.40127570566557,197.41771194694002L272.77439030726623,199.0702239728862L271.0793914452057,198.5827272649085L270.7536146694223,195.78113110494928L271.3347795213961,194.8053576204752L269.0222522023718,193.65573214598567L269.0703791046697,191.69838288129995L270.66797030285875,190.72508174416066L269.3863273678585,189.0201644088786L267.73573249774614,189.17830860429558L267.6044738511144,187.14418097211114L270.9538338879139,186.86701169014054L269.09739337007386,185.61203731458022L268.5952743682406,183.9593924792698L273.1819719686392,183.9531864341791L272.3698172612089,181.75910936649598L273.5465131340617,178.13560519796238L278.4050078639336,172.9332736472179L280.4687719466051,171.36435693295925L282.25432589823504,171.8103893617381L285.7288220743829,168.6268743552423L288.3124268219866,169.50131565783204L290.96118906666015,174.527663546776L290.40890947535024,171.05510693389874L290.80369291204613,169.2976194289472L289.6043294851686,167.20232144714214L289.85676708276196,165.97624776146267L292.5979520867044,165.71010192785616L293.14714932203145,163.95440340676964L295.6707880097945,162.43372208135884L296.9534407278097,164.18724860454472L299.6388737671704,163.946045077176L301.78338405811076,161.51247071048033L304.14688798974026,160.42592138763553L306.5858755299403,157.16037238797117L307.16978659350343,155.5196967460172L309.633127373224,156.9240373722905L308.2923446216589,157.86020947403358L312.1545433157572,157.64676257539736L313.7738437912005,158.04464229191922L317.13534951868144,157.44542175809966L320.9203495963155,152.59735363948562L320.96219967131526,150.97693964523387L320.01605878580483,147.00719657494074L320.09346508839656,143.35504699101875L317.9920770528606,140.21754240671976L315.9831594445724,139.68725397552953L317.3857953226991,137.19656166225946L319.7204313068971,138.274334610428L322.3994028421582,136.0673824650421L322.6525464210939,134.18611003277874L321.88584663623095,132.03116047702179L320.31806385932475,130.73765388782726L321.1922306787262,129.81934581915903L319.85850867700833,129.73954208663326L317.9734913983613,132.4630325123028L316.4088258790151,133.02492570353934L315.3403832871386,132.13172633071076L313.38585335888087,133.41046566367322L311.07369495971295,133.59387216279424L310.45604867970485,134.67912756260898L307.6720945437732,136.10114452243738L306.4246701798898,138.91018777313775L305.0543718967397,139.80827637153584L305.0168805952754,136.4389446606533L302.56174489272485,133.1089014823458L301.05172285406786,134.1564150298177L302.7421163375317,135.95993521961668L302.63753147500984,137.8190868109839L298.9720083740643,134.27069268819264L292.6530392385726,133.45184800306833L289.89121195396706,134.33810742744117L289.7738393463227,133.74547551458022L286.8017238822926,134.9130660042474L284.3614135083102,133.4348216883959L277.5882826556715,130.47551731989302L276.0801003337644,128.75306716403838L276.002660821701,125.7939895750551L277.08461897828573,124.23918414171635L275.00391646185983,121.85743415776437L274.3306475690806,119.13317186700328L276.49869783707277,119.40364796109225L278.64829784608276,117.06178851664686L281.1127063834381,118.0843925767706L282.36636366893333,121.38845693072221L283.6271075657161,122.22019561961906L285.8011703551116,120.92149647399128L284.84949249085827,119.87272682746993L282.51153166828516,119.25421764439147L281.9143356041564,119.91251037096777L281.0998726201918,117.66683136657389L279.12188152571827,116.12806334542643L275.2121599317402,114.17335687706509L270.8785715669153,112.78244764438614L268.7166228618321,110.30364577767705L266.2330387660436,108.3102880413669L268.97246041515376,106.27285492603642L270.61394398538323,106.59482559911748L270.951917767658,104.96629593515627L273.84131207992164,103.44494570924303L274.4184244120938,104.78826759902154L277.0953734597173,103.51811681575236L279.2549669923508,101.08406414112005L283.0138030490966,99.86070177570946L284.24119966809803,101.34157060011216L287.5316907345695,101.827747881096L288.5415124090865,101.16704344325808L285.93064520776636,99.18476545785165L287.16973437257684,97.71975402983503L289.89443898580873,96.53520414825039L293.37160368729184,96.87388257732005L296.05013000631914,94.75420433274758L298.4505683978274,94.43042406757195L302.43232945594576,94.80056834120205L303.30679136291764,95.75417472702088L301.9069658093242,98.87139910578367L301.9883913131647,100.99604688792783L301.0351485255776,102.0153718900342L301.98172954982635,105.09428636293569L303.99933992510125,105.06135654275272L307.1278186809641,105.90341454517375L309.9272392521195,105.79657201566738L312.74274793092764,107.33147905047531L314.7024775637082,106.5755251309397L316.21128590135515,107.61192653984654L316.4661433685198,109.08491714806883L319.66184860753486,104.01744106696083L324.11276340096845,104.68514038755961L323.1934293445037,102.65387124176709L320.23147582008886,101.01220511259544L317.2088148592302,101.42725964720648L317.70724202311703,98.43664200941816L315.7028530573192,94.58586134061011L313.432363301843,93.4993532637925L312.85181332745844,91.29888284538833L314.0793556941958,89.55420100269953L315.3139518804534,89.66930576531013L317.2760161992909,93.1598601119706L316.574669243863,95.70268668653262L317.5821364755888,97.83284744317893L319.93311461050735,100.15822130032802L323.23696557536994,98.59338170066098L325.8770677952182,102.17984881293046L330.1388252305039,102.2532876607811L330.63685573196017,99.65689702839722L329.7120255725055,97.87019834422358L327.3694153432045,98.02806182129007L326.25239742949503,96.61333172106674L323.75889746727097,96.62330575976966L322.25623528204216,98.81168963437449L320.82179130905524,98.54632511027853L318.19836711986,94.5530073244422L319.20682521607534,91.45762019210952L320.50012865002515,90.12810490522315L321.82349168460695,90.18500299177936L319.4862898698225,88.15137855970215L314.3646786140315,88.84433204860375L312.4455407082221,87.20639423204943L310.83591769801507,87.44311230418953L305.47295046950427,85.2331654820739L304.88088423485186,79.02567270627878L303.79508504485875,75.39689443818793L301.0295287211896,72.44700799570819L295.8729632139547,65.56072377077794L291.8464088147124,62.619560763681875L289.9230534418872,59.32809484694553L286.64381481962585,57.44284243918605L290.1797642256924,57.25355647046422L292.5404594452086,50.23646773394307L292.5720335628248,48.387889927947526L298.6989096132999,49.802634684772784L306.26687186179026,49.672108844888726L308.6978796432589,48.92525206351911L312.2214028086272,46.39196563742735L315.31009805577594,42.5066542876159L316.8188918576683,39.409186421797585L316.2987346150555,38.27477226558017L317.93870358611537,36.498998214936364L317.1985595004212,35.721601227056226L321.6811103492256,31.366233949511525L321.9510215303035,30.217037748145913L324.1593032445392,28.39876874619472L326.50395351592726,25.688217833748695L327.7356732528104,27.168688277217143L326.2226529484319,27.032294680516088L326.28614988123013,28.54233612086341L324.7886096042839,28.434583569428014L326.2113992772827,28.761473179476752L327.95588545832,27.152713837637293L329.3310574971924,27.43334381986233L334.1023172147182,25.317014785208357L338.61108107382324,21.32757793399128L340.0525501079561,21.72644893939082L339.86663013443496,23.8131625336664L338.1861628044006,26.70507368714243L339.86225226238327,25.75226108336824L340.51632331960184,23.777755960013565L340.0545047209947,21.170101438457777L338.75938035623,21.011402524614596L342.04481582750634,17.924912165764454L345.3772730582098,16.952130738446158L344.05442795077755,17.885894600861093L346.3187115375453,18.823506390355078L352.17031233901974,18.09443331626835L354.4070789977578,17.25187357588129L357.9896127624178,14.07738822729766L360.99099315148555,9.740152585404758L362.20584082310404,8.736644405498282L363.6235826549828,10.201601591411645L365.70417171596415,10.75248014202566L365.3772729192504,12.317745060738162L367.8247148853167,11.723814081978162L369.2541468403644,13.938552966189718L367.7648439414078,15.786422301958282L365.6521010004718,16.156415121935424L365.9522520980565,18.605408016858746L369.3324774570178,18.755595029622782L369.24145542316285,16.5498452279312L373.71752464218605,13.771363287890608L375.3500427830163,15.67211049685352L374.6995310935043,17.745618925483313L377.9043298718736,19.99032606186597L379.52726684716714,17.849046899790437L384.67349550915867,17.01346570276064L387.22223252428694,18.151377960800346L388.3152241848581,17.68862896750261L390.6640979325632,18.729062069499605L389.08251830988445,21.497193994202462L389.4475037782407,22.925811720446063L391.8580530456194,23.396051885470115L388.2878534531815,24.194345101238923L394.29888145394705,23.883085956502555L393.13632004775354,26.223998556409697L395.1852924929178,25.999675759018373L397.63555372587155,27.394894649462003L398.1460820735349,25.88155311072751L401.21142595125315,25.46054321041288L401.101965644153,27.585851577587846L404.97994418570033,25.67707805868099L406.43637276254486,24.065727625659974L411.12694861325076,24.191347746666906L413.3794356940208,25.783655299585007L415.7870764149334,26.136493259935378L416.01677144320433,27.159343111806947L417.66099644662086,26.37914522518804L420.69171362999,28.37648963869742L424.9013232483876,29.471947320796744L429.18035412754995,28.33731615303759L432.88184375692424,28.96129289085934L433.83602607333097,28.191431638093945L438.2316867388262,30.992234333218676L442.5344866512719,30.79656078279345L443.26966076624325,29.74438355760458L451.5360530528692,26.627616891052412L454.8483096669375,27.451084033091547L457.80445944274663,29.090621906613023L458.92560346807886,30.503224486329373L462.8371966964437,31.285657284855915L465.514148727785,33.486495248106166L466.44532107737723,32.31808051273947L467.9700122605021,32.77545335147124L472.26758097975653,54.455702320924956L482.27833347804034,104.95765370613162L497.24959546475316,180.4842382618658L502.99887504051026,209.48803569713573L503.32399853172257,211.12820917562362L508.2026338712352,211.87006743226175L508.4280495545755,210.05187727313728L513.4753326065412,211.51488654900072L515.5459617765891,207.9999121517351L521.2642799047343,206.3759742416985L521.2303576229048,211.68996396616717L523.02887421641,213.15701054981855L526.7180837624874,214.07261329753578L528.086950381122,216.52706476458388L540.2853779171933,224.12681457641656L542.5314711291228,228.77523972727613L542.666938370578,230.33518907734856L548.1991461890278,223.7774592532744L550.518742929406,223.0397620514252L550.9368802532706,221.02176092065224L549.9873792076378,217.09591638707093L551.6712935375314,216.67141930487423L551.7606899096235,214.7174921086057L550.496904283356,214.24501105648574L553.9804314721324,212.02059535923104L555.8306792856422,210.14731613650883L557.7229127950337,208.19892567683883L560.6059936542935,209.44697397899972L563.2604107287543,211.36662136713358L563.298159919638,214.13873101259674L564.3922485580672,215.47261540006662L565.4714163986102,216.49225047732034L568.1083939565392,216.3563430183899L568.5988452433028,217.37291933557003L570.824386577576,217.94381409533207L573.1730577447473,220.61458355208833L574.4956135880495,222.35400442213268L579.2970631476204,223.56314403236115L581.2992156602634,225.33594508895953L585.5388740187439,227.7263171948448L584.9565625033623,228.78457393784652L589.1964755881172,232.25569646449753L591.1369913868348,234.7629169969041L594.0526272178848,237.11363062785927L599.2855885950602,242.44972810150125L602.0912682381827,244.5427596676784L604.1369808639272,246.69949390268084L603.7042869651732,249.3185048843509L607.2302237878068,249.07197425989284L607.486731959925,252.52436986479756L610.4823955647289,252.8928636518583L612.167546855288,256.5859713058751L614.6627268984329,255.4487722020499L621.22206775878,257.43934382524867L624.3789046967529,257.0661868036368L626.6512838359226,258.3128457520654L628.3775270369143,258.1685577093374L629.4672404734611,259.879485856987L631.6008066865959,260.0257434009925L632.9168614145015,258.98333350523217L634.7313970744275,260.6982375921209L635.4247910513873,262.5329448185264L634.816614362369,265.70920916754017L636.3061353562291,268.89069499724474L639.9999999999998,273.8497188973404L639.3111053149364,275.9801141234499L639.0066190906914,280.6480693879374L637.140649306856,285.11569462709224L635.6799251567634,286.17593286542444L634.4389366024036,285.0122232727898L634.5105268482915,286.62461108348487L633.2498765399561,286.34670278029523L632.298513875849,284.0732980071708L629.009507904239,279.6794591739224L630.4537141939305,276.7510744086444L627.4890054668724,269.5075032403547L622.2901514247408,265.25919970869904L620.8270701416099,266.74811254666133L620.2679517327381,265.98914295755526L617.6016686535536,269.62577284792474L616.1198180588241,270.2617499882532L617.8504053568678,270.93830337442216L617.7743605084625,277.355293647846L614.9706392390817,276.498401494179L613.2476398434709,274.00562646613184L613.63746210511,273.8067035194812L614.15520708182,269.13024580051615L614.9210625021279,268.5895485766646L613.5623614405924,264.8859255027876L615.3780368387095,263.5912619996784L613.3990938024308,263.57723627868063L611.9883427271961,261.74373929014587L610.8377443163823,261.8498731628731L607.2608204174592,259.60767264230276L607.4821603663529,256.78447380409966L605.4582977195137,257.39090706044453L604.6367376904125,256.1498868463982L601.2311431089722,255.3708452191063L598.4773243213561,253.10575301978997L600.100026210268,252.31692212423354L595.4547718286483,252.04804160727213L595.0186143823615,250.456338687683L594.0944421539253,252.15635563912997L591.6540928609414,251.49345795885233L591.309006914589,249.16745285779098L594.6362895306299,247.80912759898706L591.5989975125449,248.09343075298898L591.6477037748214,246.7653384746959L589.7741664974897,245.96375221410426L589.9476225657716,243.54878123301L588.7487342074577,244.4711223344857L587.4692635259237,243.65332129191643L587.78844380948,241.44737583571418L592.6770680782296,242.86832946421828L589.3154306392734,240.96047680912852L587.5594835667684,240.72642961599286L586.9242129496575,238.48092147591592L587.1089216009816,237.8378295896896L587.2732549521727,237.49877795205725L586.6152966970876,239.47176671297711L586.2173714089508,240.55625350142554L585.8956465566093,240.52552220509278L583.7778467058745,238.11809477131828L580.8048090569719,236.0281144124133L579.6618413061767,232.70756519633392L580.4439905598833,231.63966918255687L579.5473996432632,230.2343646137408L578.8316849864914,232.38093056357025L579.5901708590171,233.34573140267207L578.6817953401656,234.51615693380631L574.8672883939566,232.5685808402336L572.6964449442976,232.84730502918137L571.4958427579729,230.7374868593256L568.9977662797293,228.06819799653772L567.2874477880272,222.27050992251407L567.1810081769518,222.2909393649361L568.0467800594973,224.58942003345965L567.881643253501,226.97222901664645L565.9506523189733,225.0071888919765L565.0643929469408,222.86735639766312L561.3825133200852,216.4578951879821L561.0109397918657,216.32421846429133L561.077499796918,219.0072063735788L559.8810534655804,218.84616155163212L562.3691561744387,221.04276224208866L562.9204996211975,223.6081854894935L565.4629525262508,226.69276436608266L566.6256445969126,229.2668106629592L569.6426600985658,234.26591279020704L569.911047296898,236.48705779172246L568.091578562704,237.0713743865615L566.5120808725701,235.70052316468173L564.542594652934,232.6790623589436L565.1283771543941,234.99308505637987L563.6271004664119,234.3935037681499L561.0598259642626,236.06623308764597Z" fill="lightgray" stroke="white"></path></g><g class="mark-group role-title"><g transform="translate(320,-17)"><path class="background" aria-hidden="true" d="M0,0h0v0h0Z" pointer-events="none"></path><g><g class="mark-text role-title-text" role="graphics-symbol" aria-roledescription="title" aria-label="Title text 'Map of Alaska'" pointer-events="none"><text text-anchor="middle" transform="translate(0,10)" font-family="sans-serif" font-size="13px" font-weight="bold" fill="#000" opacity="1">Map of Alaska</text></g></g><path class="foreground" aria-hidden="true" d="" pointer-events="none" display="none"></path></g></g></g><path class="foreground" aria-hidden="true" d="" display="none"></path></g></g></g></svg>
