<?xml version="1.0" encoding="utf-8"?>
<!DOCTYPE svg PUBLIC "-//W3C//DTD SVG 1.1//EN" "http://www.w3.org/Graphics/SVG/1.1/DTD/svg11.dtd">
<svg class="marks" width="650" height="389" viewBox="0 0 650 389" version="1.1" xmlns="http://www.w3.org/2000/svg" xmlns:xlink="http://www.w3.org/1999/xlink"><rect width="650" height="389" fill="white"></rect><g fill="none" stroke-miterlimit="10" transform="translate(5,23)"><g class="mark-group role-frame root" role="graphics-object" aria-roledescription="group mark container"><g transform="translate(0,0)"><path class="background" aria-hidden="true" d="M0.5,0.5h640v360h-640Z" stroke="#ddd"></path><g><g class="mark-shape role-mark layer_0_marks" role="graphics-symbol" aria-roledescription="shape mark container"><path transform="translate(0,0)" d="M291.4431494780176,323.3721358059234L303.0925813337326,309.65879194273504L312.9788559356096,300.0191561678918L318.8350568144284,295.9907137200342L326.2025353393941,290.5650806499218L326.3914450451625,282.75627038889365L322.0150368615291,277.14797616311085L317.67011362885694,279.01985114326436L319.3703009807722,273.4295820002289L320.56672911730504,267.719208131016L320.56672911730504,262.4408508750424L317.4182340211658,260.70801759121525L314.1437991211811,262.2625968960409L310.9008491721578,261.8413717791039L309.8618457904318,258.153669849865L309.04323706543556,249.4463459145172L307.4060196154432,246.61026893836782L301.518333785663,244.05182915636428L297.92904937606426,245.90620496736972L288.70395874437645,244.09975457010452L289.2706878616815,231.3474866194549L286.6889218828475,226.1496512338481L289.42811261648853,224.22692936282132L288.57801894053085,218.92878395152533L291.002360164558,214.8695507236556L292.5451227616663,207.60828508245726L290.46711599821447,201.90050194290754L285.7128884030442,199.32524623693485L284.7683398742026,195.7171819640388L286.05922286361954,190.43480027259486L269.2777440011978,190.06469925688225L265.908854248329,179.48682424683005L268.45913527620155,179.33351453393124L268.3646804233175,175.42819663862585L266.6330081204409,172.79837411459698L266.25518870890403,167.57938596989402L261.18611160412,164.91388212501334L255.6762451858766,165.00521572964746L252.05547582531642,162.38851315033958L246.13630504457478,160.61033219251593L242.70444538978313,157.27056625571464L232.91262564079022,155.78442592321798L223.40417045045,147.7783695966093L224.12832432256198,141.80202606876873L223.05783598987466,138.3823107751245L223.97089956775505,131.72069090643373L212.54186236876978,133.22309013176158L207.91357457744527,136.56121487896814L200.262731493827,140.15941901678153L198.3106645342208,142.85744722972132L193.8083165467417,143.0535006527533L187.32241664869503,142.29952912943622L182.37927934775655,143.83786151026808L178.41217552662124,142.81220621431547L178.97890464392617,129.3034261579545L171.8003358247289,134.53080925760395L164.08652283918786,134.3052980703858L160.78060298824164,129.57358291923958L154.98737201134566,129.06330697456877L156.84498411806783,125.25391098079538L151.964816719052,119.87745692930153L148.34404735849205,111.92545368061296L150.6424487786736,110.31321679283995L150.6424487786736,106.58370059548999L155.93192054018743,104.0346482133132L155.05034191326843,99.28334570115776L157.28577343152722,96.21767045134358L157.91547245075515,92.12804474277826L167.92768685647764,86.15519710407952L175.07477072471352,84.46247854110005L176.2397139102851,83.14127614945431L184.14243660159445,83.55690705729293L188.07805547176838,59.5429499023955L188.2669651775368,55.75242228535504L186.91311228619702,50.73376336706643L183.04046331794575,47.55111969120848L183.07194826890702,41.18590039963263L187.98360061888422,39.7499562286779L189.74675787272213,40.65297783895087L190.0301224313747,37.30724790894628L184.9295603756293,36.404137268945924L184.80362057178365,30.925484012233216L201.8369790418966,31.118003798680874L204.7335945303447,28.11146592520281L207.15793575437192,30.881056055849307L208.88960805724832,36.048806733390904L210.5268255072408,34.96797840940544L215.34402300433374,39.58711421633325L222.14477241199427,39.024563822461054L223.84495976390951,36.34491585036408L230.3308596619562,34.3016892934916L233.95162902251616,32.86539464574832L234.95914745328082,29.163081027093565L241.1931677436363,26.6746246316036L240.72089347921542,24.837605783655558L233.32193000328846,24.081976890545185L232.0940169157941,18.568719700484124L232.47183632733083,12.69611471064026L228.5362174571568,10.425976545526176L230.17343490714916,9.60973844517973L236.65933480519584,10.737606169063135L243.61750896766353,12.933474650714253L246.13630504457478,10.856318635591599L252.43329523685327,9.49100494029802L262.19363003488456,6.210160897116431L265.4050950329465,2.8681878023175074L264.24015184737516,0.3864734049366021L268.8054697367769,2.1316282072803006e-14L270.820506598306,2.0212570466718702L269.6870483636959,5.868620354619466L272.70960365598955,7.204978989510586L274.69315556655727,11.271796836864198L272.26881434253005,14.37231296435451L270.88347650022865,21.81478543403417L273.1189080184877,26.24502333363204L273.7486070377154,30.303481735137098L279.13253365211347,34.40533558711301L283.44597193382407,34.834722173829896L284.3905204626659,33.11712380865417L287.16119614726824,32.74693272666797L291.12829996840367,31.20685834592117L293.961945554929,28.881670325772767L298.81062800298326,29.622213496483877L300.9201197173965,29.311189793977704L305.6743473125667,30.022091903747018L306.4614710866015,28.244773493000125L305.0131633423774,26.49686031077708L305.8947419692964,23.963442407212117L309.42105647697235,24.74871078764542L313.5455850529147,23.844906695597153L318.5516922557759,25.6968902966834L322.3613713221043,27.50415980276161L325.06907710478407,25.133917661941688L327.0211440643903,25.504297303155326L328.2175722009232,27.96334492675486L332.40507067878826,27.3412194485644L335.77396043165714,24.022709801998445L338.4501812633755,17.560581831640828L343.6137132210439,9.550371947591877L346.604783562376,9.134792145797334L348.777245178712,13.986670940556515L353.65741257772777,29.29637898280358L358.3486702709752,30.732962011933616L358.56906492770497,36.774268154456536L352.0201951277353,43.98366986169165L354.7279009104151,46.618549215708285L370.1870118324585,47.9803998584354L370.50186134207223,56.75921744020677L377.14518599492595,51.01502769722502L388.1334338804517,54.15347455110666L402.67948122461473,59.49852556963007L406.9299496044027,64.62292438236905L405.51312681113995,69.46771343357328L415.68276597166954,66.77098294545914L432.6846394908212,71.40918393871905L445.7508941397986,71.06828823488821L458.6912089849308,78.31878418998471L469.86836657622484,88.14547110001027L476.6061460819626,90.67140615017954L484.06807945981245,91.02809863566706L487.2480595069131,93.79325210572195L490.20764489728384,104.98850074731618L491.655952641508,110.32814184684699L488.1926080357547,124.93916724564816L483.7217449992372,130.71451136042657L471.4111291733331,143.08366402049518L465.83829285316665,153.1783877375363L459.35239295512,160.95977639016672L457.1799313387838,161.12692130313448L454.7241051637955,167.74704401305866L455.35380418302327,184.69134908294205L452.9294629589961,198.7362844261344L451.9849144301542,204.79078215628576L449.2142387455519,208.41864444086144L447.6714761484437,220.78177784866884L438.79271997733116,232.94698876994283L437.3129272821457,242.6467816231935L430.2288133158326,246.73832097095132L428.18229150334207,252.4333092889354L418.6738363130017,252.40115458041265L404.9149127428736,256.05589141944256L398.77534730540225,260.3034994398665L388.98352755640923,263.10547971232575L378.6879485920342,270.7504558131149L371.2889851161072,280.35171414958995L369.9981021266902,287.630397469943L371.4464098709141,293.04156418010496L369.84067737188303,303.02105736098326L367.8571254613153,307.88573850179614L361.717560023844,313.383627264595L352.0201951277353,331.17999957786105L344.3378670931557,339.2947512708207L338.3872113614528,344.1304188371699L334.388622589356,354.0189336836163L328.62687656342126,359.99999999999994L326.2025353393941,354.07200465530946L330.043699356684,349.13187285171557L325.0061072028612,342.0848972334905L318.1423878932779,336.3912354182353L309.13769191831983,329.8341357307012L305.8947419692964,330.1445549370686L297.11044065106813,322.2935190581142Z" fill="lightgray" stroke="white"></path></g><g class="mark-group role-title"><g transform="translate(320,-17.99999999999998)"><path class="background" aria-hidden="true" d="M0,0h0v0h0Z" pointer-events="none"></path><g><g class="mark-text role-title-text" role="graphics-symbol" aria-roledescription="title" aria-label="Title text 'Mapa do Brasil'" pointer-events="none"><text text-anchor="middle" transform="translate(0,10)" font-family="sans-serif" font-size="13px" font-weight="bold" fill="#000" opacity="1">Mapa do Brasil</text></g></g><path class="foreground" aria-hidden="true" d="" pointer-events="none" display="none"></path></g></g></g><path class="foreground" aria-hidden="true" d="" display="none"></path></g></g></g></svg>
