<svg xmlns="http://www.w3.org/2000/svg" xmlns:xlink="http://www.w3.org/1999/xlink" width="600" height="400" viewBox="0 0 2400 1600">
<defs>
  <clipPath id="clip490">
    <rect x="0" y="0" width="2400" height="1600"></rect>
  </clipPath>
</defs>
<path clip-path="url(#clip490)" d="M0 1600 L2400 1600 L2400 0 L0 0  Z" fill="#ffffff" fill-rule="evenodd" fill-opacity="1"></path>
<defs>
  <clipPath id="clip491">
    <rect x="480" y="0" width="1681" height="1600"></rect>
  </clipPath>
</defs>
<path clip-path="url(#clip490)" d="M202.227 1423.18 L2352.76 1423.18 L2352.76 123.472 L202.227 123.472  Z" fill="#ffffff" fill-rule="evenodd" fill-opacity="1"></path>
<defs>
  <clipPath id="clip492">
    <rect x="202" y="123" width="2152" height="1301"></rect>
  </clipPath>
</defs>
<polyline clip-path="url(#clip492)" style="stroke:#000000; stroke-linecap:round; stroke-linejoin:round; stroke-width:2; stroke-opacity:0.1; fill:none" points="263.091,1423.18 263.091,123.472 "></polyline>
<polyline clip-path="url(#clip492)" style="stroke:#000000; stroke-linecap:round; stroke-linejoin:round; stroke-width:2; stroke-opacity:0.1; fill:none" points="465.972,1423.18 465.972,123.472 "></polyline>
<polyline clip-path="url(#clip492)" style="stroke:#000000; stroke-linecap:round; stroke-linejoin:round; stroke-width:2; stroke-opacity:0.1; fill:none" points="668.852,1423.18 668.852,123.472 "></polyline>
<polyline clip-path="url(#clip492)" style="stroke:#000000; stroke-linecap:round; stroke-linejoin:round; stroke-width:2; stroke-opacity:0.1; fill:none" points="871.732,1423.18 871.732,123.472 "></polyline>
<polyline clip-path="url(#clip492)" style="stroke:#000000; stroke-linecap:round; stroke-linejoin:round; stroke-width:2; stroke-opacity:0.1; fill:none" points="1074.61,1423.18 1074.61,123.472 "></polyline>
<polyline clip-path="url(#clip492)" style="stroke:#000000; stroke-linecap:round; stroke-linejoin:round; stroke-width:2; stroke-opacity:0.1; fill:none" points="1277.49,1423.18 1277.49,123.472 "></polyline>
<polyline clip-path="url(#clip492)" style="stroke:#000000; stroke-linecap:round; stroke-linejoin:round; stroke-width:2; stroke-opacity:0.1; fill:none" points="1480.37,1423.18 1480.37,123.472 "></polyline>
<polyline clip-path="url(#clip492)" style="stroke:#000000; stroke-linecap:round; stroke-linejoin:round; stroke-width:2; stroke-opacity:0.1; fill:none" points="1683.25,1423.18 1683.25,123.472 "></polyline>
<polyline clip-path="url(#clip492)" style="stroke:#000000; stroke-linecap:round; stroke-linejoin:round; stroke-width:2; stroke-opacity:0.1; fill:none" points="1886.13,1423.18 1886.13,123.472 "></polyline>
<polyline clip-path="url(#clip492)" style="stroke:#000000; stroke-linecap:round; stroke-linejoin:round; stroke-width:2; stroke-opacity:0.1; fill:none" points="2089.01,1423.18 2089.01,123.472 "></polyline>
<polyline clip-path="url(#clip492)" style="stroke:#000000; stroke-linecap:round; stroke-linejoin:round; stroke-width:2; stroke-opacity:0.1; fill:none" points="2291.89,1423.18 2291.89,123.472 "></polyline>
<polyline clip-path="url(#clip490)" style="stroke:#000000; stroke-linecap:round; stroke-linejoin:round; stroke-width:4; stroke-opacity:1; fill:none" points="202.227,1423.18 2352.76,1423.18 "></polyline>
<polyline clip-path="url(#clip490)" style="stroke:#000000; stroke-linecap:round; stroke-linejoin:round; stroke-width:4; stroke-opacity:1; fill:none" points="263.091,1423.18 263.091,1404.28 "></polyline>
<polyline clip-path="url(#clip490)" style="stroke:#000000; stroke-linecap:round; stroke-linejoin:round; stroke-width:4; stroke-opacity:1; fill:none" points="465.972,1423.18 465.972,1404.28 "></polyline>
<polyline clip-path="url(#clip490)" style="stroke:#000000; stroke-linecap:round; stroke-linejoin:round; stroke-width:4; stroke-opacity:1; fill:none" points="668.852,1423.18 668.852,1404.28 "></polyline>
<polyline clip-path="url(#clip490)" style="stroke:#000000; stroke-linecap:round; stroke-linejoin:round; stroke-width:4; stroke-opacity:1; fill:none" points="871.732,1423.18 871.732,1404.28 "></polyline>
<polyline clip-path="url(#clip490)" style="stroke:#000000; stroke-linecap:round; stroke-linejoin:round; stroke-width:4; stroke-opacity:1; fill:none" points="1074.61,1423.18 1074.61,1404.28 "></polyline>
<polyline clip-path="url(#clip490)" style="stroke:#000000; stroke-linecap:round; stroke-linejoin:round; stroke-width:4; stroke-opacity:1; fill:none" points="1277.49,1423.18 1277.49,1404.28 "></polyline>
<polyline clip-path="url(#clip490)" style="stroke:#000000; stroke-linecap:round; stroke-linejoin:round; stroke-width:4; stroke-opacity:1; fill:none" points="1480.37,1423.18 1480.37,1404.28 "></polyline>
<polyline clip-path="url(#clip490)" style="stroke:#000000; stroke-linecap:round; stroke-linejoin:round; stroke-width:4; stroke-opacity:1; fill:none" points="1683.25,1423.18 1683.25,1404.28 "></polyline>
<polyline clip-path="url(#clip490)" style="stroke:#000000; stroke-linecap:round; stroke-linejoin:round; stroke-width:4; stroke-opacity:1; fill:none" points="1886.13,1423.18 1886.13,1404.28 "></polyline>
<polyline clip-path="url(#clip490)" style="stroke:#000000; stroke-linecap:round; stroke-linejoin:round; stroke-width:4; stroke-opacity:1; fill:none" points="2089.01,1423.18 2089.01,1404.28 "></polyline>
<polyline clip-path="url(#clip490)" style="stroke:#000000; stroke-linecap:round; stroke-linejoin:round; stroke-width:4; stroke-opacity:1; fill:none" points="2291.89,1423.18 2291.89,1404.28 "></polyline>
<path clip-path="url(#clip490)" d="M263.091 1454.1 Q259.48 1454.1 257.652 1457.66 Q255.846 1461.2 255.846 1468.33 Q255.846 1475.44 257.652 1479.01 Q259.48 1482.55 263.091 1482.55 Q266.726 1482.55 268.531 1479.01 Q270.36 1475.44 270.36 1468.33 Q270.36 1461.2 268.531 1457.66 Q266.726 1454.1 263.091 1454.1 M263.091 1450.39 Q268.902 1450.39 271.957 1455 Q275.036 1459.58 275.036 1468.33 Q275.036 1477.06 271.957 1481.67 Q268.902 1486.25 263.091 1486.25 Q257.281 1486.25 254.203 1481.67 Q251.147 1477.06 251.147 1468.33 Q251.147 1459.58 254.203 1455 Q257.281 1450.39 263.091 1450.39 Z" fill="#000000" fill-rule="nonzero" fill-opacity="1"></path><path clip-path="url(#clip490)" d="M456.354 1481.64 L463.992 1481.64 L463.992 1455.28 L455.682 1456.95 L455.682 1452.69 L463.946 1451.02 L468.622 1451.02 L468.622 1481.64 L476.261 1481.64 L476.261 1485.58 L456.354 1485.58 L456.354 1481.64 Z" fill="#000000" fill-rule="nonzero" fill-opacity="1"></path><path clip-path="url(#clip490)" d="M663.504 1481.64 L679.824 1481.64 L679.824 1485.58 L657.879 1485.58 L657.879 1481.64 Q660.541 1478.89 665.125 1474.26 Q669.731 1469.61 670.912 1468.27 Q673.157 1465.74 674.037 1464.01 Q674.939 1462.25 674.939 1460.56 Q674.939 1457.8 672.995 1456.07 Q671.074 1454.33 667.972 1454.33 Q665.773 1454.33 663.319 1455.09 Q660.889 1455.86 658.111 1457.41 L658.111 1452.69 Q660.935 1451.55 663.389 1450.97 Q665.842 1450.39 667.879 1450.39 Q673.25 1450.39 676.444 1453.08 Q679.639 1455.77 679.639 1460.26 Q679.639 1462.39 678.828 1464.31 Q678.041 1466.2 675.935 1468.8 Q675.356 1469.47 672.254 1472.69 Q669.152 1475.88 663.504 1481.64 Z" fill="#000000" fill-rule="nonzero" fill-opacity="1"></path><path clip-path="url(#clip490)" d="M875.979 1466.95 Q879.336 1467.66 881.211 1469.93 Q883.109 1472.2 883.109 1475.53 Q883.109 1480.65 879.59 1483.45 Q876.072 1486.25 869.59 1486.25 Q867.415 1486.25 865.1 1485.81 Q862.808 1485.39 860.354 1484.54 L860.354 1480.02 Q862.299 1481.16 864.614 1481.74 Q866.928 1482.32 869.452 1482.32 Q873.85 1482.32 876.141 1480.58 Q878.456 1478.84 878.456 1475.53 Q878.456 1472.48 876.303 1470.77 Q874.174 1469.03 870.354 1469.03 L866.327 1469.03 L866.327 1465.19 L870.539 1465.19 Q873.989 1465.19 875.817 1463.82 Q877.646 1462.43 877.646 1459.84 Q877.646 1457.18 875.748 1455.77 Q873.873 1454.33 870.354 1454.33 Q868.433 1454.33 866.234 1454.75 Q864.035 1455.16 861.396 1456.04 L861.396 1451.88 Q864.058 1451.14 866.373 1450.77 Q868.711 1450.39 870.771 1450.39 Q876.095 1450.39 879.197 1452.83 Q882.299 1455.23 882.299 1459.35 Q882.299 1462.22 880.655 1464.21 Q879.012 1466.18 875.979 1466.95 Z" fill="#000000" fill-rule="nonzero" fill-opacity="1"></path><path clip-path="url(#clip490)" d="M1077.62 1455.09 L1065.82 1473.54 L1077.62 1473.54 L1077.62 1455.09 M1076.39 1451.02 L1082.27 1451.02 L1082.27 1473.54 L1087.2 1473.54 L1087.2 1477.43 L1082.27 1477.43 L1082.27 1485.58 L1077.62 1485.58 L1077.62 1477.43 L1062.02 1477.43 L1062.02 1472.92 L1076.39 1451.02 Z" fill="#000000" fill-rule="nonzero" fill-opacity="1"></path><path clip-path="url(#clip490)" d="M1267.77 1451.02 L1286.13 1451.02 L1286.13 1454.96 L1272.05 1454.96 L1272.05 1463.43 Q1273.07 1463.08 1274.09 1462.92 Q1275.11 1462.73 1276.13 1462.73 Q1281.91 1462.73 1285.29 1465.9 Q1288.67 1469.08 1288.67 1474.49 Q1288.67 1480.07 1285.2 1483.17 Q1281.73 1486.25 1275.41 1486.25 Q1273.23 1486.25 1270.96 1485.88 Q1268.72 1485.51 1266.31 1484.77 L1266.31 1480.07 Q1268.39 1481.2 1270.62 1481.76 Q1272.84 1482.32 1275.32 1482.32 Q1279.32 1482.32 1281.66 1480.21 Q1284 1478.1 1284 1474.49 Q1284 1470.88 1281.66 1468.77 Q1279.32 1466.67 1275.32 1466.67 Q1273.44 1466.67 1271.57 1467.08 Q1269.71 1467.5 1267.77 1468.38 L1267.77 1451.02 Z" fill="#000000" fill-rule="nonzero" fill-opacity="1"></path><path clip-path="url(#clip490)" d="M1480.78 1466.44 Q1477.63 1466.44 1475.78 1468.59 Q1473.95 1470.74 1473.95 1474.49 Q1473.95 1478.22 1475.78 1480.39 Q1477.63 1482.55 1480.78 1482.55 Q1483.92 1482.55 1485.75 1480.39 Q1487.61 1478.22 1487.61 1474.49 Q1487.61 1470.74 1485.75 1468.59 Q1483.92 1466.44 1480.78 1466.44 M1490.06 1451.78 L1490.06 1456.04 Q1488.3 1455.21 1486.49 1454.77 Q1484.71 1454.33 1482.95 1454.33 Q1478.32 1454.33 1475.87 1457.45 Q1473.44 1460.58 1473.09 1466.9 Q1474.46 1464.89 1476.52 1463.82 Q1478.58 1462.73 1481.05 1462.73 Q1486.26 1462.73 1489.27 1465.9 Q1492.3 1469.05 1492.3 1474.49 Q1492.3 1479.82 1489.16 1483.03 Q1486.01 1486.25 1480.78 1486.25 Q1474.78 1486.25 1471.61 1481.67 Q1468.44 1477.06 1468.44 1468.33 Q1468.44 1460.14 1472.33 1455.28 Q1476.22 1450.39 1482.77 1450.39 Q1484.53 1450.39 1486.31 1450.74 Q1488.11 1451.09 1490.06 1451.78 Z" fill="#000000" fill-rule="nonzero" fill-opacity="1"></path><path clip-path="url(#clip490)" d="M1672.14 1451.02 L1694.36 1451.02 L1694.36 1453.01 L1681.82 1485.58 L1676.93 1485.58 L1688.74 1454.96 L1672.14 1454.96 L1672.14 1451.02 Z" fill="#000000" fill-rule="nonzero" fill-opacity="1"></path><path clip-path="url(#clip490)" d="M1886.13 1469.17 Q1882.8 1469.17 1880.88 1470.95 Q1878.98 1472.73 1878.98 1475.86 Q1878.98 1478.98 1880.88 1480.77 Q1882.8 1482.55 1886.13 1482.55 Q1889.47 1482.55 1891.39 1480.77 Q1893.31 1478.96 1893.31 1475.86 Q1893.31 1472.73 1891.39 1470.95 Q1889.49 1469.17 1886.13 1469.17 M1881.46 1467.18 Q1878.45 1466.44 1876.76 1464.38 Q1875.09 1462.32 1875.09 1459.35 Q1875.09 1455.21 1878.03 1452.8 Q1880.99 1450.39 1886.13 1450.39 Q1891.29 1450.39 1894.23 1452.8 Q1897.17 1455.21 1897.17 1459.35 Q1897.17 1462.32 1895.48 1464.38 Q1893.82 1466.44 1890.83 1467.18 Q1894.21 1467.96 1896.09 1470.26 Q1897.98 1472.55 1897.98 1475.86 Q1897.98 1480.88 1894.9 1483.57 Q1891.85 1486.25 1886.13 1486.25 Q1880.41 1486.25 1877.34 1483.57 Q1874.28 1480.88 1874.28 1475.86 Q1874.28 1472.55 1876.18 1470.26 Q1878.08 1467.96 1881.46 1467.18 M1879.74 1459.79 Q1879.74 1462.48 1881.41 1463.98 Q1883.1 1465.49 1886.13 1465.49 Q1889.14 1465.49 1890.83 1463.98 Q1892.54 1462.48 1892.54 1459.79 Q1892.54 1457.11 1890.83 1455.6 Q1889.14 1454.1 1886.13 1454.1 Q1883.1 1454.1 1881.41 1455.6 Q1879.74 1457.11 1879.74 1459.79 Z" fill="#000000" fill-rule="nonzero" fill-opacity="1"></path><path clip-path="url(#clip490)" d="M2079.31 1484.86 L2079.31 1480.6 Q2081.07 1481.44 2082.88 1481.88 Q2084.68 1482.32 2086.42 1482.32 Q2091.05 1482.32 2093.48 1479.21 Q2095.93 1476.09 2096.28 1469.75 Q2094.94 1471.74 2092.88 1472.8 Q2090.82 1473.87 2088.32 1473.87 Q2083.13 1473.87 2080.1 1470.74 Q2077.09 1467.59 2077.09 1462.15 Q2077.09 1456.83 2080.24 1453.61 Q2083.39 1450.39 2088.62 1450.39 Q2094.61 1450.39 2097.76 1455 Q2100.93 1459.58 2100.93 1468.33 Q2100.93 1476.51 2097.04 1481.39 Q2093.18 1486.25 2086.63 1486.25 Q2084.87 1486.25 2083.06 1485.9 Q2081.26 1485.56 2079.31 1484.86 M2088.62 1470.21 Q2091.77 1470.21 2093.6 1468.06 Q2095.45 1465.9 2095.45 1462.15 Q2095.45 1458.43 2093.6 1456.27 Q2091.77 1454.1 2088.62 1454.1 Q2085.47 1454.1 2083.62 1456.27 Q2081.79 1458.43 2081.79 1462.15 Q2081.79 1465.9 2083.62 1468.06 Q2085.47 1470.21 2088.62 1470.21 Z" fill="#000000" fill-rule="nonzero" fill-opacity="1"></path><path clip-path="url(#clip490)" d="M2266.58 1481.64 L2274.22 1481.64 L2274.22 1455.28 L2265.91 1456.95 L2265.91 1452.69 L2274.17 1451.02 L2278.85 1451.02 L2278.85 1481.64 L2286.49 1481.64 L2286.49 1485.58 L2266.58 1485.58 L2266.58 1481.64 Z" fill="#000000" fill-rule="nonzero" fill-opacity="1"></path><path clip-path="url(#clip490)" d="M2305.93 1454.1 Q2302.32 1454.1 2300.49 1457.66 Q2298.69 1461.2 2298.69 1468.33 Q2298.69 1475.44 2300.49 1479.01 Q2302.32 1482.55 2305.93 1482.55 Q2309.57 1482.55 2311.37 1479.01 Q2313.2 1475.44 2313.2 1468.33 Q2313.2 1461.2 2311.37 1457.66 Q2309.57 1454.1 2305.93 1454.1 M2305.93 1450.39 Q2311.74 1450.39 2314.8 1455 Q2317.88 1459.58 2317.88 1468.33 Q2317.88 1477.06 2314.8 1481.67 Q2311.74 1486.25 2305.93 1486.25 Q2300.12 1486.25 2297.04 1481.67 Q2293.99 1477.06 2293.99 1468.33 Q2293.99 1459.58 2297.04 1455 Q2300.12 1450.39 2305.93 1450.39 Z" fill="#000000" fill-rule="nonzero" fill-opacity="1"></path><path clip-path="url(#clip490)" d="M1276.55 1522.27 L1276.55 1532.4 L1288.62 1532.4 L1288.62 1536.95 L1276.55 1536.95 L1276.55 1556.3 Q1276.55 1560.66 1277.73 1561.9 Q1278.94 1563.14 1282.6 1563.14 L1288.62 1563.14 L1288.62 1568.04 L1282.6 1568.04 Q1275.82 1568.04 1273.24 1565.53 Q1270.66 1562.98 1270.66 1556.3 L1270.66 1536.95 L1266.37 1536.95 L1266.37 1532.4 L1270.66 1532.4 L1270.66 1522.27 L1276.55 1522.27 Z" fill="#000000" fill-rule="nonzero" fill-opacity="1"></path><polyline clip-path="url(#clip492)" style="stroke:#000000; stroke-linecap:round; stroke-linejoin:round; stroke-width:2; stroke-opacity:0.1; fill:none" points="202.227,1386.4 2352.76,1386.4 "></polyline>
<polyline clip-path="url(#clip492)" style="stroke:#000000; stroke-linecap:round; stroke-linejoin:round; stroke-width:2; stroke-opacity:0.1; fill:none" points="202.227,1263.78 2352.76,1263.78 "></polyline>
<polyline clip-path="url(#clip492)" style="stroke:#000000; stroke-linecap:round; stroke-linejoin:round; stroke-width:2; stroke-opacity:0.1; fill:none" points="202.227,1141.17 2352.76,1141.17 "></polyline>
<polyline clip-path="url(#clip492)" style="stroke:#000000; stroke-linecap:round; stroke-linejoin:round; stroke-width:2; stroke-opacity:0.1; fill:none" points="202.227,1018.55 2352.76,1018.55 "></polyline>
<polyline clip-path="url(#clip492)" style="stroke:#000000; stroke-linecap:round; stroke-linejoin:round; stroke-width:2; stroke-opacity:0.1; fill:none" points="202.227,895.94 2352.76,895.94 "></polyline>
<polyline clip-path="url(#clip492)" style="stroke:#000000; stroke-linecap:round; stroke-linejoin:round; stroke-width:2; stroke-opacity:0.1; fill:none" points="202.227,773.326 2352.76,773.326 "></polyline>
<polyline clip-path="url(#clip492)" style="stroke:#000000; stroke-linecap:round; stroke-linejoin:round; stroke-width:2; stroke-opacity:0.1; fill:none" points="202.227,650.712 2352.76,650.712 "></polyline>
<polyline clip-path="url(#clip492)" style="stroke:#000000; stroke-linecap:round; stroke-linejoin:round; stroke-width:2; stroke-opacity:0.1; fill:none" points="202.227,528.098 2352.76,528.098 "></polyline>
<polyline clip-path="url(#clip492)" style="stroke:#000000; stroke-linecap:round; stroke-linejoin:round; stroke-width:2; stroke-opacity:0.1; fill:none" points="202.227,405.484 2352.76,405.484 "></polyline>
<polyline clip-path="url(#clip492)" style="stroke:#000000; stroke-linecap:round; stroke-linejoin:round; stroke-width:2; stroke-opacity:0.1; fill:none" points="202.227,282.87 2352.76,282.87 "></polyline>
<polyline clip-path="url(#clip492)" style="stroke:#000000; stroke-linecap:round; stroke-linejoin:round; stroke-width:2; stroke-opacity:0.1; fill:none" points="202.227,160.256 2352.76,160.256 "></polyline>
<polyline clip-path="url(#clip490)" style="stroke:#000000; stroke-linecap:round; stroke-linejoin:round; stroke-width:4; stroke-opacity:1; fill:none" points="202.227,1423.18 202.227,123.472 "></polyline>
<polyline clip-path="url(#clip490)" style="stroke:#000000; stroke-linecap:round; stroke-linejoin:round; stroke-width:4; stroke-opacity:1; fill:none" points="202.227,1386.4 221.125,1386.4 "></polyline>
<polyline clip-path="url(#clip490)" style="stroke:#000000; stroke-linecap:round; stroke-linejoin:round; stroke-width:4; stroke-opacity:1; fill:none" points="202.227,1263.78 221.125,1263.78 "></polyline>
<polyline clip-path="url(#clip490)" style="stroke:#000000; stroke-linecap:round; stroke-linejoin:round; stroke-width:4; stroke-opacity:1; fill:none" points="202.227,1141.17 221.125,1141.17 "></polyline>
<polyline clip-path="url(#clip490)" style="stroke:#000000; stroke-linecap:round; stroke-linejoin:round; stroke-width:4; stroke-opacity:1; fill:none" points="202.227,1018.55 221.125,1018.55 "></polyline>
<polyline clip-path="url(#clip490)" style="stroke:#000000; stroke-linecap:round; stroke-linejoin:round; stroke-width:4; stroke-opacity:1; fill:none" points="202.227,895.94 221.125,895.94 "></polyline>
<polyline clip-path="url(#clip490)" style="stroke:#000000; stroke-linecap:round; stroke-linejoin:round; stroke-width:4; stroke-opacity:1; fill:none" points="202.227,773.326 221.125,773.326 "></polyline>
<polyline clip-path="url(#clip490)" style="stroke:#000000; stroke-linecap:round; stroke-linejoin:round; stroke-width:4; stroke-opacity:1; fill:none" points="202.227,650.712 221.125,650.712 "></polyline>
<polyline clip-path="url(#clip490)" style="stroke:#000000; stroke-linecap:round; stroke-linejoin:round; stroke-width:4; stroke-opacity:1; fill:none" points="202.227,528.098 221.125,528.098 "></polyline>
<polyline clip-path="url(#clip490)" style="stroke:#000000; stroke-linecap:round; stroke-linejoin:round; stroke-width:4; stroke-opacity:1; fill:none" points="202.227,405.484 221.125,405.484 "></polyline>
<polyline clip-path="url(#clip490)" style="stroke:#000000; stroke-linecap:round; stroke-linejoin:round; stroke-width:4; stroke-opacity:1; fill:none" points="202.227,282.87 221.125,282.87 "></polyline>
<polyline clip-path="url(#clip490)" style="stroke:#000000; stroke-linecap:round; stroke-linejoin:round; stroke-width:4; stroke-opacity:1; fill:none" points="202.227,160.256 221.125,160.256 "></polyline>
<path clip-path="url(#clip490)" d="M154.283 1372.19 Q150.672 1372.19 148.843 1375.76 Q147.038 1379.3 147.038 1386.43 Q147.038 1393.54 148.843 1397.1 Q150.672 1400.64 154.283 1400.64 Q157.917 1400.64 159.723 1397.1 Q161.552 1393.54 161.552 1386.43 Q161.552 1379.3 159.723 1375.76 Q157.917 1372.19 154.283 1372.19 M154.283 1368.49 Q160.093 1368.49 163.149 1373.1 Q166.227 1377.68 166.227 1386.43 Q166.227 1395.16 163.149 1399.76 Q160.093 1404.35 154.283 1404.35 Q148.473 1404.35 145.394 1399.76 Q142.339 1395.16 142.339 1386.43 Q142.339 1377.68 145.394 1373.1 Q148.473 1368.49 154.283 1368.49 Z" fill="#000000" fill-rule="nonzero" fill-opacity="1"></path><path clip-path="url(#clip490)" d="M146.32 1277.13 L153.959 1277.13 L153.959 1250.76 L145.649 1252.43 L145.649 1248.17 L153.913 1246.5 L158.589 1246.5 L158.589 1277.13 L166.227 1277.13 L166.227 1281.06 L146.32 1281.06 L146.32 1277.13 Z" fill="#000000" fill-rule="nonzero" fill-opacity="1"></path><path clip-path="url(#clip490)" d="M149.908 1154.51 L166.227 1154.51 L166.227 1158.45 L144.283 1158.45 L144.283 1154.51 Q146.945 1151.76 151.528 1147.13 Q156.135 1142.48 157.315 1141.13 Q159.561 1138.61 160.44 1136.87 Q161.343 1135.11 161.343 1133.42 Q161.343 1130.67 159.399 1128.93 Q157.478 1127.2 154.376 1127.2 Q152.177 1127.2 149.723 1127.96 Q147.292 1128.73 144.515 1130.28 L144.515 1125.55 Q147.339 1124.42 149.792 1123.84 Q152.246 1123.26 154.283 1123.26 Q159.653 1123.26 162.848 1125.95 Q166.042 1128.63 166.042 1133.12 Q166.042 1135.25 165.232 1137.17 Q164.445 1139.07 162.339 1141.67 Q161.76 1142.34 158.658 1145.55 Q155.556 1148.75 149.908 1154.51 Z" fill="#000000" fill-rule="nonzero" fill-opacity="1"></path><path clip-path="url(#clip490)" d="M159.098 1017.2 Q162.454 1017.92 164.329 1020.19 Q166.227 1022.45 166.227 1025.79 Q166.227 1030.9 162.709 1033.7 Q159.19 1036.51 152.709 1036.51 Q150.533 1036.51 148.218 1036.07 Q145.927 1035.65 143.473 1034.79 L143.473 1030.28 Q145.417 1031.41 147.732 1031.99 Q150.047 1032.57 152.57 1032.57 Q156.968 1032.57 159.26 1030.83 Q161.575 1029.1 161.575 1025.79 Q161.575 1022.73 159.422 1021.02 Q157.292 1019.28 153.473 1019.28 L149.445 1019.28 L149.445 1015.44 L153.658 1015.44 Q157.107 1015.44 158.936 1014.07 Q160.765 1012.69 160.765 1010.09 Q160.765 1007.43 158.866 1006.02 Q156.991 1004.58 153.473 1004.58 Q151.552 1004.58 149.353 1005 Q147.153 1005.42 144.515 1006.3 L144.515 1002.13 Q147.177 1001.39 149.491 1001.02 Q151.829 1000.65 153.89 1000.65 Q159.214 1000.65 162.315 1003.08 Q165.417 1005.49 165.417 1009.61 Q165.417 1012.48 163.774 1014.47 Q162.13 1016.44 159.098 1017.2 Z" fill="#000000" fill-rule="nonzero" fill-opacity="1"></path><path clip-path="url(#clip490)" d="M156.644 882.734 L144.839 901.183 L156.644 901.183 L156.644 882.734 M155.417 878.66 L161.297 878.66 L161.297 901.183 L166.227 901.183 L166.227 905.072 L161.297 905.072 L161.297 913.22 L156.644 913.22 L156.644 905.072 L141.042 905.072 L141.042 900.558 L155.417 878.66 Z" fill="#000000" fill-rule="nonzero" fill-opacity="1"></path><path clip-path="url(#clip490)" d="M145.325 756.046 L163.681 756.046 L163.681 759.981 L149.607 759.981 L149.607 768.453 Q150.626 768.106 151.644 767.944 Q152.663 767.759 153.681 767.759 Q159.468 767.759 162.848 770.93 Q166.227 774.101 166.227 779.518 Q166.227 785.097 162.755 788.199 Q159.283 791.277 152.964 791.277 Q150.788 791.277 148.519 790.907 Q146.274 790.537 143.866 789.796 L143.866 785.097 Q145.95 786.231 148.172 786.787 Q150.394 787.342 152.871 787.342 Q156.876 787.342 159.214 785.236 Q161.552 783.129 161.552 779.518 Q161.552 775.907 159.214 773.801 Q156.876 771.694 152.871 771.694 Q150.996 771.694 149.121 772.111 Q147.269 772.527 145.325 773.407 L145.325 756.046 Z" fill="#000000" fill-rule="nonzero" fill-opacity="1"></path><path clip-path="url(#clip490)" d="M154.7 648.849 Q151.552 648.849 149.7 651.001 Q147.871 653.154 147.871 656.904 Q147.871 660.631 149.7 662.807 Q151.552 664.96 154.7 664.96 Q157.848 664.96 159.677 662.807 Q161.528 660.631 161.528 656.904 Q161.528 653.154 159.677 651.001 Q157.848 648.849 154.7 648.849 M163.982 634.196 L163.982 638.455 Q162.223 637.622 160.417 637.182 Q158.635 636.742 156.876 636.742 Q152.246 636.742 149.792 639.867 Q147.362 642.992 147.015 649.312 Q148.38 647.298 150.441 646.233 Q152.501 645.145 154.978 645.145 Q160.186 645.145 163.195 648.316 Q166.227 651.464 166.227 656.904 Q166.227 662.228 163.079 665.446 Q159.931 668.663 154.7 668.663 Q148.704 668.663 145.533 664.08 Q142.362 659.474 142.362 650.747 Q142.362 642.552 146.251 637.691 Q150.14 632.807 156.69 632.807 Q158.45 632.807 160.232 633.154 Q162.038 633.501 163.982 634.196 Z" fill="#000000" fill-rule="nonzero" fill-opacity="1"></path><path clip-path="url(#clip490)" d="M144.005 510.818 L166.227 510.818 L166.227 512.809 L153.681 545.378 L148.797 545.378 L160.603 514.753 L144.005 514.753 L144.005 510.818 Z" fill="#000000" fill-rule="nonzero" fill-opacity="1"></path><path clip-path="url(#clip490)" d="M154.376 406.352 Q151.042 406.352 149.121 408.135 Q147.223 409.917 147.223 413.042 Q147.223 416.167 149.121 417.949 Q151.042 419.732 154.376 419.732 Q157.709 419.732 159.63 417.949 Q161.552 416.144 161.552 413.042 Q161.552 409.917 159.63 408.135 Q157.732 406.352 154.376 406.352 M149.7 404.361 Q146.691 403.621 145.001 401.561 Q143.334 399.5 143.334 396.537 Q143.334 392.394 146.274 389.987 Q149.237 387.579 154.376 387.579 Q159.538 387.579 162.477 389.987 Q165.417 392.394 165.417 396.537 Q165.417 399.5 163.727 401.561 Q162.061 403.621 159.075 404.361 Q162.454 405.149 164.329 407.44 Q166.227 409.732 166.227 413.042 Q166.227 418.065 163.149 420.75 Q160.093 423.435 154.376 423.435 Q148.658 423.435 145.579 420.75 Q142.524 418.065 142.524 413.042 Q142.524 409.732 144.422 407.44 Q146.32 405.149 149.7 404.361 M147.987 396.977 Q147.987 399.662 149.653 401.167 Q151.343 402.672 154.376 402.672 Q157.385 402.672 159.075 401.167 Q160.788 399.662 160.788 396.977 Q160.788 394.292 159.075 392.787 Q157.385 391.283 154.376 391.283 Q151.343 391.283 149.653 392.787 Q147.987 394.292 147.987 396.977 Z" fill="#000000" fill-rule="nonzero" fill-opacity="1"></path><path clip-path="url(#clip490)" d="M144.607 299.433 L144.607 295.173 Q146.366 296.007 148.172 296.447 Q149.978 296.886 151.714 296.886 Q156.343 296.886 158.774 293.785 Q161.227 290.66 161.575 284.317 Q160.232 286.308 158.172 287.373 Q156.112 288.437 153.612 288.437 Q148.427 288.437 145.394 285.312 Q142.385 282.164 142.385 276.724 Q142.385 271.4 145.533 268.183 Q148.681 264.965 153.913 264.965 Q159.908 264.965 163.056 269.572 Q166.227 274.155 166.227 282.905 Q166.227 291.076 162.339 295.96 Q158.473 300.822 151.922 300.822 Q150.163 300.822 148.357 300.474 Q146.552 300.127 144.607 299.433 M153.913 284.78 Q157.061 284.78 158.89 282.627 Q160.741 280.474 160.741 276.724 Q160.741 272.998 158.89 270.845 Q157.061 268.669 153.913 268.669 Q150.765 268.669 148.913 270.845 Q147.084 272.998 147.084 276.724 Q147.084 280.474 148.913 282.627 Q150.765 284.78 153.913 284.78 Z" fill="#000000" fill-rule="nonzero" fill-opacity="1"></path><path clip-path="url(#clip490)" d="M114.931 173.601 L122.57 173.601 L122.57 147.236 L114.26 148.902 L114.26 144.643 L122.524 142.976 L127.2 142.976 L127.2 173.601 L134.839 173.601 L134.839 177.536 L114.931 177.536 L114.931 173.601 Z" fill="#000000" fill-rule="nonzero" fill-opacity="1"></path><path clip-path="url(#clip490)" d="M154.283 146.055 Q150.672 146.055 148.843 149.62 Q147.038 153.161 147.038 160.291 Q147.038 167.397 148.843 170.962 Q150.672 174.504 154.283 174.504 Q157.917 174.504 159.723 170.962 Q161.552 167.397 161.552 160.291 Q161.552 153.161 159.723 149.62 Q157.917 146.055 154.283 146.055 M154.283 142.351 Q160.093 142.351 163.149 146.958 Q166.227 151.541 166.227 160.291 Q166.227 169.018 163.149 173.624 Q160.093 178.208 154.283 178.208 Q148.473 178.208 145.394 173.624 Q142.339 169.018 142.339 160.291 Q142.339 151.541 145.394 146.958 Q148.473 142.351 154.283 142.351 Z" fill="#000000" fill-rule="nonzero" fill-opacity="1"></path><path clip-path="url(#clip490)" d="M21.7677 932.166 L39.6235 932.166 L39.6235 924.082 Q39.6235 919.594 37.3 917.143 Q34.9765 914.692 30.6797 914.692 Q26.4147 914.692 24.0912 917.143 Q21.7677 919.594 21.7677 924.082 L21.7677 932.166 M16.4842 938.596 L16.4842 924.082 Q16.4842 916.093 20.1126 912.019 Q23.7092 907.913 30.6797 907.913 Q37.7138 907.913 41.3104 912.019 Q44.907 916.093 44.907 924.082 L44.907 932.166 L64.0042 932.166 L64.0042 938.596 L16.4842 938.596 Z" fill="#000000" fill-rule="nonzero" fill-opacity="1"></path><path clip-path="url(#clip490)" d="M32.4621 888.052 Q32.4621 892.763 36.1542 895.5 Q39.8145 898.237 46.212 898.237 Q52.6095 898.237 56.3017 895.532 Q59.9619 892.794 59.9619 888.052 Q59.9619 883.373 56.2698 880.636 Q52.5777 877.899 46.212 877.899 Q39.8781 877.899 36.186 880.636 Q32.4621 883.373 32.4621 888.052 M27.4968 888.052 Q27.4968 880.413 32.4621 876.053 Q37.4273 871.692 46.212 871.692 Q54.9649 871.692 59.9619 876.053 Q64.9272 880.413 64.9272 888.052 Q64.9272 895.723 59.9619 900.083 Q54.9649 904.412 46.212 904.412 Q37.4273 904.412 32.4621 900.083 Q27.4968 895.723 27.4968 888.052 Z" fill="#000000" fill-rule="nonzero" fill-opacity="1"></path><path clip-path="url(#clip490)" d="M58.657 856.319 L77.5631 856.319 L77.5631 862.207 L28.3562 862.207 L28.3562 856.319 L33.7671 856.319 Q30.5842 854.473 29.0564 851.672 Q27.4968 848.839 27.4968 844.924 Q27.4968 838.431 32.6531 834.389 Q37.8093 830.315 46.212 830.315 Q54.6147 830.315 59.771 834.389 Q64.9272 838.431 64.9272 844.924 Q64.9272 848.839 63.3994 851.672 Q61.8398 854.473 58.657 856.319 M46.212 836.394 Q39.7508 836.394 36.0905 839.068 Q32.3984 841.71 32.3984 846.357 Q32.3984 851.004 36.0905 853.677 Q39.7508 856.319 46.212 856.319 Q52.6732 856.319 56.3653 853.677 Q60.0256 851.004 60.0256 846.357 Q60.0256 841.71 56.3653 839.068 Q52.6732 836.394 46.212 836.394 Z" fill="#000000" fill-rule="nonzero" fill-opacity="1"></path><path clip-path="url(#clip490)" d="M49.9359 821.212 L28.3562 821.212 L28.3562 815.356 L49.7131 815.356 Q54.7739 815.356 57.3202 813.382 Q59.8346 811.409 59.8346 807.462 Q59.8346 802.72 56.8109 799.982 Q53.7872 797.213 48.5673 797.213 L28.3562 797.213 L28.3562 791.357 L64.0042 791.357 L64.0042 797.213 L58.5296 797.213 Q61.7762 799.346 63.3676 802.179 Q64.9272 804.979 64.9272 808.703 Q64.9272 814.846 61.1078 818.029 Q57.2883 821.212 49.9359 821.212 M27.4968 806.475 L27.4968 806.475 Z" fill="#000000" fill-rule="nonzero" fill-opacity="1"></path><path clip-path="url(#clip490)" d="M14.479 779.294 L14.479 773.437 L64.0042 773.437 L64.0042 779.294 L14.479 779.294 Z" fill="#000000" fill-rule="nonzero" fill-opacity="1"></path><path clip-path="url(#clip490)" d="M46.0847 744.983 Q46.0847 752.08 47.7079 754.818 Q49.3312 757.555 53.2461 757.555 Q56.3653 757.555 58.2114 755.518 Q60.0256 753.449 60.0256 749.916 Q60.0256 745.046 56.5881 742.118 Q53.1188 739.158 47.3897 739.158 L46.0847 739.158 L46.0847 744.983 M43.6657 733.302 L64.0042 733.302 L64.0042 739.158 L58.5933 739.158 Q61.8398 741.163 63.3994 744.155 Q64.9272 747.147 64.9272 751.476 Q64.9272 756.95 61.8716 760.197 Q58.7843 763.411 53.6281 763.411 Q47.6125 763.411 44.5569 759.401 Q41.5014 755.359 41.5014 747.37 L41.5014 739.158 L40.9285 739.158 Q36.8862 739.158 34.6901 741.832 Q32.4621 744.473 32.4621 749.28 Q32.4621 752.335 33.1941 755.231 Q33.9262 758.128 35.3903 760.801 L29.9795 760.801 Q28.7381 757.587 28.1334 754.563 Q27.4968 751.539 27.4968 748.675 Q27.4968 740.94 31.5072 737.121 Q35.5176 733.302 43.6657 733.302 Z" fill="#000000" fill-rule="nonzero" fill-opacity="1"></path><path clip-path="url(#clip490)" d="M18.2347 715.446 L28.3562 715.446 L28.3562 703.383 L32.9077 703.383 L32.9077 715.446 L52.2594 715.446 Q56.6199 715.446 57.8613 714.268 Q59.1026 713.059 59.1026 709.398 L59.1026 703.383 L64.0042 703.383 L64.0042 709.398 Q64.0042 716.178 61.4897 718.756 Q58.9434 721.334 52.2594 721.334 L32.9077 721.334 L32.9077 725.631 L28.3562 725.631 L28.3562 721.334 L18.2347 721.334 L18.2347 715.446 Z" fill="#000000" fill-rule="nonzero" fill-opacity="1"></path><path clip-path="url(#clip490)" d="M28.3562 695.68 L28.3562 689.824 L64.0042 689.824 L64.0042 695.68 L28.3562 695.68 M14.479 695.68 L14.479 689.824 L21.895 689.824 L21.895 695.68 L14.479 695.68 Z" fill="#000000" fill-rule="nonzero" fill-opacity="1"></path><path clip-path="url(#clip490)" d="M32.4621 663.756 Q32.4621 668.467 36.1542 671.204 Q39.8145 673.941 46.212 673.941 Q52.6095 673.941 56.3017 671.236 Q59.9619 668.499 59.9619 663.756 Q59.9619 659.077 56.2698 656.34 Q52.5777 653.603 46.212 653.603 Q39.8781 653.603 36.186 656.34 Q32.4621 659.077 32.4621 663.756 M27.4968 663.756 Q27.4968 656.117 32.4621 651.757 Q37.4273 647.396 46.212 647.396 Q54.9649 647.396 59.9619 651.757 Q64.9272 656.117 64.9272 663.756 Q64.9272 671.427 59.9619 675.787 Q54.9649 680.116 46.212 680.116 Q37.4273 680.116 32.4621 675.787 Q27.4968 671.427 27.4968 663.756 Z" fill="#000000" fill-rule="nonzero" fill-opacity="1"></path><path clip-path="url(#clip490)" d="M42.4881 608.056 L64.0042 608.056 L64.0042 613.913 L42.679 613.913 Q37.6183 613.913 35.1038 615.886 Q32.5894 617.86 32.5894 621.806 Q32.5894 626.549 35.6131 629.286 Q38.6368 632.023 43.8567 632.023 L64.0042 632.023 L64.0042 637.911 L28.3562 637.911 L28.3562 632.023 L33.8944 632.023 Q30.6797 629.923 29.0883 627.09 Q27.4968 624.225 27.4968 620.501 Q27.4968 614.358 31.3163 611.207 Q35.1038 608.056 42.4881 608.056 Z" fill="#000000" fill-rule="nonzero" fill-opacity="1"></path><path clip-path="url(#clip490)" d="M640.406 43.6931 L640.406 65.8515 L653.531 65.8515 Q660.134 65.8515 663.294 63.1374 Q666.494 60.3828 666.494 54.752 Q666.494 49.0808 663.294 46.4072 Q660.134 43.6931 653.531 43.6931 L640.406 43.6931 M640.406 18.8205 L640.406 37.0496 L652.518 37.0496 Q658.514 37.0496 661.43 34.8216 Q664.387 32.5531 664.387 27.935 Q664.387 23.3575 661.43 21.089 Q658.514 18.8205 652.518 18.8205 L640.406 18.8205 M632.223 12.096 L653.126 12.096 Q662.483 12.096 667.547 15.9849 Q672.611 19.8737 672.611 27.0438 Q672.611 32.5936 670.018 35.8748 Q667.426 39.156 662.402 39.9662 Q668.438 41.2625 671.76 45.3944 Q675.122 49.4858 675.122 55.6432 Q675.122 63.745 669.613 68.1605 Q664.104 72.576 653.936 72.576 L632.223 72.576 L632.223 12.096 Z" fill="#000000" fill-rule="nonzero" fill-opacity="1"></path><path clip-path="url(#clip490)" d="M709.433 49.7694 Q700.4 49.7694 696.916 51.8354 Q693.432 53.9013 693.432 58.8839 Q693.432 62.8538 696.025 65.2034 Q698.658 67.5124 703.154 67.5124 Q709.352 67.5124 713.079 63.1374 Q716.847 58.7219 716.847 51.4303 L716.847 49.7694 L709.433 49.7694 M724.3 46.6907 L724.3 72.576 L716.847 72.576 L716.847 65.6895 Q714.294 69.8214 710.487 71.8063 Q706.679 73.7508 701.17 73.7508 Q694.202 73.7508 690.07 69.8619 Q685.979 65.9325 685.979 59.3701 Q685.979 51.7138 691.083 47.825 Q696.227 43.9361 706.395 43.9361 L716.847 43.9361 L716.847 43.2069 Q716.847 38.0623 713.444 35.2672 Q710.082 32.4315 703.965 32.4315 Q700.076 32.4315 696.389 33.3632 Q692.703 34.295 689.3 36.1584 L689.3 29.2718 Q693.392 27.692 697.24 26.9223 Q701.089 26.1121 704.734 26.1121 Q714.578 26.1121 719.439 31.2163 Q724.3 36.3204 724.3 46.6907 Z" fill="#000000" fill-rule="nonzero" fill-opacity="1"></path><path clip-path="url(#clip490)" d="M758.53 76.7889 Q755.371 84.8907 752.373 87.3618 Q749.375 89.8329 744.352 89.8329 L738.397 89.8329 L738.397 83.5945 L742.772 83.5945 Q745.851 83.5945 747.552 82.1361 Q749.254 80.6778 751.32 75.2496 L752.657 71.8468 L734.306 27.2059 L742.205 27.2059 L756.383 62.6918 L770.562 27.2059 L778.461 27.2059 L758.53 76.7889 Z" fill="#000000" fill-rule="nonzero" fill-opacity="1"></path><path clip-path="url(#clip490)" d="M827.558 48.0275 L827.558 51.6733 L793.287 51.6733 Q793.773 59.3701 797.905 63.421 Q802.078 67.4314 809.491 67.4314 Q813.785 67.4314 817.795 66.3781 Q821.846 65.3249 825.816 63.2184 L825.816 70.267 Q821.805 71.9684 817.593 72.8596 Q813.38 73.7508 809.045 73.7508 Q798.189 73.7508 791.829 67.4314 Q785.509 61.1119 785.509 50.3365 Q785.509 39.1965 791.505 32.6746 Q797.541 26.1121 807.749 26.1121 Q816.904 26.1121 822.211 32.0264 Q827.558 37.9003 827.558 48.0275 M820.104 45.84 Q820.023 39.7232 816.661 36.0774 Q813.339 32.4315 807.83 32.4315 Q801.591 32.4315 797.824 35.9558 Q794.097 39.4801 793.53 45.8805 L820.104 45.84 Z" fill="#000000" fill-rule="nonzero" fill-opacity="1"></path><path clip-path="url(#clip490)" d="M868.715 28.5427 L868.715 35.5912 Q865.555 33.9709 862.152 33.1607 Q858.75 32.3505 855.104 32.3505 Q849.554 32.3505 846.759 34.0519 Q844.004 35.7533 844.004 39.156 Q844.004 41.7486 845.989 43.2475 Q847.974 44.7058 853.97 46.0426 L856.522 46.6097 Q864.461 48.3111 867.783 51.4303 Q871.145 54.509 871.145 60.0587 Q871.145 66.3781 866.122 70.0644 Q861.14 73.7508 852.39 73.7508 Q848.744 73.7508 844.774 73.0216 Q840.845 72.3329 836.47 70.9151 L836.47 63.2184 Q840.602 65.3654 844.612 66.4591 Q848.622 67.5124 852.552 67.5124 Q857.818 67.5124 860.654 65.73 Q863.489 63.9071 863.489 60.6258 Q863.489 57.5877 861.423 55.9673 Q859.398 54.3469 852.471 52.8481 L849.878 52.2405 Q842.951 50.7821 839.873 47.7845 Q836.794 44.7463 836.794 39.4801 Q836.794 33.0797 841.331 29.5959 Q845.868 26.1121 854.213 26.1121 Q858.345 26.1121 861.99 26.7198 Q865.636 27.3274 868.715 28.5427 Z" fill="#000000" fill-rule="nonzero" fill-opacity="1"></path><path clip-path="url(#clip490)" d="M883.015 27.2059 L890.468 27.2059 L890.468 72.576 L883.015 72.576 L883.015 27.2059 M883.015 9.54393 L890.468 9.54393 L890.468 18.9825 L883.015 18.9825 L883.015 9.54393 Z" fill="#000000" fill-rule="nonzero" fill-opacity="1"></path><path clip-path="url(#clip490)" d="M926.683 49.7694 Q917.65 49.7694 914.166 51.8354 Q910.682 53.9013 910.682 58.8839 Q910.682 62.8538 913.275 65.2034 Q915.908 67.5124 920.404 67.5124 Q926.602 67.5124 930.329 63.1374 Q934.097 58.7219 934.097 51.4303 L934.097 49.7694 L926.683 49.7694 M941.55 46.6907 L941.55 72.576 L934.097 72.576 L934.097 65.6895 Q931.544 69.8214 927.737 71.8063 Q923.929 73.7508 918.42 73.7508 Q911.452 73.7508 907.32 69.8619 Q903.229 65.9325 903.229 59.3701 Q903.229 51.7138 908.333 47.825 Q913.477 43.9361 923.645 43.9361 L934.097 43.9361 L934.097 43.2069 Q934.097 38.0623 930.694 35.2672 Q927.332 32.4315 921.215 32.4315 Q917.326 32.4315 913.639 33.3632 Q909.953 34.295 906.55 36.1584 L906.55 29.2718 Q910.642 27.692 914.49 26.9223 Q918.339 26.1121 921.984 26.1121 Q931.828 26.1121 936.689 31.2163 Q941.55 36.3204 941.55 46.6907 Z" fill="#000000" fill-rule="nonzero" fill-opacity="1"></path><path clip-path="url(#clip490)" d="M994.617 45.1919 L994.617 72.576 L987.163 72.576 L987.163 45.4349 Q987.163 38.994 984.652 35.7938 Q982.14 32.5936 977.117 32.5936 Q971.081 32.5936 967.598 36.4419 Q964.114 40.2903 964.114 46.9338 L964.114 72.576 L956.62 72.576 L956.62 27.2059 L964.114 27.2059 L964.114 34.2544 Q966.787 30.163 970.393 28.1376 Q974.038 26.1121 978.778 26.1121 Q986.596 26.1121 990.607 30.9732 Q994.617 35.7938 994.617 45.1919 Z" fill="#000000" fill-rule="nonzero" fill-opacity="1"></path><path clip-path="url(#clip490)" d="M1044.36 18.8205 L1044.36 65.8515 L1054.25 65.8515 Q1066.76 65.8515 1072.56 60.1802 Q1078.39 54.509 1078.39 42.2752 Q1078.39 30.1225 1072.56 24.4918 Q1066.76 18.8205 1054.25 18.8205 L1044.36 18.8205 M1036.18 12.096 L1052.99 12.096 Q1070.57 12.096 1078.79 19.4281 Q1087.02 26.7198 1087.02 42.2752 Q1087.02 57.9117 1078.75 65.2439 Q1070.49 72.576 1052.99 72.576 L1036.18 72.576 L1036.18 12.096 Z" fill="#000000" fill-rule="nonzero" fill-opacity="1"></path><path clip-path="url(#clip490)" d="M1099.74 27.2059 L1107.19 27.2059 L1107.19 72.576 L1099.74 72.576 L1099.74 27.2059 M1099.74 9.54393 L1107.19 9.54393 L1107.19 18.9825 L1099.74 18.9825 L1099.74 9.54393 Z" fill="#000000" fill-rule="nonzero" fill-opacity="1"></path><path clip-path="url(#clip490)" d="M1145.76 9.54393 L1145.76 15.7418 L1138.63 15.7418 Q1134.62 15.7418 1133.04 17.3622 Q1131.5 18.9825 1131.5 23.1955 L1131.5 27.2059 L1143.77 27.2059 L1143.77 32.9987 L1131.5 32.9987 L1131.5 72.576 L1124 72.576 L1124 32.9987 L1116.87 32.9987 L1116.87 27.2059 L1124 27.2059 L1124 24.0462 Q1124 16.471 1127.53 13.0277 Q1131.05 9.54393 1138.71 9.54393 L1145.76 9.54393 Z" fill="#000000" fill-rule="nonzero" fill-opacity="1"></path><path clip-path="url(#clip490)" d="M1174.96 9.54393 L1174.96 15.7418 L1167.83 15.7418 Q1163.82 15.7418 1162.24 17.3622 Q1160.7 18.9825 1160.7 23.1955 L1160.7 27.2059 L1172.98 27.2059 L1172.98 32.9987 L1160.7 32.9987 L1160.7 72.576 L1153.21 72.576 L1153.21 32.9987 L1146.08 32.9987 L1146.08 27.2059 L1153.21 27.2059 L1153.21 24.0462 Q1153.21 16.471 1156.73 13.0277 Q1160.26 9.54393 1167.91 9.54393 L1174.96 9.54393 Z" fill="#000000" fill-rule="nonzero" fill-opacity="1"></path><path clip-path="url(#clip490)" d="M1220.01 48.0275 L1220.01 51.6733 L1185.74 51.6733 Q1186.22 59.3701 1190.36 63.421 Q1194.53 67.4314 1201.94 67.4314 Q1206.24 67.4314 1210.25 66.3781 Q1214.3 65.3249 1218.27 63.2184 L1218.27 70.267 Q1214.26 71.9684 1210.04 72.8596 Q1205.83 73.7508 1201.5 73.7508 Q1190.64 73.7508 1184.28 67.4314 Q1177.96 61.1119 1177.96 50.3365 Q1177.96 39.1965 1183.96 32.6746 Q1189.99 26.1121 1200.2 26.1121 Q1209.36 26.1121 1214.66 32.0264 Q1220.01 37.9003 1220.01 48.0275 M1212.56 45.84 Q1212.47 39.7232 1209.11 36.0774 Q1205.79 32.4315 1200.28 32.4315 Q1194.04 32.4315 1190.28 35.9558 Q1186.55 39.4801 1185.98 45.8805 L1212.56 45.84 Z" fill="#000000" fill-rule="nonzero" fill-opacity="1"></path><path clip-path="url(#clip490)" d="M1258.53 34.1734 Q1257.28 33.4443 1255.78 33.1202 Q1254.32 32.7556 1252.54 32.7556 Q1246.22 32.7556 1242.82 36.8875 Q1239.45 40.9789 1239.45 48.6757 L1239.45 72.576 L1231.96 72.576 L1231.96 27.2059 L1239.45 27.2059 L1239.45 34.2544 Q1241.8 30.1225 1245.57 28.1376 Q1249.34 26.1121 1254.73 26.1121 Q1255.5 26.1121 1256.43 26.2337 Q1257.36 26.3147 1258.49 26.5172 L1258.53 34.1734 Z" fill="#000000" fill-rule="nonzero" fill-opacity="1"></path><path clip-path="url(#clip490)" d="M1303.34 48.0275 L1303.34 51.6733 L1269.07 51.6733 Q1269.55 59.3701 1273.68 63.421 Q1277.86 67.4314 1285.27 67.4314 Q1289.56 67.4314 1293.57 66.3781 Q1297.62 65.3249 1301.59 63.2184 L1301.59 70.267 Q1297.58 71.9684 1293.37 72.8596 Q1289.16 73.7508 1284.82 73.7508 Q1273.97 73.7508 1267.61 67.4314 Q1261.29 61.1119 1261.29 50.3365 Q1261.29 39.1965 1267.28 32.6746 Q1273.32 26.1121 1283.53 26.1121 Q1292.68 26.1121 1297.99 32.0264 Q1303.34 37.9003 1303.34 48.0275 M1295.88 45.84 Q1295.8 39.7232 1292.44 36.0774 Q1289.12 32.4315 1283.61 32.4315 Q1277.37 32.4315 1273.6 35.9558 Q1269.88 39.4801 1269.31 45.8805 L1295.88 45.84 Z" fill="#000000" fill-rule="nonzero" fill-opacity="1"></path><path clip-path="url(#clip490)" d="M1353.28 45.1919 L1353.28 72.576 L1345.83 72.576 L1345.83 45.4349 Q1345.83 38.994 1343.32 35.7938 Q1340.81 32.5936 1335.78 32.5936 Q1329.75 32.5936 1326.26 36.4419 Q1322.78 40.2903 1322.78 46.9338 L1322.78 72.576 L1315.29 72.576 L1315.29 27.2059 L1322.78 27.2059 L1322.78 34.2544 Q1325.45 30.163 1329.06 28.1376 Q1332.71 26.1121 1337.45 26.1121 Q1345.26 26.1121 1349.27 30.9732 Q1353.28 35.7938 1353.28 45.1919 Z" fill="#000000" fill-rule="nonzero" fill-opacity="1"></path><path clip-path="url(#clip490)" d="M1375.52 14.324 L1375.52 27.2059 L1390.88 27.2059 L1390.88 32.9987 L1375.52 32.9987 L1375.52 57.6282 Q1375.52 63.1779 1377.02 64.7578 Q1378.56 66.3376 1383.22 66.3376 L1390.88 66.3376 L1390.88 72.576 L1383.22 72.576 Q1374.59 72.576 1371.31 69.3758 Q1368.03 66.1351 1368.03 57.6282 L1368.03 32.9987 L1362.56 32.9987 L1362.56 27.2059 L1368.03 27.2059 L1368.03 14.324 L1375.52 14.324 Z" fill="#000000" fill-rule="nonzero" fill-opacity="1"></path><path clip-path="url(#clip490)" d="M1400.68 27.2059 L1408.13 27.2059 L1408.13 72.576 L1400.68 72.576 L1400.68 27.2059 M1400.68 9.54393 L1408.13 9.54393 L1408.13 18.9825 L1400.68 18.9825 L1400.68 9.54393 Z" fill="#000000" fill-rule="nonzero" fill-opacity="1"></path><path clip-path="url(#clip490)" d="M1444.35 49.7694 Q1435.31 49.7694 1431.83 51.8354 Q1428.35 53.9013 1428.35 58.8839 Q1428.35 62.8538 1430.94 65.2034 Q1433.57 67.5124 1438.07 67.5124 Q1444.27 67.5124 1447.99 63.1374 Q1451.76 58.7219 1451.76 51.4303 L1451.76 49.7694 L1444.35 49.7694 M1459.22 46.6907 L1459.22 72.576 L1451.76 72.576 L1451.76 65.6895 Q1449.21 69.8214 1445.4 71.8063 Q1441.59 73.7508 1436.08 73.7508 Q1429.12 73.7508 1424.99 69.8619 Q1420.89 65.9325 1420.89 59.3701 Q1420.89 51.7138 1426 47.825 Q1431.14 43.9361 1441.31 43.9361 L1451.76 43.9361 L1451.76 43.2069 Q1451.76 38.0623 1448.36 35.2672 Q1445 32.4315 1438.88 32.4315 Q1434.99 32.4315 1431.3 33.3632 Q1427.62 34.295 1424.22 36.1584 L1424.22 29.2718 Q1428.31 27.692 1432.16 26.9223 Q1436 26.1121 1439.65 26.1121 Q1449.49 26.1121 1454.35 31.2163 Q1459.22 36.3204 1459.22 46.6907 Z" fill="#000000" fill-rule="nonzero" fill-opacity="1"></path><path clip-path="url(#clip490)" d="M1474.57 9.54393 L1482.02 9.54393 L1482.02 72.576 L1474.57 72.576 L1474.57 9.54393 Z" fill="#000000" fill-rule="nonzero" fill-opacity="1"></path><path clip-path="url(#clip490)" d="M1524.31 12.096 L1562.55 12.096 L1562.55 18.9825 L1532.5 18.9825 L1532.5 36.8875 L1561.3 36.8875 L1561.3 43.7741 L1532.5 43.7741 L1532.5 65.6895 L1563.28 65.6895 L1563.28 72.576 L1524.31 72.576 L1524.31 12.096 Z" fill="#000000" fill-rule="nonzero" fill-opacity="1"></path><path clip-path="url(#clip490)" d="M1580.86 49.9314 Q1580.86 58.1548 1584.23 62.8538 Q1587.63 67.5124 1593.54 67.5124 Q1599.46 67.5124 1602.86 62.8538 Q1606.26 58.1548 1606.26 49.9314 Q1606.26 41.7081 1602.86 37.0496 Q1599.46 32.3505 1593.54 32.3505 Q1587.63 32.3505 1584.23 37.0496 Q1580.86 41.7081 1580.86 49.9314 M1606.26 65.7705 Q1603.91 69.8214 1600.31 71.8063 Q1596.74 73.7508 1591.72 73.7508 Q1583.5 73.7508 1578.31 67.1883 Q1573.17 60.6258 1573.17 49.9314 Q1573.17 39.2371 1578.31 32.6746 Q1583.5 26.1121 1591.72 26.1121 Q1596.74 26.1121 1600.31 28.0971 Q1603.91 30.0415 1606.26 34.0924 L1606.26 27.2059 L1613.72 27.2059 L1613.72 89.8329 L1606.26 89.8329 L1606.26 65.7705 Z" fill="#000000" fill-rule="nonzero" fill-opacity="1"></path><path clip-path="url(#clip490)" d="M1628.3 54.671 L1628.3 27.2059 L1635.75 27.2059 L1635.75 54.3874 Q1635.75 60.8284 1638.27 64.0691 Q1640.78 67.2693 1645.8 67.2693 Q1651.84 67.2693 1655.32 63.421 Q1658.84 59.5726 1658.84 52.9291 L1658.84 27.2059 L1666.3 27.2059 L1666.3 72.576 L1658.84 72.576 L1658.84 65.6084 Q1656.13 69.7404 1652.52 71.7658 Q1648.96 73.7508 1644.22 73.7508 Q1636.4 73.7508 1632.35 68.8897 Q1628.3 64.0286 1628.3 54.671 M1647.06 26.1121 L1647.06 26.1121 Z" fill="#000000" fill-rule="nonzero" fill-opacity="1"></path><path clip-path="url(#clip490)" d="M1702.27 49.7694 Q1693.24 49.7694 1689.75 51.8354 Q1686.27 53.9013 1686.27 58.8839 Q1686.27 62.8538 1688.86 65.2034 Q1691.49 67.5124 1695.99 67.5124 Q1702.19 67.5124 1705.92 63.1374 Q1709.68 58.7219 1709.68 51.4303 L1709.68 49.7694 L1702.27 49.7694 M1717.14 46.6907 L1717.14 72.576 L1709.68 72.576 L1709.68 65.6895 Q1707.13 69.8214 1703.32 71.8063 Q1699.51 73.7508 1694.01 73.7508 Q1687.04 73.7508 1682.91 69.8619 Q1678.81 65.9325 1678.81 59.3701 Q1678.81 51.7138 1683.92 47.825 Q1689.06 43.9361 1699.23 43.9361 L1709.68 43.9361 L1709.68 43.2069 Q1709.68 38.0623 1706.28 35.2672 Q1702.92 32.4315 1696.8 32.4315 Q1692.91 32.4315 1689.23 33.3632 Q1685.54 34.295 1682.14 36.1584 L1682.14 29.2718 Q1686.23 27.692 1690.08 26.9223 Q1693.92 26.1121 1697.57 26.1121 Q1707.41 26.1121 1712.28 31.2163 Q1717.14 36.3204 1717.14 46.6907 Z" fill="#000000" fill-rule="nonzero" fill-opacity="1"></path><path clip-path="url(#clip490)" d="M1739.86 14.324 L1739.86 27.2059 L1755.21 27.2059 L1755.21 32.9987 L1739.86 32.9987 L1739.86 57.6282 Q1739.86 63.1779 1741.36 64.7578 Q1742.9 66.3376 1747.56 66.3376 L1755.21 66.3376 L1755.21 72.576 L1747.56 72.576 Q1738.93 72.576 1735.65 69.3758 Q1732.37 66.1351 1732.37 57.6282 L1732.37 32.9987 L1726.9 32.9987 L1726.9 27.2059 L1732.37 27.2059 L1732.37 14.324 L1739.86 14.324 Z" fill="#000000" fill-rule="nonzero" fill-opacity="1"></path><path clip-path="url(#clip490)" d="M1765.02 27.2059 L1772.47 27.2059 L1772.47 72.576 L1765.02 72.576 L1765.02 27.2059 M1765.02 9.54393 L1772.47 9.54393 L1772.47 18.9825 L1765.02 18.9825 L1765.02 9.54393 Z" fill="#000000" fill-rule="nonzero" fill-opacity="1"></path><path clip-path="url(#clip490)" d="M1805.65 32.4315 Q1799.65 32.4315 1796.17 37.1306 Q1792.69 41.7891 1792.69 49.9314 Q1792.69 58.0738 1796.13 62.7728 Q1799.61 67.4314 1805.65 67.4314 Q1811.6 67.4314 1815.09 62.7323 Q1818.57 58.0333 1818.57 49.9314 Q1818.57 41.8701 1815.09 37.1711 Q1811.6 32.4315 1805.65 32.4315 M1805.65 26.1121 Q1815.37 26.1121 1820.92 32.4315 Q1826.47 38.7509 1826.47 49.9314 Q1826.47 61.0714 1820.92 67.4314 Q1815.37 73.7508 1805.65 73.7508 Q1795.89 73.7508 1790.34 67.4314 Q1784.83 61.0714 1784.83 49.9314 Q1784.83 38.7509 1790.34 32.4315 Q1795.89 26.1121 1805.65 26.1121 Z" fill="#000000" fill-rule="nonzero" fill-opacity="1"></path><path clip-path="url(#clip490)" d="M1876.54 45.1919 L1876.54 72.576 L1869.09 72.576 L1869.09 45.4349 Q1869.09 38.994 1866.57 35.7938 Q1864.06 32.5936 1859.04 32.5936 Q1853 32.5936 1849.52 36.4419 Q1846.04 40.2903 1846.04 46.9338 L1846.04 72.576 L1838.54 72.576 L1838.54 27.2059 L1846.04 27.2059 L1846.04 34.2544 Q1848.71 30.163 1852.31 28.1376 Q1855.96 26.1121 1860.7 26.1121 Q1868.52 26.1121 1872.53 30.9732 Q1876.54 35.7938 1876.54 45.1919 Z" fill="#000000" fill-rule="nonzero" fill-opacity="1"></path><path clip-path="url(#clip490)" d="M1920.33 28.5427 L1920.33 35.5912 Q1917.17 33.9709 1913.77 33.1607 Q1910.36 32.3505 1906.72 32.3505 Q1901.17 32.3505 1898.37 34.0519 Q1895.62 35.7533 1895.62 39.156 Q1895.62 41.7486 1897.6 43.2475 Q1899.59 44.7058 1905.58 46.0426 L1908.14 46.6097 Q1916.08 48.3111 1919.4 51.4303 Q1922.76 54.509 1922.76 60.0587 Q1922.76 66.3781 1917.74 70.0644 Q1912.75 73.7508 1904 73.7508 Q1900.36 73.7508 1896.39 73.0216 Q1892.46 72.3329 1888.08 70.9151 L1888.08 63.2184 Q1892.22 65.3654 1896.23 66.4591 Q1900.24 67.5124 1904.17 67.5124 Q1909.43 67.5124 1912.27 65.73 Q1915.1 63.9071 1915.1 60.6258 Q1915.1 57.5877 1913.04 55.9673 Q1911.01 54.3469 1904.09 52.8481 L1901.49 52.2405 Q1894.57 50.7821 1891.49 47.7845 Q1888.41 44.7463 1888.41 39.4801 Q1888.41 33.0797 1892.95 29.5959 Q1897.48 26.1121 1905.83 26.1121 Q1909.96 26.1121 1913.61 26.7198 Q1917.25 27.3274 1920.33 28.5427 Z" fill="#000000" fill-rule="nonzero" fill-opacity="1"></path><polyline clip-path="url(#clip492)" style="stroke:#009af9; stroke-linecap:round; stroke-linejoin:round; stroke-width:8; stroke-opacity:1; fill:none" stroke-dasharray="4, 8" points="263.091,1263.78 283.379,1263.78 303.667,1141.17 323.955,1141.17 344.244,1386.4 364.532,1141.17 384.82,1141.17 405.108,1018.55 425.396,1141.17 445.684,1141.17 465.972,895.94 486.26,1018.55 506.548,650.712 526.836,405.484 547.124,528.098 567.412,405.484 587.7,282.87 607.988,650.712 628.276,650.712 648.564,895.94 668.852,1018.55 689.14,1018.55 709.428,1018.55 729.716,1263.78 750.004,1141.17 770.292,1263.78 790.58,1386.4 810.868,1386.4 831.156,1263.78 851.444,1263.78 871.732,1263.78 892.02,1141.17 912.308,1141.17 932.596,1141.17 952.884,1263.78 973.172,1018.55 993.46,1141.17 1013.75,1018.55 1034.04,895.94 1054.32,895.94 1074.61,773.326 1094.9,650.712 1115.19,528.098 1135.48,528.098 1155.76,528.098 1176.05,405.484 1196.34,528.098 1216.63,528.098 1236.92,773.326 1257.2,895.94 1277.49,1141.17 1297.78,1263.78 1318.07,1141.17 1338.36,1263.78 1358.64,1141.17 1378.93,1263.78 1399.22,1141.17 1419.51,1141.17 1439.8,1263.78 1460.08,1263.78 1480.37,1263.78 1500.66,1386.4 1520.95,1141.17 1541.24,1263.78 1561.52,1141.17 1581.81,1141.17 1602.1,1018.55 1622.39,1263.78 1642.68,1018.55 1662.96,1018.55 1683.25,528.098 1703.54,528.098 1723.83,405.484 1744.12,528.098 1764.4,528.098 1784.69,282.87 1804.98,773.326 1825.27,895.94 1845.56,895.94 1865.84,1263.78 1886.13,1141.17 1906.42,1141.17 1926.71,1018.55 1947,1263.78 1967.28,1263.78 1987.57,1263.78 2007.86,1018.55 2028.15,1141.17 2048.44,1263.78 2068.72,1018.55 2089.01,1386.4 2109.3,1018.55 2129.59,1263.78 2149.88,1263.78 2170.16,1386.4 2190.45,1141.17 2210.74,895.94 2231.03,1018.55 2251.32,773.326 2271.6,773.326 2291.89,528.098 "></polyline>
<polyline clip-path="url(#clip492)" style="stroke:#e26f46; stroke-linecap:round; stroke-linejoin:round; stroke-width:8; stroke-opacity:1; fill:none" stroke-dasharray="4, 8" points="263.091,1263.78 283.379,1263.78 303.667,1386.4 323.955,1263.78 344.244,1386.4 364.532,1386.4 384.82,1386.4 405.108,1386.4 425.396,1386.4 445.684,1386.4 465.972,1386.4 486.26,1386.4 506.548,1141.17 526.836,1386.4 547.124,1263.78 567.412,1386.4 587.7,1263.78 607.988,1141.17 628.276,895.94 648.564,773.326 668.852,773.326 689.14,773.326 709.428,1018.55 729.716,895.94 750.004,1018.55 770.292,1141.17 790.58,1141.17 810.868,1018.55 831.156,1141.17 851.444,1386.4 871.732,1141.17 892.02,1141.17 912.308,1263.78 932.596,1386.4 952.884,1263.78 973.172,1263.78 993.46,1386.4 1013.75,1263.78 1034.04,1386.4 1054.32,1263.78 1074.61,1263.78 1094.9,1386.4 1115.19,1263.78 1135.48,1141.17 1155.76,1386.4 1176.05,1141.17 1196.34,1141.17 1216.63,895.94 1236.92,773.326 1257.2,773.326 1277.49,895.94 1297.78,895.94 1318.07,895.94 1338.36,895.94 1358.64,1141.17 1378.93,1018.55 1399.22,1263.78 1419.51,1263.78 1439.8,1263.78 1460.08,1386.4 1480.37,1386.4 1500.66,1263.78 1520.95,1263.78 1541.24,1386.4 1561.52,1386.4 1581.81,1141.17 1602.1,1386.4 1622.39,1263.78 1642.68,1386.4 1662.96,1141.17 1683.25,1386.4 1703.54,1141.17 1723.83,1263.78 1744.12,1386.4 1764.4,1141.17 1784.69,1141.17 1804.98,1018.55 1825.27,650.712 1845.56,1018.55 1865.84,895.94 1886.13,895.94 1906.42,1018.55 1926.71,1141.17 1947,1018.55 1967.28,1141.17 1987.57,1141.17 2007.86,1141.17 2028.15,1263.78 2048.44,1263.78 2068.72,1263.78 2089.01,1386.4 2109.3,1386.4 2129.59,1263.78 2149.88,1386.4 2170.16,1386.4 2190.45,1386.4 2210.74,1386.4 2231.03,1263.78 2251.32,1386.4 2271.6,1386.4 2291.89,1141.17 "></polyline>
<path clip-path="url(#clip490)" d="M1895.39 322.316 L2281.07 322.316 L2281.07 166.796 L1895.39 166.796  Z" fill="#ffffff" fill-rule="evenodd" fill-opacity="1"></path>
<polyline clip-path="url(#clip490)" style="stroke:#000000; stroke-linecap:round; stroke-linejoin:round; stroke-width:4; stroke-opacity:1; fill:none" points="1895.39,322.316 2281.07,322.316 2281.07,166.796 1895.39,166.796 1895.39,322.316 "></polyline>
<polyline clip-path="url(#clip490)" style="stroke:#009af9; stroke-linecap:round; stroke-linejoin:round; stroke-width:8; stroke-opacity:1; fill:none" stroke-dasharray="4, 8" points="1919.29,218.636 2062.66,218.636 "></polyline>
<path clip-path="url(#clip490)" d="M2102.94 219.712 Q2104.45 220.221 2105.86 221.888 Q2107.29 223.555 2108.73 226.471 L2113.47 235.916 L2108.45 235.916 L2104.03 227.05 Q2102.32 223.578 2100.7 222.444 Q2099.1 221.309 2096.32 221.309 L2091.23 221.309 L2091.23 235.916 L2086.55 235.916 L2086.55 201.356 L2097.11 201.356 Q2103.03 201.356 2105.95 203.833 Q2108.87 206.309 2108.87 211.309 Q2108.87 214.573 2107.34 216.726 Q2105.84 218.879 2102.94 219.712 M2091.23 205.198 L2091.23 217.467 L2097.11 217.467 Q2100.49 217.467 2102.2 215.916 Q2103.94 214.342 2103.94 211.309 Q2103.94 208.277 2102.2 206.749 Q2100.49 205.198 2097.11 205.198 L2091.23 205.198 Z" fill="#000000" fill-rule="nonzero" fill-opacity="1"></path><path clip-path="url(#clip490)" d="M2130.05 222.883 Q2124.89 222.883 2122.9 224.064 Q2120.9 225.244 2120.9 228.092 Q2120.9 230.36 2122.39 231.703 Q2123.89 233.022 2126.46 233.022 Q2130 233.022 2132.13 230.522 Q2134.28 227.999 2134.28 223.832 L2134.28 222.883 L2130.05 222.883 M2138.54 221.124 L2138.54 235.916 L2134.28 235.916 L2134.28 231.981 Q2132.83 234.342 2130.65 235.476 Q2128.47 236.587 2125.33 236.587 Q2121.34 236.587 2118.98 234.365 Q2116.65 232.119 2116.65 228.369 Q2116.65 223.994 2119.56 221.772 Q2122.5 219.55 2128.31 219.55 L2134.28 219.55 L2134.28 219.133 Q2134.28 216.194 2132.34 214.596 Q2130.42 212.976 2126.92 212.976 Q2124.7 212.976 2122.59 213.508 Q2120.49 214.041 2118.54 215.106 L2118.54 211.17 Q2120.88 210.268 2123.08 209.828 Q2125.28 209.365 2127.36 209.365 Q2132.99 209.365 2135.77 212.282 Q2138.54 215.198 2138.54 221.124 Z" fill="#000000" fill-rule="nonzero" fill-opacity="1"></path><path clip-path="url(#clip490)" d="M2165.93 222.976 Q2165.93 218.277 2163.98 215.615 Q2162.06 212.93 2158.68 212.93 Q2155.3 212.93 2153.36 215.615 Q2151.44 218.277 2151.44 222.976 Q2151.44 227.675 2153.36 230.36 Q2155.3 233.022 2158.68 233.022 Q2162.06 233.022 2163.98 230.36 Q2165.93 227.675 2165.93 222.976 M2151.44 213.925 Q2152.78 211.61 2154.82 210.499 Q2156.88 209.365 2159.72 209.365 Q2164.45 209.365 2167.39 213.115 Q2170.35 216.865 2170.35 222.976 Q2170.35 229.087 2167.39 232.837 Q2164.45 236.587 2159.72 236.587 Q2156.88 236.587 2154.82 235.476 Q2152.78 234.342 2151.44 232.027 L2151.44 235.916 L2147.15 235.916 L2147.15 199.897 L2151.44 199.897 L2151.44 213.925 Z" fill="#000000" fill-rule="nonzero" fill-opacity="1"></path><path clip-path="url(#clip490)" d="M2196.02 222.976 Q2196.02 218.277 2194.08 215.615 Q2192.15 212.93 2188.77 212.93 Q2185.39 212.93 2183.45 215.615 Q2181.53 218.277 2181.53 222.976 Q2181.53 227.675 2183.45 230.36 Q2185.39 233.022 2188.77 233.022 Q2192.15 233.022 2194.08 230.36 Q2196.02 227.675 2196.02 222.976 M2181.53 213.925 Q2182.87 211.61 2184.91 210.499 Q2186.97 209.365 2189.82 209.365 Q2194.54 209.365 2197.48 213.115 Q2200.44 216.865 2200.44 222.976 Q2200.44 229.087 2197.48 232.837 Q2194.54 236.587 2189.82 236.587 Q2186.97 236.587 2184.91 235.476 Q2182.87 234.342 2181.53 232.027 L2181.53 235.916 L2177.25 235.916 L2177.25 199.897 L2181.53 199.897 L2181.53 213.925 Z" fill="#000000" fill-rule="nonzero" fill-opacity="1"></path><path clip-path="url(#clip490)" d="M2207.5 209.99 L2211.76 209.99 L2211.76 235.916 L2207.5 235.916 L2207.5 209.99 M2207.5 199.897 L2211.76 199.897 L2211.76 205.291 L2207.5 205.291 L2207.5 199.897 Z" fill="#000000" fill-rule="nonzero" fill-opacity="1"></path><path clip-path="url(#clip490)" d="M2224.89 202.629 L2224.89 209.99 L2233.66 209.99 L2233.66 213.3 L2224.89 213.3 L2224.89 227.374 Q2224.89 230.545 2225.74 231.448 Q2226.62 232.351 2229.28 232.351 L2233.66 232.351 L2233.66 235.916 L2229.28 235.916 Q2224.35 235.916 2222.48 234.087 Q2220.6 232.235 2220.6 227.374 L2220.6 213.3 L2217.48 213.3 L2217.48 209.99 L2220.6 209.99 L2220.6 202.629 L2224.89 202.629 Z" fill="#000000" fill-rule="nonzero" fill-opacity="1"></path><path clip-path="url(#clip490)" d="M2255.79 210.754 L2255.79 214.782 Q2253.98 213.856 2252.04 213.393 Q2250.09 212.93 2248.01 212.93 Q2244.84 212.93 2243.24 213.902 Q2241.67 214.874 2241.67 216.819 Q2241.67 218.3 2242.8 219.157 Q2243.94 219.99 2247.36 220.754 L2248.82 221.078 Q2253.36 222.05 2255.26 223.832 Q2257.18 225.592 2257.18 228.763 Q2257.18 232.374 2254.31 234.481 Q2251.46 236.587 2246.46 236.587 Q2244.38 236.587 2242.11 236.17 Q2239.86 235.777 2237.36 234.967 L2237.36 230.569 Q2239.72 231.795 2242.01 232.42 Q2244.31 233.022 2246.55 233.022 Q2249.56 233.022 2251.18 232.004 Q2252.8 230.962 2252.8 229.087 Q2252.8 227.351 2251.62 226.425 Q2250.46 225.499 2246.51 224.643 L2245.02 224.295 Q2241.07 223.462 2239.31 221.749 Q2237.55 220.013 2237.55 217.004 Q2237.55 213.346 2240.14 211.356 Q2242.73 209.365 2247.5 209.365 Q2249.86 209.365 2251.95 209.712 Q2254.03 210.059 2255.79 210.754 Z" fill="#000000" fill-rule="nonzero" fill-opacity="1"></path><polyline clip-path="url(#clip490)" style="stroke:#e26f46; stroke-linecap:round; stroke-linejoin:round; stroke-width:8; stroke-opacity:1; fill:none" stroke-dasharray="4, 8" points="1919.29,270.476 2062.66,270.476 "></polyline>
<path clip-path="url(#clip490)" d="M2086.55 253.196 L2106.41 253.196 L2106.41 257.131 L2091.23 257.131 L2091.23 267.316 L2104.93 267.316 L2104.93 271.251 L2091.23 271.251 L2091.23 287.756 L2086.55 287.756 L2086.55 253.196 Z" fill="#000000" fill-rule="nonzero" fill-opacity="1"></path><path clip-path="url(#clip490)" d="M2121.99 264.816 Q2118.57 264.816 2116.58 267.501 Q2114.59 270.163 2114.59 274.816 Q2114.59 279.469 2116.55 282.154 Q2118.54 284.816 2121.99 284.816 Q2125.4 284.816 2127.39 282.131 Q2129.38 279.446 2129.38 274.816 Q2129.38 270.21 2127.39 267.524 Q2125.4 264.816 2121.99 264.816 M2121.99 261.205 Q2127.55 261.205 2130.72 264.816 Q2133.89 268.427 2133.89 274.816 Q2133.89 281.182 2130.72 284.816 Q2127.55 288.427 2121.99 288.427 Q2116.41 288.427 2113.24 284.816 Q2110.09 281.182 2110.09 274.816 Q2110.09 268.427 2113.24 264.816 Q2116.41 261.205 2121.99 261.205 Z" fill="#000000" fill-rule="nonzero" fill-opacity="1"></path><path clip-path="url(#clip490)" d="M2161.04 261.83 L2151.67 274.446 L2161.53 287.756 L2156.51 287.756 L2148.96 277.571 L2141.41 287.756 L2136.39 287.756 L2146.46 274.191 L2137.25 261.83 L2142.27 261.83 L2149.15 271.066 L2156.02 261.83 L2161.04 261.83 Z" fill="#000000" fill-rule="nonzero" fill-opacity="1"></path><path clip-path="url(#clip490)" d="M2188.27 273.728 L2188.27 275.811 L2168.68 275.811 Q2168.96 280.209 2171.32 282.524 Q2173.71 284.816 2177.94 284.816 Q2180.39 284.816 2182.69 284.214 Q2185 283.612 2187.27 282.409 L2187.27 286.436 Q2184.98 287.408 2182.57 287.918 Q2180.16 288.427 2177.69 288.427 Q2171.48 288.427 2167.85 284.816 Q2164.24 281.205 2164.24 275.047 Q2164.24 268.682 2167.66 264.955 Q2171.11 261.205 2176.95 261.205 Q2182.18 261.205 2185.21 264.585 Q2188.27 267.941 2188.27 273.728 M2184.01 272.478 Q2183.96 268.983 2182.04 266.899 Q2180.14 264.816 2176.99 264.816 Q2173.43 264.816 2171.27 266.83 Q2169.14 268.844 2168.82 272.501 L2184.01 272.478 Z" fill="#000000" fill-rule="nonzero" fill-opacity="1"></path><path clip-path="url(#clip490)" d="M2211.78 262.594 L2211.78 266.622 Q2209.98 265.696 2208.03 265.233 Q2206.09 264.77 2204.01 264.77 Q2200.83 264.77 2199.24 265.742 Q2197.66 266.714 2197.66 268.659 Q2197.66 270.14 2198.8 270.997 Q2199.93 271.83 2203.36 272.594 L2204.82 272.918 Q2209.35 273.89 2211.25 275.672 Q2213.17 277.432 2213.17 280.603 Q2213.17 284.214 2210.3 286.321 Q2207.45 288.427 2202.45 288.427 Q2200.37 288.427 2198.1 288.01 Q2195.86 287.617 2193.36 286.807 L2193.36 282.409 Q2195.72 283.635 2198.01 284.26 Q2200.3 284.862 2202.55 284.862 Q2205.56 284.862 2207.18 283.844 Q2208.8 282.802 2208.8 280.927 Q2208.8 279.191 2207.62 278.265 Q2206.46 277.339 2202.5 276.483 L2201.02 276.135 Q2197.06 275.302 2195.3 273.589 Q2193.54 271.853 2193.54 268.844 Q2193.54 265.186 2196.14 263.196 Q2198.73 261.205 2203.5 261.205 Q2205.86 261.205 2207.94 261.552 Q2210.02 261.899 2211.78 262.594 Z" fill="#000000" fill-rule="nonzero" fill-opacity="1"></path></svg>