<svg xmlns="http://www.w3.org/2000/svg" xmlns:xlink="http://www.w3.org/1999/xlink" width="600" height="400" viewBox="0 0 2400 1600">
<defs>
  <clipPath id="clip690">
    <rect x="0" y="0" width="2400" height="1600"></rect>
  </clipPath>
</defs>
<path clip-path="url(#clip690)" d="M0 1600 L2400 1600 L2400 0 L0 0  Z" fill="#ffffff" fill-rule="evenodd" fill-opacity="1"></path>
<defs>
  <clipPath id="clip691">
    <rect x="480" y="0" width="1681" height="1600"></rect>
  </clipPath>
</defs>
<path clip-path="url(#clip690)" d="M530.515 1486.45 L1969.72 1486.45 L1969.72 47.2441 L530.515 47.2441  Z" fill="#ffffff" fill-rule="evenodd" fill-opacity="1"></path>
<defs>
  <clipPath id="clip692">
    <rect x="530" y="47" width="1440" height="1440"></rect>
  </clipPath>
</defs>
<polyline clip-path="url(#clip692)" style="stroke:#000000; stroke-linecap:round; stroke-linejoin:round; stroke-width:2; stroke-opacity:0.1; fill:none" points="530.515,1486.45 530.515,47.2441 "></polyline>
<polyline clip-path="url(#clip692)" style="stroke:#000000; stroke-linecap:round; stroke-linejoin:round; stroke-width:2; stroke-opacity:0.1; fill:none" points="890.316,1486.45 890.316,47.2441 "></polyline>
<polyline clip-path="url(#clip692)" style="stroke:#000000; stroke-linecap:round; stroke-linejoin:round; stroke-width:2; stroke-opacity:0.1; fill:none" points="1250.12,1486.45 1250.12,47.2441 "></polyline>
<polyline clip-path="url(#clip692)" style="stroke:#000000; stroke-linecap:round; stroke-linejoin:round; stroke-width:2; stroke-opacity:0.1; fill:none" points="1609.92,1486.45 1609.92,47.2441 "></polyline>
<polyline clip-path="url(#clip692)" style="stroke:#000000; stroke-linecap:round; stroke-linejoin:round; stroke-width:2; stroke-opacity:0.1; fill:none" points="1969.72,1486.45 1969.72,47.2441 "></polyline>
<polyline clip-path="url(#clip690)" style="stroke:#000000; stroke-linecap:round; stroke-linejoin:round; stroke-width:4; stroke-opacity:1; fill:none" points="530.515,1486.45 1969.72,1486.45 "></polyline>
<polyline clip-path="url(#clip690)" style="stroke:#000000; stroke-linecap:round; stroke-linejoin:round; stroke-width:4; stroke-opacity:1; fill:none" points="530.515,1486.45 530.515,1467.55 "></polyline>
<polyline clip-path="url(#clip690)" style="stroke:#000000; stroke-linecap:round; stroke-linejoin:round; stroke-width:4; stroke-opacity:1; fill:none" points="890.316,1486.45 890.316,1467.55 "></polyline>
<polyline clip-path="url(#clip690)" style="stroke:#000000; stroke-linecap:round; stroke-linejoin:round; stroke-width:4; stroke-opacity:1; fill:none" points="1250.12,1486.45 1250.12,1467.55 "></polyline>
<polyline clip-path="url(#clip690)" style="stroke:#000000; stroke-linecap:round; stroke-linejoin:round; stroke-width:4; stroke-opacity:1; fill:none" points="1609.92,1486.45 1609.92,1467.55 "></polyline>
<polyline clip-path="url(#clip690)" style="stroke:#000000; stroke-linecap:round; stroke-linejoin:round; stroke-width:4; stroke-opacity:1; fill:none" points="1969.72,1486.45 1969.72,1467.55 "></polyline>
<path clip-path="url(#clip690)" d="M500.457 1532.02 L530.133 1532.02 L530.133 1535.95 L500.457 1535.95 L500.457 1532.02 Z" fill="#000000" fill-rule="nonzero" fill-opacity="1"></path><path clip-path="url(#clip690)" d="M544.253 1544.91 L560.573 1544.91 L560.573 1548.85 L538.628 1548.85 L538.628 1544.91 Q541.29 1542.16 545.874 1537.53 Q550.48 1532.88 551.661 1531.53 Q553.906 1529.01 554.786 1527.27 Q555.688 1525.51 555.688 1523.82 Q555.688 1521.07 553.744 1519.33 Q551.823 1517.6 548.721 1517.6 Q546.522 1517.6 544.068 1518.36 Q541.638 1519.13 538.86 1520.68 L538.86 1515.95 Q541.684 1514.82 544.138 1514.24 Q546.591 1513.66 548.628 1513.66 Q553.999 1513.66 557.193 1516.35 Q560.388 1519.03 560.388 1523.52 Q560.388 1525.65 559.577 1527.57 Q558.79 1529.47 556.684 1532.07 Q556.105 1532.74 553.003 1535.95 Q549.901 1539.15 544.253 1544.91 Z" fill="#000000" fill-rule="nonzero" fill-opacity="1"></path><path clip-path="url(#clip690)" d="M860.073 1532.02 L889.749 1532.02 L889.749 1535.95 L860.073 1535.95 L860.073 1532.02 Z" fill="#000000" fill-rule="nonzero" fill-opacity="1"></path><path clip-path="url(#clip690)" d="M900.652 1544.91 L908.29 1544.91 L908.29 1518.55 L899.98 1520.21 L899.98 1515.95 L908.244 1514.29 L912.92 1514.29 L912.92 1544.91 L920.559 1544.91 L920.559 1548.85 L900.652 1548.85 L900.652 1544.91 Z" fill="#000000" fill-rule="nonzero" fill-opacity="1"></path><path clip-path="url(#clip690)" d="M1250.12 1517.37 Q1246.51 1517.37 1244.68 1520.93 Q1242.87 1524.47 1242.87 1531.6 Q1242.87 1538.71 1244.68 1542.27 Q1246.51 1545.82 1250.12 1545.82 Q1253.75 1545.82 1255.56 1542.27 Q1257.39 1538.71 1257.39 1531.6 Q1257.39 1524.47 1255.56 1520.93 Q1253.75 1517.37 1250.12 1517.37 M1250.12 1513.66 Q1255.93 1513.66 1258.98 1518.27 Q1262.06 1522.85 1262.06 1531.6 Q1262.06 1540.33 1258.98 1544.94 Q1255.93 1549.52 1250.12 1549.52 Q1244.31 1549.52 1241.23 1544.94 Q1238.17 1540.33 1238.17 1531.6 Q1238.17 1522.85 1241.23 1518.27 Q1244.31 1513.66 1250.12 1513.66 Z" fill="#000000" fill-rule="nonzero" fill-opacity="1"></path><path clip-path="url(#clip690)" d="M1600.3 1544.91 L1607.94 1544.91 L1607.94 1518.55 L1599.63 1520.21 L1599.63 1515.95 L1607.89 1514.29 L1612.57 1514.29 L1612.57 1544.91 L1620.21 1544.91 L1620.21 1548.85 L1600.3 1548.85 L1600.3 1544.91 Z" fill="#000000" fill-rule="nonzero" fill-opacity="1"></path><path clip-path="url(#clip690)" d="M1964.37 1544.91 L1980.69 1544.91 L1980.69 1548.85 L1958.75 1548.85 L1958.75 1544.91 Q1961.41 1542.16 1965.99 1537.53 Q1970.6 1532.88 1971.78 1531.53 Q1974.02 1529.01 1974.9 1527.27 Q1975.81 1525.51 1975.81 1523.82 Q1975.81 1521.07 1973.86 1519.33 Q1971.94 1517.6 1968.84 1517.6 Q1966.64 1517.6 1964.19 1518.36 Q1961.76 1519.13 1958.98 1520.68 L1958.98 1515.95 Q1961.8 1514.82 1964.26 1514.24 Q1966.71 1513.66 1968.75 1513.66 Q1974.12 1513.66 1977.31 1516.35 Q1980.51 1519.03 1980.51 1523.52 Q1980.51 1525.65 1979.7 1527.57 Q1978.91 1529.47 1976.8 1532.07 Q1976.22 1532.74 1973.12 1535.95 Q1970.02 1539.15 1964.37 1544.91 Z" fill="#000000" fill-rule="nonzero" fill-opacity="1"></path><polyline clip-path="url(#clip692)" style="stroke:#000000; stroke-linecap:round; stroke-linejoin:round; stroke-width:2; stroke-opacity:0.1; fill:none" points="530.515,1486.45 1969.72,1486.45 "></polyline>
<polyline clip-path="url(#clip692)" style="stroke:#000000; stroke-linecap:round; stroke-linejoin:round; stroke-width:2; stroke-opacity:0.1; fill:none" points="530.515,1126.65 1969.72,1126.65 "></polyline>
<polyline clip-path="url(#clip692)" style="stroke:#000000; stroke-linecap:round; stroke-linejoin:round; stroke-width:2; stroke-opacity:0.1; fill:none" points="530.515,766.846 1969.72,766.846 "></polyline>
<polyline clip-path="url(#clip692)" style="stroke:#000000; stroke-linecap:round; stroke-linejoin:round; stroke-width:2; stroke-opacity:0.1; fill:none" points="530.515,407.045 1969.72,407.045 "></polyline>
<polyline clip-path="url(#clip692)" style="stroke:#000000; stroke-linecap:round; stroke-linejoin:round; stroke-width:2; stroke-opacity:0.1; fill:none" points="530.515,47.2441 1969.72,47.2441 "></polyline>
<polyline clip-path="url(#clip690)" style="stroke:#000000; stroke-linecap:round; stroke-linejoin:round; stroke-width:4; stroke-opacity:1; fill:none" points="530.515,1486.45 530.515,47.2441 "></polyline>
<polyline clip-path="url(#clip690)" style="stroke:#000000; stroke-linecap:round; stroke-linejoin:round; stroke-width:4; stroke-opacity:1; fill:none" points="530.515,1486.45 542.848,1486.45 "></polyline>
<polyline clip-path="url(#clip690)" style="stroke:#000000; stroke-linecap:round; stroke-linejoin:round; stroke-width:4; stroke-opacity:1; fill:none" points="530.515,1126.65 542.848,1126.65 "></polyline>
<polyline clip-path="url(#clip690)" style="stroke:#000000; stroke-linecap:round; stroke-linejoin:round; stroke-width:4; stroke-opacity:1; fill:none" points="530.515,766.846 542.848,766.846 "></polyline>
<polyline clip-path="url(#clip690)" style="stroke:#000000; stroke-linecap:round; stroke-linejoin:round; stroke-width:4; stroke-opacity:1; fill:none" points="530.515,407.045 542.848,407.045 "></polyline>
<polyline clip-path="url(#clip690)" style="stroke:#000000; stroke-linecap:round; stroke-linejoin:round; stroke-width:4; stroke-opacity:1; fill:none" points="530.515,47.2441 542.848,47.2441 "></polyline>
<path clip-path="url(#clip690)" d="M434.4 1486.9 L464.075 1486.9 L464.075 1490.83 L434.4 1490.83 L434.4 1486.9 Z" fill="#000000" fill-rule="nonzero" fill-opacity="1"></path><path clip-path="url(#clip690)" d="M478.196 1499.79 L494.515 1499.79 L494.515 1503.73 L472.571 1503.73 L472.571 1499.79 Q475.233 1497.04 479.816 1492.41 Q484.422 1487.76 485.603 1486.41 Q487.848 1483.89 488.728 1482.15 Q489.631 1480.39 489.631 1478.7 Q489.631 1475.95 487.686 1474.21 Q485.765 1472.48 482.663 1472.48 Q480.464 1472.48 478.01 1473.24 Q475.58 1474.01 472.802 1475.56 L472.802 1470.83 Q475.626 1469.7 478.08 1469.12 Q480.534 1468.54 482.571 1468.54 Q487.941 1468.54 491.135 1471.23 Q494.33 1473.91 494.33 1478.4 Q494.33 1480.53 493.52 1482.45 Q492.733 1484.35 490.626 1486.95 Q490.047 1487.62 486.946 1490.83 Q483.844 1494.03 478.196 1499.79 Z" fill="#000000" fill-rule="nonzero" fill-opacity="1"></path><path clip-path="url(#clip690)" d="M434.029 1127.1 L463.705 1127.1 L463.705 1131.03 L434.029 1131.03 L434.029 1127.1 Z" fill="#000000" fill-rule="nonzero" fill-opacity="1"></path><path clip-path="url(#clip690)" d="M474.608 1139.99 L482.247 1139.99 L482.247 1113.63 L473.936 1115.29 L473.936 1111.03 L482.2 1109.37 L486.876 1109.37 L486.876 1139.99 L494.515 1139.99 L494.515 1143.93 L474.608 1143.93 L474.608 1139.99 Z" fill="#000000" fill-rule="nonzero" fill-opacity="1"></path><path clip-path="url(#clip690)" d="M482.571 752.645 Q478.96 752.645 477.131 756.209 Q475.325 759.751 475.325 766.881 Q475.325 773.987 477.131 777.552 Q478.96 781.094 482.571 781.094 Q486.205 781.094 488.01 777.552 Q489.839 773.987 489.839 766.881 Q489.839 759.751 488.01 756.209 Q486.205 752.645 482.571 752.645 M482.571 748.941 Q488.381 748.941 491.436 753.547 Q494.515 758.131 494.515 766.881 Q494.515 775.608 491.436 780.214 Q488.381 784.797 482.571 784.797 Q476.76 784.797 473.682 780.214 Q470.626 775.608 470.626 766.881 Q470.626 758.131 473.682 753.547 Q476.76 748.941 482.571 748.941 Z" fill="#000000" fill-rule="nonzero" fill-opacity="1"></path><path clip-path="url(#clip690)" d="M474.608 420.39 L482.247 420.39 L482.247 394.024 L473.936 395.691 L473.936 391.432 L482.2 389.765 L486.876 389.765 L486.876 420.39 L494.515 420.39 L494.515 424.325 L474.608 424.325 L474.608 420.39 Z" fill="#000000" fill-rule="nonzero" fill-opacity="1"></path><path clip-path="url(#clip690)" d="M478.196 60.5889 L494.515 60.5889 L494.515 64.5241 L472.571 64.5241 L472.571 60.5889 Q475.233 57.8343 479.816 53.2047 Q484.422 48.552 485.603 47.2094 Q487.848 44.6862 488.728 42.9501 Q489.631 41.1909 489.631 39.5011 Q489.631 36.7465 487.686 35.0104 Q485.765 33.2743 482.663 33.2743 Q480.464 33.2743 478.01 34.0381 Q475.58 34.802 472.802 36.3529 L472.802 31.6308 Q475.626 30.4965 478.08 29.9178 Q480.534 29.3391 482.571 29.3391 Q487.941 29.3391 491.135 32.0243 Q494.33 34.7094 494.33 39.2002 Q494.33 41.3298 493.52 43.2511 Q492.733 45.1492 490.626 47.7418 Q490.047 48.4131 486.946 51.6306 Q483.844 54.8251 478.196 60.5889 Z" fill="#000000" fill-rule="nonzero" fill-opacity="1"></path><polyline clip-path="url(#clip692)" style="stroke:#ff0000; stroke-linecap:round; stroke-linejoin:round; stroke-width:20; stroke-opacity:1; fill:none" points="530.515,2206.05 532.858,2182.72 535.2,2159.56 537.543,2136.6 539.885,2113.81 550.715,2010.79 561.545,1911.58 572.375,1816.11 583.205,1724.32 594.035,1636.16 604.864,1551.56 615.694,1470.47 626.524,1392.84 639.541,1304 652.557,1219.96 665.574,1140.61 678.591,1065.85 689.596,1006.15 700.602,949.599 711.607,896.13 722.612,845.683 734.567,794.237 746.522,746.206 758.477,701.511 770.432,660.072 781.454,624.686 792.475,591.939 803.496,561.768 814.518,534.112 826.334,507.183 838.15,482.997 849.966,461.477 861.782,442.547 875.472,423.751 889.163,408.21 902.853,395.804 916.543,386.414 928.709,380.505 940.875,376.801 953.041,375.219 965.207,375.674 986.545,381.142 1007.88,392.172 1031.15,410.006 1054.41,433.333 1077.81,461.749 1101.21,494.54 1127.09,535.168 1152.96,579.614 1177.58,624.714 1202.19,671.852 1253.39,773.389 1296.48,858.808 1322.79,909.227 1349.1,957.314 1373.19,998.6 1397.29,1036.57 1419.55,1068.14 1441.81,1095.82 1464.35,1119.36 1486.9,1137.86 1499.53,1145.82 1512.17,1151.94 1524.8,1156.12 1537.43,1158.27 1560.33,1156.67 1583.23,1147.55 1596.33,1138.71 1609.44,1127.12 1622.55,1112.67 1635.65,1095.26 1647.79,1076.4 1659.93,1054.82 1672.06,1030.45 1684.2,1003.19 1696.16,973.424 1708.13,940.696 1720.09,904.928 1732.06,866.043 1743.68,825.229 1755.29,781.328 1766.91,734.268 1778.53,683.975 1790.43,628.988 1802.34,570.448 1814.25,508.279 1826.16,442.402 1839.21,365.877 1852.26,284.703 1865.3,198.779 1878.35,108 1887.83,38.9636 1897.3,-32.7277 1906.78,-107.113 1916.26,-184.231 1925.73,-264.123 1935.21,-346.826 1944.69,-432.381 1954.17,-520.828 1958.05,-557.963 1961.94,-595.595 1965.83,-633.726 1969.72,-672.358 "></polyline>
</svg>