<svg xmlns="http://www.w3.org/2000/svg" xmlns:xlink="http://www.w3.org/1999/xlink" width="600" height="400" viewBox="0 0 2400 1600">
<defs>
  <clipPath id="clip650">
    <rect x="0" y="0" width="2400" height="1600"></rect>
  </clipPath>
</defs>
<path clip-path="url(#clip650)" d="M0 1600 L2400 1600 L2400 0 L0 0  Z" fill="#ffffff" fill-rule="evenodd" fill-opacity="1"></path>
<defs>
  <clipPath id="clip651">
    <rect x="480" y="0" width="1681" height="1600"></rect>
  </clipPath>
</defs>
<path clip-path="url(#clip650)" d="M209.029 1486.45 L2352.76 1486.45 L2352.76 47.2441 L209.029 47.2441  Z" fill="#ffffff" fill-rule="evenodd" fill-opacity="1"></path>
<defs>
  <clipPath id="clip652">
    <rect x="209" y="47" width="2145" height="1440"></rect>
  </clipPath>
</defs>
<polyline clip-path="url(#clip652)" style="stroke:#000000; stroke-linecap:round; stroke-linejoin:round; stroke-width:2; stroke-opacity:0.1; fill:none" points="471.938,1486.45 471.938,47.2441 "></polyline>
<polyline clip-path="url(#clip652)" style="stroke:#000000; stroke-linecap:round; stroke-linejoin:round; stroke-width:2; stroke-opacity:0.1; fill:none" points="876.415,1486.45 876.415,47.2441 "></polyline>
<polyline clip-path="url(#clip652)" style="stroke:#000000; stroke-linecap:round; stroke-linejoin:round; stroke-width:2; stroke-opacity:0.1; fill:none" points="1280.89,1486.45 1280.89,47.2441 "></polyline>
<polyline clip-path="url(#clip652)" style="stroke:#000000; stroke-linecap:round; stroke-linejoin:round; stroke-width:2; stroke-opacity:0.1; fill:none" points="1685.37,1486.45 1685.37,47.2441 "></polyline>
<polyline clip-path="url(#clip652)" style="stroke:#000000; stroke-linecap:round; stroke-linejoin:round; stroke-width:2; stroke-opacity:0.1; fill:none" points="2089.85,1486.45 2089.85,47.2441 "></polyline>
<polyline clip-path="url(#clip650)" style="stroke:#000000; stroke-linecap:round; stroke-linejoin:round; stroke-width:4; stroke-opacity:1; fill:none" points="209.029,1486.45 2352.76,1486.45 "></polyline>
<polyline clip-path="url(#clip650)" style="stroke:#000000; stroke-linecap:round; stroke-linejoin:round; stroke-width:4; stroke-opacity:1; fill:none" points="471.938,1486.45 471.938,1467.55 "></polyline>
<polyline clip-path="url(#clip650)" style="stroke:#000000; stroke-linecap:round; stroke-linejoin:round; stroke-width:4; stroke-opacity:1; fill:none" points="876.415,1486.45 876.415,1467.55 "></polyline>
<polyline clip-path="url(#clip650)" style="stroke:#000000; stroke-linecap:round; stroke-linejoin:round; stroke-width:4; stroke-opacity:1; fill:none" points="1280.89,1486.45 1280.89,1467.55 "></polyline>
<polyline clip-path="url(#clip650)" style="stroke:#000000; stroke-linecap:round; stroke-linejoin:round; stroke-width:4; stroke-opacity:1; fill:none" points="1685.37,1486.45 1685.37,1467.55 "></polyline>
<polyline clip-path="url(#clip650)" style="stroke:#000000; stroke-linecap:round; stroke-linejoin:round; stroke-width:4; stroke-opacity:1; fill:none" points="2089.85,1486.45 2089.85,1467.55 "></polyline>
<path clip-path="url(#clip650)" d="M440.839 1532.02 L470.515 1532.02 L470.515 1535.95 L440.839 1535.95 L440.839 1532.02 Z" fill="#000000" fill-rule="nonzero" fill-opacity="1"></path><path clip-path="url(#clip650)" d="M493.455 1518.36 L481.649 1536.81 L493.455 1536.81 L493.455 1518.36 M492.228 1514.29 L498.107 1514.29 L498.107 1536.81 L503.038 1536.81 L503.038 1540.7 L498.107 1540.7 L498.107 1548.85 L493.455 1548.85 L493.455 1540.7 L477.853 1540.7 L477.853 1536.19 L492.228 1514.29 Z" fill="#000000" fill-rule="nonzero" fill-opacity="1"></path><path clip-path="url(#clip650)" d="M846.358 1532.02 L876.033 1532.02 L876.033 1535.95 L846.358 1535.95 L846.358 1532.02 Z" fill="#000000" fill-rule="nonzero" fill-opacity="1"></path><path clip-path="url(#clip650)" d="M890.154 1544.91 L906.473 1544.91 L906.473 1548.85 L884.529 1548.85 L884.529 1544.91 Q887.191 1542.16 891.774 1537.53 Q896.381 1532.88 897.561 1531.53 Q899.806 1529.01 900.686 1527.27 Q901.589 1525.51 901.589 1523.82 Q901.589 1521.07 899.644 1519.33 Q897.723 1517.6 894.621 1517.6 Q892.422 1517.6 889.969 1518.36 Q887.538 1519.13 884.76 1520.68 L884.76 1515.95 Q887.584 1514.82 890.038 1514.24 Q892.492 1513.66 894.529 1513.66 Q899.899 1513.66 903.093 1516.35 Q906.288 1519.03 906.288 1523.52 Q906.288 1525.65 905.478 1527.57 Q904.691 1529.47 902.584 1532.07 Q902.005 1532.74 898.904 1535.95 Q895.802 1539.15 890.154 1544.91 Z" fill="#000000" fill-rule="nonzero" fill-opacity="1"></path><path clip-path="url(#clip650)" d="M1280.89 1517.37 Q1277.28 1517.37 1275.45 1520.93 Q1273.65 1524.47 1273.65 1531.6 Q1273.65 1538.71 1275.45 1542.27 Q1277.28 1545.82 1280.89 1545.82 Q1284.53 1545.82 1286.33 1542.27 Q1288.16 1538.71 1288.16 1531.6 Q1288.16 1524.47 1286.33 1520.93 Q1284.53 1517.37 1280.89 1517.37 M1280.89 1513.66 Q1286.7 1513.66 1289.76 1518.27 Q1292.84 1522.85 1292.84 1531.6 Q1292.84 1540.33 1289.76 1544.94 Q1286.7 1549.52 1280.89 1549.52 Q1275.08 1549.52 1272 1544.94 Q1268.95 1540.33 1268.95 1531.6 Q1268.95 1522.85 1272 1518.27 Q1275.08 1513.66 1280.89 1513.66 Z" fill="#000000" fill-rule="nonzero" fill-opacity="1"></path><path clip-path="url(#clip650)" d="M1680.02 1544.91 L1696.34 1544.91 L1696.34 1548.85 L1674.4 1548.85 L1674.4 1544.91 Q1677.06 1542.16 1681.64 1537.53 Q1686.25 1532.88 1687.43 1531.53 Q1689.67 1529.01 1690.55 1527.27 Q1691.46 1525.51 1691.46 1523.82 Q1691.46 1521.07 1689.51 1519.33 Q1687.59 1517.6 1684.49 1517.6 Q1682.29 1517.6 1679.84 1518.36 Q1677.41 1519.13 1674.63 1520.68 L1674.63 1515.95 Q1677.45 1514.82 1679.91 1514.24 Q1682.36 1513.66 1684.4 1513.66 Q1689.77 1513.66 1692.96 1516.35 Q1696.16 1519.03 1696.16 1523.52 Q1696.16 1525.65 1695.35 1527.57 Q1694.56 1529.47 1692.45 1532.07 Q1691.87 1532.74 1688.77 1535.95 Q1685.67 1539.15 1680.02 1544.91 Z" fill="#000000" fill-rule="nonzero" fill-opacity="1"></path><path clip-path="url(#clip650)" d="M2092.86 1518.36 L2081.05 1536.81 L2092.86 1536.81 L2092.86 1518.36 M2091.63 1514.29 L2097.51 1514.29 L2097.51 1536.81 L2102.44 1536.81 L2102.44 1540.7 L2097.51 1540.7 L2097.51 1548.85 L2092.86 1548.85 L2092.86 1540.7 L2077.25 1540.7 L2077.25 1536.19 L2091.63 1514.29 Z" fill="#000000" fill-rule="nonzero" fill-opacity="1"></path><polyline clip-path="url(#clip652)" style="stroke:#000000; stroke-linecap:round; stroke-linejoin:round; stroke-width:2; stroke-opacity:0.1; fill:none" points="209.029,1357.17 2352.76,1357.17 "></polyline>
<polyline clip-path="url(#clip652)" style="stroke:#000000; stroke-linecap:round; stroke-linejoin:round; stroke-width:2; stroke-opacity:0.1; fill:none" points="209.029,1062.01 2352.76,1062.01 "></polyline>
<polyline clip-path="url(#clip652)" style="stroke:#000000; stroke-linecap:round; stroke-linejoin:round; stroke-width:2; stroke-opacity:0.1; fill:none" points="209.029,766.846 2352.76,766.846 "></polyline>
<polyline clip-path="url(#clip652)" style="stroke:#000000; stroke-linecap:round; stroke-linejoin:round; stroke-width:2; stroke-opacity:0.1; fill:none" points="209.029,471.685 2352.76,471.685 "></polyline>
<polyline clip-path="url(#clip652)" style="stroke:#000000; stroke-linecap:round; stroke-linejoin:round; stroke-width:2; stroke-opacity:0.1; fill:none" points="209.029,176.524 2352.76,176.524 "></polyline>
<polyline clip-path="url(#clip650)" style="stroke:#000000; stroke-linecap:round; stroke-linejoin:round; stroke-width:4; stroke-opacity:1; fill:none" points="209.029,1486.45 209.029,47.2441 "></polyline>
<polyline clip-path="url(#clip650)" style="stroke:#000000; stroke-linecap:round; stroke-linejoin:round; stroke-width:4; stroke-opacity:1; fill:none" points="209.029,1357.17 227.926,1357.17 "></polyline>
<polyline clip-path="url(#clip650)" style="stroke:#000000; stroke-linecap:round; stroke-linejoin:round; stroke-width:4; stroke-opacity:1; fill:none" points="209.029,1062.01 227.926,1062.01 "></polyline>
<polyline clip-path="url(#clip650)" style="stroke:#000000; stroke-linecap:round; stroke-linejoin:round; stroke-width:4; stroke-opacity:1; fill:none" points="209.029,766.846 227.926,766.846 "></polyline>
<polyline clip-path="url(#clip650)" style="stroke:#000000; stroke-linecap:round; stroke-linejoin:round; stroke-width:4; stroke-opacity:1; fill:none" points="209.029,471.685 227.926,471.685 "></polyline>
<polyline clip-path="url(#clip650)" style="stroke:#000000; stroke-linecap:round; stroke-linejoin:round; stroke-width:4; stroke-opacity:1; fill:none" points="209.029,176.524 227.926,176.524 "></polyline>
<path clip-path="url(#clip650)" d="M50.9921 1357.62 L80.6679 1357.62 L80.6679 1361.55 L50.9921 1361.55 L50.9921 1357.62 Z" fill="#000000" fill-rule="nonzero" fill-opacity="1"></path><path clip-path="url(#clip650)" d="M91.5706 1370.51 L99.2095 1370.51 L99.2095 1344.15 L90.8993 1345.81 L90.8993 1341.55 L99.1632 1339.89 L103.839 1339.89 L103.839 1370.51 L111.478 1370.51 L111.478 1374.45 L91.5706 1374.45 L91.5706 1370.51 Z" fill="#000000" fill-rule="nonzero" fill-opacity="1"></path><path clip-path="url(#clip650)" d="M130.922 1342.97 Q127.311 1342.97 125.482 1346.53 Q123.677 1350.07 123.677 1357.2 Q123.677 1364.31 125.482 1367.87 Q127.311 1371.42 130.922 1371.42 Q134.556 1371.42 136.362 1367.87 Q138.191 1364.31 138.191 1357.2 Q138.191 1350.07 136.362 1346.53 Q134.556 1342.97 130.922 1342.97 M130.922 1339.26 Q136.732 1339.26 139.788 1343.87 Q142.867 1348.45 142.867 1357.2 Q142.867 1365.93 139.788 1370.54 Q136.732 1375.12 130.922 1375.12 Q125.112 1375.12 122.033 1370.54 Q118.978 1365.93 118.978 1357.2 Q118.978 1348.45 122.033 1343.87 Q125.112 1339.26 130.922 1339.26 Z" fill="#000000" fill-rule="nonzero" fill-opacity="1"></path><path clip-path="url(#clip650)" d="M161.084 1342.97 Q157.473 1342.97 155.644 1346.53 Q153.839 1350.07 153.839 1357.2 Q153.839 1364.31 155.644 1367.87 Q157.473 1371.42 161.084 1371.42 Q164.718 1371.42 166.524 1367.87 Q168.353 1364.31 168.353 1357.2 Q168.353 1350.07 166.524 1346.53 Q164.718 1342.97 161.084 1342.97 M161.084 1339.26 Q166.894 1339.26 169.95 1343.87 Q173.029 1348.45 173.029 1357.2 Q173.029 1365.93 169.95 1370.54 Q166.894 1375.12 161.084 1375.12 Q155.274 1375.12 152.195 1370.54 Q149.14 1365.93 149.14 1357.2 Q149.14 1348.45 152.195 1343.87 Q155.274 1339.26 161.084 1339.26 Z" fill="#000000" fill-rule="nonzero" fill-opacity="1"></path><path clip-path="url(#clip650)" d="M81.154 1062.46 L110.83 1062.46 L110.83 1066.39 L81.154 1066.39 L81.154 1062.46 Z" fill="#000000" fill-rule="nonzero" fill-opacity="1"></path><path clip-path="url(#clip650)" d="M120.969 1044.73 L139.325 1044.73 L139.325 1048.66 L125.251 1048.66 L125.251 1057.13 Q126.27 1056.79 127.288 1056.62 Q128.307 1056.44 129.325 1056.44 Q135.112 1056.44 138.492 1059.61 Q141.871 1062.78 141.871 1068.2 Q141.871 1073.78 138.399 1076.88 Q134.927 1079.96 128.607 1079.96 Q126.432 1079.96 124.163 1079.59 Q121.918 1079.22 119.51 1078.48 L119.51 1073.78 Q121.594 1074.91 123.816 1075.47 Q126.038 1076.02 128.515 1076.02 Q132.519 1076.02 134.857 1073.92 Q137.195 1071.81 137.195 1068.2 Q137.195 1064.59 134.857 1062.48 Q132.519 1060.37 128.515 1060.37 Q126.64 1060.37 124.765 1060.79 Q122.913 1061.21 120.969 1062.09 L120.969 1044.73 Z" fill="#000000" fill-rule="nonzero" fill-opacity="1"></path><path clip-path="url(#clip650)" d="M161.084 1047.81 Q157.473 1047.81 155.644 1051.37 Q153.839 1054.91 153.839 1062.04 Q153.839 1069.15 155.644 1072.71 Q157.473 1076.25 161.084 1076.25 Q164.718 1076.25 166.524 1072.71 Q168.353 1069.15 168.353 1062.04 Q168.353 1054.91 166.524 1051.37 Q164.718 1047.81 161.084 1047.81 M161.084 1044.1 Q166.894 1044.1 169.95 1048.71 Q173.029 1053.29 173.029 1062.04 Q173.029 1070.77 169.95 1075.37 Q166.894 1079.96 161.084 1079.96 Q155.274 1079.96 152.195 1075.37 Q149.14 1070.77 149.14 1062.04 Q149.14 1053.29 152.195 1048.71 Q155.274 1044.1 161.084 1044.1 Z" fill="#000000" fill-rule="nonzero" fill-opacity="1"></path><path clip-path="url(#clip650)" d="M161.084 752.645 Q157.473 752.645 155.644 756.209 Q153.839 759.751 153.839 766.881 Q153.839 773.987 155.644 777.552 Q157.473 781.094 161.084 781.094 Q164.718 781.094 166.524 777.552 Q168.353 773.987 168.353 766.881 Q168.353 759.751 166.524 756.209 Q164.718 752.645 161.084 752.645 M161.084 748.941 Q166.894 748.941 169.95 753.547 Q173.029 758.131 173.029 766.881 Q173.029 775.608 169.95 780.214 Q166.894 784.797 161.084 784.797 Q155.274 784.797 152.195 780.214 Q149.14 775.608 149.14 766.881 Q149.14 758.131 152.195 753.547 Q155.274 748.941 161.084 748.941 Z" fill="#000000" fill-rule="nonzero" fill-opacity="1"></path><path clip-path="url(#clip650)" d="M120.969 454.405 L139.325 454.405 L139.325 458.34 L125.251 458.34 L125.251 466.813 Q126.27 466.465 127.288 466.303 Q128.307 466.118 129.325 466.118 Q135.112 466.118 138.492 469.289 Q141.871 472.461 141.871 477.877 Q141.871 483.456 138.399 486.558 Q134.927 489.637 128.607 489.637 Q126.432 489.637 124.163 489.266 Q121.918 488.896 119.51 488.155 L119.51 483.456 Q121.594 484.59 123.816 485.146 Q126.038 485.701 128.515 485.701 Q132.519 485.701 134.857 483.595 Q137.195 481.488 137.195 477.877 Q137.195 474.266 134.857 472.16 Q132.519 470.053 128.515 470.053 Q126.64 470.053 124.765 470.47 Q122.913 470.887 120.969 471.766 L120.969 454.405 Z" fill="#000000" fill-rule="nonzero" fill-opacity="1"></path><path clip-path="url(#clip650)" d="M161.084 457.484 Q157.473 457.484 155.644 461.049 Q153.839 464.59 153.839 471.72 Q153.839 478.826 155.644 482.391 Q157.473 485.933 161.084 485.933 Q164.718 485.933 166.524 482.391 Q168.353 478.826 168.353 471.72 Q168.353 464.59 166.524 461.049 Q164.718 457.484 161.084 457.484 M161.084 453.78 Q166.894 453.78 169.95 458.387 Q173.029 462.97 173.029 471.72 Q173.029 480.447 169.95 485.053 Q166.894 489.637 161.084 489.637 Q155.274 489.637 152.195 485.053 Q149.14 480.447 149.14 471.72 Q149.14 462.97 152.195 458.387 Q155.274 453.78 161.084 453.78 Z" fill="#000000" fill-rule="nonzero" fill-opacity="1"></path><path clip-path="url(#clip650)" d="M91.5706 189.869 L99.2095 189.869 L99.2095 163.504 L90.8993 165.17 L90.8993 160.911 L99.1632 159.244 L103.839 159.244 L103.839 189.869 L111.478 189.869 L111.478 193.804 L91.5706 193.804 L91.5706 189.869 Z" fill="#000000" fill-rule="nonzero" fill-opacity="1"></path><path clip-path="url(#clip650)" d="M130.922 162.323 Q127.311 162.323 125.482 165.888 Q123.677 169.43 123.677 176.559 Q123.677 183.666 125.482 187.23 Q127.311 190.772 130.922 190.772 Q134.556 190.772 136.362 187.23 Q138.191 183.666 138.191 176.559 Q138.191 169.43 136.362 165.888 Q134.556 162.323 130.922 162.323 M130.922 158.62 Q136.732 158.62 139.788 163.226 Q142.867 167.809 142.867 176.559 Q142.867 185.286 139.788 189.892 Q136.732 194.476 130.922 194.476 Q125.112 194.476 122.033 189.892 Q118.978 185.286 118.978 176.559 Q118.978 167.809 122.033 163.226 Q125.112 158.62 130.922 158.62 Z" fill="#000000" fill-rule="nonzero" fill-opacity="1"></path><path clip-path="url(#clip650)" d="M161.084 162.323 Q157.473 162.323 155.644 165.888 Q153.839 169.43 153.839 176.559 Q153.839 183.666 155.644 187.23 Q157.473 190.772 161.084 190.772 Q164.718 190.772 166.524 187.23 Q168.353 183.666 168.353 176.559 Q168.353 169.43 166.524 165.888 Q164.718 162.323 161.084 162.323 M161.084 158.62 Q166.894 158.62 169.95 163.226 Q173.029 167.809 173.029 176.559 Q173.029 185.286 169.95 189.892 Q166.894 194.476 161.084 194.476 Q155.274 194.476 152.195 189.892 Q149.14 185.286 149.14 176.559 Q149.14 167.809 152.195 163.226 Q155.274 158.62 161.084 158.62 Z" fill="#000000" fill-rule="nonzero" fill-opacity="1"></path><polyline clip-path="url(#clip652)" style="stroke:#009af9; stroke-linecap:round; stroke-linejoin:round; stroke-width:4; stroke-opacity:1; fill:none" points="269.7,1445.72 272.992,1438.73 276.283,1431.78 279.575,1424.88 282.867,1418.03 313.303,1356.86 343.74,1299.53 374.177,1245.91 404.613,1195.89 422.904,1167.51 441.195,1140.36 459.487,1114.42 477.778,1089.64 508.707,1050.36 539.637,1014.24 573.236,978.443 606.834,946.065 637.809,919.105 668.784,894.787 701.992,871.505 735.2,850.958 773.675,830.363 812.15,812.983 846.342,800.04 880.534,789.271 910.518,781.483 940.501,775.121 973.191,769.674 1005.88,765.635 1038.77,762.841 1071.65,761.169 1144.36,760.692 1213.55,763.133 1285.49,767.114 1346.05,770.452 1419.98,773.045 1487.71,772.607 1518.98,771.113 1550.26,768.623 1581.94,764.949 1613.62,759.982 1649.13,752.709 1684.63,743.448 1716.81,733.179 1748.98,720.978 1785.82,704.452 1822.65,684.993 1856.76,664.173 1890.87,640.485 1924.5,614.157 1958.12,584.713 1990.77,552.989 2023.42,518.026 2056.89,478.664 2090.36,435.581 2108.69,410.344 2127.02,383.915 2145.36,356.268 2163.69,327.377 2190.33,283.138 2216.96,236.136 2243.59,186.29 2270.23,133.521 2275.69,122.326 2281.16,111.004 2286.62,99.5546 2292.08,87.9763 "></polyline>
<path clip-path="url(#clip650)" d="M280.486 198.898 L547.289 198.898 L547.289 95.2176 L280.486 95.2176  Z" fill="#ffffff" fill-rule="evenodd" fill-opacity="1"></path>
<polyline clip-path="url(#clip650)" style="stroke:#000000; stroke-linecap:round; stroke-linejoin:round; stroke-width:4; stroke-opacity:1; fill:none" points="280.486,198.898 547.289,198.898 547.289,95.2176 280.486,95.2176 280.486,198.898 "></polyline>
<polyline clip-path="url(#clip650)" style="stroke:#009af9; stroke-linecap:round; stroke-linejoin:round; stroke-width:4; stroke-opacity:1; fill:none" points="304.305,147.058 447.22,147.058 "></polyline>
<path clip-path="url(#clip650)" d="M484.882 166.745 Q483.077 171.375 481.364 172.787 Q479.651 174.199 476.78 174.199 L473.378 174.199 L473.378 170.634 L475.878 170.634 Q477.637 170.634 478.609 169.8 Q479.581 168.967 480.762 165.865 L481.526 163.921 L471.04 138.412 L475.554 138.412 L483.655 158.689 L491.757 138.412 L496.271 138.412 L484.882 166.745 Z" fill="#000000" fill-rule="nonzero" fill-opacity="1"></path><path clip-path="url(#clip650)" d="M503.563 160.402 L511.201 160.402 L511.201 134.037 L502.891 135.703 L502.891 131.444 L511.155 129.778 L515.831 129.778 L515.831 160.402 L523.47 160.402 L523.47 164.338 L503.563 164.338 L503.563 160.402 Z" fill="#000000" fill-rule="nonzero" fill-opacity="1"></path></svg>