<svg xmlns="http://www.w3.org/2000/svg" xmlns:xlink="http://www.w3.org/1999/xlink" width="600" height="400" viewBox="0 0 2400 1600">
<defs>
  <clipPath id="clip360">
    <rect x="0" y="0" width="2400" height="1600"></rect>
  </clipPath>
</defs>
<path clip-path="url(#clip360)" d="M0 1600 L2400 1600 L2400 0 L0 0  Z" fill="#ffffff" fill-rule="evenodd" fill-opacity="1"></path>
<defs>
  <clipPath id="clip361">
    <rect x="480" y="0" width="1681" height="1600"></rect>
  </clipPath>
</defs>
<path clip-path="url(#clip360)" d="M447.244 1552.76 L1952.76 1552.76 L1952.76 47.2441 L447.244 47.2441  Z" fill="#ffffff" fill-rule="evenodd" fill-opacity="1"></path>
<defs>
  <clipPath id="clip362">
    <rect x="447" y="47" width="1507" height="1507"></rect>
  </clipPath>
</defs>
<polyline clip-path="url(#clip362)" style="stroke:#000000; stroke-linecap:round; stroke-linejoin:round; stroke-width:8; stroke-opacity:1; fill:none" points="1737.68,262.317 1193.41,747.858 "></polyline>
<polyline clip-path="url(#clip362)" style="stroke:#000000; stroke-linecap:round; stroke-linejoin:round; stroke-width:8; stroke-opacity:1; fill:none" points="1232.26,737.325 1193.41,747.858 1208.29,710.461 "></polyline>
<polyline clip-path="url(#clip362)" style="stroke:#000000; stroke-linecap:round; stroke-linejoin:round; stroke-width:8; stroke-opacity:1; fill:none" points="1193.41,747.858 1737.68,262.317 "></polyline>
<polyline clip-path="url(#clip362)" style="stroke:#000000; stroke-linecap:round; stroke-linejoin:round; stroke-width:8; stroke-opacity:1; fill:none" points="662.317,1337.68 1079.23,865.301 "></polyline>
<polyline clip-path="url(#clip362)" style="stroke:#000000; stroke-linecap:round; stroke-linejoin:round; stroke-width:8; stroke-opacity:1; fill:none" points="1041.92,880.381 1079.23,865.301 1068.91,904.203 "></polyline>
<polyline clip-path="url(#clip362)" style="stroke:#000000; stroke-linecap:round; stroke-linejoin:round; stroke-width:8; stroke-opacity:1; fill:none" points="1079.23,865.301 662.317,1337.68 "></polyline>
<path clip-path="url(#clip362)" d="M1433.29 556.705 L1497.81 556.705 L1497.81 453.47 L1433.29 453.47 L1433.29 556.705 L1433.29 556.705  Z" fill="#ffffff" fill-rule="evenodd" fill-opacity="1"></path>
<polyline clip-path="url(#clip362)" style="stroke:#000000; stroke-linecap:round; stroke-linejoin:round; stroke-width:8; stroke-opacity:0; fill:none" points="1433.29,556.705 1497.81,556.705 1497.81,453.47 1433.29,453.47 1433.29,556.705 "></polyline>
<path clip-path="url(#clip362)" d="M838.515 1153.11 L903.037 1153.11 L903.037 1049.87 L838.515 1049.87 L838.515 1153.11 L838.515 1153.11  Z" fill="#ffffff" fill-rule="evenodd" fill-opacity="1"></path>
<polyline clip-path="url(#clip362)" style="stroke:#000000; stroke-linecap:round; stroke-linejoin:round; stroke-width:8; stroke-opacity:0; fill:none" points="838.515,1153.11 903.037,1153.11 903.037,1049.87 838.515,1049.87 838.515,1153.11 "></polyline>
<path clip-path="url(#clip362)" d="M1821.56 262.317 L1821.3 255.653 L1820.5 249.031 L1819.18 242.493 L1817.35 236.08 L1815.02 229.833 L1812.19 223.792 L1808.89 217.994 L1805.15 212.477 L1800.97 207.274 L1796.4 202.419 L1791.46 197.944 L1786.17 193.875 L1780.58 190.239 L1774.72 187.058 L1768.62 184.354 L1762.33 182.142 L1755.88 180.437 L1749.32 179.25 L1742.68 178.588 L1736.02 178.455 L1729.36 178.853 L1722.75 179.778 L1716.24 181.225 L1709.87 183.185 L1703.67 185.645 L1697.68 188.59 L1691.95 192.001 L1686.51 195.857 L1681.39 200.132 L1676.63 204.801 L1672.25 209.834 L1668.29 215.198 L1664.77 220.86 L1661.7 226.785 L1659.12 232.934 L1657.03 239.268 L1655.46 245.749 L1654.4 252.334 L1653.87 258.982 L1653.87 265.652 L1654.4 272.3 L1655.46 278.886 L1657.03 285.366 L1659.12 291.701 L1661.7 297.85 L1664.77 303.774 L1668.29 309.436 L1672.25 314.801 L1676.63 319.833 L1681.39 324.502 L1686.51 328.778 L1691.95 332.633 L1697.68 336.044 L1703.67 338.989 L1709.87 341.449 L1716.24 343.409 L1722.75 344.856 L1729.36 345.782 L1736.02 346.179 L1742.68 346.047 L1749.32 345.385 L1755.88 344.197 L1762.33 342.493 L1768.62 340.281 L1774.72 337.576 L1780.58 334.396 L1786.17 330.76 L1791.46 326.691 L1796.4 322.215 L1800.97 317.36 L1805.15 312.158 L1808.89 306.64 L1812.19 300.842 L1815.02 294.801 L1817.35 288.554 L1819.18 282.141 L1820.5 275.603 L1821.3 268.981 L1821.56 262.317 L1821.56 262.317  Z" fill="#009af9" fill-rule="evenodd" fill-opacity="1"></path>
<polyline clip-path="url(#clip362)" style="stroke:#000000; stroke-linecap:round; stroke-linejoin:round; stroke-width:8; stroke-opacity:1; fill:none" points="1821.56,262.317 1821.3,255.653 1820.5,249.031 1819.18,242.493 1817.35,236.08 1815.02,229.833 1812.19,223.792 1808.89,217.994 1805.15,212.477 1800.97,207.274 1796.4,202.419 1791.46,197.944 1786.17,193.875 1780.58,190.239 1774.72,187.058 1768.62,184.354 1762.33,182.142 1755.88,180.437 1749.32,179.25 1742.68,178.588 1736.02,178.455 1729.36,178.853 1722.75,179.778 1716.24,181.225 1709.87,183.185 1703.67,185.645 1697.68,188.59 1691.95,192.001 1686.51,195.857 1681.39,200.132 1676.63,204.801 1672.25,209.834 1668.29,215.198 1664.77,220.86 1661.7,226.785 1659.12,232.934 1657.03,239.268 1655.46,245.749 1654.4,252.334 1653.87,258.982 1653.87,265.652 1654.4,272.3 1655.46,278.886 1657.03,285.366 1659.12,291.701 1661.7,297.85 1664.77,303.774 1668.29,309.436 1672.25,314.801 1676.63,319.833 1681.39,324.502 1686.51,328.778 1691.95,332.633 1697.68,336.044 1703.67,338.989 1709.87,341.449 1716.24,343.409 1722.75,344.856 1729.36,345.782 1736.02,346.179 1742.68,346.047 1749.32,345.385 1755.88,344.197 1762.33,342.493 1768.62,340.281 1774.72,337.576 1780.58,334.396 1786.17,330.76 1791.46,326.691 1796.4,322.215 1800.97,317.36 1805.15,312.158 1808.89,306.64 1812.19,300.842 1815.02,294.801 1817.35,288.554 1819.18,282.141 1820.5,275.603 1821.3,268.981 1821.56,262.317 "></polyline>
<path clip-path="url(#clip362)" d="M746.196 1337.68 L745.931 1331.02 L745.137 1324.4 L743.819 1317.86 L741.987 1311.45 L739.65 1305.2 L736.825 1299.16 L733.529 1293.36 L729.782 1287.84 L725.609 1282.64 L721.036 1277.79 L716.091 1273.31 L710.807 1269.24 L705.216 1265.6 L699.353 1262.42 L693.257 1259.72 L686.965 1257.51 L680.517 1255.8 L673.954 1254.62 L667.318 1253.95 L660.65 1253.82 L653.992 1254.22 L647.387 1255.14 L640.876 1256.59 L634.501 1258.55 L628.302 1261.01 L622.318 1263.96 L616.587 1267.37 L611.145 1271.22 L606.026 1275.5 L601.264 1280.17 L596.887 1285.2 L592.924 1290.56 L589.4 1296.23 L586.337 1302.15 L583.754 1308.3 L581.668 1314.63 L580.091 1321.11 L579.035 1327.7 L578.505 1334.35 L578.505 1341.02 L579.035 1347.67 L580.091 1354.25 L581.668 1360.73 L583.754 1367.07 L586.337 1373.22 L589.4 1379.14 L592.924 1384.8 L596.887 1390.17 L601.264 1395.2 L606.026 1399.87 L611.145 1404.14 L616.587 1408 L622.318 1411.41 L628.302 1414.35 L634.501 1416.81 L640.876 1418.77 L647.387 1420.22 L653.992 1421.15 L660.65 1421.54 L667.318 1421.41 L673.954 1420.75 L680.517 1419.56 L686.965 1417.86 L693.257 1415.65 L699.353 1412.94 L705.216 1409.76 L710.807 1406.13 L716.091 1402.06 L721.036 1397.58 L725.609 1392.73 L729.782 1387.52 L733.529 1382.01 L736.825 1376.21 L739.65 1370.17 L741.987 1363.92 L743.819 1357.51 L745.137 1350.97 L745.931 1344.35 L746.196 1337.68 L746.196 1337.68  Z" fill="#009af9" fill-rule="evenodd" fill-opacity="1"></path>
<polyline clip-path="url(#clip362)" style="stroke:#000000; stroke-linecap:round; stroke-linejoin:round; stroke-width:8; stroke-opacity:1; fill:none" points="746.196,1337.68 745.931,1331.02 745.137,1324.4 743.819,1317.86 741.987,1311.45 739.65,1305.2 736.825,1299.16 733.529,1293.36 729.782,1287.84 725.609,1282.64 721.036,1277.79 716.091,1273.31 710.807,1269.24 705.216,1265.6 699.353,1262.42 693.257,1259.72 686.965,1257.51 680.517,1255.8 673.954,1254.62 667.318,1253.95 660.65,1253.82 653.992,1254.22 647.387,1255.14 640.876,1256.59 634.501,1258.55 628.302,1261.01 622.318,1263.96 616.587,1267.37 611.145,1271.22 606.026,1275.5 601.264,1280.17 596.887,1285.2 592.924,1290.56 589.4,1296.23 586.337,1302.15 583.754,1308.3 581.668,1314.63 580.091,1321.11 579.035,1327.7 578.505,1334.35 578.505,1341.02 579.035,1347.67 580.091,1354.25 581.668,1360.73 583.754,1367.07 586.337,1373.22 589.4,1379.14 592.924,1384.8 596.887,1390.17 601.264,1395.2 606.026,1399.87 611.145,1404.14 616.587,1408 622.318,1411.41 628.302,1414.35 634.501,1416.81 640.876,1418.77 647.387,1420.22 653.992,1421.15 660.65,1421.54 667.318,1421.41 673.954,1420.75 680.517,1419.56 686.965,1417.86 693.257,1415.65 699.353,1412.94 705.216,1409.76 710.807,1406.13 716.091,1402.06 721.036,1397.58 725.609,1392.73 729.782,1387.52 733.529,1382.01 736.825,1376.21 739.65,1370.17 741.987,1363.92 743.819,1357.51 745.137,1350.97 745.931,1344.35 746.196,1337.68 "></polyline>
<path clip-path="url(#clip362)" d="M1207.21 793.948 L1206.94 787.284 L1206.15 780.662 L1204.83 774.124 L1203 767.711 L1200.66 761.464 L1197.84 755.423 L1194.54 749.625 L1190.79 744.107 L1186.62 738.905 L1182.05 734.05 L1177.1 729.574 L1171.82 725.505 L1166.23 721.869 L1160.36 718.689 L1154.27 715.984 L1147.98 713.772 L1141.53 712.068 L1134.97 710.88 L1128.33 710.218 L1121.66 710.086 L1115 710.483 L1108.4 711.409 L1101.89 712.856 L1095.51 714.816 L1089.31 717.276 L1083.33 720.221 L1077.6 723.632 L1072.16 727.487 L1067.04 731.763 L1062.28 736.432 L1057.9 741.464 L1053.94 746.829 L1050.41 752.491 L1047.35 758.415 L1044.77 764.564 L1042.68 770.899 L1041.1 777.379 L1040.05 783.965 L1039.52 790.613 L1039.52 797.283 L1040.05 803.931 L1041.1 810.516 L1042.68 816.997 L1044.77 823.331 L1047.35 829.48 L1050.41 835.405 L1053.94 841.067 L1057.9 846.431 L1062.28 851.464 L1067.04 856.133 L1072.16 860.408 L1077.6 864.264 L1083.33 867.675 L1089.31 870.62 L1095.51 873.08 L1101.89 875.04 L1108.4 876.487 L1115 877.412 L1121.66 877.81 L1128.33 877.677 L1134.97 877.015 L1141.53 875.828 L1147.98 874.123 L1154.27 871.911 L1160.36 869.207 L1166.23 866.026 L1171.82 862.39 L1177.1 858.321 L1182.05 853.846 L1186.62 848.991 L1190.79 843.788 L1194.54 838.271 L1197.84 832.473 L1200.66 826.432 L1203 820.185 L1204.83 813.772 L1206.15 807.234 L1206.94 800.612 L1207.21 793.948 L1207.21 793.948  Z" fill="#009af9" fill-rule="evenodd" fill-opacity="1"></path>
<polyline clip-path="url(#clip362)" style="stroke:#000000; stroke-linecap:round; stroke-linejoin:round; stroke-width:8; stroke-opacity:1; fill:none" points="1207.21,793.948 1206.94,787.284 1206.15,780.662 1204.83,774.124 1203,767.711 1200.66,761.464 1197.84,755.423 1194.54,749.625 1190.79,744.107 1186.62,738.905 1182.05,734.05 1177.1,729.574 1171.82,725.505 1166.23,721.869 1160.36,718.689 1154.27,715.984 1147.98,713.772 1141.53,712.068 1134.97,710.88 1128.33,710.218 1121.66,710.086 1115,710.483 1108.4,711.409 1101.89,712.856 1095.51,714.816 1089.31,717.276 1083.33,720.221 1077.6,723.632 1072.16,727.487 1067.04,731.763 1062.28,736.432 1057.9,741.464 1053.94,746.829 1050.41,752.491 1047.35,758.415 1044.77,764.564 1042.68,770.899 1041.1,777.379 1040.05,783.965 1039.52,790.613 1039.52,797.283 1040.05,803.931 1041.1,810.516 1042.68,816.997 1044.77,823.331 1047.35,829.48 1050.41,835.405 1053.94,841.067 1057.9,846.431 1062.28,851.464 1067.04,856.133 1072.16,860.408 1077.6,864.264 1083.33,867.675 1089.31,870.62 1095.51,873.08 1101.89,875.04 1108.4,876.487 1115,877.412 1121.66,877.81 1128.33,877.677 1134.97,877.015 1141.53,875.828 1147.98,874.123 1154.27,871.911 1160.36,869.207 1166.23,866.026 1171.82,862.39 1177.1,858.321 1182.05,853.846 1186.62,848.991 1190.79,843.788 1194.54,838.271 1197.84,832.473 1200.66,826.432 1203,820.185 1204.83,813.772 1206.15,807.234 1206.94,800.612 1207.21,793.948 "></polyline>
<circle clip-path="url(#clip362)" cx="1737.68" cy="262.317" r="0.54" fill="#009af9" fill-rule="evenodd" fill-opacity="1" stroke="#000000" stroke-opacity="1" stroke-width="6.4"></circle>
<circle clip-path="url(#clip362)" cx="662.317" cy="1337.68" r="0.54" fill="#009af9" fill-rule="evenodd" fill-opacity="1" stroke="#000000" stroke-opacity="1" stroke-width="6.4"></circle>
<circle clip-path="url(#clip362)" cx="1123.33" cy="793.948" r="0.54" fill="#009af9" fill-rule="evenodd" fill-opacity="1" stroke="#000000" stroke-opacity="1" stroke-width="6.4"></circle>
<path clip-path="url(#clip360)" d="M1453.52 521.769 L1463.07 521.769 L1463.07 488.812 L1452.68 490.895 L1452.68 485.571 L1463.01 483.488 L1468.86 483.488 L1468.86 521.769 L1478.41 521.769 L1478.41 526.688 L1453.52 526.688 L1453.52 521.769 Z" fill="#000000" fill-rule="evenodd" fill-opacity="1"></path><path clip-path="url(#clip360)" d="M864.092 1118.17 L884.491 1118.17 L884.491 1123.09 L857.061 1123.09 L857.061 1118.17 Q860.388 1114.73 866.117 1108.94 Q871.875 1103.13 873.351 1101.45 Q876.158 1098.29 877.257 1096.12 Q878.386 1093.93 878.386 1091.81 Q878.386 1088.37 875.955 1086.2 Q873.554 1084.03 869.676 1084.03 Q866.927 1084.03 863.86 1084.98 Q860.822 1085.94 857.35 1087.88 L857.35 1081.98 Q860.88 1080.56 863.947 1079.83 Q867.014 1079.11 869.561 1079.11 Q876.273 1079.11 880.267 1082.47 Q884.26 1085.82 884.26 1091.44 Q884.26 1094.1 883.247 1096.5 Q882.263 1098.87 879.63 1102.11 Q878.907 1102.95 875.029 1106.98 Q871.152 1110.97 864.092 1118.17 Z" fill="#000000" fill-rule="evenodd" fill-opacity="1"></path><path clip-path="url(#clip360)" d="M1725.66 278.998 L1735.21 278.998 L1735.21 246.041 L1724.82 248.125 L1724.82 242.801 L1735.15 240.717 L1741 240.717 L1741 278.998 L1750.54 278.998 L1750.54 283.917 L1725.66 283.917 L1725.66 278.998 Z" fill="#000000" fill-rule="evenodd" fill-opacity="1"></path><path clip-path="url(#clip360)" d="M655.633 1354.36 L676.032 1354.36 L676.032 1359.28 L648.602 1359.28 L648.602 1354.36 Q651.93 1350.92 657.659 1345.13 Q663.417 1339.32 664.892 1337.64 Q667.699 1334.49 668.799 1332.32 Q669.927 1330.12 669.927 1328 Q669.927 1324.56 667.497 1322.39 Q665.095 1320.22 661.218 1320.22 Q658.469 1320.22 655.402 1321.18 Q652.364 1322.13 648.891 1324.07 L648.891 1318.17 Q652.421 1316.75 655.489 1316.02 Q658.556 1315.3 661.102 1315.3 Q667.815 1315.3 671.808 1318.66 Q675.801 1322.01 675.801 1327.63 Q675.801 1330.29 674.788 1332.69 Q673.804 1335.06 671.171 1338.3 Q670.448 1339.14 666.571 1343.17 Q662.693 1347.16 655.633 1354.36 Z" fill="#000000" fill-rule="evenodd" fill-opacity="1"></path><path clip-path="url(#clip360)" d="M1128.64 792.255 Q1132.83 793.152 1135.18 795.988 Q1137.55 798.823 1137.55 802.99 Q1137.55 809.385 1133.15 812.886 Q1128.75 816.387 1120.65 816.387 Q1117.93 816.387 1115.04 815.837 Q1112.17 815.316 1109.11 814.246 L1109.11 808.603 Q1111.54 810.021 1114.43 810.745 Q1117.32 811.468 1120.48 811.468 Q1125.98 811.468 1128.84 809.298 Q1131.73 807.128 1131.73 802.99 Q1131.73 799.171 1129.04 797.029 Q1126.38 794.859 1121.61 794.859 L1116.57 794.859 L1116.57 790.056 L1121.84 790.056 Q1126.15 790.056 1128.44 788.349 Q1130.72 786.613 1130.72 783.372 Q1130.72 780.045 1128.35 778.279 Q1126.01 776.486 1121.61 776.486 Q1119.21 776.486 1116.46 777.006 Q1113.71 777.527 1110.41 778.627 L1110.41 773.418 Q1113.74 772.492 1116.63 772.03 Q1119.55 771.567 1122.13 771.567 Q1128.78 771.567 1132.66 774.605 Q1136.54 777.614 1136.54 782.764 Q1136.54 786.352 1134.48 788.841 Q1132.43 791.3 1128.64 792.255 Z" fill="#000000" fill-rule="evenodd" fill-opacity="1"></path></svg>