<svg xmlns="http://www.w3.org/2000/svg" xmlns:xlink="http://www.w3.org/1999/xlink" width="600" height="400" viewBox="0 0 2400 1600">
<defs>
  <clipPath id="clip350">
    <rect x="0" y="0" width="2400" height="1600"></rect>
  </clipPath>
</defs>
<path clip-path="url(#clip350)" d="M0 1600 L2400 1600 L2400 0 L0 0  Z" fill="#ffffff" fill-rule="evenodd" fill-opacity="1"></path>
<defs>
  <clipPath id="clip351">
    <rect x="480" y="0" width="1681" height="1600"></rect>
  </clipPath>
</defs>
<path clip-path="url(#clip350)" d="M447.244 1552.76 L1952.76 1552.76 L1952.76 47.2441 L447.244 47.2441  Z" fill="#ffffff" fill-rule="evenodd" fill-opacity="1"></path>
<defs>
  <clipPath id="clip352">
    <rect x="447" y="47" width="1507" height="1507"></rect>
  </clipPath>
</defs>
<polyline clip-path="url(#clip352)" style="stroke:#000000; stroke-linecap:round; stroke-linejoin:round; stroke-width:8; stroke-opacity:1; fill:none" points="1179.58,819.472 1737.68,1337.68 "></polyline>
<polyline clip-path="url(#clip352)" style="stroke:#000000; stroke-linecap:round; stroke-linejoin:round; stroke-width:8; stroke-opacity:1; fill:none" points="1179.58,819.472 662.317,262.317 "></polyline>
<path clip-path="url(#clip352)" d="M1426.37 1130.19 L1490.89 1130.19 L1490.89 1026.96 L1426.37 1026.96 L1426.37 1130.19 L1426.37 1130.19  Z" fill="#ffffff" fill-rule="evenodd" fill-opacity="1"></path>
<polyline clip-path="url(#clip352)" style="stroke:#000000; stroke-linecap:round; stroke-linejoin:round; stroke-width:8; stroke-opacity:0; fill:none" points="1426.37,1130.19 1490.89,1130.19 1490.89,1026.96 1426.37,1026.96 1426.37,1130.19 "></polyline>
<path clip-path="url(#clip352)" d="M888.686 592.512 L953.208 592.512 L953.208 489.277 L888.686 489.277 L888.686 592.512 L888.686 592.512  Z" fill="#ffffff" fill-rule="evenodd" fill-opacity="1"></path>
<polyline clip-path="url(#clip352)" style="stroke:#000000; stroke-linecap:round; stroke-linejoin:round; stroke-width:8; stroke-opacity:0; fill:none" points="888.686,592.512 953.208,592.512 953.208,489.277 888.686,489.277 888.686,592.512 "></polyline>
<path clip-path="url(#clip352)" d="M1263.45 819.472 L1263.19 812.807 L1262.4 806.185 L1261.08 799.647 L1259.25 793.235 L1256.91 786.988 L1254.08 780.946 L1250.79 775.149 L1247.04 769.631 L1242.87 764.428 L1238.29 759.574 L1233.35 755.098 L1228.07 751.029 L1222.47 747.393 L1216.61 744.213 L1210.52 741.508 L1204.22 739.296 L1197.78 737.591 L1191.21 736.404 L1184.58 735.742 L1177.91 735.61 L1171.25 736.007 L1164.65 736.933 L1158.14 738.38 L1151.76 740.34 L1145.56 742.8 L1139.58 745.745 L1133.85 749.155 L1128.4 753.011 L1123.29 757.287 L1118.52 761.956 L1114.15 766.988 L1110.18 772.353 L1106.66 778.015 L1103.6 783.939 L1101.01 790.088 L1098.93 796.423 L1097.35 802.903 L1096.29 809.489 L1095.76 816.137 L1095.76 822.806 L1096.29 829.455 L1097.35 836.04 L1098.93 842.52 L1101.01 848.855 L1103.6 855.004 L1106.66 860.929 L1110.18 866.591 L1114.15 871.955 L1118.52 876.988 L1123.29 881.657 L1128.4 885.932 L1133.85 889.788 L1139.58 893.199 L1145.56 896.144 L1151.76 898.604 L1158.14 900.564 L1164.65 902.011 L1171.25 902.936 L1177.91 903.334 L1184.58 903.201 L1191.21 902.539 L1197.78 901.352 L1204.22 899.647 L1210.52 897.435 L1216.61 894.731 L1222.47 891.55 L1228.07 887.914 L1233.35 883.845 L1238.29 879.369 L1242.87 874.515 L1247.04 869.312 L1250.79 863.795 L1254.08 857.997 L1256.91 851.955 L1259.25 845.709 L1261.08 839.296 L1262.4 832.758 L1263.19 826.136 L1263.45 819.472 L1263.45 819.472  Z" fill="#009af9" fill-rule="evenodd" fill-opacity="1"></path>
<polyline clip-path="url(#clip352)" style="stroke:#000000; stroke-linecap:round; stroke-linejoin:round; stroke-width:8; stroke-opacity:1; fill:none" points="1263.45,819.472 1263.19,812.807 1262.4,806.185 1261.08,799.647 1259.25,793.235 1256.91,786.988 1254.08,780.946 1250.79,775.149 1247.04,769.631 1242.87,764.428 1238.29,759.574 1233.35,755.098 1228.07,751.029 1222.47,747.393 1216.61,744.213 1210.52,741.508 1204.22,739.296 1197.78,737.591 1191.21,736.404 1184.58,735.742 1177.91,735.61 1171.25,736.007 1164.65,736.933 1158.14,738.38 1151.76,740.34 1145.56,742.8 1139.58,745.745 1133.85,749.155 1128.4,753.011 1123.29,757.287 1118.52,761.956 1114.15,766.988 1110.18,772.353 1106.66,778.015 1103.6,783.939 1101.01,790.088 1098.93,796.423 1097.35,802.903 1096.29,809.489 1095.76,816.137 1095.76,822.806 1096.29,829.455 1097.35,836.04 1098.93,842.52 1101.01,848.855 1103.6,855.004 1106.66,860.929 1110.18,866.591 1114.15,871.955 1118.52,876.988 1123.29,881.657 1128.4,885.932 1133.85,889.788 1139.58,893.199 1145.56,896.144 1151.76,898.604 1158.14,900.564 1164.65,902.011 1171.25,902.936 1177.91,903.334 1184.58,903.201 1191.21,902.539 1197.78,901.352 1204.22,899.647 1210.52,897.435 1216.61,894.731 1222.47,891.55 1228.07,887.914 1233.35,883.845 1238.29,879.369 1242.87,874.515 1247.04,869.312 1250.79,863.795 1254.08,857.997 1256.91,851.955 1259.25,845.709 1261.08,839.296 1262.4,832.758 1263.19,826.136 1263.45,819.472 "></polyline>
<path clip-path="url(#clip352)" d="M1821.56 1337.68 L1821.3 1331.02 L1820.5 1324.4 L1819.18 1317.86 L1817.35 1311.45 L1815.02 1305.2 L1812.19 1299.16 L1808.89 1293.36 L1805.15 1287.84 L1800.97 1282.64 L1796.4 1277.79 L1791.46 1273.31 L1786.17 1269.24 L1780.58 1265.6 L1774.72 1262.42 L1768.62 1259.72 L1762.33 1257.51 L1755.88 1255.8 L1749.32 1254.62 L1742.68 1253.95 L1736.02 1253.82 L1729.36 1254.22 L1722.75 1255.14 L1716.24 1256.59 L1709.87 1258.55 L1703.67 1261.01 L1697.68 1263.96 L1691.95 1267.37 L1686.51 1271.22 L1681.39 1275.5 L1676.63 1280.17 L1672.25 1285.2 L1668.29 1290.56 L1664.77 1296.23 L1661.7 1302.15 L1659.12 1308.3 L1657.03 1314.63 L1655.46 1321.11 L1654.4 1327.7 L1653.87 1334.35 L1653.87 1341.02 L1654.4 1347.67 L1655.46 1354.25 L1657.03 1360.73 L1659.12 1367.07 L1661.7 1373.22 L1664.77 1379.14 L1668.29 1384.8 L1672.25 1390.17 L1676.63 1395.2 L1681.39 1399.87 L1686.51 1404.14 L1691.95 1408 L1697.68 1411.41 L1703.67 1414.35 L1709.87 1416.81 L1716.24 1418.77 L1722.75 1420.22 L1729.36 1421.15 L1736.02 1421.54 L1742.68 1421.41 L1749.32 1420.75 L1755.88 1419.56 L1762.33 1417.86 L1768.62 1415.65 L1774.72 1412.94 L1780.58 1409.76 L1786.17 1406.13 L1791.46 1402.06 L1796.4 1397.58 L1800.97 1392.73 L1805.15 1387.52 L1808.89 1382.01 L1812.19 1376.21 L1815.02 1370.17 L1817.35 1363.92 L1819.18 1357.51 L1820.5 1350.97 L1821.3 1344.35 L1821.56 1337.68 L1821.56 1337.68  Z" fill="#009af9" fill-rule="evenodd" fill-opacity="1"></path>
<polyline clip-path="url(#clip352)" style="stroke:#000000; stroke-linecap:round; stroke-linejoin:round; stroke-width:8; stroke-opacity:1; fill:none" points="1821.56,1337.68 1821.3,1331.02 1820.5,1324.4 1819.18,1317.86 1817.35,1311.45 1815.02,1305.2 1812.19,1299.16 1808.89,1293.36 1805.15,1287.84 1800.97,1282.64 1796.4,1277.79 1791.46,1273.31 1786.17,1269.24 1780.58,1265.6 1774.72,1262.42 1768.62,1259.72 1762.33,1257.51 1755.88,1255.8 1749.32,1254.62 1742.68,1253.95 1736.02,1253.82 1729.36,1254.22 1722.75,1255.14 1716.24,1256.59 1709.87,1258.55 1703.67,1261.01 1697.68,1263.96 1691.95,1267.37 1686.51,1271.22 1681.39,1275.5 1676.63,1280.17 1672.25,1285.2 1668.29,1290.56 1664.77,1296.23 1661.7,1302.15 1659.12,1308.3 1657.03,1314.63 1655.46,1321.11 1654.4,1327.7 1653.87,1334.35 1653.87,1341.02 1654.4,1347.67 1655.46,1354.25 1657.03,1360.73 1659.12,1367.07 1661.7,1373.22 1664.77,1379.14 1668.29,1384.8 1672.25,1390.17 1676.63,1395.2 1681.39,1399.87 1686.51,1404.14 1691.95,1408 1697.68,1411.41 1703.67,1414.35 1709.87,1416.81 1716.24,1418.77 1722.75,1420.22 1729.36,1421.15 1736.02,1421.54 1742.68,1421.41 1749.32,1420.75 1755.88,1419.56 1762.33,1417.86 1768.62,1415.65 1774.72,1412.94 1780.58,1409.76 1786.17,1406.13 1791.46,1402.06 1796.4,1397.58 1800.97,1392.73 1805.15,1387.52 1808.89,1382.01 1812.19,1376.21 1815.02,1370.17 1817.35,1363.92 1819.18,1357.51 1820.5,1350.97 1821.3,1344.35 1821.56,1337.68 "></polyline>
<path clip-path="url(#clip352)" d="M746.196 262.317 L745.931 255.653 L745.137 249.031 L743.819 242.493 L741.987 236.08 L739.65 229.833 L736.825 223.792 L733.529 217.994 L729.782 212.477 L725.609 207.274 L721.036 202.419 L716.091 197.944 L710.807 193.875 L705.216 190.239 L699.353 187.058 L693.257 184.354 L686.965 182.142 L680.517 180.437 L673.954 179.25 L667.318 178.588 L660.65 178.455 L653.992 178.853 L647.387 179.778 L640.876 181.225 L634.501 183.185 L628.302 185.645 L622.318 188.59 L616.587 192.001 L611.145 195.857 L606.026 200.132 L601.264 204.801 L596.887 209.834 L592.924 215.198 L589.4 220.86 L586.337 226.785 L583.754 232.934 L581.668 239.268 L580.091 245.749 L579.035 252.334 L578.505 258.982 L578.505 265.652 L579.035 272.3 L580.091 278.886 L581.668 285.366 L583.754 291.701 L586.337 297.85 L589.4 303.774 L592.924 309.436 L596.887 314.801 L601.264 319.833 L606.026 324.502 L611.145 328.778 L616.587 332.633 L622.318 336.044 L628.302 338.989 L634.501 341.449 L640.876 343.409 L647.387 344.856 L653.992 345.782 L660.65 346.179 L667.318 346.047 L673.954 345.385 L680.517 344.197 L686.965 342.493 L693.257 340.281 L699.353 337.576 L705.216 334.396 L710.807 330.76 L716.091 326.691 L721.036 322.215 L725.609 317.36 L729.782 312.158 L733.529 306.64 L736.825 300.842 L739.65 294.801 L741.987 288.554 L743.819 282.141 L745.137 275.603 L745.931 268.981 L746.196 262.317 L746.196 262.317  Z" fill="#009af9" fill-rule="evenodd" fill-opacity="1"></path>
<polyline clip-path="url(#clip352)" style="stroke:#000000; stroke-linecap:round; stroke-linejoin:round; stroke-width:8; stroke-opacity:1; fill:none" points="746.196,262.317 745.931,255.653 745.137,249.031 743.819,242.493 741.987,236.08 739.65,229.833 736.825,223.792 733.529,217.994 729.782,212.477 725.609,207.274 721.036,202.419 716.091,197.944 710.807,193.875 705.216,190.239 699.353,187.058 693.257,184.354 686.965,182.142 680.517,180.437 673.954,179.25 667.318,178.588 660.65,178.455 653.992,178.853 647.387,179.778 640.876,181.225 634.501,183.185 628.302,185.645 622.318,188.59 616.587,192.001 611.145,195.857 606.026,200.132 601.264,204.801 596.887,209.834 592.924,215.198 589.4,220.86 586.337,226.785 583.754,232.934 581.668,239.268 580.091,245.749 579.035,252.334 578.505,258.982 578.505,265.652 579.035,272.3 580.091,278.886 581.668,285.366 583.754,291.701 586.337,297.85 589.4,303.774 592.924,309.436 596.887,314.801 601.264,319.833 606.026,324.502 611.145,328.778 616.587,332.633 622.318,336.044 628.302,338.989 634.501,341.449 640.876,343.409 647.387,344.856 653.992,345.782 660.65,346.179 667.318,346.047 673.954,345.385 680.517,344.197 686.965,342.493 693.257,340.281 699.353,337.576 705.216,334.396 710.807,330.76 716.091,326.691 721.036,322.215 725.609,317.36 729.782,312.158 733.529,306.64 736.825,300.842 739.65,294.801 741.987,288.554 743.819,282.141 745.137,275.603 745.931,268.981 746.196,262.317 "></polyline>
<circle clip-path="url(#clip352)" cx="1179.58" cy="819.472" r="0.54" fill="#009af9" fill-rule="evenodd" fill-opacity="1" stroke="#000000" stroke-opacity="1" stroke-width="6.4"></circle>
<circle clip-path="url(#clip352)" cx="1737.68" cy="1337.68" r="0.54" fill="#009af9" fill-rule="evenodd" fill-opacity="1" stroke="#000000" stroke-opacity="1" stroke-width="6.4"></circle>
<circle clip-path="url(#clip352)" cx="662.317" cy="262.317" r="0.54" fill="#009af9" fill-rule="evenodd" fill-opacity="1" stroke="#000000" stroke-opacity="1" stroke-width="6.4"></circle>
<path clip-path="url(#clip350)" d="M1446.61 1095.26 L1456.16 1095.26 L1456.16 1062.3 L1445.77 1064.38 L1445.77 1059.06 L1456.1 1056.98 L1461.94 1056.98 L1461.94 1095.26 L1471.49 1095.26 L1471.49 1100.18 L1446.61 1100.18 L1446.61 1095.26 Z" fill="#000000" fill-rule="evenodd" fill-opacity="1"></path><path clip-path="url(#clip350)" d="M914.263 557.575 L934.662 557.575 L934.662 562.494 L907.231 562.494 L907.231 557.575 Q910.559 554.132 916.288 548.345 Q922.046 542.529 923.522 540.851 Q926.328 537.697 927.428 535.527 Q928.556 533.328 928.556 531.216 Q928.556 527.772 926.126 525.602 Q923.724 523.432 919.847 523.432 Q917.098 523.432 914.031 524.387 Q910.993 525.342 907.521 527.28 L907.521 521.378 Q911.051 519.96 914.118 519.237 Q917.185 518.513 919.731 518.513 Q926.444 518.513 930.437 521.87 Q934.43 525.226 934.43 530.84 Q934.43 533.502 933.418 535.903 Q932.434 538.276 929.801 541.517 Q929.077 542.356 925.2 546.378 Q921.323 550.371 914.263 557.575 Z" fill="#000000" fill-rule="evenodd" fill-opacity="1"></path><path clip-path="url(#clip350)" d="M1167.55 836.153 L1177.1 836.153 L1177.1 803.196 L1166.71 805.279 L1166.71 799.955 L1177.04 797.872 L1182.89 797.872 L1182.89 836.153 L1192.44 836.153 L1192.44 841.072 L1167.55 841.072 L1167.55 836.153 Z" fill="#000000" fill-rule="evenodd" fill-opacity="1"></path><path clip-path="url(#clip350)" d="M1731 1354.36 L1751.4 1354.36 L1751.4 1359.28 L1723.97 1359.28 L1723.97 1354.36 Q1727.3 1350.92 1733.02 1345.13 Q1738.78 1339.32 1740.26 1337.64 Q1743.06 1334.49 1744.16 1332.32 Q1745.29 1330.12 1745.29 1328 Q1745.29 1324.56 1742.86 1322.39 Q1740.46 1320.22 1736.58 1320.22 Q1733.83 1320.22 1730.77 1321.18 Q1727.73 1322.13 1724.26 1324.07 L1724.26 1318.17 Q1727.79 1316.75 1730.85 1316.02 Q1733.92 1315.3 1736.47 1315.3 Q1743.18 1315.3 1747.17 1318.66 Q1751.17 1322.01 1751.17 1327.63 Q1751.17 1330.29 1750.15 1332.69 Q1749.17 1335.06 1746.54 1338.3 Q1745.81 1339.14 1741.94 1343.17 Q1738.06 1347.16 1731 1354.36 Z" fill="#000000" fill-rule="evenodd" fill-opacity="1"></path><path clip-path="url(#clip350)" d="M667.627 260.625 Q671.822 261.521 674.166 264.357 Q676.539 267.193 676.539 271.359 Q676.539 277.754 672.141 281.255 Q667.743 284.756 659.641 284.756 Q656.921 284.756 654.027 284.207 Q651.163 283.686 648.096 282.615 L648.096 276.973 Q650.526 278.391 653.42 279.114 Q656.313 279.837 659.467 279.837 Q664.965 279.837 667.829 277.667 Q670.723 275.497 670.723 271.359 Q670.723 267.54 668.032 265.399 Q665.37 263.229 660.596 263.229 L655.561 263.229 L655.561 258.425 L660.827 258.425 Q665.138 258.425 667.424 256.718 Q669.71 254.982 669.71 251.741 Q669.71 248.414 667.337 246.649 Q664.994 244.855 660.596 244.855 Q658.194 244.855 655.445 245.376 Q652.696 245.897 649.398 246.996 L649.398 241.788 Q652.725 240.862 655.619 240.399 Q658.541 239.936 661.116 239.936 Q667.771 239.936 671.649 242.974 Q675.526 245.983 675.526 251.134 Q675.526 254.722 673.472 257.21 Q671.417 259.67 667.627 260.625 Z" fill="#000000" fill-rule="evenodd" fill-opacity="1"></path></svg>