<svg xmlns="http://www.w3.org/2000/svg" xmlns:xlink="http://www.w3.org/1999/xlink" width="600" height="400" viewBox="0 0 2400 1600">
<defs>
  <clipPath id="clip440">
    <rect x="0" y="0" width="2400" height="1600"></rect>
  </clipPath>
</defs>
<path clip-path="url(#clip440)" d="M0 1600 L2400 1600 L2400 0 L0 0  Z" fill="#ffffff" fill-rule="evenodd" fill-opacity="1"></path>
<defs>
  <clipPath id="clip441">
    <rect x="480" y="0" width="1681" height="1600"></rect>
  </clipPath>
</defs>
<path clip-path="url(#clip440)" d="M447.244 1552.76 L1952.76 1552.76 L1952.76 47.2441 L447.244 47.2441  Z" fill="#ffffff" fill-rule="evenodd" fill-opacity="1"></path>
<defs>
  <clipPath id="clip442">
    <rect x="447" y="47" width="1507" height="1507"></rect>
  </clipPath>
</defs>
<polyline clip-path="url(#clip442)" style="stroke:#000000; stroke-linecap:round; stroke-linejoin:round; stroke-width:8; stroke-opacity:1; fill:none" points="1222.02,1337.68 1486.34,1063.81 "></polyline>
<polyline clip-path="url(#clip442)" style="stroke:#000000; stroke-linecap:round; stroke-linejoin:round; stroke-width:8; stroke-opacity:1; fill:none" points="1486.34,1063.81 1737.68,777.979 "></polyline>
<polyline clip-path="url(#clip442)" style="stroke:#000000; stroke-linecap:round; stroke-linejoin:round; stroke-width:8; stroke-opacity:1; fill:none" points="1222.02,1337.68 936.188,1086.34 "></polyline>
<polyline clip-path="url(#clip442)" style="stroke:#000000; stroke-linecap:round; stroke-linejoin:round; stroke-width:8; stroke-opacity:1; fill:none" points="1486.34,1063.81 1200,800 "></polyline>
<polyline clip-path="url(#clip442)" style="stroke:#000000; stroke-linecap:round; stroke-linejoin:round; stroke-width:8; stroke-opacity:1; fill:none" points="936.188,1086.34 1200,800 "></polyline>
<polyline clip-path="url(#clip442)" style="stroke:#000000; stroke-linecap:round; stroke-linejoin:round; stroke-width:8; stroke-opacity:1; fill:none" points="1737.68,777.979 1463.81,513.657 "></polyline>
<polyline clip-path="url(#clip442)" style="stroke:#000000; stroke-linecap:round; stroke-linejoin:round; stroke-width:8; stroke-opacity:1; fill:none" points="1200,800 1463.81,513.657 "></polyline>
<polyline clip-path="url(#clip442)" style="stroke:#000000; stroke-linecap:round; stroke-linejoin:round; stroke-width:8; stroke-opacity:1; fill:none" points="936.188,1086.34 662.317,822.021 "></polyline>
<polyline clip-path="url(#clip442)" style="stroke:#000000; stroke-linecap:round; stroke-linejoin:round; stroke-width:8; stroke-opacity:1; fill:none" points="1200,800 913.657,536.188 "></polyline>
<polyline clip-path="url(#clip442)" style="stroke:#000000; stroke-linecap:round; stroke-linejoin:round; stroke-width:8; stroke-opacity:1; fill:none" points="662.317,822.021 913.657,536.188 "></polyline>
<polyline clip-path="url(#clip442)" style="stroke:#000000; stroke-linecap:round; stroke-linejoin:round; stroke-width:8; stroke-opacity:1; fill:none" points="1463.81,513.657 1177.98,262.317 "></polyline>
<polyline clip-path="url(#clip442)" style="stroke:#000000; stroke-linecap:round; stroke-linejoin:round; stroke-width:8; stroke-opacity:1; fill:none" points="913.657,536.188 1177.98,262.317 "></polyline>
<path clip-path="url(#clip442)" d="M1256.39 1252.36 L1451.98 1252.36 L1451.98 1149.13 L1256.39 1149.13 L1256.39 1252.36 L1256.39 1252.36  Z" fill="#ffffff" fill-rule="evenodd" fill-opacity="1"></path>
<polyline clip-path="url(#clip442)" style="stroke:#000000; stroke-linecap:round; stroke-linejoin:round; stroke-width:8; stroke-opacity:0; fill:none" points="1256.39,1252.36 1451.98,1252.36 1451.98,1149.13 1256.39,1149.13 1256.39,1252.36 "></polyline>
<path clip-path="url(#clip442)" d="M1514.22 972.513 L1709.81 972.513 L1709.81 869.278 L1514.22 869.278 L1514.22 972.513 L1514.22 972.513  Z" fill="#ffffff" fill-rule="evenodd" fill-opacity="1"></path>
<polyline clip-path="url(#clip442)" style="stroke:#000000; stroke-linecap:round; stroke-linejoin:round; stroke-width:8; stroke-opacity:0; fill:none" points="1514.22,972.513 1709.81,972.513 1709.81,869.278 1514.22,869.278 1514.22,972.513 "></polyline>
<path clip-path="url(#clip442)" d="M981.308 1263.63 L1176.9 1263.63 L1176.9 1160.4 L981.308 1160.4 L981.308 1263.63 L981.308 1263.63  Z" fill="#ffffff" fill-rule="evenodd" fill-opacity="1"></path>
<polyline clip-path="url(#clip442)" style="stroke:#000000; stroke-linecap:round; stroke-linejoin:round; stroke-width:8; stroke-opacity:0; fill:none" points="981.308,1263.63 1176.9,1263.63 1176.9,1160.4 981.308,1160.4 981.308,1263.63 "></polyline>
<path clip-path="url(#clip442)" d="M1245.37 983.523 L1440.97 983.523 L1440.97 880.288 L1245.37 880.288 L1245.37 983.523 L1245.37 983.523  Z" fill="#ffffff" fill-rule="evenodd" fill-opacity="1"></path>
<polyline clip-path="url(#clip442)" style="stroke:#000000; stroke-linecap:round; stroke-linejoin:round; stroke-width:8; stroke-opacity:0; fill:none" points="1245.37,983.523 1440.97,983.523 1440.97,880.288 1245.37,880.288 1245.37,983.523 "></polyline>
<path clip-path="url(#clip442)" d="M970.297 994.789 L1165.89 994.789 L1165.89 891.554 L970.297 891.554 L970.297 994.789 L970.297 994.789  Z" fill="#ffffff" fill-rule="evenodd" fill-opacity="1"></path>
<polyline clip-path="url(#clip442)" style="stroke:#000000; stroke-linecap:round; stroke-linejoin:round; stroke-width:8; stroke-opacity:0; fill:none" points="970.297,994.789 1165.89,994.789 1165.89,891.554 970.297,891.554 970.297,994.789 "></polyline>
<path clip-path="url(#clip442)" d="M1502.95 697.435 L1698.54 697.435 L1698.54 594.2 L1502.95 594.2 L1502.95 697.435 L1502.95 697.435  Z" fill="#ffffff" fill-rule="evenodd" fill-opacity="1"></path>
<polyline clip-path="url(#clip442)" style="stroke:#000000; stroke-linecap:round; stroke-linejoin:round; stroke-width:8; stroke-opacity:0; fill:none" points="1502.95,697.435 1698.54,697.435 1698.54,594.2 1502.95,594.2 1502.95,697.435 "></polyline>
<path clip-path="url(#clip442)" d="M1234.11 708.446 L1429.7 708.446 L1429.7 605.211 L1234.11 605.211 L1234.11 708.446 L1234.11 708.446  Z" fill="#ffffff" fill-rule="evenodd" fill-opacity="1"></path>
<polyline clip-path="url(#clip442)" style="stroke:#000000; stroke-linecap:round; stroke-linejoin:round; stroke-width:8; stroke-opacity:0; fill:none" points="1234.11,708.446 1429.7,708.446 1429.7,605.211 1234.11,605.211 1234.11,708.446 "></polyline>
<path clip-path="url(#clip442)" d="M701.456 1005.8 L897.05 1005.8 L897.05 902.564 L701.456 902.564 L701.456 1005.8 L701.456 1005.8  Z" fill="#ffffff" fill-rule="evenodd" fill-opacity="1"></path>
<polyline clip-path="url(#clip442)" style="stroke:#000000; stroke-linecap:round; stroke-linejoin:round; stroke-width:8; stroke-opacity:0; fill:none" points="701.456,1005.8 897.05,1005.8 897.05,902.564 701.456,902.564 701.456,1005.8 "></polyline>
<path clip-path="url(#clip442)" d="M959.032 719.712 L1154.63 719.712 L1154.63 616.477 L959.032 616.477 L959.032 719.712 L959.032 719.712  Z" fill="#ffffff" fill-rule="evenodd" fill-opacity="1"></path>
<polyline clip-path="url(#clip442)" style="stroke:#000000; stroke-linecap:round; stroke-linejoin:round; stroke-width:8; stroke-opacity:0; fill:none" points="959.032,719.712 1154.63,719.712 1154.63,616.477 959.032,616.477 959.032,719.712 "></polyline>
<path clip-path="url(#clip442)" d="M690.19 730.722 L885.784 730.722 L885.784 627.487 L690.19 627.487 L690.19 730.722 L690.19 730.722  Z" fill="#ffffff" fill-rule="evenodd" fill-opacity="1"></path>
<polyline clip-path="url(#clip442)" style="stroke:#000000; stroke-linecap:round; stroke-linejoin:round; stroke-width:8; stroke-opacity:0; fill:none" points="690.19,730.722 885.784,730.722 885.784,627.487 690.19,627.487 690.19,730.722 "></polyline>
<path clip-path="url(#clip442)" d="M1223.1 439.604 L1418.69 439.604 L1418.69 336.369 L1223.1 336.369 L1223.1 439.604 L1223.1 439.604  Z" fill="#ffffff" fill-rule="evenodd" fill-opacity="1"></path>
<polyline clip-path="url(#clip442)" style="stroke:#000000; stroke-linecap:round; stroke-linejoin:round; stroke-width:8; stroke-opacity:0; fill:none" points="1223.1,439.604 1418.69,439.604 1418.69,336.369 1223.1,336.369 1223.1,439.604 "></polyline>
<path clip-path="url(#clip442)" d="M948.021 450.87 L1143.61 450.87 L1143.61 347.635 L948.021 347.635 L948.021 450.87 L948.021 450.87  Z" fill="#ffffff" fill-rule="evenodd" fill-opacity="1"></path>
<polyline clip-path="url(#clip442)" style="stroke:#000000; stroke-linecap:round; stroke-linejoin:round; stroke-width:8; stroke-opacity:0; fill:none" points="948.021,450.87 1143.61,450.87 1143.61,347.635 948.021,347.635 948.021,450.87 "></polyline>
<path clip-path="url(#clip442)" d="M1290.13 1337.68 L1289.91 1332.27 L1289.27 1326.89 L1288.2 1321.59 L1286.71 1316.38 L1284.81 1311.31 L1282.52 1306.4 L1279.84 1301.69 L1276.8 1297.21 L1273.41 1292.99 L1269.7 1289.05 L1265.68 1285.41 L1261.39 1282.11 L1256.85 1279.16 L1252.09 1276.58 L1247.14 1274.38 L1242.03 1272.58 L1236.8 1271.2 L1231.47 1270.23 L1226.08 1269.7 L1220.67 1269.59 L1215.26 1269.91 L1209.9 1270.66 L1204.61 1271.84 L1199.44 1273.43 L1194.4 1275.43 L1189.54 1277.82 L1184.89 1280.59 L1180.47 1283.72 L1176.31 1287.19 L1172.45 1290.98 L1168.89 1295.07 L1165.68 1299.42 L1162.81 1304.02 L1160.33 1308.83 L1158.23 1313.82 L1156.54 1318.97 L1155.26 1324.23 L1154.4 1329.58 L1153.97 1334.98 L1153.97 1340.39 L1154.4 1345.79 L1155.26 1351.14 L1156.54 1356.4 L1158.23 1361.54 L1160.33 1366.53 L1162.81 1371.34 L1165.68 1375.94 L1168.89 1380.3 L1172.45 1384.38 L1176.31 1388.17 L1180.47 1391.65 L1184.89 1394.78 L1189.54 1397.55 L1194.4 1399.94 L1199.44 1401.94 L1204.61 1403.53 L1209.9 1404.7 L1215.26 1405.45 L1220.67 1405.78 L1226.08 1405.67 L1231.47 1405.13 L1236.8 1404.17 L1242.03 1402.78 L1247.14 1400.99 L1252.09 1398.79 L1256.85 1396.21 L1261.39 1393.26 L1265.68 1389.95 L1269.7 1386.32 L1273.41 1382.38 L1276.8 1378.15 L1279.84 1373.67 L1282.52 1368.96 L1284.81 1364.06 L1286.71 1358.99 L1288.2 1353.78 L1289.27 1348.47 L1289.91 1343.09 L1290.13 1337.68 L1290.13 1337.68  Z" fill="#ff0000" fill-rule="evenodd" fill-opacity="1"></path>
<polyline clip-path="url(#clip442)" style="stroke:#000000; stroke-linecap:round; stroke-linejoin:round; stroke-width:8; stroke-opacity:1; fill:none" points="1290.13,1337.68 1289.91,1332.27 1289.27,1326.89 1288.2,1321.59 1286.71,1316.38 1284.81,1311.31 1282.52,1306.4 1279.84,1301.69 1276.8,1297.21 1273.41,1292.99 1269.7,1289.05 1265.68,1285.41 1261.39,1282.11 1256.85,1279.16 1252.09,1276.58 1247.14,1274.38 1242.03,1272.58 1236.8,1271.2 1231.47,1270.23 1226.08,1269.7 1220.67,1269.59 1215.26,1269.91 1209.9,1270.66 1204.61,1271.84 1199.44,1273.43 1194.4,1275.43 1189.54,1277.82 1184.89,1280.59 1180.47,1283.72 1176.31,1287.19 1172.45,1290.98 1168.89,1295.07 1165.68,1299.42 1162.81,1304.02 1160.33,1308.83 1158.23,1313.82 1156.54,1318.97 1155.26,1324.23 1154.4,1329.58 1153.97,1334.98 1153.97,1340.39 1154.4,1345.79 1155.26,1351.14 1156.54,1356.4 1158.23,1361.54 1160.33,1366.53 1162.81,1371.34 1165.68,1375.94 1168.89,1380.3 1172.45,1384.38 1176.31,1388.17 1180.47,1391.65 1184.89,1394.78 1189.54,1397.55 1194.4,1399.94 1199.44,1401.94 1204.61,1403.53 1209.9,1404.7 1215.26,1405.45 1220.67,1405.78 1226.08,1405.67 1231.47,1405.13 1236.8,1404.17 1242.03,1402.78 1247.14,1400.99 1252.09,1398.79 1256.85,1396.21 1261.39,1393.26 1265.68,1389.95 1269.7,1386.32 1273.41,1382.38 1276.8,1378.15 1279.84,1373.67 1282.52,1368.96 1284.81,1364.06 1286.71,1358.99 1288.2,1353.78 1289.27,1348.47 1289.91,1343.09 1290.13,1337.68 "></polyline>
<path clip-path="url(#clip442)" d="M1554.45 1063.81 L1554.23 1058.4 L1553.59 1053.02 L1552.52 1047.72 L1551.03 1042.51 L1549.14 1037.44 L1546.84 1032.53 L1544.16 1027.82 L1541.12 1023.34 L1537.73 1019.12 L1534.02 1015.18 L1530.01 1011.54 L1525.72 1008.24 L1521.18 1005.29 L1516.42 1002.7 L1511.47 1000.51 L1506.36 998.712 L1501.12 997.328 L1495.79 996.364 L1490.4 995.826 L1484.99 995.719 L1479.58 996.042 L1474.22 996.793 L1468.93 997.968 L1463.76 999.559 L1458.72 1001.56 L1453.87 1003.95 L1449.21 1006.72 L1444.79 1009.85 L1440.64 1013.32 L1436.77 1017.11 L1433.22 1021.2 L1430 1025.55 L1427.14 1030.15 L1424.65 1034.96 L1422.55 1039.95 L1420.86 1045.1 L1419.58 1050.36 L1418.72 1055.71 L1418.29 1061.1 L1418.29 1066.52 L1418.72 1071.92 L1419.58 1077.26 L1420.86 1082.53 L1422.55 1087.67 L1424.65 1092.66 L1427.14 1097.47 L1430 1102.07 L1433.22 1106.43 L1436.77 1110.51 L1440.64 1114.3 L1444.79 1117.78 L1449.21 1120.91 L1453.87 1123.68 L1458.72 1126.07 L1463.76 1128.06 L1468.93 1129.66 L1474.22 1130.83 L1479.58 1131.58 L1484.99 1131.9 L1490.4 1131.8 L1495.79 1131.26 L1501.12 1130.3 L1506.36 1128.91 L1511.47 1127.12 L1516.42 1124.92 L1521.18 1122.34 L1525.72 1119.38 L1530.01 1116.08 L1534.02 1112.45 L1537.73 1108.5 L1541.12 1104.28 L1544.16 1099.8 L1546.84 1095.09 L1549.14 1090.19 L1551.03 1085.12 L1552.52 1079.91 L1553.59 1074.6 L1554.23 1069.22 L1554.45 1063.81 L1554.45 1063.81  Z" fill="#d3d3d3" fill-rule="evenodd" fill-opacity="1"></path>
<polyline clip-path="url(#clip442)" style="stroke:#000000; stroke-linecap:round; stroke-linejoin:round; stroke-width:8; stroke-opacity:1; fill:none" points="1554.45,1063.81 1554.23,1058.4 1553.59,1053.02 1552.52,1047.72 1551.03,1042.51 1549.14,1037.44 1546.84,1032.53 1544.16,1027.82 1541.12,1023.34 1537.73,1019.12 1534.02,1015.18 1530.01,1011.54 1525.72,1008.24 1521.18,1005.29 1516.42,1002.7 1511.47,1000.51 1506.36,998.712 1501.12,997.328 1495.79,996.364 1490.4,995.826 1484.99,995.719 1479.58,996.042 1474.22,996.793 1468.93,997.968 1463.76,999.559 1458.72,1001.56 1453.87,1003.95 1449.21,1006.72 1444.79,1009.85 1440.64,1013.32 1436.77,1017.11 1433.22,1021.2 1430,1025.55 1427.14,1030.15 1424.65,1034.96 1422.55,1039.95 1420.86,1045.1 1419.58,1050.36 1418.72,1055.71 1418.29,1061.1 1418.29,1066.52 1418.72,1071.92 1419.58,1077.26 1420.86,1082.53 1422.55,1087.67 1424.65,1092.66 1427.14,1097.47 1430,1102.07 1433.22,1106.43 1436.77,1110.51 1440.64,1114.3 1444.79,1117.78 1449.21,1120.91 1453.87,1123.68 1458.72,1126.07 1463.76,1128.06 1468.93,1129.66 1474.22,1130.83 1479.58,1131.58 1484.99,1131.9 1490.4,1131.8 1495.79,1131.26 1501.12,1130.3 1506.36,1128.91 1511.47,1127.12 1516.42,1124.92 1521.18,1122.34 1525.72,1119.38 1530.01,1116.08 1534.02,1112.45 1537.73,1108.5 1541.12,1104.28 1544.16,1099.8 1546.84,1095.09 1549.14,1090.19 1551.03,1085.12 1552.52,1079.91 1553.59,1074.6 1554.23,1069.22 1554.45,1063.81 "></polyline>
<path clip-path="url(#clip442)" d="M1805.79 777.979 L1805.57 772.568 L1804.93 767.191 L1803.86 761.883 L1802.37 756.676 L1800.47 751.603 L1798.18 746.698 L1795.5 741.99 L1792.46 737.51 L1789.07 733.286 L1785.36 729.344 L1781.35 725.71 L1777.05 722.406 L1772.51 719.454 L1767.75 716.871 L1762.8 714.675 L1757.7 712.879 L1752.46 711.495 L1747.13 710.531 L1741.74 709.994 L1736.33 709.886 L1730.92 710.209 L1725.56 710.96 L1720.27 712.135 L1715.1 713.727 L1710.06 715.724 L1705.21 718.115 L1700.55 720.885 L1696.13 724.015 L1691.98 727.487 L1688.11 731.278 L1684.56 735.364 L1681.34 739.72 L1678.48 744.318 L1675.99 749.128 L1673.89 754.121 L1672.2 759.264 L1670.92 764.526 L1670.06 769.873 L1669.63 775.271 L1669.63 780.687 L1670.06 786.085 L1670.92 791.432 L1672.2 796.694 L1673.89 801.838 L1675.99 806.83 L1678.48 811.641 L1681.34 816.238 L1684.56 820.594 L1688.11 824.68 L1691.98 828.471 L1696.13 831.943 L1700.55 835.073 L1705.21 837.843 L1710.06 840.234 L1715.1 842.232 L1720.27 843.823 L1725.56 844.998 L1730.92 845.749 L1736.33 846.072 L1741.74 845.965 L1747.13 845.427 L1752.46 844.463 L1757.7 843.079 L1762.8 841.283 L1767.75 839.087 L1772.51 836.505 L1777.05 833.552 L1781.35 830.248 L1785.36 826.614 L1789.07 822.672 L1792.46 818.448 L1795.5 813.968 L1798.18 809.26 L1800.47 804.355 L1802.37 799.283 L1803.86 794.076 L1804.93 788.767 L1805.57 783.39 L1805.79 777.979 L1805.79 777.979  Z" fill="#d3d3d3" fill-rule="evenodd" fill-opacity="1"></path>
<polyline clip-path="url(#clip442)" style="stroke:#000000; stroke-linecap:round; stroke-linejoin:round; stroke-width:8; stroke-opacity:1; fill:none" points="1805.79,777.979 1805.57,772.568 1804.93,767.191 1803.86,761.883 1802.37,756.676 1800.47,751.603 1798.18,746.698 1795.5,741.99 1792.46,737.51 1789.07,733.286 1785.36,729.344 1781.35,725.71 1777.05,722.406 1772.51,719.454 1767.75,716.871 1762.8,714.675 1757.7,712.879 1752.46,711.495 1747.13,710.531 1741.74,709.994 1736.33,709.886 1730.92,710.209 1725.56,710.96 1720.27,712.135 1715.1,713.727 1710.06,715.724 1705.21,718.115 1700.55,720.885 1696.13,724.015 1691.98,727.487 1688.11,731.278 1684.56,735.364 1681.34,739.72 1678.48,744.318 1675.99,749.128 1673.89,754.121 1672.2,759.264 1670.92,764.526 1670.06,769.873 1669.63,775.271 1669.63,780.687 1670.06,786.085 1670.92,791.432 1672.2,796.694 1673.89,801.838 1675.99,806.83 1678.48,811.641 1681.34,816.238 1684.56,820.594 1688.11,824.68 1691.98,828.471 1696.13,831.943 1700.55,835.073 1705.21,837.843 1710.06,840.234 1715.1,842.232 1720.27,843.823 1725.56,844.998 1730.92,845.749 1736.33,846.072 1741.74,845.965 1747.13,845.427 1752.46,844.463 1757.7,843.079 1762.8,841.283 1767.75,839.087 1772.51,836.505 1777.05,833.552 1781.35,830.248 1785.36,826.614 1789.07,822.672 1792.46,818.448 1795.5,813.968 1798.18,809.26 1800.47,804.355 1802.37,799.283 1803.86,794.076 1804.93,788.767 1805.57,783.39 1805.79,777.979 "></polyline>
<path clip-path="url(#clip442)" d="M1004.29 1086.34 L1004.08 1080.93 L1003.44 1075.56 L1002.37 1070.25 L1000.88 1065.04 L998.98 1059.97 L996.686 1055.06 L994.01 1050.35 L990.968 1045.87 L987.579 1041.65 L983.866 1037.71 L979.851 1034.07 L975.56 1030.77 L971.02 1027.82 L966.261 1025.24 L961.31 1023.04 L956.202 1021.24 L950.966 1019.86 L945.637 1018.9 L940.249 1018.36 L934.834 1018.25 L929.429 1018.57 L924.066 1019.32 L918.779 1020.5 L913.603 1022.09 L908.569 1024.09 L903.711 1026.48 L899.057 1029.25 L894.638 1032.38 L890.482 1035.85 L886.615 1039.64 L883.061 1043.73 L879.844 1048.08 L876.982 1052.68 L874.495 1057.49 L872.398 1062.48 L870.704 1067.63 L869.424 1072.89 L868.566 1078.24 L868.136 1083.64 L868.136 1089.05 L868.566 1094.45 L869.424 1099.8 L870.704 1105.06 L872.398 1110.2 L874.495 1115.19 L876.982 1120 L879.844 1124.6 L883.061 1128.96 L886.615 1133.04 L890.482 1136.84 L894.638 1140.31 L899.057 1143.44 L903.711 1146.21 L908.569 1148.6 L913.603 1150.6 L918.779 1152.19 L924.066 1153.36 L929.429 1154.11 L934.834 1154.44 L940.249 1154.33 L945.637 1153.79 L950.966 1152.83 L956.202 1151.44 L961.31 1149.65 L966.261 1147.45 L971.02 1144.87 L975.56 1141.92 L979.851 1138.61 L983.866 1134.98 L987.579 1131.04 L990.968 1126.81 L994.01 1122.33 L996.686 1117.62 L998.98 1112.72 L1000.88 1107.65 L1002.37 1102.44 L1003.44 1097.13 L1004.08 1091.75 L1004.29 1086.34 L1004.29 1086.34  Z" fill="#ff0000" fill-rule="evenodd" fill-opacity="1"></path>
<polyline clip-path="url(#clip442)" style="stroke:#000000; stroke-linecap:round; stroke-linejoin:round; stroke-width:8; stroke-opacity:1; fill:none" points="1004.29,1086.34 1004.08,1080.93 1003.44,1075.56 1002.37,1070.25 1000.88,1065.04 998.98,1059.97 996.686,1055.06 994.01,1050.35 990.968,1045.87 987.579,1041.65 983.866,1037.71 979.851,1034.07 975.56,1030.77 971.02,1027.82 966.261,1025.24 961.31,1023.04 956.202,1021.24 950.966,1019.86 945.637,1018.9 940.249,1018.36 934.834,1018.25 929.429,1018.57 924.066,1019.32 918.779,1020.5 913.603,1022.09 908.569,1024.09 903.711,1026.48 899.057,1029.25 894.638,1032.38 890.482,1035.85 886.615,1039.64 883.061,1043.73 879.844,1048.08 876.982,1052.68 874.495,1057.49 872.398,1062.48 870.704,1067.63 869.424,1072.89 868.566,1078.24 868.136,1083.64 868.136,1089.05 868.566,1094.45 869.424,1099.8 870.704,1105.06 872.398,1110.2 874.495,1115.19 876.982,1120 879.844,1124.6 883.061,1128.96 886.615,1133.04 890.482,1136.84 894.638,1140.31 899.057,1143.44 903.711,1146.21 908.569,1148.6 913.603,1150.6 918.779,1152.19 924.066,1153.36 929.429,1154.11 934.834,1154.44 940.249,1154.33 945.637,1153.79 950.966,1152.83 956.202,1151.44 961.31,1149.65 966.261,1147.45 971.02,1144.87 975.56,1141.92 979.851,1138.61 983.866,1134.98 987.579,1131.04 990.968,1126.81 994.01,1122.33 996.686,1117.62 998.98,1112.72 1000.88,1107.65 1002.37,1102.44 1003.44,1097.13 1004.08,1091.75 1004.29,1086.34 "></polyline>
<path clip-path="url(#clip442)" d="M1268.11 800 L1267.89 794.589 L1267.25 789.212 L1266.18 783.903 L1264.69 778.697 L1262.79 773.624 L1260.5 768.719 L1257.82 764.011 L1254.78 759.531 L1251.39 755.307 L1247.68 751.365 L1243.66 747.731 L1239.37 744.427 L1234.83 741.475 L1230.07 738.892 L1225.12 736.696 L1220.01 734.9 L1214.78 733.516 L1209.45 732.552 L1204.06 732.015 L1198.65 731.907 L1193.24 732.23 L1187.88 732.981 L1182.59 734.156 L1177.41 735.747 L1172.38 737.745 L1167.52 740.136 L1162.87 742.906 L1158.45 746.036 L1154.29 749.508 L1150.43 753.299 L1146.87 757.385 L1143.66 761.741 L1140.79 766.338 L1138.31 771.149 L1136.21 776.142 L1134.52 781.285 L1133.24 786.547 L1132.38 791.894 L1131.95 797.292 L1131.95 802.708 L1132.38 808.106 L1133.24 813.453 L1134.52 818.715 L1136.21 823.858 L1138.31 828.851 L1140.79 833.662 L1143.66 838.259 L1146.87 842.615 L1150.43 846.701 L1154.29 850.492 L1158.45 853.964 L1162.87 857.094 L1167.52 859.864 L1172.38 862.255 L1177.41 864.253 L1182.59 865.844 L1187.88 867.019 L1193.24 867.77 L1198.65 868.093 L1204.06 867.985 L1209.45 867.448 L1214.78 866.484 L1220.01 865.1 L1225.12 863.304 L1230.07 861.108 L1234.83 858.525 L1239.37 855.573 L1243.66 852.269 L1247.68 848.635 L1251.39 844.693 L1254.78 840.469 L1257.82 835.989 L1260.5 831.281 L1262.79 826.376 L1264.69 821.304 L1266.18 816.097 L1267.25 810.788 L1267.89 805.411 L1268.11 800 L1268.11 800  Z" fill="#d3d3d3" fill-rule="evenodd" fill-opacity="1"></path>
<polyline clip-path="url(#clip442)" style="stroke:#000000; stroke-linecap:round; stroke-linejoin:round; stroke-width:8; stroke-opacity:1; fill:none" points="1268.11,800 1267.89,794.589 1267.25,789.212 1266.18,783.903 1264.69,778.697 1262.79,773.624 1260.5,768.719 1257.82,764.011 1254.78,759.531 1251.39,755.307 1247.68,751.365 1243.66,747.731 1239.37,744.427 1234.83,741.475 1230.07,738.892 1225.12,736.696 1220.01,734.9 1214.78,733.516 1209.45,732.552 1204.06,732.015 1198.65,731.907 1193.24,732.23 1187.88,732.981 1182.59,734.156 1177.41,735.747 1172.38,737.745 1167.52,740.136 1162.87,742.906 1158.45,746.036 1154.29,749.508 1150.43,753.299 1146.87,757.385 1143.66,761.741 1140.79,766.338 1138.31,771.149 1136.21,776.142 1134.52,781.285 1133.24,786.547 1132.38,791.894 1131.95,797.292 1131.95,802.708 1132.38,808.106 1133.24,813.453 1134.52,818.715 1136.21,823.858 1138.31,828.851 1140.79,833.662 1143.66,838.259 1146.87,842.615 1150.43,846.701 1154.29,850.492 1158.45,853.964 1162.87,857.094 1167.52,859.864 1172.38,862.255 1177.41,864.253 1182.59,865.844 1187.88,867.019 1193.24,867.77 1198.65,868.093 1204.06,867.985 1209.45,867.448 1214.78,866.484 1220.01,865.1 1225.12,863.304 1230.07,861.108 1234.83,858.525 1239.37,855.573 1243.66,852.269 1247.68,848.635 1251.39,844.693 1254.78,840.469 1257.82,835.989 1260.5,831.281 1262.79,826.376 1264.69,821.304 1266.18,816.097 1267.25,810.788 1267.89,805.411 1268.11,800 "></polyline>
<path clip-path="url(#clip442)" d="M1531.92 513.657 L1531.7 508.246 L1531.06 502.869 L1529.99 497.56 L1528.5 492.353 L1526.6 487.281 L1524.31 482.376 L1521.63 477.668 L1518.59 473.188 L1515.2 468.963 L1511.49 465.022 L1507.47 461.388 L1503.18 458.084 L1498.64 455.131 L1493.88 452.549 L1488.93 450.353 L1483.82 448.557 L1478.59 447.173 L1473.26 446.209 L1467.87 445.671 L1462.46 445.564 L1457.05 445.887 L1451.69 446.638 L1446.4 447.813 L1441.23 449.404 L1436.19 451.402 L1431.33 453.793 L1426.68 456.562 L1422.26 459.693 L1418.11 463.165 L1414.24 466.956 L1410.68 471.042 L1407.47 475.398 L1404.61 479.995 L1402.12 484.805 L1400.02 489.798 L1398.33 494.942 L1397.05 500.204 L1396.19 505.551 L1395.76 510.949 L1395.76 516.364 L1396.19 521.763 L1397.05 527.11 L1398.33 532.372 L1400.02 537.515 L1402.12 542.508 L1404.61 547.318 L1407.47 551.916 L1410.68 556.271 L1414.24 560.358 L1418.11 564.149 L1422.26 567.62 L1426.68 570.751 L1431.33 573.521 L1436.19 575.912 L1441.23 577.909 L1446.4 579.501 L1451.69 580.676 L1457.05 581.427 L1462.46 581.75 L1467.87 581.642 L1473.26 581.105 L1478.59 580.141 L1483.82 578.756 L1488.93 576.961 L1493.88 574.764 L1498.64 572.182 L1503.18 569.23 L1507.47 565.926 L1511.49 562.292 L1515.2 558.35 L1518.59 554.126 L1521.63 549.645 L1524.31 544.938 L1526.6 540.032 L1528.5 534.96 L1529.99 529.753 L1531.06 524.445 L1531.7 519.068 L1531.92 513.657 L1531.92 513.657  Z" fill="#d3d3d3" fill-rule="evenodd" fill-opacity="1"></path>
<polyline clip-path="url(#clip442)" style="stroke:#000000; stroke-linecap:round; stroke-linejoin:round; stroke-width:8; stroke-opacity:1; fill:none" points="1531.92,513.657 1531.7,508.246 1531.06,502.869 1529.99,497.56 1528.5,492.353 1526.6,487.281 1524.31,482.376 1521.63,477.668 1518.59,473.188 1515.2,468.963 1511.49,465.022 1507.47,461.388 1503.18,458.084 1498.64,455.131 1493.88,452.549 1488.93,450.353 1483.82,448.557 1478.59,447.173 1473.26,446.209 1467.87,445.671 1462.46,445.564 1457.05,445.887 1451.69,446.638 1446.4,447.813 1441.23,449.404 1436.19,451.402 1431.33,453.793 1426.68,456.562 1422.26,459.693 1418.11,463.165 1414.24,466.956 1410.68,471.042 1407.47,475.398 1404.61,479.995 1402.12,484.805 1400.02,489.798 1398.33,494.942 1397.05,500.204 1396.19,505.551 1395.76,510.949 1395.76,516.364 1396.19,521.763 1397.05,527.11 1398.33,532.372 1400.02,537.515 1402.12,542.508 1404.61,547.318 1407.47,551.916 1410.68,556.271 1414.24,560.358 1418.11,564.149 1422.26,567.62 1426.68,570.751 1431.33,573.521 1436.19,575.912 1441.23,577.909 1446.4,579.501 1451.69,580.676 1457.05,581.427 1462.46,581.75 1467.87,581.642 1473.26,581.105 1478.59,580.141 1483.82,578.756 1488.93,576.961 1493.88,574.764 1498.64,572.182 1503.18,569.23 1507.47,565.926 1511.49,562.292 1515.2,558.35 1518.59,554.126 1521.63,549.645 1524.31,544.938 1526.6,540.032 1528.5,534.96 1529.99,529.753 1531.06,524.445 1531.7,519.068 1531.92,513.657 "></polyline>
<path clip-path="url(#clip442)" d="M730.424 822.021 L730.208 816.61 L729.564 811.233 L728.494 805.924 L727.006 800.717 L725.109 795.645 L722.815 790.74 L720.138 786.032 L717.096 781.552 L713.708 777.328 L709.995 773.386 L705.98 769.752 L701.689 766.448 L697.149 763.495 L692.389 760.913 L687.439 758.717 L682.33 756.921 L677.095 755.537 L671.766 754.573 L666.377 754.035 L660.963 753.928 L655.557 754.251 L650.194 755.002 L644.908 756.177 L639.732 757.768 L634.698 759.766 L629.839 762.157 L625.186 764.926 L620.767 768.057 L616.611 771.529 L612.744 775.32 L609.19 779.406 L605.972 783.762 L603.111 788.359 L600.624 793.17 L598.526 798.162 L596.832 803.306 L595.553 808.568 L594.695 813.915 L594.265 819.313 L594.265 824.728 L594.695 830.127 L595.553 835.474 L596.832 840.736 L598.526 845.879 L600.624 850.872 L603.111 855.682 L605.972 860.28 L609.19 864.636 L612.744 868.722 L616.611 872.513 L620.767 875.985 L625.186 879.115 L629.839 881.885 L634.698 884.276 L639.732 886.273 L644.908 887.865 L650.194 889.04 L655.557 889.791 L660.963 890.114 L666.377 890.006 L671.766 889.469 L677.095 888.505 L682.33 887.12 L687.439 885.325 L692.389 883.129 L697.149 880.546 L701.689 877.594 L705.98 874.29 L709.995 870.656 L713.708 866.714 L717.096 862.49 L720.138 858.01 L722.815 853.302 L725.109 848.396 L727.006 843.324 L728.494 838.117 L729.564 832.809 L730.208 827.432 L730.424 822.021 L730.424 822.021  Z" fill="#ff0000" fill-rule="evenodd" fill-opacity="1"></path>
<polyline clip-path="url(#clip442)" style="stroke:#000000; stroke-linecap:round; stroke-linejoin:round; stroke-width:8; stroke-opacity:1; fill:none" points="730.424,822.021 730.208,816.61 729.564,811.233 728.494,805.924 727.006,800.717 725.109,795.645 722.815,790.74 720.138,786.032 717.096,781.552 713.708,777.328 709.995,773.386 705.98,769.752 701.689,766.448 697.149,763.495 692.389,760.913 687.439,758.717 682.33,756.921 677.095,755.537 671.766,754.573 666.377,754.035 660.963,753.928 655.557,754.251 650.194,755.002 644.908,756.177 639.732,757.768 634.698,759.766 629.839,762.157 625.186,764.926 620.767,768.057 616.611,771.529 612.744,775.32 609.19,779.406 605.972,783.762 603.111,788.359 600.624,793.17 598.526,798.162 596.832,803.306 595.553,808.568 594.695,813.915 594.265,819.313 594.265,824.728 594.695,830.127 595.553,835.474 596.832,840.736 598.526,845.879 600.624,850.872 603.111,855.682 605.972,860.28 609.19,864.636 612.744,868.722 616.611,872.513 620.767,875.985 625.186,879.115 629.839,881.885 634.698,884.276 639.732,886.273 644.908,887.865 650.194,889.04 655.557,889.791 660.963,890.114 666.377,890.006 671.766,889.469 677.095,888.505 682.33,887.12 687.439,885.325 692.389,883.129 697.149,880.546 701.689,877.594 705.98,874.29 709.995,870.656 713.708,866.714 717.096,862.49 720.138,858.01 722.815,853.302 725.109,848.396 727.006,843.324 728.494,838.117 729.564,832.809 730.208,827.432 730.424,822.021 "></polyline>
<path clip-path="url(#clip442)" d="M981.763 536.188 L981.548 530.777 L980.904 525.401 L979.834 520.092 L978.346 514.885 L976.449 509.813 L974.155 504.907 L971.478 500.2 L968.436 495.719 L965.048 491.495 L961.334 487.553 L957.319 483.919 L953.029 480.615 L948.489 477.663 L943.729 475.081 L938.779 472.885 L933.67 471.089 L928.434 469.704 L923.106 468.741 L917.717 468.203 L912.303 468.095 L906.897 468.418 L901.534 469.17 L896.248 470.345 L891.071 471.936 L886.038 473.933 L881.179 476.325 L876.526 479.094 L872.107 482.225 L867.951 485.696 L864.084 489.487 L860.53 493.574 L857.312 497.929 L854.45 502.527 L851.963 507.337 L849.866 512.33 L848.172 517.474 L846.892 522.736 L846.034 528.083 L845.604 533.481 L845.604 538.896 L846.034 544.294 L846.892 549.641 L848.172 554.903 L849.866 560.047 L851.963 565.04 L854.45 569.85 L857.312 574.448 L860.53 578.803 L864.084 582.889 L867.951 586.68 L872.107 590.152 L876.526 593.283 L881.179 596.052 L886.038 598.443 L891.071 600.441 L896.248 602.032 L901.534 603.207 L906.897 603.959 L912.303 604.281 L917.717 604.174 L923.106 603.636 L928.434 602.672 L933.67 601.288 L938.779 599.492 L943.729 597.296 L948.489 594.714 L953.029 591.761 L957.319 588.458 L961.334 584.823 L965.048 580.882 L968.436 576.657 L971.478 572.177 L974.155 567.47 L976.449 562.564 L978.346 557.492 L979.834 552.285 L980.904 546.976 L981.548 541.6 L981.763 536.188 L981.763 536.188  Z" fill="#ff0000" fill-rule="evenodd" fill-opacity="1"></path>
<polyline clip-path="url(#clip442)" style="stroke:#000000; stroke-linecap:round; stroke-linejoin:round; stroke-width:8; stroke-opacity:1; fill:none" points="981.763,536.188 981.548,530.777 980.904,525.401 979.834,520.092 978.346,514.885 976.449,509.813 974.155,504.907 971.478,500.2 968.436,495.719 965.048,491.495 961.334,487.553 957.319,483.919 953.029,480.615 948.489,477.663 943.729,475.081 938.779,472.885 933.67,471.089 928.434,469.704 923.106,468.741 917.717,468.203 912.303,468.095 906.897,468.418 901.534,469.17 896.248,470.345 891.071,471.936 886.038,473.933 881.179,476.325 876.526,479.094 872.107,482.225 867.951,485.696 864.084,489.487 860.53,493.574 857.312,497.929 854.45,502.527 851.963,507.337 849.866,512.33 848.172,517.474 846.892,522.736 846.034,528.083 845.604,533.481 845.604,538.896 846.034,544.294 846.892,549.641 848.172,554.903 849.866,560.047 851.963,565.04 854.45,569.85 857.312,574.448 860.53,578.803 864.084,582.889 867.951,586.68 872.107,590.152 876.526,593.283 881.179,596.052 886.038,598.443 891.071,600.441 896.248,602.032 901.534,603.207 906.897,603.959 912.303,604.281 917.717,604.174 923.106,603.636 928.434,602.672 933.67,601.288 938.779,599.492 943.729,597.296 948.489,594.714 953.029,591.761 957.319,588.458 961.334,584.823 965.048,580.882 968.436,576.657 971.478,572.177 974.155,567.47 976.449,562.564 978.346,557.492 979.834,552.285 980.904,546.976 981.548,541.6 981.763,536.188 "></polyline>
<path clip-path="url(#clip442)" d="M1246.09 262.317 L1245.87 256.906 L1245.23 251.529 L1244.16 246.221 L1242.67 241.014 L1240.77 235.942 L1238.48 231.036 L1235.8 226.328 L1232.76 221.848 L1229.37 217.624 L1225.66 213.682 L1221.64 210.048 L1217.35 206.744 L1212.81 203.792 L1208.05 201.209 L1203.1 199.013 L1197.99 197.218 L1192.76 195.833 L1187.43 194.869 L1182.04 194.332 L1176.63 194.224 L1171.22 194.547 L1165.86 195.298 L1160.57 196.473 L1155.39 198.065 L1150.36 200.062 L1145.5 202.453 L1140.85 205.223 L1136.43 208.353 L1132.27 211.825 L1128.41 215.616 L1124.85 219.702 L1121.63 224.058 L1118.77 228.656 L1116.29 233.466 L1114.19 238.459 L1112.49 243.602 L1111.21 248.864 L1110.36 254.211 L1109.93 259.61 L1109.93 265.025 L1110.36 270.423 L1111.21 275.77 L1112.49 281.032 L1114.19 286.176 L1116.29 291.168 L1118.77 295.979 L1121.63 300.576 L1124.85 304.932 L1128.41 309.018 L1132.27 312.809 L1136.43 316.281 L1140.85 319.412 L1145.5 322.181 L1150.36 324.572 L1155.39 326.57 L1160.57 328.161 L1165.86 329.336 L1171.22 330.087 L1176.63 330.41 L1182.04 330.303 L1187.43 329.765 L1192.76 328.801 L1197.99 327.417 L1203.1 325.621 L1208.05 323.425 L1212.81 320.843 L1217.35 317.89 L1221.64 314.586 L1225.66 310.952 L1229.37 307.01 L1232.76 302.786 L1235.8 298.306 L1238.48 293.598 L1240.77 288.693 L1242.67 283.621 L1244.16 278.414 L1245.23 273.105 L1245.87 267.728 L1246.09 262.317 L1246.09 262.317  Z" fill="#ff0000" fill-rule="evenodd" fill-opacity="1"></path>
<polyline clip-path="url(#clip442)" style="stroke:#000000; stroke-linecap:round; stroke-linejoin:round; stroke-width:8; stroke-opacity:1; fill:none" points="1246.09,262.317 1245.87,256.906 1245.23,251.529 1244.16,246.221 1242.67,241.014 1240.77,235.942 1238.48,231.036 1235.8,226.328 1232.76,221.848 1229.37,217.624 1225.66,213.682 1221.64,210.048 1217.35,206.744 1212.81,203.792 1208.05,201.209 1203.1,199.013 1197.99,197.218 1192.76,195.833 1187.43,194.869 1182.04,194.332 1176.63,194.224 1171.22,194.547 1165.86,195.298 1160.57,196.473 1155.39,198.065 1150.36,200.062 1145.5,202.453 1140.85,205.223 1136.43,208.353 1132.27,211.825 1128.41,215.616 1124.85,219.702 1121.63,224.058 1118.77,228.656 1116.29,233.466 1114.19,238.459 1112.49,243.602 1111.21,248.864 1110.36,254.211 1109.93,259.61 1109.93,265.025 1110.36,270.423 1111.21,275.77 1112.49,281.032 1114.19,286.176 1116.29,291.168 1118.77,295.979 1121.63,300.576 1124.85,304.932 1128.41,309.018 1132.27,312.809 1136.43,316.281 1140.85,319.412 1145.5,322.181 1150.36,324.572 1155.39,326.57 1160.57,328.161 1165.86,329.336 1171.22,330.087 1176.63,330.41 1182.04,330.303 1187.43,329.765 1192.76,328.801 1197.99,327.417 1203.1,325.621 1208.05,323.425 1212.81,320.843 1217.35,317.89 1221.64,314.586 1225.66,310.952 1229.37,307.01 1232.76,302.786 1235.8,298.306 1238.48,293.598 1240.77,288.693 1242.67,283.621 1244.16,278.414 1245.23,273.105 1245.87,267.728 1246.09,262.317 "></polyline>
<circle clip-path="url(#clip442)" cx="1222.02" cy="1337.68" r="0.9" fill="#ff0000" fill-rule="evenodd" fill-opacity="1" stroke="#000000" stroke-opacity="1" stroke-width="6.4"></circle>
<circle clip-path="url(#clip442)" cx="1486.34" cy="1063.81" r="0.9" fill="#ff0000" fill-rule="evenodd" fill-opacity="1" stroke="#000000" stroke-opacity="1" stroke-width="6.4"></circle>
<circle clip-path="url(#clip442)" cx="1737.68" cy="777.979" r="0.9" fill="#ff0000" fill-rule="evenodd" fill-opacity="1" stroke="#000000" stroke-opacity="1" stroke-width="6.4"></circle>
<circle clip-path="url(#clip442)" cx="936.188" cy="1086.34" r="0.9" fill="#ff0000" fill-rule="evenodd" fill-opacity="1" stroke="#000000" stroke-opacity="1" stroke-width="6.4"></circle>
<circle clip-path="url(#clip442)" cx="1200" cy="800" r="0.9" fill="#ff0000" fill-rule="evenodd" fill-opacity="1" stroke="#000000" stroke-opacity="1" stroke-width="6.4"></circle>
<circle clip-path="url(#clip442)" cx="1463.81" cy="513.657" r="0.9" fill="#ff0000" fill-rule="evenodd" fill-opacity="1" stroke="#000000" stroke-opacity="1" stroke-width="6.4"></circle>
<circle clip-path="url(#clip442)" cx="662.317" cy="822.021" r="0.9" fill="#ff0000" fill-rule="evenodd" fill-opacity="1" stroke="#000000" stroke-opacity="1" stroke-width="6.4"></circle>
<circle clip-path="url(#clip442)" cx="913.657" cy="536.188" r="0.9" fill="#ff0000" fill-rule="evenodd" fill-opacity="1" stroke="#000000" stroke-opacity="1" stroke-width="6.4"></circle>
<circle clip-path="url(#clip442)" cx="1177.98" cy="262.317" r="0.9" fill="#ff0000" fill-rule="evenodd" fill-opacity="1" stroke="#000000" stroke-opacity="1" stroke-width="6.4"></circle>
<path clip-path="url(#clip440)" d="M1308.06 1183 Q1303.55 1183 1301.26 1187.45 Q1299 1191.88 1299 1200.79 Q1299 1209.67 1301.26 1214.13 Q1303.55 1218.56 1308.06 1218.56 Q1312.6 1218.56 1314.86 1214.13 Q1317.15 1209.67 1317.15 1200.79 Q1317.15 1191.88 1314.86 1187.45 Q1312.6 1183 1308.06 1183 M1308.06 1178.37 Q1315.32 1178.37 1319.14 1184.12 Q1322.99 1189.85 1322.99 1200.79 Q1322.99 1211.7 1319.14 1217.46 Q1315.32 1223.19 1308.06 1223.19 Q1300.8 1223.19 1296.95 1217.46 Q1293.13 1211.7 1293.13 1200.79 Q1293.13 1189.85 1296.95 1184.12 Q1300.8 1178.37 1308.06 1178.37 Z" fill="#000000" fill-rule="evenodd" fill-opacity="1"></path><path clip-path="url(#clip440)" d="M1333.26 1215 L1339.37 1215 L1339.37 1222.35 L1333.26 1222.35 L1333.26 1215 Z" fill="#000000" fill-rule="evenodd" fill-opacity="1"></path><path clip-path="url(#clip440)" d="M1364.6 1201.83 Q1360.43 1201.83 1358.03 1204.06 Q1355.66 1206.29 1355.66 1210.19 Q1355.66 1214.1 1358.03 1216.33 Q1360.43 1218.56 1364.6 1218.56 Q1368.77 1218.56 1371.17 1216.33 Q1373.57 1214.07 1373.57 1210.19 Q1373.57 1206.29 1371.17 1204.06 Q1368.79 1201.83 1364.6 1201.83 M1358.75 1199.34 Q1354.99 1198.42 1352.88 1195.84 Q1350.8 1193.27 1350.8 1189.56 Q1350.8 1184.38 1354.47 1181.38 Q1358.18 1178.37 1364.6 1178.37 Q1371.05 1178.37 1374.73 1181.38 Q1378.4 1184.38 1378.4 1189.56 Q1378.4 1193.27 1376.29 1195.84 Q1374.21 1198.42 1370.47 1199.34 Q1374.7 1200.33 1377.04 1203.19 Q1379.41 1206.06 1379.41 1210.19 Q1379.41 1216.47 1375.57 1219.83 Q1371.75 1223.19 1364.6 1223.19 Q1357.45 1223.19 1353.6 1219.83 Q1349.78 1216.47 1349.78 1210.19 Q1349.78 1206.06 1352.16 1203.19 Q1354.53 1200.33 1358.75 1199.34 M1356.61 1190.11 Q1356.61 1193.47 1358.7 1195.35 Q1360.81 1197.23 1364.6 1197.23 Q1368.36 1197.23 1370.47 1195.35 Q1372.61 1193.47 1372.61 1190.11 Q1372.61 1186.76 1370.47 1184.88 Q1368.36 1183 1364.6 1183 Q1360.81 1183 1358.7 1184.88 Q1356.61 1186.76 1356.61 1190.11 Z" fill="#000000" fill-rule="evenodd" fill-opacity="1"></path><path clip-path="url(#clip440)" d="M1394.84 1217.43 L1415.23 1217.43 L1415.23 1222.35 L1387.8 1222.35 L1387.8 1217.43 Q1391.13 1213.99 1396.86 1208.2 Q1402.62 1202.38 1404.09 1200.7 Q1406.9 1197.55 1408 1195.38 Q1409.13 1193.18 1409.13 1191.07 Q1409.13 1187.63 1406.7 1185.46 Q1404.3 1183.28 1400.42 1183.28 Q1397.67 1183.28 1394.6 1184.24 Q1391.57 1185.19 1388.09 1187.13 L1388.09 1181.23 Q1391.62 1179.81 1394.69 1179.09 Q1397.76 1178.37 1400.3 1178.37 Q1407.02 1178.37 1411.01 1181.72 Q1415 1185.08 1415 1190.69 Q1415 1193.35 1413.99 1195.76 Q1413.01 1198.13 1410.37 1201.37 Q1409.65 1202.21 1405.77 1206.23 Q1401.9 1210.22 1394.84 1217.43 Z" fill="#000000" fill-rule="evenodd" fill-opacity="1"></path><path clip-path="url(#clip440)" d="M1564.79 903.144 Q1560.28 903.144 1557.99 907.6 Q1555.73 912.027 1555.73 920.939 Q1555.73 929.822 1557.99 934.278 Q1560.28 938.705 1564.79 938.705 Q1569.33 938.705 1571.59 934.278 Q1573.88 929.822 1573.88 920.939 Q1573.88 912.027 1571.59 907.6 Q1569.33 903.144 1564.79 903.144 M1564.79 898.514 Q1572.05 898.514 1575.87 904.272 Q1579.72 910.001 1579.72 920.939 Q1579.72 931.847 1575.87 937.605 Q1572.05 943.335 1564.79 943.335 Q1557.53 943.335 1553.68 937.605 Q1549.86 931.847 1549.86 920.939 Q1549.86 910.001 1553.68 904.272 Q1557.53 898.514 1564.79 898.514 Z" fill="#000000" fill-rule="evenodd" fill-opacity="1"></path><path clip-path="url(#clip440)" d="M1589.99 935.146 L1596.1 935.146 L1596.1 942.495 L1589.99 942.495 L1589.99 935.146 Z" fill="#000000" fill-rule="evenodd" fill-opacity="1"></path><path clip-path="url(#clip440)" d="M1624.89 904.388 L1610.13 927.449 L1624.89 927.449 L1624.89 904.388 M1623.36 899.295 L1630.71 899.295 L1630.71 927.449 L1636.87 927.449 L1636.87 932.31 L1630.71 932.31 L1630.71 942.495 L1624.89 942.495 L1624.89 932.31 L1605.39 932.31 L1605.39 926.668 L1623.36 899.295 Z" fill="#000000" fill-rule="evenodd" fill-opacity="1"></path><path clip-path="url(#clip440)" d="M1659.76 918.566 Q1655.82 918.566 1653.51 921.257 Q1651.22 923.948 1651.22 928.636 Q1651.22 933.294 1653.51 936.014 Q1655.82 938.705 1659.76 938.705 Q1663.69 938.705 1665.98 936.014 Q1668.29 933.294 1668.29 928.636 Q1668.29 923.948 1665.98 921.257 Q1663.69 918.566 1659.76 918.566 M1671.36 900.25 L1671.36 905.574 Q1669.16 904.533 1666.9 903.983 Q1664.67 903.433 1662.48 903.433 Q1656.69 903.433 1653.62 907.339 Q1650.58 911.246 1650.15 919.145 Q1651.86 916.628 1654.43 915.297 Q1657.01 913.937 1660.1 913.937 Q1666.61 913.937 1670.38 917.901 Q1674.17 921.836 1674.17 928.636 Q1674.17 935.291 1670.23 939.313 Q1666.3 943.335 1659.76 943.335 Q1652.26 943.335 1648.3 937.605 Q1644.33 931.847 1644.33 920.939 Q1644.33 910.696 1649.19 904.619 Q1654.06 898.514 1662.24 898.514 Q1664.44 898.514 1666.67 898.948 Q1668.93 899.382 1671.36 900.25 Z" fill="#000000" fill-rule="evenodd" fill-opacity="1"></path><path clip-path="url(#clip440)" d="M1032.39 1194.26 Q1027.88 1194.26 1025.59 1198.72 Q1023.33 1203.14 1023.33 1212.06 Q1023.33 1220.94 1025.59 1225.4 Q1027.88 1229.82 1032.39 1229.82 Q1036.93 1229.82 1039.19 1225.4 Q1041.47 1220.94 1041.47 1212.06 Q1041.47 1203.14 1039.19 1198.72 Q1036.93 1194.26 1032.39 1194.26 M1032.39 1189.63 Q1039.65 1189.63 1043.47 1195.39 Q1047.32 1201.12 1047.32 1212.06 Q1047.32 1222.96 1043.47 1228.72 Q1039.65 1234.45 1032.39 1234.45 Q1025.13 1234.45 1021.28 1228.72 Q1017.46 1222.96 1017.46 1212.06 Q1017.46 1201.12 1021.28 1195.39 Q1025.13 1189.63 1032.39 1189.63 Z" fill="#000000" fill-rule="evenodd" fill-opacity="1"></path><path clip-path="url(#clip440)" d="M1057.59 1226.26 L1063.7 1226.26 L1063.7 1233.61 L1057.59 1233.61 L1057.59 1226.26 Z" fill="#000000" fill-rule="evenodd" fill-opacity="1"></path><path clip-path="url(#clip440)" d="M1088.93 1213.1 Q1084.76 1213.1 1082.36 1215.33 Q1079.99 1217.55 1079.99 1221.46 Q1079.99 1225.37 1082.36 1227.59 Q1084.76 1229.82 1088.93 1229.82 Q1093.09 1229.82 1095.5 1227.59 Q1097.9 1225.34 1097.9 1221.46 Q1097.9 1217.55 1095.5 1215.33 Q1093.12 1213.1 1088.93 1213.1 M1083.08 1210.61 Q1079.32 1209.68 1077.21 1207.11 Q1075.13 1204.53 1075.13 1200.83 Q1075.13 1195.65 1078.8 1192.64 Q1082.5 1189.63 1088.93 1189.63 Q1095.38 1189.63 1099.06 1192.64 Q1102.73 1195.65 1102.73 1200.83 Q1102.73 1204.53 1100.62 1207.11 Q1098.53 1209.68 1094.8 1210.61 Q1099.03 1211.59 1101.37 1214.46 Q1103.74 1217.32 1103.74 1221.46 Q1103.74 1227.74 1099.89 1231.1 Q1096.07 1234.45 1088.93 1234.45 Q1081.78 1234.45 1077.93 1231.1 Q1074.11 1227.74 1074.11 1221.46 Q1074.11 1217.32 1076.49 1214.46 Q1078.86 1211.59 1083.08 1210.61 M1080.94 1201.38 Q1080.94 1204.74 1083.03 1206.62 Q1085.14 1208.5 1088.93 1208.5 Q1092.69 1208.5 1094.8 1206.62 Q1096.94 1204.74 1096.94 1201.38 Q1096.94 1198.02 1094.8 1196.14 Q1092.69 1194.26 1088.93 1194.26 Q1085.14 1194.26 1083.03 1196.14 Q1080.94 1198.02 1080.94 1201.38 Z" fill="#000000" fill-rule="evenodd" fill-opacity="1"></path><path clip-path="url(#clip440)" d="M1131.84 1210.32 Q1136.03 1211.22 1138.38 1214.05 Q1140.75 1216.89 1140.75 1221.06 Q1140.75 1227.45 1136.35 1230.95 Q1131.95 1234.45 1123.85 1234.45 Q1121.13 1234.45 1118.24 1233.9 Q1115.37 1233.38 1112.31 1232.31 L1112.31 1226.67 Q1114.74 1228.09 1117.63 1228.81 Q1120.53 1229.53 1123.68 1229.53 Q1129.18 1229.53 1132.04 1227.36 Q1134.93 1225.19 1134.93 1221.06 Q1134.93 1217.24 1132.24 1215.09 Q1129.58 1212.92 1124.81 1212.92 L1119.77 1212.92 L1119.77 1208.12 L1125.04 1208.12 Q1129.35 1208.12 1131.64 1206.41 Q1133.92 1204.68 1133.92 1201.44 Q1133.92 1198.11 1131.55 1196.34 Q1129.21 1194.55 1124.81 1194.55 Q1122.41 1194.55 1119.66 1195.07 Q1116.91 1195.59 1113.61 1196.69 L1113.61 1191.48 Q1116.94 1190.56 1119.83 1190.09 Q1122.75 1189.63 1125.33 1189.63 Q1131.98 1189.63 1135.86 1192.67 Q1139.74 1195.68 1139.74 1200.83 Q1139.74 1204.42 1137.68 1206.91 Q1135.63 1209.37 1131.84 1210.32 Z" fill="#000000" fill-rule="evenodd" fill-opacity="1"></path><path clip-path="url(#clip440)" d="M1296.11 914.154 Q1291.6 914.154 1289.31 918.61 Q1287.05 923.037 1287.05 931.949 Q1287.05 940.832 1289.31 945.288 Q1291.6 949.715 1296.11 949.715 Q1300.65 949.715 1302.91 945.288 Q1305.19 940.832 1305.19 931.949 Q1305.19 923.037 1302.91 918.61 Q1300.65 914.154 1296.11 914.154 M1296.11 909.525 Q1303.37 909.525 1307.19 915.283 Q1311.04 921.012 1311.04 931.949 Q1311.04 942.858 1307.19 948.616 Q1303.37 954.345 1296.11 954.345 Q1288.85 954.345 1285 948.616 Q1281.18 942.858 1281.18 931.949 Q1281.18 921.012 1285 915.283 Q1288.85 909.525 1296.11 909.525 Z" fill="#000000" fill-rule="evenodd" fill-opacity="1"></path><path clip-path="url(#clip440)" d="M1321.31 946.156 L1327.42 946.156 L1327.42 953.506 L1321.31 953.506 L1321.31 946.156 Z" fill="#000000" fill-rule="evenodd" fill-opacity="1"></path><path clip-path="url(#clip440)" d="M1340.32 952.609 L1340.32 947.285 Q1342.52 948.327 1344.78 948.876 Q1347.03 949.426 1349.2 949.426 Q1354.99 949.426 1358.03 945.549 Q1361.1 941.643 1361.53 933.714 Q1359.85 936.203 1357.28 937.534 Q1354.7 938.865 1351.58 938.865 Q1345.1 938.865 1341.31 934.959 Q1337.54 931.023 1337.54 924.224 Q1337.54 917.569 1341.48 913.547 Q1345.41 909.525 1351.95 909.525 Q1359.45 909.525 1363.38 915.283 Q1367.35 921.012 1367.35 931.949 Q1367.35 942.163 1362.49 948.269 Q1357.65 954.345 1349.47 954.345 Q1347.27 954.345 1345.01 953.911 Q1342.75 953.477 1340.32 952.609 M1351.95 934.293 Q1355.89 934.293 1358.17 931.602 Q1360.49 928.911 1360.49 924.224 Q1360.49 919.565 1358.17 916.874 Q1355.89 914.154 1351.95 914.154 Q1348.02 914.154 1345.7 916.874 Q1343.42 919.565 1343.42 924.224 Q1343.42 928.911 1345.7 931.602 Q1348.02 934.293 1351.95 934.293 Z" fill="#000000" fill-rule="evenodd" fill-opacity="1"></path><path clip-path="url(#clip440)" d="M1390.35 932.991 Q1386.18 932.991 1383.78 935.219 Q1381.41 937.447 1381.41 941.353 Q1381.41 945.259 1383.78 947.487 Q1386.18 949.715 1390.35 949.715 Q1394.52 949.715 1396.92 947.487 Q1399.32 945.23 1399.32 941.353 Q1399.32 937.447 1396.92 935.219 Q1394.55 932.991 1390.35 932.991 M1384.51 930.503 Q1380.74 929.577 1378.63 927.001 Q1376.55 924.426 1376.55 920.722 Q1376.55 915.543 1380.22 912.534 Q1383.93 909.525 1390.35 909.525 Q1396.8 909.525 1400.48 912.534 Q1404.15 915.543 1404.15 920.722 Q1404.15 924.426 1402.04 927.001 Q1399.96 929.577 1396.22 930.503 Q1400.45 931.486 1402.79 934.351 Q1405.17 937.215 1405.17 941.353 Q1405.17 947.632 1401.32 950.989 Q1397.5 954.345 1390.35 954.345 Q1383.2 954.345 1379.36 950.989 Q1375.54 947.632 1375.54 941.353 Q1375.54 937.215 1377.91 934.351 Q1380.28 931.486 1384.51 930.503 M1382.36 921.272 Q1382.36 924.629 1384.45 926.51 Q1386.56 928.39 1390.35 928.39 Q1394.11 928.39 1396.22 926.51 Q1398.37 924.629 1398.37 921.272 Q1398.37 917.916 1396.22 916.035 Q1394.11 914.154 1390.35 914.154 Q1386.56 914.154 1384.45 916.035 Q1382.36 917.916 1382.36 921.272 Z" fill="#000000" fill-rule="evenodd" fill-opacity="1"></path><path clip-path="url(#clip440)" d="M1021.6 925.42 Q1017.08 925.42 1014.8 929.876 Q1012.54 934.303 1012.54 943.215 Q1012.54 952.098 1014.8 956.554 Q1017.08 960.981 1021.6 960.981 Q1026.14 960.981 1028.4 956.554 Q1030.68 952.098 1030.68 943.215 Q1030.68 934.303 1028.4 929.876 Q1026.14 925.42 1021.6 925.42 M1021.6 920.79 Q1028.86 920.79 1032.68 926.548 Q1036.53 932.278 1036.53 943.215 Q1036.53 954.124 1032.68 959.882 Q1028.86 965.611 1021.6 965.611 Q1014.33 965.611 1010.48 959.882 Q1006.67 954.124 1006.67 943.215 Q1006.67 932.278 1010.48 926.548 Q1014.33 920.79 1021.6 920.79 Z" fill="#000000" fill-rule="evenodd" fill-opacity="1"></path><path clip-path="url(#clip440)" d="M1046.8 957.422 L1052.9 957.422 L1052.9 964.772 L1046.8 964.772 L1046.8 957.422 Z" fill="#000000" fill-rule="evenodd" fill-opacity="1"></path><path clip-path="url(#clip440)" d="M1065.69 921.572 L1088.64 921.572 L1088.64 926.491 L1071.05 926.491 L1071.05 937.081 Q1072.32 936.647 1073.59 936.444 Q1074.87 936.213 1076.14 936.213 Q1083.37 936.213 1087.6 940.177 Q1091.82 944.141 1091.82 950.912 Q1091.82 957.885 1087.48 961.762 Q1083.14 965.611 1075.24 965.611 Q1072.52 965.611 1069.69 965.148 Q1066.88 964.685 1063.87 963.759 L1063.87 957.885 Q1066.47 959.303 1069.25 959.997 Q1072.03 960.692 1075.13 960.692 Q1080.13 960.692 1083.05 958.059 Q1085.98 955.426 1085.98 950.912 Q1085.98 946.398 1083.05 943.765 Q1080.13 941.132 1075.13 941.132 Q1072.78 941.132 1070.44 941.653 Q1068.12 942.173 1065.69 943.273 L1065.69 921.572 Z" fill="#000000" fill-rule="evenodd" fill-opacity="1"></path><path clip-path="url(#clip440)" d="M1103.4 921.572 L1126.34 921.572 L1126.34 926.491 L1108.75 926.491 L1108.75 937.081 Q1110.02 936.647 1111.29 936.444 Q1112.57 936.213 1113.84 936.213 Q1121.07 936.213 1125.3 940.177 Q1129.52 944.141 1129.52 950.912 Q1129.52 957.885 1125.18 961.762 Q1120.84 965.611 1112.94 965.611 Q1110.22 965.611 1107.39 965.148 Q1104.58 964.685 1101.57 963.759 L1101.57 957.885 Q1104.18 959.303 1106.95 959.997 Q1109.73 960.692 1112.83 960.692 Q1117.83 960.692 1120.76 958.059 Q1123.68 955.426 1123.68 950.912 Q1123.68 946.398 1120.76 943.765 Q1117.83 941.132 1112.83 941.132 Q1110.48 941.132 1108.14 941.653 Q1105.83 942.173 1103.4 943.273 L1103.4 921.572 Z" fill="#000000" fill-rule="evenodd" fill-opacity="1"></path><path clip-path="url(#clip440)" d="M1553.74 628.066 Q1549.23 628.066 1546.94 632.522 Q1544.69 636.949 1544.69 645.861 Q1544.69 654.744 1546.94 659.2 Q1549.23 663.627 1553.74 663.627 Q1558.29 663.627 1560.54 659.2 Q1562.83 654.744 1562.83 645.861 Q1562.83 636.949 1560.54 632.522 Q1558.29 628.066 1553.74 628.066 M1553.74 623.437 Q1561 623.437 1564.82 629.195 Q1568.67 634.924 1568.67 645.861 Q1568.67 656.77 1564.82 662.528 Q1561 668.257 1553.74 668.257 Q1546.48 668.257 1542.63 662.528 Q1538.81 656.77 1538.81 645.861 Q1538.81 634.924 1542.63 629.195 Q1546.48 623.437 1553.74 623.437 Z" fill="#000000" fill-rule="evenodd" fill-opacity="1"></path><path clip-path="url(#clip440)" d="M1578.94 660.068 L1585.05 660.068 L1585.05 667.418 L1578.94 667.418 L1578.94 660.068 Z" fill="#000000" fill-rule="evenodd" fill-opacity="1"></path><path clip-path="url(#clip440)" d="M1597.95 666.521 L1597.95 661.197 Q1600.15 662.239 1602.41 662.788 Q1604.67 663.338 1606.84 663.338 Q1612.63 663.338 1615.66 659.461 Q1618.73 655.555 1619.16 647.626 Q1617.49 650.115 1614.91 651.446 Q1612.34 652.777 1609.21 652.777 Q1602.73 652.777 1598.94 648.871 Q1595.18 644.935 1595.18 638.136 Q1595.18 631.481 1599.11 627.459 Q1603.05 623.437 1609.59 623.437 Q1617.08 623.437 1621.02 629.195 Q1624.98 634.924 1624.98 645.861 Q1624.98 656.075 1620.12 662.181 Q1615.29 668.257 1607.1 668.257 Q1604.9 668.257 1602.64 667.823 Q1600.39 667.389 1597.95 666.521 M1609.59 648.205 Q1613.52 648.205 1615.81 645.514 Q1618.12 642.823 1618.12 638.136 Q1618.12 633.477 1615.81 630.786 Q1613.52 628.066 1609.59 628.066 Q1605.65 628.066 1603.34 630.786 Q1601.05 633.477 1601.05 638.136 Q1601.05 642.823 1603.34 645.514 Q1605.65 648.205 1609.59 648.205 Z" fill="#000000" fill-rule="evenodd" fill-opacity="1"></path><path clip-path="url(#clip440)" d="M1635.66 666.521 L1635.66 661.197 Q1637.86 662.239 1640.11 662.788 Q1642.37 663.338 1644.54 663.338 Q1650.33 663.338 1653.37 659.461 Q1656.43 655.555 1656.87 647.626 Q1655.19 650.115 1652.61 651.446 Q1650.04 652.777 1646.91 652.777 Q1640.43 652.777 1636.64 648.871 Q1632.88 644.935 1632.88 638.136 Q1632.88 631.481 1636.81 627.459 Q1640.75 623.437 1647.29 623.437 Q1654.78 623.437 1658.72 629.195 Q1662.68 634.924 1662.68 645.861 Q1662.68 656.075 1657.82 662.181 Q1652.99 668.257 1644.8 668.257 Q1642.6 668.257 1640.34 667.823 Q1638.09 667.389 1635.66 666.521 M1647.29 648.205 Q1651.22 648.205 1653.51 645.514 Q1655.83 642.823 1655.83 638.136 Q1655.83 633.477 1653.51 630.786 Q1651.22 628.066 1647.29 628.066 Q1643.35 628.066 1641.04 630.786 Q1638.75 633.477 1638.75 638.136 Q1638.75 642.823 1641.04 645.514 Q1643.35 648.205 1647.29 648.205 Z" fill="#000000" fill-rule="evenodd" fill-opacity="1"></path><path clip-path="url(#clip440)" d="M1285.35 639.077 Q1280.84 639.077 1278.55 643.533 Q1276.29 647.96 1276.29 656.872 Q1276.29 665.755 1278.55 670.211 Q1280.84 674.638 1285.35 674.638 Q1289.89 674.638 1292.15 670.211 Q1294.44 665.755 1294.44 656.872 Q1294.44 647.96 1292.15 643.533 Q1289.89 639.077 1285.35 639.077 M1285.35 634.447 Q1292.61 634.447 1296.43 640.205 Q1300.28 645.934 1300.28 656.872 Q1300.28 667.78 1296.43 673.538 Q1292.61 679.267 1285.35 679.267 Q1278.09 679.267 1274.24 673.538 Q1270.42 667.78 1270.42 656.872 Q1270.42 645.934 1274.24 640.205 Q1278.09 634.447 1285.35 634.447 Z" fill="#000000" fill-rule="evenodd" fill-opacity="1"></path><path clip-path="url(#clip440)" d="M1310.55 671.079 L1316.66 671.079 L1316.66 678.428 L1310.55 678.428 L1310.55 671.079 Z" fill="#000000" fill-rule="evenodd" fill-opacity="1"></path><path clip-path="url(#clip440)" d="M1345.45 640.321 L1330.69 663.382 L1345.45 663.382 L1345.45 640.321 M1343.91 635.228 L1351.26 635.228 L1351.26 663.382 L1357.43 663.382 L1357.43 668.243 L1351.26 668.243 L1351.26 678.428 L1345.45 678.428 L1345.45 668.243 L1325.95 668.243 L1325.95 662.601 L1343.91 635.228 Z" fill="#000000" fill-rule="evenodd" fill-opacity="1"></path><path clip-path="url(#clip440)" d="M1365.62 635.228 L1393.39 635.228 L1393.39 637.717 L1377.71 678.428 L1371.6 678.428 L1386.36 640.147 L1365.62 640.147 L1365.62 635.228 Z" fill="#000000" fill-rule="evenodd" fill-opacity="1"></path><path clip-path="url(#clip440)" d="M752.899 936.43 Q748.385 936.43 746.099 940.886 Q743.842 945.313 743.842 954.225 Q743.842 963.108 746.099 967.564 Q748.385 971.991 752.899 971.991 Q757.442 971.991 759.699 967.564 Q761.984 963.108 761.984 954.225 Q761.984 945.313 759.699 940.886 Q757.442 936.43 752.899 936.43 M752.899 931.801 Q760.162 931.801 763.981 937.559 Q767.829 943.288 767.829 954.225 Q767.829 965.134 763.981 970.892 Q760.162 976.621 752.899 976.621 Q745.636 976.621 741.788 970.892 Q737.968 965.134 737.968 954.225 Q737.968 943.288 741.788 937.559 Q745.636 931.801 752.899 931.801 Z" fill="#000000" fill-rule="evenodd" fill-opacity="1"></path><path clip-path="url(#clip440)" d="M778.101 968.432 L784.207 968.432 L784.207 975.782 L778.101 975.782 L778.101 968.432 Z" fill="#000000" fill-rule="evenodd" fill-opacity="1"></path><path clip-path="url(#clip440)" d="M796.996 932.582 L819.941 932.582 L819.941 937.501 L802.349 937.501 L802.349 948.091 Q803.622 947.657 804.895 947.455 Q806.168 947.223 807.441 947.223 Q814.675 947.223 818.9 951.187 Q823.124 955.151 823.124 961.922 Q823.124 968.895 818.784 972.773 Q814.444 976.621 806.544 976.621 Q803.825 976.621 800.989 976.158 Q798.182 975.695 795.173 974.769 L795.173 968.895 Q797.777 970.313 800.555 971.008 Q803.333 971.702 806.429 971.702 Q811.434 971.702 814.357 969.069 Q817.279 966.436 817.279 961.922 Q817.279 957.408 814.357 954.775 Q811.434 952.142 806.429 952.142 Q804.085 952.142 801.741 952.663 Q799.426 953.184 796.996 954.283 L796.996 932.582 Z" fill="#000000" fill-rule="evenodd" fill-opacity="1"></path><path clip-path="url(#clip440)" d="M835.653 970.863 L845.202 970.863 L845.202 937.906 L834.814 939.989 L834.814 934.665 L845.144 932.582 L850.989 932.582 L850.989 970.863 L860.537 970.863 L860.537 975.782 L835.653 975.782 L835.653 970.863 Z" fill="#000000" fill-rule="evenodd" fill-opacity="1"></path><path clip-path="url(#clip440)" d="M1010.27 650.343 Q1005.76 650.343 1003.47 654.799 Q1001.22 659.226 1001.22 668.138 Q1001.22 677.021 1003.47 681.477 Q1005.76 685.904 1010.27 685.904 Q1014.81 685.904 1017.07 681.477 Q1019.36 677.021 1019.36 668.138 Q1019.36 659.226 1017.07 654.799 Q1014.81 650.343 1010.27 650.343 M1010.27 645.713 Q1017.53 645.713 1021.35 651.471 Q1025.2 657.2 1025.2 668.138 Q1025.2 679.046 1021.35 684.804 Q1017.53 690.533 1010.27 690.533 Q1003.01 690.533 999.161 684.804 Q995.342 679.046 995.342 668.138 Q995.342 657.2 999.161 651.471 Q1003.01 645.713 1010.27 645.713 Z" fill="#000000" fill-rule="evenodd" fill-opacity="1"></path><path clip-path="url(#clip440)" d="M1035.47 682.345 L1041.58 682.345 L1041.58 689.694 L1035.47 689.694 L1035.47 682.345 Z" fill="#000000" fill-rule="evenodd" fill-opacity="1"></path><path clip-path="url(#clip440)" d="M1052.84 646.494 L1080.61 646.494 L1080.61 648.983 L1064.93 689.694 L1058.83 689.694 L1073.58 651.413 L1052.84 651.413 L1052.84 646.494 Z" fill="#000000" fill-rule="evenodd" fill-opacity="1"></path><path clip-path="url(#clip440)" d="M1090.54 646.494 L1118.32 646.494 L1118.32 648.983 L1102.63 689.694 L1096.53 689.694 L1111.28 651.413 L1090.54 651.413 L1090.54 646.494 Z" fill="#000000" fill-rule="evenodd" fill-opacity="1"></path><path clip-path="url(#clip440)" d="M740.982 661.353 Q736.468 661.353 734.182 665.809 Q731.925 670.236 731.925 679.148 Q731.925 688.031 734.182 692.487 Q736.468 696.914 740.982 696.914 Q745.525 696.914 747.782 692.487 Q750.068 688.031 750.068 679.148 Q750.068 670.236 747.782 665.809 Q745.525 661.353 740.982 661.353 M740.982 656.723 Q748.245 656.723 752.064 662.481 Q755.913 668.211 755.913 679.148 Q755.913 690.057 752.064 695.815 Q748.245 701.544 740.982 701.544 Q733.719 701.544 729.871 695.815 Q726.052 690.057 726.052 679.148 Q726.052 668.211 729.871 662.481 Q733.719 656.723 740.982 656.723 Z" fill="#000000" fill-rule="evenodd" fill-opacity="1"></path><path clip-path="url(#clip440)" d="M766.184 693.355 L772.29 693.355 L772.29 700.705 L766.184 700.705 L766.184 693.355 Z" fill="#000000" fill-rule="evenodd" fill-opacity="1"></path><path clip-path="url(#clip440)" d="M797.521 661.353 Q793.007 661.353 790.721 665.809 Q788.464 670.236 788.464 679.148 Q788.464 688.031 790.721 692.487 Q793.007 696.914 797.521 696.914 Q802.064 696.914 804.321 692.487 Q806.607 688.031 806.607 679.148 Q806.607 670.236 804.321 665.809 Q802.064 661.353 797.521 661.353 M797.521 656.723 Q804.784 656.723 808.603 662.481 Q812.452 668.211 812.452 679.148 Q812.452 690.057 808.603 695.815 Q804.784 701.544 797.521 701.544 Q790.258 701.544 786.41 695.815 Q782.591 690.057 782.591 679.148 Q782.591 668.211 786.41 662.481 Q790.258 656.723 797.521 656.723 Z" fill="#000000" fill-rule="evenodd" fill-opacity="1"></path><path clip-path="url(#clip440)" d="M822.897 699.808 L822.897 694.484 Q825.096 695.525 827.353 696.075 Q829.61 696.625 831.78 696.625 Q837.567 696.625 840.605 692.747 Q843.672 688.841 844.107 680.913 Q842.428 683.401 839.853 684.732 Q837.278 686.063 834.153 686.063 Q827.671 686.063 823.881 682.157 Q820.119 678.222 820.119 671.422 Q820.119 664.767 824.055 660.745 Q827.99 656.723 834.529 656.723 Q842.023 656.723 845.958 662.481 Q849.922 668.211 849.922 679.148 Q849.922 689.362 845.061 695.467 Q840.229 701.544 832.041 701.544 Q829.842 701.544 827.585 701.11 Q825.328 700.676 822.897 699.808 M834.529 681.492 Q838.464 681.492 840.75 678.801 Q843.065 676.11 843.065 671.422 Q843.065 666.764 840.75 664.073 Q838.464 661.353 834.529 661.353 Q830.594 661.353 828.279 664.073 Q825.993 666.764 825.993 671.422 Q825.993 676.11 828.279 678.801 Q830.594 681.492 834.529 681.492 Z" fill="#000000" fill-rule="evenodd" fill-opacity="1"></path><path clip-path="url(#clip440)" d="M1273.83 370.235 Q1269.32 370.235 1267.03 374.691 Q1264.78 379.118 1264.78 388.03 Q1264.78 396.913 1267.03 401.369 Q1269.32 405.796 1273.83 405.796 Q1278.38 405.796 1280.63 401.369 Q1282.92 396.913 1282.92 388.03 Q1282.92 379.118 1280.63 374.691 Q1278.38 370.235 1273.83 370.235 M1273.83 365.606 Q1281.1 365.606 1284.91 371.364 Q1288.76 377.093 1288.76 388.03 Q1288.76 398.939 1284.91 404.697 Q1281.1 410.426 1273.83 410.426 Q1266.57 410.426 1262.72 404.697 Q1258.9 398.939 1258.9 388.03 Q1258.9 377.093 1262.72 371.364 Q1266.57 365.606 1273.83 365.606 Z" fill="#000000" fill-rule="evenodd" fill-opacity="1"></path><path clip-path="url(#clip440)" d="M1299.03 402.237 L1305.14 402.237 L1305.14 409.587 L1299.03 409.587 L1299.03 402.237 Z" fill="#000000" fill-rule="evenodd" fill-opacity="1"></path><path clip-path="url(#clip440)" d="M1322.91 404.668 L1343.31 404.668 L1343.31 409.587 L1315.88 409.587 L1315.88 404.668 Q1319.2 401.225 1324.93 395.438 Q1330.69 389.622 1332.17 387.944 Q1334.97 384.79 1336.07 382.62 Q1337.2 380.42 1337.2 378.308 Q1337.2 374.865 1334.77 372.695 Q1332.37 370.525 1328.49 370.525 Q1325.74 370.525 1322.67 371.48 Q1319.64 372.434 1316.16 374.373 L1316.16 368.47 Q1319.69 367.052 1322.76 366.329 Q1325.83 365.606 1328.38 365.606 Q1335.09 365.606 1339.08 368.962 Q1343.07 372.319 1343.07 377.932 Q1343.07 380.594 1342.06 382.996 Q1341.08 385.368 1338.44 388.609 Q1337.72 389.448 1333.84 393.47 Q1329.97 397.463 1322.91 404.668 Z" fill="#000000" fill-rule="evenodd" fill-opacity="1"></path><path clip-path="url(#clip440)" d="M1368.07 389.072 Q1363.91 389.072 1361.51 391.3 Q1359.13 393.528 1359.13 397.434 Q1359.13 401.34 1361.51 403.568 Q1363.91 405.796 1368.07 405.796 Q1372.24 405.796 1374.64 403.568 Q1377.04 401.312 1377.04 397.434 Q1377.04 393.528 1374.64 391.3 Q1372.27 389.072 1368.07 389.072 M1362.23 386.584 Q1358.47 385.658 1356.36 383.082 Q1354.27 380.507 1354.27 376.804 Q1354.27 371.624 1357.95 368.615 Q1361.65 365.606 1368.07 365.606 Q1374.53 365.606 1378.2 368.615 Q1381.88 371.624 1381.88 376.804 Q1381.88 380.507 1379.76 383.082 Q1377.68 385.658 1373.95 386.584 Q1378.17 387.567 1380.52 390.432 Q1382.89 393.297 1382.89 397.434 Q1382.89 403.713 1379.04 407.07 Q1375.22 410.426 1368.07 410.426 Q1360.93 410.426 1357.08 407.07 Q1353.26 403.713 1353.26 397.434 Q1353.26 393.297 1355.63 390.432 Q1358 387.567 1362.23 386.584 M1360.09 377.353 Q1360.09 380.71 1362.17 382.591 Q1364.28 384.471 1368.07 384.471 Q1371.84 384.471 1373.95 382.591 Q1376.09 380.71 1376.09 377.353 Q1376.09 373.997 1373.95 372.116 Q1371.84 370.235 1368.07 370.235 Q1364.28 370.235 1362.17 372.116 Q1360.09 373.997 1360.09 377.353 Z" fill="#000000" fill-rule="evenodd" fill-opacity="1"></path><path clip-path="url(#clip440)" d="M998.596 381.501 Q994.082 381.501 991.796 385.957 Q989.539 390.384 989.539 399.296 Q989.539 408.179 991.796 412.635 Q994.082 417.062 998.596 417.062 Q1003.14 417.062 1005.4 412.635 Q1007.68 408.179 1007.68 399.296 Q1007.68 390.384 1005.4 385.957 Q1003.14 381.501 998.596 381.501 M998.596 376.872 Q1005.86 376.872 1009.68 382.63 Q1013.53 388.359 1013.53 399.296 Q1013.53 410.205 1009.68 415.963 Q1005.86 421.692 998.596 421.692 Q991.333 421.692 987.485 415.963 Q983.666 410.205 983.666 399.296 Q983.666 388.359 987.485 382.63 Q991.333 376.872 998.596 376.872 Z" fill="#000000" fill-rule="evenodd" fill-opacity="1"></path><path clip-path="url(#clip440)" d="M1023.8 413.503 L1029.9 413.503 L1029.9 420.853 L1023.8 420.853 L1023.8 413.503 Z" fill="#000000" fill-rule="evenodd" fill-opacity="1"></path><path clip-path="url(#clip440)" d="M1042.69 377.653 L1065.64 377.653 L1065.64 382.572 L1048.05 382.572 L1048.05 393.162 Q1049.32 392.728 1050.59 392.525 Q1051.87 392.294 1053.14 392.294 Q1060.37 392.294 1064.6 396.258 Q1068.82 400.222 1068.82 406.993 Q1068.82 413.966 1064.48 417.844 Q1060.14 421.692 1052.24 421.692 Q1049.52 421.692 1046.69 421.229 Q1043.88 420.766 1040.87 419.84 L1040.87 413.966 Q1043.47 415.384 1046.25 416.079 Q1049.03 416.773 1052.13 416.773 Q1057.13 416.773 1060.05 414.14 Q1062.98 411.507 1062.98 406.993 Q1062.98 402.479 1060.05 399.846 Q1057.13 397.213 1052.13 397.213 Q1049.78 397.213 1047.44 397.734 Q1045.12 398.255 1042.69 399.354 L1042.69 377.653 Z" fill="#000000" fill-rule="evenodd" fill-opacity="1"></path><path clip-path="url(#clip440)" d="M1093.56 396.924 Q1089.63 396.924 1087.31 399.615 Q1085.02 402.305 1085.02 406.993 Q1085.02 411.651 1087.31 414.371 Q1089.63 417.062 1093.56 417.062 Q1097.5 417.062 1099.78 414.371 Q1102.1 411.651 1102.1 406.993 Q1102.1 402.305 1099.78 399.615 Q1097.5 396.924 1093.56 396.924 M1105.16 378.608 L1105.16 383.932 Q1102.96 382.89 1100.71 382.34 Q1098.48 381.791 1096.28 381.791 Q1090.49 381.791 1087.43 385.697 Q1084.39 389.603 1083.95 397.502 Q1085.66 394.985 1088.24 393.654 Q1090.81 392.294 1093.91 392.294 Q1100.42 392.294 1104.18 396.258 Q1107.97 400.193 1107.97 406.993 Q1107.97 413.648 1104.04 417.67 Q1100.1 421.692 1093.56 421.692 Q1086.07 421.692 1082.1 415.963 Q1078.14 410.205 1078.14 399.296 Q1078.14 389.053 1083 382.977 Q1087.86 376.872 1096.05 376.872 Q1098.25 376.872 1100.48 377.306 Q1102.73 377.74 1105.16 378.608 Z" fill="#000000" fill-rule="evenodd" fill-opacity="1"></path><path clip-path="url(#clip440)" d="M1210 1354.36 L1219.55 1354.36 L1219.55 1321.41 L1209.16 1323.49 L1209.16 1318.17 L1219.49 1316.08 L1225.33 1316.08 L1225.33 1354.36 L1234.88 1354.36 L1234.88 1359.28 L1210 1359.28 L1210 1354.36 Z" fill="#000000" fill-rule="evenodd" fill-opacity="1"></path><path clip-path="url(#clip440)" d="M1479.66 1080.49 L1500.06 1080.49 L1500.06 1085.41 L1472.63 1085.41 L1472.63 1080.49 Q1475.96 1077.05 1481.68 1071.26 Q1487.44 1065.45 1488.92 1063.77 Q1491.73 1060.61 1492.82 1058.44 Q1493.95 1056.25 1493.95 1054.13 Q1493.95 1050.69 1491.52 1048.52 Q1489.12 1046.35 1485.24 1046.35 Q1482.49 1046.35 1479.43 1047.3 Q1476.39 1048.26 1472.92 1050.2 L1472.92 1044.3 Q1476.45 1042.88 1479.51 1042.15 Q1482.58 1041.43 1485.13 1041.43 Q1491.84 1041.43 1495.83 1044.79 Q1499.83 1048.14 1499.83 1053.76 Q1499.83 1056.42 1498.81 1058.82 Q1497.83 1061.19 1495.2 1064.43 Q1494.47 1065.27 1490.6 1069.29 Q1486.72 1073.29 1479.66 1080.49 Z" fill="#000000" fill-rule="evenodd" fill-opacity="1"></path><path clip-path="url(#clip440)" d="M1742.99 776.286 Q1747.19 777.183 1749.53 780.019 Q1751.9 782.855 1751.9 787.021 Q1751.9 793.416 1747.51 796.917 Q1743.11 800.418 1735.01 800.418 Q1732.29 800.418 1729.39 799.869 Q1726.53 799.348 1723.46 798.277 L1723.46 792.635 Q1725.89 794.053 1728.79 794.776 Q1731.68 795.499 1734.83 795.499 Q1740.33 795.499 1743.19 793.329 Q1746.09 791.159 1746.09 787.021 Q1746.09 783.202 1743.4 781.061 Q1740.74 778.891 1735.96 778.891 L1730.93 778.891 L1730.93 774.087 L1736.19 774.087 Q1740.5 774.087 1742.79 772.38 Q1745.08 770.644 1745.08 767.403 Q1745.08 764.076 1742.7 762.311 Q1740.36 760.517 1735.96 760.517 Q1733.56 760.517 1730.81 761.038 Q1728.06 761.559 1724.76 762.658 L1724.76 757.45 Q1728.09 756.524 1730.98 756.061 Q1733.91 755.598 1736.48 755.598 Q1743.14 755.598 1747.01 758.636 Q1750.89 761.645 1750.89 766.796 Q1750.89 770.384 1748.84 772.872 Q1746.78 775.332 1742.99 776.286 Z" fill="#000000" fill-rule="evenodd" fill-opacity="1"></path><path clip-path="url(#clip440)" d="M939.95 1069.84 L925.193 1092.9 L939.95 1092.9 L939.95 1069.84 M938.416 1064.74 L945.766 1064.74 L945.766 1092.9 L951.929 1092.9 L951.929 1097.76 L945.766 1097.76 L945.766 1107.94 L939.95 1107.94 L939.95 1097.76 L920.448 1097.76 L920.448 1092.12 L938.416 1064.74 Z" fill="#000000" fill-rule="evenodd" fill-opacity="1"></path><path clip-path="url(#clip440)" d="M1187.85 778.4 L1210.79 778.4 L1210.79 783.319 L1193.2 783.319 L1193.2 793.909 Q1194.47 793.475 1195.75 793.273 Q1197.02 793.041 1198.29 793.041 Q1205.53 793.041 1209.75 797.005 Q1213.98 800.969 1213.98 807.74 Q1213.98 814.713 1209.64 818.591 Q1205.3 822.439 1197.4 822.439 Q1194.68 822.439 1191.84 821.976 Q1189.03 821.513 1186.02 820.587 L1186.02 814.713 Q1188.63 816.131 1191.41 816.826 Q1194.18 817.52 1197.28 817.52 Q1202.29 817.52 1205.21 814.887 Q1208.13 812.254 1208.13 807.74 Q1208.13 803.226 1205.21 800.593 Q1202.29 797.96 1197.28 797.96 Q1194.94 797.96 1192.59 798.481 Q1190.28 799.002 1187.85 800.101 L1187.85 778.4 Z" fill="#000000" fill-rule="evenodd" fill-opacity="1"></path><path clip-path="url(#clip440)" d="M1464.32 511.327 Q1460.38 511.327 1458.07 514.018 Q1455.78 516.709 1455.78 521.397 Q1455.78 526.055 1458.07 528.775 Q1460.38 531.466 1464.32 531.466 Q1468.25 531.466 1470.54 528.775 Q1472.85 526.055 1472.85 521.397 Q1472.85 516.709 1470.54 514.018 Q1468.25 511.327 1464.32 511.327 M1475.92 493.012 L1475.92 498.336 Q1473.72 497.294 1471.46 496.744 Q1469.24 496.194 1467.04 496.194 Q1461.25 496.194 1458.18 500.101 Q1455.15 504.007 1454.71 511.906 Q1456.42 509.389 1458.99 508.058 Q1461.57 506.698 1464.67 506.698 Q1471.18 506.698 1474.94 510.662 Q1478.73 514.597 1478.73 521.397 Q1478.73 528.052 1474.79 532.074 Q1470.86 536.096 1464.32 536.096 Q1456.82 536.096 1452.86 530.367 Q1448.9 524.609 1448.9 513.7 Q1448.9 503.457 1453.76 497.381 Q1458.62 491.275 1466.81 491.275 Q1469.01 491.275 1471.23 491.709 Q1473.49 492.143 1475.92 493.012 Z" fill="#000000" fill-rule="evenodd" fill-opacity="1"></path><path clip-path="url(#clip440)" d="M648.428 800.421 L676.206 800.421 L676.206 802.909 L660.523 843.621 L654.418 843.621 L669.175 805.34 L648.428 805.34 L648.428 800.421 Z" fill="#000000" fill-rule="evenodd" fill-opacity="1"></path><path clip-path="url(#clip440)" d="M913.657 537.273 Q909.49 537.273 907.089 539.501 Q904.716 541.729 904.716 545.636 Q904.716 549.542 907.089 551.77 Q909.49 553.998 913.657 553.998 Q917.823 553.998 920.225 551.77 Q922.627 549.513 922.627 545.636 Q922.627 541.729 920.225 539.501 Q917.852 537.273 913.657 537.273 M907.812 534.785 Q904.05 533.859 901.938 531.284 Q899.855 528.709 899.855 525.005 Q899.855 519.826 903.53 516.816 Q907.233 513.807 913.657 513.807 Q920.109 513.807 923.784 516.816 Q927.459 519.826 927.459 525.005 Q927.459 528.709 925.347 531.284 Q923.263 533.859 919.531 534.785 Q923.755 535.769 926.099 538.633 Q928.472 541.498 928.472 545.636 Q928.472 551.915 924.623 555.271 Q920.804 558.628 913.657 558.628 Q906.51 558.628 902.662 555.271 Q898.842 551.915 898.842 545.636 Q898.842 541.498 901.215 538.633 Q903.587 535.769 907.812 534.785 M905.671 525.555 Q905.671 528.911 907.754 530.792 Q909.866 532.673 913.657 532.673 Q917.418 532.673 919.531 530.792 Q921.672 528.911 921.672 525.555 Q921.672 522.198 919.531 520.318 Q917.418 518.437 913.657 518.437 Q909.866 518.437 907.754 520.318 Q905.671 522.198 905.671 525.555 Z" fill="#000000" fill-rule="evenodd" fill-opacity="1"></path><path clip-path="url(#clip440)" d="M1165.86 283.02 L1165.86 277.696 Q1168.05 278.738 1170.31 279.288 Q1172.57 279.837 1174.74 279.837 Q1180.53 279.837 1183.56 275.96 Q1186.63 272.054 1187.06 264.126 Q1185.39 266.614 1182.81 267.945 Q1180.24 269.276 1177.11 269.276 Q1170.63 269.276 1166.84 265.37 Q1163.08 261.435 1163.08 254.635 Q1163.08 247.98 1167.01 243.958 Q1170.95 239.936 1177.49 239.936 Q1184.98 239.936 1188.92 245.694 Q1192.88 251.423 1192.88 262.361 Q1192.88 272.575 1188.02 278.68 Q1183.19 284.756 1175 284.756 Q1172.8 284.756 1170.54 284.322 Q1168.29 283.888 1165.86 283.02 M1177.49 264.704 Q1181.42 264.704 1183.71 262.013 Q1186.02 259.322 1186.02 254.635 Q1186.02 249.976 1183.71 247.285 Q1181.42 244.566 1177.49 244.566 Q1173.55 244.566 1171.24 247.285 Q1168.95 249.976 1168.95 254.635 Q1168.95 259.322 1171.24 262.013 Q1173.55 264.704 1177.49 264.704 Z" fill="#000000" fill-rule="evenodd" fill-opacity="1"></path></svg>