<svg xmlns="http://www.w3.org/2000/svg" xmlns:xlink="http://www.w3.org/1999/xlink" width="600" height="400" viewBox="0 0 2400 1600">
<defs>
  <clipPath id="clip750">
    <rect x="0" y="0" width="2400" height="1600"></rect>
  </clipPath>
</defs>
<path clip-path="url(#clip750)" d="M0 1600 L2400 1600 L2400 0 L0 0  Z" fill="#ffffff" fill-rule="evenodd" fill-opacity="1"></path>
<defs>
  <clipPath id="clip751">
    <rect x="480" y="0" width="1681" height="1600"></rect>
  </clipPath>
</defs>
<path clip-path="url(#clip750)" d="M156.598 1486.45 L2352.76 1486.45 L2352.76 123.472 L156.598 123.472  Z" fill="#ffffff" fill-rule="evenodd" fill-opacity="1"></path>
<defs>
  <clipPath id="clip752">
    <rect x="156" y="123" width="2197" height="1364"></rect>
  </clipPath>
</defs>
<polyline clip-path="url(#clip752)" style="stroke:#000000; stroke-linecap:round; stroke-linejoin:round; stroke-width:2; stroke-opacity:0.1; fill:none" points="156.598,1486.45 156.598,123.472 "></polyline>
<polyline clip-path="url(#clip752)" style="stroke:#000000; stroke-linecap:round; stroke-linejoin:round; stroke-width:2; stroke-opacity:0.1; fill:none" points="705.638,1486.45 705.638,123.472 "></polyline>
<polyline clip-path="url(#clip752)" style="stroke:#000000; stroke-linecap:round; stroke-linejoin:round; stroke-width:2; stroke-opacity:0.1; fill:none" points="1254.68,1486.45 1254.68,123.472 "></polyline>
<polyline clip-path="url(#clip752)" style="stroke:#000000; stroke-linecap:round; stroke-linejoin:round; stroke-width:2; stroke-opacity:0.1; fill:none" points="1803.72,1486.45 1803.72,123.472 "></polyline>
<polyline clip-path="url(#clip752)" style="stroke:#000000; stroke-linecap:round; stroke-linejoin:round; stroke-width:2; stroke-opacity:0.1; fill:none" points="2352.76,1486.45 2352.76,123.472 "></polyline>
<polyline clip-path="url(#clip750)" style="stroke:#000000; stroke-linecap:round; stroke-linejoin:round; stroke-width:4; stroke-opacity:1; fill:none" points="156.598,1486.45 2352.76,1486.45 "></polyline>
<polyline clip-path="url(#clip750)" style="stroke:#000000; stroke-linecap:round; stroke-linejoin:round; stroke-width:4; stroke-opacity:1; fill:none" points="156.598,1486.45 156.598,1467.55 "></polyline>
<polyline clip-path="url(#clip750)" style="stroke:#000000; stroke-linecap:round; stroke-linejoin:round; stroke-width:4; stroke-opacity:1; fill:none" points="705.638,1486.45 705.638,1467.55 "></polyline>
<polyline clip-path="url(#clip750)" style="stroke:#000000; stroke-linecap:round; stroke-linejoin:round; stroke-width:4; stroke-opacity:1; fill:none" points="1254.68,1486.45 1254.68,1467.55 "></polyline>
<polyline clip-path="url(#clip750)" style="stroke:#000000; stroke-linecap:round; stroke-linejoin:round; stroke-width:4; stroke-opacity:1; fill:none" points="1803.72,1486.45 1803.72,1467.55 "></polyline>
<polyline clip-path="url(#clip750)" style="stroke:#000000; stroke-linecap:round; stroke-linejoin:round; stroke-width:4; stroke-opacity:1; fill:none" points="2352.76,1486.45 2352.76,1467.55 "></polyline>
<path clip-path="url(#clip750)" d="M146.98 1544.91 L154.619 1544.91 L154.619 1518.55 L146.309 1520.21 L146.309 1515.95 L154.573 1514.29 L159.249 1514.29 L159.249 1544.91 L166.888 1544.91 L166.888 1548.85 L146.98 1548.85 L146.98 1544.91 Z" fill="#000000" fill-rule="nonzero" fill-opacity="1"></path><path clip-path="url(#clip750)" d="M700.29 1544.91 L716.61 1544.91 L716.61 1548.85 L694.665 1548.85 L694.665 1544.91 Q697.328 1542.16 701.911 1537.53 Q706.517 1532.88 707.698 1531.53 Q709.943 1529.01 710.823 1527.27 Q711.726 1525.51 711.726 1523.82 Q711.726 1521.07 709.781 1519.33 Q707.86 1517.6 704.758 1517.6 Q702.559 1517.6 700.105 1518.36 Q697.675 1519.13 694.897 1520.68 L694.897 1515.95 Q697.721 1514.82 700.175 1514.24 Q702.628 1513.66 704.665 1513.66 Q710.036 1513.66 713.23 1516.35 Q716.425 1519.03 716.425 1523.52 Q716.425 1525.65 715.614 1527.57 Q714.827 1529.47 712.721 1532.07 Q712.142 1532.74 709.04 1535.95 Q705.939 1539.15 700.29 1544.91 Z" fill="#000000" fill-rule="nonzero" fill-opacity="1"></path><path clip-path="url(#clip750)" d="M1258.92 1530.21 Q1262.28 1530.93 1264.16 1533.2 Q1266.05 1535.47 1266.05 1538.8 Q1266.05 1543.92 1262.54 1546.72 Q1259.02 1549.52 1252.54 1549.52 Q1250.36 1549.52 1248.05 1549.08 Q1245.75 1548.66 1243.3 1547.81 L1243.3 1543.29 Q1245.24 1544.43 1247.56 1545.01 Q1249.87 1545.58 1252.4 1545.58 Q1256.8 1545.58 1259.09 1543.85 Q1261.4 1542.11 1261.4 1538.8 Q1261.4 1535.75 1259.25 1534.03 Q1257.12 1532.3 1253.3 1532.3 L1249.27 1532.3 L1249.27 1528.45 L1253.48 1528.45 Q1256.93 1528.45 1258.76 1527.09 Q1260.59 1525.7 1260.59 1523.11 Q1260.59 1520.45 1258.69 1519.03 Q1256.82 1517.6 1253.3 1517.6 Q1251.38 1517.6 1249.18 1518.01 Q1246.98 1518.43 1244.34 1519.31 L1244.34 1515.14 Q1247 1514.4 1249.32 1514.03 Q1251.66 1513.66 1253.72 1513.66 Q1259.04 1513.66 1262.14 1516.09 Q1265.24 1518.5 1265.24 1522.62 Q1265.24 1525.49 1263.6 1527.48 Q1261.96 1529.45 1258.92 1530.21 Z" fill="#000000" fill-rule="nonzero" fill-opacity="1"></path><path clip-path="url(#clip750)" d="M1806.73 1518.36 L1794.92 1536.81 L1806.73 1536.81 L1806.73 1518.36 M1805.5 1514.29 L1811.38 1514.29 L1811.38 1536.81 L1816.31 1536.81 L1816.31 1540.7 L1811.38 1540.7 L1811.38 1548.85 L1806.73 1548.85 L1806.73 1540.7 L1791.12 1540.7 L1791.12 1536.19 L1805.5 1514.29 Z" fill="#000000" fill-rule="nonzero" fill-opacity="1"></path><path clip-path="url(#clip750)" d="M2343.03 1514.29 L2361.39 1514.29 L2361.39 1518.22 L2347.32 1518.22 L2347.32 1526.7 Q2348.33 1526.35 2349.35 1526.19 Q2350.37 1526 2351.39 1526 Q2357.18 1526 2360.56 1529.17 Q2363.94 1532.34 2363.94 1537.76 Q2363.94 1543.34 2360.46 1546.44 Q2356.99 1549.52 2350.67 1549.52 Q2348.5 1549.52 2346.23 1549.15 Q2343.98 1548.78 2341.58 1548.04 L2341.58 1543.34 Q2343.66 1544.47 2345.88 1545.03 Q2348.1 1545.58 2350.58 1545.58 Q2354.58 1545.58 2356.92 1543.48 Q2359.26 1541.37 2359.26 1537.76 Q2359.26 1534.15 2356.92 1532.04 Q2354.58 1529.94 2350.58 1529.94 Q2348.71 1529.94 2346.83 1530.35 Q2344.98 1530.77 2343.03 1531.65 L2343.03 1514.29 Z" fill="#000000" fill-rule="nonzero" fill-opacity="1"></path><polyline clip-path="url(#clip752)" style="stroke:#000000; stroke-linecap:round; stroke-linejoin:round; stroke-width:2; stroke-opacity:0.1; fill:none" points="156.598,1447.87 2352.76,1447.87 "></polyline>
<polyline clip-path="url(#clip752)" style="stroke:#000000; stroke-linecap:round; stroke-linejoin:round; stroke-width:2; stroke-opacity:0.1; fill:none" points="156.598,1159.55 2352.76,1159.55 "></polyline>
<polyline clip-path="url(#clip752)" style="stroke:#000000; stroke-linecap:round; stroke-linejoin:round; stroke-width:2; stroke-opacity:0.1; fill:none" points="156.598,871.234 2352.76,871.234 "></polyline>
<polyline clip-path="url(#clip752)" style="stroke:#000000; stroke-linecap:round; stroke-linejoin:round; stroke-width:2; stroke-opacity:0.1; fill:none" points="156.598,582.915 2352.76,582.915 "></polyline>
<polyline clip-path="url(#clip752)" style="stroke:#000000; stroke-linecap:round; stroke-linejoin:round; stroke-width:2; stroke-opacity:0.1; fill:none" points="156.598,294.595 2352.76,294.595 "></polyline>
<polyline clip-path="url(#clip750)" style="stroke:#000000; stroke-linecap:round; stroke-linejoin:round; stroke-width:4; stroke-opacity:1; fill:none" points="156.598,1486.45 156.598,123.472 "></polyline>
<polyline clip-path="url(#clip750)" style="stroke:#000000; stroke-linecap:round; stroke-linejoin:round; stroke-width:4; stroke-opacity:1; fill:none" points="156.598,1447.87 175.496,1447.87 "></polyline>
<polyline clip-path="url(#clip750)" style="stroke:#000000; stroke-linecap:round; stroke-linejoin:round; stroke-width:4; stroke-opacity:1; fill:none" points="156.598,1159.55 175.496,1159.55 "></polyline>
<polyline clip-path="url(#clip750)" style="stroke:#000000; stroke-linecap:round; stroke-linejoin:round; stroke-width:4; stroke-opacity:1; fill:none" points="156.598,871.234 175.496,871.234 "></polyline>
<polyline clip-path="url(#clip750)" style="stroke:#000000; stroke-linecap:round; stroke-linejoin:round; stroke-width:4; stroke-opacity:1; fill:none" points="156.598,582.915 175.496,582.915 "></polyline>
<polyline clip-path="url(#clip750)" style="stroke:#000000; stroke-linecap:round; stroke-linejoin:round; stroke-width:4; stroke-opacity:1; fill:none" points="156.598,294.595 175.496,294.595 "></polyline>
<path clip-path="url(#clip750)" d="M63.4226 1433.67 Q59.8115 1433.67 57.9828 1437.24 Q56.1773 1440.78 56.1773 1447.91 Q56.1773 1455.01 57.9828 1458.58 Q59.8115 1462.12 63.4226 1462.12 Q67.0569 1462.12 68.8624 1458.58 Q70.6911 1455.01 70.6911 1447.91 Q70.6911 1440.78 68.8624 1437.24 Q67.0569 1433.67 63.4226 1433.67 M63.4226 1429.97 Q69.2328 1429.97 72.2883 1434.57 Q75.367 1439.16 75.367 1447.91 Q75.367 1456.63 72.2883 1461.24 Q69.2328 1465.82 63.4226 1465.82 Q57.6125 1465.82 54.5338 1461.24 Q51.4782 1456.63 51.4782 1447.91 Q51.4782 1439.16 54.5338 1434.57 Q57.6125 1429.97 63.4226 1429.97 Z" fill="#000000" fill-rule="nonzero" fill-opacity="1"></path><path clip-path="url(#clip750)" d="M83.5845 1459.27 L88.4688 1459.27 L88.4688 1465.15 L83.5845 1465.15 L83.5845 1459.27 Z" fill="#000000" fill-rule="nonzero" fill-opacity="1"></path><path clip-path="url(#clip750)" d="M108.654 1433.67 Q105.043 1433.67 103.214 1437.24 Q101.409 1440.78 101.409 1447.91 Q101.409 1455.01 103.214 1458.58 Q105.043 1462.12 108.654 1462.12 Q112.288 1462.12 114.094 1458.58 Q115.922 1455.01 115.922 1447.91 Q115.922 1440.78 114.094 1437.24 Q112.288 1433.67 108.654 1433.67 M108.654 1429.97 Q114.464 1429.97 117.52 1434.57 Q120.598 1439.16 120.598 1447.91 Q120.598 1456.63 117.52 1461.24 Q114.464 1465.82 108.654 1465.82 Q102.844 1465.82 99.765 1461.24 Q96.7095 1456.63 96.7095 1447.91 Q96.7095 1439.16 99.765 1434.57 Q102.844 1429.97 108.654 1429.97 Z" fill="#000000" fill-rule="nonzero" fill-opacity="1"></path><path clip-path="url(#clip750)" d="M65.0198 1145.35 Q61.4087 1145.35 59.58 1148.92 Q57.7745 1152.46 57.7745 1159.59 Q57.7745 1166.69 59.58 1170.26 Q61.4087 1173.8 65.0198 1173.8 Q68.6541 1173.8 70.4596 1170.26 Q72.2883 1166.69 72.2883 1159.59 Q72.2883 1152.46 70.4596 1148.92 Q68.6541 1145.35 65.0198 1145.35 M65.0198 1141.65 Q70.83 1141.65 73.8855 1146.26 Q76.9642 1150.84 76.9642 1159.59 Q76.9642 1168.32 73.8855 1172.92 Q70.83 1177.5 65.0198 1177.5 Q59.2097 1177.5 56.131 1172.92 Q53.0754 1168.32 53.0754 1159.59 Q53.0754 1150.84 56.131 1146.26 Q59.2097 1141.65 65.0198 1141.65 Z" fill="#000000" fill-rule="nonzero" fill-opacity="1"></path><path clip-path="url(#clip750)" d="M85.1818 1170.95 L90.066 1170.95 L90.066 1176.83 L85.1818 1176.83 L85.1818 1170.95 Z" fill="#000000" fill-rule="nonzero" fill-opacity="1"></path><path clip-path="url(#clip750)" d="M104.279 1172.9 L120.598 1172.9 L120.598 1176.83 L98.6539 1176.83 L98.6539 1172.9 Q101.316 1170.14 105.899 1165.51 Q110.506 1160.86 111.686 1159.52 Q113.932 1157 114.811 1155.26 Q115.714 1153.5 115.714 1151.81 Q115.714 1149.06 113.77 1147.32 Q111.848 1145.58 108.746 1145.58 Q106.547 1145.58 104.094 1146.35 Q101.663 1147.11 98.8854 1148.66 L98.8854 1143.94 Q101.709 1142.81 104.163 1142.23 Q106.617 1141.65 108.654 1141.65 Q114.024 1141.65 117.219 1144.33 Q120.413 1147.02 120.413 1151.51 Q120.413 1153.64 119.603 1155.56 Q118.816 1157.46 116.709 1160.05 Q116.131 1160.72 113.029 1163.94 Q109.927 1167.13 104.279 1172.9 Z" fill="#000000" fill-rule="nonzero" fill-opacity="1"></path><path clip-path="url(#clip750)" d="M62.9365 857.033 Q59.3254 857.033 57.4967 860.598 Q55.6912 864.139 55.6912 871.269 Q55.6912 878.375 57.4967 881.94 Q59.3254 885.482 62.9365 885.482 Q66.5707 885.482 68.3763 881.94 Q70.205 878.375 70.205 871.269 Q70.205 864.139 68.3763 860.598 Q66.5707 857.033 62.9365 857.033 M62.9365 853.329 Q68.7467 853.329 71.8022 857.936 Q74.8809 862.519 74.8809 871.269 Q74.8809 879.996 71.8022 884.602 Q68.7467 889.186 62.9365 889.186 Q57.1264 889.186 54.0477 884.602 Q50.9921 879.996 50.9921 871.269 Q50.9921 862.519 54.0477 857.936 Q57.1264 853.329 62.9365 853.329 Z" fill="#000000" fill-rule="nonzero" fill-opacity="1"></path><path clip-path="url(#clip750)" d="M83.0984 882.635 L87.9827 882.635 L87.9827 888.514 L83.0984 888.514 L83.0984 882.635 Z" fill="#000000" fill-rule="nonzero" fill-opacity="1"></path><path clip-path="url(#clip750)" d="M111.015 858.028 L99.2095 876.477 L111.015 876.477 L111.015 858.028 M109.788 853.954 L115.668 853.954 L115.668 876.477 L120.598 876.477 L120.598 880.366 L115.668 880.366 L115.668 888.514 L111.015 888.514 L111.015 880.366 L95.4132 880.366 L95.4132 875.852 L109.788 853.954 Z" fill="#000000" fill-rule="nonzero" fill-opacity="1"></path><path clip-path="url(#clip750)" d="M63.2606 568.713 Q59.6495 568.713 57.8208 572.278 Q56.0152 575.82 56.0152 582.949 Q56.0152 590.056 57.8208 593.621 Q59.6495 597.162 63.2606 597.162 Q66.8948 597.162 68.7004 593.621 Q70.5291 590.056 70.5291 582.949 Q70.5291 575.82 68.7004 572.278 Q66.8948 568.713 63.2606 568.713 M63.2606 565.01 Q69.0707 565.01 72.1263 569.616 Q75.205 574.2 75.205 582.949 Q75.205 591.676 72.1263 596.283 Q69.0707 600.866 63.2606 600.866 Q57.4504 600.866 54.3717 596.283 Q51.3162 591.676 51.3162 582.949 Q51.3162 574.2 54.3717 569.616 Q57.4504 565.01 63.2606 565.01 Z" fill="#000000" fill-rule="nonzero" fill-opacity="1"></path><path clip-path="url(#clip750)" d="M83.4225 594.315 L88.3067 594.315 L88.3067 600.195 L83.4225 600.195 L83.4225 594.315 Z" fill="#000000" fill-rule="nonzero" fill-opacity="1"></path><path clip-path="url(#clip750)" d="M109.071 581.051 Q105.922 581.051 104.071 583.204 Q102.242 585.357 102.242 589.107 Q102.242 592.834 104.071 595.01 Q105.922 597.162 109.071 597.162 Q112.219 597.162 114.047 595.01 Q115.899 592.834 115.899 589.107 Q115.899 585.357 114.047 583.204 Q112.219 581.051 109.071 581.051 M118.353 566.399 L118.353 570.658 Q116.594 569.825 114.788 569.385 Q113.006 568.945 111.246 568.945 Q106.617 568.945 104.163 572.07 Q101.733 575.195 101.385 581.514 Q102.751 579.5 104.811 578.436 Q106.871 577.348 109.348 577.348 Q114.557 577.348 117.566 580.519 Q120.598 583.667 120.598 589.107 Q120.598 594.431 117.45 597.648 Q114.302 600.866 109.071 600.866 Q103.075 600.866 99.9039 596.283 Q96.7326 591.676 96.7326 582.949 Q96.7326 574.755 100.621 569.894 Q104.51 565.01 111.061 565.01 Q112.82 565.01 114.603 565.357 Q116.408 565.704 118.353 566.399 Z" fill="#000000" fill-rule="nonzero" fill-opacity="1"></path><path clip-path="url(#clip750)" d="M63.5152 280.394 Q59.9041 280.394 58.0754 283.959 Q56.2699 287.5 56.2699 294.63 Q56.2699 301.737 58.0754 305.301 Q59.9041 308.843 63.5152 308.843 Q67.1494 308.843 68.955 305.301 Q70.7837 301.737 70.7837 294.63 Q70.7837 287.5 68.955 283.959 Q67.1494 280.394 63.5152 280.394 M63.5152 276.69 Q69.3254 276.69 72.3809 281.297 Q75.4596 285.88 75.4596 294.63 Q75.4596 303.357 72.3809 307.963 Q69.3254 312.547 63.5152 312.547 Q57.7051 312.547 54.6264 307.963 Q51.5708 303.357 51.5708 294.63 Q51.5708 285.88 54.6264 281.297 Q57.7051 276.69 63.5152 276.69 Z" fill="#000000" fill-rule="nonzero" fill-opacity="1"></path><path clip-path="url(#clip750)" d="M83.6771 305.996 L88.5614 305.996 L88.5614 311.875 L83.6771 311.875 L83.6771 305.996 Z" fill="#000000" fill-rule="nonzero" fill-opacity="1"></path><path clip-path="url(#clip750)" d="M108.746 295.463 Q105.413 295.463 103.492 297.246 Q101.594 299.028 101.594 302.153 Q101.594 305.278 103.492 307.061 Q105.413 308.843 108.746 308.843 Q112.08 308.843 114.001 307.061 Q115.922 305.255 115.922 302.153 Q115.922 299.028 114.001 297.246 Q112.103 295.463 108.746 295.463 M104.071 293.473 Q101.061 292.732 99.3715 290.672 Q97.7048 288.612 97.7048 285.649 Q97.7048 281.505 100.645 279.098 Q103.608 276.69 108.746 276.69 Q113.908 276.69 116.848 279.098 Q119.788 281.505 119.788 285.649 Q119.788 288.612 118.098 290.672 Q116.432 292.732 113.445 293.473 Q116.825 294.26 118.7 296.551 Q120.598 298.843 120.598 302.153 Q120.598 307.176 117.52 309.861 Q114.464 312.547 108.746 312.547 Q103.029 312.547 99.9502 309.861 Q96.8947 307.176 96.8947 302.153 Q96.8947 298.843 98.7928 296.551 Q100.691 294.26 104.071 293.473 M102.358 286.088 Q102.358 288.774 104.024 290.278 Q105.714 291.783 108.746 291.783 Q111.756 291.783 113.445 290.278 Q115.158 288.774 115.158 286.088 Q115.158 283.403 113.445 281.899 Q111.756 280.394 108.746 280.394 Q105.714 280.394 104.024 281.899 Q102.358 283.403 102.358 286.088 Z" fill="#000000" fill-rule="nonzero" fill-opacity="1"></path><path clip-path="url(#clip750)" d="M766.401 72.576 L743.311 12.096 L751.859 12.096 L771.019 63.0159 L790.221 12.096 L798.728 12.096 L775.678 72.576 L766.401 72.576 Z" fill="#000000" fill-rule="nonzero" fill-opacity="1"></path><path clip-path="url(#clip750)" d="M821.413 49.7694 Q812.379 49.7694 808.895 51.8354 Q805.412 53.9013 805.412 58.8839 Q805.412 62.8538 808.004 65.2034 Q810.637 67.5124 815.134 67.5124 Q821.332 67.5124 825.058 63.1374 Q828.826 58.7219 828.826 51.4303 L828.826 49.7694 L821.413 49.7694 M836.279 46.6907 L836.279 72.576 L828.826 72.576 L828.826 65.6895 Q826.274 69.8214 822.466 71.8063 Q818.658 73.7508 813.149 73.7508 Q806.181 73.7508 802.049 69.8619 Q797.958 65.9325 797.958 59.3701 Q797.958 51.7138 803.062 47.825 Q808.207 43.9361 818.374 43.9361 L828.826 43.9361 L828.826 43.2069 Q828.826 38.0623 825.423 35.2672 Q822.061 32.4315 815.944 32.4315 Q812.055 32.4315 808.369 33.3632 Q804.682 34.295 801.28 36.1584 L801.28 29.2718 Q805.371 27.692 809.219 26.9223 Q813.068 26.1121 816.714 26.1121 Q826.557 26.1121 831.418 31.2163 Q836.279 36.3204 836.279 46.6907 Z" fill="#000000" fill-rule="nonzero" fill-opacity="1"></path><path clip-path="url(#clip750)" d="M877.923 34.1734 Q876.667 33.4443 875.168 33.1202 Q873.71 32.7556 871.927 32.7556 Q865.608 32.7556 862.205 36.8875 Q858.843 40.9789 858.843 48.6757 L858.843 72.576 L851.349 72.576 L851.349 27.2059 L858.843 27.2059 L858.843 34.2544 Q861.192 30.1225 864.96 28.1376 Q868.727 26.1121 874.115 26.1121 Q874.885 26.1121 875.816 26.2337 Q876.748 26.3147 877.882 26.5172 L877.923 34.1734 Z" fill="#000000" fill-rule="nonzero" fill-opacity="1"></path><path clip-path="url(#clip750)" d="M885.741 27.2059 L893.195 27.2059 L893.195 72.576 L885.741 72.576 L885.741 27.2059 M885.741 9.54393 L893.195 9.54393 L893.195 18.9825 L885.741 18.9825 L885.741 9.54393 Z" fill="#000000" fill-rule="nonzero" fill-opacity="1"></path><path clip-path="url(#clip750)" d="M929.41 49.7694 Q920.376 49.7694 916.892 51.8354 Q913.409 53.9013 913.409 58.8839 Q913.409 62.8538 916.001 65.2034 Q918.634 67.5124 923.131 67.5124 Q929.329 67.5124 933.056 63.1374 Q936.823 58.7219 936.823 51.4303 L936.823 49.7694 L929.41 49.7694 M944.277 46.6907 L944.277 72.576 L936.823 72.576 L936.823 65.6895 Q934.271 69.8214 930.463 71.8063 Q926.655 73.7508 921.146 73.7508 Q914.178 73.7508 910.046 69.8619 Q905.955 65.9325 905.955 59.3701 Q905.955 51.7138 911.059 47.825 Q916.204 43.9361 926.372 43.9361 L936.823 43.9361 L936.823 43.2069 Q936.823 38.0623 933.42 35.2672 Q930.058 32.4315 923.941 32.4315 Q920.052 32.4315 916.366 33.3632 Q912.679 34.295 909.277 36.1584 L909.277 29.2718 Q913.368 27.692 917.216 26.9223 Q921.065 26.1121 924.711 26.1121 Q934.554 26.1121 939.415 31.2163 Q944.277 36.3204 944.277 46.6907 Z" fill="#000000" fill-rule="nonzero" fill-opacity="1"></path><path clip-path="url(#clip750)" d="M967.002 14.324 L967.002 27.2059 L982.355 27.2059 L982.355 32.9987 L967.002 32.9987 L967.002 57.6282 Q967.002 63.1779 968.501 64.7578 Q970.04 66.3376 974.699 66.3376 L982.355 66.3376 L982.355 72.576 L974.699 72.576 Q966.07 72.576 962.789 69.3758 Q959.508 66.1351 959.508 57.6282 L959.508 32.9987 L954.039 32.9987 L954.039 27.2059 L959.508 27.2059 L959.508 14.324 L967.002 14.324 Z" fill="#000000" fill-rule="nonzero" fill-opacity="1"></path><path clip-path="url(#clip750)" d="M992.158 27.2059 L999.612 27.2059 L999.612 72.576 L992.158 72.576 L992.158 27.2059 M992.158 9.54393 L999.612 9.54393 L999.612 18.9825 L992.158 18.9825 L992.158 9.54393 Z" fill="#000000" fill-rule="nonzero" fill-opacity="1"></path><path clip-path="url(#clip750)" d="M1032.79 32.4315 Q1026.79 32.4315 1023.31 37.1306 Q1019.83 41.7891 1019.83 49.9314 Q1019.83 58.0738 1023.27 62.7728 Q1026.75 67.4314 1032.79 67.4314 Q1038.74 67.4314 1042.23 62.7323 Q1045.71 58.0333 1045.71 49.9314 Q1045.71 41.8701 1042.23 37.1711 Q1038.74 32.4315 1032.79 32.4315 M1032.79 26.1121 Q1042.51 26.1121 1048.06 32.4315 Q1053.61 38.7509 1053.61 49.9314 Q1053.61 61.0714 1048.06 67.4314 Q1042.51 73.7508 1032.79 73.7508 Q1023.03 73.7508 1017.48 67.4314 Q1011.97 61.0714 1011.97 49.9314 Q1011.97 38.7509 1017.48 32.4315 Q1023.03 26.1121 1032.79 26.1121 Z" fill="#000000" fill-rule="nonzero" fill-opacity="1"></path><path clip-path="url(#clip750)" d="M1103.68 45.1919 L1103.68 72.576 L1096.23 72.576 L1096.23 45.4349 Q1096.23 38.994 1093.71 35.7938 Q1091.2 32.5936 1086.18 32.5936 Q1080.14 32.5936 1076.66 36.4419 Q1073.18 40.2903 1073.18 46.9338 L1073.18 72.576 L1065.68 72.576 L1065.68 27.2059 L1073.18 27.2059 L1073.18 34.2544 Q1075.85 30.163 1079.46 28.1376 Q1083.1 26.1121 1087.84 26.1121 Q1095.66 26.1121 1099.67 30.9732 Q1103.68 35.7938 1103.68 45.1919 Z" fill="#000000" fill-rule="nonzero" fill-opacity="1"></path><path clip-path="url(#clip750)" d="M1139.17 49.7694 Q1130.13 49.7694 1126.65 51.8354 Q1123.16 53.9013 1123.16 58.8839 Q1123.16 62.8538 1125.76 65.2034 Q1128.39 67.5124 1132.89 67.5124 Q1139.08 67.5124 1142.81 63.1374 Q1146.58 58.7219 1146.58 51.4303 L1146.58 49.7694 L1139.17 49.7694 M1154.03 46.6907 L1154.03 72.576 L1146.58 72.576 L1146.58 65.6895 Q1144.03 69.8214 1140.22 71.8063 Q1136.41 73.7508 1130.9 73.7508 Q1123.93 73.7508 1119.8 69.8619 Q1115.71 65.9325 1115.71 59.3701 Q1115.71 51.7138 1120.81 47.825 Q1125.96 43.9361 1136.13 43.9361 L1146.58 43.9361 L1146.58 43.2069 Q1146.58 38.0623 1143.18 35.2672 Q1139.81 32.4315 1133.7 32.4315 Q1129.81 32.4315 1126.12 33.3632 Q1122.44 34.295 1119.03 36.1584 L1119.03 29.2718 Q1123.12 27.692 1126.97 26.9223 Q1130.82 26.1121 1134.47 26.1121 Q1144.31 26.1121 1149.17 31.2163 Q1154.03 36.3204 1154.03 46.6907 Z" fill="#000000" fill-rule="nonzero" fill-opacity="1"></path><path clip-path="url(#clip750)" d="M1169.39 9.54393 L1176.84 9.54393 L1176.84 72.576 L1169.39 72.576 L1169.39 9.54393 Z" fill="#000000" fill-rule="nonzero" fill-opacity="1"></path><path clip-path="url(#clip750)" d="M1219.13 12.096 L1227.31 12.096 L1227.31 72.576 L1219.13 72.576 L1219.13 12.096 Z" fill="#000000" fill-rule="nonzero" fill-opacity="1"></path><path clip-path="url(#clip750)" d="M1280.99 45.1919 L1280.99 72.576 L1273.53 72.576 L1273.53 45.4349 Q1273.53 38.994 1271.02 35.7938 Q1268.51 32.5936 1263.49 32.5936 Q1257.45 32.5936 1253.97 36.4419 Q1250.48 40.2903 1250.48 46.9338 L1250.48 72.576 L1242.99 72.576 L1242.99 27.2059 L1250.48 27.2059 L1250.48 34.2544 Q1253.16 30.163 1256.76 28.1376 Q1260.41 26.1121 1265.15 26.1121 Q1272.97 26.1121 1276.98 30.9732 Q1280.99 35.7938 1280.99 45.1919 Z" fill="#000000" fill-rule="nonzero" fill-opacity="1"></path><path clip-path="url(#clip750)" d="M1318.82 9.54393 L1318.82 15.7418 L1311.69 15.7418 Q1307.68 15.7418 1306.1 17.3622 Q1304.56 18.9825 1304.56 23.1955 L1304.56 27.2059 L1316.84 27.2059 L1316.84 32.9987 L1304.56 32.9987 L1304.56 72.576 L1297.07 72.576 L1297.07 32.9987 L1289.94 32.9987 L1289.94 27.2059 L1297.07 27.2059 L1297.07 24.0462 Q1297.07 16.471 1300.59 13.0277 Q1304.12 9.54393 1311.77 9.54393 L1318.82 9.54393 Z" fill="#000000" fill-rule="nonzero" fill-opacity="1"></path><path clip-path="url(#clip750)" d="M1363.87 48.0275 L1363.87 51.6733 L1329.6 51.6733 Q1330.08 59.3701 1334.22 63.421 Q1338.39 67.4314 1345.8 67.4314 Q1350.1 67.4314 1354.11 66.3781 Q1358.16 65.3249 1362.13 63.2184 L1362.13 70.267 Q1358.12 71.9684 1353.9 72.8596 Q1349.69 73.7508 1345.36 73.7508 Q1334.5 73.7508 1328.14 67.4314 Q1321.82 61.1119 1321.82 50.3365 Q1321.82 39.1965 1327.82 32.6746 Q1333.85 26.1121 1344.06 26.1121 Q1353.22 26.1121 1358.52 32.0264 Q1363.87 37.9003 1363.87 48.0275 M1356.42 45.84 Q1356.33 39.7232 1352.97 36.0774 Q1349.65 32.4315 1344.14 32.4315 Q1337.9 32.4315 1334.14 35.9558 Q1330.41 39.4801 1329.84 45.8805 L1356.42 45.84 Z" fill="#000000" fill-rule="nonzero" fill-opacity="1"></path><path clip-path="url(#clip750)" d="M1402.39 34.1734 Q1401.14 33.4443 1399.64 33.1202 Q1398.18 32.7556 1396.4 32.7556 Q1390.08 32.7556 1386.68 36.8875 Q1383.31 40.9789 1383.31 48.6757 L1383.31 72.576 L1375.82 72.576 L1375.82 27.2059 L1383.31 27.2059 L1383.31 34.2544 Q1385.66 30.1225 1389.43 28.1376 Q1393.2 26.1121 1398.59 26.1121 Q1399.36 26.1121 1400.29 26.2337 Q1401.22 26.3147 1402.35 26.5172 L1402.39 34.1734 Z" fill="#000000" fill-rule="nonzero" fill-opacity="1"></path><path clip-path="url(#clip750)" d="M1447.2 48.0275 L1447.2 51.6733 L1412.93 51.6733 Q1413.41 59.3701 1417.54 63.421 Q1421.72 67.4314 1429.13 67.4314 Q1433.42 67.4314 1437.43 66.3781 Q1441.48 65.3249 1445.45 63.2184 L1445.45 70.267 Q1441.44 71.9684 1437.23 72.8596 Q1433.02 73.7508 1428.68 73.7508 Q1417.83 73.7508 1411.47 67.4314 Q1405.15 61.1119 1405.15 50.3365 Q1405.15 39.1965 1411.14 32.6746 Q1417.18 26.1121 1427.39 26.1121 Q1436.54 26.1121 1441.85 32.0264 Q1447.2 37.9003 1447.2 48.0275 M1439.74 45.84 Q1439.66 39.7232 1436.3 36.0774 Q1432.98 32.4315 1427.47 32.4315 Q1421.23 32.4315 1417.46 35.9558 Q1413.74 39.4801 1413.17 45.8805 L1439.74 45.84 Z" fill="#000000" fill-rule="nonzero" fill-opacity="1"></path><path clip-path="url(#clip750)" d="M1497.14 45.1919 L1497.14 72.576 L1489.69 72.576 L1489.69 45.4349 Q1489.69 38.994 1487.18 35.7938 Q1484.67 32.5936 1479.64 32.5936 Q1473.61 32.5936 1470.12 36.4419 Q1466.64 40.2903 1466.64 46.9338 L1466.64 72.576 L1459.15 72.576 L1459.15 27.2059 L1466.64 27.2059 L1466.64 34.2544 Q1469.31 30.163 1472.92 28.1376 Q1476.57 26.1121 1481.3 26.1121 Q1489.12 26.1121 1493.13 30.9732 Q1497.14 35.7938 1497.14 45.1919 Z" fill="#000000" fill-rule="nonzero" fill-opacity="1"></path><path clip-path="url(#clip750)" d="M1544.66 28.9478 L1544.66 35.9153 Q1541.5 34.1734 1538.3 33.3227 Q1535.14 32.4315 1531.9 32.4315 Q1524.65 32.4315 1520.64 37.0496 Q1516.63 41.6271 1516.63 49.9314 Q1516.63 58.2358 1520.64 62.8538 Q1524.65 67.4314 1531.9 67.4314 Q1535.14 67.4314 1538.3 66.5807 Q1541.5 65.6895 1544.66 63.9476 L1544.66 70.8341 Q1541.54 72.2924 1538.18 73.0216 Q1534.86 73.7508 1531.09 73.7508 Q1520.84 73.7508 1514.81 67.3098 Q1508.77 60.8689 1508.77 49.9314 Q1508.77 38.832 1514.85 32.472 Q1520.96 26.1121 1531.58 26.1121 Q1535.02 26.1121 1538.3 26.8413 Q1541.58 27.5299 1544.66 28.9478 Z" fill="#000000" fill-rule="nonzero" fill-opacity="1"></path><path clip-path="url(#clip750)" d="M1596.43 48.0275 L1596.43 51.6733 L1562.16 51.6733 Q1562.65 59.3701 1566.78 63.421 Q1570.95 67.4314 1578.36 67.4314 Q1582.66 67.4314 1586.67 66.3781 Q1590.72 65.3249 1594.69 63.2184 L1594.69 70.267 Q1590.68 71.9684 1586.47 72.8596 Q1582.25 73.7508 1577.92 73.7508 Q1567.06 73.7508 1560.7 67.4314 Q1554.38 61.1119 1554.38 50.3365 Q1554.38 39.1965 1560.38 32.6746 Q1566.41 26.1121 1576.62 26.1121 Q1585.78 26.1121 1591.08 32.0264 Q1596.43 37.9003 1596.43 48.0275 M1588.98 45.84 Q1588.9 39.7232 1585.53 36.0774 Q1582.21 32.4315 1576.7 32.4315 Q1570.47 32.4315 1566.7 35.9558 Q1562.97 39.4801 1562.4 45.8805 L1588.98 45.84 Z" fill="#000000" fill-rule="nonzero" fill-opacity="1"></path><path clip-path="url(#clip750)" d="M1652.94 9.62495 Q1647.51 18.942 1644.88 28.0566 Q1642.25 37.1711 1642.25 46.5287 Q1642.25 55.8863 1644.88 65.0818 Q1647.55 74.2369 1652.94 83.5134 L1646.46 83.5134 Q1640.38 73.9938 1637.35 64.7983 Q1634.35 55.6027 1634.35 46.5287 Q1634.35 37.4952 1637.35 28.3401 Q1640.34 19.1851 1646.46 9.62495 L1652.94 9.62495 Z" fill="#000000" fill-rule="nonzero" fill-opacity="1"></path><path clip-path="url(#clip750)" d="M1683.32 72.576 L1660.23 12.096 L1668.78 12.096 L1687.94 63.0159 L1707.14 12.096 L1715.65 12.096 L1692.6 72.576 L1683.32 72.576 Z" fill="#000000" fill-rule="nonzero" fill-opacity="1"></path><path clip-path="url(#clip750)" d="M1724.48 12.096 L1732.66 12.096 L1732.66 72.576 L1724.48 72.576 L1724.48 12.096 Z" fill="#000000" fill-rule="nonzero" fill-opacity="1"></path><path clip-path="url(#clip750)" d="M1747.45 9.62495 L1753.93 9.62495 Q1760.01 19.1851 1763 28.3401 Q1766.04 37.4952 1766.04 46.5287 Q1766.04 55.6027 1763 64.7983 Q1760.01 73.9938 1753.93 83.5134 L1747.45 83.5134 Q1752.84 74.2369 1755.47 65.0818 Q1758.14 55.8863 1758.14 46.5287 Q1758.14 37.1711 1755.47 28.0566 Q1752.84 18.942 1747.45 9.62495 Z" fill="#000000" fill-rule="nonzero" fill-opacity="1"></path><path clip-path="url(#clip752)" d="M341.518 1446.6 L347.463 1446.48 L353.408 1446.35 L408.38 1444.49 L463.351 1440.73 L496.387 1436.95 L529.423 1431.48 L557.354 1425.08 L585.285 1416.59 L600.456 1410.92 L615.626 1404.39 L630.797 1396.9 L645.967 1388.35 L659.953 1379.43 L673.939 1369.44 L687.925 1358.27 L701.911 1345.85 L716.905 1331.03 L731.9 1314.56 L746.894 1296.33 L761.889 1276.25 L779.261 1250.56 L796.634 1222.15 L814.006 1190.95 L831.379 1156.89 L846.817 1124.22 L862.256 1089.29 L877.694 1052.17 L893.133 1012.93 L906.671 976.858 L920.21 939.347 L933.748 900.515 L947.286 860.506 L976.807 770.015 L1006.33 676.81 L1036.02 582.825 L1065.72 491.477 L1073.93 467.101 L1082.14 443.228 L1090.34 419.923 L1098.55 397.252 L1106.76 375.28 L1114.97 354.072 L1123.18 333.691 L1131.39 314.197 L1139.2 296.528 L1147.01 279.766 L1154.82 263.958 L1162.63 249.149 L1170.44 235.383 L1178.25 222.699 L1186.05 211.134 L1193.86 200.722 L1201.99 191.152 L1210.11 182.893 L1218.23 175.972 L1226.35 170.41 L1234.47 166.228 L1242.59 163.437 L1250.71 162.047 L1258.83 162.063 L1265.66 163.166 L1272.5 165.262 L1279.34 168.348 L1286.17 172.415 L1293.01 177.453 L1299.84 183.453 L1306.68 190.399 L1313.51 198.276 L1321.86 209.128 L1330.21 221.303 L1338.55 234.762 L1346.9 249.458 L1355.24 265.342 L1363.59 282.364 L1371.93 300.467 L1380.28 319.593 L1395.57 357.085 L1410.86 397.412 L1418.51 418.512 L1426.15 440.164 L1433.8 462.318 L1441.44 484.918 L1469.68 571.407 L1497.93 660.614 L1526.54 751.187 L1555.15 839.653 L1571.18 887.555 L1587.21 933.88 L1603.24 978.38 L1619.27 1020.85 L1633.8 1057.45 L1648.33 1092.16 L1662.86 1124.92 L1677.38 1155.68 L1694.02 1188.44 L1710.65 1218.58 L1727.28 1246.15 L1743.92 1271.21 L1759.32 1292.27 L1774.72 1311.36 L1790.12 1328.58 L1805.52 1344.03 L1820.7 1357.66 L1835.88 1369.79 L1851.07 1380.55 L1866.25 1390.05 L1880.99 1398.17 L1895.73 1405.31 L1910.48 1411.55 L1925.22 1416.98 L1955.44 1425.97 L1985.66 1432.57 L2018.78 1437.73 L2051.89 1441.26 L2100 1444.44 L2148.1 1446.16 L2157.97 1446.39 L2167.84 1446.6 L2167.84 1447.87 L2157.97 1447.87 L2148.1 1447.87 L2100 1447.87 L2051.89 1447.87 L2018.78 1447.87 L1985.66 1447.87 L1955.44 1447.87 L1925.22 1447.87 L1910.48 1447.87 L1895.73 1447.87 L1880.99 1447.87 L1866.25 1447.87 L1851.07 1447.87 L1835.88 1447.87 L1820.7 1447.87 L1805.52 1447.87 L1790.12 1447.87 L1774.72 1447.87 L1759.32 1447.87 L1743.92 1447.87 L1727.28 1447.87 L1710.65 1447.87 L1694.02 1447.87 L1677.38 1447.87 L1662.86 1447.87 L1648.33 1447.87 L1633.8 1447.87 L1619.27 1447.87 L1603.24 1447.87 L1587.21 1447.87 L1571.18 1447.87 L1555.15 1447.87 L1526.54 1447.87 L1497.93 1447.87 L1469.68 1447.87 L1441.44 1447.87 L1433.8 1447.87 L1426.15 1447.87 L1418.51 1447.87 L1410.86 1447.87 L1395.57 1447.87 L1380.28 1447.87 L1371.93 1447.87 L1363.59 1447.87 L1355.24 1447.87 L1346.9 1447.87 L1338.55 1447.87 L1330.21 1447.87 L1321.86 1447.87 L1313.51 1447.87 L1306.68 1447.87 L1299.84 1447.87 L1293.01 1447.87 L1286.17 1447.87 L1279.34 1447.87 L1272.5 1447.87 L1265.66 1447.87 L1258.83 1447.87 L1250.71 1447.87 L1242.59 1447.87 L1234.47 1447.87 L1226.35 1447.87 L1218.23 1447.87 L1210.11 1447.87 L1201.99 1447.87 L1193.86 1447.87 L1186.05 1447.87 L1178.25 1447.87 L1170.44 1447.87 L1162.63 1447.87 L1154.82 1447.87 L1147.01 1447.87 L1139.2 1447.87 L1131.39 1447.87 L1123.18 1447.87 L1114.97 1447.87 L1106.76 1447.87 L1098.55 1447.87 L1090.34 1447.87 L1082.14 1447.87 L1073.93 1447.87 L1065.72 1447.87 L1036.02 1447.87 L1006.33 1447.87 L976.807 1447.87 L947.286 1447.87 L933.748 1447.87 L920.21 1447.87 L906.671 1447.87 L893.133 1447.87 L877.694 1447.87 L862.256 1447.87 L846.817 1447.87 L831.379 1447.87 L814.006 1447.87 L796.634 1447.87 L779.261 1447.87 L761.889 1447.87 L746.894 1447.87 L731.9 1447.87 L716.905 1447.87 L701.911 1447.87 L687.925 1447.87 L673.939 1447.87 L659.953 1447.87 L645.967 1447.87 L630.797 1447.87 L615.626 1447.87 L600.456 1447.87 L585.285 1447.87 L557.354 1447.87 L529.423 1447.87 L496.387 1447.87 L463.351 1447.87 L408.38 1447.87 L353.408 1447.87 L347.463 1447.87 L341.518 1447.87  Z" fill="#009af9" fill-rule="evenodd" fill-opacity="0.3"></path>
<polyline clip-path="url(#clip752)" style="stroke:#009af9; stroke-linecap:round; stroke-linejoin:round; stroke-width:4; stroke-opacity:0.3; fill:none" points="341.518,1446.6 347.463,1446.48 353.408,1446.35 408.38,1444.49 463.351,1440.73 496.387,1436.95 529.423,1431.48 557.354,1425.08 585.285,1416.59 600.456,1410.92 615.626,1404.39 630.797,1396.9 645.967,1388.35 659.953,1379.43 673.939,1369.44 687.925,1358.27 701.911,1345.85 716.905,1331.03 731.9,1314.56 746.894,1296.33 761.889,1276.25 779.261,1250.56 796.634,1222.15 814.006,1190.95 831.379,1156.89 846.817,1124.22 862.256,1089.29 877.694,1052.17 893.133,1012.93 906.671,976.858 920.21,939.347 933.748,900.515 947.286,860.506 976.807,770.015 1006.33,676.81 1036.02,582.825 1065.72,491.477 1073.93,467.101 1082.14,443.228 1090.34,419.923 1098.55,397.252 1106.76,375.28 1114.97,354.072 1123.18,333.691 1131.39,314.197 1139.2,296.528 1147.01,279.766 1154.82,263.958 1162.63,249.149 1170.44,235.383 1178.25,222.699 1186.05,211.134 1193.86,200.722 1201.99,191.152 1210.11,182.893 1218.23,175.972 1226.35,170.41 1234.47,166.228 1242.59,163.437 1250.71,162.047 1258.83,162.063 1265.66,163.166 1272.5,165.262 1279.34,168.348 1286.17,172.415 1293.01,177.453 1299.84,183.453 1306.68,190.399 1313.51,198.276 1321.86,209.128 1330.21,221.303 1338.55,234.762 1346.9,249.458 1355.24,265.342 1363.59,282.364 1371.93,300.467 1380.28,319.593 1395.57,357.085 1410.86,397.412 1418.51,418.512 1426.15,440.164 1433.8,462.318 1441.44,484.918 1469.68,571.407 1497.93,660.614 1526.54,751.187 1555.15,839.653 1571.18,887.555 1587.21,933.88 1603.24,978.38 1619.27,1020.85 1633.8,1057.45 1648.33,1092.16 1662.86,1124.92 1677.38,1155.68 1694.02,1188.44 1710.65,1218.58 1727.28,1246.15 1743.92,1271.21 1759.32,1292.27 1774.72,1311.36 1790.12,1328.58 1805.52,1344.03 1820.7,1357.66 1835.88,1369.79 1851.07,1380.55 1866.25,1390.05 1880.99,1398.17 1895.73,1405.31 1910.48,1411.55 1925.22,1416.98 1955.44,1425.97 1985.66,1432.57 2018.78,1437.73 2051.89,1441.26 2100,1444.44 2148.1,1446.16 2157.97,1446.39 2167.84,1446.6 "></polyline>
<polyline clip-path="url(#clip752)" style="stroke:#3da44d; stroke-linecap:round; stroke-linejoin:round; stroke-width:8; stroke-opacity:1; fill:none" stroke-dasharray="32, 20" points="341.572,1446.6 347.525,1446.48 353.478,1446.35 408.523,1444.49 463.567,1440.74 496.647,1436.97 529.726,1431.5 557.694,1425.11 585.663,1416.63 600.853,1410.97 616.044,1404.45 631.235,1396.97 646.425,1388.43 660.43,1379.52 674.434,1369.54 688.439,1358.39 702.443,1345.98 717.457,1331.18 732.472,1314.73 747.486,1296.53 762.5,1276.47 779.896,1250.82 797.291,1222.45 814.687,1191.29 832.082,1157.28 847.541,1124.65 863,1089.77 878.459,1052.69 893.918,1013.5 907.475,977.481 921.031,940.02 934.587,901.239 948.143,861.283 977.703,770.912 1007.26,677.83 1037,583.969 1066.73,492.742 1074.95,468.399 1083.17,444.557 1091.39,421.283 1099.61,398.642 1107.83,376.699 1116.05,355.519 1124.27,335.164 1132.49,315.696 1140.31,298.051 1148.13,281.311 1155.95,265.524 1163.77,250.735 1171.59,236.987 1179.41,224.319 1187.23,212.77 1195.05,202.371 1203.18,192.814 1211.31,184.566 1219.44,177.654 1227.57,172.1 1235.7,167.923 1243.84,165.136 1251.97,163.748 1260.1,163.764 1266.94,164.865 1273.79,166.959 1280.63,170.04 1287.48,174.102 1294.32,179.134 1301.17,185.125 1308.01,192.062 1314.86,199.929 1323.21,210.766 1331.57,222.926 1339.93,236.366 1348.28,251.043 1356.64,266.907 1365,283.906 1373.35,301.985 1381.71,321.085 1397.02,358.528 1412.33,398.802 1419.99,419.873 1427.64,441.497 1435.3,463.621 1442.95,486.192 1471.23,572.567 1499.51,661.655 1528.16,752.108 1556.81,840.458 1572.86,888.296 1588.92,934.56 1604.97,979.001 1621.02,1021.42 1635.57,1057.97 1650.12,1092.63 1664.66,1125.34 1679.21,1156.07 1695.86,1188.78 1712.52,1218.89 1729.17,1246.42 1745.83,1271.45 1761.25,1292.48 1776.67,1311.54 1792.09,1328.74 1807.51,1344.17 1822.72,1357.78 1837.92,1369.89 1853.12,1380.64 1868.32,1390.13 1883.09,1398.24 1897.85,1405.36 1912.61,1411.6 1927.37,1417.03 1957.63,1426 1987.9,1432.59 2021.06,1437.74 2054.21,1441.27 2102.38,1444.45 2150.55,1446.16 2160.43,1446.39 2170.31,1446.6 "></polyline>
<path clip-path="url(#clip750)" d="M1656.97 324.425 L2279.55 324.425 L2279.55 168.905 L1656.97 168.905  Z" fill="#ffffff" fill-rule="evenodd" fill-opacity="1"></path>
<polyline clip-path="url(#clip750)" style="stroke:#000000; stroke-linecap:round; stroke-linejoin:round; stroke-width:4; stroke-opacity:1; fill:none" points="1656.97,324.425 2279.55,324.425 2279.55,168.905 1656.97,168.905 1656.97,324.425 "></polyline>
<path clip-path="url(#clip750)" d="M1681.38 241.481 L1827.79 241.481 L1827.79 200.009 L1681.38 200.009 L1681.38 241.481  Z" fill="#009af9" fill-rule="evenodd" fill-opacity="0.3"></path>
<polyline clip-path="url(#clip750)" style="stroke:#009af9; stroke-linecap:round; stroke-linejoin:round; stroke-width:4; stroke-opacity:0.3; fill:none" points="1681.38,200.009 1827.79,200.009 "></polyline>
<path clip-path="url(#clip750)" d="M1852.19 203.465 L1881.42 203.465 L1881.42 207.4 L1869.16 207.4 L1869.16 238.025 L1864.46 238.025 L1864.46 207.4 L1852.19 207.4 L1852.19 203.465 Z" fill="#000000" fill-rule="nonzero" fill-opacity="1"></path><path clip-path="url(#clip750)" d="M1893.81 216.08 Q1893.09 215.664 1892.23 215.478 Q1891.4 215.27 1890.38 215.27 Q1886.77 215.27 1884.83 217.631 Q1882.91 219.969 1882.91 224.367 L1882.91 238.025 L1878.62 238.025 L1878.62 212.099 L1882.91 212.099 L1882.91 216.127 Q1884.25 213.766 1886.4 212.631 Q1888.55 211.474 1891.63 211.474 Q1892.07 211.474 1892.6 211.543 Q1893.14 211.59 1893.79 211.705 L1893.81 216.08 Z" fill="#000000" fill-rule="nonzero" fill-opacity="1"></path><path clip-path="url(#clip750)" d="M1897.84 227.793 L1897.84 212.099 L1902.1 212.099 L1902.1 227.631 Q1902.1 231.312 1903.53 233.164 Q1904.97 234.992 1907.84 234.992 Q1911.28 234.992 1913.28 232.793 Q1915.29 230.594 1915.29 226.798 L1915.29 212.099 L1919.55 212.099 L1919.55 238.025 L1915.29 238.025 L1915.29 234.043 Q1913.74 236.404 1911.68 237.562 Q1909.64 238.696 1906.93 238.696 Q1902.47 238.696 1900.15 235.918 Q1897.84 233.14 1897.84 227.793 M1908.55 211.474 L1908.55 211.474 Z" fill="#000000" fill-rule="nonzero" fill-opacity="1"></path><path clip-path="url(#clip750)" d="M1950.5 223.997 L1950.5 226.08 L1930.91 226.08 Q1931.19 230.478 1933.55 232.793 Q1935.94 235.085 1940.17 235.085 Q1942.63 235.085 1944.92 234.483 Q1947.23 233.881 1949.5 232.677 L1949.5 236.705 Q1947.21 237.677 1944.8 238.187 Q1942.4 238.696 1939.92 238.696 Q1933.72 238.696 1930.08 235.085 Q1926.47 231.474 1926.47 225.316 Q1926.47 218.951 1929.9 215.224 Q1933.35 211.474 1939.18 211.474 Q1944.41 211.474 1947.44 214.853 Q1950.5 218.21 1950.5 223.997 M1946.24 222.747 Q1946.19 219.252 1944.27 217.168 Q1942.37 215.085 1939.22 215.085 Q1935.66 215.085 1933.51 217.099 Q1931.38 219.113 1931.05 222.77 L1946.24 222.747 Z" fill="#000000" fill-rule="nonzero" fill-opacity="1"></path><path clip-path="url(#clip750)" d="M1977.42 207.307 L1977.42 234.182 L1983.07 234.182 Q1990.22 234.182 1993.53 230.941 Q1996.86 227.701 1996.86 220.71 Q1996.86 213.766 1993.53 210.548 Q1990.22 207.307 1983.07 207.307 L1977.42 207.307 M1972.74 203.465 L1982.35 203.465 Q1992.4 203.465 1997.09 207.654 Q2001.79 211.821 2001.79 220.71 Q2001.79 229.645 1997.07 233.835 Q1992.35 238.025 1982.35 238.025 L1972.74 238.025 L1972.74 203.465 Z" fill="#000000" fill-rule="nonzero" fill-opacity="1"></path><path clip-path="url(#clip750)" d="M2009.06 212.099 L2013.32 212.099 L2013.32 238.025 L2009.06 238.025 L2009.06 212.099 M2009.06 202.006 L2013.32 202.006 L2013.32 207.4 L2009.06 207.4 L2009.06 202.006 Z" fill="#000000" fill-rule="nonzero" fill-opacity="1"></path><path clip-path="url(#clip750)" d="M2038.76 212.863 L2038.76 216.891 Q2036.96 215.965 2035.01 215.502 Q2033.07 215.039 2030.98 215.039 Q2027.81 215.039 2026.21 216.011 Q2024.64 216.983 2024.64 218.928 Q2024.64 220.409 2025.78 221.265 Q2026.91 222.099 2030.34 222.863 L2031.79 223.187 Q2036.33 224.159 2038.23 225.941 Q2040.15 227.701 2040.15 230.872 Q2040.15 234.483 2037.28 236.589 Q2034.43 238.696 2029.43 238.696 Q2027.35 238.696 2025.08 238.279 Q2022.84 237.886 2020.34 237.076 L2020.34 232.677 Q2022.7 233.904 2024.99 234.529 Q2027.28 235.131 2029.53 235.131 Q2032.53 235.131 2034.15 234.113 Q2035.78 233.071 2035.78 231.196 Q2035.78 229.46 2034.59 228.534 Q2033.44 227.608 2029.48 226.752 L2028 226.404 Q2024.04 225.571 2022.28 223.858 Q2020.52 222.122 2020.52 219.113 Q2020.52 215.455 2023.11 213.465 Q2025.71 211.474 2030.47 211.474 Q2032.84 211.474 2034.92 211.821 Q2037 212.168 2038.76 212.863 Z" fill="#000000" fill-rule="nonzero" fill-opacity="1"></path><path clip-path="url(#clip750)" d="M2051.15 204.738 L2051.15 212.099 L2059.92 212.099 L2059.92 215.409 L2051.15 215.409 L2051.15 229.483 Q2051.15 232.654 2052 233.557 Q2052.88 234.46 2055.54 234.46 L2059.92 234.46 L2059.92 238.025 L2055.54 238.025 Q2050.61 238.025 2048.74 236.196 Q2046.86 234.344 2046.86 229.483 L2046.86 215.409 L2043.74 215.409 L2043.74 212.099 L2046.86 212.099 L2046.86 204.738 L2051.15 204.738 Z" fill="#000000" fill-rule="nonzero" fill-opacity="1"></path><path clip-path="url(#clip750)" d="M2080.54 216.08 Q2079.83 215.664 2078.97 215.478 Q2078.14 215.27 2077.12 215.27 Q2073.51 215.27 2071.56 217.631 Q2069.64 219.969 2069.64 224.367 L2069.64 238.025 L2065.36 238.025 L2065.36 212.099 L2069.64 212.099 L2069.64 216.127 Q2070.98 213.766 2073.14 212.631 Q2075.29 211.474 2078.37 211.474 Q2078.81 211.474 2079.34 211.543 Q2079.87 211.59 2080.52 211.705 L2080.54 216.08 Z" fill="#000000" fill-rule="nonzero" fill-opacity="1"></path><path clip-path="url(#clip750)" d="M2085.01 212.099 L2089.27 212.099 L2089.27 238.025 L2085.01 238.025 L2085.01 212.099 M2085.01 202.006 L2089.27 202.006 L2089.27 207.4 L2085.01 207.4 L2085.01 202.006 Z" fill="#000000" fill-rule="nonzero" fill-opacity="1"></path><path clip-path="url(#clip750)" d="M2116.79 225.085 Q2116.79 220.386 2114.85 217.724 Q2112.93 215.039 2109.55 215.039 Q2106.17 215.039 2104.22 217.724 Q2102.3 220.386 2102.3 225.085 Q2102.3 229.784 2104.22 232.469 Q2106.17 235.131 2109.55 235.131 Q2112.93 235.131 2114.85 232.469 Q2116.79 229.784 2116.79 225.085 M2102.3 216.034 Q2103.65 213.719 2105.68 212.608 Q2107.74 211.474 2110.59 211.474 Q2115.31 211.474 2118.25 215.224 Q2121.21 218.974 2121.21 225.085 Q2121.21 231.196 2118.25 234.946 Q2115.31 238.696 2110.59 238.696 Q2107.74 238.696 2105.68 237.585 Q2103.65 236.451 2102.3 234.136 L2102.3 238.025 L2098.02 238.025 L2098.02 202.006 L2102.3 202.006 L2102.3 216.034 Z" fill="#000000" fill-rule="nonzero" fill-opacity="1"></path><path clip-path="url(#clip750)" d="M2127.83 227.793 L2127.83 212.099 L2132.09 212.099 L2132.09 227.631 Q2132.09 231.312 2133.53 233.164 Q2134.96 234.992 2137.83 234.992 Q2141.28 234.992 2143.27 232.793 Q2145.29 230.594 2145.29 226.798 L2145.29 212.099 L2149.55 212.099 L2149.55 238.025 L2145.29 238.025 L2145.29 234.043 Q2143.74 236.404 2141.68 237.562 Q2139.64 238.696 2136.93 238.696 Q2132.46 238.696 2130.15 235.918 Q2127.83 233.14 2127.83 227.793 M2138.55 211.474 L2138.55 211.474 Z" fill="#000000" fill-rule="nonzero" fill-opacity="1"></path><path clip-path="url(#clip750)" d="M2162.53 204.738 L2162.53 212.099 L2171.31 212.099 L2171.31 215.409 L2162.53 215.409 L2162.53 229.483 Q2162.53 232.654 2163.39 233.557 Q2164.27 234.46 2166.93 234.46 L2171.31 234.46 L2171.31 238.025 L2166.93 238.025 Q2162 238.025 2160.13 236.196 Q2158.25 234.344 2158.25 229.483 L2158.25 215.409 L2155.13 215.409 L2155.13 212.099 L2158.25 212.099 L2158.25 204.738 L2162.53 204.738 Z" fill="#000000" fill-rule="nonzero" fill-opacity="1"></path><path clip-path="url(#clip750)" d="M2176.91 212.099 L2181.17 212.099 L2181.17 238.025 L2176.91 238.025 L2176.91 212.099 M2176.91 202.006 L2181.17 202.006 L2181.17 207.4 L2176.91 207.4 L2176.91 202.006 Z" fill="#000000" fill-rule="nonzero" fill-opacity="1"></path><path clip-path="url(#clip750)" d="M2200.13 215.085 Q2196.7 215.085 2194.71 217.77 Q2192.72 220.432 2192.72 225.085 Q2192.72 229.738 2194.69 232.423 Q2196.68 235.085 2200.13 235.085 Q2203.53 235.085 2205.52 232.4 Q2207.51 229.715 2207.51 225.085 Q2207.51 220.478 2205.52 217.793 Q2203.53 215.085 2200.13 215.085 M2200.13 211.474 Q2205.68 211.474 2208.85 215.085 Q2212.02 218.696 2212.02 225.085 Q2212.02 231.451 2208.85 235.085 Q2205.68 238.696 2200.13 238.696 Q2194.55 238.696 2191.38 235.085 Q2188.23 231.451 2188.23 225.085 Q2188.23 218.696 2191.38 215.085 Q2194.55 211.474 2200.13 211.474 Z" fill="#000000" fill-rule="nonzero" fill-opacity="1"></path><path clip-path="url(#clip750)" d="M2240.64 222.377 L2240.64 238.025 L2236.38 238.025 L2236.38 222.515 Q2236.38 218.835 2234.94 217.006 Q2233.51 215.178 2230.64 215.178 Q2227.19 215.178 2225.2 217.377 Q2223.2 219.576 2223.2 223.372 L2223.2 238.025 L2218.92 238.025 L2218.92 212.099 L2223.2 212.099 L2223.2 216.127 Q2224.73 213.789 2226.79 212.631 Q2228.88 211.474 2231.58 211.474 Q2236.05 211.474 2238.34 214.252 Q2240.64 217.006 2240.64 222.377 Z" fill="#000000" fill-rule="nonzero" fill-opacity="1"></path><polyline clip-path="url(#clip750)" style="stroke:#3da44d; stroke-linecap:round; stroke-linejoin:round; stroke-width:8; stroke-opacity:1; fill:none" stroke-dasharray="32, 20" points="1681.38,272.585 1827.79,272.585 "></polyline>
<path clip-path="url(#clip750)" d="M1865.38 289.865 L1852.19 255.305 L1857.07 255.305 L1868.02 284.402 L1878.99 255.305 L1883.85 255.305 L1870.68 289.865 L1865.38 289.865 Z" fill="#000000" fill-rule="nonzero" fill-opacity="1"></path><path clip-path="url(#clip750)" d="M1888.9 255.305 L1893.58 255.305 L1893.58 289.865 L1888.9 289.865 L1888.9 255.305 Z" fill="#000000" fill-rule="nonzero" fill-opacity="1"></path><path clip-path="url(#clip750)" d="M1929.5 259.911 L1923.16 277.11 L1935.87 277.11 L1929.5 259.911 M1926.86 255.305 L1932.16 255.305 L1945.34 289.865 L1940.47 289.865 L1937.33 280.999 L1921.75 280.999 L1918.6 289.865 L1913.67 289.865 L1926.86 255.305 Z" fill="#000000" fill-rule="nonzero" fill-opacity="1"></path><path clip-path="url(#clip750)" d="M1954.32 285.976 L1954.32 299.726 L1950.03 299.726 L1950.03 263.939 L1954.32 263.939 L1954.32 267.874 Q1955.66 265.559 1957.7 264.448 Q1959.76 263.314 1962.6 263.314 Q1967.33 263.314 1970.27 267.064 Q1973.23 270.814 1973.23 276.925 Q1973.23 283.036 1970.27 286.786 Q1967.33 290.536 1962.6 290.536 Q1959.76 290.536 1957.7 289.425 Q1955.66 288.291 1954.32 285.976 M1968.81 276.925 Q1968.81 272.226 1966.86 269.564 Q1964.94 266.879 1961.56 266.879 Q1958.18 266.879 1956.24 269.564 Q1954.32 272.226 1954.32 276.925 Q1954.32 281.624 1956.24 284.309 Q1958.18 286.971 1961.56 286.971 Q1964.94 286.971 1966.86 284.309 Q1968.81 281.624 1968.81 276.925 Z" fill="#000000" fill-rule="nonzero" fill-opacity="1"></path><path clip-path="url(#clip750)" d="M1984.41 285.976 L1984.41 299.726 L1980.13 299.726 L1980.13 263.939 L1984.41 263.939 L1984.41 267.874 Q1985.75 265.559 1987.79 264.448 Q1989.85 263.314 1992.7 263.314 Q1997.42 263.314 2000.36 267.064 Q2003.32 270.814 2003.32 276.925 Q2003.32 283.036 2000.36 286.786 Q1997.42 290.536 1992.7 290.536 Q1989.85 290.536 1987.79 289.425 Q1985.75 288.291 1984.41 285.976 M1998.9 276.925 Q1998.9 272.226 1996.96 269.564 Q1995.03 266.879 1991.65 266.879 Q1988.28 266.879 1986.33 269.564 Q1984.41 272.226 1984.41 276.925 Q1984.41 281.624 1986.33 284.309 Q1988.28 286.971 1991.65 286.971 Q1995.03 286.971 1996.96 284.309 Q1998.9 281.624 1998.9 276.925 Z" fill="#000000" fill-rule="nonzero" fill-opacity="1"></path><path clip-path="url(#clip750)" d="M2025.4 267.92 Q2024.69 267.504 2023.83 267.318 Q2023 267.11 2021.98 267.11 Q2018.37 267.11 2016.42 269.471 Q2014.5 271.809 2014.5 276.207 L2014.5 289.865 L2010.22 289.865 L2010.22 263.939 L2014.5 263.939 L2014.5 267.967 Q2015.84 265.606 2018 264.471 Q2020.15 263.314 2023.23 263.314 Q2023.67 263.314 2024.2 263.383 Q2024.73 263.43 2025.38 263.545 L2025.4 267.92 Z" fill="#000000" fill-rule="nonzero" fill-opacity="1"></path><path clip-path="url(#clip750)" d="M2038.88 266.925 Q2035.45 266.925 2033.46 269.61 Q2031.47 272.272 2031.47 276.925 Q2031.47 281.578 2033.44 284.263 Q2035.43 286.925 2038.88 286.925 Q2042.28 286.925 2044.27 284.24 Q2046.26 281.555 2046.26 276.925 Q2046.26 272.318 2044.27 269.633 Q2042.28 266.925 2038.88 266.925 M2038.88 263.314 Q2044.43 263.314 2047.6 266.925 Q2050.77 270.536 2050.77 276.925 Q2050.77 283.291 2047.6 286.925 Q2044.43 290.536 2038.88 290.536 Q2033.3 290.536 2030.13 286.925 Q2026.98 283.291 2026.98 276.925 Q2026.98 270.536 2030.13 266.925 Q2033.3 263.314 2038.88 263.314 Z" fill="#000000" fill-rule="nonzero" fill-opacity="1"></path><path clip-path="url(#clip750)" d="M2077.93 263.939 L2068.55 276.555 L2078.41 289.865 L2073.39 289.865 L2065.84 279.68 L2058.3 289.865 L2053.27 289.865 L2063.34 276.3 L2054.13 263.939 L2059.15 263.939 L2066.03 273.175 L2072.9 263.939 L2077.93 263.939 Z" fill="#000000" fill-rule="nonzero" fill-opacity="1"></path><path clip-path="url(#clip750)" d="M2084.43 263.939 L2088.69 263.939 L2088.69 289.865 L2084.43 289.865 L2084.43 263.939 M2084.43 253.846 L2088.69 253.846 L2088.69 259.24 L2084.43 259.24 L2084.43 253.846 Z" fill="#000000" fill-rule="nonzero" fill-opacity="1"></path><path clip-path="url(#clip750)" d="M2117.79 268.916 Q2119.39 266.045 2121.61 264.68 Q2123.83 263.314 2126.84 263.314 Q2130.89 263.314 2133.09 266.161 Q2135.29 268.985 2135.29 274.217 L2135.29 289.865 L2131.01 289.865 L2131.01 274.355 Q2131.01 270.629 2129.69 268.823 Q2128.37 267.018 2125.66 267.018 Q2122.35 267.018 2120.43 269.217 Q2118.51 271.416 2118.51 275.212 L2118.51 289.865 L2114.22 289.865 L2114.22 274.355 Q2114.22 270.605 2112.9 268.823 Q2111.58 267.018 2108.83 267.018 Q2105.57 267.018 2103.65 269.24 Q2101.72 271.439 2101.72 275.212 L2101.72 289.865 L2097.44 289.865 L2097.44 263.939 L2101.72 263.939 L2101.72 267.967 Q2103.18 265.582 2105.22 264.448 Q2107.26 263.314 2110.06 263.314 Q2112.88 263.314 2114.85 264.749 Q2116.84 266.184 2117.79 268.916 Z" fill="#000000" fill-rule="nonzero" fill-opacity="1"></path><path clip-path="url(#clip750)" d="M2155.57 276.832 Q2150.4 276.832 2148.41 278.013 Q2146.42 279.193 2146.42 282.041 Q2146.42 284.309 2147.9 285.652 Q2149.41 286.971 2151.98 286.971 Q2155.52 286.971 2157.65 284.471 Q2159.8 281.948 2159.8 277.781 L2159.8 276.832 L2155.57 276.832 M2164.06 275.073 L2164.06 289.865 L2159.8 289.865 L2159.8 285.929 Q2158.34 288.291 2156.17 289.425 Q2153.99 290.536 2150.84 290.536 Q2146.86 290.536 2144.5 288.314 Q2142.16 286.068 2142.16 282.318 Q2142.16 277.943 2145.08 275.721 Q2148.02 273.499 2153.83 273.499 L2159.8 273.499 L2159.8 273.082 Q2159.8 270.143 2157.86 268.545 Q2155.94 266.925 2152.44 266.925 Q2150.22 266.925 2148.11 267.457 Q2146.01 267.99 2144.06 269.055 L2144.06 265.119 Q2146.4 264.217 2148.6 263.777 Q2150.8 263.314 2152.88 263.314 Q2158.51 263.314 2161.28 266.231 Q2164.06 269.147 2164.06 275.073 Z" fill="#000000" fill-rule="nonzero" fill-opacity="1"></path><path clip-path="url(#clip750)" d="M2177.05 256.578 L2177.05 263.939 L2185.82 263.939 L2185.82 267.249 L2177.05 267.249 L2177.05 281.323 Q2177.05 284.494 2177.9 285.397 Q2178.78 286.3 2181.45 286.3 L2185.82 286.3 L2185.82 289.865 L2181.45 289.865 Q2176.52 289.865 2174.64 288.036 Q2172.77 286.184 2172.77 281.323 L2172.77 267.249 L2169.64 267.249 L2169.64 263.939 L2172.77 263.939 L2172.77 256.578 L2177.05 256.578 Z" fill="#000000" fill-rule="nonzero" fill-opacity="1"></path><path clip-path="url(#clip750)" d="M2191.42 263.939 L2195.68 263.939 L2195.68 289.865 L2191.42 289.865 L2191.42 263.939 M2191.42 253.846 L2195.68 253.846 L2195.68 259.24 L2191.42 259.24 L2191.42 253.846 Z" fill="#000000" fill-rule="nonzero" fill-opacity="1"></path><path clip-path="url(#clip750)" d="M2214.64 266.925 Q2211.21 266.925 2209.22 269.61 Q2207.23 272.272 2207.23 276.925 Q2207.23 281.578 2209.2 284.263 Q2211.19 286.925 2214.64 286.925 Q2218.04 286.925 2220.03 284.24 Q2222.02 281.555 2222.02 276.925 Q2222.02 272.318 2220.03 269.633 Q2218.04 266.925 2214.64 266.925 M2214.64 263.314 Q2220.2 263.314 2223.37 266.925 Q2226.54 270.536 2226.54 276.925 Q2226.54 283.291 2223.37 286.925 Q2220.2 290.536 2214.64 290.536 Q2209.06 290.536 2205.89 286.925 Q2202.74 283.291 2202.74 276.925 Q2202.74 270.536 2205.89 266.925 Q2209.06 263.314 2214.64 263.314 Z" fill="#000000" fill-rule="nonzero" fill-opacity="1"></path><path clip-path="url(#clip750)" d="M2255.15 274.217 L2255.15 289.865 L2250.89 289.865 L2250.89 274.355 Q2250.89 270.675 2249.45 268.846 Q2248.02 267.018 2245.15 267.018 Q2241.7 267.018 2239.71 269.217 Q2237.72 271.416 2237.72 275.212 L2237.72 289.865 L2233.44 289.865 L2233.44 263.939 L2237.72 263.939 L2237.72 267.967 Q2239.25 265.629 2241.31 264.471 Q2243.39 263.314 2246.1 263.314 Q2250.57 263.314 2252.86 266.092 Q2255.15 268.846 2255.15 274.217 Z" fill="#000000" fill-rule="nonzero" fill-opacity="1"></path></svg>