<svg xmlns="http://www.w3.org/2000/svg" xmlns:xlink="http://www.w3.org/1999/xlink" width="600" height="400" viewBox="0 0 2400 1600">
<defs>
  <clipPath id="clip670">
    <rect x="0" y="0" width="2400" height="1600"></rect>
  </clipPath>
</defs>
<path clip-path="url(#clip670)" d="M0 1600 L2400 1600 L2400 0 L0 0  Z" fill="#ffffff" fill-rule="evenodd" fill-opacity="1"></path>
<defs>
  <clipPath id="clip671">
    <rect x="480" y="0" width="1681" height="1600"></rect>
  </clipPath>
</defs>
<path clip-path="url(#clip670)" d="M202.177 1486.45 L2352.76 1486.45 L2352.76 123.472 L202.177 123.472  Z" fill="#ffffff" fill-rule="evenodd" fill-opacity="1"></path>
<defs>
  <clipPath id="clip672">
    <rect x="202" y="123" width="2152" height="1364"></rect>
  </clipPath>
</defs>
<polyline clip-path="url(#clip672)" style="stroke:#000000; stroke-linecap:round; stroke-linejoin:round; stroke-width:2; stroke-opacity:0.1; fill:none" points="320.462,1486.45 320.462,123.472 "></polyline>
<polyline clip-path="url(#clip672)" style="stroke:#000000; stroke-linecap:round; stroke-linejoin:round; stroke-width:2; stroke-opacity:0.1; fill:none" points="798.964,1486.45 798.964,123.472 "></polyline>
<polyline clip-path="url(#clip672)" style="stroke:#000000; stroke-linecap:round; stroke-linejoin:round; stroke-width:2; stroke-opacity:0.1; fill:none" points="1277.47,1486.45 1277.47,123.472 "></polyline>
<polyline clip-path="url(#clip672)" style="stroke:#000000; stroke-linecap:round; stroke-linejoin:round; stroke-width:2; stroke-opacity:0.1; fill:none" points="1755.97,1486.45 1755.97,123.472 "></polyline>
<polyline clip-path="url(#clip672)" style="stroke:#000000; stroke-linecap:round; stroke-linejoin:round; stroke-width:2; stroke-opacity:0.1; fill:none" points="2234.47,1486.45 2234.47,123.472 "></polyline>
<polyline clip-path="url(#clip670)" style="stroke:#000000; stroke-linecap:round; stroke-linejoin:round; stroke-width:4; stroke-opacity:1; fill:none" points="202.177,1486.45 2352.76,1486.45 "></polyline>
<polyline clip-path="url(#clip670)" style="stroke:#000000; stroke-linecap:round; stroke-linejoin:round; stroke-width:4; stroke-opacity:1; fill:none" points="320.462,1486.45 320.462,1467.55 "></polyline>
<polyline clip-path="url(#clip670)" style="stroke:#000000; stroke-linecap:round; stroke-linejoin:round; stroke-width:4; stroke-opacity:1; fill:none" points="798.964,1486.45 798.964,1467.55 "></polyline>
<polyline clip-path="url(#clip670)" style="stroke:#000000; stroke-linecap:round; stroke-linejoin:round; stroke-width:4; stroke-opacity:1; fill:none" points="1277.47,1486.45 1277.47,1467.55 "></polyline>
<polyline clip-path="url(#clip670)" style="stroke:#000000; stroke-linecap:round; stroke-linejoin:round; stroke-width:4; stroke-opacity:1; fill:none" points="1755.97,1486.45 1755.97,1467.55 "></polyline>
<polyline clip-path="url(#clip670)" style="stroke:#000000; stroke-linecap:round; stroke-linejoin:round; stroke-width:4; stroke-opacity:1; fill:none" points="2234.47,1486.45 2234.47,1467.55 "></polyline>
<path clip-path="url(#clip670)" d="M310.844 1544.91 L318.483 1544.91 L318.483 1518.55 L310.173 1520.21 L310.173 1515.95 L318.437 1514.29 L323.113 1514.29 L323.113 1544.91 L330.752 1544.91 L330.752 1548.85 L310.844 1548.85 L310.844 1544.91 Z" fill="#000000" fill-rule="nonzero" fill-opacity="1"></path><path clip-path="url(#clip670)" d="M793.617 1544.91 L809.937 1544.91 L809.937 1548.85 L787.992 1548.85 L787.992 1544.91 Q790.654 1542.16 795.238 1537.53 Q799.844 1532.88 801.025 1531.53 Q803.27 1529.01 804.149 1527.27 Q805.052 1525.51 805.052 1523.82 Q805.052 1521.07 803.108 1519.33 Q801.187 1517.6 798.085 1517.6 Q795.886 1517.6 793.432 1518.36 Q791.001 1519.13 788.224 1520.68 L788.224 1515.95 Q791.048 1514.82 793.501 1514.24 Q795.955 1513.66 797.992 1513.66 Q803.362 1513.66 806.557 1516.35 Q809.751 1519.03 809.751 1523.52 Q809.751 1525.65 808.941 1527.57 Q808.154 1529.47 806.048 1532.07 Q805.469 1532.74 802.367 1535.95 Q799.265 1539.15 793.617 1544.91 Z" fill="#000000" fill-rule="nonzero" fill-opacity="1"></path><path clip-path="url(#clip670)" d="M1281.71 1530.21 Q1285.07 1530.93 1286.95 1533.2 Q1288.84 1535.47 1288.84 1538.8 Q1288.84 1543.92 1285.33 1546.72 Q1281.81 1549.52 1275.33 1549.52 Q1273.15 1549.52 1270.83 1549.08 Q1268.54 1548.66 1266.09 1547.81 L1266.09 1543.29 Q1268.03 1544.43 1270.35 1545.01 Q1272.66 1545.58 1275.19 1545.58 Q1279.58 1545.58 1281.88 1543.85 Q1284.19 1542.11 1284.19 1538.8 Q1284.19 1535.75 1282.04 1534.03 Q1279.91 1532.3 1276.09 1532.3 L1272.06 1532.3 L1272.06 1528.45 L1276.27 1528.45 Q1279.72 1528.45 1281.55 1527.09 Q1283.38 1525.7 1283.38 1523.11 Q1283.38 1520.45 1281.48 1519.03 Q1279.61 1517.6 1276.09 1517.6 Q1274.17 1517.6 1271.97 1518.01 Q1269.77 1518.43 1267.13 1519.31 L1267.13 1515.14 Q1269.79 1514.4 1272.11 1514.03 Q1274.45 1513.66 1276.51 1513.66 Q1281.83 1513.66 1284.93 1516.09 Q1288.03 1518.5 1288.03 1522.62 Q1288.03 1525.49 1286.39 1527.48 Q1284.75 1529.45 1281.71 1530.21 Z" fill="#000000" fill-rule="nonzero" fill-opacity="1"></path><path clip-path="url(#clip670)" d="M1758.98 1518.36 L1747.17 1536.81 L1758.98 1536.81 L1758.98 1518.36 M1757.75 1514.29 L1763.63 1514.29 L1763.63 1536.81 L1768.56 1536.81 L1768.56 1540.7 L1763.63 1540.7 L1763.63 1548.85 L1758.98 1548.85 L1758.98 1540.7 L1743.38 1540.7 L1743.38 1536.19 L1757.75 1514.29 Z" fill="#000000" fill-rule="nonzero" fill-opacity="1"></path><path clip-path="url(#clip670)" d="M2224.75 1514.29 L2243.1 1514.29 L2243.1 1518.22 L2229.03 1518.22 L2229.03 1526.7 Q2230.05 1526.35 2231.07 1526.19 Q2232.09 1526 2233.1 1526 Q2238.89 1526 2242.27 1529.17 Q2245.65 1532.34 2245.65 1537.76 Q2245.65 1543.34 2242.18 1546.44 Q2238.71 1549.52 2232.39 1549.52 Q2230.21 1549.52 2227.94 1549.15 Q2225.7 1548.78 2223.29 1548.04 L2223.29 1543.34 Q2225.37 1544.47 2227.6 1545.03 Q2229.82 1545.58 2232.29 1545.58 Q2236.3 1545.58 2238.64 1543.48 Q2240.97 1541.37 2240.97 1537.76 Q2240.97 1534.15 2238.64 1532.04 Q2236.3 1529.94 2232.29 1529.94 Q2230.42 1529.94 2228.54 1530.35 Q2226.69 1530.77 2224.75 1531.65 L2224.75 1514.29 Z" fill="#000000" fill-rule="nonzero" fill-opacity="1"></path><polyline clip-path="url(#clip672)" style="stroke:#000000; stroke-linecap:round; stroke-linejoin:round; stroke-width:2; stroke-opacity:0.1; fill:none" points="202.177,1486.45 2352.76,1486.45 "></polyline>
<polyline clip-path="url(#clip672)" style="stroke:#000000; stroke-linecap:round; stroke-linejoin:round; stroke-width:2; stroke-opacity:0.1; fill:none" points="202.177,1180.98 2352.76,1180.98 "></polyline>
<polyline clip-path="url(#clip672)" style="stroke:#000000; stroke-linecap:round; stroke-linejoin:round; stroke-width:2; stroke-opacity:0.1; fill:none" points="202.177,875.522 2352.76,875.522 "></polyline>
<polyline clip-path="url(#clip672)" style="stroke:#000000; stroke-linecap:round; stroke-linejoin:round; stroke-width:2; stroke-opacity:0.1; fill:none" points="202.177,570.059 2352.76,570.059 "></polyline>
<polyline clip-path="url(#clip672)" style="stroke:#000000; stroke-linecap:round; stroke-linejoin:round; stroke-width:2; stroke-opacity:0.1; fill:none" points="202.177,264.596 2352.76,264.596 "></polyline>
<polyline clip-path="url(#clip670)" style="stroke:#000000; stroke-linecap:round; stroke-linejoin:round; stroke-width:4; stroke-opacity:1; fill:none" points="202.177,1486.45 202.177,123.472 "></polyline>
<polyline clip-path="url(#clip670)" style="stroke:#000000; stroke-linecap:round; stroke-linejoin:round; stroke-width:4; stroke-opacity:1; fill:none" points="202.177,1486.45 221.074,1486.45 "></polyline>
<polyline clip-path="url(#clip670)" style="stroke:#000000; stroke-linecap:round; stroke-linejoin:round; stroke-width:4; stroke-opacity:1; fill:none" points="202.177,1180.98 221.074,1180.98 "></polyline>
<polyline clip-path="url(#clip670)" style="stroke:#000000; stroke-linecap:round; stroke-linejoin:round; stroke-width:4; stroke-opacity:1; fill:none" points="202.177,875.522 221.074,875.522 "></polyline>
<polyline clip-path="url(#clip670)" style="stroke:#000000; stroke-linecap:round; stroke-linejoin:round; stroke-width:4; stroke-opacity:1; fill:none" points="202.177,570.059 221.074,570.059 "></polyline>
<polyline clip-path="url(#clip670)" style="stroke:#000000; stroke-linecap:round; stroke-linejoin:round; stroke-width:4; stroke-opacity:1; fill:none" points="202.177,264.596 221.074,264.596 "></polyline>
<path clip-path="url(#clip670)" d="M154.232 1472.25 Q150.621 1472.25 148.793 1475.81 Q146.987 1479.35 146.987 1486.48 Q146.987 1493.59 148.793 1497.15 Q150.621 1500.7 154.232 1500.7 Q157.867 1500.7 159.672 1497.15 Q161.501 1493.59 161.501 1486.48 Q161.501 1479.35 159.672 1475.81 Q157.867 1472.25 154.232 1472.25 M154.232 1468.54 Q160.042 1468.54 163.098 1473.15 Q166.177 1477.73 166.177 1486.48 Q166.177 1495.21 163.098 1499.82 Q160.042 1504.4 154.232 1504.4 Q148.422 1504.4 145.343 1499.82 Q142.288 1495.21 142.288 1486.48 Q142.288 1477.73 145.343 1473.15 Q148.422 1468.54 154.232 1468.54 Z" fill="#000000" fill-rule="nonzero" fill-opacity="1"></path><path clip-path="url(#clip670)" d="M57.7745 1194.33 L74.0939 1194.33 L74.0939 1198.26 L52.1495 1198.26 L52.1495 1194.33 Q54.8115 1191.58 59.3949 1186.95 Q64.0013 1182.29 65.1819 1180.95 Q67.4272 1178.43 68.3068 1176.69 Q69.2096 1174.93 69.2096 1173.24 Q69.2096 1170.49 67.2652 1168.75 Q65.3439 1167.02 62.2421 1167.02 Q60.043 1167.02 57.5893 1167.78 Q55.1588 1168.54 52.381 1170.09 L52.381 1165.37 Q55.2051 1164.24 57.6588 1163.66 Q60.1124 1163.08 62.1495 1163.08 Q67.5198 1163.08 70.7142 1165.77 Q73.9087 1168.45 73.9087 1172.94 Q73.9087 1175.07 73.0985 1176.99 Q72.3115 1178.89 70.205 1181.48 Q69.6263 1182.15 66.5245 1185.37 Q63.4226 1188.57 57.7745 1194.33 Z" fill="#000000" fill-rule="nonzero" fill-opacity="1"></path><path clip-path="url(#clip670)" d="M93.9086 1166.78 Q90.2975 1166.78 88.4688 1170.35 Q86.6632 1173.89 86.6632 1181.02 Q86.6632 1188.13 88.4688 1191.69 Q90.2975 1195.23 93.9086 1195.23 Q97.5428 1195.23 99.3483 1191.69 Q101.177 1188.13 101.177 1181.02 Q101.177 1173.89 99.3483 1170.35 Q97.5428 1166.78 93.9086 1166.78 M93.9086 1163.08 Q99.7187 1163.08 102.774 1167.69 Q105.853 1172.27 105.853 1181.02 Q105.853 1189.75 102.774 1194.35 Q99.7187 1198.94 93.9086 1198.94 Q88.0984 1198.94 85.0197 1194.35 Q81.9642 1189.75 81.9642 1181.02 Q81.9642 1172.27 85.0197 1167.69 Q88.0984 1163.08 93.9086 1163.08 Z" fill="#000000" fill-rule="nonzero" fill-opacity="1"></path><path clip-path="url(#clip670)" d="M124.07 1166.78 Q120.459 1166.78 118.631 1170.35 Q116.825 1173.89 116.825 1181.02 Q116.825 1188.13 118.631 1191.69 Q120.459 1195.23 124.07 1195.23 Q127.705 1195.23 129.51 1191.69 Q131.339 1188.13 131.339 1181.02 Q131.339 1173.89 129.51 1170.35 Q127.705 1166.78 124.07 1166.78 M124.07 1163.08 Q129.881 1163.08 132.936 1167.69 Q136.015 1172.27 136.015 1181.02 Q136.015 1189.75 132.936 1194.35 Q129.881 1198.94 124.07 1198.94 Q118.26 1198.94 115.182 1194.35 Q112.126 1189.75 112.126 1181.02 Q112.126 1172.27 115.182 1167.69 Q118.26 1163.08 124.07 1163.08 Z" fill="#000000" fill-rule="nonzero" fill-opacity="1"></path><path clip-path="url(#clip670)" d="M154.232 1166.78 Q150.621 1166.78 148.793 1170.35 Q146.987 1173.89 146.987 1181.02 Q146.987 1188.13 148.793 1191.69 Q150.621 1195.23 154.232 1195.23 Q157.867 1195.23 159.672 1191.69 Q161.501 1188.13 161.501 1181.02 Q161.501 1173.89 159.672 1170.35 Q157.867 1166.78 154.232 1166.78 M154.232 1163.08 Q160.042 1163.08 163.098 1167.69 Q166.177 1172.27 166.177 1181.02 Q166.177 1189.75 163.098 1194.35 Q160.042 1198.94 154.232 1198.94 Q148.422 1198.94 145.343 1194.35 Q142.288 1189.75 142.288 1181.02 Q142.288 1172.27 145.343 1167.69 Q148.422 1163.08 154.232 1163.08 Z" fill="#000000" fill-rule="nonzero" fill-opacity="1"></path><path clip-path="url(#clip670)" d="M66.5939 862.316 L54.7884 880.765 L66.5939 880.765 L66.5939 862.316 M65.367 858.242 L71.2466 858.242 L71.2466 880.765 L76.1772 880.765 L76.1772 884.654 L71.2466 884.654 L71.2466 892.802 L66.5939 892.802 L66.5939 884.654 L50.9921 884.654 L50.9921 880.14 L65.367 858.242 Z" fill="#000000" fill-rule="nonzero" fill-opacity="1"></path><path clip-path="url(#clip670)" d="M93.9086 861.321 Q90.2975 861.321 88.4688 864.885 Q86.6632 868.427 86.6632 875.557 Q86.6632 882.663 88.4688 886.228 Q90.2975 889.77 93.9086 889.77 Q97.5428 889.77 99.3483 886.228 Q101.177 882.663 101.177 875.557 Q101.177 868.427 99.3483 864.885 Q97.5428 861.321 93.9086 861.321 M93.9086 857.617 Q99.7187 857.617 102.774 862.223 Q105.853 866.807 105.853 875.557 Q105.853 884.283 102.774 888.89 Q99.7187 893.473 93.9086 893.473 Q88.0984 893.473 85.0197 888.89 Q81.9642 884.283 81.9642 875.557 Q81.9642 866.807 85.0197 862.223 Q88.0984 857.617 93.9086 857.617 Z" fill="#000000" fill-rule="nonzero" fill-opacity="1"></path><path clip-path="url(#clip670)" d="M124.07 861.321 Q120.459 861.321 118.631 864.885 Q116.825 868.427 116.825 875.557 Q116.825 882.663 118.631 886.228 Q120.459 889.77 124.07 889.77 Q127.705 889.77 129.51 886.228 Q131.339 882.663 131.339 875.557 Q131.339 868.427 129.51 864.885 Q127.705 861.321 124.07 861.321 M124.07 857.617 Q129.881 857.617 132.936 862.223 Q136.015 866.807 136.015 875.557 Q136.015 884.283 132.936 888.89 Q129.881 893.473 124.07 893.473 Q118.26 893.473 115.182 888.89 Q112.126 884.283 112.126 875.557 Q112.126 866.807 115.182 862.223 Q118.26 857.617 124.07 857.617 Z" fill="#000000" fill-rule="nonzero" fill-opacity="1"></path><path clip-path="url(#clip670)" d="M154.232 861.321 Q150.621 861.321 148.793 864.885 Q146.987 868.427 146.987 875.557 Q146.987 882.663 148.793 886.228 Q150.621 889.77 154.232 889.77 Q157.867 889.77 159.672 886.228 Q161.501 882.663 161.501 875.557 Q161.501 868.427 159.672 864.885 Q157.867 861.321 154.232 861.321 M154.232 857.617 Q160.042 857.617 163.098 862.223 Q166.177 866.807 166.177 875.557 Q166.177 884.283 163.098 888.89 Q160.042 893.473 154.232 893.473 Q148.422 893.473 145.343 888.89 Q142.288 884.283 142.288 875.557 Q142.288 866.807 145.343 862.223 Q148.422 857.617 154.232 857.617 Z" fill="#000000" fill-rule="nonzero" fill-opacity="1"></path><path clip-path="url(#clip670)" d="M64.3254 568.196 Q61.1773 568.196 59.3254 570.348 Q57.4967 572.501 57.4967 576.251 Q57.4967 579.978 59.3254 582.154 Q61.1773 584.307 64.3254 584.307 Q67.4735 584.307 69.3022 582.154 Q71.1541 579.978 71.1541 576.251 Q71.1541 572.501 69.3022 570.348 Q67.4735 568.196 64.3254 568.196 M73.6077 553.543 L73.6077 557.802 Q71.8485 556.969 70.0429 556.529 Q68.2606 556.089 66.5013 556.089 Q61.8717 556.089 59.418 559.214 Q56.9875 562.339 56.6402 568.659 Q58.006 566.645 60.0662 565.58 Q62.1263 564.492 64.6032 564.492 Q69.8115 564.492 72.8207 567.663 Q75.8531 570.811 75.8531 576.251 Q75.8531 581.575 72.705 584.793 Q69.5568 588.01 64.3254 588.01 Q58.33 588.01 55.1588 583.427 Q51.9875 578.821 51.9875 570.094 Q51.9875 561.899 55.8764 557.038 Q59.7652 552.154 66.3161 552.154 Q68.0754 552.154 69.8578 552.501 Q71.6633 552.848 73.6077 553.543 Z" fill="#000000" fill-rule="nonzero" fill-opacity="1"></path><path clip-path="url(#clip670)" d="M93.9086 555.858 Q90.2975 555.858 88.4688 559.422 Q86.6632 562.964 86.6632 570.094 Q86.6632 577.2 88.4688 580.765 Q90.2975 584.307 93.9086 584.307 Q97.5428 584.307 99.3483 580.765 Q101.177 577.2 101.177 570.094 Q101.177 562.964 99.3483 559.422 Q97.5428 555.858 93.9086 555.858 M93.9086 552.154 Q99.7187 552.154 102.774 556.76 Q105.853 561.344 105.853 570.094 Q105.853 578.821 102.774 583.427 Q99.7187 588.01 93.9086 588.01 Q88.0984 588.01 85.0197 583.427 Q81.9642 578.821 81.9642 570.094 Q81.9642 561.344 85.0197 556.76 Q88.0984 552.154 93.9086 552.154 Z" fill="#000000" fill-rule="nonzero" fill-opacity="1"></path><path clip-path="url(#clip670)" d="M124.07 555.858 Q120.459 555.858 118.631 559.422 Q116.825 562.964 116.825 570.094 Q116.825 577.2 118.631 580.765 Q120.459 584.307 124.07 584.307 Q127.705 584.307 129.51 580.765 Q131.339 577.2 131.339 570.094 Q131.339 562.964 129.51 559.422 Q127.705 555.858 124.07 555.858 M124.07 552.154 Q129.881 552.154 132.936 556.76 Q136.015 561.344 136.015 570.094 Q136.015 578.821 132.936 583.427 Q129.881 588.01 124.07 588.01 Q118.26 588.01 115.182 583.427 Q112.126 578.821 112.126 570.094 Q112.126 561.344 115.182 556.76 Q118.26 552.154 124.07 552.154 Z" fill="#000000" fill-rule="nonzero" fill-opacity="1"></path><path clip-path="url(#clip670)" d="M154.232 555.858 Q150.621 555.858 148.793 559.422 Q146.987 562.964 146.987 570.094 Q146.987 577.2 148.793 580.765 Q150.621 584.307 154.232 584.307 Q157.867 584.307 159.672 580.765 Q161.501 577.2 161.501 570.094 Q161.501 562.964 159.672 559.422 Q157.867 555.858 154.232 555.858 M154.232 552.154 Q160.042 552.154 163.098 556.76 Q166.177 561.344 166.177 570.094 Q166.177 578.821 163.098 583.427 Q160.042 588.01 154.232 588.01 Q148.422 588.01 145.343 583.427 Q142.288 578.821 142.288 570.094 Q142.288 561.344 145.343 556.76 Q148.422 552.154 154.232 552.154 Z" fill="#000000" fill-rule="nonzero" fill-opacity="1"></path><path clip-path="url(#clip670)" d="M63.7467 265.464 Q60.4134 265.464 58.4921 267.246 Q56.5939 269.029 56.5939 272.154 Q56.5939 275.279 58.4921 277.061 Q60.4134 278.844 63.7467 278.844 Q67.08 278.844 69.0013 277.061 Q70.9226 275.256 70.9226 272.154 Q70.9226 269.029 69.0013 267.246 Q67.1032 265.464 63.7467 265.464 M59.0708 263.473 Q56.0615 262.733 54.3717 260.672 Q52.7051 258.612 52.7051 255.649 Q52.7051 251.506 55.6449 249.098 Q58.6078 246.691 63.7467 246.691 Q68.9087 246.691 71.8485 249.098 Q74.7883 251.506 74.7883 255.649 Q74.7883 258.612 73.0985 260.672 Q71.4318 262.733 68.4457 263.473 Q71.8253 264.26 73.7003 266.552 Q75.5985 268.844 75.5985 272.154 Q75.5985 277.177 72.5198 279.862 Q69.4642 282.547 63.7467 282.547 Q58.0291 282.547 54.9504 279.862 Q51.8949 277.177 51.8949 272.154 Q51.8949 268.844 53.793 266.552 Q55.6912 264.26 59.0708 263.473 M57.3578 256.089 Q57.3578 258.774 59.0245 260.279 Q60.7143 261.784 63.7467 261.784 Q66.7559 261.784 68.4457 260.279 Q70.1587 258.774 70.1587 256.089 Q70.1587 253.404 68.4457 251.899 Q66.7559 250.395 63.7467 250.395 Q60.7143 250.395 59.0245 251.899 Q57.3578 253.404 57.3578 256.089 Z" fill="#000000" fill-rule="nonzero" fill-opacity="1"></path><path clip-path="url(#clip670)" d="M93.9086 250.395 Q90.2975 250.395 88.4688 253.959 Q86.6632 257.501 86.6632 264.631 Q86.6632 271.737 88.4688 275.302 Q90.2975 278.844 93.9086 278.844 Q97.5428 278.844 99.3483 275.302 Q101.177 271.737 101.177 264.631 Q101.177 257.501 99.3483 253.959 Q97.5428 250.395 93.9086 250.395 M93.9086 246.691 Q99.7187 246.691 102.774 251.297 Q105.853 255.881 105.853 264.631 Q105.853 273.358 102.774 277.964 Q99.7187 282.547 93.9086 282.547 Q88.0984 282.547 85.0197 277.964 Q81.9642 273.358 81.9642 264.631 Q81.9642 255.881 85.0197 251.297 Q88.0984 246.691 93.9086 246.691 Z" fill="#000000" fill-rule="nonzero" fill-opacity="1"></path><path clip-path="url(#clip670)" d="M124.07 250.395 Q120.459 250.395 118.631 253.959 Q116.825 257.501 116.825 264.631 Q116.825 271.737 118.631 275.302 Q120.459 278.844 124.07 278.844 Q127.705 278.844 129.51 275.302 Q131.339 271.737 131.339 264.631 Q131.339 257.501 129.51 253.959 Q127.705 250.395 124.07 250.395 M124.07 246.691 Q129.881 246.691 132.936 251.297 Q136.015 255.881 136.015 264.631 Q136.015 273.358 132.936 277.964 Q129.881 282.547 124.07 282.547 Q118.26 282.547 115.182 277.964 Q112.126 273.358 112.126 264.631 Q112.126 255.881 115.182 251.297 Q118.26 246.691 124.07 246.691 Z" fill="#000000" fill-rule="nonzero" fill-opacity="1"></path><path clip-path="url(#clip670)" d="M154.232 250.395 Q150.621 250.395 148.793 253.959 Q146.987 257.501 146.987 264.631 Q146.987 271.737 148.793 275.302 Q150.621 278.844 154.232 278.844 Q157.867 278.844 159.672 275.302 Q161.501 271.737 161.501 264.631 Q161.501 257.501 159.672 253.959 Q157.867 250.395 154.232 250.395 M154.232 246.691 Q160.042 246.691 163.098 251.297 Q166.177 255.881 166.177 264.631 Q166.177 273.358 163.098 277.964 Q160.042 282.547 154.232 282.547 Q148.422 282.547 145.343 277.964 Q142.288 273.358 142.288 264.631 Q142.288 255.881 145.343 251.297 Q148.422 246.691 154.232 246.691 Z" fill="#000000" fill-rule="nonzero" fill-opacity="1"></path><path clip-path="url(#clip670)" d="M1035.65 17.6457 Q1026.74 17.6457 1021.47 24.2892 Q1016.24 30.9327 1016.24 42.3968 Q1016.24 53.8203 1021.47 60.4638 Q1026.74 67.1073 1035.65 67.1073 Q1044.56 67.1073 1049.74 60.4638 Q1054.97 53.8203 1054.97 42.3968 Q1054.97 30.9327 1049.74 24.2892 Q1044.56 17.6457 1035.65 17.6457 M1035.65 11.0023 Q1048.37 11.0023 1055.98 19.5497 Q1063.6 28.0566 1063.6 42.3968 Q1063.6 56.6965 1055.98 65.2439 Q1048.37 73.7508 1035.65 73.7508 Q1022.89 73.7508 1015.23 65.2439 Q1007.62 56.737 1007.62 42.3968 Q1007.62 28.0566 1015.23 19.5497 Q1022.89 11.0023 1035.65 11.0023 Z" fill="#000000" fill-rule="nonzero" fill-opacity="1"></path><path clip-path="url(#clip670)" d="M1108.64 49.9314 Q1108.64 41.7081 1105.24 37.0496 Q1101.88 32.3505 1095.97 32.3505 Q1090.05 32.3505 1086.65 37.0496 Q1083.29 41.7081 1083.29 49.9314 Q1083.29 58.1548 1086.65 62.8538 Q1090.05 67.5124 1095.97 67.5124 Q1101.88 67.5124 1105.24 62.8538 Q1108.64 58.1548 1108.64 49.9314 M1083.29 34.0924 Q1085.64 30.0415 1089.2 28.0971 Q1092.81 26.1121 1097.79 26.1121 Q1106.05 26.1121 1111.2 32.6746 Q1116.38 39.2371 1116.38 49.9314 Q1116.38 60.6258 1111.2 67.1883 Q1106.05 73.7508 1097.79 73.7508 Q1092.81 73.7508 1089.2 71.8063 Q1085.64 69.8214 1083.29 65.7705 L1083.29 72.576 L1075.79 72.576 L1075.79 9.54393 L1083.29 9.54393 L1083.29 34.0924 Z" fill="#000000" fill-rule="nonzero" fill-opacity="1"></path><path clip-path="url(#clip670)" d="M1157.66 28.5427 L1157.66 35.5912 Q1154.5 33.9709 1151.1 33.1607 Q1147.7 32.3505 1144.05 32.3505 Q1138.5 32.3505 1135.7 34.0519 Q1132.95 35.7533 1132.95 39.156 Q1132.95 41.7486 1134.94 43.2475 Q1136.92 44.7058 1142.92 46.0426 L1145.47 46.6097 Q1153.41 48.3111 1156.73 51.4303 Q1160.09 54.509 1160.09 60.0587 Q1160.09 66.3781 1155.07 70.0644 Q1150.09 73.7508 1141.34 73.7508 Q1137.69 73.7508 1133.72 73.0216 Q1129.79 72.3329 1125.42 70.9151 L1125.42 63.2184 Q1129.55 65.3654 1133.56 66.4591 Q1137.57 67.5124 1141.5 67.5124 Q1146.76 67.5124 1149.6 65.73 Q1152.44 63.9071 1152.44 60.6258 Q1152.44 57.5877 1150.37 55.9673 Q1148.34 54.3469 1141.42 52.8481 L1138.82 52.2405 Q1131.9 50.7821 1128.82 47.7845 Q1125.74 44.7463 1125.74 39.4801 Q1125.74 33.0797 1130.28 29.5959 Q1134.81 26.1121 1143.16 26.1121 Q1147.29 26.1121 1150.94 26.7198 Q1154.58 27.3274 1157.66 28.5427 Z" fill="#000000" fill-rule="nonzero" fill-opacity="1"></path><path clip-path="url(#clip670)" d="M1210.77 48.0275 L1210.77 51.6733 L1176.5 51.6733 Q1176.98 59.3701 1181.12 63.421 Q1185.29 67.4314 1192.7 67.4314 Q1197 67.4314 1201.01 66.3781 Q1205.06 65.3249 1209.03 63.2184 L1209.03 70.267 Q1205.02 71.9684 1200.8 72.8596 Q1196.59 73.7508 1192.26 73.7508 Q1181.4 73.7508 1175.04 67.4314 Q1168.72 61.1119 1168.72 50.3365 Q1168.72 39.1965 1174.72 32.6746 Q1180.75 26.1121 1190.96 26.1121 Q1200.11 26.1121 1205.42 32.0264 Q1210.77 37.9003 1210.77 48.0275 M1203.31 45.84 Q1203.23 39.7232 1199.87 36.0774 Q1196.55 32.4315 1191.04 32.4315 Q1184.8 32.4315 1181.03 35.9558 Q1177.31 39.4801 1176.74 45.8805 L1203.31 45.84 Z" fill="#000000" fill-rule="nonzero" fill-opacity="1"></path><path clip-path="url(#clip670)" d="M1249.29 34.1734 Q1248.04 33.4443 1246.54 33.1202 Q1245.08 32.7556 1243.3 32.7556 Q1236.98 32.7556 1233.57 36.8875 Q1230.21 40.9789 1230.21 48.6757 L1230.21 72.576 L1222.72 72.576 L1222.72 27.2059 L1230.21 27.2059 L1230.21 34.2544 Q1232.56 30.1225 1236.33 28.1376 Q1240.1 26.1121 1245.48 26.1121 Q1246.25 26.1121 1247.19 26.2337 Q1248.12 26.3147 1249.25 26.5172 L1249.29 34.1734 Z" fill="#000000" fill-rule="nonzero" fill-opacity="1"></path><path clip-path="url(#clip670)" d="M1251.76 27.2059 L1259.66 27.2059 L1273.84 65.2844 L1288.02 27.2059 L1295.92 27.2059 L1278.9 72.576 L1268.78 72.576 L1251.76 27.2059 Z" fill="#000000" fill-rule="nonzero" fill-opacity="1"></path><path clip-path="url(#clip670)" d="M1326.83 49.7694 Q1317.79 49.7694 1314.31 51.8354 Q1310.83 53.9013 1310.83 58.8839 Q1310.83 62.8538 1313.42 65.2034 Q1316.05 67.5124 1320.55 67.5124 Q1326.75 67.5124 1330.47 63.1374 Q1334.24 58.7219 1334.24 51.4303 L1334.24 49.7694 L1326.83 49.7694 M1341.69 46.6907 L1341.69 72.576 L1334.24 72.576 L1334.24 65.6895 Q1331.69 69.8214 1327.88 71.8063 Q1324.07 73.7508 1318.56 73.7508 Q1311.6 73.7508 1307.46 69.8619 Q1303.37 65.9325 1303.37 59.3701 Q1303.37 51.7138 1308.48 47.825 Q1313.62 43.9361 1323.79 43.9361 L1334.24 43.9361 L1334.24 43.2069 Q1334.24 38.0623 1330.84 35.2672 Q1327.47 32.4315 1321.36 32.4315 Q1317.47 32.4315 1313.78 33.3632 Q1310.1 34.295 1306.69 36.1584 L1306.69 29.2718 Q1310.78 27.692 1314.63 26.9223 Q1318.48 26.1121 1322.13 26.1121 Q1331.97 26.1121 1336.83 31.2163 Q1341.69 36.3204 1341.69 46.6907 Z" fill="#000000" fill-rule="nonzero" fill-opacity="1"></path><path clip-path="url(#clip670)" d="M1364.42 14.324 L1364.42 27.2059 L1379.77 27.2059 L1379.77 32.9987 L1364.42 32.9987 L1364.42 57.6282 Q1364.42 63.1779 1365.92 64.7578 Q1367.46 66.3376 1372.12 66.3376 L1379.77 66.3376 L1379.77 72.576 L1372.12 72.576 Q1363.49 72.576 1360.21 69.3758 Q1356.92 66.1351 1356.92 57.6282 L1356.92 32.9987 L1351.46 32.9987 L1351.46 27.2059 L1356.92 27.2059 L1356.92 14.324 L1364.42 14.324 Z" fill="#000000" fill-rule="nonzero" fill-opacity="1"></path><path clip-path="url(#clip670)" d="M1389.58 27.2059 L1397.03 27.2059 L1397.03 72.576 L1389.58 72.576 L1389.58 27.2059 M1389.58 9.54393 L1397.03 9.54393 L1397.03 18.9825 L1389.58 18.9825 L1389.58 9.54393 Z" fill="#000000" fill-rule="nonzero" fill-opacity="1"></path><path clip-path="url(#clip670)" d="M1430.21 32.4315 Q1424.21 32.4315 1420.73 37.1306 Q1417.24 41.7891 1417.24 49.9314 Q1417.24 58.0738 1420.69 62.7728 Q1424.17 67.4314 1430.21 67.4314 Q1436.16 67.4314 1439.64 62.7323 Q1443.13 58.0333 1443.13 49.9314 Q1443.13 41.8701 1439.64 37.1711 Q1436.16 32.4315 1430.21 32.4315 M1430.21 26.1121 Q1439.93 26.1121 1445.48 32.4315 Q1451.03 38.7509 1451.03 49.9314 Q1451.03 61.0714 1445.48 67.4314 Q1439.93 73.7508 1430.21 73.7508 Q1420.44 73.7508 1414.89 67.4314 Q1409.38 61.0714 1409.38 49.9314 Q1409.38 38.7509 1414.89 32.4315 Q1420.44 26.1121 1430.21 26.1121 Z" fill="#000000" fill-rule="nonzero" fill-opacity="1"></path><path clip-path="url(#clip670)" d="M1501.1 45.1919 L1501.1 72.576 L1493.64 72.576 L1493.64 45.4349 Q1493.64 38.994 1491.13 35.7938 Q1488.62 32.5936 1483.6 32.5936 Q1477.56 32.5936 1474.08 36.4419 Q1470.59 40.2903 1470.59 46.9338 L1470.59 72.576 L1463.1 72.576 L1463.1 27.2059 L1470.59 27.2059 L1470.59 34.2544 Q1473.27 30.163 1476.87 28.1376 Q1480.52 26.1121 1485.26 26.1121 Q1493.08 26.1121 1497.09 30.9732 Q1501.1 35.7938 1501.1 45.1919 Z" fill="#000000" fill-rule="nonzero" fill-opacity="1"></path><path clip-path="url(#clip670)" d="M1544.89 28.5427 L1544.89 35.5912 Q1541.73 33.9709 1538.32 33.1607 Q1534.92 32.3505 1531.28 32.3505 Q1525.73 32.3505 1522.93 34.0519 Q1520.18 35.7533 1520.18 39.156 Q1520.18 41.7486 1522.16 43.2475 Q1524.15 44.7058 1530.14 46.0426 L1532.69 46.6097 Q1540.63 48.3111 1543.96 51.4303 Q1547.32 54.509 1547.32 60.0587 Q1547.32 66.3781 1542.29 70.0644 Q1537.31 73.7508 1528.56 73.7508 Q1524.92 73.7508 1520.95 73.0216 Q1517.02 72.3329 1512.64 70.9151 L1512.64 63.2184 Q1516.77 65.3654 1520.78 66.4591 Q1524.79 67.5124 1528.72 67.5124 Q1533.99 67.5124 1536.83 65.73 Q1539.66 63.9071 1539.66 60.6258 Q1539.66 57.5877 1537.6 55.9673 Q1535.57 54.3469 1528.64 52.8481 L1526.05 52.2405 Q1519.12 50.7821 1516.04 47.7845 Q1512.97 44.7463 1512.97 39.4801 Q1512.97 33.0797 1517.5 29.5959 Q1522.04 26.1121 1530.38 26.1121 Q1534.52 26.1121 1538.16 26.7198 Q1541.81 27.3274 1544.89 28.5427 Z" fill="#000000" fill-rule="nonzero" fill-opacity="1"></path><path clip-path="url(#clip672)" d="M320.462 1486.45 L320.462 1486.45 L368.313 1486.45 L368.313 1486.45 L320.462 1486.45 L320.462 1486.45  Z" fill="#e26f46" fill-rule="evenodd" fill-opacity="0.5"></path>
<polyline clip-path="url(#clip672)" style="stroke:#000000; stroke-linecap:round; stroke-linejoin:round; stroke-width:4; stroke-opacity:0.5; fill:none" points="320.462,1486.45 320.462,1486.45 368.313,1486.45 320.462,1486.45 "></polyline>
<path clip-path="url(#clip672)" d="M368.313 1486.3 L368.313 1486.45 L416.163 1486.45 L416.163 1486.3 L368.313 1486.3 L368.313 1486.3  Z" fill="#e26f46" fill-rule="evenodd" fill-opacity="0.5"></path>
<polyline clip-path="url(#clip672)" style="stroke:#000000; stroke-linecap:round; stroke-linejoin:round; stroke-width:4; stroke-opacity:0.5; fill:none" points="368.313,1486.3 368.313,1486.45 416.163,1486.45 416.163,1486.3 368.313,1486.3 "></polyline>
<path clip-path="url(#clip672)" d="M416.163 1485.99 L416.163 1486.45 L464.013 1486.45 L464.013 1485.99 L416.163 1485.99 L416.163 1485.99  Z" fill="#e26f46" fill-rule="evenodd" fill-opacity="0.5"></path>
<polyline clip-path="url(#clip672)" style="stroke:#000000; stroke-linecap:round; stroke-linejoin:round; stroke-width:4; stroke-opacity:0.5; fill:none" points="416.163,1485.99 416.163,1486.45 464.013,1486.45 464.013,1485.99 416.163,1485.99 "></polyline>
<path clip-path="url(#clip672)" d="M464.013 1485.53 L464.013 1486.45 L511.863 1486.45 L511.863 1485.53 L464.013 1485.53 L464.013 1485.53  Z" fill="#e26f46" fill-rule="evenodd" fill-opacity="0.5"></path>
<polyline clip-path="url(#clip672)" style="stroke:#000000; stroke-linecap:round; stroke-linejoin:round; stroke-width:4; stroke-opacity:0.5; fill:none" points="464.013,1485.53 464.013,1486.45 511.863,1486.45 511.863,1485.53 464.013,1485.53 "></polyline>
<path clip-path="url(#clip672)" d="M511.863 1483.24 L511.863 1486.45 L559.713 1486.45 L559.713 1483.24 L511.863 1483.24 L511.863 1483.24  Z" fill="#e26f46" fill-rule="evenodd" fill-opacity="0.5"></path>
<polyline clip-path="url(#clip672)" style="stroke:#000000; stroke-linecap:round; stroke-linejoin:round; stroke-width:4; stroke-opacity:0.5; fill:none" points="511.863,1483.24 511.863,1486.45 559.713,1486.45 559.713,1483.24 511.863,1483.24 "></polyline>
<path clip-path="url(#clip672)" d="M559.713 1481.71 L559.713 1486.45 L607.564 1486.45 L607.564 1481.71 L559.713 1481.71 L559.713 1481.71  Z" fill="#e26f46" fill-rule="evenodd" fill-opacity="0.5"></path>
<polyline clip-path="url(#clip672)" style="stroke:#000000; stroke-linecap:round; stroke-linejoin:round; stroke-width:4; stroke-opacity:0.5; fill:none" points="559.713,1481.71 559.713,1486.45 607.564,1486.45 607.564,1481.71 559.713,1481.71 "></polyline>
<path clip-path="url(#clip672)" d="M607.564 1471.48 L607.564 1486.45 L655.414 1486.45 L655.414 1471.48 L607.564 1471.48 L607.564 1471.48  Z" fill="#e26f46" fill-rule="evenodd" fill-opacity="0.5"></path>
<polyline clip-path="url(#clip672)" style="stroke:#000000; stroke-linecap:round; stroke-linejoin:round; stroke-width:4; stroke-opacity:0.5; fill:none" points="607.564,1471.48 607.564,1486.45 655.414,1486.45 655.414,1471.48 607.564,1471.48 "></polyline>
<path clip-path="url(#clip672)" d="M655.414 1460.33 L655.414 1486.45 L703.264 1486.45 L703.264 1460.33 L655.414 1460.33 L655.414 1460.33  Z" fill="#e26f46" fill-rule="evenodd" fill-opacity="0.5"></path>
<polyline clip-path="url(#clip672)" style="stroke:#000000; stroke-linecap:round; stroke-linejoin:round; stroke-width:4; stroke-opacity:0.5; fill:none" points="655.414,1460.33 655.414,1486.45 703.264,1486.45 703.264,1460.33 655.414,1460.33 "></polyline>
<path clip-path="url(#clip672)" d="M703.264 1440.02 L703.264 1486.45 L751.114 1486.45 L751.114 1440.02 L703.264 1440.02 L703.264 1440.02  Z" fill="#e26f46" fill-rule="evenodd" fill-opacity="0.5"></path>
<polyline clip-path="url(#clip672)" style="stroke:#000000; stroke-linecap:round; stroke-linejoin:round; stroke-width:4; stroke-opacity:0.5; fill:none" points="703.264,1440.02 703.264,1486.45 751.114,1486.45 751.114,1440.02 703.264,1440.02 "></polyline>
<path clip-path="url(#clip672)" d="M751.114 1398.93 L751.114 1486.45 L798.964 1486.45 L798.964 1398.93 L751.114 1398.93 L751.114 1398.93  Z" fill="#e26f46" fill-rule="evenodd" fill-opacity="0.5"></path>
<polyline clip-path="url(#clip672)" style="stroke:#000000; stroke-linecap:round; stroke-linejoin:round; stroke-width:4; stroke-opacity:0.5; fill:none" points="751.114,1398.93 751.114,1486.45 798.964,1486.45 798.964,1398.93 751.114,1398.93 "></polyline>
<path clip-path="url(#clip672)" d="M798.964 1333.56 L798.964 1486.45 L846.815 1486.45 L846.815 1333.56 L798.964 1333.56 L798.964 1333.56  Z" fill="#e26f46" fill-rule="evenodd" fill-opacity="0.5"></path>
<polyline clip-path="url(#clip672)" style="stroke:#000000; stroke-linecap:round; stroke-linejoin:round; stroke-width:4; stroke-opacity:0.5; fill:none" points="798.964,1333.56 798.964,1486.45 846.815,1486.45 846.815,1333.56 798.964,1333.56 "></polyline>
<path clip-path="url(#clip672)" d="M846.815 1261.47 L846.815 1486.45 L894.665 1486.45 L894.665 1261.47 L846.815 1261.47 L846.815 1261.47  Z" fill="#e26f46" fill-rule="evenodd" fill-opacity="0.5"></path>
<polyline clip-path="url(#clip672)" style="stroke:#000000; stroke-linecap:round; stroke-linejoin:round; stroke-width:4; stroke-opacity:0.5; fill:none" points="846.815,1261.47 846.815,1486.45 894.665,1486.45 894.665,1261.47 846.815,1261.47 "></polyline>
<path clip-path="url(#clip672)" d="M894.665 1145.25 L894.665 1486.45 L942.515 1486.45 L942.515 1145.25 L894.665 1145.25 L894.665 1145.25  Z" fill="#e26f46" fill-rule="evenodd" fill-opacity="0.5"></path>
<polyline clip-path="url(#clip672)" style="stroke:#000000; stroke-linecap:round; stroke-linejoin:round; stroke-width:4; stroke-opacity:0.5; fill:none" points="894.665,1145.25 894.665,1486.45 942.515,1486.45 942.515,1145.25 894.665,1145.25 "></polyline>
<path clip-path="url(#clip672)" d="M942.515 1024.44 L942.515 1486.45 L990.365 1486.45 L990.365 1024.44 L942.515 1024.44 L942.515 1024.44  Z" fill="#e26f46" fill-rule="evenodd" fill-opacity="0.5"></path>
<polyline clip-path="url(#clip672)" style="stroke:#000000; stroke-linecap:round; stroke-linejoin:round; stroke-width:4; stroke-opacity:0.5; fill:none" points="942.515,1024.44 942.515,1486.45 990.365,1486.45 990.365,1024.44 942.515,1024.44 "></polyline>
<path clip-path="url(#clip672)" d="M990.365 833.979 L990.365 1486.45 L1038.22 1486.45 L1038.22 833.979 L990.365 833.979 L990.365 833.979  Z" fill="#e26f46" fill-rule="evenodd" fill-opacity="0.5"></path>
<polyline clip-path="url(#clip672)" style="stroke:#000000; stroke-linecap:round; stroke-linejoin:round; stroke-width:4; stroke-opacity:0.5; fill:none" points="990.365,833.979 990.365,1486.45 1038.22,1486.45 1038.22,833.979 990.365,833.979 "></polyline>
<path clip-path="url(#clip672)" d="M1038.22 683.233 L1038.22 1486.45 L1086.07 1486.45 L1086.07 683.233 L1038.22 683.233 L1038.22 683.233  Z" fill="#e26f46" fill-rule="evenodd" fill-opacity="0.5"></path>
<polyline clip-path="url(#clip672)" style="stroke:#000000; stroke-linecap:round; stroke-linejoin:round; stroke-width:4; stroke-opacity:0.5; fill:none" points="1038.22,683.233 1038.22,1486.45 1086.07,1486.45 1086.07,683.233 1038.22,683.233 "></polyline>
<path clip-path="url(#clip672)" d="M1086.07 496.748 L1086.07 1486.45 L1133.92 1486.45 L1133.92 496.748 L1086.07 496.748 L1086.07 496.748  Z" fill="#e26f46" fill-rule="evenodd" fill-opacity="0.5"></path>
<polyline clip-path="url(#clip672)" style="stroke:#000000; stroke-linecap:round; stroke-linejoin:round; stroke-width:4; stroke-opacity:0.5; fill:none" points="1086.07,496.748 1086.07,1486.45 1133.92,1486.45 1133.92,496.748 1086.07,496.748 "></polyline>
<path clip-path="url(#clip672)" d="M1133.92 317.594 L1133.92 1486.45 L1181.77 1486.45 L1181.77 317.594 L1133.92 317.594 L1133.92 317.594  Z" fill="#e26f46" fill-rule="evenodd" fill-opacity="0.5"></path>
<polyline clip-path="url(#clip672)" style="stroke:#000000; stroke-linecap:round; stroke-linejoin:round; stroke-width:4; stroke-opacity:0.5; fill:none" points="1133.92,317.594 1133.92,1486.45 1181.77,1486.45 1181.77,317.594 1133.92,317.594 "></polyline>
<path clip-path="url(#clip672)" d="M1181.77 210.987 L1181.77 1486.45 L1229.62 1486.45 L1229.62 210.987 L1181.77 210.987 L1181.77 210.987  Z" fill="#e26f46" fill-rule="evenodd" fill-opacity="0.5"></path>
<polyline clip-path="url(#clip672)" style="stroke:#000000; stroke-linecap:round; stroke-linejoin:round; stroke-width:4; stroke-opacity:0.5; fill:none" points="1181.77,210.987 1181.77,1486.45 1229.62,1486.45 1229.62,210.987 1181.77,210.987 "></polyline>
<path clip-path="url(#clip672)" d="M1229.62 143.327 L1229.62 1486.45 L1277.47 1486.45 L1277.47 143.327 L1229.62 143.327 L1229.62 143.327  Z" fill="#e26f46" fill-rule="evenodd" fill-opacity="0.5"></path>
<polyline clip-path="url(#clip672)" style="stroke:#000000; stroke-linecap:round; stroke-linejoin:round; stroke-width:4; stroke-opacity:0.5; fill:none" points="1229.62,143.327 1229.62,1486.45 1277.47,1486.45 1277.47,143.327 1229.62,143.327 "></polyline>
<path clip-path="url(#clip672)" d="M1277.47 123.472 L1277.47 1486.45 L1325.32 1486.45 L1325.32 123.472 L1277.47 123.472 L1277.47 123.472  Z" fill="#e26f46" fill-rule="evenodd" fill-opacity="0.5"></path>
<polyline clip-path="url(#clip672)" style="stroke:#000000; stroke-linecap:round; stroke-linejoin:round; stroke-width:4; stroke-opacity:0.5; fill:none" points="1277.47,123.472 1277.47,1486.45 1325.32,1486.45 1325.32,123.472 1277.47,123.472 "></polyline>
<path clip-path="url(#clip672)" d="M1325.32 219.998 L1325.32 1486.45 L1373.17 1486.45 L1373.17 219.998 L1325.32 219.998 L1325.32 219.998  Z" fill="#e26f46" fill-rule="evenodd" fill-opacity="0.5"></path>
<polyline clip-path="url(#clip672)" style="stroke:#000000; stroke-linecap:round; stroke-linejoin:round; stroke-width:4; stroke-opacity:0.5; fill:none" points="1325.32,219.998 1325.32,1486.45 1373.17,1486.45 1373.17,219.998 1325.32,219.998 "></polyline>
<path clip-path="url(#clip672)" d="M1373.17 306.444 L1373.17 1486.45 L1421.02 1486.45 L1421.02 306.444 L1373.17 306.444 L1373.17 306.444  Z" fill="#e26f46" fill-rule="evenodd" fill-opacity="0.5"></path>
<polyline clip-path="url(#clip672)" style="stroke:#000000; stroke-linecap:round; stroke-linejoin:round; stroke-width:4; stroke-opacity:0.5; fill:none" points="1373.17,306.444 1373.17,1486.45 1421.02,1486.45 1421.02,306.444 1373.17,306.444 "></polyline>
<path clip-path="url(#clip672)" d="M1421.02 478.878 L1421.02 1486.45 L1468.87 1486.45 L1468.87 478.878 L1421.02 478.878 L1421.02 478.878  Z" fill="#e26f46" fill-rule="evenodd" fill-opacity="0.5"></path>
<polyline clip-path="url(#clip672)" style="stroke:#000000; stroke-linecap:round; stroke-linejoin:round; stroke-width:4; stroke-opacity:0.5; fill:none" points="1421.02,478.878 1421.02,1486.45 1468.87,1486.45 1468.87,478.878 1421.02,478.878 "></polyline>
<path clip-path="url(#clip672)" d="M1468.87 664.752 L1468.87 1486.45 L1516.72 1486.45 L1516.72 664.752 L1468.87 664.752 L1468.87 664.752  Z" fill="#e26f46" fill-rule="evenodd" fill-opacity="0.5"></path>
<polyline clip-path="url(#clip672)" style="stroke:#000000; stroke-linecap:round; stroke-linejoin:round; stroke-width:4; stroke-opacity:0.5; fill:none" points="1468.87,664.752 1468.87,1486.45 1516.72,1486.45 1516.72,664.752 1468.87,664.752 "></polyline>
<path clip-path="url(#clip672)" d="M1516.72 844.365 L1516.72 1486.45 L1564.57 1486.45 L1564.57 844.365 L1516.72 844.365 L1516.72 844.365  Z" fill="#e26f46" fill-rule="evenodd" fill-opacity="0.5"></path>
<polyline clip-path="url(#clip672)" style="stroke:#000000; stroke-linecap:round; stroke-linejoin:round; stroke-width:4; stroke-opacity:0.5; fill:none" points="1516.72,844.365 1516.72,1486.45 1564.57,1486.45 1564.57,844.365 1516.72,844.365 "></polyline>
<path clip-path="url(#clip672)" d="M1564.57 999.082 L1564.57 1486.45 L1612.42 1486.45 L1612.42 999.082 L1564.57 999.082 L1564.57 999.082  Z" fill="#e26f46" fill-rule="evenodd" fill-opacity="0.5"></path>
<polyline clip-path="url(#clip672)" style="stroke:#000000; stroke-linecap:round; stroke-linejoin:round; stroke-width:4; stroke-opacity:0.5; fill:none" points="1564.57,999.082 1564.57,1486.45 1612.42,1486.45 1612.42,999.082 1564.57,999.082 "></polyline>
<path clip-path="url(#clip672)" d="M1612.42 1149.83 L1612.42 1486.45 L1660.27 1486.45 L1660.27 1149.83 L1612.42 1149.83 L1612.42 1149.83  Z" fill="#e26f46" fill-rule="evenodd" fill-opacity="0.5"></path>
<polyline clip-path="url(#clip672)" style="stroke:#000000; stroke-linecap:round; stroke-linejoin:round; stroke-width:4; stroke-opacity:0.5; fill:none" points="1612.42,1149.83 1612.42,1486.45 1660.27,1486.45 1660.27,1149.83 1612.42,1149.83 "></polyline>
<path clip-path="url(#clip672)" d="M1660.27 1261.93 L1660.27 1486.45 L1708.12 1486.45 L1708.12 1261.93 L1660.27 1261.93 L1660.27 1261.93  Z" fill="#e26f46" fill-rule="evenodd" fill-opacity="0.5"></path>
<polyline clip-path="url(#clip672)" style="stroke:#000000; stroke-linecap:round; stroke-linejoin:round; stroke-width:4; stroke-opacity:0.5; fill:none" points="1660.27,1261.93 1660.27,1486.45 1708.12,1486.45 1708.12,1261.93 1660.27,1261.93 "></polyline>
<path clip-path="url(#clip672)" d="M1708.12 1345.17 L1708.12 1486.45 L1755.97 1486.45 L1755.97 1345.17 L1708.12 1345.17 L1708.12 1345.17  Z" fill="#e26f46" fill-rule="evenodd" fill-opacity="0.5"></path>
<polyline clip-path="url(#clip672)" style="stroke:#000000; stroke-linecap:round; stroke-linejoin:round; stroke-width:4; stroke-opacity:0.5; fill:none" points="1708.12,1345.17 1708.12,1486.45 1755.97,1486.45 1755.97,1345.17 1708.12,1345.17 "></polyline>
<path clip-path="url(#clip672)" d="M1755.97 1393.43 L1755.97 1486.45 L1803.82 1486.45 L1803.82 1393.43 L1755.97 1393.43 L1755.97 1393.43  Z" fill="#e26f46" fill-rule="evenodd" fill-opacity="0.5"></path>
<polyline clip-path="url(#clip672)" style="stroke:#000000; stroke-linecap:round; stroke-linejoin:round; stroke-width:4; stroke-opacity:0.5; fill:none" points="1755.97,1393.43 1755.97,1486.45 1803.82,1486.45 1803.82,1393.43 1755.97,1393.43 "></polyline>
<path clip-path="url(#clip672)" d="M1803.82 1437.12 L1803.82 1486.45 L1851.67 1486.45 L1851.67 1437.12 L1803.82 1437.12 L1803.82 1437.12  Z" fill="#e26f46" fill-rule="evenodd" fill-opacity="0.5"></path>
<polyline clip-path="url(#clip672)" style="stroke:#000000; stroke-linecap:round; stroke-linejoin:round; stroke-width:4; stroke-opacity:0.5; fill:none" points="1803.82,1437.12 1803.82,1486.45 1851.67,1486.45 1851.67,1437.12 1803.82,1437.12 "></polyline>
<path clip-path="url(#clip672)" d="M1851.67 1456.36 L1851.67 1486.45 L1899.52 1486.45 L1899.52 1456.36 L1851.67 1456.36 L1851.67 1456.36  Z" fill="#e26f46" fill-rule="evenodd" fill-opacity="0.5"></path>
<polyline clip-path="url(#clip672)" style="stroke:#000000; stroke-linecap:round; stroke-linejoin:round; stroke-width:4; stroke-opacity:0.5; fill:none" points="1851.67,1456.36 1851.67,1486.45 1899.52,1486.45 1899.52,1456.36 1851.67,1456.36 "></polyline>
<path clip-path="url(#clip672)" d="M1899.52 1468.58 L1899.52 1486.45 L1947.37 1486.45 L1947.37 1468.58 L1899.52 1468.58 L1899.52 1468.58  Z" fill="#e26f46" fill-rule="evenodd" fill-opacity="0.5"></path>
<polyline clip-path="url(#clip672)" style="stroke:#000000; stroke-linecap:round; stroke-linejoin:round; stroke-width:4; stroke-opacity:0.5; fill:none" points="1899.52,1468.58 1899.52,1486.45 1947.37,1486.45 1947.37,1468.58 1899.52,1468.58 "></polyline>
<path clip-path="url(#clip672)" d="M1947.37 1478.81 L1947.37 1486.45 L1995.22 1486.45 L1995.22 1478.81 L1947.37 1478.81 L1947.37 1478.81  Z" fill="#e26f46" fill-rule="evenodd" fill-opacity="0.5"></path>
<polyline clip-path="url(#clip672)" style="stroke:#000000; stroke-linecap:round; stroke-linejoin:round; stroke-width:4; stroke-opacity:0.5; fill:none" points="1947.37,1478.81 1947.37,1486.45 1995.22,1486.45 1995.22,1478.81 1947.37,1478.81 "></polyline>
<path clip-path="url(#clip672)" d="M1995.22 1482.48 L1995.22 1486.45 L2043.07 1486.45 L2043.07 1482.48 L1995.22 1482.48 L1995.22 1482.48  Z" fill="#e26f46" fill-rule="evenodd" fill-opacity="0.5"></path>
<polyline clip-path="url(#clip672)" style="stroke:#000000; stroke-linecap:round; stroke-linejoin:round; stroke-width:4; stroke-opacity:0.5; fill:none" points="1995.22,1482.48 1995.22,1486.45 2043.07,1486.45 2043.07,1482.48 1995.22,1482.48 "></polyline>
<path clip-path="url(#clip672)" d="M2043.07 1484.77 L2043.07 1486.45 L2090.92 1486.45 L2090.92 1484.77 L2043.07 1484.77 L2043.07 1484.77  Z" fill="#e26f46" fill-rule="evenodd" fill-opacity="0.5"></path>
<polyline clip-path="url(#clip672)" style="stroke:#000000; stroke-linecap:round; stroke-linejoin:round; stroke-width:4; stroke-opacity:0.5; fill:none" points="2043.07,1484.77 2043.07,1486.45 2090.92,1486.45 2090.92,1484.77 2043.07,1484.77 "></polyline>
<path clip-path="url(#clip672)" d="M2090.92 1485.99 L2090.92 1486.45 L2138.77 1486.45 L2138.77 1485.99 L2090.92 1485.99 L2090.92 1485.99  Z" fill="#e26f46" fill-rule="evenodd" fill-opacity="0.5"></path>
<polyline clip-path="url(#clip672)" style="stroke:#000000; stroke-linecap:round; stroke-linejoin:round; stroke-width:4; stroke-opacity:0.5; fill:none" points="2090.92,1485.99 2090.92,1486.45 2138.77,1486.45 2138.77,1485.99 2090.92,1485.99 "></polyline>
<path clip-path="url(#clip672)" d="M2138.77 1486.45 L2138.77 1486.45 L2186.62 1486.45 L2186.62 1486.45 L2138.77 1486.45 L2138.77 1486.45  Z" fill="#e26f46" fill-rule="evenodd" fill-opacity="0.5"></path>
<polyline clip-path="url(#clip672)" style="stroke:#000000; stroke-linecap:round; stroke-linejoin:round; stroke-width:4; stroke-opacity:0.5; fill:none" points="2138.77,1486.45 2138.77,1486.45 2186.62,1486.45 2138.77,1486.45 "></polyline>
<path clip-path="url(#clip672)" d="M2186.62 1486.3 L2186.62 1486.45 L2234.47 1486.45 L2234.47 1486.3 L2186.62 1486.3 L2186.62 1486.3  Z" fill="#e26f46" fill-rule="evenodd" fill-opacity="0.5"></path>
<polyline clip-path="url(#clip672)" style="stroke:#000000; stroke-linecap:round; stroke-linejoin:round; stroke-width:4; stroke-opacity:0.5; fill:none" points="2186.62,1486.3 2186.62,1486.45 2234.47,1486.45 2234.47,1486.3 2186.62,1486.3 "></polyline>
<circle clip-path="url(#clip672)" style="fill:#e26f46; stroke:none; fill-opacity:0" cx="344.387" cy="1486.45" r="2"></circle>
<circle clip-path="url(#clip672)" style="fill:#e26f46; stroke:none; fill-opacity:0" cx="392.238" cy="1486.3" r="2"></circle>
<circle clip-path="url(#clip672)" style="fill:#e26f46; stroke:none; fill-opacity:0" cx="440.088" cy="1485.99" r="2"></circle>
<circle clip-path="url(#clip672)" style="fill:#e26f46; stroke:none; fill-opacity:0" cx="487.938" cy="1485.53" r="2"></circle>
<circle clip-path="url(#clip672)" style="fill:#e26f46; stroke:none; fill-opacity:0" cx="535.788" cy="1483.24" r="2"></circle>
<circle clip-path="url(#clip672)" style="fill:#e26f46; stroke:none; fill-opacity:0" cx="583.638" cy="1481.71" r="2"></circle>
<circle clip-path="url(#clip672)" style="fill:#e26f46; stroke:none; fill-opacity:0" cx="631.489" cy="1471.48" r="2"></circle>
<circle clip-path="url(#clip672)" style="fill:#e26f46; stroke:none; fill-opacity:0" cx="679.339" cy="1460.33" r="2"></circle>
<circle clip-path="url(#clip672)" style="fill:#e26f46; stroke:none; fill-opacity:0" cx="727.189" cy="1440.02" r="2"></circle>
<circle clip-path="url(#clip672)" style="fill:#e26f46; stroke:none; fill-opacity:0" cx="775.039" cy="1398.93" r="2"></circle>
<circle clip-path="url(#clip672)" style="fill:#e26f46; stroke:none; fill-opacity:0" cx="822.889" cy="1333.56" r="2"></circle>
<circle clip-path="url(#clip672)" style="fill:#e26f46; stroke:none; fill-opacity:0" cx="870.74" cy="1261.47" r="2"></circle>
<circle clip-path="url(#clip672)" style="fill:#e26f46; stroke:none; fill-opacity:0" cx="918.59" cy="1145.25" r="2"></circle>
<circle clip-path="url(#clip672)" style="fill:#e26f46; stroke:none; fill-opacity:0" cx="966.44" cy="1024.44" r="2"></circle>
<circle clip-path="url(#clip672)" style="fill:#e26f46; stroke:none; fill-opacity:0" cx="1014.29" cy="833.979" r="2"></circle>
<circle clip-path="url(#clip672)" style="fill:#e26f46; stroke:none; fill-opacity:0" cx="1062.14" cy="683.233" r="2"></circle>
<circle clip-path="url(#clip672)" style="fill:#e26f46; stroke:none; fill-opacity:0" cx="1109.99" cy="496.748" r="2"></circle>
<circle clip-path="url(#clip672)" style="fill:#e26f46; stroke:none; fill-opacity:0" cx="1157.84" cy="317.594" r="2"></circle>
<circle clip-path="url(#clip672)" style="fill:#e26f46; stroke:none; fill-opacity:0" cx="1205.69" cy="210.987" r="2"></circle>
<circle clip-path="url(#clip672)" style="fill:#e26f46; stroke:none; fill-opacity:0" cx="1253.54" cy="143.327" r="2"></circle>
<circle clip-path="url(#clip672)" style="fill:#e26f46; stroke:none; fill-opacity:0" cx="1301.39" cy="123.472" r="2"></circle>
<circle clip-path="url(#clip672)" style="fill:#e26f46; stroke:none; fill-opacity:0" cx="1349.24" cy="219.998" r="2"></circle>
<circle clip-path="url(#clip672)" style="fill:#e26f46; stroke:none; fill-opacity:0" cx="1397.09" cy="306.444" r="2"></circle>
<circle clip-path="url(#clip672)" style="fill:#e26f46; stroke:none; fill-opacity:0" cx="1444.94" cy="478.878" r="2"></circle>
<circle clip-path="url(#clip672)" style="fill:#e26f46; stroke:none; fill-opacity:0" cx="1492.79" cy="664.752" r="2"></circle>
<circle clip-path="url(#clip672)" style="fill:#e26f46; stroke:none; fill-opacity:0" cx="1540.64" cy="844.365" r="2"></circle>
<circle clip-path="url(#clip672)" style="fill:#e26f46; stroke:none; fill-opacity:0" cx="1588.49" cy="999.082" r="2"></circle>
<circle clip-path="url(#clip672)" style="fill:#e26f46; stroke:none; fill-opacity:0" cx="1636.34" cy="1149.83" r="2"></circle>
<circle clip-path="url(#clip672)" style="fill:#e26f46; stroke:none; fill-opacity:0" cx="1684.19" cy="1261.93" r="2"></circle>
<circle clip-path="url(#clip672)" style="fill:#e26f46; stroke:none; fill-opacity:0" cx="1732.04" cy="1345.17" r="2"></circle>
<circle clip-path="url(#clip672)" style="fill:#e26f46; stroke:none; fill-opacity:0" cx="1779.89" cy="1393.43" r="2"></circle>
<circle clip-path="url(#clip672)" style="fill:#e26f46; stroke:none; fill-opacity:0" cx="1827.74" cy="1437.12" r="2"></circle>
<circle clip-path="url(#clip672)" style="fill:#e26f46; stroke:none; fill-opacity:0" cx="1875.59" cy="1456.36" r="2"></circle>
<circle clip-path="url(#clip672)" style="fill:#e26f46; stroke:none; fill-opacity:0" cx="1923.44" cy="1468.58" r="2"></circle>
<circle clip-path="url(#clip672)" style="fill:#e26f46; stroke:none; fill-opacity:0" cx="1971.29" cy="1478.81" r="2"></circle>
<circle clip-path="url(#clip672)" style="fill:#e26f46; stroke:none; fill-opacity:0" cx="2019.14" cy="1482.48" r="2"></circle>
<circle clip-path="url(#clip672)" style="fill:#e26f46; stroke:none; fill-opacity:0" cx="2066.99" cy="1484.77" r="2"></circle>
<circle clip-path="url(#clip672)" style="fill:#e26f46; stroke:none; fill-opacity:0" cx="2114.84" cy="1485.99" r="2"></circle>
<circle clip-path="url(#clip672)" style="fill:#e26f46; stroke:none; fill-opacity:0" cx="2162.69" cy="1486.45" r="2"></circle>
<circle clip-path="url(#clip672)" style="fill:#e26f46; stroke:none; fill-opacity:0" cx="2210.55" cy="1486.3" r="2"></circle>
</svg>