<?xml version="1.0" encoding="utf-8"?>
<svg xmlns="http://www.w3.org/2000/svg" xmlns:xlink="http://www.w3.org/1999/xlink" width="600" height="600" viewBox="0 0 2400 2400">
<defs>
  <clipPath id="clip900">
    <rect x="0" y="0" width="2400" height="2400"/>
  </clipPath>
</defs>
<path clip-path="url(#clip900)" d="
M0 2400 L2400 2400 L2400 0 L0 0  Z
  " fill="#ffffff" fill-rule="evenodd" fill-opacity="1"/>
<defs>
  <clipPath id="clip901">
    <rect x="480" y="240" width="1681" height="1681"/>
  </clipPath>
</defs>
<path clip-path="url(#clip900)" d="
M273.302 2174.14 L2352.76 2174.14 L2352.76 153.712 L273.302 153.712  Z
  " fill="#ffffff" fill-rule="evenodd" fill-opacity="1"/>
<defs>
  <clipPath id="clip902">
    <rect x="273" y="153" width="2080" height="2021"/>
  </clipPath>
</defs>
<polyline clip-path="url(#clip902)" style="stroke:#000000; stroke-linecap:butt; stroke-linejoin:round; stroke-width:2; stroke-opacity:0.1; fill:none" points="
  329.687,2174.14 329.687,153.712 
  "/>
<polyline clip-path="url(#clip902)" style="stroke:#000000; stroke-linecap:butt; stroke-linejoin:round; stroke-width:2; stroke-opacity:0.1; fill:none" points="
  825.963,2174.14 825.963,153.712 
  "/>
<polyline clip-path="url(#clip902)" style="stroke:#000000; stroke-linecap:butt; stroke-linejoin:round; stroke-width:2; stroke-opacity:0.1; fill:none" points="
  1322.24,2174.14 1322.24,153.712 
  "/>
<polyline clip-path="url(#clip902)" style="stroke:#000000; stroke-linecap:butt; stroke-linejoin:round; stroke-width:2; stroke-opacity:0.1; fill:none" points="
  1818.52,2174.14 1818.52,153.712 
  "/>
<polyline clip-path="url(#clip902)" style="stroke:#000000; stroke-linecap:butt; stroke-linejoin:round; stroke-width:2; stroke-opacity:0.1; fill:none" points="
  2314.79,2174.14 2314.79,153.712 
  "/>
<polyline clip-path="url(#clip900)" style="stroke:#000000; stroke-linecap:butt; stroke-linejoin:round; stroke-width:4; stroke-opacity:1; fill:none" points="
  273.302,2174.14 2352.76,2174.14 
  "/>
<polyline clip-path="url(#clip900)" style="stroke:#000000; stroke-linecap:butt; stroke-linejoin:round; stroke-width:4; stroke-opacity:1; fill:none" points="
  329.687,2174.14 329.687,2155.24 
  "/>
<polyline clip-path="url(#clip900)" style="stroke:#000000; stroke-linecap:butt; stroke-linejoin:round; stroke-width:4; stroke-opacity:1; fill:none" points="
  825.963,2174.14 825.963,2155.24 
  "/>
<polyline clip-path="url(#clip900)" style="stroke:#000000; stroke-linecap:butt; stroke-linejoin:round; stroke-width:4; stroke-opacity:1; fill:none" points="
  1322.24,2174.14 1322.24,2155.24 
  "/>
<polyline clip-path="url(#clip900)" style="stroke:#000000; stroke-linecap:butt; stroke-linejoin:round; stroke-width:4; stroke-opacity:1; fill:none" points="
  1818.52,2174.14 1818.52,2155.24 
  "/>
<polyline clip-path="url(#clip900)" style="stroke:#000000; stroke-linecap:butt; stroke-linejoin:round; stroke-width:4; stroke-opacity:1; fill:none" points="
  2314.79,2174.14 2314.79,2155.24 
  "/>
<path clip-path="url(#clip900)" d="M291.99 2205.06 Q288.379 2205.06 286.55 2208.62 Q284.745 2212.16 284.745 2219.29 Q284.745 2226.4 286.55 2229.97 Q288.379 2233.51 291.99 2233.51 Q295.624 2233.51 297.43 2229.97 Q299.258 2226.4 299.258 2219.29 Q299.258 2212.16 297.43 2208.62 Q295.624 2205.06 291.99 2205.06 M291.99 2201.35 Q297.8 2201.35 300.856 2205.96 Q303.934 2210.54 303.934 2219.29 Q303.934 2228.02 300.856 2232.63 Q297.8 2237.21 291.99 2237.21 Q286.18 2237.21 283.101 2232.63 Q280.046 2228.02 280.046 2219.29 Q280.046 2210.54 283.101 2205.96 Q286.18 2201.35 291.99 2201.35 Z" fill="#000000" fill-rule="evenodd" fill-opacity="1" /><path clip-path="url(#clip900)" d="M312.152 2230.66 L317.036 2230.66 L317.036 2236.54 L312.152 2236.54 L312.152 2230.66 Z" fill="#000000" fill-rule="evenodd" fill-opacity="1" /><path clip-path="url(#clip900)" d="M337.221 2205.06 Q333.61 2205.06 331.781 2208.62 Q329.976 2212.16 329.976 2219.29 Q329.976 2226.4 331.781 2229.97 Q333.61 2233.51 337.221 2233.51 Q340.855 2233.51 342.661 2229.97 Q344.49 2226.4 344.49 2219.29 Q344.49 2212.16 342.661 2208.62 Q340.855 2205.06 337.221 2205.06 M337.221 2201.35 Q343.031 2201.35 346.087 2205.96 Q349.166 2210.54 349.166 2219.29 Q349.166 2228.02 346.087 2232.63 Q343.031 2237.21 337.221 2237.21 Q331.411 2237.21 328.332 2232.63 Q325.277 2228.02 325.277 2219.29 Q325.277 2210.54 328.332 2205.96 Q331.411 2201.35 337.221 2201.35 Z" fill="#000000" fill-rule="evenodd" fill-opacity="1" /><path clip-path="url(#clip900)" d="M367.383 2205.06 Q363.772 2205.06 361.943 2208.62 Q360.138 2212.16 360.138 2219.29 Q360.138 2226.4 361.943 2229.97 Q363.772 2233.51 367.383 2233.51 Q371.017 2233.51 372.823 2229.97 Q374.652 2226.4 374.652 2219.29 Q374.652 2212.16 372.823 2208.62 Q371.017 2205.06 367.383 2205.06 M367.383 2201.35 Q373.193 2201.35 376.249 2205.96 Q379.327 2210.54 379.327 2219.29 Q379.327 2228.02 376.249 2232.63 Q373.193 2237.21 367.383 2237.21 Q361.573 2237.21 358.494 2232.63 Q355.439 2228.02 355.439 2219.29 Q355.439 2210.54 358.494 2205.96 Q361.573 2201.35 367.383 2201.35 Z" fill="#000000" fill-rule="evenodd" fill-opacity="1" /><path clip-path="url(#clip900)" d="M788.764 2205.06 Q785.153 2205.06 783.325 2208.62 Q781.519 2212.16 781.519 2219.29 Q781.519 2226.4 783.325 2229.97 Q785.153 2233.51 788.764 2233.51 Q792.399 2233.51 794.204 2229.97 Q796.033 2226.4 796.033 2219.29 Q796.033 2212.16 794.204 2208.62 Q792.399 2205.06 788.764 2205.06 M788.764 2201.35 Q794.575 2201.35 797.63 2205.96 Q800.709 2210.54 800.709 2219.29 Q800.709 2228.02 797.63 2232.63 Q794.575 2237.21 788.764 2237.21 Q782.954 2237.21 779.876 2232.63 Q776.82 2228.02 776.82 2219.29 Q776.82 2210.54 779.876 2205.96 Q782.954 2201.35 788.764 2201.35 Z" fill="#000000" fill-rule="evenodd" fill-opacity="1" /><path clip-path="url(#clip900)" d="M808.926 2230.66 L813.811 2230.66 L813.811 2236.54 L808.926 2236.54 L808.926 2230.66 Z" fill="#000000" fill-rule="evenodd" fill-opacity="1" /><path clip-path="url(#clip900)" d="M828.024 2232.6 L844.343 2232.6 L844.343 2236.54 L822.399 2236.54 L822.399 2232.6 Q825.061 2229.85 829.644 2225.22 Q834.25 2220.57 835.431 2219.23 Q837.676 2216.7 838.556 2214.97 Q839.459 2213.21 839.459 2211.52 Q839.459 2208.76 837.514 2207.03 Q835.593 2205.29 832.491 2205.29 Q830.292 2205.29 827.838 2206.05 Q825.408 2206.82 822.63 2208.37 L822.63 2203.65 Q825.454 2202.51 827.908 2201.93 Q830.361 2201.35 832.399 2201.35 Q837.769 2201.35 840.963 2204.04 Q844.158 2206.73 844.158 2211.22 Q844.158 2213.35 843.348 2215.27 Q842.56 2217.16 840.454 2219.76 Q839.875 2220.43 836.773 2223.65 Q833.672 2226.84 828.024 2232.6 Z" fill="#000000" fill-rule="evenodd" fill-opacity="1" /><path clip-path="url(#clip900)" d="M854.204 2201.98 L872.56 2201.98 L872.56 2205.92 L858.486 2205.92 L858.486 2214.39 Q859.505 2214.04 860.523 2213.88 Q861.542 2213.69 862.56 2213.69 Q868.347 2213.69 871.727 2216.86 Q875.107 2220.04 875.107 2225.45 Q875.107 2231.03 871.634 2234.13 Q868.162 2237.21 861.843 2237.21 Q859.667 2237.21 857.398 2236.84 Q855.153 2236.47 852.746 2235.73 L852.746 2231.03 Q854.829 2232.16 857.051 2232.72 Q859.273 2233.28 861.75 2233.28 Q865.755 2233.28 868.093 2231.17 Q870.431 2229.06 870.431 2225.45 Q870.431 2221.84 868.093 2219.73 Q865.755 2217.63 861.75 2217.63 Q859.875 2217.63 858 2218.04 Q856.148 2218.46 854.204 2219.34 L854.204 2201.98 Z" fill="#000000" fill-rule="evenodd" fill-opacity="1" /><path clip-path="url(#clip900)" d="M1284.54 2205.06 Q1280.93 2205.06 1279.1 2208.62 Q1277.3 2212.16 1277.3 2219.29 Q1277.3 2226.4 1279.1 2229.97 Q1280.93 2233.51 1284.54 2233.51 Q1288.18 2233.51 1289.98 2229.97 Q1291.81 2226.4 1291.81 2219.29 Q1291.81 2212.16 1289.98 2208.62 Q1288.18 2205.06 1284.54 2205.06 M1284.54 2201.35 Q1290.35 2201.35 1293.41 2205.96 Q1296.49 2210.54 1296.49 2219.29 Q1296.49 2228.02 1293.41 2232.63 Q1290.35 2237.21 1284.54 2237.21 Q1278.73 2237.21 1275.65 2232.63 Q1272.6 2228.02 1272.6 2219.29 Q1272.6 2210.54 1275.65 2205.96 Q1278.73 2201.35 1284.54 2201.35 Z" fill="#000000" fill-rule="evenodd" fill-opacity="1" /><path clip-path="url(#clip900)" d="M1304.71 2230.66 L1309.59 2230.66 L1309.59 2236.54 L1304.71 2236.54 L1304.71 2230.66 Z" fill="#000000" fill-rule="evenodd" fill-opacity="1" /><path clip-path="url(#clip900)" d="M1319.82 2201.98 L1338.18 2201.98 L1338.18 2205.92 L1324.1 2205.92 L1324.1 2214.39 Q1325.12 2214.04 1326.14 2213.88 Q1327.16 2213.69 1328.18 2213.69 Q1333.96 2213.69 1337.34 2216.86 Q1340.72 2220.04 1340.72 2225.45 Q1340.72 2231.03 1337.25 2234.13 Q1333.78 2237.21 1327.46 2237.21 Q1325.28 2237.21 1323.02 2236.84 Q1320.77 2236.47 1318.36 2235.73 L1318.36 2231.03 Q1320.45 2232.16 1322.67 2232.72 Q1324.89 2233.28 1327.37 2233.28 Q1331.37 2233.28 1333.71 2231.17 Q1336.05 2229.06 1336.05 2225.45 Q1336.05 2221.84 1333.71 2219.73 Q1331.37 2217.63 1327.37 2217.63 Q1325.49 2217.63 1323.62 2218.04 Q1321.77 2218.46 1319.82 2219.34 L1319.82 2201.98 Z" fill="#000000" fill-rule="evenodd" fill-opacity="1" /><path clip-path="url(#clip900)" d="M1359.94 2205.06 Q1356.33 2205.06 1354.5 2208.62 Q1352.69 2212.16 1352.69 2219.29 Q1352.69 2226.4 1354.5 2229.97 Q1356.33 2233.51 1359.94 2233.51 Q1363.57 2233.51 1365.38 2229.97 Q1367.21 2226.4 1367.21 2219.29 Q1367.21 2212.16 1365.38 2208.62 Q1363.57 2205.06 1359.94 2205.06 M1359.94 2201.35 Q1365.75 2201.35 1368.8 2205.96 Q1371.88 2210.54 1371.88 2219.29 Q1371.88 2228.02 1368.8 2232.63 Q1365.75 2237.21 1359.94 2237.21 Q1354.13 2237.21 1351.05 2232.63 Q1347.99 2228.02 1347.99 2219.29 Q1347.99 2210.54 1351.05 2205.96 Q1354.13 2201.35 1359.94 2201.35 Z" fill="#000000" fill-rule="evenodd" fill-opacity="1" /><path clip-path="url(#clip900)" d="M1781.32 2205.06 Q1777.71 2205.06 1775.88 2208.62 Q1774.07 2212.16 1774.07 2219.29 Q1774.07 2226.4 1775.88 2229.97 Q1777.71 2233.51 1781.32 2233.51 Q1784.95 2233.51 1786.76 2229.97 Q1788.59 2226.4 1788.59 2219.29 Q1788.59 2212.16 1786.76 2208.62 Q1784.95 2205.06 1781.32 2205.06 M1781.32 2201.35 Q1787.13 2201.35 1790.18 2205.96 Q1793.26 2210.54 1793.26 2219.29 Q1793.26 2228.02 1790.18 2232.63 Q1787.13 2237.21 1781.32 2237.21 Q1775.51 2237.21 1772.43 2232.63 Q1769.37 2228.02 1769.37 2219.29 Q1769.37 2210.54 1772.43 2205.96 Q1775.51 2201.35 1781.32 2201.35 Z" fill="#000000" fill-rule="evenodd" fill-opacity="1" /><path clip-path="url(#clip900)" d="M1801.48 2230.66 L1806.36 2230.66 L1806.36 2236.54 L1801.48 2236.54 L1801.48 2230.66 Z" fill="#000000" fill-rule="evenodd" fill-opacity="1" /><path clip-path="url(#clip900)" d="M1815.37 2201.98 L1837.59 2201.98 L1837.59 2203.97 L1825.04 2236.54 L1820.16 2236.54 L1831.97 2205.92 L1815.37 2205.92 L1815.37 2201.98 Z" fill="#000000" fill-rule="evenodd" fill-opacity="1" /><path clip-path="url(#clip900)" d="M1846.76 2201.98 L1865.11 2201.98 L1865.11 2205.92 L1851.04 2205.92 L1851.04 2214.39 Q1852.06 2214.04 1853.08 2213.88 Q1854.1 2213.69 1855.11 2213.69 Q1860.9 2213.69 1864.28 2216.86 Q1867.66 2220.04 1867.66 2225.45 Q1867.66 2231.03 1864.19 2234.13 Q1860.72 2237.21 1854.4 2237.21 Q1852.22 2237.21 1849.95 2236.84 Q1847.71 2236.47 1845.3 2235.73 L1845.3 2231.03 Q1847.38 2232.16 1849.6 2232.72 Q1851.83 2233.28 1854.3 2233.28 Q1858.31 2233.28 1860.65 2231.17 Q1862.98 2229.06 1862.98 2225.45 Q1862.98 2221.84 1860.65 2219.73 Q1858.31 2217.63 1854.3 2217.63 Q1852.43 2217.63 1850.55 2218.04 Q1848.7 2218.46 1846.76 2219.34 L1846.76 2201.98 Z" fill="#000000" fill-rule="evenodd" fill-opacity="1" /><path clip-path="url(#clip900)" d="M2266.87 2232.6 L2274.5 2232.6 L2274.5 2206.24 L2266.19 2207.91 L2266.19 2203.65 L2274.46 2201.98 L2279.13 2201.98 L2279.13 2232.6 L2286.77 2232.6 L2286.77 2236.54 L2266.87 2236.54 L2266.87 2232.6 Z" fill="#000000" fill-rule="evenodd" fill-opacity="1" /><path clip-path="url(#clip900)" d="M2296.22 2230.66 L2301.1 2230.66 L2301.1 2236.54 L2296.22 2236.54 L2296.22 2230.66 Z" fill="#000000" fill-rule="evenodd" fill-opacity="1" /><path clip-path="url(#clip900)" d="M2321.29 2205.06 Q2317.68 2205.06 2315.85 2208.62 Q2314.04 2212.16 2314.04 2219.29 Q2314.04 2226.4 2315.85 2229.97 Q2317.68 2233.51 2321.29 2233.51 Q2324.92 2233.51 2326.73 2229.97 Q2328.56 2226.4 2328.56 2219.29 Q2328.56 2212.16 2326.73 2208.62 Q2324.92 2205.06 2321.29 2205.06 M2321.29 2201.35 Q2327.1 2201.35 2330.15 2205.96 Q2333.23 2210.54 2333.23 2219.29 Q2333.23 2228.02 2330.15 2232.63 Q2327.1 2237.21 2321.29 2237.21 Q2315.48 2237.21 2312.4 2232.63 Q2309.34 2228.02 2309.34 2219.29 Q2309.34 2210.54 2312.4 2205.96 Q2315.48 2201.35 2321.29 2201.35 Z" fill="#000000" fill-rule="evenodd" fill-opacity="1" /><path clip-path="url(#clip900)" d="M2351.45 2205.06 Q2347.84 2205.06 2346.01 2208.62 Q2344.2 2212.16 2344.2 2219.29 Q2344.2 2226.4 2346.01 2229.97 Q2347.84 2233.51 2351.45 2233.51 Q2355.08 2233.51 2356.89 2229.97 Q2358.72 2226.4 2358.72 2219.29 Q2358.72 2212.16 2356.89 2208.62 Q2355.08 2205.06 2351.45 2205.06 M2351.45 2201.35 Q2357.26 2201.35 2360.31 2205.96 Q2363.39 2210.54 2363.39 2219.29 Q2363.39 2228.02 2360.31 2232.63 Q2357.26 2237.21 2351.45 2237.21 Q2345.64 2237.21 2342.56 2232.63 Q2339.5 2228.02 2339.5 2219.29 Q2339.5 2210.54 2342.56 2205.96 Q2345.64 2201.35 2351.45 2201.35 Z" fill="#000000" fill-rule="evenodd" fill-opacity="1" /><path clip-path="url(#clip900)" d="M1164.98 2271.48 L1192.29 2271.48 L1192.29 2276.89 L1171.41 2276.89 L1171.41 2290.9 L1190.25 2290.9 L1190.25 2296.31 L1171.41 2296.31 L1171.41 2319 L1164.98 2319 L1164.98 2271.48 Z" fill="#000000" fill-rule="evenodd" fill-opacity="1" /><path clip-path="url(#clip900)" d="M1229.14 2299.72 L1229.14 2302.58 L1202.22 2302.58 Q1202.6 2308.63 1205.85 2311.81 Q1209.12 2314.96 1214.95 2314.96 Q1218.32 2314.96 1221.47 2314.13 Q1224.66 2313.31 1227.78 2311.65 L1227.78 2317.19 Q1224.63 2318.53 1221.32 2319.23 Q1218 2319.93 1214.6 2319.93 Q1206.07 2319.93 1201.07 2314.96 Q1196.11 2310 1196.11 2301.53 Q1196.11 2292.78 1200.82 2287.65 Q1205.56 2282.5 1213.58 2282.5 Q1220.77 2282.5 1224.94 2287.14 Q1229.14 2291.76 1229.14 2299.72 M1223.29 2298 Q1223.22 2293.19 1220.58 2290.33 Q1217.97 2287.46 1213.64 2287.46 Q1208.74 2287.46 1205.78 2290.23 Q1202.85 2293 1202.41 2298.03 L1223.29 2298 Z" fill="#000000" fill-rule="evenodd" fill-opacity="1" /><path clip-path="url(#clip900)" d="M1254.96 2301.08 Q1247.86 2301.08 1245.12 2302.71 Q1242.39 2304.33 1242.39 2308.25 Q1242.39 2311.36 1244.42 2313.21 Q1246.49 2315.03 1250.02 2315.03 Q1254.89 2315.03 1257.82 2311.59 Q1260.78 2308.12 1260.78 2302.39 L1260.78 2301.08 L1254.96 2301.08 M1266.64 2298.67 L1266.64 2319 L1260.78 2319 L1260.78 2313.59 Q1258.78 2316.84 1255.79 2318.4 Q1252.79 2319.93 1248.46 2319.93 Q1242.99 2319.93 1239.74 2316.87 Q1236.53 2313.78 1236.53 2308.63 Q1236.53 2302.61 1240.54 2299.56 Q1244.58 2296.5 1252.57 2296.5 L1260.78 2296.5 L1260.78 2295.93 Q1260.78 2291.89 1258.11 2289.69 Q1255.47 2287.46 1250.66 2287.46 Q1247.61 2287.46 1244.71 2288.19 Q1241.81 2288.93 1239.14 2290.39 L1239.14 2284.98 Q1242.35 2283.74 1245.38 2283.13 Q1248.4 2282.5 1251.27 2282.5 Q1259 2282.5 1262.82 2286.51 Q1266.64 2290.52 1266.64 2298.67 Z" fill="#000000" fill-rule="evenodd" fill-opacity="1" /><path clip-path="url(#clip900)" d="M1284.49 2273.23 L1284.49 2283.36 L1296.56 2283.36 L1296.56 2287.91 L1284.49 2287.91 L1284.49 2307.26 Q1284.49 2311.62 1285.67 2312.86 Q1286.88 2314.1 1290.54 2314.1 L1296.56 2314.1 L1296.56 2319 L1290.54 2319 Q1283.76 2319 1281.18 2316.49 Q1278.61 2313.94 1278.61 2307.26 L1278.61 2287.91 L1274.31 2287.91 L1274.31 2283.36 L1278.61 2283.36 L1278.61 2273.23 L1284.49 2273.23 Z" fill="#000000" fill-rule="evenodd" fill-opacity="1" /><path clip-path="url(#clip900)" d="M1303.66 2304.94 L1303.66 2283.36 L1309.51 2283.36 L1309.51 2304.71 Q1309.51 2309.77 1311.49 2312.32 Q1313.46 2314.83 1317.41 2314.83 Q1322.15 2314.83 1324.89 2311.81 Q1327.65 2308.79 1327.65 2303.57 L1327.65 2283.36 L1333.51 2283.36 L1333.51 2319 L1327.65 2319 L1327.65 2313.53 Q1325.52 2316.78 1322.69 2318.37 Q1319.89 2319.93 1316.16 2319.93 Q1310.02 2319.93 1306.84 2316.11 Q1303.66 2312.29 1303.66 2304.94 M1318.39 2282.5 L1318.39 2282.5 Z" fill="#000000" fill-rule="evenodd" fill-opacity="1" /><path clip-path="url(#clip900)" d="M1366.23 2288.83 Q1365.24 2288.26 1364.07 2288 Q1362.92 2287.72 1361.52 2287.72 Q1356.55 2287.72 1353.88 2290.96 Q1351.24 2294.18 1351.24 2300.23 L1351.24 2319 L1345.35 2319 L1345.35 2283.36 L1351.24 2283.36 L1351.24 2288.89 Q1353.09 2285.65 1356.05 2284.09 Q1359.01 2282.5 1363.24 2282.5 Q1363.84 2282.5 1364.58 2282.59 Q1365.31 2282.66 1366.2 2282.81 L1366.23 2288.83 Z" fill="#000000" fill-rule="evenodd" fill-opacity="1" /><path clip-path="url(#clip900)" d="M1401.43 2299.72 L1401.43 2302.58 L1374.51 2302.58 Q1374.89 2308.63 1378.13 2311.81 Q1381.41 2314.96 1387.24 2314.96 Q1390.61 2314.96 1393.76 2314.13 Q1396.94 2313.31 1400.06 2311.65 L1400.06 2317.19 Q1396.91 2318.53 1393.6 2319.23 Q1390.29 2319.93 1386.89 2319.93 Q1378.36 2319.93 1373.36 2314.96 Q1368.39 2310 1368.39 2301.53 Q1368.39 2292.78 1373.11 2287.65 Q1377.85 2282.5 1385.87 2282.5 Q1393.06 2282.5 1397.23 2287.14 Q1401.43 2291.76 1401.43 2299.72 M1395.58 2298 Q1395.51 2293.19 1392.87 2290.33 Q1390.26 2287.46 1385.93 2287.46 Q1381.03 2287.46 1378.07 2290.23 Q1375.14 2293 1374.7 2298.03 L1395.58 2298 Z" fill="#000000" fill-rule="evenodd" fill-opacity="1" /><path clip-path="url(#clip900)" d="M1433.71 2313.59 L1444.21 2313.59 L1444.21 2277.34 L1432.78 2279.63 L1432.78 2273.78 L1444.15 2271.48 L1450.58 2271.48 L1450.58 2313.59 L1461.08 2313.59 L1461.08 2319 L1433.71 2319 L1433.71 2313.59 Z" fill="#000000" fill-rule="evenodd" fill-opacity="1" /><polyline clip-path="url(#clip902)" style="stroke:#000000; stroke-linecap:butt; stroke-linejoin:round; stroke-width:2; stroke-opacity:0.1; fill:none" points="
  273.302,2134.34 2352.76,2134.34 
  "/>
<polyline clip-path="url(#clip902)" style="stroke:#000000; stroke-linecap:butt; stroke-linejoin:round; stroke-width:2; stroke-opacity:0.1; fill:none" points="
  273.302,1649.15 2352.76,1649.15 
  "/>
<polyline clip-path="url(#clip902)" style="stroke:#000000; stroke-linecap:butt; stroke-linejoin:round; stroke-width:2; stroke-opacity:0.1; fill:none" points="
  273.302,1163.95 2352.76,1163.95 
  "/>
<polyline clip-path="url(#clip902)" style="stroke:#000000; stroke-linecap:butt; stroke-linejoin:round; stroke-width:2; stroke-opacity:0.1; fill:none" points="
  273.302,678.759 2352.76,678.759 
  "/>
<polyline clip-path="url(#clip902)" style="stroke:#000000; stroke-linecap:butt; stroke-linejoin:round; stroke-width:2; stroke-opacity:0.1; fill:none" points="
  273.302,193.565 2352.76,193.565 
  "/>
<polyline clip-path="url(#clip900)" style="stroke:#000000; stroke-linecap:butt; stroke-linejoin:round; stroke-width:4; stroke-opacity:1; fill:none" points="
  273.302,2174.14 273.302,153.712 
  "/>
<polyline clip-path="url(#clip900)" style="stroke:#000000; stroke-linecap:butt; stroke-linejoin:round; stroke-width:4; stroke-opacity:1; fill:none" points="
  273.302,2134.34 292.2,2134.34 
  "/>
<polyline clip-path="url(#clip900)" style="stroke:#000000; stroke-linecap:butt; stroke-linejoin:round; stroke-width:4; stroke-opacity:1; fill:none" points="
  273.302,1649.15 292.2,1649.15 
  "/>
<polyline clip-path="url(#clip900)" style="stroke:#000000; stroke-linecap:butt; stroke-linejoin:round; stroke-width:4; stroke-opacity:1; fill:none" points="
  273.302,1163.95 292.2,1163.95 
  "/>
<polyline clip-path="url(#clip900)" style="stroke:#000000; stroke-linecap:butt; stroke-linejoin:round; stroke-width:4; stroke-opacity:1; fill:none" points="
  273.302,678.759 292.2,678.759 
  "/>
<polyline clip-path="url(#clip900)" style="stroke:#000000; stroke-linecap:butt; stroke-linejoin:round; stroke-width:4; stroke-opacity:1; fill:none" points="
  273.302,193.565 292.2,193.565 
  "/>
<path clip-path="url(#clip900)" d="M149.965 2120.14 Q146.353 2120.14 144.525 2123.71 Q142.719 2127.25 142.719 2134.38 Q142.719 2141.48 144.525 2145.05 Q146.353 2148.59 149.965 2148.59 Q153.599 2148.59 155.404 2145.05 Q157.233 2141.48 157.233 2134.38 Q157.233 2127.25 155.404 2123.71 Q153.599 2120.14 149.965 2120.14 M149.965 2116.44 Q155.775 2116.44 158.83 2121.04 Q161.909 2125.63 161.909 2134.38 Q161.909 2143.11 158.83 2147.71 Q155.775 2152.29 149.965 2152.29 Q144.154 2152.29 141.076 2147.71 Q138.02 2143.11 138.02 2134.38 Q138.02 2125.63 141.076 2121.04 Q144.154 2116.44 149.965 2116.44 Z" fill="#000000" fill-rule="evenodd" fill-opacity="1" /><path clip-path="url(#clip900)" d="M170.126 2145.74 L175.011 2145.74 L175.011 2151.62 L170.126 2151.62 L170.126 2145.74 Z" fill="#000000" fill-rule="evenodd" fill-opacity="1" /><path clip-path="url(#clip900)" d="M195.196 2120.14 Q191.585 2120.14 189.756 2123.71 Q187.95 2127.25 187.95 2134.38 Q187.95 2141.48 189.756 2145.05 Q191.585 2148.59 195.196 2148.59 Q198.83 2148.59 200.636 2145.05 Q202.464 2141.48 202.464 2134.38 Q202.464 2127.25 200.636 2123.71 Q198.83 2120.14 195.196 2120.14 M195.196 2116.44 Q201.006 2116.44 204.061 2121.04 Q207.14 2125.63 207.14 2134.38 Q207.14 2143.11 204.061 2147.71 Q201.006 2152.29 195.196 2152.29 Q189.386 2152.29 186.307 2147.71 Q183.251 2143.11 183.251 2134.38 Q183.251 2125.63 186.307 2121.04 Q189.386 2116.44 195.196 2116.44 Z" fill="#000000" fill-rule="evenodd" fill-opacity="1" /><path clip-path="url(#clip900)" d="M225.358 2120.14 Q221.747 2120.14 219.918 2123.71 Q218.112 2127.25 218.112 2134.38 Q218.112 2141.48 219.918 2145.05 Q221.747 2148.59 225.358 2148.59 Q228.992 2148.59 230.797 2145.05 Q232.626 2141.48 232.626 2134.38 Q232.626 2127.25 230.797 2123.71 Q228.992 2120.14 225.358 2120.14 M225.358 2116.44 Q231.168 2116.44 234.223 2121.04 Q237.302 2125.63 237.302 2134.38 Q237.302 2143.11 234.223 2147.71 Q231.168 2152.29 225.358 2152.29 Q219.547 2152.29 216.469 2147.71 Q213.413 2143.11 213.413 2134.38 Q213.413 2125.63 216.469 2121.04 Q219.547 2116.44 225.358 2116.44 Z" fill="#000000" fill-rule="evenodd" fill-opacity="1" /><path clip-path="url(#clip900)" d="M150.96 1634.95 Q147.349 1634.95 145.52 1638.51 Q143.715 1642.05 143.715 1649.18 Q143.715 1656.29 145.52 1659.85 Q147.349 1663.4 150.96 1663.4 Q154.594 1663.4 156.4 1659.85 Q158.228 1656.29 158.228 1649.18 Q158.228 1642.05 156.4 1638.51 Q154.594 1634.95 150.96 1634.95 M150.96 1631.24 Q156.77 1631.24 159.826 1635.85 Q162.904 1640.43 162.904 1649.18 Q162.904 1657.91 159.826 1662.52 Q156.77 1667.1 150.96 1667.1 Q145.15 1667.1 142.071 1662.52 Q139.016 1657.91 139.016 1649.18 Q139.016 1640.43 142.071 1635.85 Q145.15 1631.24 150.96 1631.24 Z" fill="#000000" fill-rule="evenodd" fill-opacity="1" /><path clip-path="url(#clip900)" d="M171.122 1660.55 L176.006 1660.55 L176.006 1666.43 L171.122 1666.43 L171.122 1660.55 Z" fill="#000000" fill-rule="evenodd" fill-opacity="1" /><path clip-path="url(#clip900)" d="M190.219 1662.49 L206.538 1662.49 L206.538 1666.43 L184.594 1666.43 L184.594 1662.49 Q187.256 1659.74 191.839 1655.11 Q196.446 1650.46 197.626 1649.11 Q199.872 1646.59 200.751 1644.85 Q201.654 1643.1 201.654 1641.41 Q201.654 1638.65 199.71 1636.92 Q197.788 1635.18 194.687 1635.18 Q192.487 1635.18 190.034 1635.94 Q187.603 1636.71 184.825 1638.26 L184.825 1633.54 Q187.65 1632.4 190.103 1631.82 Q192.557 1631.24 194.594 1631.24 Q199.964 1631.24 203.159 1633.93 Q206.353 1636.61 206.353 1641.1 Q206.353 1643.23 205.543 1645.16 Q204.756 1647.05 202.649 1649.65 Q202.071 1650.32 198.969 1653.54 Q195.867 1656.73 190.219 1662.49 Z" fill="#000000" fill-rule="evenodd" fill-opacity="1" /><path clip-path="url(#clip900)" d="M216.399 1631.87 L234.756 1631.87 L234.756 1635.8 L220.682 1635.8 L220.682 1644.28 Q221.7 1643.93 222.719 1643.77 Q223.737 1643.58 224.756 1643.58 Q230.543 1643.58 233.922 1646.75 Q237.302 1649.92 237.302 1655.34 Q237.302 1660.92 233.83 1664.02 Q230.358 1667.1 224.038 1667.1 Q221.862 1667.1 219.594 1666.73 Q217.348 1666.36 214.941 1665.62 L214.941 1660.92 Q217.024 1662.05 219.247 1662.61 Q221.469 1663.16 223.946 1663.16 Q227.95 1663.16 230.288 1661.06 Q232.626 1658.95 232.626 1655.34 Q232.626 1651.73 230.288 1649.62 Q227.95 1647.52 223.946 1647.52 Q222.071 1647.52 220.196 1647.93 Q218.344 1648.35 216.399 1649.23 L216.399 1631.87 Z" fill="#000000" fill-rule="evenodd" fill-opacity="1" /><path clip-path="url(#clip900)" d="M149.965 1149.75 Q146.353 1149.75 144.525 1153.32 Q142.719 1156.86 142.719 1163.99 Q142.719 1171.1 144.525 1174.66 Q146.353 1178.2 149.965 1178.2 Q153.599 1178.2 155.404 1174.66 Q157.233 1171.1 157.233 1163.99 Q157.233 1156.86 155.404 1153.32 Q153.599 1149.75 149.965 1149.75 M149.965 1146.05 Q155.775 1146.05 158.83 1150.66 Q161.909 1155.24 161.909 1163.99 Q161.909 1172.72 158.83 1177.32 Q155.775 1181.91 149.965 1181.91 Q144.154 1181.91 141.076 1177.32 Q138.02 1172.72 138.02 1163.99 Q138.02 1155.24 141.076 1150.66 Q144.154 1146.05 149.965 1146.05 Z" fill="#000000" fill-rule="evenodd" fill-opacity="1" /><path clip-path="url(#clip900)" d="M170.126 1175.35 L175.011 1175.35 L175.011 1181.23 L170.126 1181.23 L170.126 1175.35 Z" fill="#000000" fill-rule="evenodd" fill-opacity="1" /><path clip-path="url(#clip900)" d="M185.242 1146.67 L203.599 1146.67 L203.599 1150.61 L189.525 1150.61 L189.525 1159.08 Q190.543 1158.73 191.562 1158.57 Q192.58 1158.39 193.599 1158.39 Q199.386 1158.39 202.765 1161.56 Q206.145 1164.73 206.145 1170.15 Q206.145 1175.72 202.673 1178.83 Q199.2 1181.91 192.881 1181.91 Q190.705 1181.91 188.437 1181.54 Q186.191 1181.16 183.784 1180.42 L183.784 1175.72 Q185.867 1176.86 188.089 1177.41 Q190.312 1177.97 192.788 1177.97 Q196.793 1177.97 199.131 1175.86 Q201.469 1173.76 201.469 1170.15 Q201.469 1166.54 199.131 1164.43 Q196.793 1162.32 192.788 1162.32 Q190.913 1162.32 189.038 1162.74 Q187.187 1163.16 185.242 1164.04 L185.242 1146.67 Z" fill="#000000" fill-rule="evenodd" fill-opacity="1" /><path clip-path="url(#clip900)" d="M225.358 1149.75 Q221.747 1149.75 219.918 1153.32 Q218.112 1156.86 218.112 1163.99 Q218.112 1171.1 219.918 1174.66 Q221.747 1178.2 225.358 1178.2 Q228.992 1178.2 230.797 1174.66 Q232.626 1171.1 232.626 1163.99 Q232.626 1156.86 230.797 1153.32 Q228.992 1149.75 225.358 1149.75 M225.358 1146.05 Q231.168 1146.05 234.223 1150.66 Q237.302 1155.24 237.302 1163.99 Q237.302 1172.72 234.223 1177.32 Q231.168 1181.91 225.358 1181.91 Q219.547 1181.91 216.469 1177.32 Q213.413 1172.72 213.413 1163.99 Q213.413 1155.24 216.469 1150.66 Q219.547 1146.05 225.358 1146.05 Z" fill="#000000" fill-rule="evenodd" fill-opacity="1" /><path clip-path="url(#clip900)" d="M150.96 664.558 Q147.349 664.558 145.52 668.123 Q143.715 671.665 143.715 678.794 Q143.715 685.901 145.52 689.465 Q147.349 693.007 150.96 693.007 Q154.594 693.007 156.4 689.465 Q158.228 685.901 158.228 678.794 Q158.228 671.665 156.4 668.123 Q154.594 664.558 150.96 664.558 M150.96 660.854 Q156.77 660.854 159.826 665.461 Q162.904 670.044 162.904 678.794 Q162.904 687.521 159.826 692.127 Q156.77 696.711 150.96 696.711 Q145.15 696.711 142.071 692.127 Q139.016 687.521 139.016 678.794 Q139.016 670.044 142.071 665.461 Q145.15 660.854 150.96 660.854 Z" fill="#000000" fill-rule="evenodd" fill-opacity="1" /><path clip-path="url(#clip900)" d="M171.122 690.16 L176.006 690.16 L176.006 696.039 L171.122 696.039 L171.122 690.16 Z" fill="#000000" fill-rule="evenodd" fill-opacity="1" /><path clip-path="url(#clip900)" d="M185.011 661.479 L207.233 661.479 L207.233 663.47 L194.687 696.039 L189.802 696.039 L201.608 665.415 L185.011 665.415 L185.011 661.479 Z" fill="#000000" fill-rule="evenodd" fill-opacity="1" /><path clip-path="url(#clip900)" d="M216.399 661.479 L234.756 661.479 L234.756 665.415 L220.682 665.415 L220.682 673.887 Q221.7 673.54 222.719 673.378 Q223.737 673.192 224.756 673.192 Q230.543 673.192 233.922 676.364 Q237.302 679.535 237.302 684.952 Q237.302 690.53 233.83 693.632 Q230.358 696.711 224.038 696.711 Q221.862 696.711 219.594 696.34 Q217.348 695.97 214.941 695.229 L214.941 690.53 Q217.024 691.664 219.247 692.22 Q221.469 692.776 223.946 692.776 Q227.95 692.776 230.288 690.669 Q232.626 688.563 232.626 684.952 Q232.626 681.34 230.288 679.234 Q227.95 677.128 223.946 677.128 Q222.071 677.128 220.196 677.544 Q218.344 677.961 216.399 678.84 L216.399 661.479 Z" fill="#000000" fill-rule="evenodd" fill-opacity="1" /><path clip-path="url(#clip900)" d="M140.775 206.91 L148.414 206.91 L148.414 180.544 L140.103 182.211 L140.103 177.951 L148.367 176.285 L153.043 176.285 L153.043 206.91 L160.682 206.91 L160.682 210.845 L140.775 210.845 L140.775 206.91 Z" fill="#000000" fill-rule="evenodd" fill-opacity="1" /><path clip-path="url(#clip900)" d="M170.126 204.965 L175.011 204.965 L175.011 210.845 L170.126 210.845 L170.126 204.965 Z" fill="#000000" fill-rule="evenodd" fill-opacity="1" /><path clip-path="url(#clip900)" d="M195.196 179.363 Q191.585 179.363 189.756 182.928 Q187.95 186.47 187.95 193.6 Q187.95 200.706 189.756 204.271 Q191.585 207.812 195.196 207.812 Q198.83 207.812 200.636 204.271 Q202.464 200.706 202.464 193.6 Q202.464 186.47 200.636 182.928 Q198.83 179.363 195.196 179.363 M195.196 175.66 Q201.006 175.66 204.061 180.266 Q207.14 184.85 207.14 193.6 Q207.14 202.326 204.061 206.933 Q201.006 211.516 195.196 211.516 Q189.386 211.516 186.307 206.933 Q183.251 202.326 183.251 193.6 Q183.251 184.85 186.307 180.266 Q189.386 175.66 195.196 175.66 Z" fill="#000000" fill-rule="evenodd" fill-opacity="1" /><path clip-path="url(#clip900)" d="M225.358 179.363 Q221.747 179.363 219.918 182.928 Q218.112 186.47 218.112 193.6 Q218.112 200.706 219.918 204.271 Q221.747 207.812 225.358 207.812 Q228.992 207.812 230.797 204.271 Q232.626 200.706 232.626 193.6 Q232.626 186.47 230.797 182.928 Q228.992 179.363 225.358 179.363 M225.358 175.66 Q231.168 175.66 234.223 180.266 Q237.302 184.85 237.302 193.6 Q237.302 202.326 234.223 206.933 Q231.168 211.516 225.358 211.516 Q219.547 211.516 216.469 206.933 Q213.413 202.326 213.413 193.6 Q213.413 184.85 216.469 180.266 Q219.547 175.66 225.358 175.66 Z" fill="#000000" fill-rule="evenodd" fill-opacity="1" /><path clip-path="url(#clip900)" d="M40.2442 1311.72 L40.2442 1284.41 L45.655 1284.41 L45.655 1305.29 L59.6596 1305.29 L59.6596 1286.45 L65.0704 1286.45 L65.0704 1305.29 L87.7642 1305.29 L87.7642 1311.72 L40.2442 1311.72 Z" fill="#000000" fill-rule="evenodd" fill-opacity="1" /><path clip-path="url(#clip900)" d="M68.4761 1247.56 L71.3406 1247.56 L71.3406 1274.48 Q77.3881 1274.1 80.5709 1270.85 Q83.7219 1267.58 83.7219 1261.75 Q83.7219 1258.38 82.8944 1255.23 Q82.0669 1252.04 80.4118 1248.92 L85.9499 1248.92 Q87.2867 1252.08 87.987 1255.39 Q88.6872 1258.7 88.6872 1262.1 Q88.6872 1270.63 83.7219 1275.63 Q78.7567 1280.59 70.2903 1280.59 Q61.5374 1280.59 56.4131 1275.88 Q51.2568 1271.14 51.2568 1263.12 Q51.2568 1255.93 55.9038 1251.76 Q60.5189 1247.56 68.4761 1247.56 M66.7573 1253.41 Q61.9512 1253.48 59.0866 1256.12 Q56.2221 1258.73 56.2221 1263.06 Q56.2221 1267.96 58.9912 1270.92 Q61.7602 1273.85 66.7892 1274.29 L66.7573 1253.41 Z" fill="#000000" fill-rule="evenodd" fill-opacity="1" /><path clip-path="url(#clip900)" d="M69.8447 1221.74 Q69.8447 1228.84 71.4679 1231.58 Q73.0912 1234.31 77.0061 1234.31 Q80.1253 1234.31 81.9714 1232.28 Q83.7856 1230.21 83.7856 1226.68 Q83.7856 1221.81 80.3481 1218.88 Q76.8788 1215.92 71.1497 1215.92 L69.8447 1215.92 L69.8447 1221.74 M67.4257 1210.06 L87.7642 1210.06 L87.7642 1215.92 L82.3533 1215.92 Q85.5998 1217.92 87.1594 1220.91 Q88.6872 1223.91 88.6872 1228.24 Q88.6872 1233.71 85.6316 1236.96 Q82.5443 1240.17 77.3881 1240.17 Q71.3725 1240.17 68.3169 1236.16 Q65.2614 1232.12 65.2614 1224.13 L65.2614 1215.92 L64.6885 1215.92 Q60.6462 1215.92 58.4501 1218.59 Q56.2221 1221.23 56.2221 1226.04 Q56.2221 1229.09 56.9541 1231.99 Q57.6862 1234.89 59.1503 1237.56 L53.7395 1237.56 Q52.4981 1234.35 51.8934 1231.32 Q51.2568 1228.3 51.2568 1225.43 Q51.2568 1217.7 55.2672 1213.88 Q59.2776 1210.06 67.4257 1210.06 Z" fill="#000000" fill-rule="evenodd" fill-opacity="1" /><path clip-path="url(#clip900)" d="M41.9947 1192.21 L52.1162 1192.21 L52.1162 1180.14 L56.6677 1180.14 L56.6677 1192.21 L76.0194 1192.21 Q80.3799 1192.21 81.6213 1191.03 Q82.8626 1189.82 82.8626 1186.16 L82.8626 1180.14 L87.7642 1180.14 L87.7642 1186.16 Q87.7642 1192.94 85.2497 1195.52 Q82.7034 1198.09 76.0194 1198.09 L56.6677 1198.09 L56.6677 1202.39 L52.1162 1202.39 L52.1162 1198.09 L41.9947 1198.09 L41.9947 1192.21 Z" fill="#000000" fill-rule="evenodd" fill-opacity="1" /><path clip-path="url(#clip900)" d="M73.6959 1173.04 L52.1162 1173.04 L52.1162 1167.19 L73.4731 1167.19 Q78.5339 1167.19 81.0802 1165.22 Q83.5946 1163.24 83.5946 1159.29 Q83.5946 1154.55 80.5709 1151.82 Q77.5472 1149.05 72.3273 1149.05 L52.1162 1149.05 L52.1162 1143.19 L87.7642 1143.19 L87.7642 1149.05 L82.2896 1149.05 Q85.5362 1151.18 87.1276 1154.01 Q88.6872 1156.81 88.6872 1160.54 Q88.6872 1166.68 84.8678 1169.86 Q81.0483 1173.04 73.6959 1173.04 M51.2568 1158.31 L51.2568 1158.31 Z" fill="#000000" fill-rule="evenodd" fill-opacity="1" /><path clip-path="url(#clip900)" d="M57.5907 1110.47 Q57.0178 1111.46 56.7632 1112.63 Q56.4767 1113.78 56.4767 1115.18 Q56.4767 1120.15 59.7232 1122.82 Q62.9379 1125.46 68.9853 1125.46 L87.7642 1125.46 L87.7642 1131.35 L52.1162 1131.35 L52.1162 1125.46 L57.6544 1125.46 Q54.4079 1123.62 52.8483 1120.66 Q51.2568 1117.7 51.2568 1113.46 Q51.2568 1112.86 51.3523 1112.13 Q51.416 1111.39 51.5751 1110.5 L57.5907 1110.47 Z" fill="#000000" fill-rule="evenodd" fill-opacity="1" /><path clip-path="url(#clip900)" d="M68.4761 1075.27 L71.3406 1075.27 L71.3406 1102.19 Q77.3881 1101.81 80.5709 1098.57 Q83.7219 1095.29 83.7219 1089.46 Q83.7219 1086.09 82.8944 1082.94 Q82.0669 1079.76 80.4118 1076.64 L85.9499 1076.64 Q87.2867 1079.79 87.987 1083.1 Q88.6872 1086.41 88.6872 1089.81 Q88.6872 1098.34 83.7219 1103.34 Q78.7567 1108.31 70.2903 1108.31 Q61.5374 1108.31 56.4131 1103.59 Q51.2568 1098.85 51.2568 1090.83 Q51.2568 1083.64 55.9038 1079.47 Q60.5189 1075.27 68.4761 1075.27 M66.7573 1081.12 Q61.9512 1081.19 59.0866 1083.83 Q56.2221 1086.44 56.2221 1090.77 Q56.2221 1095.67 58.9912 1098.63 Q61.7602 1101.56 66.7892 1102 L66.7573 1081.12 Z" fill="#000000" fill-rule="evenodd" fill-opacity="1" /><path clip-path="url(#clip900)" d="M82.3533 1038.57 L82.3533 1016.13 L87.7642 1016.13 L87.7642 1046.3 L82.3533 1046.3 Q78.5657 1042.64 72.2 1036.34 Q65.8025 1030.01 63.9564 1028.38 Q60.4871 1025.3 58.1 1024.09 Q55.681 1022.85 53.3575 1022.85 Q49.5699 1022.85 47.1828 1025.52 Q44.7956 1028.16 44.7956 1032.43 Q44.7956 1035.45 45.846 1038.82 Q46.8963 1042.17 49.0288 1045.99 L42.5358 1045.99 Q40.9762 1042.1 40.1805 1038.73 Q39.3848 1035.35 39.3848 1032.55 Q39.3848 1025.17 43.0769 1020.78 Q46.769 1016.38 52.9437 1016.38 Q55.872 1016.38 58.5137 1017.5 Q61.1237 1018.58 64.6885 1021.48 Q65.6115 1022.27 70.0357 1026.54 Q74.428 1030.8 82.3533 1038.57 Z" fill="#000000" fill-rule="evenodd" fill-opacity="1" /><path clip-path="url(#clip900)" d="M779.829 9.54393 L787.323 9.54393 L787.323 46.7717 L809.562 27.2059 L819.082 27.2059 L795.02 48.4326 L820.095 72.576 L810.373 72.576 L787.323 50.4176 L787.323 72.576 L779.829 72.576 L779.829 9.54393 Z" fill="#000000" fill-rule="evenodd" fill-opacity="1" /><path clip-path="url(#clip900)" d="M824.389 46.5287 L846.223 46.5287 L846.223 53.1722 L824.389 53.1722 L824.389 46.5287 Z" fill="#000000" fill-rule="evenodd" fill-opacity="1" /><path clip-path="url(#clip900)" d="M893.416 35.9153 Q896.211 30.8922 900.1 28.5022 Q903.989 26.1121 909.255 26.1121 Q916.344 26.1121 920.193 31.0947 Q924.041 36.0368 924.041 45.1919 L924.041 72.576 L916.547 72.576 L916.547 45.4349 Q916.547 38.913 914.238 35.7533 Q911.929 32.5936 907.189 32.5936 Q901.396 32.5936 898.034 36.4419 Q894.672 40.2903 894.672 46.9338 L894.672 72.576 L887.178 72.576 L887.178 45.4349 Q887.178 38.8725 884.869 35.7533 Q882.56 32.5936 877.739 32.5936 Q872.027 32.5936 868.665 36.4824 Q865.303 40.3308 865.303 46.9338 L865.303 72.576 L857.809 72.576 L857.809 27.2059 L865.303 27.2059 L865.303 34.2544 Q867.855 30.082 871.42 28.0971 Q874.984 26.1121 879.886 26.1121 Q884.828 26.1121 888.271 28.6237 Q891.755 31.1352 893.416 35.9153 Z" fill="#000000" fill-rule="evenodd" fill-opacity="1" /><path clip-path="url(#clip900)" d="M977.715 48.0275 L977.715 51.6733 L943.445 51.6733 Q943.931 59.3701 948.063 63.421 Q952.235 67.4314 959.648 67.4314 Q963.942 67.4314 967.953 66.3781 Q972.004 65.3249 975.973 63.2184 L975.973 70.267 Q971.963 71.9684 967.75 72.8596 Q963.537 73.7508 959.203 73.7508 Q948.346 73.7508 941.986 67.4314 Q935.667 61.1119 935.667 50.3365 Q935.667 39.1965 941.662 32.6746 Q947.698 26.1121 957.906 26.1121 Q967.061 26.1121 972.368 32.0264 Q977.715 37.9003 977.715 48.0275 M970.262 45.84 Q970.181 39.7232 966.818 36.0774 Q963.497 32.4315 957.987 32.4315 Q951.749 32.4315 947.982 35.9558 Q944.255 39.4801 943.688 45.8805 L970.262 45.84 Z" fill="#000000" fill-rule="evenodd" fill-opacity="1" /><path clip-path="url(#clip900)" d="M1010.57 49.7694 Q1001.53 49.7694 998.051 51.8354 Q994.567 53.9013 994.567 58.8839 Q994.567 62.8538 997.16 65.2034 Q999.793 67.5124 1004.29 67.5124 Q1010.49 67.5124 1014.21 63.1374 Q1017.98 58.7219 1017.98 51.4303 L1017.98 49.7694 L1010.57 49.7694 M1025.44 46.6907 L1025.44 72.576 L1017.98 72.576 L1017.98 65.6895 Q1015.43 69.8214 1011.62 71.8063 Q1007.81 73.7508 1002.3 73.7508 Q995.337 73.7508 991.205 69.8619 Q987.113 65.9325 987.113 59.3701 Q987.113 51.7138 992.218 47.825 Q997.362 43.9361 1007.53 43.9361 L1017.98 43.9361 L1017.98 43.2069 Q1017.98 38.0623 1014.58 35.2672 Q1011.22 32.4315 1005.1 32.4315 Q1001.21 32.4315 997.524 33.3632 Q993.838 34.295 990.435 36.1584 L990.435 29.2718 Q994.527 27.692 998.375 26.9223 Q1002.22 26.1121 1005.87 26.1121 Q1015.71 26.1121 1020.57 31.2163 Q1025.44 36.3204 1025.44 46.6907 Z" fill="#000000" fill-rule="evenodd" fill-opacity="1" /><path clip-path="url(#clip900)" d="M1078.5 45.1919 L1078.5 72.576 L1071.05 72.576 L1071.05 45.4349 Q1071.05 38.994 1068.54 35.7938 Q1066.03 32.5936 1061 32.5936 Q1054.97 32.5936 1051.48 36.4419 Q1048 40.2903 1048 46.9338 L1048 72.576 L1040.5 72.576 L1040.5 27.2059 L1048 27.2059 L1048 34.2544 Q1050.67 30.163 1054.28 28.1376 Q1057.92 26.1121 1062.66 26.1121 Q1070.48 26.1121 1074.49 30.9732 Q1078.5 35.7938 1078.5 45.1919 Z" fill="#000000" fill-rule="evenodd" fill-opacity="1" /><path clip-path="url(#clip900)" d="M1122.29 28.5427 L1122.29 35.5912 Q1119.13 33.9709 1115.73 33.1607 Q1112.33 32.3505 1108.68 32.3505 Q1103.13 32.3505 1100.34 34.0519 Q1097.58 35.7533 1097.58 39.156 Q1097.58 41.7486 1099.57 43.2475 Q1101.55 44.7058 1107.55 46.0426 L1110.1 46.6097 Q1118.04 48.3111 1121.36 51.4303 Q1124.72 54.509 1124.72 60.0587 Q1124.72 66.3781 1119.7 70.0644 Q1114.72 73.7508 1105.97 73.7508 Q1102.32 73.7508 1098.35 73.0216 Q1094.42 72.3329 1090.05 70.9151 L1090.05 63.2184 Q1094.18 65.3654 1098.19 66.4591 Q1102.2 67.5124 1106.13 67.5124 Q1111.4 67.5124 1114.23 65.73 Q1117.07 63.9071 1117.07 60.6258 Q1117.07 57.5877 1115 55.9673 Q1112.98 54.3469 1106.05 52.8481 L1103.46 52.2405 Q1096.53 50.7821 1093.45 47.7845 Q1090.37 44.7463 1090.37 39.4801 Q1090.37 33.0797 1094.91 29.5959 Q1099.45 26.1121 1107.79 26.1121 Q1111.92 26.1121 1115.57 26.7198 Q1119.21 27.3274 1122.29 28.5427 Z" fill="#000000" fill-rule="evenodd" fill-opacity="1" /><path clip-path="url(#clip900)" d="M1208.58 16.7545 L1208.58 25.383 Q1204.44 21.5346 1199.75 19.6307 Q1195.09 17.7268 1189.82 17.7268 Q1179.45 17.7268 1173.94 24.0867 Q1168.43 30.4061 1168.43 42.3968 Q1168.43 54.3469 1173.94 60.7069 Q1179.45 67.0263 1189.82 67.0263 Q1195.09 67.0263 1199.75 65.1223 Q1204.44 63.2184 1208.58 59.3701 L1208.58 67.9175 Q1204.28 70.8341 1199.46 72.2924 Q1194.68 73.7508 1189.33 73.7508 Q1175.6 73.7508 1167.7 65.3654 Q1159.8 56.9395 1159.8 42.3968 Q1159.8 27.8135 1167.7 19.4281 Q1175.6 11.0023 1189.33 11.0023 Q1194.76 11.0023 1199.54 12.4606 Q1204.36 13.8784 1208.58 16.7545 Z" fill="#000000" fill-rule="evenodd" fill-opacity="1" /><path clip-path="url(#clip900)" d="M1220.89 9.54393 L1228.34 9.54393 L1228.34 72.576 L1220.89 72.576 L1220.89 9.54393 Z" fill="#000000" fill-rule="evenodd" fill-opacity="1" /><path clip-path="url(#clip900)" d="M1243.17 54.671 L1243.17 27.2059 L1250.62 27.2059 L1250.62 54.3874 Q1250.62 60.8284 1253.14 64.0691 Q1255.65 67.2693 1260.67 67.2693 Q1266.71 67.2693 1270.19 63.421 Q1273.71 59.5726 1273.71 52.9291 L1273.71 27.2059 L1281.17 27.2059 L1281.17 72.576 L1273.71 72.576 L1273.71 65.6084 Q1271 69.7404 1267.4 71.7658 Q1263.83 73.7508 1259.09 73.7508 Q1251.27 73.7508 1247.22 68.8897 Q1243.17 64.0286 1243.17 54.671 M1261.93 26.1121 L1261.93 26.1121 Z" fill="#000000" fill-rule="evenodd" fill-opacity="1" /><path clip-path="url(#clip900)" d="M1325.44 28.5427 L1325.44 35.5912 Q1322.29 33.9709 1318.88 33.1607 Q1315.48 32.3505 1311.83 32.3505 Q1306.28 32.3505 1303.49 34.0519 Q1300.73 35.7533 1300.73 39.156 Q1300.73 41.7486 1302.72 43.2475 Q1304.7 44.7058 1310.7 46.0426 L1313.25 46.6097 Q1321.19 48.3111 1324.51 51.4303 Q1327.88 54.509 1327.88 60.0587 Q1327.88 66.3781 1322.85 70.0644 Q1317.87 73.7508 1309.12 73.7508 Q1305.47 73.7508 1301.5 73.0216 Q1297.57 72.3329 1293.2 70.9151 L1293.2 63.2184 Q1297.33 65.3654 1301.34 66.4591 Q1305.35 67.5124 1309.28 67.5124 Q1314.55 67.5124 1317.38 65.73 Q1320.22 63.9071 1320.22 60.6258 Q1320.22 57.5877 1318.15 55.9673 Q1316.13 54.3469 1309.2 52.8481 L1306.61 52.2405 Q1299.68 50.7821 1296.6 47.7845 Q1293.52 44.7463 1293.52 39.4801 Q1293.52 33.0797 1298.06 29.5959 Q1302.6 26.1121 1310.94 26.1121 Q1315.07 26.1121 1318.72 26.7198 Q1322.37 27.3274 1325.44 28.5427 Z" fill="#000000" fill-rule="evenodd" fill-opacity="1" /><path clip-path="url(#clip900)" d="M1347.12 14.324 L1347.12 27.2059 L1362.47 27.2059 L1362.47 32.9987 L1347.12 32.9987 L1347.12 57.6282 Q1347.12 63.1779 1348.62 64.7578 Q1350.16 66.3376 1354.81 66.3376 L1362.47 66.3376 L1362.47 72.576 L1354.81 72.576 Q1346.19 72.576 1342.9 69.3758 Q1339.62 66.1351 1339.62 57.6282 L1339.62 32.9987 L1334.15 32.9987 L1334.15 27.2059 L1339.62 27.2059 L1339.62 14.324 L1347.12 14.324 Z" fill="#000000" fill-rule="evenodd" fill-opacity="1" /><path clip-path="url(#clip900)" d="M1411.08 48.0275 L1411.08 51.6733 L1376.81 51.6733 Q1377.3 59.3701 1381.43 63.421 Q1385.6 67.4314 1393.01 67.4314 Q1397.31 67.4314 1401.32 66.3781 Q1405.37 65.3249 1409.34 63.2184 L1409.34 70.267 Q1405.33 71.9684 1401.12 72.8596 Q1396.9 73.7508 1392.57 73.7508 Q1381.71 73.7508 1375.35 67.4314 Q1369.03 61.1119 1369.03 50.3365 Q1369.03 39.1965 1375.03 32.6746 Q1381.06 26.1121 1391.27 26.1121 Q1400.43 26.1121 1405.73 32.0264 Q1411.08 37.9003 1411.08 48.0275 M1403.63 45.84 Q1403.55 39.7232 1400.18 36.0774 Q1396.86 32.4315 1391.35 32.4315 Q1385.11 32.4315 1381.35 35.9558 Q1377.62 39.4801 1377.05 45.8805 L1403.63 45.84 Z" fill="#000000" fill-rule="evenodd" fill-opacity="1" /><path clip-path="url(#clip900)" d="M1449.61 34.1734 Q1448.35 33.4443 1446.85 33.1202 Q1445.39 32.7556 1443.61 32.7556 Q1437.29 32.7556 1433.89 36.8875 Q1430.53 40.9789 1430.53 48.6757 L1430.53 72.576 L1423.03 72.576 L1423.03 27.2059 L1430.53 27.2059 L1430.53 34.2544 Q1432.87 30.1225 1436.64 28.1376 Q1440.41 26.1121 1445.8 26.1121 Q1446.57 26.1121 1447.5 26.2337 Q1448.43 26.3147 1449.56 26.5172 L1449.61 34.1734 Z" fill="#000000" fill-rule="evenodd" fill-opacity="1" /><path clip-path="url(#clip900)" d="M1457.42 27.2059 L1464.88 27.2059 L1464.88 72.576 L1457.42 72.576 L1457.42 27.2059 M1457.42 9.54393 L1464.88 9.54393 L1464.88 18.9825 L1457.42 18.9825 L1457.42 9.54393 Z" fill="#000000" fill-rule="evenodd" fill-opacity="1" /><path clip-path="url(#clip900)" d="M1518.19 45.1919 L1518.19 72.576 L1510.73 72.576 L1510.73 45.4349 Q1510.73 38.994 1508.22 35.7938 Q1505.71 32.5936 1500.69 32.5936 Q1494.65 32.5936 1491.17 36.4419 Q1487.68 40.2903 1487.68 46.9338 L1487.68 72.576 L1480.19 72.576 L1480.19 27.2059 L1487.68 27.2059 L1487.68 34.2544 Q1490.36 30.163 1493.96 28.1376 Q1497.61 26.1121 1502.35 26.1121 Q1510.17 26.1121 1514.18 30.9732 Q1518.19 35.7938 1518.19 45.1919 Z" fill="#000000" fill-rule="evenodd" fill-opacity="1" /><path clip-path="url(#clip900)" d="M1562.91 49.3643 Q1562.91 41.2625 1559.55 36.8065 Q1556.23 32.3505 1550.19 32.3505 Q1544.19 32.3505 1540.83 36.8065 Q1537.51 41.2625 1537.51 49.3643 Q1537.51 57.4256 1540.83 61.8816 Q1544.19 66.3376 1550.19 66.3376 Q1556.23 66.3376 1559.55 61.8816 Q1562.91 57.4256 1562.91 49.3643 M1570.36 66.9452 Q1570.36 78.5308 1565.22 84.1616 Q1560.07 89.8329 1549.46 89.8329 Q1545.53 89.8329 1542.05 89.2252 Q1538.56 88.6581 1535.28 87.4428 L1535.28 80.1917 Q1538.56 81.9741 1541.76 82.8248 Q1544.96 83.6755 1548.29 83.6755 Q1555.62 83.6755 1559.26 79.8271 Q1562.91 76.0193 1562.91 68.282 L1562.91 64.5957 Q1560.6 68.6061 1556.99 70.5911 Q1553.39 72.576 1548.37 72.576 Q1540.02 72.576 1534.92 66.2161 Q1529.81 59.8562 1529.81 49.3643 Q1529.81 38.832 1534.92 32.472 Q1540.02 26.1121 1548.37 26.1121 Q1553.39 26.1121 1556.99 28.0971 Q1560.6 30.082 1562.91 34.0924 L1562.91 27.2059 L1570.36 27.2059 L1570.36 66.9452 Z" fill="#000000" fill-rule="evenodd" fill-opacity="1" /><path clip-path="url(#clip900)" d="M1620.59 18.8205 L1620.59 65.8515 L1630.48 65.8515 Q1643 65.8515 1648.79 60.1802 Q1654.62 54.509 1654.62 42.2752 Q1654.62 30.1225 1648.79 24.4918 Q1643 18.8205 1630.48 18.8205 L1620.59 18.8205 M1612.41 12.096 L1629.22 12.096 Q1646.8 12.096 1655.03 19.4281 Q1663.25 26.7198 1663.25 42.2752 Q1663.25 57.9117 1654.99 65.2439 Q1646.72 72.576 1629.22 72.576 L1612.41 72.576 L1612.41 12.096 Z" fill="#000000" fill-rule="evenodd" fill-opacity="1" /><path clip-path="url(#clip900)" d="M1714.78 48.0275 L1714.78 51.6733 L1680.51 51.6733 Q1680.99 59.3701 1685.12 63.421 Q1689.3 67.4314 1696.71 67.4314 Q1701 67.4314 1705.01 66.3781 Q1709.07 65.3249 1713.04 63.2184 L1713.04 70.267 Q1709.03 71.9684 1704.81 72.8596 Q1700.6 73.7508 1696.26 73.7508 Q1685.41 73.7508 1679.05 67.4314 Q1672.73 61.1119 1672.73 50.3365 Q1672.73 39.1965 1678.72 32.6746 Q1684.76 26.1121 1694.97 26.1121 Q1704.12 26.1121 1709.43 32.0264 Q1714.78 37.9003 1714.78 48.0275 M1707.32 45.84 Q1707.24 39.7232 1703.88 36.0774 Q1700.56 32.4315 1695.05 32.4315 Q1688.81 32.4315 1685.04 35.9558 Q1681.32 39.4801 1680.75 45.8805 L1707.32 45.84 Z" fill="#000000" fill-rule="evenodd" fill-opacity="1" /><path clip-path="url(#clip900)" d="M1762.34 35.9153 Q1765.13 30.8922 1769.02 28.5022 Q1772.91 26.1121 1778.17 26.1121 Q1785.26 26.1121 1789.11 31.0947 Q1792.96 36.0368 1792.96 45.1919 L1792.96 72.576 L1785.47 72.576 L1785.47 45.4349 Q1785.47 38.913 1783.16 35.7533 Q1780.85 32.5936 1776.11 32.5936 Q1770.32 32.5936 1766.95 36.4419 Q1763.59 40.2903 1763.59 46.9338 L1763.59 72.576 L1756.1 72.576 L1756.1 45.4349 Q1756.1 38.8725 1753.79 35.7533 Q1751.48 32.5936 1746.66 32.5936 Q1740.95 32.5936 1737.58 36.4824 Q1734.22 40.3308 1734.22 46.9338 L1734.22 72.576 L1726.73 72.576 L1726.73 27.2059 L1734.22 27.2059 L1734.22 34.2544 Q1736.77 30.082 1740.34 28.0971 Q1743.9 26.1121 1748.8 26.1121 Q1753.75 26.1121 1757.19 28.6237 Q1760.67 31.1352 1762.34 35.9153 Z" fill="#000000" fill-rule="evenodd" fill-opacity="1" /><path clip-path="url(#clip900)" d="M1825.41 32.4315 Q1819.41 32.4315 1815.93 37.1306 Q1812.44 41.7891 1812.44 49.9314 Q1812.44 58.0738 1815.89 62.7728 Q1819.37 67.4314 1825.41 67.4314 Q1831.36 67.4314 1834.85 62.7323 Q1838.33 58.0333 1838.33 49.9314 Q1838.33 41.8701 1834.85 37.1711 Q1831.36 32.4315 1825.41 32.4315 M1825.41 26.1121 Q1835.13 26.1121 1840.68 32.4315 Q1846.23 38.7509 1846.23 49.9314 Q1846.23 61.0714 1840.68 67.4314 Q1835.13 73.7508 1825.41 73.7508 Q1815.64 73.7508 1810.1 67.4314 Q1804.59 61.0714 1804.59 49.9314 Q1804.59 38.7509 1810.1 32.4315 Q1815.64 26.1121 1825.41 26.1121 Z" fill="#000000" fill-rule="evenodd" fill-opacity="1" /><circle clip-path="url(#clip902)" cx="2028.38" cy="1732.85" r="36" fill="#009af9" fill-rule="evenodd" fill-opacity="0.7" stroke="#000000" stroke-opacity="0.7" stroke-width="4.8"/>
<circle clip-path="url(#clip902)" cx="1997.94" cy="1768.2" r="36" fill="#009af9" fill-rule="evenodd" fill-opacity="0.7" stroke="#000000" stroke-opacity="0.7" stroke-width="4.8"/>
<circle clip-path="url(#clip902)" cx="2097.96" cy="1591.07" r="36" fill="#009af9" fill-rule="evenodd" fill-opacity="0.7" stroke="#000000" stroke-opacity="0.7" stroke-width="4.8"/>
<circle clip-path="url(#clip902)" cx="1919.87" cy="1788.45" r="36" fill="#009af9" fill-rule="evenodd" fill-opacity="0.7" stroke="#000000" stroke-opacity="0.7" stroke-width="4.8"/>
<circle clip-path="url(#clip902)" cx="1449.65" cy="2004.27" r="36" fill="#009af9" fill-rule="evenodd" fill-opacity="0.7" stroke="#000000" stroke-opacity="0.7" stroke-width="4.8"/>
<circle clip-path="url(#clip902)" cx="2269.66" cy="1321.56" r="36" fill="#009af9" fill-rule="evenodd" fill-opacity="0.7" stroke="#000000" stroke-opacity="0.7" stroke-width="4.8"/>
<circle clip-path="url(#clip902)" cx="2260.33" cy="1667.22" r="36" fill="#009af9" fill-rule="evenodd" fill-opacity="0.7" stroke="#000000" stroke-opacity="0.7" stroke-width="4.8"/>
<circle clip-path="url(#clip902)" cx="2199.45" cy="1573.09" r="36" fill="#009af9" fill-rule="evenodd" fill-opacity="0.7" stroke="#000000" stroke-opacity="0.7" stroke-width="4.8"/>
<circle clip-path="url(#clip902)" cx="2293.9" cy="1736.81" r="36" fill="#009af9" fill-rule="evenodd" fill-opacity="0.7" stroke="#000000" stroke-opacity="0.7" stroke-width="4.8"/>
<circle clip-path="url(#clip902)" cx="1996.96" cy="2097.64" r="36" fill="#009af9" fill-rule="evenodd" fill-opacity="0.7" stroke="#000000" stroke-opacity="0.7" stroke-width="4.8"/>
<circle clip-path="url(#clip902)" cx="1968.56" cy="1674.79" r="36" fill="#009af9" fill-rule="evenodd" fill-opacity="0.7" stroke="#000000" stroke-opacity="0.7" stroke-width="4.8"/>
<circle clip-path="url(#clip902)" cx="1927.75" cy="1498.4" r="36" fill="#009af9" fill-rule="evenodd" fill-opacity="0.7" stroke="#000000" stroke-opacity="0.7" stroke-width="4.8"/>
<circle clip-path="url(#clip902)" cx="1499.35" cy="1886.46" r="36" fill="#009af9" fill-rule="evenodd" fill-opacity="0.7" stroke="#000000" stroke-opacity="0.7" stroke-width="4.8"/>
<circle clip-path="url(#clip902)" cx="2167.01" cy="1637.92" r="36" fill="#009af9" fill-rule="evenodd" fill-opacity="0.7" stroke="#000000" stroke-opacity="0.7" stroke-width="4.8"/>
<circle clip-path="url(#clip902)" cx="2141.66" cy="1427.96" r="36" fill="#009af9" fill-rule="evenodd" fill-opacity="0.7" stroke="#000000" stroke-opacity="0.7" stroke-width="4.8"/>
<circle clip-path="url(#clip902)" cx="1677.83" cy="2041.3" r="36" fill="#009af9" fill-rule="evenodd" fill-opacity="0.7" stroke="#000000" stroke-opacity="0.7" stroke-width="4.8"/>
<circle clip-path="url(#clip902)" cx="1641.58" cy="2057.2" r="36" fill="#009af9" fill-rule="evenodd" fill-opacity="0.7" stroke="#000000" stroke-opacity="0.7" stroke-width="4.8"/>
<circle clip-path="url(#clip902)" cx="1640.66" cy="2071.05" r="36" fill="#009af9" fill-rule="evenodd" fill-opacity="0.7" stroke="#000000" stroke-opacity="0.7" stroke-width="4.8"/>
<circle clip-path="url(#clip902)" cx="1870.02" cy="2116.96" r="36" fill="#009af9" fill-rule="evenodd" fill-opacity="0.7" stroke="#000000" stroke-opacity="0.7" stroke-width="4.8"/>
<circle clip-path="url(#clip902)" cx="1948.96" cy="1994.01" r="36" fill="#009af9" fill-rule="evenodd" fill-opacity="0.7" stroke="#000000" stroke-opacity="0.7" stroke-width="4.8"/>
<circle clip-path="url(#clip902)" cx="1867.38" cy="1947.03" r="36" fill="#009af9" fill-rule="evenodd" fill-opacity="0.7" stroke="#000000" stroke-opacity="0.7" stroke-width="4.8"/>
<circle clip-path="url(#clip902)" cx="1806.84" cy="1521.86" r="36" fill="#009af9" fill-rule="evenodd" fill-opacity="0.7" stroke="#000000" stroke-opacity="0.7" stroke-width="4.8"/>
<circle clip-path="url(#clip902)" cx="1922.86" cy="1578.15" r="36" fill="#009af9" fill-rule="evenodd" fill-opacity="0.7" stroke="#000000" stroke-opacity="0.7" stroke-width="4.8"/>
<circle clip-path="url(#clip902)" cx="1703.1" cy="608.115" r="36" fill="#e26f46" fill-rule="evenodd" fill-opacity="0.7" stroke="#000000" stroke-opacity="0.7" stroke-width="4.8"/>
<circle clip-path="url(#clip902)" cx="1853.29" cy="402.009" r="36" fill="#e26f46" fill-rule="evenodd" fill-opacity="0.7" stroke="#000000" stroke-opacity="0.7" stroke-width="4.8"/>
<circle clip-path="url(#clip902)" cx="1504.95" cy="622.976" r="36" fill="#e26f46" fill-rule="evenodd" fill-opacity="0.7" stroke="#000000" stroke-opacity="0.7" stroke-width="4.8"/>
<circle clip-path="url(#clip902)" cx="2282.36" cy="934.924" r="36" fill="#e26f46" fill-rule="evenodd" fill-opacity="0.7" stroke="#000000" stroke-opacity="0.7" stroke-width="4.8"/>
<circle clip-path="url(#clip902)" cx="1805.5" cy="558.05" r="36" fill="#e26f46" fill-rule="evenodd" fill-opacity="0.7" stroke="#000000" stroke-opacity="0.7" stroke-width="4.8"/>
<circle clip-path="url(#clip902)" cx="1928.33" cy="282.32" r="36" fill="#e26f46" fill-rule="evenodd" fill-opacity="0.7" stroke="#000000" stroke-opacity="0.7" stroke-width="4.8"/>
<circle clip-path="url(#clip902)" cx="1461.75" cy="847.227" r="36" fill="#e26f46" fill-rule="evenodd" fill-opacity="0.7" stroke="#000000" stroke-opacity="0.7" stroke-width="4.8"/>
<circle clip-path="url(#clip902)" cx="1683.54" cy="606.741" r="36" fill="#e26f46" fill-rule="evenodd" fill-opacity="0.7" stroke="#000000" stroke-opacity="0.7" stroke-width="4.8"/>
<circle clip-path="url(#clip902)" cx="1416.56" cy="559.98" r="36" fill="#e26f46" fill-rule="evenodd" fill-opacity="0.7" stroke="#000000" stroke-opacity="0.7" stroke-width="4.8"/>
<circle clip-path="url(#clip902)" cx="1948.33" cy="613.771" r="36" fill="#e26f46" fill-rule="evenodd" fill-opacity="0.7" stroke="#000000" stroke-opacity="0.7" stroke-width="4.8"/>
<circle clip-path="url(#clip902)" cx="1751.95" cy="676.105" r="36" fill="#e26f46" fill-rule="evenodd" fill-opacity="0.7" stroke="#000000" stroke-opacity="0.7" stroke-width="4.8"/>
<circle clip-path="url(#clip902)" cx="1532.14" cy="680.968" r="36" fill="#e26f46" fill-rule="evenodd" fill-opacity="0.7" stroke="#000000" stroke-opacity="0.7" stroke-width="4.8"/>
<circle clip-path="url(#clip902)" cx="1360.57" cy="816.577" r="36" fill="#e26f46" fill-rule="evenodd" fill-opacity="0.7" stroke="#000000" stroke-opacity="0.7" stroke-width="4.8"/>
<circle clip-path="url(#clip902)" cx="1569.59" cy="648.59" r="36" fill="#e26f46" fill-rule="evenodd" fill-opacity="0.7" stroke="#000000" stroke-opacity="0.7" stroke-width="4.8"/>
<circle clip-path="url(#clip902)" cx="2245.83" cy="821.948" r="36" fill="#e26f46" fill-rule="evenodd" fill-opacity="0.7" stroke="#000000" stroke-opacity="0.7" stroke-width="4.8"/>
<circle clip-path="url(#clip902)" cx="1431.98" cy="700.257" r="36" fill="#e26f46" fill-rule="evenodd" fill-opacity="0.7" stroke="#000000" stroke-opacity="0.7" stroke-width="4.8"/>
<circle clip-path="url(#clip902)" cx="1962.88" cy="1057.68" r="36" fill="#e26f46" fill-rule="evenodd" fill-opacity="0.7" stroke="#000000" stroke-opacity="0.7" stroke-width="4.8"/>
<circle clip-path="url(#clip902)" cx="1642.69" cy="350.931" r="36" fill="#e26f46" fill-rule="evenodd" fill-opacity="0.7" stroke="#000000" stroke-opacity="0.7" stroke-width="4.8"/>
<circle clip-path="url(#clip902)" cx="1874.4" cy="587.87" r="36" fill="#e26f46" fill-rule="evenodd" fill-opacity="0.7" stroke="#000000" stroke-opacity="0.7" stroke-width="4.8"/>
<circle clip-path="url(#clip902)" cx="1110.37" cy="1791.55" r="36" fill="#3da44d" fill-rule="evenodd" fill-opacity="0.7" stroke="#000000" stroke-opacity="0.7" stroke-width="4.8"/>
<circle clip-path="url(#clip902)" cx="377.516" cy="1911.28" r="36" fill="#3da44d" fill-rule="evenodd" fill-opacity="0.7" stroke="#000000" stroke-opacity="0.7" stroke-width="4.8"/>
<circle clip-path="url(#clip902)" cx="502.893" cy="1257.08" r="36" fill="#3da44d" fill-rule="evenodd" fill-opacity="0.7" stroke="#000000" stroke-opacity="0.7" stroke-width="4.8"/>
<circle clip-path="url(#clip902)" cx="723.772" cy="1940.17" r="36" fill="#3da44d" fill-rule="evenodd" fill-opacity="0.7" stroke="#000000" stroke-opacity="0.7" stroke-width="4.8"/>
<circle clip-path="url(#clip902)" cx="527.013" cy="1277.31" r="36" fill="#3da44d" fill-rule="evenodd" fill-opacity="0.7" stroke="#000000" stroke-opacity="0.7" stroke-width="4.8"/>
<circle clip-path="url(#clip902)" cx="967.283" cy="1425.17" r="36" fill="#3da44d" fill-rule="evenodd" fill-opacity="0.7" stroke="#000000" stroke-opacity="0.7" stroke-width="4.8"/>
<circle clip-path="url(#clip902)" cx="884.372" cy="1804.57" r="36" fill="#3da44d" fill-rule="evenodd" fill-opacity="0.7" stroke="#000000" stroke-opacity="0.7" stroke-width="4.8"/>
<circle clip-path="url(#clip902)" cx="748.554" cy="1213.08" r="36" fill="#3da44d" fill-rule="evenodd" fill-opacity="0.7" stroke="#000000" stroke-opacity="0.7" stroke-width="4.8"/>
<circle clip-path="url(#clip902)" cx="489.285" cy="1220.09" r="36" fill="#3da44d" fill-rule="evenodd" fill-opacity="0.7" stroke="#000000" stroke-opacity="0.7" stroke-width="4.8"/>
<circle clip-path="url(#clip902)" cx="1149.08" cy="2067.53" r="36" fill="#3da44d" fill-rule="evenodd" fill-opacity="0.7" stroke="#000000" stroke-opacity="0.7" stroke-width="4.8"/>
<circle clip-path="url(#clip902)" cx="332.155" cy="1940.07" r="36" fill="#3da44d" fill-rule="evenodd" fill-opacity="0.7" stroke="#000000" stroke-opacity="0.7" stroke-width="4.8"/>
<circle clip-path="url(#clip902)" cx="975.722" cy="1807.16" r="36" fill="#3da44d" fill-rule="evenodd" fill-opacity="0.7" stroke="#000000" stroke-opacity="0.7" stroke-width="4.8"/>
<circle clip-path="url(#clip902)" cx="1108.87" cy="1993.92" r="36" fill="#3da44d" fill-rule="evenodd" fill-opacity="0.7" stroke="#000000" stroke-opacity="0.7" stroke-width="4.8"/>
<circle clip-path="url(#clip902)" cx="977.429" cy="1953.19" r="36" fill="#3da44d" fill-rule="evenodd" fill-opacity="0.7" stroke="#000000" stroke-opacity="0.7" stroke-width="4.8"/>
<circle clip-path="url(#clip902)" cx="646.354" cy="1301.13" r="36" fill="#3da44d" fill-rule="evenodd" fill-opacity="0.7" stroke="#000000" stroke-opacity="0.7" stroke-width="4.8"/>
<circle clip-path="url(#clip902)" cx="844.601" cy="1415.97" r="36" fill="#3da44d" fill-rule="evenodd" fill-opacity="0.7" stroke="#000000" stroke-opacity="0.7" stroke-width="4.8"/>
<circle clip-path="url(#clip902)" cx="510.911" cy="1814.23" r="36" fill="#3da44d" fill-rule="evenodd" fill-opacity="0.7" stroke="#000000" stroke-opacity="0.7" stroke-width="4.8"/>
<circle clip-path="url(#clip902)" cx="846.298" cy="1840.36" r="36" fill="#3da44d" fill-rule="evenodd" fill-opacity="0.7" stroke="#000000" stroke-opacity="0.7" stroke-width="4.8"/>
<circle clip-path="url(#clip902)" cx="427.298" cy="522.848" r="36" fill="#c271d2" fill-rule="evenodd" fill-opacity="0.7" stroke="#000000" stroke-opacity="0.7" stroke-width="4.8"/>
<circle clip-path="url(#clip902)" cx="566.071" cy="1022.02" r="36" fill="#c271d2" fill-rule="evenodd" fill-opacity="0.7" stroke="#000000" stroke-opacity="0.7" stroke-width="4.8"/>
<circle clip-path="url(#clip902)" cx="604.082" cy="499.127" r="36" fill="#c271d2" fill-rule="evenodd" fill-opacity="0.7" stroke="#000000" stroke-opacity="0.7" stroke-width="4.8"/>
<circle clip-path="url(#clip902)" cx="1019.98" cy="879.383" r="36" fill="#c271d2" fill-rule="evenodd" fill-opacity="0.7" stroke="#000000" stroke-opacity="0.7" stroke-width="4.8"/>
<circle clip-path="url(#clip902)" cx="345.96" cy="1025.61" r="36" fill="#c271d2" fill-rule="evenodd" fill-opacity="0.7" stroke="#000000" stroke-opacity="0.7" stroke-width="4.8"/>
<circle clip-path="url(#clip902)" cx="980.258" cy="746.432" r="36" fill="#c271d2" fill-rule="evenodd" fill-opacity="0.7" stroke="#000000" stroke-opacity="0.7" stroke-width="4.8"/>
<circle clip-path="url(#clip902)" cx="576.215" cy="673.315" r="36" fill="#c271d2" fill-rule="evenodd" fill-opacity="0.7" stroke="#000000" stroke-opacity="0.7" stroke-width="4.8"/>
<circle clip-path="url(#clip902)" cx="562.274" cy="800.433" r="36" fill="#c271d2" fill-rule="evenodd" fill-opacity="0.7" stroke="#000000" stroke-opacity="0.7" stroke-width="4.8"/>
<circle clip-path="url(#clip902)" cx="907.595" cy="579.056" r="36" fill="#c271d2" fill-rule="evenodd" fill-opacity="0.7" stroke="#000000" stroke-opacity="0.7" stroke-width="4.8"/>
<circle clip-path="url(#clip902)" cx="556.124" cy="808.296" r="36" fill="#c271d2" fill-rule="evenodd" fill-opacity="0.7" stroke="#000000" stroke-opacity="0.7" stroke-width="4.8"/>
<circle clip-path="url(#clip902)" cx="1184.22" cy="837.896" r="36" fill="#c271d2" fill-rule="evenodd" fill-opacity="0.7" stroke="#000000" stroke-opacity="0.7" stroke-width="4.8"/>
<circle clip-path="url(#clip902)" cx="860.084" cy="509.589" r="36" fill="#c271d2" fill-rule="evenodd" fill-opacity="0.7" stroke="#000000" stroke-opacity="0.7" stroke-width="4.8"/>
<circle clip-path="url(#clip902)" cx="1012.32" cy="808.517" r="36" fill="#c271d2" fill-rule="evenodd" fill-opacity="0.7" stroke="#000000" stroke-opacity="0.7" stroke-width="4.8"/>
<circle clip-path="url(#clip902)" cx="560.039" cy="553.734" r="36" fill="#c271d2" fill-rule="evenodd" fill-opacity="0.7" stroke="#000000" stroke-opacity="0.7" stroke-width="4.8"/>
<circle clip-path="url(#clip902)" cx="725.358" cy="465.228" r="36" fill="#c271d2" fill-rule="evenodd" fill-opacity="0.7" stroke="#000000" stroke-opacity="0.7" stroke-width="4.8"/>
<circle clip-path="url(#clip902)" cx="1052.52" cy="247.08" r="36" fill="#c271d2" fill-rule="evenodd" fill-opacity="0.7" stroke="#000000" stroke-opacity="0.7" stroke-width="4.8"/>
<circle clip-path="url(#clip902)" cx="887.847" cy="216.46" r="36" fill="#c271d2" fill-rule="evenodd" fill-opacity="0.7" stroke="#000000" stroke-opacity="0.7" stroke-width="4.8"/>
<circle clip-path="url(#clip902)" cx="882.935" cy="907.903" r="36" fill="#c271d2" fill-rule="evenodd" fill-opacity="0.7" stroke="#000000" stroke-opacity="0.7" stroke-width="4.8"/>
<circle clip-path="url(#clip902)" cx="1208.74" cy="644.549" r="36" fill="#c271d2" fill-rule="evenodd" fill-opacity="0.7" stroke="#000000" stroke-opacity="0.7" stroke-width="4.8"/>
<circle clip-path="url(#clip902)" cx="496.459" cy="636.173" r="36" fill="#c271d2" fill-rule="evenodd" fill-opacity="0.7" stroke="#000000" stroke-opacity="0.7" stroke-width="4.8"/>
<circle clip-path="url(#clip902)" cx="717.351" cy="968.916" r="36" fill="#c271d2" fill-rule="evenodd" fill-opacity="0.7" stroke="#000000" stroke-opacity="0.7" stroke-width="4.8"/>
<circle clip-path="url(#clip902)" cx="779.217" cy="935.032" r="36" fill="#c271d2" fill-rule="evenodd" fill-opacity="0.7" stroke="#000000" stroke-opacity="0.7" stroke-width="4.8"/>
<circle clip-path="url(#clip902)" cx="407.193" cy="333.842" r="36" fill="#c271d2" fill-rule="evenodd" fill-opacity="0.7" stroke="#000000" stroke-opacity="0.7" stroke-width="4.8"/>
<circle clip-path="url(#clip902)" cx="656.373" cy="325.163" r="36" fill="#c271d2" fill-rule="evenodd" fill-opacity="0.7" stroke="#000000" stroke-opacity="0.7" stroke-width="4.8"/>
<circle clip-path="url(#clip902)" cx="929.17" cy="287.562" r="36" fill="#c271d2" fill-rule="evenodd" fill-opacity="0.7" stroke="#000000" stroke-opacity="0.7" stroke-width="4.8"/>
<circle clip-path="url(#clip902)" cx="1019.54" cy="210.894" r="36" fill="#c271d2" fill-rule="evenodd" fill-opacity="0.7" stroke="#000000" stroke-opacity="0.7" stroke-width="4.8"/>
<circle clip-path="url(#clip902)" cx="1389.06" cy="1322.31" r="36" fill="#ac8d18" fill-rule="evenodd" fill-opacity="0.7" stroke="#000000" stroke-opacity="0.7" stroke-width="4.8"/>
<circle clip-path="url(#clip902)" cx="1204.78" cy="1144.66" r="36" fill="#ac8d18" fill-rule="evenodd" fill-opacity="0.7" stroke="#000000" stroke-opacity="0.7" stroke-width="4.8"/>
<circle clip-path="url(#clip902)" cx="1290.8" cy="1262.54" r="36" fill="#ac8d18" fill-rule="evenodd" fill-opacity="0.7" stroke="#000000" stroke-opacity="0.7" stroke-width="4.8"/>
<circle clip-path="url(#clip902)" cx="1100.41" cy="1175.41" r="36" fill="#ac8d18" fill-rule="evenodd" fill-opacity="0.7" stroke="#000000" stroke-opacity="0.7" stroke-width="4.8"/>
<circle clip-path="url(#clip902)" cx="921.257" cy="1159.05" r="36" fill="#ac8d18" fill-rule="evenodd" fill-opacity="0.7" stroke="#000000" stroke-opacity="0.7" stroke-width="4.8"/>
<circle clip-path="url(#clip902)" cx="1434.84" cy="1508.13" r="36" fill="#ac8d18" fill-rule="evenodd" fill-opacity="0.7" stroke="#000000" stroke-opacity="0.7" stroke-width="4.8"/>
<circle clip-path="url(#clip902)" cx="1589.83" cy="1417.54" r="36" fill="#ac8d18" fill-rule="evenodd" fill-opacity="0.7" stroke="#000000" stroke-opacity="0.7" stroke-width="4.8"/>
<circle clip-path="url(#clip902)" cx="1627.79" cy="1523.7" r="36" fill="#ac8d18" fill-rule="evenodd" fill-opacity="0.7" stroke="#000000" stroke-opacity="0.7" stroke-width="4.8"/>
<circle clip-path="url(#clip902)" cx="1395.51" cy="1159.95" r="36" fill="#ac8d18" fill-rule="evenodd" fill-opacity="0.7" stroke="#000000" stroke-opacity="0.7" stroke-width="4.8"/>
<circle clip-path="url(#clip902)" cx="1597.67" cy="1011.71" r="36" fill="#ac8d18" fill-rule="evenodd" fill-opacity="0.7" stroke="#000000" stroke-opacity="0.7" stroke-width="4.8"/>
<circle clip-path="url(#clip902)" cx="1673.89" cy="1114.41" r="36" fill="#ac8d18" fill-rule="evenodd" fill-opacity="0.7" stroke="#000000" stroke-opacity="0.7" stroke-width="4.8"/>
<circle clip-path="url(#clip902)" cx="1177.64" cy="1224.77" r="36" fill="#ac8d18" fill-rule="evenodd" fill-opacity="0.7" stroke="#000000" stroke-opacity="0.7" stroke-width="4.8"/>
<circle clip-path="url(#clip902)" cx="1484.31" cy="1610.73" r="36" fill="#ac8d18" fill-rule="evenodd" fill-opacity="0.7" stroke="#000000" stroke-opacity="0.7" stroke-width="4.8"/>
<circle clip-path="url(#clip902)" cx="1161.38" cy="1098.7" r="36" fill="#ac8d18" fill-rule="evenodd" fill-opacity="0.7" stroke="#000000" stroke-opacity="0.7" stroke-width="4.8"/>
<circle clip-path="url(#clip902)" cx="1938.89" cy="1771.05" r="72" fill="#ffff00" fill-rule="evenodd" fill-opacity="0.7" stroke="#000000" stroke-opacity="0.7" stroke-width="4.8"/>
<circle clip-path="url(#clip902)" cx="1734.72" cy="651.423" r="72" fill="#ffff00" fill-rule="evenodd" fill-opacity="0.7" stroke="#000000" stroke-opacity="0.7" stroke-width="4.8"/>
<circle clip-path="url(#clip902)" cx="762.36" cy="1665.22" r="72" fill="#ffff00" fill-rule="evenodd" fill-opacity="0.7" stroke="#000000" stroke-opacity="0.7" stroke-width="4.8"/>
<circle clip-path="url(#clip902)" cx="766.354" cy="632.502" r="72" fill="#ffff00" fill-rule="evenodd" fill-opacity="0.7" stroke="#000000" stroke-opacity="0.7" stroke-width="4.8"/>
<circle clip-path="url(#clip902)" cx="1360.65" cy="1266.69" r="72" fill="#ffff00" fill-rule="evenodd" fill-opacity="0.7" stroke="#000000" stroke-opacity="0.7" stroke-width="4.8"/>
</svg>
