<?xml version="1.0" encoding="utf-8"?>
<svg xmlns="http://www.w3.org/2000/svg" xmlns:xlink="http://www.w3.org/1999/xlink" width="600" height="600" viewBox="0 0 2400 2400">
<defs>
  <clipPath id="clip040">
    <rect x="0" y="0" width="2400" height="2400"/>
  </clipPath>
</defs>
<path clip-path="url(#clip040)" d="
M0 2400 L2400 2400 L2400 0 L0 0  Z
  " fill="#ffffff" fill-rule="evenodd" fill-opacity="1"/>
<defs>
  <clipPath id="clip041">
    <rect x="480" y="240" width="1681" height="1681"/>
  </clipPath>
</defs>
<path clip-path="url(#clip040)" d="
M273.302 2174.14 L2352.76 2174.14 L2352.76 153.712 L273.302 153.712  Z
  " fill="#ffffff" fill-rule="evenodd" fill-opacity="1"/>
<defs>
  <clipPath id="clip042">
    <rect x="273" y="153" width="2080" height="2021"/>
  </clipPath>
</defs>
<polyline clip-path="url(#clip042)" style="stroke:#000000; stroke-linecap:butt; stroke-linejoin:round; stroke-width:2; stroke-opacity:0.1; fill:none" points="
  332.155,2174.14 332.155,153.712 
  "/>
<polyline clip-path="url(#clip042)" style="stroke:#000000; stroke-linecap:butt; stroke-linejoin:round; stroke-width:2; stroke-opacity:0.1; fill:none" points="
  822.592,2174.14 822.592,153.712 
  "/>
<polyline clip-path="url(#clip042)" style="stroke:#000000; stroke-linecap:butt; stroke-linejoin:round; stroke-width:2; stroke-opacity:0.1; fill:none" points="
  1313.03,2174.14 1313.03,153.712 
  "/>
<polyline clip-path="url(#clip042)" style="stroke:#000000; stroke-linecap:butt; stroke-linejoin:round; stroke-width:2; stroke-opacity:0.1; fill:none" points="
  1803.47,2174.14 1803.47,153.712 
  "/>
<polyline clip-path="url(#clip042)" style="stroke:#000000; stroke-linecap:butt; stroke-linejoin:round; stroke-width:2; stroke-opacity:0.1; fill:none" points="
  2293.9,2174.14 2293.9,153.712 
  "/>
<polyline clip-path="url(#clip040)" style="stroke:#000000; stroke-linecap:butt; stroke-linejoin:round; stroke-width:4; stroke-opacity:1; fill:none" points="
  273.302,2174.14 2352.76,2174.14 
  "/>
<polyline clip-path="url(#clip040)" style="stroke:#000000; stroke-linecap:butt; stroke-linejoin:round; stroke-width:4; stroke-opacity:1; fill:none" points="
  332.155,2174.14 332.155,2155.24 
  "/>
<polyline clip-path="url(#clip040)" style="stroke:#000000; stroke-linecap:butt; stroke-linejoin:round; stroke-width:4; stroke-opacity:1; fill:none" points="
  822.592,2174.14 822.592,2155.24 
  "/>
<polyline clip-path="url(#clip040)" style="stroke:#000000; stroke-linecap:butt; stroke-linejoin:round; stroke-width:4; stroke-opacity:1; fill:none" points="
  1313.03,2174.14 1313.03,2155.24 
  "/>
<polyline clip-path="url(#clip040)" style="stroke:#000000; stroke-linecap:butt; stroke-linejoin:round; stroke-width:4; stroke-opacity:1; fill:none" points="
  1803.47,2174.14 1803.47,2155.24 
  "/>
<polyline clip-path="url(#clip040)" style="stroke:#000000; stroke-linecap:butt; stroke-linejoin:round; stroke-width:4; stroke-opacity:1; fill:none" points="
  2293.9,2174.14 2293.9,2155.24 
  "/>
<path clip-path="url(#clip040)" d="M294.458 2205.06 Q290.847 2205.06 289.018 2208.62 Q287.213 2212.16 287.213 2219.29 Q287.213 2226.4 289.018 2229.97 Q290.847 2233.51 294.458 2233.51 Q298.092 2233.51 299.898 2229.97 Q301.726 2226.4 301.726 2219.29 Q301.726 2212.16 299.898 2208.62 Q298.092 2205.06 294.458 2205.06 M294.458 2201.35 Q300.268 2201.35 303.324 2205.96 Q306.402 2210.54 306.402 2219.29 Q306.402 2228.02 303.324 2232.63 Q300.268 2237.21 294.458 2237.21 Q288.648 2237.21 285.569 2232.63 Q282.514 2228.02 282.514 2219.29 Q282.514 2210.54 285.569 2205.96 Q288.648 2201.35 294.458 2201.35 Z" fill="#000000" fill-rule="evenodd" fill-opacity="1" /><path clip-path="url(#clip040)" d="M314.62 2230.66 L319.504 2230.66 L319.504 2236.54 L314.62 2236.54 L314.62 2230.66 Z" fill="#000000" fill-rule="evenodd" fill-opacity="1" /><path clip-path="url(#clip040)" d="M339.689 2205.06 Q336.078 2205.06 334.249 2208.62 Q332.444 2212.16 332.444 2219.29 Q332.444 2226.4 334.249 2229.97 Q336.078 2233.51 339.689 2233.51 Q343.323 2233.51 345.129 2229.97 Q346.958 2226.4 346.958 2219.29 Q346.958 2212.16 345.129 2208.62 Q343.323 2205.06 339.689 2205.06 M339.689 2201.35 Q345.499 2201.35 348.555 2205.96 Q351.634 2210.54 351.634 2219.29 Q351.634 2228.02 348.555 2232.63 Q345.499 2237.21 339.689 2237.21 Q333.879 2237.21 330.8 2232.63 Q327.745 2228.02 327.745 2219.29 Q327.745 2210.54 330.8 2205.96 Q333.879 2201.35 339.689 2201.35 Z" fill="#000000" fill-rule="evenodd" fill-opacity="1" /><path clip-path="url(#clip040)" d="M369.851 2205.06 Q366.24 2205.06 364.411 2208.62 Q362.606 2212.16 362.606 2219.29 Q362.606 2226.4 364.411 2229.97 Q366.24 2233.51 369.851 2233.51 Q373.485 2233.51 375.291 2229.97 Q377.12 2226.4 377.12 2219.29 Q377.12 2212.16 375.291 2208.62 Q373.485 2205.06 369.851 2205.06 M369.851 2201.35 Q375.661 2201.35 378.717 2205.96 Q381.795 2210.54 381.795 2219.29 Q381.795 2228.02 378.717 2232.63 Q375.661 2237.21 369.851 2237.21 Q364.041 2237.21 360.962 2232.63 Q357.907 2228.02 357.907 2219.29 Q357.907 2210.54 360.962 2205.96 Q364.041 2201.35 369.851 2201.35 Z" fill="#000000" fill-rule="evenodd" fill-opacity="1" /><path clip-path="url(#clip040)" d="M785.393 2205.06 Q781.782 2205.06 779.953 2208.62 Q778.148 2212.16 778.148 2219.29 Q778.148 2226.4 779.953 2229.97 Q781.782 2233.51 785.393 2233.51 Q789.027 2233.51 790.833 2229.97 Q792.661 2226.4 792.661 2219.29 Q792.661 2212.16 790.833 2208.62 Q789.027 2205.06 785.393 2205.06 M785.393 2201.35 Q791.203 2201.35 794.259 2205.96 Q797.337 2210.54 797.337 2219.29 Q797.337 2228.02 794.259 2232.63 Q791.203 2237.21 785.393 2237.21 Q779.583 2237.21 776.504 2232.63 Q773.448 2228.02 773.448 2219.29 Q773.448 2210.54 776.504 2205.96 Q779.583 2201.35 785.393 2201.35 Z" fill="#000000" fill-rule="evenodd" fill-opacity="1" /><path clip-path="url(#clip040)" d="M805.555 2230.66 L810.439 2230.66 L810.439 2236.54 L805.555 2236.54 L805.555 2230.66 Z" fill="#000000" fill-rule="evenodd" fill-opacity="1" /><path clip-path="url(#clip040)" d="M824.652 2232.6 L840.971 2232.6 L840.971 2236.54 L819.027 2236.54 L819.027 2232.6 Q821.689 2229.85 826.272 2225.22 Q830.879 2220.57 832.059 2219.23 Q834.305 2216.7 835.184 2214.97 Q836.087 2213.21 836.087 2211.52 Q836.087 2208.76 834.143 2207.03 Q832.221 2205.29 829.119 2205.29 Q826.92 2205.29 824.467 2206.05 Q822.036 2206.82 819.258 2208.37 L819.258 2203.65 Q822.082 2202.51 824.536 2201.93 Q826.99 2201.35 829.027 2201.35 Q834.397 2201.35 837.592 2204.04 Q840.786 2206.73 840.786 2211.22 Q840.786 2213.35 839.976 2215.27 Q839.189 2217.16 837.082 2219.76 Q836.504 2220.43 833.402 2223.65 Q830.3 2226.84 824.652 2232.6 Z" fill="#000000" fill-rule="evenodd" fill-opacity="1" /><path clip-path="url(#clip040)" d="M850.832 2201.98 L869.189 2201.98 L869.189 2205.92 L855.115 2205.92 L855.115 2214.39 Q856.133 2214.04 857.152 2213.88 Q858.17 2213.69 859.189 2213.69 Q864.976 2213.69 868.355 2216.86 Q871.735 2220.04 871.735 2225.45 Q871.735 2231.03 868.263 2234.13 Q864.791 2237.21 858.471 2237.21 Q856.295 2237.21 854.027 2236.84 Q851.781 2236.47 849.374 2235.73 L849.374 2231.03 Q851.457 2232.16 853.68 2232.72 Q855.902 2233.28 858.379 2233.28 Q862.383 2233.28 864.721 2231.17 Q867.059 2229.06 867.059 2225.45 Q867.059 2221.84 864.721 2219.73 Q862.383 2217.63 858.379 2217.63 Q856.504 2217.63 854.629 2218.04 Q852.777 2218.46 850.832 2219.34 L850.832 2201.98 Z" fill="#000000" fill-rule="evenodd" fill-opacity="1" /><path clip-path="url(#clip040)" d="M1275.33 2205.06 Q1271.72 2205.06 1269.89 2208.62 Q1268.09 2212.16 1268.09 2219.29 Q1268.09 2226.4 1269.89 2229.97 Q1271.72 2233.51 1275.33 2233.51 Q1278.97 2233.51 1280.77 2229.97 Q1282.6 2226.4 1282.6 2219.29 Q1282.6 2212.16 1280.77 2208.62 Q1278.97 2205.06 1275.33 2205.06 M1275.33 2201.35 Q1281.14 2201.35 1284.2 2205.96 Q1287.28 2210.54 1287.28 2219.29 Q1287.28 2228.02 1284.2 2232.63 Q1281.14 2237.21 1275.33 2237.21 Q1269.52 2237.21 1266.44 2232.63 Q1263.39 2228.02 1263.39 2219.29 Q1263.39 2210.54 1266.44 2205.96 Q1269.52 2201.35 1275.33 2201.35 Z" fill="#000000" fill-rule="evenodd" fill-opacity="1" /><path clip-path="url(#clip040)" d="M1295.49 2230.66 L1300.38 2230.66 L1300.38 2236.54 L1295.49 2236.54 L1295.49 2230.66 Z" fill="#000000" fill-rule="evenodd" fill-opacity="1" /><path clip-path="url(#clip040)" d="M1310.61 2201.98 L1328.97 2201.98 L1328.97 2205.92 L1314.89 2205.92 L1314.89 2214.39 Q1315.91 2214.04 1316.93 2213.88 Q1317.95 2213.69 1318.97 2213.69 Q1324.75 2213.69 1328.13 2216.86 Q1331.51 2220.04 1331.51 2225.45 Q1331.51 2231.03 1328.04 2234.13 Q1324.57 2237.21 1318.25 2237.21 Q1316.07 2237.21 1313.8 2236.84 Q1311.56 2236.47 1309.15 2235.73 L1309.15 2231.03 Q1311.23 2232.16 1313.46 2232.72 Q1315.68 2233.28 1318.16 2233.28 Q1322.16 2233.28 1324.5 2231.17 Q1326.84 2229.06 1326.84 2225.45 Q1326.84 2221.84 1324.5 2219.73 Q1322.16 2217.63 1318.16 2217.63 Q1316.28 2217.63 1314.41 2218.04 Q1312.55 2218.46 1310.61 2219.34 L1310.61 2201.98 Z" fill="#000000" fill-rule="evenodd" fill-opacity="1" /><path clip-path="url(#clip040)" d="M1350.73 2205.06 Q1347.11 2205.06 1345.29 2208.62 Q1343.48 2212.16 1343.48 2219.29 Q1343.48 2226.4 1345.29 2229.97 Q1347.11 2233.51 1350.73 2233.51 Q1354.36 2233.51 1356.17 2229.97 Q1357.99 2226.4 1357.99 2219.29 Q1357.99 2212.16 1356.17 2208.62 Q1354.36 2205.06 1350.73 2205.06 M1350.73 2201.35 Q1356.54 2201.35 1359.59 2205.96 Q1362.67 2210.54 1362.67 2219.29 Q1362.67 2228.02 1359.59 2232.63 Q1356.54 2237.21 1350.73 2237.21 Q1344.92 2237.21 1341.84 2232.63 Q1338.78 2228.02 1338.78 2219.29 Q1338.78 2210.54 1341.84 2205.96 Q1344.92 2201.35 1350.73 2201.35 Z" fill="#000000" fill-rule="evenodd" fill-opacity="1" /><path clip-path="url(#clip040)" d="M1766.27 2205.06 Q1762.66 2205.06 1760.83 2208.62 Q1759.02 2212.16 1759.02 2219.29 Q1759.02 2226.4 1760.83 2229.97 Q1762.66 2233.51 1766.27 2233.51 Q1769.9 2233.51 1771.71 2229.97 Q1773.54 2226.4 1773.54 2219.29 Q1773.54 2212.16 1771.71 2208.62 Q1769.9 2205.06 1766.27 2205.06 M1766.27 2201.35 Q1772.08 2201.35 1775.13 2205.96 Q1778.21 2210.54 1778.21 2219.29 Q1778.21 2228.02 1775.13 2232.63 Q1772.08 2237.21 1766.27 2237.21 Q1760.46 2237.21 1757.38 2232.63 Q1754.32 2228.02 1754.32 2219.29 Q1754.32 2210.54 1757.38 2205.96 Q1760.46 2201.35 1766.27 2201.35 Z" fill="#000000" fill-rule="evenodd" fill-opacity="1" /><path clip-path="url(#clip040)" d="M1786.43 2230.66 L1791.31 2230.66 L1791.31 2236.54 L1786.43 2236.54 L1786.43 2230.66 Z" fill="#000000" fill-rule="evenodd" fill-opacity="1" /><path clip-path="url(#clip040)" d="M1800.32 2201.98 L1822.54 2201.98 L1822.54 2203.97 L1809.99 2236.54 L1805.11 2236.54 L1816.92 2205.92 L1800.32 2205.92 L1800.32 2201.98 Z" fill="#000000" fill-rule="evenodd" fill-opacity="1" /><path clip-path="url(#clip040)" d="M1831.71 2201.98 L1850.06 2201.98 L1850.06 2205.92 L1835.99 2205.92 L1835.99 2214.39 Q1837.01 2214.04 1838.03 2213.88 Q1839.04 2213.69 1840.06 2213.69 Q1845.85 2213.69 1849.23 2216.86 Q1852.61 2220.04 1852.61 2225.45 Q1852.61 2231.03 1849.14 2234.13 Q1845.67 2237.21 1839.35 2237.21 Q1837.17 2237.21 1834.9 2236.84 Q1832.66 2236.47 1830.25 2235.73 L1830.25 2231.03 Q1832.33 2232.16 1834.55 2232.72 Q1836.78 2233.28 1839.25 2233.28 Q1843.26 2233.28 1845.6 2231.17 Q1847.93 2229.06 1847.93 2225.45 Q1847.93 2221.84 1845.6 2219.73 Q1843.26 2217.63 1839.25 2217.63 Q1837.38 2217.63 1835.5 2218.04 Q1833.65 2218.46 1831.71 2219.34 L1831.71 2201.98 Z" fill="#000000" fill-rule="evenodd" fill-opacity="1" /><path clip-path="url(#clip040)" d="M2245.98 2232.6 L2253.61 2232.6 L2253.61 2206.24 L2245.3 2207.91 L2245.3 2203.65 L2253.57 2201.98 L2258.24 2201.98 L2258.24 2232.6 L2265.88 2232.6 L2265.88 2236.54 L2245.98 2236.54 L2245.98 2232.6 Z" fill="#000000" fill-rule="evenodd" fill-opacity="1" /><path clip-path="url(#clip040)" d="M2275.33 2230.66 L2280.21 2230.66 L2280.21 2236.54 L2275.33 2236.54 L2275.33 2230.66 Z" fill="#000000" fill-rule="evenodd" fill-opacity="1" /><path clip-path="url(#clip040)" d="M2300.4 2205.06 Q2296.79 2205.06 2294.96 2208.62 Q2293.15 2212.16 2293.15 2219.29 Q2293.15 2226.4 2294.96 2229.97 Q2296.79 2233.51 2300.4 2233.51 Q2304.03 2233.51 2305.84 2229.97 Q2307.66 2226.4 2307.66 2219.29 Q2307.66 2212.16 2305.84 2208.62 Q2304.03 2205.06 2300.4 2205.06 M2300.4 2201.35 Q2306.21 2201.35 2309.26 2205.96 Q2312.34 2210.54 2312.34 2219.29 Q2312.34 2228.02 2309.26 2232.63 Q2306.21 2237.21 2300.4 2237.21 Q2294.59 2237.21 2291.51 2232.63 Q2288.45 2228.02 2288.45 2219.29 Q2288.45 2210.54 2291.51 2205.96 Q2294.59 2201.35 2300.4 2201.35 Z" fill="#000000" fill-rule="evenodd" fill-opacity="1" /><path clip-path="url(#clip040)" d="M2330.56 2205.06 Q2326.95 2205.06 2325.12 2208.62 Q2323.31 2212.16 2323.31 2219.29 Q2323.31 2226.4 2325.12 2229.97 Q2326.95 2233.51 2330.56 2233.51 Q2334.19 2233.51 2336 2229.97 Q2337.83 2226.4 2337.83 2219.29 Q2337.83 2212.16 2336 2208.62 Q2334.19 2205.06 2330.56 2205.06 M2330.56 2201.35 Q2336.37 2201.35 2339.42 2205.96 Q2342.5 2210.54 2342.5 2219.29 Q2342.5 2228.02 2339.42 2232.63 Q2336.37 2237.21 2330.56 2237.21 Q2324.75 2237.21 2321.67 2232.63 Q2318.61 2228.02 2318.61 2219.29 Q2318.61 2210.54 2321.67 2205.96 Q2324.75 2201.35 2330.56 2201.35 Z" fill="#000000" fill-rule="evenodd" fill-opacity="1" /><path clip-path="url(#clip040)" d="M1117.25 2296.31 L1117.25 2313.72 L1127.56 2313.72 Q1132.75 2313.72 1135.23 2311.59 Q1137.75 2309.42 1137.75 2305 Q1137.75 2300.54 1135.23 2298.44 Q1132.75 2296.31 1127.56 2296.31 L1117.25 2296.31 M1117.25 2276.77 L1117.25 2291.09 L1126.77 2291.09 Q1131.48 2291.09 1133.77 2289.34 Q1136.09 2287.56 1136.09 2283.93 Q1136.09 2280.33 1133.77 2278.55 Q1131.48 2276.77 1126.77 2276.77 L1117.25 2276.77 M1110.82 2271.48 L1127.25 2271.48 Q1134.6 2271.48 1138.58 2274.54 Q1142.56 2277.59 1142.56 2283.23 Q1142.56 2287.59 1140.52 2290.17 Q1138.48 2292.75 1134.53 2293.38 Q1139.28 2294.4 1141.89 2297.65 Q1144.53 2300.86 1144.53 2305.7 Q1144.53 2312.07 1140.2 2315.53 Q1135.87 2319 1127.88 2319 L1110.82 2319 L1110.82 2271.48 Z" fill="#000000" fill-rule="evenodd" fill-opacity="1" /><path clip-path="url(#clip040)" d="M1169.1 2287.46 Q1164.39 2287.46 1161.65 2291.15 Q1158.92 2294.81 1158.92 2301.21 Q1158.92 2307.61 1161.62 2311.3 Q1164.36 2314.96 1169.1 2314.96 Q1173.78 2314.96 1176.52 2311.27 Q1179.25 2307.58 1179.25 2301.21 Q1179.25 2294.88 1176.52 2291.19 Q1173.78 2287.46 1169.1 2287.46 M1169.1 2282.5 Q1176.74 2282.5 1181.1 2287.46 Q1185.46 2292.43 1185.46 2301.21 Q1185.46 2309.96 1181.1 2314.96 Q1176.74 2319.93 1169.1 2319.93 Q1161.43 2319.93 1157.07 2314.96 Q1152.74 2309.96 1152.74 2301.21 Q1152.74 2292.43 1157.07 2287.46 Q1161.43 2282.5 1169.1 2282.5 Z" fill="#000000" fill-rule="evenodd" fill-opacity="1" /><path clip-path="url(#clip040)" d="M1218.63 2288.77 L1218.63 2269.48 L1224.48 2269.48 L1224.48 2319 L1218.63 2319 L1218.63 2313.66 Q1216.78 2316.84 1213.95 2318.4 Q1211.15 2319.93 1207.2 2319.93 Q1200.74 2319.93 1196.66 2314.77 Q1192.62 2309.61 1192.62 2301.21 Q1192.62 2292.81 1196.66 2287.65 Q1200.74 2282.5 1207.2 2282.5 Q1211.15 2282.5 1213.95 2284.06 Q1216.78 2285.58 1218.63 2288.77 M1198.67 2301.21 Q1198.67 2307.67 1201.31 2311.36 Q1203.98 2315.03 1208.63 2315.03 Q1213.28 2315.03 1215.95 2311.36 Q1218.63 2307.67 1218.63 2301.21 Q1218.63 2294.75 1215.95 2291.09 Q1213.28 2287.4 1208.63 2287.4 Q1203.98 2287.4 1201.31 2291.09 Q1198.67 2294.75 1198.67 2301.21 Z" fill="#000000" fill-rule="evenodd" fill-opacity="1" /><path clip-path="url(#clip040)" d="M1251.38 2322.31 Q1248.89 2328.68 1246.54 2330.62 Q1244.18 2332.56 1240.24 2332.56 L1235.56 2332.56 L1235.56 2327.66 L1239 2327.66 Q1241.41 2327.66 1242.75 2326.52 Q1244.09 2325.37 1245.71 2321.1 L1246.76 2318.43 L1232.34 2283.36 L1238.55 2283.36 L1249.69 2311.24 L1260.83 2283.36 L1267.04 2283.36 L1251.38 2322.31 Z" fill="#000000" fill-rule="evenodd" fill-opacity="1" /><path clip-path="url(#clip040)" d="M1291.86 2271.48 L1298.36 2271.48 L1308.35 2311.65 L1318.31 2271.48 L1325.54 2271.48 L1335.53 2311.65 L1345.49 2271.48 L1352.02 2271.48 L1340.08 2319 L1332 2319 L1321.97 2277.75 L1311.85 2319 L1303.77 2319 L1291.86 2271.48 Z" fill="#000000" fill-rule="evenodd" fill-opacity="1" /><path clip-path="url(#clip040)" d="M1386.97 2299.72 L1386.97 2302.58 L1360.04 2302.58 Q1360.42 2308.63 1363.67 2311.81 Q1366.95 2314.96 1372.77 2314.96 Q1376.14 2314.96 1379.3 2314.13 Q1382.48 2313.31 1385.6 2311.65 L1385.6 2317.19 Q1382.45 2318.53 1379.14 2319.23 Q1375.83 2319.93 1372.42 2319.93 Q1363.89 2319.93 1358.89 2314.96 Q1353.93 2310 1353.93 2301.53 Q1353.93 2292.78 1358.64 2287.65 Q1363.38 2282.5 1371.4 2282.5 Q1378.6 2282.5 1382.77 2287.14 Q1386.97 2291.76 1386.97 2299.72 M1381.11 2298 Q1381.05 2293.19 1378.4 2290.33 Q1375.79 2287.46 1371.47 2287.46 Q1366.56 2287.46 1363.6 2290.23 Q1360.68 2293 1360.23 2298.03 L1381.11 2298 Z" fill="#000000" fill-rule="evenodd" fill-opacity="1" /><path clip-path="url(#clip040)" d="M1396.58 2283.36 L1402.44 2283.36 L1402.44 2319 L1396.58 2319 L1396.58 2283.36 M1396.58 2269.48 L1402.44 2269.48 L1402.44 2276.89 L1396.58 2276.89 L1396.58 2269.48 Z" fill="#000000" fill-rule="evenodd" fill-opacity="1" /><path clip-path="url(#clip040)" d="M1438.15 2300.77 Q1438.15 2294.4 1435.51 2290.9 Q1432.9 2287.4 1428.15 2287.4 Q1423.44 2287.4 1420.8 2290.9 Q1418.19 2294.4 1418.19 2300.77 Q1418.19 2307.1 1420.8 2310.6 Q1423.44 2314.1 1428.15 2314.1 Q1432.9 2314.1 1435.51 2310.6 Q1438.15 2307.1 1438.15 2300.77 M1444 2314.58 Q1444 2323.68 1439.96 2328.11 Q1435.92 2332.56 1427.58 2332.56 Q1424.49 2332.56 1421.76 2332.09 Q1419.02 2331.64 1416.44 2330.68 L1416.44 2324.99 Q1419.02 2326.39 1421.53 2327.06 Q1424.05 2327.72 1426.66 2327.72 Q1432.42 2327.72 1435.28 2324.7 Q1438.15 2321.71 1438.15 2315.63 L1438.15 2312.73 Q1436.33 2315.88 1433.5 2317.44 Q1430.67 2319 1426.72 2319 Q1420.16 2319 1416.15 2314.01 Q1412.14 2309.01 1412.14 2300.77 Q1412.14 2292.49 1416.15 2287.49 Q1420.16 2282.5 1426.72 2282.5 Q1430.67 2282.5 1433.5 2284.06 Q1436.33 2285.62 1438.15 2288.77 L1438.15 2283.36 L1444 2283.36 L1444 2314.58 Z" fill="#000000" fill-rule="evenodd" fill-opacity="1" /><path clip-path="url(#clip040)" d="M1485.7 2297.49 L1485.7 2319 L1479.84 2319 L1479.84 2297.68 Q1479.84 2292.62 1477.87 2290.1 Q1475.9 2287.59 1471.95 2287.59 Q1467.21 2287.59 1464.47 2290.61 Q1461.73 2293.64 1461.73 2298.86 L1461.73 2319 L1455.84 2319 L1455.84 2269.48 L1461.73 2269.48 L1461.73 2288.89 Q1463.83 2285.68 1466.67 2284.09 Q1469.53 2282.5 1473.25 2282.5 Q1479.4 2282.5 1482.55 2286.32 Q1485.7 2290.1 1485.7 2297.49 Z" fill="#000000" fill-rule="evenodd" fill-opacity="1" /><path clip-path="url(#clip040)" d="M1503.17 2273.23 L1503.17 2283.36 L1515.24 2283.36 L1515.24 2287.91 L1503.17 2287.91 L1503.17 2307.26 Q1503.17 2311.62 1504.35 2312.86 Q1505.56 2314.1 1509.22 2314.1 L1515.24 2314.1 L1515.24 2319 L1509.22 2319 Q1502.44 2319 1499.86 2316.49 Q1497.28 2313.94 1497.28 2307.26 L1497.28 2287.91 L1492.99 2287.91 L1492.99 2283.36 L1497.28 2283.36 L1497.28 2273.23 L1503.17 2273.23 Z" fill="#000000" fill-rule="evenodd" fill-opacity="1" /><polyline clip-path="url(#clip042)" style="stroke:#000000; stroke-linecap:butt; stroke-linejoin:round; stroke-width:2; stroke-opacity:0.1; fill:none" points="
  273.302,2116.96 2352.76,2116.96 
  "/>
<polyline clip-path="url(#clip042)" style="stroke:#000000; stroke-linecap:butt; stroke-linejoin:round; stroke-width:2; stroke-opacity:0.1; fill:none" points="
  273.302,1640.44 2352.76,1640.44 
  "/>
<polyline clip-path="url(#clip042)" style="stroke:#000000; stroke-linecap:butt; stroke-linejoin:round; stroke-width:2; stroke-opacity:0.1; fill:none" points="
  273.302,1163.93 2352.76,1163.93 
  "/>
<polyline clip-path="url(#clip042)" style="stroke:#000000; stroke-linecap:butt; stroke-linejoin:round; stroke-width:2; stroke-opacity:0.1; fill:none" points="
  273.302,687.41 2352.76,687.41 
  "/>
<polyline clip-path="url(#clip042)" style="stroke:#000000; stroke-linecap:butt; stroke-linejoin:round; stroke-width:2; stroke-opacity:0.1; fill:none" points="
  273.302,210.894 2352.76,210.894 
  "/>
<polyline clip-path="url(#clip040)" style="stroke:#000000; stroke-linecap:butt; stroke-linejoin:round; stroke-width:4; stroke-opacity:1; fill:none" points="
  273.302,2174.14 273.302,153.712 
  "/>
<polyline clip-path="url(#clip040)" style="stroke:#000000; stroke-linecap:butt; stroke-linejoin:round; stroke-width:4; stroke-opacity:1; fill:none" points="
  273.302,2116.96 292.2,2116.96 
  "/>
<polyline clip-path="url(#clip040)" style="stroke:#000000; stroke-linecap:butt; stroke-linejoin:round; stroke-width:4; stroke-opacity:1; fill:none" points="
  273.302,1640.44 292.2,1640.44 
  "/>
<polyline clip-path="url(#clip040)" style="stroke:#000000; stroke-linecap:butt; stroke-linejoin:round; stroke-width:4; stroke-opacity:1; fill:none" points="
  273.302,1163.93 292.2,1163.93 
  "/>
<polyline clip-path="url(#clip040)" style="stroke:#000000; stroke-linecap:butt; stroke-linejoin:round; stroke-width:4; stroke-opacity:1; fill:none" points="
  273.302,687.41 292.2,687.41 
  "/>
<polyline clip-path="url(#clip040)" style="stroke:#000000; stroke-linecap:butt; stroke-linejoin:round; stroke-width:4; stroke-opacity:1; fill:none" points="
  273.302,210.894 292.2,210.894 
  "/>
<path clip-path="url(#clip040)" d="M149.965 2102.76 Q146.353 2102.76 144.525 2106.32 Q142.719 2109.86 142.719 2116.99 Q142.719 2124.1 144.525 2127.66 Q146.353 2131.21 149.965 2131.21 Q153.599 2131.21 155.404 2127.66 Q157.233 2124.1 157.233 2116.99 Q157.233 2109.86 155.404 2106.32 Q153.599 2102.76 149.965 2102.76 M149.965 2099.05 Q155.775 2099.05 158.83 2103.66 Q161.909 2108.24 161.909 2116.99 Q161.909 2125.72 158.83 2130.33 Q155.775 2134.91 149.965 2134.91 Q144.154 2134.91 141.076 2130.33 Q138.02 2125.72 138.02 2116.99 Q138.02 2108.24 141.076 2103.66 Q144.154 2099.05 149.965 2099.05 Z" fill="#000000" fill-rule="evenodd" fill-opacity="1" /><path clip-path="url(#clip040)" d="M170.126 2128.36 L175.011 2128.36 L175.011 2134.24 L170.126 2134.24 L170.126 2128.36 Z" fill="#000000" fill-rule="evenodd" fill-opacity="1" /><path clip-path="url(#clip040)" d="M195.196 2102.76 Q191.585 2102.76 189.756 2106.32 Q187.95 2109.86 187.95 2116.99 Q187.95 2124.1 189.756 2127.66 Q191.585 2131.21 195.196 2131.21 Q198.83 2131.21 200.636 2127.66 Q202.464 2124.1 202.464 2116.99 Q202.464 2109.86 200.636 2106.32 Q198.83 2102.76 195.196 2102.76 M195.196 2099.05 Q201.006 2099.05 204.061 2103.66 Q207.14 2108.24 207.14 2116.99 Q207.14 2125.72 204.061 2130.33 Q201.006 2134.91 195.196 2134.91 Q189.386 2134.91 186.307 2130.33 Q183.251 2125.72 183.251 2116.99 Q183.251 2108.24 186.307 2103.66 Q189.386 2099.05 195.196 2099.05 Z" fill="#000000" fill-rule="evenodd" fill-opacity="1" /><path clip-path="url(#clip040)" d="M225.358 2102.76 Q221.747 2102.76 219.918 2106.32 Q218.112 2109.86 218.112 2116.99 Q218.112 2124.1 219.918 2127.66 Q221.747 2131.21 225.358 2131.21 Q228.992 2131.21 230.797 2127.66 Q232.626 2124.1 232.626 2116.99 Q232.626 2109.86 230.797 2106.32 Q228.992 2102.76 225.358 2102.76 M225.358 2099.05 Q231.168 2099.05 234.223 2103.66 Q237.302 2108.24 237.302 2116.99 Q237.302 2125.72 234.223 2130.33 Q231.168 2134.91 225.358 2134.91 Q219.547 2134.91 216.469 2130.33 Q213.413 2125.72 213.413 2116.99 Q213.413 2108.24 216.469 2103.66 Q219.547 2099.05 225.358 2099.05 Z" fill="#000000" fill-rule="evenodd" fill-opacity="1" /><path clip-path="url(#clip040)" d="M150.96 1626.24 Q147.349 1626.24 145.52 1629.81 Q143.715 1633.35 143.715 1640.48 Q143.715 1647.58 145.52 1651.15 Q147.349 1654.69 150.96 1654.69 Q154.594 1654.69 156.4 1651.15 Q158.228 1647.58 158.228 1640.48 Q158.228 1633.35 156.4 1629.81 Q154.594 1626.24 150.96 1626.24 M150.96 1622.54 Q156.77 1622.54 159.826 1627.14 Q162.904 1631.73 162.904 1640.48 Q162.904 1649.2 159.826 1653.81 Q156.77 1658.39 150.96 1658.39 Q145.15 1658.39 142.071 1653.81 Q139.016 1649.2 139.016 1640.48 Q139.016 1631.73 142.071 1627.14 Q145.15 1622.54 150.96 1622.54 Z" fill="#000000" fill-rule="evenodd" fill-opacity="1" /><path clip-path="url(#clip040)" d="M171.122 1651.84 L176.006 1651.84 L176.006 1657.72 L171.122 1657.72 L171.122 1651.84 Z" fill="#000000" fill-rule="evenodd" fill-opacity="1" /><path clip-path="url(#clip040)" d="M190.219 1653.79 L206.538 1653.79 L206.538 1657.72 L184.594 1657.72 L184.594 1653.79 Q187.256 1651.03 191.839 1646.4 Q196.446 1641.75 197.626 1640.41 Q199.872 1637.88 200.751 1636.15 Q201.654 1634.39 201.654 1632.7 Q201.654 1629.94 199.71 1628.21 Q197.788 1626.47 194.687 1626.47 Q192.487 1626.47 190.034 1627.24 Q187.603 1628 184.825 1629.55 L184.825 1624.83 Q187.65 1623.69 190.103 1623.12 Q192.557 1622.54 194.594 1622.54 Q199.964 1622.54 203.159 1625.22 Q206.353 1627.91 206.353 1632.4 Q206.353 1634.53 205.543 1636.45 Q204.756 1638.35 202.649 1640.94 Q202.071 1641.61 198.969 1644.83 Q195.867 1648.02 190.219 1653.79 Z" fill="#000000" fill-rule="evenodd" fill-opacity="1" /><path clip-path="url(#clip040)" d="M216.399 1623.16 L234.756 1623.16 L234.756 1627.1 L220.682 1627.1 L220.682 1635.57 Q221.7 1635.22 222.719 1635.06 Q223.737 1634.87 224.756 1634.87 Q230.543 1634.87 233.922 1638.05 Q237.302 1641.22 237.302 1646.63 Q237.302 1652.21 233.83 1655.31 Q230.358 1658.39 224.038 1658.39 Q221.862 1658.39 219.594 1658.02 Q217.348 1657.65 214.941 1656.91 L214.941 1652.21 Q217.024 1653.35 219.247 1653.9 Q221.469 1654.46 223.946 1654.46 Q227.95 1654.46 230.288 1652.35 Q232.626 1650.25 232.626 1646.63 Q232.626 1643.02 230.288 1640.92 Q227.95 1638.81 223.946 1638.81 Q222.071 1638.81 220.196 1639.23 Q218.344 1639.64 216.399 1640.52 L216.399 1623.16 Z" fill="#000000" fill-rule="evenodd" fill-opacity="1" /><path clip-path="url(#clip040)" d="M149.965 1149.72 Q146.353 1149.72 144.525 1153.29 Q142.719 1156.83 142.719 1163.96 Q142.719 1171.07 144.525 1174.63 Q146.353 1178.17 149.965 1178.17 Q153.599 1178.17 155.404 1174.63 Q157.233 1171.07 157.233 1163.96 Q157.233 1156.83 155.404 1153.29 Q153.599 1149.72 149.965 1149.72 M149.965 1146.02 Q155.775 1146.02 158.83 1150.63 Q161.909 1155.21 161.909 1163.96 Q161.909 1172.69 158.83 1177.29 Q155.775 1181.88 149.965 1181.88 Q144.154 1181.88 141.076 1177.29 Q138.02 1172.69 138.02 1163.96 Q138.02 1155.21 141.076 1150.63 Q144.154 1146.02 149.965 1146.02 Z" fill="#000000" fill-rule="evenodd" fill-opacity="1" /><path clip-path="url(#clip040)" d="M170.126 1175.33 L175.011 1175.33 L175.011 1181.21 L170.126 1181.21 L170.126 1175.33 Z" fill="#000000" fill-rule="evenodd" fill-opacity="1" /><path clip-path="url(#clip040)" d="M185.242 1146.65 L203.599 1146.65 L203.599 1150.58 L189.525 1150.58 L189.525 1159.05 Q190.543 1158.71 191.562 1158.54 Q192.58 1158.36 193.599 1158.36 Q199.386 1158.36 202.765 1161.53 Q206.145 1164.7 206.145 1170.12 Q206.145 1175.7 202.673 1178.8 Q199.2 1181.88 192.881 1181.88 Q190.705 1181.88 188.437 1181.51 Q186.191 1181.14 183.784 1180.4 L183.784 1175.7 Q185.867 1176.83 188.089 1177.39 Q190.312 1177.94 192.788 1177.94 Q196.793 1177.94 199.131 1175.84 Q201.469 1173.73 201.469 1170.12 Q201.469 1166.51 199.131 1164.4 Q196.793 1162.29 192.788 1162.29 Q190.913 1162.29 189.038 1162.71 Q187.187 1163.13 185.242 1164.01 L185.242 1146.65 Z" fill="#000000" fill-rule="evenodd" fill-opacity="1" /><path clip-path="url(#clip040)" d="M225.358 1149.72 Q221.747 1149.72 219.918 1153.29 Q218.112 1156.83 218.112 1163.96 Q218.112 1171.07 219.918 1174.63 Q221.747 1178.17 225.358 1178.17 Q228.992 1178.17 230.797 1174.63 Q232.626 1171.07 232.626 1163.96 Q232.626 1156.83 230.797 1153.29 Q228.992 1149.72 225.358 1149.72 M225.358 1146.02 Q231.168 1146.02 234.223 1150.63 Q237.302 1155.21 237.302 1163.96 Q237.302 1172.69 234.223 1177.29 Q231.168 1181.88 225.358 1181.88 Q219.547 1181.88 216.469 1177.29 Q213.413 1172.69 213.413 1163.96 Q213.413 1155.21 216.469 1150.63 Q219.547 1146.02 225.358 1146.02 Z" fill="#000000" fill-rule="evenodd" fill-opacity="1" /><path clip-path="url(#clip040)" d="M150.96 673.209 Q147.349 673.209 145.52 676.773 Q143.715 680.315 143.715 687.445 Q143.715 694.551 145.52 698.116 Q147.349 701.658 150.96 701.658 Q154.594 701.658 156.4 698.116 Q158.228 694.551 158.228 687.445 Q158.228 680.315 156.4 676.773 Q154.594 673.209 150.96 673.209 M150.96 669.505 Q156.77 669.505 159.826 674.111 Q162.904 678.695 162.904 687.445 Q162.904 696.172 159.826 700.778 Q156.77 705.361 150.96 705.361 Q145.15 705.361 142.071 700.778 Q139.016 696.172 139.016 687.445 Q139.016 678.695 142.071 674.111 Q145.15 669.505 150.96 669.505 Z" fill="#000000" fill-rule="evenodd" fill-opacity="1" /><path clip-path="url(#clip040)" d="M171.122 698.81 L176.006 698.81 L176.006 704.69 L171.122 704.69 L171.122 698.81 Z" fill="#000000" fill-rule="evenodd" fill-opacity="1" /><path clip-path="url(#clip040)" d="M185.011 670.13 L207.233 670.13 L207.233 672.121 L194.687 704.69 L189.802 704.69 L201.608 674.065 L185.011 674.065 L185.011 670.13 Z" fill="#000000" fill-rule="evenodd" fill-opacity="1" /><path clip-path="url(#clip040)" d="M216.399 670.13 L234.756 670.13 L234.756 674.065 L220.682 674.065 L220.682 682.537 Q221.7 682.19 222.719 682.028 Q223.737 681.843 224.756 681.843 Q230.543 681.843 233.922 685.014 Q237.302 688.185 237.302 693.602 Q237.302 699.181 233.83 702.283 Q230.358 705.361 224.038 705.361 Q221.862 705.361 219.594 704.991 Q217.348 704.621 214.941 703.88 L214.941 699.181 Q217.024 700.315 219.247 700.871 Q221.469 701.426 223.946 701.426 Q227.95 701.426 230.288 699.32 Q232.626 697.213 232.626 693.602 Q232.626 689.991 230.288 687.885 Q227.95 685.778 223.946 685.778 Q222.071 685.778 220.196 686.195 Q218.344 686.611 216.399 687.491 L216.399 670.13 Z" fill="#000000" fill-rule="evenodd" fill-opacity="1" /><path clip-path="url(#clip040)" d="M140.775 224.239 L148.414 224.239 L148.414 197.873 L140.103 199.54 L140.103 195.281 L148.367 193.614 L153.043 193.614 L153.043 224.239 L160.682 224.239 L160.682 228.174 L140.775 228.174 L140.775 224.239 Z" fill="#000000" fill-rule="evenodd" fill-opacity="1" /><path clip-path="url(#clip040)" d="M170.126 222.294 L175.011 222.294 L175.011 228.174 L170.126 228.174 L170.126 222.294 Z" fill="#000000" fill-rule="evenodd" fill-opacity="1" /><path clip-path="url(#clip040)" d="M195.196 196.693 Q191.585 196.693 189.756 200.258 Q187.95 203.799 187.95 210.929 Q187.95 218.035 189.756 221.6 Q191.585 225.142 195.196 225.142 Q198.83 225.142 200.636 221.6 Q202.464 218.035 202.464 210.929 Q202.464 203.799 200.636 200.258 Q198.83 196.693 195.196 196.693 M195.196 192.989 Q201.006 192.989 204.061 197.596 Q207.14 202.179 207.14 210.929 Q207.14 219.656 204.061 224.262 Q201.006 228.845 195.196 228.845 Q189.386 228.845 186.307 224.262 Q183.251 219.656 183.251 210.929 Q183.251 202.179 186.307 197.596 Q189.386 192.989 195.196 192.989 Z" fill="#000000" fill-rule="evenodd" fill-opacity="1" /><path clip-path="url(#clip040)" d="M225.358 196.693 Q221.747 196.693 219.918 200.258 Q218.112 203.799 218.112 210.929 Q218.112 218.035 219.918 221.6 Q221.747 225.142 225.358 225.142 Q228.992 225.142 230.797 221.6 Q232.626 218.035 232.626 210.929 Q232.626 203.799 230.797 200.258 Q228.992 196.693 225.358 196.693 M225.358 192.989 Q231.168 192.989 234.223 197.596 Q237.302 202.179 237.302 210.929 Q237.302 219.656 234.223 224.262 Q231.168 228.845 225.358 228.845 Q219.547 228.845 216.469 224.262 Q213.413 219.656 213.413 210.929 Q213.413 202.179 216.469 197.596 Q219.547 192.989 225.358 192.989 Z" fill="#000000" fill-rule="evenodd" fill-opacity="1" /><path clip-path="url(#clip040)" d="M40.2442 1374.57 L40.2442 1368.14 L59.7232 1368.14 L59.7232 1344.78 L40.2442 1344.78 L40.2442 1338.35 L87.7642 1338.35 L87.7642 1344.78 L65.1341 1344.78 L65.1341 1368.14 L87.7642 1368.14 L87.7642 1374.57 L40.2442 1374.57 Z" fill="#000000" fill-rule="evenodd" fill-opacity="1" /><path clip-path="url(#clip040)" d="M68.4761 1295.31 L71.3406 1295.31 L71.3406 1322.24 Q77.3881 1321.86 80.5709 1318.61 Q83.7219 1315.33 83.7219 1309.51 Q83.7219 1306.14 82.8944 1302.98 Q82.0669 1299.8 80.4118 1296.68 L85.9499 1296.68 Q87.2867 1299.83 87.987 1303.14 Q88.6872 1306.45 88.6872 1309.86 Q88.6872 1318.39 83.7219 1323.39 Q78.7567 1328.35 70.2903 1328.35 Q61.5374 1328.35 56.4131 1323.64 Q51.2568 1318.9 51.2568 1310.88 Q51.2568 1303.69 55.9038 1299.52 Q60.5189 1295.31 68.4761 1295.31 M66.7573 1301.17 Q61.9512 1301.23 59.0866 1303.88 Q56.2221 1306.49 56.2221 1310.81 Q56.2221 1315.72 58.9912 1318.68 Q61.7602 1321.6 66.7892 1322.05 L66.7573 1301.17 Z" fill="#000000" fill-rule="evenodd" fill-opacity="1" /><path clip-path="url(#clip040)" d="M69.8447 1269.5 Q69.8447 1276.6 71.4679 1279.34 Q73.0912 1282.07 77.0061 1282.07 Q80.1253 1282.07 81.9714 1280.04 Q83.7856 1277.97 83.7856 1274.43 Q83.7856 1269.56 80.3481 1266.64 Q76.8788 1263.68 71.1497 1263.68 L69.8447 1263.68 L69.8447 1269.5 M67.4257 1257.82 L87.7642 1257.82 L87.7642 1263.68 L82.3533 1263.68 Q85.5998 1265.68 87.1594 1268.67 Q88.6872 1271.67 88.6872 1275.99 Q88.6872 1281.47 85.6316 1284.72 Q82.5443 1287.93 77.3881 1287.93 Q71.3725 1287.93 68.3169 1283.92 Q65.2614 1279.88 65.2614 1271.89 L65.2614 1263.68 L64.6885 1263.68 Q60.6462 1263.68 58.4501 1266.35 Q56.2221 1268.99 56.2221 1273.8 Q56.2221 1276.85 56.9541 1279.75 Q57.6862 1282.65 59.1503 1285.32 L53.7395 1285.32 Q52.4981 1282.11 51.8934 1279.08 Q51.2568 1276.06 51.2568 1273.19 Q51.2568 1265.46 55.2672 1261.64 Q59.2776 1257.82 67.4257 1257.82 Z" fill="#000000" fill-rule="evenodd" fill-opacity="1" /><path clip-path="url(#clip040)" d="M57.5907 1225.1 Q57.0178 1226.09 56.7632 1227.26 Q56.4767 1228.41 56.4767 1229.81 Q56.4767 1234.78 59.7232 1237.45 Q62.9379 1240.09 68.9853 1240.09 L87.7642 1240.09 L87.7642 1245.98 L52.1162 1245.98 L52.1162 1240.09 L57.6544 1240.09 Q54.4079 1238.25 52.8483 1235.29 Q51.2568 1232.33 51.2568 1228.09 Q51.2568 1227.49 51.3523 1226.76 Q51.416 1226.02 51.5751 1225.13 L57.5907 1225.1 Z" fill="#000000" fill-rule="evenodd" fill-opacity="1" /><path clip-path="url(#clip040)" d="M41.9947 1213.16 L52.1162 1213.16 L52.1162 1201.1 L56.6677 1201.1 L56.6677 1213.16 L76.0194 1213.16 Q80.3799 1213.16 81.6213 1211.99 Q82.8626 1210.78 82.8626 1207.12 L82.8626 1201.1 L87.7642 1201.1 L87.7642 1207.12 Q87.7642 1213.9 85.2497 1216.47 Q82.7034 1219.05 76.0194 1219.05 L56.6677 1219.05 L56.6677 1223.35 L52.1162 1223.35 L52.1162 1219.05 L41.9947 1219.05 L41.9947 1213.16 Z" fill="#000000" fill-rule="evenodd" fill-opacity="1" /><path clip-path="url(#clip040)" d="M40.2442 1176.66 L40.2442 1170.16 L80.4118 1160.17 L40.2442 1150.21 L40.2442 1142.98 L80.4118 1132.99 L40.2442 1123.03 L40.2442 1116.5 L87.7642 1128.44 L87.7642 1136.52 L46.5144 1146.55 L87.7642 1156.67 L87.7642 1164.75 L40.2442 1176.66 Z" fill="#000000" fill-rule="evenodd" fill-opacity="1" /><path clip-path="url(#clip040)" d="M68.4761 1081.55 L71.3406 1081.55 L71.3406 1108.48 Q77.3881 1108.1 80.5709 1104.85 Q83.7219 1101.57 83.7219 1095.75 Q83.7219 1092.38 82.8944 1089.22 Q82.0669 1086.04 80.4118 1082.92 L85.9499 1082.92 Q87.2867 1086.07 87.987 1089.38 Q88.6872 1092.69 88.6872 1096.1 Q88.6872 1104.63 83.7219 1109.63 Q78.7567 1114.59 70.2903 1114.59 Q61.5374 1114.59 56.4131 1109.88 Q51.2568 1105.14 51.2568 1097.12 Q51.2568 1089.92 55.9038 1085.76 Q60.5189 1081.55 68.4761 1081.55 M66.7573 1087.41 Q61.9512 1087.47 59.0866 1090.12 Q56.2221 1092.73 56.2221 1097.05 Q56.2221 1101.96 58.9912 1104.92 Q61.7602 1107.84 66.7892 1108.29 L66.7573 1087.41 Z" fill="#000000" fill-rule="evenodd" fill-opacity="1" /><path clip-path="url(#clip040)" d="M52.1162 1071.94 L52.1162 1066.09 L87.7642 1066.09 L87.7642 1071.94 L52.1162 1071.94 M38.239 1071.94 L38.239 1066.09 L45.655 1066.09 L45.655 1071.94 L38.239 1071.94 Z" fill="#000000" fill-rule="evenodd" fill-opacity="1" /><path clip-path="url(#clip040)" d="M69.5264 1030.37 Q63.1607 1030.37 59.6596 1033.02 Q56.1584 1035.63 56.1584 1040.37 Q56.1584 1045.08 59.6596 1047.72 Q63.1607 1050.33 69.5264 1050.33 Q75.8603 1050.33 79.3614 1047.72 Q82.8626 1045.08 82.8626 1040.37 Q82.8626 1035.63 79.3614 1033.02 Q75.8603 1030.37 69.5264 1030.37 M83.34 1024.52 Q92.443 1024.52 96.8671 1028.56 Q101.323 1032.6 101.323 1040.94 Q101.323 1044.03 100.846 1046.77 Q100.4 1049.5 99.4452 1052.08 L93.7479 1052.08 Q95.1484 1049.5 95.8168 1046.99 Q96.4852 1044.47 96.4852 1041.86 Q96.4852 1036.1 93.4615 1033.24 Q90.4696 1030.37 84.3903 1030.37 L81.4939 1030.37 Q84.645 1032.19 86.2046 1035.02 Q87.7642 1037.85 87.7642 1041.8 Q87.7642 1048.36 82.7671 1052.37 Q77.77 1056.38 69.5264 1056.38 Q61.251 1056.38 56.2539 1052.37 Q51.2568 1048.36 51.2568 1041.8 Q51.2568 1037.85 52.8164 1035.02 Q54.376 1032.19 57.5271 1030.37 L52.1162 1030.37 L52.1162 1024.52 L83.34 1024.52 Z" fill="#000000" fill-rule="evenodd" fill-opacity="1" /><path clip-path="url(#clip040)" d="M66.2481 982.822 L87.7642 982.822 L87.7642 988.678 L66.439 988.678 Q61.3783 988.678 58.8638 990.651 Q56.3494 992.625 56.3494 996.572 Q56.3494 1001.31 59.3731 1004.05 Q62.3968 1006.79 67.6167 1006.79 L87.7642 1006.79 L87.7642 1012.68 L38.239 1012.68 L38.239 1006.79 L57.6544 1006.79 Q54.4397 1004.69 52.8483 1001.86 Q51.2568 998.991 51.2568 995.267 Q51.2568 989.124 55.0763 985.973 Q58.8638 982.822 66.2481 982.822 Z" fill="#000000" fill-rule="evenodd" fill-opacity="1" /><path clip-path="url(#clip040)" d="M41.9947 965.348 L52.1162 965.348 L52.1162 953.285 L56.6677 953.285 L56.6677 965.348 L76.0194 965.348 Q80.3799 965.348 81.6213 964.17 Q82.8626 962.961 82.8626 959.3 L82.8626 953.285 L87.7642 953.285 L87.7642 959.3 Q87.7642 966.08 85.2497 968.658 Q82.7034 971.236 76.0194 971.236 L56.6677 971.236 L56.6677 975.533 L52.1162 975.533 L52.1162 971.236 L41.9947 971.236 L41.9947 965.348 Z" fill="#000000" fill-rule="evenodd" fill-opacity="1" /><path clip-path="url(#clip040)" d="M473.479 12.096 L481.743 12.096 L494.463 63.2184 L507.142 12.096 L516.338 12.096 L529.057 63.2184 L541.737 12.096 L550.041 12.096 L534.85 72.576 L524.561 72.576 L511.801 20.0763 L498.919 72.576 L488.629 72.576 L473.479 12.096 Z" fill="#000000" fill-rule="evenodd" fill-opacity="1" /><path clip-path="url(#clip040)" d="M594.52 48.0275 L594.52 51.6733 L560.249 51.6733 Q560.736 59.3701 564.867 63.421 Q569.04 67.4314 576.453 67.4314 Q580.747 67.4314 584.757 66.3781 Q588.808 65.3249 592.778 63.2184 L592.778 70.267 Q588.768 71.9684 584.555 72.8596 Q580.342 73.7508 576.007 73.7508 Q565.151 73.7508 558.791 67.4314 Q552.472 61.1119 552.472 50.3365 Q552.472 39.1965 558.467 32.6746 Q564.503 26.1121 574.711 26.1121 Q583.866 26.1121 589.173 32.0264 Q594.52 37.9003 594.52 48.0275 M587.066 45.84 Q586.985 39.7232 583.623 36.0774 Q580.301 32.4315 574.792 32.4315 Q568.554 32.4315 564.786 35.9558 Q561.06 39.4801 560.492 45.8805 L587.066 45.84 Z" fill="#000000" fill-rule="evenodd" fill-opacity="1" /><path clip-path="url(#clip040)" d="M606.754 27.2059 L614.207 27.2059 L614.207 72.576 L606.754 72.576 L606.754 27.2059 M606.754 9.54393 L614.207 9.54393 L614.207 18.9825 L606.754 18.9825 L606.754 9.54393 Z" fill="#000000" fill-rule="evenodd" fill-opacity="1" /><path clip-path="url(#clip040)" d="M659.659 49.3643 Q659.659 41.2625 656.296 36.8065 Q652.975 32.3505 646.939 32.3505 Q640.943 32.3505 637.581 36.8065 Q634.259 41.2625 634.259 49.3643 Q634.259 57.4256 637.581 61.8816 Q640.943 66.3376 646.939 66.3376 Q652.975 66.3376 656.296 61.8816 Q659.659 57.4256 659.659 49.3643 M667.112 66.9452 Q667.112 78.5308 661.968 84.1616 Q656.823 89.8329 646.21 89.8329 Q642.28 89.8329 638.796 89.2252 Q635.313 88.6581 632.031 87.4428 L632.031 80.1917 Q635.313 81.9741 638.513 82.8248 Q641.713 83.6755 645.035 83.6755 Q652.367 83.6755 656.013 79.8271 Q659.659 76.0193 659.659 68.282 L659.659 64.5957 Q657.35 68.6061 653.744 70.5911 Q650.139 72.576 645.116 72.576 Q636.771 72.576 631.667 66.2161 Q626.563 59.8562 626.563 49.3643 Q626.563 38.832 631.667 32.472 Q636.771 26.1121 645.116 26.1121 Q650.139 26.1121 653.744 28.0971 Q657.35 30.082 659.659 34.0924 L659.659 27.2059 L667.112 27.2059 L667.112 66.9452 Z" fill="#000000" fill-rule="evenodd" fill-opacity="1" /><path clip-path="url(#clip040)" d="M720.179 45.1919 L720.179 72.576 L712.725 72.576 L712.725 45.4349 Q712.725 38.994 710.214 35.7938 Q707.702 32.5936 702.679 32.5936 Q696.643 32.5936 693.16 36.4419 Q689.676 40.2903 689.676 46.9338 L689.676 72.576 L682.182 72.576 L682.182 9.54393 L689.676 9.54393 L689.676 34.2544 Q692.349 30.163 695.955 28.1376 Q699.601 26.1121 704.34 26.1121 Q712.158 26.1121 716.169 30.9732 Q720.179 35.7938 720.179 45.1919 Z" fill="#000000" fill-rule="evenodd" fill-opacity="1" /><path clip-path="url(#clip040)" d="M742.419 14.324 L742.419 27.2059 L757.772 27.2059 L757.772 32.9987 L742.419 32.9987 L742.419 57.6282 Q742.419 63.1779 743.917 64.7578 Q745.457 66.3376 750.115 66.3376 L757.772 66.3376 L757.772 72.576 L750.115 72.576 Q741.487 72.576 738.206 69.3758 Q734.924 66.1351 734.924 57.6282 L734.924 32.9987 L729.456 32.9987 L729.456 27.2059 L734.924 27.2059 L734.924 14.324 L742.419 14.324 Z" fill="#000000" fill-rule="evenodd" fill-opacity="1" /><path clip-path="url(#clip040)" d="M802.453 18.8205 L802.453 65.8515 L812.337 65.8515 Q824.855 65.8515 830.647 60.1802 Q836.481 54.509 836.481 42.2752 Q836.481 30.1225 830.647 24.4918 Q824.855 18.8205 812.337 18.8205 L802.453 18.8205 M794.27 12.096 L811.081 12.096 Q828.662 12.096 836.886 19.4281 Q845.109 26.7198 845.109 42.2752 Q845.109 57.9117 836.845 65.2439 Q828.581 72.576 811.081 72.576 L794.27 72.576 L794.27 12.096 Z" fill="#000000" fill-rule="evenodd" fill-opacity="1" /><path clip-path="url(#clip040)" d="M878.448 49.7694 Q869.414 49.7694 865.931 51.8354 Q862.447 53.9013 862.447 58.8839 Q862.447 62.8538 865.039 65.2034 Q867.673 67.5124 872.169 67.5124 Q878.367 67.5124 882.094 63.1374 Q885.861 58.7219 885.861 51.4303 L885.861 49.7694 L878.448 49.7694 M893.315 46.6907 L893.315 72.576 L885.861 72.576 L885.861 65.6895 Q883.309 69.8214 879.501 71.8063 Q875.693 73.7508 870.184 73.7508 Q863.217 73.7508 859.085 69.8619 Q854.993 65.9325 854.993 59.3701 Q854.993 51.7138 860.097 47.825 Q865.242 43.9361 875.41 43.9361 L885.861 43.9361 L885.861 43.2069 Q885.861 38.0623 882.458 35.2672 Q879.096 32.4315 872.979 32.4315 Q869.09 32.4315 865.404 33.3632 Q861.718 34.295 858.315 36.1584 L858.315 29.2718 Q862.406 27.692 866.255 26.9223 Q870.103 26.1121 873.749 26.1121 Q883.593 26.1121 888.454 31.2163 Q893.315 36.3204 893.315 46.6907 Z" fill="#000000" fill-rule="evenodd" fill-opacity="1" /><path clip-path="url(#clip040)" d="M916.04 14.324 L916.04 27.2059 L931.393 27.2059 L931.393 32.9987 L916.04 32.9987 L916.04 57.6282 Q916.04 63.1779 917.539 64.7578 Q919.079 66.3376 923.737 66.3376 L931.393 66.3376 L931.393 72.576 L923.737 72.576 Q915.109 72.576 911.827 69.3758 Q908.546 66.1351 908.546 57.6282 L908.546 32.9987 L903.077 32.9987 L903.077 27.2059 L908.546 27.2059 L908.546 14.324 L916.04 14.324 Z" fill="#000000" fill-rule="evenodd" fill-opacity="1" /><path clip-path="url(#clip040)" d="M961.816 49.7694 Q952.782 49.7694 949.298 51.8354 Q945.815 53.9013 945.815 58.8839 Q945.815 62.8538 948.407 65.2034 Q951.04 67.5124 955.537 67.5124 Q961.735 67.5124 965.461 63.1374 Q969.229 58.7219 969.229 51.4303 L969.229 49.7694 L961.816 49.7694 M976.682 46.6907 L976.682 72.576 L969.229 72.576 L969.229 65.6895 Q966.677 69.8214 962.869 71.8063 Q959.061 73.7508 953.552 73.7508 Q946.584 73.7508 942.452 69.8619 Q938.361 65.9325 938.361 59.3701 Q938.361 51.7138 943.465 47.825 Q948.61 43.9361 958.777 43.9361 L969.229 43.9361 L969.229 43.2069 Q969.229 38.0623 965.826 35.2672 Q962.464 32.4315 956.347 32.4315 Q952.458 32.4315 948.772 33.3632 Q945.085 34.295 941.683 36.1584 L941.683 29.2718 Q945.774 27.692 949.622 26.9223 Q953.471 26.1121 957.117 26.1121 Q966.96 26.1121 971.821 31.2163 Q976.682 36.3204 976.682 46.6907 Z" fill="#000000" fill-rule="evenodd" fill-opacity="1" /><path clip-path="url(#clip040)" d="M1041.38 9.54393 L1041.38 15.7418 L1034.25 15.7418 Q1030.24 15.7418 1028.66 17.3622 Q1027.12 18.9825 1027.12 23.1955 L1027.12 27.2059 L1039.39 27.2059 L1039.39 32.9987 L1027.12 32.9987 L1027.12 72.576 L1019.62 72.576 L1019.62 32.9987 L1012.49 32.9987 L1012.49 27.2059 L1019.62 27.2059 L1019.62 24.0462 Q1019.62 16.471 1023.15 13.0277 Q1026.67 9.54393 1034.33 9.54393 L1041.38 9.54393 Z" fill="#000000" fill-rule="evenodd" fill-opacity="1" /><path clip-path="url(#clip040)" d="M1065.19 32.4315 Q1059.2 32.4315 1055.72 37.1306 Q1052.23 41.7891 1052.23 49.9314 Q1052.23 58.0738 1055.68 62.7728 Q1059.16 67.4314 1065.19 67.4314 Q1071.15 67.4314 1074.63 62.7323 Q1078.12 58.0333 1078.12 49.9314 Q1078.12 41.8701 1074.63 37.1711 Q1071.15 32.4315 1065.19 32.4315 M1065.19 26.1121 Q1074.92 26.1121 1080.47 32.4315 Q1086.02 38.7509 1086.02 49.9314 Q1086.02 61.0714 1080.47 67.4314 Q1074.92 73.7508 1065.19 73.7508 Q1055.43 73.7508 1049.88 67.4314 Q1044.37 61.0714 1044.37 49.9314 Q1044.37 38.7509 1049.88 32.4315 Q1055.43 26.1121 1065.19 26.1121 Z" fill="#000000" fill-rule="evenodd" fill-opacity="1" /><path clip-path="url(#clip040)" d="M1124.66 34.1734 Q1123.41 33.4443 1121.91 33.1202 Q1120.45 32.7556 1118.67 32.7556 Q1112.35 32.7556 1108.94 36.8875 Q1105.58 40.9789 1105.58 48.6757 L1105.58 72.576 L1098.09 72.576 L1098.09 27.2059 L1105.58 27.2059 L1105.58 34.2544 Q1107.93 30.1225 1111.7 28.1376 Q1115.47 26.1121 1120.85 26.1121 Q1121.62 26.1121 1122.56 26.2337 Q1123.49 26.3147 1124.62 26.5172 L1124.66 34.1734 Z" fill="#000000" fill-rule="evenodd" fill-opacity="1" /><path clip-path="url(#clip040)" d="M1167.36 18.8205 L1167.36 65.8515 L1177.24 65.8515 Q1189.76 65.8515 1195.55 60.1802 Q1201.39 54.509 1201.39 42.2752 Q1201.39 30.1225 1195.55 24.4918 Q1189.76 18.8205 1177.24 18.8205 L1167.36 18.8205 M1159.18 12.096 L1175.99 12.096 Q1193.57 12.096 1201.79 19.4281 Q1210.01 26.7198 1210.01 42.2752 Q1210.01 57.9117 1201.75 65.2439 Q1193.49 72.576 1175.99 72.576 L1159.18 72.576 L1159.18 12.096 Z" fill="#000000" fill-rule="evenodd" fill-opacity="1" /><path clip-path="url(#clip040)" d="M1240.32 32.4315 Q1234.32 32.4315 1230.84 37.1306 Q1227.35 41.7891 1227.35 49.9314 Q1227.35 58.0738 1230.8 62.7728 Q1234.28 67.4314 1240.32 67.4314 Q1246.27 67.4314 1249.75 62.7323 Q1253.24 58.0333 1253.24 49.9314 Q1253.24 41.8701 1249.75 37.1711 Q1246.27 32.4315 1240.32 32.4315 M1240.32 26.1121 Q1250.04 26.1121 1255.59 32.4315 Q1261.14 38.7509 1261.14 49.9314 Q1261.14 61.0714 1255.59 67.4314 Q1250.04 73.7508 1240.32 73.7508 Q1230.55 73.7508 1225 67.4314 Q1219.49 61.0714 1219.49 49.9314 Q1219.49 38.7509 1225 32.4315 Q1230.55 26.1121 1240.32 26.1121 Z" fill="#000000" fill-rule="evenodd" fill-opacity="1" /><path clip-path="url(#clip040)" d="M1308.82 35.9153 Q1311.61 30.8922 1315.5 28.5022 Q1319.39 26.1121 1324.66 26.1121 Q1331.74 26.1121 1335.59 31.0947 Q1339.44 36.0368 1339.44 45.1919 L1339.44 72.576 L1331.95 72.576 L1331.95 45.4349 Q1331.95 38.913 1329.64 35.7533 Q1327.33 32.5936 1322.59 32.5936 Q1316.8 32.5936 1313.43 36.4419 Q1310.07 40.2903 1310.07 46.9338 L1310.07 72.576 L1302.58 72.576 L1302.58 45.4349 Q1302.58 38.8725 1300.27 35.7533 Q1297.96 32.5936 1293.14 32.5936 Q1287.43 32.5936 1284.07 36.4824 Q1280.7 40.3308 1280.7 46.9338 L1280.7 72.576 L1273.21 72.576 L1273.21 27.2059 L1280.7 27.2059 L1280.7 34.2544 Q1283.25 30.082 1286.82 28.0971 Q1290.38 26.1121 1295.29 26.1121 Q1300.23 26.1121 1303.67 28.6237 Q1307.16 31.1352 1308.82 35.9153 Z" fill="#000000" fill-rule="evenodd" fill-opacity="1" /><path clip-path="url(#clip040)" d="M1393.12 48.0275 L1393.12 51.6733 L1358.84 51.6733 Q1359.33 59.3701 1363.46 63.421 Q1367.64 67.4314 1375.05 67.4314 Q1379.34 67.4314 1383.35 66.3781 Q1387.4 65.3249 1391.37 63.2184 L1391.37 70.267 Q1387.36 71.9684 1383.15 72.8596 Q1378.94 73.7508 1374.6 73.7508 Q1363.75 73.7508 1357.39 67.4314 Q1351.07 61.1119 1351.07 50.3365 Q1351.07 39.1965 1357.06 32.6746 Q1363.1 26.1121 1373.31 26.1121 Q1382.46 26.1121 1387.77 32.0264 Q1393.12 37.9003 1393.12 48.0275 M1385.66 45.84 Q1385.58 39.7232 1382.22 36.0774 Q1378.9 32.4315 1373.39 32.4315 Q1367.15 32.4315 1363.38 35.9558 Q1359.65 39.4801 1359.09 45.8805 L1385.66 45.84 Z" fill="#000000" fill-rule="evenodd" fill-opacity="1" /><path clip-path="url(#clip040)" d="M1434.27 28.5427 L1434.27 35.5912 Q1431.11 33.9709 1427.71 33.1607 Q1424.31 32.3505 1420.66 32.3505 Q1415.11 32.3505 1412.32 34.0519 Q1409.56 35.7533 1409.56 39.156 Q1409.56 41.7486 1411.55 43.2475 Q1413.53 44.7058 1419.53 46.0426 L1422.08 46.6097 Q1430.02 48.3111 1433.34 51.4303 Q1436.7 54.509 1436.7 60.0587 Q1436.7 66.3781 1431.68 70.0644 Q1426.7 73.7508 1417.95 73.7508 Q1414.3 73.7508 1410.33 73.0216 Q1406.4 72.3329 1402.03 70.9151 L1402.03 63.2184 Q1406.16 65.3654 1410.17 66.4591 Q1414.18 67.5124 1418.11 67.5124 Q1423.38 67.5124 1426.21 65.73 Q1429.05 63.9071 1429.05 60.6258 Q1429.05 57.5877 1426.98 55.9673 Q1424.96 54.3469 1418.03 52.8481 L1415.44 52.2405 Q1408.51 50.7821 1405.43 47.7845 Q1402.35 44.7463 1402.35 39.4801 Q1402.35 33.0797 1406.89 29.5959 Q1411.43 26.1121 1419.77 26.1121 Q1423.9 26.1121 1427.55 26.7198 Q1431.19 27.3274 1434.27 28.5427 Z" fill="#000000" fill-rule="evenodd" fill-opacity="1" /><path clip-path="url(#clip040)" d="M1455.94 14.324 L1455.94 27.2059 L1471.3 27.2059 L1471.3 32.9987 L1455.94 32.9987 L1455.94 57.6282 Q1455.94 63.1779 1457.44 64.7578 Q1458.98 66.3376 1463.64 66.3376 L1471.3 66.3376 L1471.3 72.576 L1463.64 72.576 Q1455.01 72.576 1451.73 69.3758 Q1448.45 66.1351 1448.45 57.6282 L1448.45 32.9987 L1442.98 32.9987 L1442.98 27.2059 L1448.45 27.2059 L1448.45 14.324 L1455.94 14.324 Z" fill="#000000" fill-rule="evenodd" fill-opacity="1" /><path clip-path="url(#clip040)" d="M1481.1 27.2059 L1488.55 27.2059 L1488.55 72.576 L1481.1 72.576 L1481.1 27.2059 M1481.1 9.54393 L1488.55 9.54393 L1488.55 18.9825 L1481.1 18.9825 L1481.1 9.54393 Z" fill="#000000" fill-rule="evenodd" fill-opacity="1" /><path clip-path="url(#clip040)" d="M1536.8 28.9478 L1536.8 35.9153 Q1533.64 34.1734 1530.44 33.3227 Q1527.28 32.4315 1524.04 32.4315 Q1516.79 32.4315 1512.78 37.0496 Q1508.77 41.6271 1508.77 49.9314 Q1508.77 58.2358 1512.78 62.8538 Q1516.79 67.4314 1524.04 67.4314 Q1527.28 67.4314 1530.44 66.5807 Q1533.64 65.6895 1536.8 63.9476 L1536.8 70.8341 Q1533.68 72.2924 1530.32 73.0216 Q1527 73.7508 1523.23 73.7508 Q1512.98 73.7508 1506.95 67.3098 Q1500.91 60.8689 1500.91 49.9314 Q1500.91 38.832 1506.99 32.472 Q1513.1 26.1121 1523.72 26.1121 Q1527.16 26.1121 1530.44 26.8413 Q1533.72 27.5299 1536.8 28.9478 Z" fill="#000000" fill-rule="evenodd" fill-opacity="1" /><path clip-path="url(#clip040)" d="M1621.75 16.7545 L1621.75 25.383 Q1617.62 21.5346 1612.92 19.6307 Q1608.26 17.7268 1602.99 17.7268 Q1592.62 17.7268 1587.11 24.0867 Q1581.6 30.4061 1581.6 42.3968 Q1581.6 54.3469 1587.11 60.7069 Q1592.62 67.0263 1602.99 67.0263 Q1608.26 67.0263 1612.92 65.1223 Q1617.62 63.2184 1621.75 59.3701 L1621.75 67.9175 Q1617.45 70.8341 1612.63 72.2924 Q1607.85 73.7508 1602.51 73.7508 Q1588.77 73.7508 1580.87 65.3654 Q1572.98 56.9395 1572.98 42.3968 Q1572.98 27.8135 1580.87 19.4281 Q1588.77 11.0023 1602.51 11.0023 Q1607.93 11.0023 1612.71 12.4606 Q1617.54 13.8784 1621.75 16.7545 Z" fill="#000000" fill-rule="evenodd" fill-opacity="1" /><path clip-path="url(#clip040)" d="M1654.68 49.7694 Q1645.65 49.7694 1642.16 51.8354 Q1638.68 53.9013 1638.68 58.8839 Q1638.68 62.8538 1641.27 65.2034 Q1643.91 67.5124 1648.4 67.5124 Q1654.6 67.5124 1658.33 63.1374 Q1662.1 58.7219 1662.1 51.4303 L1662.1 49.7694 L1654.68 49.7694 M1669.55 46.6907 L1669.55 72.576 L1662.1 72.576 L1662.1 65.6895 Q1659.54 69.8214 1655.74 71.8063 Q1651.93 73.7508 1646.42 73.7508 Q1639.45 73.7508 1635.32 69.8619 Q1631.23 65.9325 1631.23 59.3701 Q1631.23 51.7138 1636.33 47.825 Q1641.48 43.9361 1651.64 43.9361 L1662.1 43.9361 L1662.1 43.2069 Q1662.1 38.0623 1658.69 35.2672 Q1655.33 32.4315 1649.21 32.4315 Q1645.32 32.4315 1641.64 33.3632 Q1637.95 34.295 1634.55 36.1584 L1634.55 29.2718 Q1638.64 27.692 1642.49 26.9223 Q1646.34 26.1121 1649.98 26.1121 Q1659.83 26.1121 1664.69 31.2163 Q1669.55 36.3204 1669.55 46.6907 Z" fill="#000000" fill-rule="evenodd" fill-opacity="1" /><path clip-path="url(#clip040)" d="M1692.27 14.324 L1692.27 27.2059 L1707.63 27.2059 L1707.63 32.9987 L1692.27 32.9987 L1692.27 57.6282 Q1692.27 63.1779 1693.77 64.7578 Q1695.31 66.3376 1699.97 66.3376 L1707.63 66.3376 L1707.63 72.576 L1699.97 72.576 Q1691.34 72.576 1688.06 69.3758 Q1684.78 66.1351 1684.78 57.6282 L1684.78 32.9987 L1679.31 32.9987 L1679.31 27.2059 L1684.78 27.2059 L1684.78 14.324 L1692.27 14.324 Z" fill="#000000" fill-rule="evenodd" fill-opacity="1" /><path clip-path="url(#clip040)" d="M1746.35 28.5427 L1746.35 35.5912 Q1743.19 33.9709 1739.79 33.1607 Q1736.39 32.3505 1732.74 32.3505 Q1727.19 32.3505 1724.4 34.0519 Q1721.64 35.7533 1721.64 39.156 Q1721.64 41.7486 1723.63 43.2475 Q1725.61 44.7058 1731.61 46.0426 L1734.16 46.6097 Q1742.1 48.3111 1745.42 51.4303 Q1748.78 54.509 1748.78 60.0587 Q1748.78 66.3781 1743.76 70.0644 Q1738.78 73.7508 1730.03 73.7508 Q1726.38 73.7508 1722.41 73.0216 Q1718.48 72.3329 1714.11 70.9151 L1714.11 63.2184 Q1718.24 65.3654 1722.25 66.4591 Q1726.26 67.5124 1730.19 67.5124 Q1735.46 67.5124 1738.29 65.73 Q1741.13 63.9071 1741.13 60.6258 Q1741.13 57.5877 1739.06 55.9673 Q1737.04 54.3469 1730.11 52.8481 L1727.52 52.2405 Q1720.59 50.7821 1717.51 47.7845 Q1714.43 44.7463 1714.43 39.4801 Q1714.43 33.0797 1718.97 29.5959 Q1723.51 26.1121 1731.85 26.1121 Q1735.98 26.1121 1739.63 26.7198 Q1743.28 27.3274 1746.35 28.5427 Z" fill="#000000" fill-rule="evenodd" fill-opacity="1" /><path clip-path="url(#clip040)" d="M1804.93 9.62495 Q1799.5 18.942 1796.87 28.0566 Q1794.24 37.1711 1794.24 46.5287 Q1794.24 55.8863 1796.87 65.0818 Q1799.54 74.2369 1804.93 83.5134 L1798.45 83.5134 Q1792.37 73.9938 1789.33 64.7983 Q1786.34 55.6027 1786.34 46.5287 Q1786.34 37.4952 1789.33 28.3401 Q1792.33 19.1851 1798.45 9.62495 L1804.93 9.62495 Z" fill="#000000" fill-rule="evenodd" fill-opacity="1" /><path clip-path="url(#clip040)" d="M1819.39 27.2059 L1826.85 27.2059 L1826.85 72.576 L1819.39 72.576 L1819.39 27.2059 M1819.39 9.54393 L1826.85 9.54393 L1826.85 18.9825 L1819.39 18.9825 L1819.39 9.54393 Z" fill="#000000" fill-rule="evenodd" fill-opacity="1" /><path clip-path="url(#clip040)" d="M1849.81 14.324 L1849.81 27.2059 L1865.17 27.2059 L1865.17 32.9987 L1849.81 32.9987 L1849.81 57.6282 Q1849.81 63.1779 1851.31 64.7578 Q1852.85 66.3376 1857.51 66.3376 L1865.17 66.3376 L1865.17 72.576 L1857.51 72.576 Q1848.88 72.576 1845.6 69.3758 Q1842.32 66.1351 1842.32 57.6282 L1842.32 32.9987 L1836.85 32.9987 L1836.85 27.2059 L1842.32 27.2059 L1842.32 14.324 L1849.81 14.324 Z" fill="#000000" fill-rule="evenodd" fill-opacity="1" /><path clip-path="url(#clip040)" d="M1913.78 48.0275 L1913.78 51.6733 L1879.51 51.6733 Q1879.99 59.3701 1884.13 63.421 Q1888.3 67.4314 1895.71 67.4314 Q1900 67.4314 1904.02 66.3781 Q1908.07 65.3249 1912.04 63.2184 L1912.04 70.267 Q1908.03 71.9684 1903.81 72.8596 Q1899.6 73.7508 1895.27 73.7508 Q1884.41 73.7508 1878.05 67.4314 Q1871.73 61.1119 1871.73 50.3365 Q1871.73 39.1965 1877.73 32.6746 Q1883.76 26.1121 1893.97 26.1121 Q1903.12 26.1121 1908.43 32.0264 Q1913.78 37.9003 1913.78 48.0275 M1906.32 45.84 Q1906.24 39.7232 1902.88 36.0774 Q1899.56 32.4315 1894.05 32.4315 Q1887.81 32.4315 1884.04 35.9558 Q1880.32 39.4801 1879.75 45.8805 L1906.32 45.84 Z" fill="#000000" fill-rule="evenodd" fill-opacity="1" /><path clip-path="url(#clip040)" d="M1952.3 34.1734 Q1951.05 33.4443 1949.55 33.1202 Q1948.09 32.7556 1946.31 32.7556 Q1939.99 32.7556 1936.58 36.8875 Q1933.22 40.9789 1933.22 48.6757 L1933.22 72.576 L1925.73 72.576 L1925.73 27.2059 L1933.22 27.2059 L1933.22 34.2544 Q1935.57 30.1225 1939.34 28.1376 Q1943.11 26.1121 1948.49 26.1121 Q1949.26 26.1121 1950.2 26.2337 Q1951.13 26.3147 1952.26 26.5172 L1952.3 34.1734 Z" fill="#000000" fill-rule="evenodd" fill-opacity="1" /><path clip-path="url(#clip040)" d="M1987.46 34.9026 L2039.4 34.9026 L2039.4 41.7081 L1987.46 41.7081 L1987.46 34.9026 M1987.46 51.4303 L2039.4 51.4303 L2039.4 58.3168 L1987.46 58.3168 L1987.46 51.4303 Z" fill="#000000" fill-rule="evenodd" fill-opacity="1" /><path clip-path="url(#clip040)" d="M2105.91 19.2256 L2085.25 51.5113 L2105.91 51.5113 L2105.91 19.2256 M2103.77 12.096 L2114.05 12.096 L2114.05 51.5113 L2122.68 51.5113 L2122.68 58.3168 L2114.05 58.3168 L2114.05 72.576 L2105.91 72.576 L2105.91 58.3168 L2078.61 58.3168 L2078.61 50.4176 L2103.77 12.096 Z" fill="#000000" fill-rule="evenodd" fill-opacity="1" /><path clip-path="url(#clip040)" d="M2133.99 9.62495 L2140.47 9.62495 Q2146.54 19.1851 2149.54 28.3401 Q2152.58 37.4952 2152.58 46.5287 Q2152.58 55.6027 2149.54 64.7983 Q2146.54 73.9938 2140.47 83.5134 L2133.99 83.5134 Q2139.37 74.2369 2142.01 65.0818 Q2144.68 55.8863 2144.68 46.5287 Q2144.68 37.1711 2142.01 28.0566 Q2139.37 18.942 2133.99 9.62495 Z" fill="#000000" fill-rule="evenodd" fill-opacity="1" /><circle clip-path="url(#clip042)" cx="332.155" cy="2116.96" r="36" fill="#009af9" fill-rule="evenodd" fill-opacity="0.7" stroke="#000000" stroke-opacity="0.7" stroke-width="4.8"/>
<circle clip-path="url(#clip042)" cx="332.155" cy="2116.96" r="36" fill="#009af9" fill-rule="evenodd" fill-opacity="0.7" stroke="#000000" stroke-opacity="0.7" stroke-width="4.8"/>
<circle clip-path="url(#clip042)" cx="435.404" cy="1626.83" r="36" fill="#009af9" fill-rule="evenodd" fill-opacity="0.7" stroke="#000000" stroke-opacity="0.7" stroke-width="4.8"/>
<circle clip-path="url(#clip042)" cx="538.654" cy="2021.65" r="36" fill="#009af9" fill-rule="evenodd" fill-opacity="0.7" stroke="#000000" stroke-opacity="0.7" stroke-width="4.8"/>
<circle clip-path="url(#clip042)" cx="538.654" cy="1967.2" r="36" fill="#009af9" fill-rule="evenodd" fill-opacity="0.7" stroke="#000000" stroke-opacity="0.7" stroke-width="4.8"/>
<circle clip-path="url(#clip042)" cx="538.654" cy="1926.35" r="36" fill="#009af9" fill-rule="evenodd" fill-opacity="0.7" stroke="#000000" stroke-opacity="0.7" stroke-width="4.8"/>
<circle clip-path="url(#clip042)" cx="538.654" cy="1844.66" r="36" fill="#009af9" fill-rule="evenodd" fill-opacity="0.7" stroke="#000000" stroke-opacity="0.7" stroke-width="4.8"/>
<circle clip-path="url(#clip042)" cx="538.654" cy="1762.97" r="36" fill="#009af9" fill-rule="evenodd" fill-opacity="0.7" stroke="#000000" stroke-opacity="0.7" stroke-width="4.8"/>
<circle clip-path="url(#clip042)" cx="538.654" cy="1694.9" r="36" fill="#009af9" fill-rule="evenodd" fill-opacity="0.7" stroke="#000000" stroke-opacity="0.7" stroke-width="4.8"/>
<circle clip-path="url(#clip042)" cx="538.654" cy="1694.9" r="36" fill="#009af9" fill-rule="evenodd" fill-opacity="0.7" stroke="#000000" stroke-opacity="0.7" stroke-width="4.8"/>
<circle clip-path="url(#clip042)" cx="538.654" cy="1545.14" r="36" fill="#009af9" fill-rule="evenodd" fill-opacity="0.7" stroke="#000000" stroke-opacity="0.7" stroke-width="4.8"/>
<circle clip-path="url(#clip042)" cx="641.904" cy="1694.9" r="36" fill="#009af9" fill-rule="evenodd" fill-opacity="0.7" stroke="#000000" stroke-opacity="0.7" stroke-width="4.8"/>
<circle clip-path="url(#clip042)" cx="745.154" cy="2008.04" r="36" fill="#009af9" fill-rule="evenodd" fill-opacity="0.7" stroke="#000000" stroke-opacity="0.7" stroke-width="4.8"/>
<circle clip-path="url(#clip042)" cx="745.154" cy="1926.35" r="36" fill="#009af9" fill-rule="evenodd" fill-opacity="0.7" stroke="#000000" stroke-opacity="0.7" stroke-width="4.8"/>
<circle clip-path="url(#clip042)" cx="745.154" cy="1926.35" r="36" fill="#009af9" fill-rule="evenodd" fill-opacity="0.7" stroke="#000000" stroke-opacity="0.7" stroke-width="4.8"/>
<circle clip-path="url(#clip042)" cx="745.154" cy="1762.97" r="36" fill="#009af9" fill-rule="evenodd" fill-opacity="0.7" stroke="#000000" stroke-opacity="0.7" stroke-width="4.8"/>
<circle clip-path="url(#clip042)" cx="745.154" cy="1735.75" r="36" fill="#009af9" fill-rule="evenodd" fill-opacity="0.7" stroke="#000000" stroke-opacity="0.7" stroke-width="4.8"/>
<circle clip-path="url(#clip042)" cx="848.404" cy="1926.35" r="36" fill="#009af9" fill-rule="evenodd" fill-opacity="0.7" stroke="#000000" stroke-opacity="0.7" stroke-width="4.8"/>
<circle clip-path="url(#clip042)" cx="848.404" cy="1831.05" r="36" fill="#009af9" fill-rule="evenodd" fill-opacity="0.7" stroke="#000000" stroke-opacity="0.7" stroke-width="4.8"/>
<circle clip-path="url(#clip042)" cx="848.404" cy="1803.82" r="36" fill="#009af9" fill-rule="evenodd" fill-opacity="0.7" stroke="#000000" stroke-opacity="0.7" stroke-width="4.8"/>
<circle clip-path="url(#clip042)" cx="848.404" cy="1803.82" r="36" fill="#009af9" fill-rule="evenodd" fill-opacity="0.7" stroke="#000000" stroke-opacity="0.7" stroke-width="4.8"/>
<circle clip-path="url(#clip042)" cx="848.404" cy="1735.75" r="36" fill="#009af9" fill-rule="evenodd" fill-opacity="0.7" stroke="#000000" stroke-opacity="0.7" stroke-width="4.8"/>
<circle clip-path="url(#clip042)" cx="848.404" cy="1504.29" r="36" fill="#009af9" fill-rule="evenodd" fill-opacity="0.7" stroke="#000000" stroke-opacity="0.7" stroke-width="4.8"/>
<circle clip-path="url(#clip042)" cx="848.404" cy="1272.84" r="36" fill="#009af9" fill-rule="evenodd" fill-opacity="0.7" stroke="#000000" stroke-opacity="0.7" stroke-width="4.8"/>
<circle clip-path="url(#clip042)" cx="848.404" cy="1272.84" r="36" fill="#009af9" fill-rule="evenodd" fill-opacity="0.7" stroke="#000000" stroke-opacity="0.7" stroke-width="4.8"/>
<circle clip-path="url(#clip042)" cx="951.654" cy="1953.58" r="36" fill="#009af9" fill-rule="evenodd" fill-opacity="0.7" stroke="#000000" stroke-opacity="0.7" stroke-width="4.8"/>
<circle clip-path="url(#clip042)" cx="951.654" cy="1871.89" r="36" fill="#009af9" fill-rule="evenodd" fill-opacity="0.7" stroke="#000000" stroke-opacity="0.7" stroke-width="4.8"/>
<circle clip-path="url(#clip042)" cx="951.654" cy="1722.13" r="36" fill="#009af9" fill-rule="evenodd" fill-opacity="0.7" stroke="#000000" stroke-opacity="0.7" stroke-width="4.8"/>
<circle clip-path="url(#clip042)" cx="951.654" cy="1722.13" r="36" fill="#009af9" fill-rule="evenodd" fill-opacity="0.7" stroke="#000000" stroke-opacity="0.7" stroke-width="4.8"/>
<circle clip-path="url(#clip042)" cx="951.654" cy="1572.37" r="36" fill="#009af9" fill-rule="evenodd" fill-opacity="0.7" stroke="#000000" stroke-opacity="0.7" stroke-width="4.8"/>
<circle clip-path="url(#clip042)" cx="951.654" cy="1436.22" r="36" fill="#009af9" fill-rule="evenodd" fill-opacity="0.7" stroke="#000000" stroke-opacity="0.7" stroke-width="4.8"/>
<circle clip-path="url(#clip042)" cx="1054.9" cy="1912.74" r="36" fill="#009af9" fill-rule="evenodd" fill-opacity="0.7" stroke="#000000" stroke-opacity="0.7" stroke-width="4.8"/>
<circle clip-path="url(#clip042)" cx="1054.9" cy="1776.59" r="36" fill="#009af9" fill-rule="evenodd" fill-opacity="0.7" stroke="#000000" stroke-opacity="0.7" stroke-width="4.8"/>
<circle clip-path="url(#clip042)" cx="1054.9" cy="1694.9" r="36" fill="#009af9" fill-rule="evenodd" fill-opacity="0.7" stroke="#000000" stroke-opacity="0.7" stroke-width="4.8"/>
<circle clip-path="url(#clip042)" cx="1054.9" cy="1694.9" r="36" fill="#009af9" fill-rule="evenodd" fill-opacity="0.7" stroke="#000000" stroke-opacity="0.7" stroke-width="4.8"/>
<circle clip-path="url(#clip042)" cx="1054.9" cy="1667.67" r="36" fill="#009af9" fill-rule="evenodd" fill-opacity="0.7" stroke="#000000" stroke-opacity="0.7" stroke-width="4.8"/>
<circle clip-path="url(#clip042)" cx="1054.9" cy="1585.98" r="36" fill="#009af9" fill-rule="evenodd" fill-opacity="0.7" stroke="#000000" stroke-opacity="0.7" stroke-width="4.8"/>
<circle clip-path="url(#clip042)" cx="1158.15" cy="1762.97" r="36" fill="#009af9" fill-rule="evenodd" fill-opacity="0.7" stroke="#000000" stroke-opacity="0.7" stroke-width="4.8"/>
<circle clip-path="url(#clip042)" cx="1054.9" cy="1490.68" r="36" fill="#e26f46" fill-rule="evenodd" fill-opacity="0.7" stroke="#000000" stroke-opacity="0.7" stroke-width="4.8"/>
<circle clip-path="url(#clip042)" cx="1054.9" cy="1368.15" r="36" fill="#e26f46" fill-rule="evenodd" fill-opacity="0.7" stroke="#000000" stroke-opacity="0.7" stroke-width="4.8"/>
<circle clip-path="url(#clip042)" cx="1054.9" cy="1300.07" r="36" fill="#e26f46" fill-rule="evenodd" fill-opacity="0.7" stroke="#000000" stroke-opacity="0.7" stroke-width="4.8"/>
<circle clip-path="url(#clip042)" cx="1158.15" cy="1640.44" r="36" fill="#e26f46" fill-rule="evenodd" fill-opacity="0.7" stroke="#000000" stroke-opacity="0.7" stroke-width="4.8"/>
<circle clip-path="url(#clip042)" cx="1158.15" cy="1613.21" r="36" fill="#e26f46" fill-rule="evenodd" fill-opacity="0.7" stroke="#000000" stroke-opacity="0.7" stroke-width="4.8"/>
<circle clip-path="url(#clip042)" cx="1158.15" cy="1449.84" r="36" fill="#e26f46" fill-rule="evenodd" fill-opacity="0.7" stroke="#000000" stroke-opacity="0.7" stroke-width="4.8"/>
<circle clip-path="url(#clip042)" cx="1158.15" cy="1368.15" r="36" fill="#e26f46" fill-rule="evenodd" fill-opacity="0.7" stroke="#000000" stroke-opacity="0.7" stroke-width="4.8"/>
<circle clip-path="url(#clip042)" cx="1158.15" cy="1191.16" r="36" fill="#e26f46" fill-rule="evenodd" fill-opacity="0.7" stroke="#000000" stroke-opacity="0.7" stroke-width="4.8"/>
<circle clip-path="url(#clip042)" cx="1158.15" cy="1163.93" r="36" fill="#e26f46" fill-rule="evenodd" fill-opacity="0.7" stroke="#000000" stroke-opacity="0.7" stroke-width="4.8"/>
<circle clip-path="url(#clip042)" cx="1261.4" cy="1722.13" r="36" fill="#e26f46" fill-rule="evenodd" fill-opacity="0.7" stroke="#000000" stroke-opacity="0.7" stroke-width="4.8"/>
<circle clip-path="url(#clip042)" cx="1261.4" cy="1626.83" r="36" fill="#e26f46" fill-rule="evenodd" fill-opacity="0.7" stroke="#000000" stroke-opacity="0.7" stroke-width="4.8"/>
<circle clip-path="url(#clip042)" cx="1261.4" cy="1558.75" r="36" fill="#e26f46" fill-rule="evenodd" fill-opacity="0.7" stroke="#000000" stroke-opacity="0.7" stroke-width="4.8"/>
<circle clip-path="url(#clip042)" cx="1261.4" cy="1463.45" r="36" fill="#e26f46" fill-rule="evenodd" fill-opacity="0.7" stroke="#000000" stroke-opacity="0.7" stroke-width="4.8"/>
<circle clip-path="url(#clip042)" cx="1261.4" cy="1395.38" r="36" fill="#e26f46" fill-rule="evenodd" fill-opacity="0.7" stroke="#000000" stroke-opacity="0.7" stroke-width="4.8"/>
<circle clip-path="url(#clip042)" cx="1364.65" cy="1640.44" r="36" fill="#e26f46" fill-rule="evenodd" fill-opacity="0.7" stroke="#000000" stroke-opacity="0.7" stroke-width="4.8"/>
<circle clip-path="url(#clip042)" cx="1364.65" cy="1585.98" r="36" fill="#e26f46" fill-rule="evenodd" fill-opacity="0.7" stroke="#000000" stroke-opacity="0.7" stroke-width="4.8"/>
<circle clip-path="url(#clip042)" cx="1364.65" cy="1558.75" r="36" fill="#e26f46" fill-rule="evenodd" fill-opacity="0.7" stroke="#000000" stroke-opacity="0.7" stroke-width="4.8"/>
<circle clip-path="url(#clip042)" cx="1364.65" cy="1422.61" r="36" fill="#e26f46" fill-rule="evenodd" fill-opacity="0.7" stroke="#000000" stroke-opacity="0.7" stroke-width="4.8"/>
<circle clip-path="url(#clip042)" cx="1364.65" cy="1340.92" r="36" fill="#e26f46" fill-rule="evenodd" fill-opacity="0.7" stroke="#000000" stroke-opacity="0.7" stroke-width="4.8"/>
<circle clip-path="url(#clip042)" cx="1364.65" cy="1313.69" r="36" fill="#e26f46" fill-rule="evenodd" fill-opacity="0.7" stroke="#000000" stroke-opacity="0.7" stroke-width="4.8"/>
<circle clip-path="url(#clip042)" cx="1364.65" cy="1272.84" r="36" fill="#e26f46" fill-rule="evenodd" fill-opacity="0.7" stroke="#000000" stroke-opacity="0.7" stroke-width="4.8"/>
<circle clip-path="url(#clip042)" cx="1364.65" cy="1191.16" r="36" fill="#e26f46" fill-rule="evenodd" fill-opacity="0.7" stroke="#000000" stroke-opacity="0.7" stroke-width="4.8"/>
<circle clip-path="url(#clip042)" cx="1364.65" cy="1123.08" r="36" fill="#e26f46" fill-rule="evenodd" fill-opacity="0.7" stroke="#000000" stroke-opacity="0.7" stroke-width="4.8"/>
<circle clip-path="url(#clip042)" cx="1467.9" cy="1654.06" r="36" fill="#e26f46" fill-rule="evenodd" fill-opacity="0.7" stroke="#000000" stroke-opacity="0.7" stroke-width="4.8"/>
<circle clip-path="url(#clip042)" cx="1467.9" cy="1436.22" r="36" fill="#e26f46" fill-rule="evenodd" fill-opacity="0.7" stroke="#000000" stroke-opacity="0.7" stroke-width="4.8"/>
<circle clip-path="url(#clip042)" cx="1467.9" cy="1354.53" r="36" fill="#e26f46" fill-rule="evenodd" fill-opacity="0.7" stroke="#000000" stroke-opacity="0.7" stroke-width="4.8"/>
<circle clip-path="url(#clip042)" cx="1467.9" cy="1300.07" r="36" fill="#e26f46" fill-rule="evenodd" fill-opacity="0.7" stroke="#000000" stroke-opacity="0.7" stroke-width="4.8"/>
<circle clip-path="url(#clip042)" cx="1467.9" cy="1232" r="36" fill="#e26f46" fill-rule="evenodd" fill-opacity="0.7" stroke="#000000" stroke-opacity="0.7" stroke-width="4.8"/>
<circle clip-path="url(#clip042)" cx="1467.9" cy="1055.01" r="36" fill="#e26f46" fill-rule="evenodd" fill-opacity="0.7" stroke="#000000" stroke-opacity="0.7" stroke-width="4.8"/>
<circle clip-path="url(#clip042)" cx="1571.15" cy="1422.61" r="36" fill="#e26f46" fill-rule="evenodd" fill-opacity="0.7" stroke="#000000" stroke-opacity="0.7" stroke-width="4.8"/>
<circle clip-path="url(#clip042)" cx="1571.15" cy="1381.76" r="36" fill="#e26f46" fill-rule="evenodd" fill-opacity="0.7" stroke="#000000" stroke-opacity="0.7" stroke-width="4.8"/>
<circle clip-path="url(#clip042)" cx="1571.15" cy="1327.3" r="36" fill="#e26f46" fill-rule="evenodd" fill-opacity="0.7" stroke="#000000" stroke-opacity="0.7" stroke-width="4.8"/>
<circle clip-path="url(#clip042)" cx="1571.15" cy="1232" r="36" fill="#e26f46" fill-rule="evenodd" fill-opacity="0.7" stroke="#000000" stroke-opacity="0.7" stroke-width="4.8"/>
<circle clip-path="url(#clip042)" cx="1571.15" cy="1163.93" r="36" fill="#e26f46" fill-rule="evenodd" fill-opacity="0.7" stroke="#000000" stroke-opacity="0.7" stroke-width="4.8"/>
<circle clip-path="url(#clip042)" cx="1571.15" cy="1150.31" r="36" fill="#e26f46" fill-rule="evenodd" fill-opacity="0.7" stroke="#000000" stroke-opacity="0.7" stroke-width="4.8"/>
<circle clip-path="url(#clip042)" cx="1674.4" cy="1436.22" r="36" fill="#e26f46" fill-rule="evenodd" fill-opacity="0.7" stroke="#000000" stroke-opacity="0.7" stroke-width="4.8"/>
<circle clip-path="url(#clip042)" cx="1674.4" cy="1368.15" r="36" fill="#e26f46" fill-rule="evenodd" fill-opacity="0.7" stroke="#000000" stroke-opacity="0.7" stroke-width="4.8"/>
<circle clip-path="url(#clip042)" cx="1777.65" cy="1477.07" r="36" fill="#e26f46" fill-rule="evenodd" fill-opacity="0.7" stroke="#000000" stroke-opacity="0.7" stroke-width="4.8"/>
<circle clip-path="url(#clip042)" cx="1674.4" cy="1082.24" r="36" fill="#3da44d" fill-rule="evenodd" fill-opacity="0.7" stroke="#000000" stroke-opacity="0.7" stroke-width="4.8"/>
<circle clip-path="url(#clip042)" cx="1674.4" cy="973.32" r="36" fill="#3da44d" fill-rule="evenodd" fill-opacity="0.7" stroke="#000000" stroke-opacity="0.7" stroke-width="4.8"/>
<circle clip-path="url(#clip042)" cx="1674.4" cy="905.246" r="36" fill="#3da44d" fill-rule="evenodd" fill-opacity="0.7" stroke="#000000" stroke-opacity="0.7" stroke-width="4.8"/>
<circle clip-path="url(#clip042)" cx="1777.65" cy="1340.92" r="36" fill="#3da44d" fill-rule="evenodd" fill-opacity="0.7" stroke="#000000" stroke-opacity="0.7" stroke-width="4.8"/>
<circle clip-path="url(#clip042)" cx="1777.65" cy="1313.69" r="36" fill="#3da44d" fill-rule="evenodd" fill-opacity="0.7" stroke="#000000" stroke-opacity="0.7" stroke-width="4.8"/>
<circle clip-path="url(#clip042)" cx="1777.65" cy="1259.23" r="36" fill="#3da44d" fill-rule="evenodd" fill-opacity="0.7" stroke="#000000" stroke-opacity="0.7" stroke-width="4.8"/>
<circle clip-path="url(#clip042)" cx="1777.65" cy="1041.39" r="36" fill="#3da44d" fill-rule="evenodd" fill-opacity="0.7" stroke="#000000" stroke-opacity="0.7" stroke-width="4.8"/>
<circle clip-path="url(#clip042)" cx="1880.9" cy="1408.99" r="36" fill="#3da44d" fill-rule="evenodd" fill-opacity="0.7" stroke="#000000" stroke-opacity="0.7" stroke-width="4.8"/>
<circle clip-path="url(#clip042)" cx="1880.9" cy="1245.61" r="36" fill="#3da44d" fill-rule="evenodd" fill-opacity="0.7" stroke="#000000" stroke-opacity="0.7" stroke-width="4.8"/>
<circle clip-path="url(#clip042)" cx="1880.9" cy="878.016" r="36" fill="#3da44d" fill-rule="evenodd" fill-opacity="0.7" stroke="#000000" stroke-opacity="0.7" stroke-width="4.8"/>
<circle clip-path="url(#clip042)" cx="1880.9" cy="864.402" r="36" fill="#3da44d" fill-rule="evenodd" fill-opacity="0.7" stroke="#000000" stroke-opacity="0.7" stroke-width="4.8"/>
<circle clip-path="url(#clip042)" cx="1880.9" cy="660.181" r="36" fill="#3da44d" fill-rule="evenodd" fill-opacity="0.7" stroke="#000000" stroke-opacity="0.7" stroke-width="4.8"/>
<circle clip-path="url(#clip042)" cx="1984.15" cy="1395.38" r="36" fill="#3da44d" fill-rule="evenodd" fill-opacity="0.7" stroke="#000000" stroke-opacity="0.7" stroke-width="4.8"/>
<circle clip-path="url(#clip042)" cx="1984.15" cy="1191.16" r="36" fill="#3da44d" fill-rule="evenodd" fill-opacity="0.7" stroke="#000000" stroke-opacity="0.7" stroke-width="4.8"/>
<circle clip-path="url(#clip042)" cx="1984.15" cy="986.934" r="36" fill="#3da44d" fill-rule="evenodd" fill-opacity="0.7" stroke="#000000" stroke-opacity="0.7" stroke-width="4.8"/>
<circle clip-path="url(#clip042)" cx="1984.15" cy="959.705" r="36" fill="#3da44d" fill-rule="evenodd" fill-opacity="0.7" stroke="#000000" stroke-opacity="0.7" stroke-width="4.8"/>
<circle clip-path="url(#clip042)" cx="2087.4" cy="1504.29" r="36" fill="#3da44d" fill-rule="evenodd" fill-opacity="0.7" stroke="#000000" stroke-opacity="0.7" stroke-width="4.8"/>
<circle clip-path="url(#clip042)" cx="2190.65" cy="986.934" r="36" fill="#3da44d" fill-rule="evenodd" fill-opacity="0.7" stroke="#000000" stroke-opacity="0.7" stroke-width="4.8"/>
<circle clip-path="url(#clip042)" cx="2190.65" cy="714.639" r="36" fill="#3da44d" fill-rule="evenodd" fill-opacity="0.7" stroke="#000000" stroke-opacity="0.7" stroke-width="4.8"/>
<circle clip-path="url(#clip042)" cx="2293.9" cy="1041.39" r="36" fill="#3da44d" fill-rule="evenodd" fill-opacity="0.7" stroke="#000000" stroke-opacity="0.7" stroke-width="4.8"/>
<circle clip-path="url(#clip042)" cx="2293.9" cy="210.894" r="36" fill="#3da44d" fill-rule="evenodd" fill-opacity="0.7" stroke="#000000" stroke-opacity="0.7" stroke-width="4.8"/>
<circle clip-path="url(#clip042)" cx="783.194" cy="1760.47" r="72" fill="#ffff00" fill-rule="evenodd" fill-opacity="0.7" stroke="#000000" stroke-opacity="0.7" stroke-width="4.8"/>
<circle clip-path="url(#clip042)" cx="1370.09" cy="1389.29" r="72" fill="#ffff00" fill-rule="evenodd" fill-opacity="0.7" stroke="#000000" stroke-opacity="0.7" stroke-width="4.8"/>
<circle clip-path="url(#clip042)" cx="1930.07" cy="1045.93" r="72" fill="#ffff00" fill-rule="evenodd" fill-opacity="0.7" stroke="#000000" stroke-opacity="0.7" stroke-width="4.8"/>
</svg>
