<svg xmlns="http://www.w3.org/2000/svg" xmlns:xlink="http://www.w3.org/1999/xlink" width="600" height="400" viewBox="0 0 2400 1600">
<defs>
  <clipPath id="clip740">
    <rect x="0" y="0" width="2400" height="1600"></rect>
  </clipPath>
</defs>
<path clip-path="url(#clip740)" d="M0 1600 L2400 1600 L2400 0 L0 0  Z" fill="#ffffff" fill-rule="evenodd" fill-opacity="1"></path>
<defs>
  <clipPath id="clip741">
    <rect x="480" y="0" width="1681" height="1600"></rect>
  </clipPath>
</defs>
<path clip-path="url(#clip740)" d="M287.366 1423.18 L2352.76 1423.18 L2352.76 123.472 L287.366 123.472  Z" fill="#ffffff" fill-rule="evenodd" fill-opacity="1"></path>
<defs>
  <clipPath id="clip742">
    <rect x="287" y="123" width="2066" height="1301"></rect>
  </clipPath>
</defs>
<polyline clip-path="url(#clip742)" style="stroke:#000000; stroke-linecap:round; stroke-linejoin:round; stroke-width:2; stroke-opacity:0.1; fill:none" points="345.82,1423.18 345.82,123.472 "></polyline>
<polyline clip-path="url(#clip742)" style="stroke:#000000; stroke-linecap:round; stroke-linejoin:round; stroke-width:2; stroke-opacity:0.1; fill:none" points="670.567,1423.18 670.567,123.472 "></polyline>
<polyline clip-path="url(#clip742)" style="stroke:#000000; stroke-linecap:round; stroke-linejoin:round; stroke-width:2; stroke-opacity:0.1; fill:none" points="995.314,1423.18 995.314,123.472 "></polyline>
<polyline clip-path="url(#clip742)" style="stroke:#000000; stroke-linecap:round; stroke-linejoin:round; stroke-width:2; stroke-opacity:0.1; fill:none" points="1320.06,1423.18 1320.06,123.472 "></polyline>
<polyline clip-path="url(#clip742)" style="stroke:#000000; stroke-linecap:round; stroke-linejoin:round; stroke-width:2; stroke-opacity:0.1; fill:none" points="1644.81,1423.18 1644.81,123.472 "></polyline>
<polyline clip-path="url(#clip742)" style="stroke:#000000; stroke-linecap:round; stroke-linejoin:round; stroke-width:2; stroke-opacity:0.1; fill:none" points="1969.55,1423.18 1969.55,123.472 "></polyline>
<polyline clip-path="url(#clip742)" style="stroke:#000000; stroke-linecap:round; stroke-linejoin:round; stroke-width:2; stroke-opacity:0.1; fill:none" points="2294.3,1423.18 2294.3,123.472 "></polyline>
<polyline clip-path="url(#clip740)" style="stroke:#000000; stroke-linecap:round; stroke-linejoin:round; stroke-width:4; stroke-opacity:1; fill:none" points="287.366,1423.18 2352.76,1423.18 "></polyline>
<polyline clip-path="url(#clip740)" style="stroke:#000000; stroke-linecap:round; stroke-linejoin:round; stroke-width:4; stroke-opacity:1; fill:none" points="345.82,1423.18 345.82,1404.28 "></polyline>
<polyline clip-path="url(#clip740)" style="stroke:#000000; stroke-linecap:round; stroke-linejoin:round; stroke-width:4; stroke-opacity:1; fill:none" points="670.567,1423.18 670.567,1404.28 "></polyline>
<polyline clip-path="url(#clip740)" style="stroke:#000000; stroke-linecap:round; stroke-linejoin:round; stroke-width:4; stroke-opacity:1; fill:none" points="995.314,1423.18 995.314,1404.28 "></polyline>
<polyline clip-path="url(#clip740)" style="stroke:#000000; stroke-linecap:round; stroke-linejoin:round; stroke-width:4; stroke-opacity:1; fill:none" points="1320.06,1423.18 1320.06,1404.28 "></polyline>
<polyline clip-path="url(#clip740)" style="stroke:#000000; stroke-linecap:round; stroke-linejoin:round; stroke-width:4; stroke-opacity:1; fill:none" points="1644.81,1423.18 1644.81,1404.28 "></polyline>
<polyline clip-path="url(#clip740)" style="stroke:#000000; stroke-linecap:round; stroke-linejoin:round; stroke-width:4; stroke-opacity:1; fill:none" points="1969.55,1423.18 1969.55,1404.28 "></polyline>
<polyline clip-path="url(#clip740)" style="stroke:#000000; stroke-linecap:round; stroke-linejoin:round; stroke-width:4; stroke-opacity:1; fill:none" points="2294.3,1423.18 2294.3,1404.28 "></polyline>
<path clip-path="url(#clip740)" d="M345.82 1454.1 Q342.209 1454.1 340.381 1457.66 Q338.575 1461.2 338.575 1468.33 Q338.575 1475.44 340.381 1479.01 Q342.209 1482.55 345.82 1482.55 Q349.455 1482.55 351.26 1479.01 Q353.089 1475.44 353.089 1468.33 Q353.089 1461.2 351.26 1457.66 Q349.455 1454.1 345.82 1454.1 M345.82 1450.39 Q351.63 1450.39 354.686 1455 Q357.765 1459.58 357.765 1468.33 Q357.765 1477.06 354.686 1481.67 Q351.63 1486.25 345.82 1486.25 Q340.01 1486.25 336.931 1481.67 Q333.876 1477.06 333.876 1468.33 Q333.876 1459.58 336.931 1455 Q340.01 1450.39 345.82 1450.39 Z" fill="#000000" fill-rule="nonzero" fill-opacity="1"></path><path clip-path="url(#clip740)" d="M645.255 1481.64 L652.894 1481.64 L652.894 1455.28 L644.584 1456.95 L644.584 1452.69 L652.847 1451.02 L657.523 1451.02 L657.523 1481.64 L665.162 1481.64 L665.162 1485.58 L645.255 1485.58 L645.255 1481.64 Z" fill="#000000" fill-rule="nonzero" fill-opacity="1"></path><path clip-path="url(#clip740)" d="M684.606 1454.1 Q680.995 1454.1 679.167 1457.66 Q677.361 1461.2 677.361 1468.33 Q677.361 1475.44 679.167 1479.01 Q680.995 1482.55 684.606 1482.55 Q688.241 1482.55 690.046 1479.01 Q691.875 1475.44 691.875 1468.33 Q691.875 1461.2 690.046 1457.66 Q688.241 1454.1 684.606 1454.1 M684.606 1450.39 Q690.417 1450.39 693.472 1455 Q696.551 1459.58 696.551 1468.33 Q696.551 1477.06 693.472 1481.67 Q690.417 1486.25 684.606 1486.25 Q678.796 1486.25 675.718 1481.67 Q672.662 1477.06 672.662 1468.33 Q672.662 1459.58 675.718 1455 Q678.796 1450.39 684.606 1450.39 Z" fill="#000000" fill-rule="nonzero" fill-opacity="1"></path><path clip-path="url(#clip740)" d="M974.087 1481.64 L990.407 1481.64 L990.407 1485.58 L968.462 1485.58 L968.462 1481.64 Q971.124 1478.89 975.708 1474.26 Q980.314 1469.61 981.495 1468.27 Q983.74 1465.74 984.62 1464.01 Q985.522 1462.25 985.522 1460.56 Q985.522 1457.8 983.578 1456.07 Q981.657 1454.33 978.555 1454.33 Q976.356 1454.33 973.902 1455.09 Q971.472 1455.86 968.694 1457.41 L968.694 1452.69 Q971.518 1451.55 973.972 1450.97 Q976.425 1450.39 978.462 1450.39 Q983.833 1450.39 987.027 1453.08 Q990.221 1455.77 990.221 1460.26 Q990.221 1462.39 989.411 1464.31 Q988.624 1466.2 986.518 1468.8 Q985.939 1469.47 982.837 1472.69 Q979.735 1475.88 974.087 1481.64 Z" fill="#000000" fill-rule="nonzero" fill-opacity="1"></path><path clip-path="url(#clip740)" d="M1010.22 1454.1 Q1006.61 1454.1 1004.78 1457.66 Q1002.98 1461.2 1002.98 1468.33 Q1002.98 1475.44 1004.78 1479.01 Q1006.61 1482.55 1010.22 1482.55 Q1013.86 1482.55 1015.66 1479.01 Q1017.49 1475.44 1017.49 1468.33 Q1017.49 1461.2 1015.66 1457.66 Q1013.86 1454.1 1010.22 1454.1 M1010.22 1450.39 Q1016.03 1450.39 1019.09 1455 Q1022.17 1459.58 1022.17 1468.33 Q1022.17 1477.06 1019.09 1481.67 Q1016.03 1486.25 1010.22 1486.25 Q1004.41 1486.25 1001.33 1481.67 Q998.277 1477.06 998.277 1468.33 Q998.277 1459.58 1001.33 1455 Q1004.41 1450.39 1010.22 1450.39 Z" fill="#000000" fill-rule="nonzero" fill-opacity="1"></path><path clip-path="url(#clip740)" d="M1308.9 1466.95 Q1312.26 1467.66 1314.14 1469.93 Q1316.03 1472.2 1316.03 1475.53 Q1316.03 1480.65 1312.51 1483.45 Q1309 1486.25 1302.51 1486.25 Q1300.34 1486.25 1298.02 1485.81 Q1295.73 1485.39 1293.28 1484.54 L1293.28 1480.02 Q1295.22 1481.16 1297.54 1481.74 Q1299.85 1482.32 1302.38 1482.32 Q1306.77 1482.32 1309.07 1480.58 Q1311.38 1478.84 1311.38 1475.53 Q1311.38 1472.48 1309.23 1470.77 Q1307.1 1469.03 1303.28 1469.03 L1299.25 1469.03 L1299.25 1465.19 L1303.46 1465.19 Q1306.91 1465.19 1308.74 1463.82 Q1310.57 1462.43 1310.57 1459.84 Q1310.57 1457.18 1308.67 1455.77 Q1306.8 1454.33 1303.28 1454.33 Q1301.36 1454.33 1299.16 1454.75 Q1296.96 1455.16 1294.32 1456.04 L1294.32 1451.88 Q1296.98 1451.14 1299.3 1450.77 Q1301.64 1450.39 1303.7 1450.39 Q1309.02 1450.39 1312.12 1452.83 Q1315.22 1455.23 1315.22 1459.35 Q1315.22 1462.22 1313.58 1464.21 Q1311.94 1466.18 1308.9 1466.95 Z" fill="#000000" fill-rule="nonzero" fill-opacity="1"></path><path clip-path="url(#clip740)" d="M1334.9 1454.1 Q1331.29 1454.1 1329.46 1457.66 Q1327.65 1461.2 1327.65 1468.33 Q1327.65 1475.44 1329.46 1479.01 Q1331.29 1482.55 1334.9 1482.55 Q1338.53 1482.55 1340.34 1479.01 Q1342.17 1475.44 1342.17 1468.33 Q1342.17 1461.2 1340.34 1457.66 Q1338.53 1454.1 1334.9 1454.1 M1334.9 1450.39 Q1340.71 1450.39 1343.76 1455 Q1346.84 1459.58 1346.84 1468.33 Q1346.84 1477.06 1343.76 1481.67 Q1340.71 1486.25 1334.9 1486.25 Q1329.09 1486.25 1326.01 1481.67 Q1322.95 1477.06 1322.95 1468.33 Q1322.95 1459.58 1326.01 1455 Q1329.09 1450.39 1334.9 1450.39 Z" fill="#000000" fill-rule="nonzero" fill-opacity="1"></path><path clip-path="url(#clip740)" d="M1632.98 1455.09 L1621.17 1473.54 L1632.98 1473.54 L1632.98 1455.09 M1631.75 1451.02 L1637.63 1451.02 L1637.63 1473.54 L1642.56 1473.54 L1642.56 1477.43 L1637.63 1477.43 L1637.63 1485.58 L1632.98 1485.58 L1632.98 1477.43 L1617.38 1477.43 L1617.38 1472.92 L1631.75 1451.02 Z" fill="#000000" fill-rule="nonzero" fill-opacity="1"></path><path clip-path="url(#clip740)" d="M1660.29 1454.1 Q1656.68 1454.1 1654.85 1457.66 Q1653.05 1461.2 1653.05 1468.33 Q1653.05 1475.44 1654.85 1479.01 Q1656.68 1482.55 1660.29 1482.55 Q1663.93 1482.55 1665.73 1479.01 Q1667.56 1475.44 1667.56 1468.33 Q1667.56 1461.2 1665.73 1457.66 Q1663.93 1454.1 1660.29 1454.1 M1660.29 1450.39 Q1666.1 1450.39 1669.16 1455 Q1672.24 1459.58 1672.24 1468.33 Q1672.24 1477.06 1669.16 1481.67 Q1666.1 1486.25 1660.29 1486.25 Q1654.48 1486.25 1651.4 1481.67 Q1648.35 1477.06 1648.35 1468.33 Q1648.35 1459.58 1651.4 1455 Q1654.48 1450.39 1660.29 1450.39 Z" fill="#000000" fill-rule="nonzero" fill-opacity="1"></path><path clip-path="url(#clip740)" d="M1944.25 1451.02 L1962.61 1451.02 L1962.61 1454.96 L1948.54 1454.96 L1948.54 1463.43 Q1949.55 1463.08 1950.57 1462.92 Q1951.59 1462.73 1952.61 1462.73 Q1958.4 1462.73 1961.78 1465.9 Q1965.16 1469.08 1965.16 1474.49 Q1965.16 1480.07 1961.68 1483.17 Q1958.21 1486.25 1951.89 1486.25 Q1949.72 1486.25 1947.45 1485.88 Q1945.2 1485.51 1942.8 1484.77 L1942.8 1480.07 Q1944.88 1481.2 1947.1 1481.76 Q1949.32 1482.32 1951.8 1482.32 Q1955.8 1482.32 1958.14 1480.21 Q1960.48 1478.1 1960.48 1474.49 Q1960.48 1470.88 1958.14 1468.77 Q1955.8 1466.67 1951.8 1466.67 Q1949.93 1466.67 1948.05 1467.08 Q1946.2 1467.5 1944.25 1468.38 L1944.25 1451.02 Z" fill="#000000" fill-rule="nonzero" fill-opacity="1"></path><path clip-path="url(#clip740)" d="M1984.37 1454.1 Q1980.76 1454.1 1978.93 1457.66 Q1977.12 1461.2 1977.12 1468.33 Q1977.12 1475.44 1978.93 1479.01 Q1980.76 1482.55 1984.37 1482.55 Q1988 1482.55 1989.81 1479.01 Q1991.64 1475.44 1991.64 1468.33 Q1991.64 1461.2 1989.81 1457.66 Q1988 1454.1 1984.37 1454.1 M1984.37 1450.39 Q1990.18 1450.39 1993.24 1455 Q1996.31 1459.58 1996.31 1468.33 Q1996.31 1477.06 1993.24 1481.67 Q1990.18 1486.25 1984.37 1486.25 Q1978.56 1486.25 1975.48 1481.67 Q1972.42 1477.06 1972.42 1468.33 Q1972.42 1459.58 1975.48 1455 Q1978.56 1450.39 1984.37 1450.39 Z" fill="#000000" fill-rule="nonzero" fill-opacity="1"></path><path clip-path="url(#clip740)" d="M2279.71 1466.44 Q2276.56 1466.44 2274.71 1468.59 Q2272.88 1470.74 2272.88 1474.49 Q2272.88 1478.22 2274.71 1480.39 Q2276.56 1482.55 2279.71 1482.55 Q2282.85 1482.55 2284.68 1480.39 Q2286.54 1478.22 2286.54 1474.49 Q2286.54 1470.74 2284.68 1468.59 Q2282.85 1466.44 2279.71 1466.44 M2288.99 1451.78 L2288.99 1456.04 Q2287.23 1455.21 2285.42 1454.77 Q2283.64 1454.33 2281.88 1454.33 Q2277.25 1454.33 2274.8 1457.45 Q2272.37 1460.58 2272.02 1466.9 Q2273.39 1464.89 2275.45 1463.82 Q2277.51 1462.73 2279.98 1462.73 Q2285.19 1462.73 2288.2 1465.9 Q2291.23 1469.05 2291.23 1474.49 Q2291.23 1479.82 2288.09 1483.03 Q2284.94 1486.25 2279.71 1486.25 Q2273.71 1486.25 2270.54 1481.67 Q2267.37 1477.06 2267.37 1468.33 Q2267.37 1460.14 2271.26 1455.28 Q2275.15 1450.39 2281.7 1450.39 Q2283.46 1450.39 2285.24 1450.74 Q2287.04 1451.09 2288.99 1451.78 Z" fill="#000000" fill-rule="nonzero" fill-opacity="1"></path><path clip-path="url(#clip740)" d="M2309.29 1454.1 Q2305.68 1454.1 2303.85 1457.66 Q2302.04 1461.2 2302.04 1468.33 Q2302.04 1475.44 2303.85 1479.01 Q2305.68 1482.55 2309.29 1482.55 Q2312.92 1482.55 2314.73 1479.01 Q2316.56 1475.44 2316.56 1468.33 Q2316.56 1461.2 2314.73 1457.66 Q2312.92 1454.1 2309.29 1454.1 M2309.29 1450.39 Q2315.1 1450.39 2318.16 1455 Q2321.23 1459.58 2321.23 1468.33 Q2321.23 1477.06 2318.16 1481.67 Q2315.1 1486.25 2309.29 1486.25 Q2303.48 1486.25 2300.4 1481.67 Q2297.35 1477.06 2297.35 1468.33 Q2297.35 1459.58 2300.4 1455 Q2303.48 1450.39 2309.29 1450.39 Z" fill="#000000" fill-rule="nonzero" fill-opacity="1"></path><path clip-path="url(#clip740)" d="M1319.12 1522.27 L1319.12 1532.4 L1331.18 1532.4 L1331.18 1536.95 L1319.12 1536.95 L1319.12 1556.3 Q1319.12 1560.66 1320.3 1561.9 Q1321.51 1563.14 1325.17 1563.14 L1331.18 1563.14 L1331.18 1568.04 L1325.17 1568.04 Q1318.39 1568.04 1315.81 1565.53 Q1313.23 1562.98 1313.23 1556.3 L1313.23 1536.95 L1308.94 1536.95 L1308.94 1532.4 L1313.23 1532.4 L1313.23 1522.27 L1319.12 1522.27 Z" fill="#000000" fill-rule="nonzero" fill-opacity="1"></path><polyline clip-path="url(#clip742)" style="stroke:#000000; stroke-linecap:round; stroke-linejoin:round; stroke-width:2; stroke-opacity:0.1; fill:none" points="287.366,1284.22 2352.76,1284.22 "></polyline>
<polyline clip-path="url(#clip742)" style="stroke:#000000; stroke-linecap:round; stroke-linejoin:round; stroke-width:2; stroke-opacity:0.1; fill:none" points="287.366,1028.77 2352.76,1028.77 "></polyline>
<polyline clip-path="url(#clip742)" style="stroke:#000000; stroke-linecap:round; stroke-linejoin:round; stroke-width:2; stroke-opacity:0.1; fill:none" points="287.366,773.326 2352.76,773.326 "></polyline>
<polyline clip-path="url(#clip742)" style="stroke:#000000; stroke-linecap:round; stroke-linejoin:round; stroke-width:2; stroke-opacity:0.1; fill:none" points="287.366,517.88 2352.76,517.88 "></polyline>
<polyline clip-path="url(#clip742)" style="stroke:#000000; stroke-linecap:round; stroke-linejoin:round; stroke-width:2; stroke-opacity:0.1; fill:none" points="287.366,262.435 2352.76,262.435 "></polyline>
<polyline clip-path="url(#clip740)" style="stroke:#000000; stroke-linecap:round; stroke-linejoin:round; stroke-width:4; stroke-opacity:1; fill:none" points="287.366,1423.18 287.366,123.472 "></polyline>
<polyline clip-path="url(#clip740)" style="stroke:#000000; stroke-linecap:round; stroke-linejoin:round; stroke-width:4; stroke-opacity:1; fill:none" points="287.366,1284.22 306.264,1284.22 "></polyline>
<polyline clip-path="url(#clip740)" style="stroke:#000000; stroke-linecap:round; stroke-linejoin:round; stroke-width:4; stroke-opacity:1; fill:none" points="287.366,1028.77 306.264,1028.77 "></polyline>
<polyline clip-path="url(#clip740)" style="stroke:#000000; stroke-linecap:round; stroke-linejoin:round; stroke-width:4; stroke-opacity:1; fill:none" points="287.366,773.326 306.264,773.326 "></polyline>
<polyline clip-path="url(#clip740)" style="stroke:#000000; stroke-linecap:round; stroke-linejoin:round; stroke-width:4; stroke-opacity:1; fill:none" points="287.366,517.88 306.264,517.88 "></polyline>
<polyline clip-path="url(#clip740)" style="stroke:#000000; stroke-linecap:round; stroke-linejoin:round; stroke-width:4; stroke-opacity:1; fill:none" points="287.366,262.435 306.264,262.435 "></polyline>
<path clip-path="url(#clip740)" d="M114.26 1284.67 L143.936 1284.67 L143.936 1288.6 L114.26 1288.6 L114.26 1284.67 Z" fill="#000000" fill-rule="nonzero" fill-opacity="1"></path><path clip-path="url(#clip740)" d="M164.028 1270.02 Q160.417 1270.02 158.589 1273.58 Q156.783 1277.12 156.783 1284.25 Q156.783 1291.36 158.589 1294.92 Q160.417 1298.46 164.028 1298.46 Q167.663 1298.46 169.468 1294.92 Q171.297 1291.36 171.297 1284.25 Q171.297 1277.12 169.468 1273.58 Q167.663 1270.02 164.028 1270.02 M164.028 1266.31 Q169.839 1266.31 172.894 1270.92 Q175.973 1275.5 175.973 1284.25 Q175.973 1292.98 172.894 1297.59 Q169.839 1302.17 164.028 1302.17 Q158.218 1302.17 155.14 1297.59 Q152.084 1292.98 152.084 1284.25 Q152.084 1275.5 155.14 1270.92 Q158.218 1266.31 164.028 1266.31 Z" fill="#000000" fill-rule="nonzero" fill-opacity="1"></path><path clip-path="url(#clip740)" d="M184.19 1295.62 L189.075 1295.62 L189.075 1301.5 L184.19 1301.5 L184.19 1295.62 Z" fill="#000000" fill-rule="nonzero" fill-opacity="1"></path><path clip-path="url(#clip740)" d="M199.306 1266.94 L217.662 1266.94 L217.662 1270.87 L203.588 1270.87 L203.588 1279.34 Q204.607 1279 205.625 1278.84 Q206.644 1278.65 207.662 1278.65 Q213.449 1278.65 216.829 1281.82 Q220.209 1284.99 220.209 1290.41 Q220.209 1295.99 216.736 1299.09 Q213.264 1302.17 206.945 1302.17 Q204.769 1302.17 202.5 1301.8 Q200.255 1301.43 197.848 1300.69 L197.848 1295.99 Q199.931 1297.12 202.153 1297.68 Q204.375 1298.23 206.852 1298.23 Q210.857 1298.23 213.195 1296.13 Q215.533 1294.02 215.533 1290.41 Q215.533 1286.8 213.195 1284.69 Q210.857 1282.59 206.852 1282.59 Q204.977 1282.59 203.102 1283 Q201.25 1283.42 199.306 1284.3 L199.306 1266.94 Z" fill="#000000" fill-rule="nonzero" fill-opacity="1"></path><path clip-path="url(#clip740)" d="M239.422 1270.02 Q235.81 1270.02 233.982 1273.58 Q232.176 1277.12 232.176 1284.25 Q232.176 1291.36 233.982 1294.92 Q235.81 1298.46 239.422 1298.46 Q243.056 1298.46 244.861 1294.92 Q246.69 1291.36 246.69 1284.25 Q246.69 1277.12 244.861 1273.58 Q243.056 1270.02 239.422 1270.02 M239.422 1266.31 Q245.232 1266.31 248.287 1270.92 Q251.366 1275.5 251.366 1284.25 Q251.366 1292.98 248.287 1297.59 Q245.232 1302.17 239.422 1302.17 Q233.611 1302.17 230.533 1297.59 Q227.477 1292.98 227.477 1284.25 Q227.477 1275.5 230.533 1270.92 Q233.611 1266.31 239.422 1266.31 Z" fill="#000000" fill-rule="nonzero" fill-opacity="1"></path><path clip-path="url(#clip740)" d="M115.256 1029.22 L144.931 1029.22 L144.931 1033.16 L115.256 1033.16 L115.256 1029.22 Z" fill="#000000" fill-rule="nonzero" fill-opacity="1"></path><path clip-path="url(#clip740)" d="M165.024 1014.57 Q161.413 1014.57 159.584 1018.14 Q157.778 1021.68 157.778 1028.81 Q157.778 1035.91 159.584 1039.48 Q161.413 1043.02 165.024 1043.02 Q168.658 1043.02 170.464 1039.48 Q172.292 1035.91 172.292 1028.81 Q172.292 1021.68 170.464 1018.14 Q168.658 1014.57 165.024 1014.57 M165.024 1010.87 Q170.834 1010.87 173.889 1015.47 Q176.968 1020.06 176.968 1028.81 Q176.968 1037.53 173.889 1042.14 Q170.834 1046.72 165.024 1046.72 Q159.214 1046.72 156.135 1042.14 Q153.079 1037.53 153.079 1028.81 Q153.079 1020.06 156.135 1015.47 Q159.214 1010.87 165.024 1010.87 Z" fill="#000000" fill-rule="nonzero" fill-opacity="1"></path><path clip-path="url(#clip740)" d="M185.186 1040.17 L190.07 1040.17 L190.07 1046.05 L185.186 1046.05 L185.186 1040.17 Z" fill="#000000" fill-rule="nonzero" fill-opacity="1"></path><path clip-path="url(#clip740)" d="M204.283 1042.12 L220.602 1042.12 L220.602 1046.05 L198.658 1046.05 L198.658 1042.12 Q201.32 1039.36 205.903 1034.73 Q210.51 1030.08 211.69 1028.74 Q213.936 1026.21 214.815 1024.48 Q215.718 1022.72 215.718 1021.03 Q215.718 1018.27 213.774 1016.54 Q211.852 1014.8 208.75 1014.8 Q206.551 1014.8 204.098 1015.57 Q201.667 1016.33 198.889 1017.88 L198.889 1013.16 Q201.713 1012.02 204.167 1011.45 Q206.621 1010.87 208.658 1010.87 Q214.028 1010.87 217.223 1013.55 Q220.417 1016.24 220.417 1020.73 Q220.417 1022.86 219.607 1024.78 Q218.82 1026.68 216.713 1029.27 Q216.135 1029.94 213.033 1033.16 Q209.931 1036.35 204.283 1042.12 Z" fill="#000000" fill-rule="nonzero" fill-opacity="1"></path><path clip-path="url(#clip740)" d="M230.463 1011.49 L248.82 1011.49 L248.82 1015.43 L234.746 1015.43 L234.746 1023.9 Q235.764 1023.55 236.783 1023.39 Q237.801 1023.2 238.82 1023.2 Q244.607 1023.2 247.986 1026.38 Q251.366 1029.55 251.366 1034.96 Q251.366 1040.54 247.894 1043.64 Q244.421 1046.72 238.102 1046.72 Q235.926 1046.72 233.658 1046.35 Q231.412 1045.98 229.005 1045.24 L229.005 1040.54 Q231.088 1041.68 233.31 1042.23 Q235.533 1042.79 238.009 1042.79 Q242.014 1042.79 244.352 1040.68 Q246.69 1038.57 246.69 1034.96 Q246.69 1031.35 244.352 1029.25 Q242.014 1027.14 238.009 1027.14 Q236.135 1027.14 234.26 1027.56 Q232.408 1027.97 230.463 1028.85 L230.463 1011.49 Z" fill="#000000" fill-rule="nonzero" fill-opacity="1"></path><path clip-path="url(#clip740)" d="M164.028 759.125 Q160.417 759.125 158.589 762.689 Q156.783 766.231 156.783 773.361 Q156.783 780.467 158.589 784.032 Q160.417 787.574 164.028 787.574 Q167.663 787.574 169.468 784.032 Q171.297 780.467 171.297 773.361 Q171.297 766.231 169.468 762.689 Q167.663 759.125 164.028 759.125 M164.028 755.421 Q169.839 755.421 172.894 760.027 Q175.973 764.611 175.973 773.361 Q175.973 782.088 172.894 786.694 Q169.839 791.277 164.028 791.277 Q158.218 791.277 155.14 786.694 Q152.084 782.088 152.084 773.361 Q152.084 764.611 155.14 760.027 Q158.218 755.421 164.028 755.421 Z" fill="#000000" fill-rule="nonzero" fill-opacity="1"></path><path clip-path="url(#clip740)" d="M184.19 784.726 L189.075 784.726 L189.075 790.606 L184.19 790.606 L184.19 784.726 Z" fill="#000000" fill-rule="nonzero" fill-opacity="1"></path><path clip-path="url(#clip740)" d="M209.26 759.125 Q205.649 759.125 203.82 762.689 Q202.014 766.231 202.014 773.361 Q202.014 780.467 203.82 784.032 Q205.649 787.574 209.26 787.574 Q212.894 787.574 214.699 784.032 Q216.528 780.467 216.528 773.361 Q216.528 766.231 214.699 762.689 Q212.894 759.125 209.26 759.125 M209.26 755.421 Q215.07 755.421 218.125 760.027 Q221.204 764.611 221.204 773.361 Q221.204 782.088 218.125 786.694 Q215.07 791.277 209.26 791.277 Q203.449 791.277 200.371 786.694 Q197.315 782.088 197.315 773.361 Q197.315 764.611 200.371 760.027 Q203.449 755.421 209.26 755.421 Z" fill="#000000" fill-rule="nonzero" fill-opacity="1"></path><path clip-path="url(#clip740)" d="M239.422 759.125 Q235.81 759.125 233.982 762.689 Q232.176 766.231 232.176 773.361 Q232.176 780.467 233.982 784.032 Q235.81 787.574 239.422 787.574 Q243.056 787.574 244.861 784.032 Q246.69 780.467 246.69 773.361 Q246.69 766.231 244.861 762.689 Q243.056 759.125 239.422 759.125 M239.422 755.421 Q245.232 755.421 248.287 760.027 Q251.366 764.611 251.366 773.361 Q251.366 782.088 248.287 786.694 Q245.232 791.277 239.422 791.277 Q233.611 791.277 230.533 786.694 Q227.477 782.088 227.477 773.361 Q227.477 764.611 230.533 760.027 Q233.611 755.421 239.422 755.421 Z" fill="#000000" fill-rule="nonzero" fill-opacity="1"></path><path clip-path="url(#clip740)" d="M165.024 503.679 Q161.413 503.679 159.584 507.244 Q157.778 510.785 157.778 517.915 Q157.778 525.021 159.584 528.586 Q161.413 532.128 165.024 532.128 Q168.658 532.128 170.464 528.586 Q172.292 525.021 172.292 517.915 Q172.292 510.785 170.464 507.244 Q168.658 503.679 165.024 503.679 M165.024 499.975 Q170.834 499.975 173.889 504.582 Q176.968 509.165 176.968 517.915 Q176.968 526.642 173.889 531.248 Q170.834 535.832 165.024 535.832 Q159.214 535.832 156.135 531.248 Q153.079 526.642 153.079 517.915 Q153.079 509.165 156.135 504.582 Q159.214 499.975 165.024 499.975 Z" fill="#000000" fill-rule="nonzero" fill-opacity="1"></path><path clip-path="url(#clip740)" d="M185.186 529.281 L190.07 529.281 L190.07 535.16 L185.186 535.16 L185.186 529.281 Z" fill="#000000" fill-rule="nonzero" fill-opacity="1"></path><path clip-path="url(#clip740)" d="M204.283 531.225 L220.602 531.225 L220.602 535.16 L198.658 535.16 L198.658 531.225 Q201.32 528.471 205.903 523.841 Q210.51 519.188 211.69 517.846 Q213.936 515.322 214.815 513.586 Q215.718 511.827 215.718 510.137 Q215.718 507.383 213.774 505.647 Q211.852 503.91 208.75 503.91 Q206.551 503.91 204.098 504.674 Q201.667 505.438 198.889 506.989 L198.889 502.267 Q201.713 501.133 204.167 500.554 Q206.621 499.975 208.658 499.975 Q214.028 499.975 217.223 502.66 Q220.417 505.346 220.417 509.836 Q220.417 511.966 219.607 513.887 Q218.82 515.785 216.713 518.378 Q216.135 519.049 213.033 522.267 Q209.931 525.461 204.283 531.225 Z" fill="#000000" fill-rule="nonzero" fill-opacity="1"></path><path clip-path="url(#clip740)" d="M230.463 500.6 L248.82 500.6 L248.82 504.535 L234.746 504.535 L234.746 513.008 Q235.764 512.66 236.783 512.498 Q237.801 512.313 238.82 512.313 Q244.607 512.313 247.986 515.484 Q251.366 518.656 251.366 524.072 Q251.366 529.651 247.894 532.753 Q244.421 535.832 238.102 535.832 Q235.926 535.832 233.658 535.461 Q231.412 535.091 229.005 534.35 L229.005 529.651 Q231.088 530.785 233.31 531.341 Q235.533 531.896 238.009 531.896 Q242.014 531.896 244.352 529.79 Q246.69 527.683 246.69 524.072 Q246.69 520.461 244.352 518.355 Q242.014 516.248 238.009 516.248 Q236.135 516.248 234.26 516.665 Q232.408 517.082 230.463 517.961 L230.463 500.6 Z" fill="#000000" fill-rule="nonzero" fill-opacity="1"></path><path clip-path="url(#clip740)" d="M164.028 248.233 Q160.417 248.233 158.589 251.798 Q156.783 255.34 156.783 262.469 Q156.783 269.576 158.589 273.141 Q160.417 276.682 164.028 276.682 Q167.663 276.682 169.468 273.141 Q171.297 269.576 171.297 262.469 Q171.297 255.34 169.468 251.798 Q167.663 248.233 164.028 248.233 M164.028 244.53 Q169.839 244.53 172.894 249.136 Q175.973 253.719 175.973 262.469 Q175.973 271.196 172.894 275.803 Q169.839 280.386 164.028 280.386 Q158.218 280.386 155.14 275.803 Q152.084 271.196 152.084 262.469 Q152.084 253.719 155.14 249.136 Q158.218 244.53 164.028 244.53 Z" fill="#000000" fill-rule="nonzero" fill-opacity="1"></path><path clip-path="url(#clip740)" d="M184.19 273.835 L189.075 273.835 L189.075 279.715 L184.19 279.715 L184.19 273.835 Z" fill="#000000" fill-rule="nonzero" fill-opacity="1"></path><path clip-path="url(#clip740)" d="M199.306 245.155 L217.662 245.155 L217.662 249.09 L203.588 249.09 L203.588 257.562 Q204.607 257.215 205.625 257.053 Q206.644 256.867 207.662 256.867 Q213.449 256.867 216.829 260.039 Q220.209 263.21 220.209 268.627 Q220.209 274.205 216.736 277.307 Q213.264 280.386 206.945 280.386 Q204.769 280.386 202.5 280.016 Q200.255 279.645 197.848 278.904 L197.848 274.205 Q199.931 275.34 202.153 275.895 Q204.375 276.451 206.852 276.451 Q210.857 276.451 213.195 274.344 Q215.533 272.238 215.533 268.627 Q215.533 265.016 213.195 262.909 Q210.857 260.803 206.852 260.803 Q204.977 260.803 203.102 261.219 Q201.25 261.636 199.306 262.516 L199.306 245.155 Z" fill="#000000" fill-rule="nonzero" fill-opacity="1"></path><path clip-path="url(#clip740)" d="M239.422 248.233 Q235.81 248.233 233.982 251.798 Q232.176 255.34 232.176 262.469 Q232.176 269.576 233.982 273.141 Q235.81 276.682 239.422 276.682 Q243.056 276.682 244.861 273.141 Q246.69 269.576 246.69 262.469 Q246.69 255.34 244.861 251.798 Q243.056 248.233 239.422 248.233 M239.422 244.53 Q245.232 244.53 248.287 249.136 Q251.366 253.719 251.366 262.469 Q251.366 271.196 248.287 275.803 Q245.232 280.386 239.422 280.386 Q233.611 280.386 230.533 275.803 Q227.477 271.196 227.477 262.469 Q227.477 253.719 230.533 249.136 Q233.611 244.53 239.422 244.53 Z" fill="#000000" fill-rule="nonzero" fill-opacity="1"></path><path clip-path="url(#clip740)" d="M16.4842 820.814 L16.4842 813.907 L34.149 802.099 L16.4842 790.227 L16.4842 783.32 L39.3052 798.598 L64.0042 782.302 L64.0042 789.208 L43.793 802.576 L64.0042 816.04 L64.0042 822.978 L38.6368 806.014 L16.4842 820.814 Z" fill="#000000" fill-rule="nonzero" fill-opacity="1"></path><path clip-path="url(#clip740)" d="M74.8259 747.036 L79.3773 747.036 L79.3773 780.901 L74.8259 780.901 L74.8259 747.036 Z" fill="#000000" fill-rule="nonzero" fill-opacity="1"></path><path clip-path="url(#clip740)" d="M18.2347 735.736 L28.3562 735.736 L28.3562 723.673 L32.9077 723.673 L32.9077 735.736 L52.2594 735.736 Q56.6199 735.736 57.8613 734.559 Q59.1026 733.349 59.1026 729.689 L59.1026 723.673 L64.0042 723.673 L64.0042 729.689 Q64.0042 736.469 61.4897 739.047 Q58.9434 741.625 52.2594 741.625 L32.9077 741.625 L32.9077 745.922 L28.3562 745.922 L28.3562 741.625 L18.2347 741.625 L18.2347 735.736 Z" fill="#000000" fill-rule="nonzero" fill-opacity="1"></path><path clip-path="url(#clip740)" d="M556.567 43.6931 L556.567 65.8515 L569.692 65.8515 Q576.295 65.8515 579.454 63.1374 Q582.655 60.3828 582.655 54.752 Q582.655 49.0808 579.454 46.4072 Q576.295 43.6931 569.692 43.6931 L556.567 43.6931 M556.567 18.8205 L556.567 37.0496 L568.679 37.0496 Q574.674 37.0496 577.591 34.8216 Q580.548 32.5531 580.548 27.935 Q580.548 23.3575 577.591 21.089 Q574.674 18.8205 568.679 18.8205 L556.567 18.8205 M548.384 12.096 L569.287 12.096 Q578.644 12.096 583.708 15.9849 Q588.771 19.8737 588.771 27.0438 Q588.771 32.5936 586.179 35.8748 Q583.586 39.156 578.563 39.9662 Q584.599 41.2625 587.921 45.3944 Q591.283 49.4858 591.283 55.6432 Q591.283 63.745 585.774 68.1605 Q580.265 72.576 570.097 72.576 L548.384 72.576 L548.384 12.096 Z" fill="#000000" fill-rule="nonzero" fill-opacity="1"></path><path clip-path="url(#clip740)" d="M625.594 49.7694 Q616.561 49.7694 613.077 51.8354 Q609.593 53.9013 609.593 58.8839 Q609.593 62.8538 612.186 65.2034 Q614.819 67.5124 619.315 67.5124 Q625.513 67.5124 629.24 63.1374 Q633.007 58.7219 633.007 51.4303 L633.007 49.7694 L625.594 49.7694 M640.461 46.6907 L640.461 72.576 L633.007 72.576 L633.007 65.6895 Q630.455 69.8214 626.647 71.8063 Q622.84 73.7508 617.33 73.7508 Q610.363 73.7508 606.231 69.8619 Q602.139 65.9325 602.139 59.3701 Q602.139 51.7138 607.244 47.825 Q612.388 43.9361 622.556 43.9361 L633.007 43.9361 L633.007 43.2069 Q633.007 38.0623 629.605 35.2672 Q626.242 32.4315 620.125 32.4315 Q616.237 32.4315 612.55 33.3632 Q608.864 34.295 605.461 36.1584 L605.461 29.2718 Q609.553 27.692 613.401 26.9223 Q617.249 26.1121 620.895 26.1121 Q630.739 26.1121 635.6 31.2163 Q640.461 36.3204 640.461 46.6907 Z" fill="#000000" fill-rule="nonzero" fill-opacity="1"></path><path clip-path="url(#clip740)" d="M674.691 76.7889 Q671.531 84.8907 668.534 87.3618 Q665.536 89.8329 660.513 89.8329 L654.558 89.8329 L654.558 83.5945 L658.933 83.5945 Q662.012 83.5945 663.713 82.1361 Q665.415 80.6778 667.48 75.2496 L668.817 71.8468 L650.467 27.2059 L658.366 27.2059 L672.544 62.6918 L686.722 27.2059 L694.622 27.2059 L674.691 76.7889 Z" fill="#000000" fill-rule="nonzero" fill-opacity="1"></path><path clip-path="url(#clip740)" d="M743.719 48.0275 L743.719 51.6733 L709.448 51.6733 Q709.934 59.3701 714.066 63.421 Q718.238 67.4314 725.651 67.4314 Q729.945 67.4314 733.956 66.3781 Q738.007 65.3249 741.977 63.2184 L741.977 70.267 Q737.966 71.9684 733.753 72.8596 Q729.54 73.7508 725.206 73.7508 Q714.349 73.7508 707.99 67.4314 Q701.67 61.1119 701.67 50.3365 Q701.67 39.1965 707.665 32.6746 Q713.701 26.1121 723.91 26.1121 Q733.065 26.1121 738.371 32.0264 Q743.719 37.9003 743.719 48.0275 M736.265 45.84 Q736.184 39.7232 732.822 36.0774 Q729.5 32.4315 723.991 32.4315 Q717.752 32.4315 713.985 35.9558 Q710.258 39.4801 709.691 45.8805 L736.265 45.84 Z" fill="#000000" fill-rule="nonzero" fill-opacity="1"></path><path clip-path="url(#clip740)" d="M784.876 28.5427 L784.876 35.5912 Q781.716 33.9709 778.313 33.1607 Q774.91 32.3505 771.265 32.3505 Q765.715 32.3505 762.92 34.0519 Q760.165 35.7533 760.165 39.156 Q760.165 41.7486 762.15 43.2475 Q764.135 44.7058 770.13 46.0426 L772.682 46.6097 Q780.622 48.3111 783.944 51.4303 Q787.306 54.509 787.306 60.0587 Q787.306 66.3781 782.283 70.0644 Q777.301 73.7508 768.551 73.7508 Q764.905 73.7508 760.935 73.0216 Q757.005 72.3329 752.63 70.9151 L752.63 63.2184 Q756.762 65.3654 760.773 66.4591 Q764.783 67.5124 768.713 67.5124 Q773.979 67.5124 776.814 65.73 Q779.65 63.9071 779.65 60.6258 Q779.65 57.5877 777.584 55.9673 Q775.559 54.3469 768.632 52.8481 L766.039 52.2405 Q759.112 50.7821 756.033 47.7845 Q752.955 44.7463 752.955 39.4801 Q752.955 33.0797 757.492 29.5959 Q762.029 26.1121 770.373 26.1121 Q774.505 26.1121 778.151 26.7198 Q781.797 27.3274 784.876 28.5427 Z" fill="#000000" fill-rule="nonzero" fill-opacity="1"></path><path clip-path="url(#clip740)" d="M799.175 27.2059 L806.629 27.2059 L806.629 72.576 L799.175 72.576 L799.175 27.2059 M799.175 9.54393 L806.629 9.54393 L806.629 18.9825 L799.175 18.9825 L799.175 9.54393 Z" fill="#000000" fill-rule="nonzero" fill-opacity="1"></path><path clip-path="url(#clip740)" d="M842.844 49.7694 Q833.811 49.7694 830.327 51.8354 Q826.843 53.9013 826.843 58.8839 Q826.843 62.8538 829.436 65.2034 Q832.069 67.5124 836.565 67.5124 Q842.763 67.5124 846.49 63.1374 Q850.257 58.7219 850.257 51.4303 L850.257 49.7694 L842.844 49.7694 M857.711 46.6907 L857.711 72.576 L850.257 72.576 L850.257 65.6895 Q847.705 69.8214 843.897 71.8063 Q840.09 73.7508 834.58 73.7508 Q827.613 73.7508 823.481 69.8619 Q819.389 65.9325 819.389 59.3701 Q819.389 51.7138 824.494 47.825 Q829.638 43.9361 839.806 43.9361 L850.257 43.9361 L850.257 43.2069 Q850.257 38.0623 846.855 35.2672 Q843.492 32.4315 837.375 32.4315 Q833.487 32.4315 829.8 33.3632 Q826.114 34.295 822.711 36.1584 L822.711 29.2718 Q826.803 27.692 830.651 26.9223 Q834.499 26.1121 838.145 26.1121 Q847.989 26.1121 852.85 31.2163 Q857.711 36.3204 857.711 46.6907 Z" fill="#000000" fill-rule="nonzero" fill-opacity="1"></path><path clip-path="url(#clip740)" d="M910.778 45.1919 L910.778 72.576 L903.324 72.576 L903.324 45.4349 Q903.324 38.994 900.813 35.7938 Q898.301 32.5936 893.278 32.5936 Q887.242 32.5936 883.758 36.4419 Q880.274 40.2903 880.274 46.9338 L880.274 72.576 L872.78 72.576 L872.78 27.2059 L880.274 27.2059 L880.274 34.2544 Q882.948 30.163 886.553 28.1376 Q890.199 26.1121 894.939 26.1121 Q902.757 26.1121 906.767 30.9732 Q910.778 35.7938 910.778 45.1919 Z" fill="#000000" fill-rule="nonzero" fill-opacity="1"></path><path clip-path="url(#clip740)" d="M972.554 20.1573 L961.455 50.2555 L983.694 50.2555 L972.554 20.1573 M967.936 12.096 L977.213 12.096 L1000.26 72.576 L991.755 72.576 L986.246 57.061 L958.984 57.061 L953.474 72.576 L944.846 72.576 L967.936 12.096 Z" fill="#000000" fill-rule="nonzero" fill-opacity="1"></path><path clip-path="url(#clip740)" d="M1008 54.671 L1008 27.2059 L1015.45 27.2059 L1015.45 54.3874 Q1015.45 60.8284 1017.96 64.0691 Q1020.48 67.2693 1025.5 67.2693 Q1031.54 67.2693 1035.02 63.421 Q1038.54 59.5726 1038.54 52.9291 L1038.54 27.2059 L1046 27.2059 L1046 72.576 L1038.54 72.576 L1038.54 65.6084 Q1035.83 69.7404 1032.22 71.7658 Q1028.66 73.7508 1023.92 73.7508 Q1016.1 73.7508 1012.05 68.8897 Q1008 64.0286 1008 54.671 M1026.76 26.1121 L1026.76 26.1121 Z" fill="#000000" fill-rule="nonzero" fill-opacity="1"></path><path clip-path="url(#clip740)" d="M1068.72 14.324 L1068.72 27.2059 L1084.08 27.2059 L1084.08 32.9987 L1068.72 32.9987 L1068.72 57.6282 Q1068.72 63.1779 1070.22 64.7578 Q1071.76 66.3376 1076.42 66.3376 L1084.08 66.3376 L1084.08 72.576 L1076.42 72.576 Q1067.79 72.576 1064.51 69.3758 Q1061.23 66.1351 1061.23 57.6282 L1061.23 32.9987 L1055.76 32.9987 L1055.76 27.2059 L1061.23 27.2059 L1061.23 14.324 L1068.72 14.324 Z" fill="#000000" fill-rule="nonzero" fill-opacity="1"></path><path clip-path="url(#clip740)" d="M1111.46 32.4315 Q1105.46 32.4315 1101.98 37.1306 Q1098.5 41.7891 1098.5 49.9314 Q1098.5 58.0738 1101.94 62.7728 Q1105.42 67.4314 1111.46 67.4314 Q1117.41 67.4314 1120.9 62.7323 Q1124.38 58.0333 1124.38 49.9314 Q1124.38 41.8701 1120.9 37.1711 Q1117.41 32.4315 1111.46 32.4315 M1111.46 26.1121 Q1121.18 26.1121 1126.73 32.4315 Q1132.28 38.7509 1132.28 49.9314 Q1132.28 61.0714 1126.73 67.4314 Q1121.18 73.7508 1111.46 73.7508 Q1101.7 73.7508 1096.15 67.4314 Q1090.64 61.0714 1090.64 49.9314 Q1090.64 38.7509 1096.15 32.4315 Q1101.7 26.1121 1111.46 26.1121 Z" fill="#000000" fill-rule="nonzero" fill-opacity="1"></path><path clip-path="url(#clip740)" d="M1170.93 34.1734 Q1169.67 33.4443 1168.17 33.1202 Q1166.71 32.7556 1164.93 32.7556 Q1158.61 32.7556 1155.21 36.8875 Q1151.85 40.9789 1151.85 48.6757 L1151.85 72.576 L1144.35 72.576 L1144.35 27.2059 L1151.85 27.2059 L1151.85 34.2544 Q1154.2 30.1225 1157.96 28.1376 Q1161.73 26.1121 1167.12 26.1121 Q1167.89 26.1121 1168.82 26.2337 Q1169.75 26.3147 1170.89 26.5172 L1170.93 34.1734 Z" fill="#000000" fill-rule="nonzero" fill-opacity="1"></path><path clip-path="url(#clip740)" d="M1215.73 48.0275 L1215.73 51.6733 L1181.46 51.6733 Q1181.95 59.3701 1186.08 63.421 Q1190.25 67.4314 1197.66 67.4314 Q1201.96 67.4314 1205.97 66.3781 Q1210.02 65.3249 1213.99 63.2184 L1213.99 70.267 Q1209.98 71.9684 1205.76 72.8596 Q1201.55 73.7508 1197.22 73.7508 Q1186.36 73.7508 1180 67.4314 Q1173.68 61.1119 1173.68 50.3365 Q1173.68 39.1965 1179.68 32.6746 Q1185.71 26.1121 1195.92 26.1121 Q1205.08 26.1121 1210.38 32.0264 Q1215.73 37.9003 1215.73 48.0275 M1208.28 45.84 Q1208.2 39.7232 1204.83 36.0774 Q1201.51 32.4315 1196 32.4315 Q1189.76 32.4315 1186 35.9558 Q1182.27 39.4801 1181.7 45.8805 L1208.28 45.84 Z" fill="#000000" fill-rule="nonzero" fill-opacity="1"></path><path clip-path="url(#clip740)" d="M1257.82 49.3643 Q1257.82 41.2625 1254.46 36.8065 Q1251.13 32.3505 1245.1 32.3505 Q1239.1 32.3505 1235.74 36.8065 Q1232.42 41.2625 1232.42 49.3643 Q1232.42 57.4256 1235.74 61.8816 Q1239.1 66.3376 1245.1 66.3376 Q1251.13 66.3376 1254.46 61.8816 Q1257.82 57.4256 1257.82 49.3643 M1265.27 66.9452 Q1265.27 78.5308 1260.13 84.1616 Q1254.98 89.8329 1244.37 89.8329 Q1240.44 89.8329 1236.96 89.2252 Q1233.47 88.6581 1230.19 87.4428 L1230.19 80.1917 Q1233.47 81.9741 1236.67 82.8248 Q1239.87 83.6755 1243.19 83.6755 Q1250.53 83.6755 1254.17 79.8271 Q1257.82 76.0193 1257.82 68.282 L1257.82 64.5957 Q1255.51 68.6061 1251.9 70.5911 Q1248.3 72.576 1243.28 72.576 Q1234.93 72.576 1229.83 66.2161 Q1224.72 59.8562 1224.72 49.3643 Q1224.72 38.832 1229.83 32.472 Q1234.93 26.1121 1243.28 26.1121 Q1248.3 26.1121 1251.9 28.0971 Q1255.51 30.082 1257.82 34.0924 L1257.82 27.2059 L1265.27 27.2059 L1265.27 66.9452 Z" fill="#000000" fill-rule="nonzero" fill-opacity="1"></path><path clip-path="url(#clip740)" d="M1306.92 34.1734 Q1305.66 33.4443 1304.16 33.1202 Q1302.7 32.7556 1300.92 32.7556 Q1294.6 32.7556 1291.2 36.8875 Q1287.84 40.9789 1287.84 48.6757 L1287.84 72.576 L1280.34 72.576 L1280.34 27.2059 L1287.84 27.2059 L1287.84 34.2544 Q1290.19 30.1225 1293.95 28.1376 Q1297.72 26.1121 1303.11 26.1121 Q1303.88 26.1121 1304.81 26.2337 Q1305.74 26.3147 1306.88 26.5172 L1306.92 34.1734 Z" fill="#000000" fill-rule="nonzero" fill-opacity="1"></path><path clip-path="url(#clip740)" d="M1351.72 48.0275 L1351.72 51.6733 L1317.45 51.6733 Q1317.93 59.3701 1322.07 63.421 Q1326.24 67.4314 1333.65 67.4314 Q1337.95 67.4314 1341.96 66.3781 Q1346.01 65.3249 1349.98 63.2184 L1349.98 70.267 Q1345.97 71.9684 1341.75 72.8596 Q1337.54 73.7508 1333.21 73.7508 Q1322.35 73.7508 1315.99 67.4314 Q1309.67 61.1119 1309.67 50.3365 Q1309.67 39.1965 1315.67 32.6746 Q1321.7 26.1121 1331.91 26.1121 Q1341.06 26.1121 1346.37 32.0264 Q1351.72 37.9003 1351.72 48.0275 M1344.27 45.84 Q1344.18 39.7232 1340.82 36.0774 Q1337.5 32.4315 1331.99 32.4315 Q1325.75 32.4315 1321.99 35.9558 Q1318.26 39.4801 1317.69 45.8805 L1344.27 45.84 Z" fill="#000000" fill-rule="nonzero" fill-opacity="1"></path><path clip-path="url(#clip740)" d="M1392.88 28.5427 L1392.88 35.5912 Q1389.72 33.9709 1386.31 33.1607 Q1382.91 32.3505 1379.26 32.3505 Q1373.72 32.3505 1370.92 34.0519 Q1368.17 35.7533 1368.17 39.156 Q1368.17 41.7486 1370.15 43.2475 Q1372.14 44.7058 1378.13 46.0426 L1380.68 46.6097 Q1388.62 48.3111 1391.94 51.4303 Q1395.31 54.509 1395.31 60.0587 Q1395.31 66.3781 1390.28 70.0644 Q1385.3 73.7508 1376.55 73.7508 Q1372.9 73.7508 1368.94 73.0216 Q1365.01 72.3329 1360.63 70.9151 L1360.63 63.2184 Q1364.76 65.3654 1368.77 66.4591 Q1372.78 67.5124 1376.71 67.5124 Q1381.98 67.5124 1384.81 65.73 Q1387.65 63.9071 1387.65 60.6258 Q1387.65 57.5877 1385.58 55.9673 Q1383.56 54.3469 1376.63 52.8481 L1374.04 52.2405 Q1367.11 50.7821 1364.03 47.7845 Q1360.95 44.7463 1360.95 39.4801 Q1360.95 33.0797 1365.49 29.5959 Q1370.03 26.1121 1378.37 26.1121 Q1382.51 26.1121 1386.15 26.7198 Q1389.8 27.3274 1392.88 28.5427 Z" fill="#000000" fill-rule="nonzero" fill-opacity="1"></path><path clip-path="url(#clip740)" d="M1436.1 28.5427 L1436.1 35.5912 Q1432.94 33.9709 1429.54 33.1607 Q1426.13 32.3505 1422.49 32.3505 Q1416.94 32.3505 1414.14 34.0519 Q1411.39 35.7533 1411.39 39.156 Q1411.39 41.7486 1413.37 43.2475 Q1415.36 44.7058 1421.35 46.0426 L1423.91 46.6097 Q1431.85 48.3111 1435.17 51.4303 Q1438.53 54.509 1438.53 60.0587 Q1438.53 66.3781 1433.51 70.0644 Q1428.52 73.7508 1419.77 73.7508 Q1416.13 73.7508 1412.16 73.0216 Q1408.23 72.3329 1403.85 70.9151 L1403.85 63.2184 Q1407.99 65.3654 1412 66.4591 Q1416.01 67.5124 1419.94 67.5124 Q1425.2 67.5124 1428.04 65.73 Q1430.87 63.9071 1430.87 60.6258 Q1430.87 57.5877 1428.81 55.9673 Q1426.78 54.3469 1419.85 52.8481 L1417.26 52.2405 Q1410.34 50.7821 1407.26 47.7845 Q1404.18 44.7463 1404.18 39.4801 Q1404.18 33.0797 1408.71 29.5959 Q1413.25 26.1121 1421.6 26.1121 Q1425.73 26.1121 1429.37 26.7198 Q1433.02 27.3274 1436.1 28.5427 Z" fill="#000000" fill-rule="nonzero" fill-opacity="1"></path><path clip-path="url(#clip740)" d="M1450.4 27.2059 L1457.85 27.2059 L1457.85 72.576 L1450.4 72.576 L1450.4 27.2059 M1450.4 9.54393 L1457.85 9.54393 L1457.85 18.9825 L1450.4 18.9825 L1450.4 9.54393 Z" fill="#000000" fill-rule="nonzero" fill-opacity="1"></path><path clip-path="url(#clip740)" d="M1468.1 27.2059 L1476 27.2059 L1490.18 65.2844 L1504.36 27.2059 L1512.26 27.2059 L1495.24 72.576 L1485.11 72.576 L1468.1 27.2059 Z" fill="#000000" fill-rule="nonzero" fill-opacity="1"></path><path clip-path="url(#clip740)" d="M1561.35 48.0275 L1561.35 51.6733 L1527.08 51.6733 Q1527.57 59.3701 1531.7 63.421 Q1535.87 67.4314 1543.29 67.4314 Q1547.58 67.4314 1551.59 66.3781 Q1555.64 65.3249 1559.61 63.2184 L1559.61 70.267 Q1555.6 71.9684 1551.39 72.8596 Q1547.17 73.7508 1542.84 73.7508 Q1531.98 73.7508 1525.62 67.4314 Q1519.3 61.1119 1519.3 50.3365 Q1519.3 39.1965 1525.3 32.6746 Q1531.34 26.1121 1541.54 26.1121 Q1550.7 26.1121 1556.01 32.0264 Q1561.35 37.9003 1561.35 48.0275 M1553.9 45.84 Q1553.82 39.7232 1550.46 36.0774 Q1547.13 32.4315 1541.63 32.4315 Q1535.39 32.4315 1531.62 35.9558 Q1527.89 39.4801 1527.33 45.8805 L1553.9 45.84 Z" fill="#000000" fill-rule="nonzero" fill-opacity="1"></path><path clip-path="url(#clip740)" d="M1620.5 20.1573 L1609.4 50.2555 L1631.64 50.2555 L1620.5 20.1573 M1615.88 12.096 L1625.15 12.096 L1648.2 72.576 L1639.7 72.576 L1634.19 57.061 L1606.93 57.061 L1601.42 72.576 L1592.79 72.576 L1615.88 12.096 Z" fill="#000000" fill-rule="nonzero" fill-opacity="1"></path><path clip-path="url(#clip740)" d="M1685.72 44.2197 Q1688.35 45.1109 1690.82 48.0275 Q1693.33 50.9442 1695.84 56.0483 L1704.15 72.576 L1695.36 72.576 L1687.62 57.061 Q1684.62 50.9847 1681.79 48.9997 Q1678.99 47.0148 1674.13 47.0148 L1665.22 47.0148 L1665.22 72.576 L1657.04 72.576 L1657.04 12.096 L1675.51 12.096 Q1685.88 12.096 1690.98 16.4305 Q1696.09 20.7649 1696.09 29.5149 Q1696.09 35.2267 1693.41 38.994 Q1690.78 42.7613 1685.72 44.2197 M1665.22 18.8205 L1665.22 40.2903 L1675.51 40.2903 Q1681.42 40.2903 1684.42 37.5762 Q1687.46 34.8216 1687.46 29.5149 Q1687.46 24.2082 1684.42 21.5346 Q1681.42 18.8205 1675.51 18.8205 L1665.22 18.8205 Z" fill="#000000" fill-rule="nonzero" fill-opacity="1"></path><path clip-path="url(#clip740)" d="M1732.26 9.62495 Q1726.83 18.942 1724.2 28.0566 Q1721.57 37.1711 1721.57 46.5287 Q1721.57 55.8863 1724.2 65.0818 Q1726.87 74.2369 1732.26 83.5134 L1725.78 83.5134 Q1719.7 73.9938 1716.66 64.7983 Q1713.67 55.6027 1713.67 46.5287 Q1713.67 37.4952 1716.66 28.3401 Q1719.66 19.1851 1725.78 9.62495 L1732.26 9.62495 Z" fill="#000000" fill-rule="nonzero" fill-opacity="1"></path><path clip-path="url(#clip740)" d="M1754.82 65.6895 L1783.38 65.6895 L1783.38 72.576 L1744.98 72.576 L1744.98 65.6895 Q1749.64 60.8689 1757.66 52.7671 Q1765.72 44.6248 1767.79 42.2752 Q1771.72 37.8598 1773.26 34.8216 Q1774.84 31.7429 1774.84 28.7857 Q1774.84 23.9651 1771.43 20.927 Q1768.07 17.8888 1762.64 17.8888 Q1758.79 17.8888 1754.5 19.2256 Q1750.25 20.5624 1745.39 23.2765 L1745.39 15.0127 Q1750.33 13.0277 1754.62 12.015 Q1758.92 11.0023 1762.48 11.0023 Q1771.88 11.0023 1777.47 15.7013 Q1783.06 20.4004 1783.06 28.2591 Q1783.06 31.9859 1781.64 35.3482 Q1780.26 38.6699 1776.58 43.2069 Q1775.56 44.3817 1770.14 50.0125 Q1764.71 55.6027 1754.82 65.6895 Z" fill="#000000" fill-rule="nonzero" fill-opacity="1"></path><path clip-path="url(#clip740)" d="M1798.33 9.62495 L1804.81 9.62495 Q1810.89 19.1851 1813.89 28.3401 Q1816.92 37.4952 1816.92 46.5287 Q1816.92 55.6027 1813.89 64.7983 Q1810.89 73.9938 1804.81 83.5134 L1798.33 83.5134 Q1803.72 74.2369 1806.35 65.0818 Q1809.03 55.8863 1809.03 46.5287 Q1809.03 37.1711 1806.35 28.0566 Q1803.72 18.942 1798.33 9.62495 Z" fill="#000000" fill-rule="nonzero" fill-opacity="1"></path><path clip-path="url(#clip740)" d="M1858.57 12.096 L1870.76 12.096 L1886.2 53.2532 L1901.71 12.096 L1913.9 12.096 L1913.9 72.576 L1905.92 72.576 L1905.92 19.4686 L1890.33 60.9499 L1882.1 60.9499 L1866.51 19.4686 L1866.51 72.576 L1858.57 72.576 L1858.57 12.096 Z" fill="#000000" fill-rule="nonzero" fill-opacity="1"></path><path clip-path="url(#clip740)" d="M1947.4 32.4315 Q1941.41 32.4315 1937.93 37.1306 Q1934.44 41.7891 1934.44 49.9314 Q1934.44 58.0738 1937.88 62.7728 Q1941.37 67.4314 1947.4 67.4314 Q1953.36 67.4314 1956.84 62.7323 Q1960.33 58.0333 1960.33 49.9314 Q1960.33 41.8701 1956.84 37.1711 Q1953.36 32.4315 1947.4 32.4315 M1947.4 26.1121 Q1957.13 26.1121 1962.68 32.4315 Q1968.23 38.7509 1968.23 49.9314 Q1968.23 61.0714 1962.68 67.4314 Q1957.13 73.7508 1947.4 73.7508 Q1937.64 73.7508 1932.09 67.4314 Q1926.58 61.0714 1926.58 49.9314 Q1926.58 38.7509 1932.09 32.4315 Q1937.64 26.1121 1947.4 26.1121 Z" fill="#000000" fill-rule="nonzero" fill-opacity="1"></path><path clip-path="url(#clip740)" d="M2010.44 34.0924 L2010.44 9.54393 L2017.89 9.54393 L2017.89 72.576 L2010.44 72.576 L2010.44 65.7705 Q2008.09 69.8214 2004.48 71.8063 Q2000.92 73.7508 1995.89 73.7508 Q1987.67 73.7508 1982.49 67.1883 Q1977.34 60.6258 1977.34 49.9314 Q1977.34 39.2371 1982.49 32.6746 Q1987.67 26.1121 1995.89 26.1121 Q2000.92 26.1121 2004.48 28.0971 Q2008.09 30.0415 2010.44 34.0924 M1985.04 49.9314 Q1985.04 58.1548 1988.4 62.8538 Q1991.8 67.5124 1997.72 67.5124 Q2003.63 67.5124 2007.03 62.8538 Q2010.44 58.1548 2010.44 49.9314 Q2010.44 41.7081 2007.03 37.0496 Q2003.63 32.3505 1997.72 32.3505 Q1991.8 32.3505 1988.4 37.0496 Q1985.04 41.7081 1985.04 49.9314 Z" fill="#000000" fill-rule="nonzero" fill-opacity="1"></path><path clip-path="url(#clip740)" d="M2072.05 48.0275 L2072.05 51.6733 L2037.78 51.6733 Q2038.27 59.3701 2042.4 63.421 Q2046.57 67.4314 2053.98 67.4314 Q2058.28 67.4314 2062.29 66.3781 Q2066.34 65.3249 2070.31 63.2184 L2070.31 70.267 Q2066.3 71.9684 2062.09 72.8596 Q2057.87 73.7508 2053.54 73.7508 Q2042.68 73.7508 2036.32 67.4314 Q2030 61.1119 2030 50.3365 Q2030 39.1965 2036 32.6746 Q2042.03 26.1121 2052.24 26.1121 Q2061.4 26.1121 2066.7 32.0264 Q2072.05 37.9003 2072.05 48.0275 M2064.6 45.84 Q2064.52 39.7232 2061.15 36.0774 Q2057.83 32.4315 2052.32 32.4315 Q2046.08 32.4315 2042.32 35.9558 Q2038.59 39.4801 2038.02 45.8805 L2064.6 45.84 Z" fill="#000000" fill-rule="nonzero" fill-opacity="1"></path><path clip-path="url(#clip740)" d="M2084.28 9.54393 L2091.74 9.54393 L2091.74 72.576 L2084.28 72.576 L2084.28 9.54393 Z" fill="#000000" fill-rule="nonzero" fill-opacity="1"></path><polyline clip-path="url(#clip742)" style="stroke:#009af9; stroke-linecap:round; stroke-linejoin:round; stroke-width:8; stroke-opacity:1; fill:none" points="378.295,916.362 410.77,597.269 443.244,917.595 475.719,553.533 508.194,1019.77 540.668,657.678 573.143,853.994 605.618,842.38 638.093,939.374 670.567,885.341 703.042,692.022 735.517,819.265 767.991,626.463 800.466,834.184 832.941,526.576 865.415,719.395 897.89,756.323 930.365,522.641 962.839,969.008 995.314,706.565 1027.79,1036.35 1060.26,673.804 1092.74,1002.46 1125.21,697.927 1157.69,849.502 1190.16,767.143 1222.64,700.78 1255.11,659.767 1287.59,789.813 1320.06,654.307 1352.54,768.309 1385.01,778.212 1417.48,762.47 1449.96,790.766 1482.43,656.826 1514.91,728.596 1547.38,766.84 1579.86,832.756 1612.33,688.469 1644.81,623.288 1677.28,731.638 1709.76,572.102 1742.23,656.853 1774.71,685.964 1807.18,746.411 1839.66,700.622 1872.13,803.798 1904.61,611.332 1937.08,726.279 1969.55,720.484 "></polyline>
</svg>