<?xml version="1.0" encoding="utf-8"?>
<!DOCTYPE svg PUBLIC "-//W3C//DTD SVG 1.1//EN" "http://www.w3.org/Graphics/SVG/1.1/DTD/svg11.dtd">
<svg class="marks" width="327" height="242" viewBox="0 0 327 242" version="1.1" xmlns="http://www.w3.org/2000/svg" xmlns:xlink="http://www.w3.org/1999/xlink"><rect width="327" height="242" fill="white"></rect><g fill="none" stroke-miterlimit="10" transform="translate(42,5)"><g class="mark-group role-frame root" role="graphics-object" aria-roledescription="group mark container"><g transform="translate(0,0)"><path class="background" aria-hidden="true" d="M0.5,0.5h200v200h-200Z" stroke="#ddd"></path><g><g class="mark-group role-axis" aria-hidden="true"><g transform="translate(0.5,200.5)"><path class="background" aria-hidden="true" d="M0,0h0v0h0Z" pointer-events="none"></path><g><g class="mark-rule role-axis-grid" pointer-events="none"><line transform="translate(0,-200)" x2="0" y2="200" stroke="#ddd" stroke-width="1" opacity="1"></line><line transform="translate(29,-200)" x2="0" y2="200" stroke="#ddd" stroke-width="1" opacity="1"></line><line transform="translate(57,-200)" x2="0" y2="200" stroke="#ddd" stroke-width="1" opacity="1"></line><line transform="translate(86,-200)" x2="0" y2="200" stroke="#ddd" stroke-width="1" opacity="1"></line><line transform="translate(114,-200)" x2="0" y2="200" stroke="#ddd" stroke-width="1" opacity="1"></line><line transform="translate(143,-200)" x2="0" y2="200" stroke="#ddd" stroke-width="1" opacity="1"></line><line transform="translate(171,-200)" x2="0" y2="200" stroke="#ddd" stroke-width="1" opacity="1"></line><line transform="translate(200,-200)" x2="0" y2="200" stroke="#ddd" stroke-width="1" opacity="1"></line></g></g><path class="foreground" aria-hidden="true" d="" pointer-events="none" display="none"></path></g></g><g class="mark-group role-axis" aria-hidden="true"><g transform="translate(0.5,0.5)"><path class="background" aria-hidden="true" d="M0,0h0v0h0Z" pointer-events="none"></path><g><g class="mark-rule role-axis-grid" pointer-events="none"><line transform="translate(0,200)" x2="200" y2="0" stroke="#ddd" stroke-width="1" opacity="1"></line><line transform="translate(0,162)" x2="200" y2="0" stroke="#ddd" stroke-width="1" opacity="1"></line><line transform="translate(0,123)" x2="200" y2="0" stroke="#ddd" stroke-width="1" opacity="1"></line><line transform="translate(0,85)" x2="200" y2="0" stroke="#ddd" stroke-width="1" opacity="1"></line><line transform="translate(0,46)" x2="200" y2="0" stroke="#ddd" stroke-width="1" opacity="1"></line><line transform="translate(0,8)" x2="200" y2="0" stroke="#ddd" stroke-width="1" opacity="1"></line></g></g><path class="foreground" aria-hidden="true" d="" pointer-events="none" display="none"></path></g></g><g class="mark-group role-axis" role="graphics-symbol" aria-roledescription="axis" aria-label="X-axis titled 'petalLength' for a linear scale with values from 0 to 7"><g transform="translate(0.5,200.5)"><path class="background" aria-hidden="true" d="M0,0h0v0h0Z" pointer-events="none"></path><g><g class="mark-rule role-axis-tick" pointer-events="none"><line transform="translate(0,0)" x2="0" y2="5" stroke="#888" stroke-width="1" opacity="1"></line><line transform="translate(29,0)" x2="0" y2="5" stroke="#888" stroke-width="1" opacity="1"></line><line transform="translate(57,0)" x2="0" y2="5" stroke="#888" stroke-width="1" opacity="1"></line><line transform="translate(86,0)" x2="0" y2="5" stroke="#888" stroke-width="1" opacity="1"></line><line transform="translate(114,0)" x2="0" y2="5" stroke="#888" stroke-width="1" opacity="1"></line><line transform="translate(143,0)" x2="0" y2="5" stroke="#888" stroke-width="1" opacity="1"></line><line transform="translate(171,0)" x2="0" y2="5" stroke="#888" stroke-width="1" opacity="1"></line><line transform="translate(200,0)" x2="0" y2="5" stroke="#888" stroke-width="1" opacity="1"></line></g><g class="mark-text role-axis-label" pointer-events="none"><text text-anchor="start" transform="translate(0,15)" font-family="sans-serif" font-size="10px" fill="#000" opacity="1">0</text><text text-anchor="middle" transform="translate(28.57142857142857,15)" font-family="sans-serif" font-size="10px" fill="#000" opacity="1">1</text><text text-anchor="middle" transform="translate(57.14285714285714,15)" font-family="sans-serif" font-size="10px" fill="#000" opacity="1">2</text><text text-anchor="middle" transform="translate(85.71428571428571,15)" font-family="sans-serif" font-size="10px" fill="#000" opacity="1">3</text><text text-anchor="middle" transform="translate(114.28571428571428,15)" font-family="sans-serif" font-size="10px" fill="#000" opacity="1">4</text><text text-anchor="middle" transform="translate(142.85714285714286,15)" font-family="sans-serif" font-size="10px" fill="#000" opacity="1">5</text><text text-anchor="middle" transform="translate(171.42857142857142,15)" font-family="sans-serif" font-size="10px" fill="#000" opacity="1">6</text><text text-anchor="end" transform="translate(200,15)" font-family="sans-serif" font-size="10px" fill="#000" opacity="1">7</text></g><g class="mark-rule role-axis-domain" pointer-events="none"><line transform="translate(0,0)" x2="200" y2="0" stroke="#888" stroke-width="1" opacity="1"></line></g><g class="mark-text role-axis-title" pointer-events="none"><text text-anchor="middle" transform="translate(100,30)" font-family="sans-serif" font-size="11px" font-weight="bold" fill="#000" opacity="1">petalLength</text></g></g><path class="foreground" aria-hidden="true" d="" pointer-events="none" display="none"></path></g></g><g class="mark-group role-axis" role="graphics-symbol" aria-roledescription="axis" aria-label="Y-axis titled 'petalWidth' for a linear scale with values from 0.0 to 2.6"><g transform="translate(0.5,0.5)"><path class="background" aria-hidden="true" d="M0,0h0v0h0Z" pointer-events="none"></path><g><g class="mark-rule role-axis-tick" pointer-events="none"><line transform="translate(0,200)" x2="-5" y2="0" stroke="#888" stroke-width="1" opacity="1"></line><line transform="translate(0,162)" x2="-5" y2="0" stroke="#888" stroke-width="1" opacity="1"></line><line transform="translate(0,123)" x2="-5" y2="0" stroke="#888" stroke-width="1" opacity="1"></line><line transform="translate(0,85)" x2="-5" y2="0" stroke="#888" stroke-width="1" opacity="1"></line><line transform="translate(0,46)" x2="-5" y2="0" stroke="#888" stroke-width="1" opacity="1"></line><line transform="translate(0,8)" x2="-5" y2="0" stroke="#888" stroke-width="1" opacity="1"></line></g><g class="mark-text role-axis-label" pointer-events="none"><text text-anchor="end" transform="translate(-7,203)" font-family="sans-serif" font-size="10px" fill="#000" opacity="1">0.0</text><text text-anchor="end" transform="translate(-7,164.53846153846155)" font-family="sans-serif" font-size="10px" fill="#000" opacity="1">0.5</text><text text-anchor="end" transform="translate(-7,126.07692307692308)" font-family="sans-serif" font-size="10px" fill="#000" opacity="1">1.0</text><text text-anchor="end" transform="translate(-7,87.61538461538463)" font-family="sans-serif" font-size="10px" fill="#000" opacity="1">1.5</text><text text-anchor="end" transform="translate(-7,49.15384615384617)" font-family="sans-serif" font-size="10px" fill="#000" opacity="1">2.0</text><text text-anchor="end" transform="translate(-7,10.69230769230771)" font-family="sans-serif" font-size="10px" fill="#000" opacity="1">2.5</text></g><g class="mark-rule role-axis-domain" pointer-events="none"><line transform="translate(0,200)" x2="0" y2="-200" stroke="#888" stroke-width="1" opacity="1"></line></g><g class="mark-text role-axis-title" pointer-events="none"><text text-anchor="middle" transform="translate(-26,100) rotate(-90) translate(0,-2)" font-family="sans-serif" font-size="11px" font-weight="bold" fill="#000" opacity="1">petalWidth</text></g></g><path class="foreground" aria-hidden="true" d="" pointer-events="none" display="none"></path></g></g><g class="mark-symbol role-mark marks" role="graphics-object" aria-roledescription="symbol mark container"><path aria-label="petalLength: 1.4; species: setosa; petalWidth: 0.2" role="graphics-symbol" aria-roledescription="point" transform="translate(40,184.6153846153846)" d="M2.7386127875258306,0A2.7386127875258306,2.7386127875258306,0,1,1,-2.7386127875258306,0A2.7386127875258306,2.7386127875258306,0,1,1,2.7386127875258306,0" stroke="#4c78a8" stroke-width="2" opacity="0.7"></path><path aria-label="petalLength: 1.4; species: setosa; petalWidth: 0.2" role="graphics-symbol" aria-roledescription="point" transform="translate(40,184.6153846153846)" d="M2.7386127875258306,0A2.7386127875258306,2.7386127875258306,0,1,1,-2.7386127875258306,0A2.7386127875258306,2.7386127875258306,0,1,1,2.7386127875258306,0" stroke="#4c78a8" stroke-width="2" opacity="0.7"></path><path aria-label="petalLength: 1.3; species: setosa; petalWidth: 0.2" role="graphics-symbol" aria-roledescription="point" transform="translate(37.142857142857146,184.6153846153846)" d="M2.7386127875258306,0A2.7386127875258306,2.7386127875258306,0,1,1,-2.7386127875258306,0A2.7386127875258306,2.7386127875258306,0,1,1,2.7386127875258306,0" stroke="#4c78a8" stroke-width="2" opacity="0.7"></path><path aria-label="petalLength: 1.5; species: setosa; petalWidth: 0.2" role="graphics-symbol" aria-roledescription="point" transform="translate(42.857142857142854,184.6153846153846)" d="M2.7386127875258306,0A2.7386127875258306,2.7386127875258306,0,1,1,-2.7386127875258306,0A2.7386127875258306,2.7386127875258306,0,1,1,2.7386127875258306,0" stroke="#4c78a8" stroke-width="2" opacity="0.7"></path><path aria-label="petalLength: 1.4; species: setosa; petalWidth: 0.2" role="graphics-symbol" aria-roledescription="point" transform="translate(40,184.6153846153846)" d="M2.7386127875258306,0A2.7386127875258306,2.7386127875258306,0,1,1,-2.7386127875258306,0A2.7386127875258306,2.7386127875258306,0,1,1,2.7386127875258306,0" stroke="#4c78a8" stroke-width="2" opacity="0.7"></path><path aria-label="petalLength: 1.7; species: setosa; petalWidth: 0.4" role="graphics-symbol" aria-roledescription="point" transform="translate(48.57142857142857,169.23076923076923)" d="M2.7386127875258306,0A2.7386127875258306,2.7386127875258306,0,1,1,-2.7386127875258306,0A2.7386127875258306,2.7386127875258306,0,1,1,2.7386127875258306,0" stroke="#4c78a8" stroke-width="2" opacity="0.7"></path><path aria-label="petalLength: 1.4; species: setosa; petalWidth: 0.3" role="graphics-symbol" aria-roledescription="point" transform="translate(40,176.9230769230769)" d="M2.7386127875258306,0A2.7386127875258306,2.7386127875258306,0,1,1,-2.7386127875258306,0A2.7386127875258306,2.7386127875258306,0,1,1,2.7386127875258306,0" stroke="#4c78a8" stroke-width="2" opacity="0.7"></path><path aria-label="petalLength: 1.5; species: setosa; petalWidth: 0.2" role="graphics-symbol" aria-roledescription="point" transform="translate(42.857142857142854,184.6153846153846)" d="M2.7386127875258306,0A2.7386127875258306,2.7386127875258306,0,1,1,-2.7386127875258306,0A2.7386127875258306,2.7386127875258306,0,1,1,2.7386127875258306,0" stroke="#4c78a8" stroke-width="2" opacity="0.7"></path><path aria-label="petalLength: 1.4; species: setosa; petalWidth: 0.2" role="graphics-symbol" aria-roledescription="point" transform="translate(40,184.6153846153846)" d="M2.7386127875258306,0A2.7386127875258306,2.7386127875258306,0,1,1,-2.7386127875258306,0A2.7386127875258306,2.7386127875258306,0,1,1,2.7386127875258306,0" stroke="#4c78a8" stroke-width="2" opacity="0.7"></path><path aria-label="petalLength: 1.5; species: setosa; petalWidth: 0.1" role="graphics-symbol" aria-roledescription="point" transform="translate(42.857142857142854,192.30769230769232)" d="M2.7386127875258306,0A2.7386127875258306,2.7386127875258306,0,1,1,-2.7386127875258306,0A2.7386127875258306,2.7386127875258306,0,1,1,2.7386127875258306,0" stroke="#4c78a8" stroke-width="2" opacity="0.7"></path><path aria-label="petalLength: 1.5; species: setosa; petalWidth: 0.2" role="graphics-symbol" aria-roledescription="point" transform="translate(42.857142857142854,184.6153846153846)" d="M2.7386127875258306,0A2.7386127875258306,2.7386127875258306,0,1,1,-2.7386127875258306,0A2.7386127875258306,2.7386127875258306,0,1,1,2.7386127875258306,0" stroke="#4c78a8" stroke-width="2" opacity="0.7"></path><path aria-label="petalLength: 1.6; species: setosa; petalWidth: 0.2" role="graphics-symbol" aria-roledescription="point" transform="translate(45.714285714285715,184.6153846153846)" d="M2.7386127875258306,0A2.7386127875258306,2.7386127875258306,0,1,1,-2.7386127875258306,0A2.7386127875258306,2.7386127875258306,0,1,1,2.7386127875258306,0" stroke="#4c78a8" stroke-width="2" opacity="0.7"></path><path aria-label="petalLength: 1.4; species: setosa; petalWidth: 0.1" role="graphics-symbol" aria-roledescription="point" transform="translate(40,192.30769230769232)" d="M2.7386127875258306,0A2.7386127875258306,2.7386127875258306,0,1,1,-2.7386127875258306,0A2.7386127875258306,2.7386127875258306,0,1,1,2.7386127875258306,0" stroke="#4c78a8" stroke-width="2" opacity="0.7"></path><path aria-label="petalLength: 1.1; species: setosa; petalWidth: 0.1" role="graphics-symbol" aria-roledescription="point" transform="translate(31.428571428571434,192.30769230769232)" d="M2.7386127875258306,0A2.7386127875258306,2.7386127875258306,0,1,1,-2.7386127875258306,0A2.7386127875258306,2.7386127875258306,0,1,1,2.7386127875258306,0" stroke="#4c78a8" stroke-width="2" opacity="0.7"></path><path aria-label="petalLength: 1.2; species: setosa; petalWidth: 0.2" role="graphics-symbol" aria-roledescription="point" transform="translate(34.285714285714285,184.6153846153846)" d="M2.7386127875258306,0A2.7386127875258306,2.7386127875258306,0,1,1,-2.7386127875258306,0A2.7386127875258306,2.7386127875258306,0,1,1,2.7386127875258306,0" stroke="#4c78a8" stroke-width="2" opacity="0.7"></path><path aria-label="petalLength: 1.5; species: setosa; petalWidth: 0.4" role="graphics-symbol" aria-roledescription="point" transform="translate(42.857142857142854,169.23076923076923)" d="M2.7386127875258306,0A2.7386127875258306,2.7386127875258306,0,1,1,-2.7386127875258306,0A2.7386127875258306,2.7386127875258306,0,1,1,2.7386127875258306,0" stroke="#4c78a8" stroke-width="2" opacity="0.7"></path><path aria-label="petalLength: 1.3; species: setosa; petalWidth: 0.4" role="graphics-symbol" aria-roledescription="point" transform="translate(37.142857142857146,169.23076923076923)" d="M2.7386127875258306,0A2.7386127875258306,2.7386127875258306,0,1,1,-2.7386127875258306,0A2.7386127875258306,2.7386127875258306,0,1,1,2.7386127875258306,0" stroke="#4c78a8" stroke-width="2" opacity="0.7"></path><path aria-label="petalLength: 1.4; species: setosa; petalWidth: 0.3" role="graphics-symbol" aria-roledescription="point" transform="translate(40,176.9230769230769)" d="M2.7386127875258306,0A2.7386127875258306,2.7386127875258306,0,1,1,-2.7386127875258306,0A2.7386127875258306,2.7386127875258306,0,1,1,2.7386127875258306,0" stroke="#4c78a8" stroke-width="2" opacity="0.7"></path><path aria-label="petalLength: 1.7; species: setosa; petalWidth: 0.3" role="graphics-symbol" aria-roledescription="point" transform="translate(48.57142857142857,176.9230769230769)" d="M2.7386127875258306,0A2.7386127875258306,2.7386127875258306,0,1,1,-2.7386127875258306,0A2.7386127875258306,2.7386127875258306,0,1,1,2.7386127875258306,0" stroke="#4c78a8" stroke-width="2" opacity="0.7"></path><path aria-label="petalLength: 1.5; species: setosa; petalWidth: 0.3" role="graphics-symbol" aria-roledescription="point" transform="translate(42.857142857142854,176.9230769230769)" d="M2.7386127875258306,0A2.7386127875258306,2.7386127875258306,0,1,1,-2.7386127875258306,0A2.7386127875258306,2.7386127875258306,0,1,1,2.7386127875258306,0" stroke="#4c78a8" stroke-width="2" opacity="0.7"></path><path aria-label="petalLength: 1.7; species: setosa; petalWidth: 0.2" role="graphics-symbol" aria-roledescription="point" transform="translate(48.57142857142857,184.6153846153846)" d="M2.7386127875258306,0A2.7386127875258306,2.7386127875258306,0,1,1,-2.7386127875258306,0A2.7386127875258306,2.7386127875258306,0,1,1,2.7386127875258306,0" stroke="#4c78a8" stroke-width="2" opacity="0.7"></path><path aria-label="petalLength: 1.5; species: setosa; petalWidth: 0.4" role="graphics-symbol" aria-roledescription="point" transform="translate(42.857142857142854,169.23076923076923)" d="M2.7386127875258306,0A2.7386127875258306,2.7386127875258306,0,1,1,-2.7386127875258306,0A2.7386127875258306,2.7386127875258306,0,1,1,2.7386127875258306,0" stroke="#4c78a8" stroke-width="2" opacity="0.7"></path><path aria-label="petalLength: 1; species: setosa; petalWidth: 0.2" role="graphics-symbol" aria-roledescription="point" transform="translate(28.57142857142857,184.6153846153846)" d="M2.7386127875258306,0A2.7386127875258306,2.7386127875258306,0,1,1,-2.7386127875258306,0A2.7386127875258306,2.7386127875258306,0,1,1,2.7386127875258306,0" stroke="#4c78a8" stroke-width="2" opacity="0.7"></path><path aria-label="petalLength: 1.7; species: setosa; petalWidth: 0.5" role="graphics-symbol" aria-roledescription="point" transform="translate(48.57142857142857,161.53846153846155)" d="M2.7386127875258306,0A2.7386127875258306,2.7386127875258306,0,1,1,-2.7386127875258306,0A2.7386127875258306,2.7386127875258306,0,1,1,2.7386127875258306,0" stroke="#4c78a8" stroke-width="2" opacity="0.7"></path><path aria-label="petalLength: 1.9; species: setosa; petalWidth: 0.2" role="graphics-symbol" aria-roledescription="point" transform="translate(54.285714285714285,184.6153846153846)" d="M2.7386127875258306,0A2.7386127875258306,2.7386127875258306,0,1,1,-2.7386127875258306,0A2.7386127875258306,2.7386127875258306,0,1,1,2.7386127875258306,0" stroke="#4c78a8" stroke-width="2" opacity="0.7"></path><path aria-label="petalLength: 1.6; species: setosa; petalWidth: 0.2" role="graphics-symbol" aria-roledescription="point" transform="translate(45.714285714285715,184.6153846153846)" d="M2.7386127875258306,0A2.7386127875258306,2.7386127875258306,0,1,1,-2.7386127875258306,0A2.7386127875258306,2.7386127875258306,0,1,1,2.7386127875258306,0" stroke="#4c78a8" stroke-width="2" opacity="0.7"></path><path aria-label="petalLength: 1.6; species: setosa; petalWidth: 0.4" role="graphics-symbol" aria-roledescription="point" transform="translate(45.714285714285715,169.23076923076923)" d="M2.7386127875258306,0A2.7386127875258306,2.7386127875258306,0,1,1,-2.7386127875258306,0A2.7386127875258306,2.7386127875258306,0,1,1,2.7386127875258306,0" stroke="#4c78a8" stroke-width="2" opacity="0.7"></path><path aria-label="petalLength: 1.5; species: setosa; petalWidth: 0.2" role="graphics-symbol" aria-roledescription="point" transform="translate(42.857142857142854,184.6153846153846)" d="M2.7386127875258306,0A2.7386127875258306,2.7386127875258306,0,1,1,-2.7386127875258306,0A2.7386127875258306,2.7386127875258306,0,1,1,2.7386127875258306,0" stroke="#4c78a8" stroke-width="2" opacity="0.7"></path><path aria-label="petalLength: 1.4; species: setosa; petalWidth: 0.2" role="graphics-symbol" aria-roledescription="point" transform="translate(40,184.6153846153846)" d="M2.7386127875258306,0A2.7386127875258306,2.7386127875258306,0,1,1,-2.7386127875258306,0A2.7386127875258306,2.7386127875258306,0,1,1,2.7386127875258306,0" stroke="#4c78a8" stroke-width="2" opacity="0.7"></path><path aria-label="petalLength: 1.6; species: setosa; petalWidth: 0.2" role="graphics-symbol" aria-roledescription="point" transform="translate(45.714285714285715,184.6153846153846)" d="M2.7386127875258306,0A2.7386127875258306,2.7386127875258306,0,1,1,-2.7386127875258306,0A2.7386127875258306,2.7386127875258306,0,1,1,2.7386127875258306,0" stroke="#4c78a8" stroke-width="2" opacity="0.7"></path><path aria-label="petalLength: 1.6; species: setosa; petalWidth: 0.2" role="graphics-symbol" aria-roledescription="point" transform="translate(45.714285714285715,184.6153846153846)" d="M2.7386127875258306,0A2.7386127875258306,2.7386127875258306,0,1,1,-2.7386127875258306,0A2.7386127875258306,2.7386127875258306,0,1,1,2.7386127875258306,0" stroke="#4c78a8" stroke-width="2" opacity="0.7"></path><path aria-label="petalLength: 1.5; species: setosa; petalWidth: 0.4" role="graphics-symbol" aria-roledescription="point" transform="translate(42.857142857142854,169.23076923076923)" d="M2.7386127875258306,0A2.7386127875258306,2.7386127875258306,0,1,1,-2.7386127875258306,0A2.7386127875258306,2.7386127875258306,0,1,1,2.7386127875258306,0" stroke="#4c78a8" stroke-width="2" opacity="0.7"></path><path aria-label="petalLength: 1.5; species: setosa; petalWidth: 0.1" role="graphics-symbol" aria-roledescription="point" transform="translate(42.857142857142854,192.30769230769232)" d="M2.7386127875258306,0A2.7386127875258306,2.7386127875258306,0,1,1,-2.7386127875258306,0A2.7386127875258306,2.7386127875258306,0,1,1,2.7386127875258306,0" stroke="#4c78a8" stroke-width="2" opacity="0.7"></path><path aria-label="petalLength: 1.4; species: setosa; petalWidth: 0.2" role="graphics-symbol" aria-roledescription="point" transform="translate(40,184.6153846153846)" d="M2.7386127875258306,0A2.7386127875258306,2.7386127875258306,0,1,1,-2.7386127875258306,0A2.7386127875258306,2.7386127875258306,0,1,1,2.7386127875258306,0" stroke="#4c78a8" stroke-width="2" opacity="0.7"></path><path aria-label="petalLength: 1.5; species: setosa; petalWidth: 0.2" role="graphics-symbol" aria-roledescription="point" transform="translate(42.857142857142854,184.6153846153846)" d="M2.7386127875258306,0A2.7386127875258306,2.7386127875258306,0,1,1,-2.7386127875258306,0A2.7386127875258306,2.7386127875258306,0,1,1,2.7386127875258306,0" stroke="#4c78a8" stroke-width="2" opacity="0.7"></path><path aria-label="petalLength: 1.2; species: setosa; petalWidth: 0.2" role="graphics-symbol" aria-roledescription="point" transform="translate(34.285714285714285,184.6153846153846)" d="M2.7386127875258306,0A2.7386127875258306,2.7386127875258306,0,1,1,-2.7386127875258306,0A2.7386127875258306,2.7386127875258306,0,1,1,2.7386127875258306,0" stroke="#4c78a8" stroke-width="2" opacity="0.7"></path><path aria-label="petalLength: 1.3; species: setosa; petalWidth: 0.2" role="graphics-symbol" aria-roledescription="point" transform="translate(37.142857142857146,184.6153846153846)" d="M2.7386127875258306,0A2.7386127875258306,2.7386127875258306,0,1,1,-2.7386127875258306,0A2.7386127875258306,2.7386127875258306,0,1,1,2.7386127875258306,0" stroke="#4c78a8" stroke-width="2" opacity="0.7"></path><path aria-label="petalLength: 1.4; species: setosa; petalWidth: 0.1" role="graphics-symbol" aria-roledescription="point" transform="translate(40,192.30769230769232)" d="M2.7386127875258306,0A2.7386127875258306,2.7386127875258306,0,1,1,-2.7386127875258306,0A2.7386127875258306,2.7386127875258306,0,1,1,2.7386127875258306,0" stroke="#4c78a8" stroke-width="2" opacity="0.7"></path><path aria-label="petalLength: 1.3; species: setosa; petalWidth: 0.2" role="graphics-symbol" aria-roledescription="point" transform="translate(37.142857142857146,184.6153846153846)" d="M2.7386127875258306,0A2.7386127875258306,2.7386127875258306,0,1,1,-2.7386127875258306,0A2.7386127875258306,2.7386127875258306,0,1,1,2.7386127875258306,0" stroke="#4c78a8" stroke-width="2" opacity="0.7"></path><path aria-label="petalLength: 1.5; species: setosa; petalWidth: 0.2" role="graphics-symbol" aria-roledescription="point" transform="translate(42.857142857142854,184.6153846153846)" d="M2.7386127875258306,0A2.7386127875258306,2.7386127875258306,0,1,1,-2.7386127875258306,0A2.7386127875258306,2.7386127875258306,0,1,1,2.7386127875258306,0" stroke="#4c78a8" stroke-width="2" opacity="0.7"></path><path aria-label="petalLength: 1.3; species: setosa; petalWidth: 0.3" role="graphics-symbol" aria-roledescription="point" transform="translate(37.142857142857146,176.9230769230769)" d="M2.7386127875258306,0A2.7386127875258306,2.7386127875258306,0,1,1,-2.7386127875258306,0A2.7386127875258306,2.7386127875258306,0,1,1,2.7386127875258306,0" stroke="#4c78a8" stroke-width="2" opacity="0.7"></path><path aria-label="petalLength: 1.3; species: setosa; petalWidth: 0.3" role="graphics-symbol" aria-roledescription="point" transform="translate(37.142857142857146,176.9230769230769)" d="M2.7386127875258306,0A2.7386127875258306,2.7386127875258306,0,1,1,-2.7386127875258306,0A2.7386127875258306,2.7386127875258306,0,1,1,2.7386127875258306,0" stroke="#4c78a8" stroke-width="2" opacity="0.7"></path><path aria-label="petalLength: 1.3; species: setosa; petalWidth: 0.2" role="graphics-symbol" aria-roledescription="point" transform="translate(37.142857142857146,184.6153846153846)" d="M2.7386127875258306,0A2.7386127875258306,2.7386127875258306,0,1,1,-2.7386127875258306,0A2.7386127875258306,2.7386127875258306,0,1,1,2.7386127875258306,0" stroke="#4c78a8" stroke-width="2" opacity="0.7"></path><path aria-label="petalLength: 1.6; species: setosa; petalWidth: 0.6" role="graphics-symbol" aria-roledescription="point" transform="translate(45.714285714285715,153.84615384615387)" d="M2.7386127875258306,0A2.7386127875258306,2.7386127875258306,0,1,1,-2.7386127875258306,0A2.7386127875258306,2.7386127875258306,0,1,1,2.7386127875258306,0" stroke="#4c78a8" stroke-width="2" opacity="0.7"></path><path aria-label="petalLength: 1.9; species: setosa; petalWidth: 0.4" role="graphics-symbol" aria-roledescription="point" transform="translate(54.285714285714285,169.23076923076923)" d="M2.7386127875258306,0A2.7386127875258306,2.7386127875258306,0,1,1,-2.7386127875258306,0A2.7386127875258306,2.7386127875258306,0,1,1,2.7386127875258306,0" stroke="#4c78a8" stroke-width="2" opacity="0.7"></path><path aria-label="petalLength: 1.4; species: setosa; petalWidth: 0.3" role="graphics-symbol" aria-roledescription="point" transform="translate(40,176.9230769230769)" d="M2.7386127875258306,0A2.7386127875258306,2.7386127875258306,0,1,1,-2.7386127875258306,0A2.7386127875258306,2.7386127875258306,0,1,1,2.7386127875258306,0" stroke="#4c78a8" stroke-width="2" opacity="0.7"></path><path aria-label="petalLength: 1.6; species: setosa; petalWidth: 0.2" role="graphics-symbol" aria-roledescription="point" transform="translate(45.714285714285715,184.6153846153846)" d="M2.7386127875258306,0A2.7386127875258306,2.7386127875258306,0,1,1,-2.7386127875258306,0A2.7386127875258306,2.7386127875258306,0,1,1,2.7386127875258306,0" stroke="#4c78a8" stroke-width="2" opacity="0.7"></path><path aria-label="petalLength: 1.4; species: setosa; petalWidth: 0.2" role="graphics-symbol" aria-roledescription="point" transform="translate(40,184.6153846153846)" d="M2.7386127875258306,0A2.7386127875258306,2.7386127875258306,0,1,1,-2.7386127875258306,0A2.7386127875258306,2.7386127875258306,0,1,1,2.7386127875258306,0" stroke="#4c78a8" stroke-width="2" opacity="0.7"></path><path aria-label="petalLength: 1.5; species: setosa; petalWidth: 0.2" role="graphics-symbol" aria-roledescription="point" transform="translate(42.857142857142854,184.6153846153846)" d="M2.7386127875258306,0A2.7386127875258306,2.7386127875258306,0,1,1,-2.7386127875258306,0A2.7386127875258306,2.7386127875258306,0,1,1,2.7386127875258306,0" stroke="#4c78a8" stroke-width="2" opacity="0.7"></path><path aria-label="petalLength: 1.4; species: setosa; petalWidth: 0.2" role="graphics-symbol" aria-roledescription="point" transform="translate(40,184.6153846153846)" d="M2.7386127875258306,0A2.7386127875258306,2.7386127875258306,0,1,1,-2.7386127875258306,0A2.7386127875258306,2.7386127875258306,0,1,1,2.7386127875258306,0" stroke="#4c78a8" stroke-width="2" opacity="0.7"></path><path aria-label="petalLength: 4.7; species: versicolor; petalWidth: 1.4" role="graphics-symbol" aria-roledescription="point" transform="translate(134.2857142857143,92.3076923076923)" d="M2.7386127875258306,0A2.7386127875258306,2.7386127875258306,0,1,1,-2.7386127875258306,0A2.7386127875258306,2.7386127875258306,0,1,1,2.7386127875258306,0" stroke="#f58518" stroke-width="2" opacity="0.7"></path><path aria-label="petalLength: 4.5; species: versicolor; petalWidth: 1.5" role="graphics-symbol" aria-roledescription="point" transform="translate(128.57142857142858,84.61538461538463)" d="M2.7386127875258306,0A2.7386127875258306,2.7386127875258306,0,1,1,-2.7386127875258306,0A2.7386127875258306,2.7386127875258306,0,1,1,2.7386127875258306,0" stroke="#f58518" stroke-width="2" opacity="0.7"></path><path aria-label="petalLength: 4.9; species: versicolor; petalWidth: 1.5" role="graphics-symbol" aria-roledescription="point" transform="translate(140,84.61538461538463)" d="M2.7386127875258306,0A2.7386127875258306,2.7386127875258306,0,1,1,-2.7386127875258306,0A2.7386127875258306,2.7386127875258306,0,1,1,2.7386127875258306,0" stroke="#f58518" stroke-width="2" opacity="0.7"></path><path aria-label="petalLength: 4; species: versicolor; petalWidth: 1.3" role="graphics-symbol" aria-roledescription="point" transform="translate(114.28571428571428,100)" d="M2.7386127875258306,0A2.7386127875258306,2.7386127875258306,0,1,1,-2.7386127875258306,0A2.7386127875258306,2.7386127875258306,0,1,1,2.7386127875258306,0" stroke="#f58518" stroke-width="2" opacity="0.7"></path><path aria-label="petalLength: 4.6; species: versicolor; petalWidth: 1.5" role="graphics-symbol" aria-roledescription="point" transform="translate(131.42857142857142,84.61538461538463)" d="M2.7386127875258306,0A2.7386127875258306,2.7386127875258306,0,1,1,-2.7386127875258306,0A2.7386127875258306,2.7386127875258306,0,1,1,2.7386127875258306,0" stroke="#f58518" stroke-width="2" opacity="0.7"></path><path aria-label="petalLength: 4.5; species: versicolor; petalWidth: 1.3" role="graphics-symbol" aria-roledescription="point" transform="translate(128.57142857142858,100)" d="M2.7386127875258306,0A2.7386127875258306,2.7386127875258306,0,1,1,-2.7386127875258306,0A2.7386127875258306,2.7386127875258306,0,1,1,2.7386127875258306,0" stroke="#f58518" stroke-width="2" opacity="0.7"></path><path aria-label="petalLength: 4.7; species: versicolor; petalWidth: 1.6" role="graphics-symbol" aria-roledescription="point" transform="translate(134.2857142857143,76.92307692307692)" d="M2.7386127875258306,0A2.7386127875258306,2.7386127875258306,0,1,1,-2.7386127875258306,0A2.7386127875258306,2.7386127875258306,0,1,1,2.7386127875258306,0" stroke="#f58518" stroke-width="2" opacity="0.7"></path><path aria-label="petalLength: 3.3; species: versicolor; petalWidth: 1" role="graphics-symbol" aria-roledescription="point" transform="translate(94.28571428571428,123.07692307692308)" d="M2.7386127875258306,0A2.7386127875258306,2.7386127875258306,0,1,1,-2.7386127875258306,0A2.7386127875258306,2.7386127875258306,0,1,1,2.7386127875258306,0" stroke="#f58518" stroke-width="2" opacity="0.7"></path><path aria-label="petalLength: 4.6; species: versicolor; petalWidth: 1.3" role="graphics-symbol" aria-roledescription="point" transform="translate(131.42857142857142,100)" d="M2.7386127875258306,0A2.7386127875258306,2.7386127875258306,0,1,1,-2.7386127875258306,0A2.7386127875258306,2.7386127875258306,0,1,1,2.7386127875258306,0" stroke="#f58518" stroke-width="2" opacity="0.7"></path><path aria-label="petalLength: 3.9; species: versicolor; petalWidth: 1.4" role="graphics-symbol" aria-roledescription="point" transform="translate(111.42857142857143,92.3076923076923)" d="M2.7386127875258306,0A2.7386127875258306,2.7386127875258306,0,1,1,-2.7386127875258306,0A2.7386127875258306,2.7386127875258306,0,1,1,2.7386127875258306,0" stroke="#f58518" stroke-width="2" opacity="0.7"></path><path aria-label="petalLength: 3.5; species: versicolor; petalWidth: 1" role="graphics-symbol" aria-roledescription="point" transform="translate(100,123.07692307692308)" d="M2.7386127875258306,0A2.7386127875258306,2.7386127875258306,0,1,1,-2.7386127875258306,0A2.7386127875258306,2.7386127875258306,0,1,1,2.7386127875258306,0" stroke="#f58518" stroke-width="2" opacity="0.7"></path><path aria-label="petalLength: 4.2; species: versicolor; petalWidth: 1.5" role="graphics-symbol" aria-roledescription="point" transform="translate(120,84.61538461538463)" d="M2.7386127875258306,0A2.7386127875258306,2.7386127875258306,0,1,1,-2.7386127875258306,0A2.7386127875258306,2.7386127875258306,0,1,1,2.7386127875258306,0" stroke="#f58518" stroke-width="2" opacity="0.7"></path><path aria-label="petalLength: 4; species: versicolor; petalWidth: 1" role="graphics-symbol" aria-roledescription="point" transform="translate(114.28571428571428,123.07692307692308)" d="M2.7386127875258306,0A2.7386127875258306,2.7386127875258306,0,1,1,-2.7386127875258306,0A2.7386127875258306,2.7386127875258306,0,1,1,2.7386127875258306,0" stroke="#f58518" stroke-width="2" opacity="0.7"></path><path aria-label="petalLength: 4.7; species: versicolor; petalWidth: 1.4" role="graphics-symbol" aria-roledescription="point" transform="translate(134.2857142857143,92.3076923076923)" d="M2.7386127875258306,0A2.7386127875258306,2.7386127875258306,0,1,1,-2.7386127875258306,0A2.7386127875258306,2.7386127875258306,0,1,1,2.7386127875258306,0" stroke="#f58518" stroke-width="2" opacity="0.7"></path><path aria-label="petalLength: 3.6; species: versicolor; petalWidth: 1.3" role="graphics-symbol" aria-roledescription="point" transform="translate(102.85714285714288,100)" d="M2.7386127875258306,0A2.7386127875258306,2.7386127875258306,0,1,1,-2.7386127875258306,0A2.7386127875258306,2.7386127875258306,0,1,1,2.7386127875258306,0" stroke="#f58518" stroke-width="2" opacity="0.7"></path><path aria-label="petalLength: 4.4; species: versicolor; petalWidth: 1.4" role="graphics-symbol" aria-roledescription="point" transform="translate(125.71428571428574,92.3076923076923)" d="M2.7386127875258306,0A2.7386127875258306,2.7386127875258306,0,1,1,-2.7386127875258306,0A2.7386127875258306,2.7386127875258306,0,1,1,2.7386127875258306,0" stroke="#f58518" stroke-width="2" opacity="0.7"></path><path aria-label="petalLength: 4.5; species: versicolor; petalWidth: 1.5" role="graphics-symbol" aria-roledescription="point" transform="translate(128.57142857142858,84.61538461538463)" d="M2.7386127875258306,0A2.7386127875258306,2.7386127875258306,0,1,1,-2.7386127875258306,0A2.7386127875258306,2.7386127875258306,0,1,1,2.7386127875258306,0" stroke="#f58518" stroke-width="2" opacity="0.7"></path><path aria-label="petalLength: 4.1; species: versicolor; petalWidth: 1" role="graphics-symbol" aria-roledescription="point" transform="translate(117.14285714285712,123.07692307692308)" d="M2.7386127875258306,0A2.7386127875258306,2.7386127875258306,0,1,1,-2.7386127875258306,0A2.7386127875258306,2.7386127875258306,0,1,1,2.7386127875258306,0" stroke="#f58518" stroke-width="2" opacity="0.7"></path><path aria-label="petalLength: 4.5; species: versicolor; petalWidth: 1.5" role="graphics-symbol" aria-roledescription="point" transform="translate(128.57142857142858,84.61538461538463)" d="M2.7386127875258306,0A2.7386127875258306,2.7386127875258306,0,1,1,-2.7386127875258306,0A2.7386127875258306,2.7386127875258306,0,1,1,2.7386127875258306,0" stroke="#f58518" stroke-width="2" opacity="0.7"></path><path aria-label="petalLength: 3.9; species: versicolor; petalWidth: 1.1" role="graphics-symbol" aria-roledescription="point" transform="translate(111.42857142857143,115.38461538461537)" d="M2.7386127875258306,0A2.7386127875258306,2.7386127875258306,0,1,1,-2.7386127875258306,0A2.7386127875258306,2.7386127875258306,0,1,1,2.7386127875258306,0" stroke="#f58518" stroke-width="2" opacity="0.7"></path><path aria-label="petalLength: 4.8; species: versicolor; petalWidth: 1.8" role="graphics-symbol" aria-roledescription="point" transform="translate(137.14285714285714,61.53846153846154)" d="M2.7386127875258306,0A2.7386127875258306,2.7386127875258306,0,1,1,-2.7386127875258306,0A2.7386127875258306,2.7386127875258306,0,1,1,2.7386127875258306,0" stroke="#f58518" stroke-width="2" opacity="0.7"></path><path aria-label="petalLength: 4; species: versicolor; petalWidth: 1.3" role="graphics-symbol" aria-roledescription="point" transform="translate(114.28571428571428,100)" d="M2.7386127875258306,0A2.7386127875258306,2.7386127875258306,0,1,1,-2.7386127875258306,0A2.7386127875258306,2.7386127875258306,0,1,1,2.7386127875258306,0" stroke="#f58518" stroke-width="2" opacity="0.7"></path><path aria-label="petalLength: 4.9; species: versicolor; petalWidth: 1.5" role="graphics-symbol" aria-roledescription="point" transform="translate(140,84.61538461538463)" d="M2.7386127875258306,0A2.7386127875258306,2.7386127875258306,0,1,1,-2.7386127875258306,0A2.7386127875258306,2.7386127875258306,0,1,1,2.7386127875258306,0" stroke="#f58518" stroke-width="2" opacity="0.7"></path><path aria-label="petalLength: 4.7; species: versicolor; petalWidth: 1.2" role="graphics-symbol" aria-roledescription="point" transform="translate(134.2857142857143,107.69230769230771)" d="M2.7386127875258306,0A2.7386127875258306,2.7386127875258306,0,1,1,-2.7386127875258306,0A2.7386127875258306,2.7386127875258306,0,1,1,2.7386127875258306,0" stroke="#f58518" stroke-width="2" opacity="0.7"></path><path aria-label="petalLength: 4.3; species: versicolor; petalWidth: 1.3" role="graphics-symbol" aria-roledescription="point" transform="translate(122.85714285714285,100)" d="M2.7386127875258306,0A2.7386127875258306,2.7386127875258306,0,1,1,-2.7386127875258306,0A2.7386127875258306,2.7386127875258306,0,1,1,2.7386127875258306,0" stroke="#f58518" stroke-width="2" opacity="0.7"></path><path aria-label="petalLength: 4.4; species: versicolor; petalWidth: 1.4" role="graphics-symbol" aria-roledescription="point" transform="translate(125.71428571428574,92.3076923076923)" d="M2.7386127875258306,0A2.7386127875258306,2.7386127875258306,0,1,1,-2.7386127875258306,0A2.7386127875258306,2.7386127875258306,0,1,1,2.7386127875258306,0" stroke="#f58518" stroke-width="2" opacity="0.7"></path><path aria-label="petalLength: 4.8; species: versicolor; petalWidth: 1.4" role="graphics-symbol" aria-roledescription="point" transform="translate(137.14285714285714,92.3076923076923)" d="M2.7386127875258306,0A2.7386127875258306,2.7386127875258306,0,1,1,-2.7386127875258306,0A2.7386127875258306,2.7386127875258306,0,1,1,2.7386127875258306,0" stroke="#f58518" stroke-width="2" opacity="0.7"></path><path aria-label="petalLength: 5; species: versicolor; petalWidth: 1.7" role="graphics-symbol" aria-roledescription="point" transform="translate(142.85714285714286,69.23076923076923)" d="M2.7386127875258306,0A2.7386127875258306,2.7386127875258306,0,1,1,-2.7386127875258306,0A2.7386127875258306,2.7386127875258306,0,1,1,2.7386127875258306,0" stroke="#f58518" stroke-width="2" opacity="0.7"></path><path aria-label="petalLength: 4.5; species: versicolor; petalWidth: 1.5" role="graphics-symbol" aria-roledescription="point" transform="translate(128.57142857142858,84.61538461538463)" d="M2.7386127875258306,0A2.7386127875258306,2.7386127875258306,0,1,1,-2.7386127875258306,0A2.7386127875258306,2.7386127875258306,0,1,1,2.7386127875258306,0" stroke="#f58518" stroke-width="2" opacity="0.7"></path><path aria-label="petalLength: 3.5; species: versicolor; petalWidth: 1" role="graphics-symbol" aria-roledescription="point" transform="translate(100,123.07692307692308)" d="M2.7386127875258306,0A2.7386127875258306,2.7386127875258306,0,1,1,-2.7386127875258306,0A2.7386127875258306,2.7386127875258306,0,1,1,2.7386127875258306,0" stroke="#f58518" stroke-width="2" opacity="0.7"></path><path aria-label="petalLength: 3.8; species: versicolor; petalWidth: 1.1" role="graphics-symbol" aria-roledescription="point" transform="translate(108.57142857142857,115.38461538461537)" d="M2.7386127875258306,0A2.7386127875258306,2.7386127875258306,0,1,1,-2.7386127875258306,0A2.7386127875258306,2.7386127875258306,0,1,1,2.7386127875258306,0" stroke="#f58518" stroke-width="2" opacity="0.7"></path><path aria-label="petalLength: 3.7; species: versicolor; petalWidth: 1" role="graphics-symbol" aria-roledescription="point" transform="translate(105.71428571428572,123.07692307692308)" d="M2.7386127875258306,0A2.7386127875258306,2.7386127875258306,0,1,1,-2.7386127875258306,0A2.7386127875258306,2.7386127875258306,0,1,1,2.7386127875258306,0" stroke="#f58518" stroke-width="2" opacity="0.7"></path><path aria-label="petalLength: 3.9; species: versicolor; petalWidth: 1.2" role="graphics-symbol" aria-roledescription="point" transform="translate(111.42857142857143,107.69230769230771)" d="M2.7386127875258306,0A2.7386127875258306,2.7386127875258306,0,1,1,-2.7386127875258306,0A2.7386127875258306,2.7386127875258306,0,1,1,2.7386127875258306,0" stroke="#f58518" stroke-width="2" opacity="0.7"></path><path aria-label="petalLength: 5.1; species: versicolor; petalWidth: 1.6" role="graphics-symbol" aria-roledescription="point" transform="translate(145.7142857142857,76.92307692307692)" d="M2.7386127875258306,0A2.7386127875258306,2.7386127875258306,0,1,1,-2.7386127875258306,0A2.7386127875258306,2.7386127875258306,0,1,1,2.7386127875258306,0" stroke="#f58518" stroke-width="2" opacity="0.7"></path><path aria-label="petalLength: 4.5; species: versicolor; petalWidth: 1.5" role="graphics-symbol" aria-roledescription="point" transform="translate(128.57142857142858,84.61538461538463)" d="M2.7386127875258306,0A2.7386127875258306,2.7386127875258306,0,1,1,-2.7386127875258306,0A2.7386127875258306,2.7386127875258306,0,1,1,2.7386127875258306,0" stroke="#f58518" stroke-width="2" opacity="0.7"></path><path aria-label="petalLength: 4.5; species: versicolor; petalWidth: 1.6" role="graphics-symbol" aria-roledescription="point" transform="translate(128.57142857142858,76.92307692307692)" d="M2.7386127875258306,0A2.7386127875258306,2.7386127875258306,0,1,1,-2.7386127875258306,0A2.7386127875258306,2.7386127875258306,0,1,1,2.7386127875258306,0" stroke="#f58518" stroke-width="2" opacity="0.7"></path><path aria-label="petalLength: 4.7; species: versicolor; petalWidth: 1.5" role="graphics-symbol" aria-roledescription="point" transform="translate(134.2857142857143,84.61538461538463)" d="M2.7386127875258306,0A2.7386127875258306,2.7386127875258306,0,1,1,-2.7386127875258306,0A2.7386127875258306,2.7386127875258306,0,1,1,2.7386127875258306,0" stroke="#f58518" stroke-width="2" opacity="0.7"></path><path aria-label="petalLength: 4.4; species: versicolor; petalWidth: 1.3" role="graphics-symbol" aria-roledescription="point" transform="translate(125.71428571428574,100)" d="M2.7386127875258306,0A2.7386127875258306,2.7386127875258306,0,1,1,-2.7386127875258306,0A2.7386127875258306,2.7386127875258306,0,1,1,2.7386127875258306,0" stroke="#f58518" stroke-width="2" opacity="0.7"></path><path aria-label="petalLength: 4.1; species: versicolor; petalWidth: 1.3" role="graphics-symbol" aria-roledescription="point" transform="translate(117.14285714285712,100)" d="M2.7386127875258306,0A2.7386127875258306,2.7386127875258306,0,1,1,-2.7386127875258306,0A2.7386127875258306,2.7386127875258306,0,1,1,2.7386127875258306,0" stroke="#f58518" stroke-width="2" opacity="0.7"></path><path aria-label="petalLength: 4; species: versicolor; petalWidth: 1.3" role="graphics-symbol" aria-roledescription="point" transform="translate(114.28571428571428,100)" d="M2.7386127875258306,0A2.7386127875258306,2.7386127875258306,0,1,1,-2.7386127875258306,0A2.7386127875258306,2.7386127875258306,0,1,1,2.7386127875258306,0" stroke="#f58518" stroke-width="2" opacity="0.7"></path><path aria-label="petalLength: 4.4; species: versicolor; petalWidth: 1.2" role="graphics-symbol" aria-roledescription="point" transform="translate(125.71428571428574,107.69230769230771)" d="M2.7386127875258306,0A2.7386127875258306,2.7386127875258306,0,1,1,-2.7386127875258306,0A2.7386127875258306,2.7386127875258306,0,1,1,2.7386127875258306,0" stroke="#f58518" stroke-width="2" opacity="0.7"></path><path aria-label="petalLength: 4.6; species: versicolor; petalWidth: 1.4" role="graphics-symbol" aria-roledescription="point" transform="translate(131.42857142857142,92.3076923076923)" d="M2.7386127875258306,0A2.7386127875258306,2.7386127875258306,0,1,1,-2.7386127875258306,0A2.7386127875258306,2.7386127875258306,0,1,1,2.7386127875258306,0" stroke="#f58518" stroke-width="2" opacity="0.7"></path><path aria-label="petalLength: 4; species: versicolor; petalWidth: 1.2" role="graphics-symbol" aria-roledescription="point" transform="translate(114.28571428571428,107.69230769230771)" d="M2.7386127875258306,0A2.7386127875258306,2.7386127875258306,0,1,1,-2.7386127875258306,0A2.7386127875258306,2.7386127875258306,0,1,1,2.7386127875258306,0" stroke="#f58518" stroke-width="2" opacity="0.7"></path><path aria-label="petalLength: 3.3; species: versicolor; petalWidth: 1" role="graphics-symbol" aria-roledescription="point" transform="translate(94.28571428571428,123.07692307692308)" d="M2.7386127875258306,0A2.7386127875258306,2.7386127875258306,0,1,1,-2.7386127875258306,0A2.7386127875258306,2.7386127875258306,0,1,1,2.7386127875258306,0" stroke="#f58518" stroke-width="2" opacity="0.7"></path><path aria-label="petalLength: 4.2; species: versicolor; petalWidth: 1.3" role="graphics-symbol" aria-roledescription="point" transform="translate(120,100)" d="M2.7386127875258306,0A2.7386127875258306,2.7386127875258306,0,1,1,-2.7386127875258306,0A2.7386127875258306,2.7386127875258306,0,1,1,2.7386127875258306,0" stroke="#f58518" stroke-width="2" opacity="0.7"></path><path aria-label="petalLength: 4.2; species: versicolor; petalWidth: 1.2" role="graphics-symbol" aria-roledescription="point" transform="translate(120,107.69230769230771)" d="M2.7386127875258306,0A2.7386127875258306,2.7386127875258306,0,1,1,-2.7386127875258306,0A2.7386127875258306,2.7386127875258306,0,1,1,2.7386127875258306,0" stroke="#f58518" stroke-width="2" opacity="0.7"></path><path aria-label="petalLength: 4.2; species: versicolor; petalWidth: 1.3" role="graphics-symbol" aria-roledescription="point" transform="translate(120,100)" d="M2.7386127875258306,0A2.7386127875258306,2.7386127875258306,0,1,1,-2.7386127875258306,0A2.7386127875258306,2.7386127875258306,0,1,1,2.7386127875258306,0" stroke="#f58518" stroke-width="2" opacity="0.7"></path><path aria-label="petalLength: 4.3; species: versicolor; petalWidth: 1.3" role="graphics-symbol" aria-roledescription="point" transform="translate(122.85714285714285,100)" d="M2.7386127875258306,0A2.7386127875258306,2.7386127875258306,0,1,1,-2.7386127875258306,0A2.7386127875258306,2.7386127875258306,0,1,1,2.7386127875258306,0" stroke="#f58518" stroke-width="2" opacity="0.7"></path><path aria-label="petalLength: 3; species: versicolor; petalWidth: 1.1" role="graphics-symbol" aria-roledescription="point" transform="translate(85.71428571428571,115.38461538461537)" d="M2.7386127875258306,0A2.7386127875258306,2.7386127875258306,0,1,1,-2.7386127875258306,0A2.7386127875258306,2.7386127875258306,0,1,1,2.7386127875258306,0" stroke="#f58518" stroke-width="2" opacity="0.7"></path><path aria-label="petalLength: 4.1; species: versicolor; petalWidth: 1.3" role="graphics-symbol" aria-roledescription="point" transform="translate(117.14285714285712,100)" d="M2.7386127875258306,0A2.7386127875258306,2.7386127875258306,0,1,1,-2.7386127875258306,0A2.7386127875258306,2.7386127875258306,0,1,1,2.7386127875258306,0" stroke="#f58518" stroke-width="2" opacity="0.7"></path><path aria-label="petalLength: 6; species: virginica; petalWidth: 2.5" role="graphics-symbol" aria-roledescription="point" transform="translate(171.42857142857142,7.692307692307709)" d="M2.7386127875258306,0A2.7386127875258306,2.7386127875258306,0,1,1,-2.7386127875258306,0A2.7386127875258306,2.7386127875258306,0,1,1,2.7386127875258306,0" stroke="#e45756" stroke-width="2" opacity="0.7"></path><path aria-label="petalLength: 5.1; species: virginica; petalWidth: 1.9" role="graphics-symbol" aria-roledescription="point" transform="translate(145.7142857142857,53.846153846153854)" d="M2.7386127875258306,0A2.7386127875258306,2.7386127875258306,0,1,1,-2.7386127875258306,0A2.7386127875258306,2.7386127875258306,0,1,1,2.7386127875258306,0" stroke="#e45756" stroke-width="2" opacity="0.7"></path><path aria-label="petalLength: 5.9; species: virginica; petalWidth: 2.1" role="graphics-symbol" aria-roledescription="point" transform="translate(168.57142857142858,38.46153846153846)" d="M2.7386127875258306,0A2.7386127875258306,2.7386127875258306,0,1,1,-2.7386127875258306,0A2.7386127875258306,2.7386127875258306,0,1,1,2.7386127875258306,0" stroke="#e45756" stroke-width="2" opacity="0.7"></path><path aria-label="petalLength: 5.6; species: virginica; petalWidth: 1.8" role="graphics-symbol" aria-roledescription="point" transform="translate(160,61.53846153846154)" d="M2.7386127875258306,0A2.7386127875258306,2.7386127875258306,0,1,1,-2.7386127875258306,0A2.7386127875258306,2.7386127875258306,0,1,1,2.7386127875258306,0" stroke="#e45756" stroke-width="2" opacity="0.7"></path><path aria-label="petalLength: 5.8; species: virginica; petalWidth: 2.2" role="graphics-symbol" aria-roledescription="point" transform="translate(165.7142857142857,30.76923076923077)" d="M2.7386127875258306,0A2.7386127875258306,2.7386127875258306,0,1,1,-2.7386127875258306,0A2.7386127875258306,2.7386127875258306,0,1,1,2.7386127875258306,0" stroke="#e45756" stroke-width="2" opacity="0.7"></path><path aria-label="petalLength: 6.6; species: virginica; petalWidth: 2.1" role="graphics-symbol" aria-roledescription="point" transform="translate(188.57142857142856,38.46153846153846)" d="M2.7386127875258306,0A2.7386127875258306,2.7386127875258306,0,1,1,-2.7386127875258306,0A2.7386127875258306,2.7386127875258306,0,1,1,2.7386127875258306,0" stroke="#e45756" stroke-width="2" opacity="0.7"></path><path aria-label="petalLength: 4.5; species: virginica; petalWidth: 1.7" role="graphics-symbol" aria-roledescription="point" transform="translate(128.57142857142858,69.23076923076923)" d="M2.7386127875258306,0A2.7386127875258306,2.7386127875258306,0,1,1,-2.7386127875258306,0A2.7386127875258306,2.7386127875258306,0,1,1,2.7386127875258306,0" stroke="#e45756" stroke-width="2" opacity="0.7"></path><path aria-label="petalLength: 6.3; species: virginica; petalWidth: 1.8" role="graphics-symbol" aria-roledescription="point" transform="translate(180,61.53846153846154)" d="M2.7386127875258306,0A2.7386127875258306,2.7386127875258306,0,1,1,-2.7386127875258306,0A2.7386127875258306,2.7386127875258306,0,1,1,2.7386127875258306,0" stroke="#e45756" stroke-width="2" opacity="0.7"></path><path aria-label="petalLength: 5.8; species: virginica; petalWidth: 1.8" role="graphics-symbol" aria-roledescription="point" transform="translate(165.7142857142857,61.53846153846154)" d="M2.7386127875258306,0A2.7386127875258306,2.7386127875258306,0,1,1,-2.7386127875258306,0A2.7386127875258306,2.7386127875258306,0,1,1,2.7386127875258306,0" stroke="#e45756" stroke-width="2" opacity="0.7"></path><path aria-label="petalLength: 6.1; species: virginica; petalWidth: 2.5" role="graphics-symbol" aria-roledescription="point" transform="translate(174.28571428571428,7.692307692307709)" d="M2.7386127875258306,0A2.7386127875258306,2.7386127875258306,0,1,1,-2.7386127875258306,0A2.7386127875258306,2.7386127875258306,0,1,1,2.7386127875258306,0" stroke="#e45756" stroke-width="2" opacity="0.7"></path><path aria-label="petalLength: 5.1; species: virginica; petalWidth: 2" role="graphics-symbol" aria-roledescription="point" transform="translate(145.7142857142857,46.15384615384617)" d="M2.7386127875258306,0A2.7386127875258306,2.7386127875258306,0,1,1,-2.7386127875258306,0A2.7386127875258306,2.7386127875258306,0,1,1,2.7386127875258306,0" stroke="#e45756" stroke-width="2" opacity="0.7"></path><path aria-label="petalLength: 5.3; species: virginica; petalWidth: 1.9" role="graphics-symbol" aria-roledescription="point" transform="translate(151.42857142857142,53.846153846153854)" d="M2.7386127875258306,0A2.7386127875258306,2.7386127875258306,0,1,1,-2.7386127875258306,0A2.7386127875258306,2.7386127875258306,0,1,1,2.7386127875258306,0" stroke="#e45756" stroke-width="2" opacity="0.7"></path><path aria-label="petalLength: 5.5; species: virginica; petalWidth: 2.1" role="graphics-symbol" aria-roledescription="point" transform="translate(157.14285714285714,38.46153846153846)" d="M2.7386127875258306,0A2.7386127875258306,2.7386127875258306,0,1,1,-2.7386127875258306,0A2.7386127875258306,2.7386127875258306,0,1,1,2.7386127875258306,0" stroke="#e45756" stroke-width="2" opacity="0.7"></path><path aria-label="petalLength: 5; species: virginica; petalWidth: 2" role="graphics-symbol" aria-roledescription="point" transform="translate(142.85714285714286,46.15384615384617)" d="M2.7386127875258306,0A2.7386127875258306,2.7386127875258306,0,1,1,-2.7386127875258306,0A2.7386127875258306,2.7386127875258306,0,1,1,2.7386127875258306,0" stroke="#e45756" stroke-width="2" opacity="0.7"></path><path aria-label="petalLength: 5.1; species: virginica; petalWidth: 2.4" role="graphics-symbol" aria-roledescription="point" transform="translate(145.7142857142857,15.384615384615397)" d="M2.7386127875258306,0A2.7386127875258306,2.7386127875258306,0,1,1,-2.7386127875258306,0A2.7386127875258306,2.7386127875258306,0,1,1,2.7386127875258306,0" stroke="#e45756" stroke-width="2" opacity="0.7"></path><path aria-label="petalLength: 5.3; species: virginica; petalWidth: 2.3" role="graphics-symbol" aria-roledescription="point" transform="translate(151.42857142857142,23.076923076923105)" d="M2.7386127875258306,0A2.7386127875258306,2.7386127875258306,0,1,1,-2.7386127875258306,0A2.7386127875258306,2.7386127875258306,0,1,1,2.7386127875258306,0" stroke="#e45756" stroke-width="2" opacity="0.7"></path><path aria-label="petalLength: 5.5; species: virginica; petalWidth: 1.8" role="graphics-symbol" aria-roledescription="point" transform="translate(157.14285714285714,61.53846153846154)" d="M2.7386127875258306,0A2.7386127875258306,2.7386127875258306,0,1,1,-2.7386127875258306,0A2.7386127875258306,2.7386127875258306,0,1,1,2.7386127875258306,0" stroke="#e45756" stroke-width="2" opacity="0.7"></path><path aria-label="petalLength: 6.7; species: virginica; petalWidth: 2.2" role="graphics-symbol" aria-roledescription="point" transform="translate(191.42857142857144,30.76923076923077)" d="M2.7386127875258306,0A2.7386127875258306,2.7386127875258306,0,1,1,-2.7386127875258306,0A2.7386127875258306,2.7386127875258306,0,1,1,2.7386127875258306,0" stroke="#e45756" stroke-width="2" opacity="0.7"></path><path aria-label="petalLength: 6.9; species: virginica; petalWidth: 2.3" role="graphics-symbol" aria-roledescription="point" transform="translate(197.14285714285717,23.076923076923105)" d="M2.7386127875258306,0A2.7386127875258306,2.7386127875258306,0,1,1,-2.7386127875258306,0A2.7386127875258306,2.7386127875258306,0,1,1,2.7386127875258306,0" stroke="#e45756" stroke-width="2" opacity="0.7"></path><path aria-label="petalLength: 5; species: virginica; petalWidth: 1.5" role="graphics-symbol" aria-roledescription="point" transform="translate(142.85714285714286,84.61538461538463)" d="M2.7386127875258306,0A2.7386127875258306,2.7386127875258306,0,1,1,-2.7386127875258306,0A2.7386127875258306,2.7386127875258306,0,1,1,2.7386127875258306,0" stroke="#e45756" stroke-width="2" opacity="0.7"></path><path aria-label="petalLength: 5.7; species: virginica; petalWidth: 2.3" role="graphics-symbol" aria-roledescription="point" transform="translate(162.85714285714286,23.076923076923105)" d="M2.7386127875258306,0A2.7386127875258306,2.7386127875258306,0,1,1,-2.7386127875258306,0A2.7386127875258306,2.7386127875258306,0,1,1,2.7386127875258306,0" stroke="#e45756" stroke-width="2" opacity="0.7"></path><path aria-label="petalLength: 4.9; species: virginica; petalWidth: 2" role="graphics-symbol" aria-roledescription="point" transform="translate(140,46.15384615384617)" d="M2.7386127875258306,0A2.7386127875258306,2.7386127875258306,0,1,1,-2.7386127875258306,0A2.7386127875258306,2.7386127875258306,0,1,1,2.7386127875258306,0" stroke="#e45756" stroke-width="2" opacity="0.7"></path><path aria-label="petalLength: 6.7; species: virginica; petalWidth: 2" role="graphics-symbol" aria-roledescription="point" transform="translate(191.42857142857144,46.15384615384617)" d="M2.7386127875258306,0A2.7386127875258306,2.7386127875258306,0,1,1,-2.7386127875258306,0A2.7386127875258306,2.7386127875258306,0,1,1,2.7386127875258306,0" stroke="#e45756" stroke-width="2" opacity="0.7"></path><path aria-label="petalLength: 4.9; species: virginica; petalWidth: 1.8" role="graphics-symbol" aria-roledescription="point" transform="translate(140,61.53846153846154)" d="M2.7386127875258306,0A2.7386127875258306,2.7386127875258306,0,1,1,-2.7386127875258306,0A2.7386127875258306,2.7386127875258306,0,1,1,2.7386127875258306,0" stroke="#e45756" stroke-width="2" opacity="0.7"></path><path aria-label="petalLength: 5.7; species: virginica; petalWidth: 2.1" role="graphics-symbol" aria-roledescription="point" transform="translate(162.85714285714286,38.46153846153846)" d="M2.7386127875258306,0A2.7386127875258306,2.7386127875258306,0,1,1,-2.7386127875258306,0A2.7386127875258306,2.7386127875258306,0,1,1,2.7386127875258306,0" stroke="#e45756" stroke-width="2" opacity="0.7"></path><path aria-label="petalLength: 6; species: virginica; petalWidth: 1.8" role="graphics-symbol" aria-roledescription="point" transform="translate(171.42857142857142,61.53846153846154)" d="M2.7386127875258306,0A2.7386127875258306,2.7386127875258306,0,1,1,-2.7386127875258306,0A2.7386127875258306,2.7386127875258306,0,1,1,2.7386127875258306,0" stroke="#e45756" stroke-width="2" opacity="0.7"></path><path aria-label="petalLength: 4.8; species: virginica; petalWidth: 1.8" role="graphics-symbol" aria-roledescription="point" transform="translate(137.14285714285714,61.53846153846154)" d="M2.7386127875258306,0A2.7386127875258306,2.7386127875258306,0,1,1,-2.7386127875258306,0A2.7386127875258306,2.7386127875258306,0,1,1,2.7386127875258306,0" stroke="#e45756" stroke-width="2" opacity="0.7"></path><path aria-label="petalLength: 4.9; species: virginica; petalWidth: 1.8" role="graphics-symbol" aria-roledescription="point" transform="translate(140,61.53846153846154)" d="M2.7386127875258306,0A2.7386127875258306,2.7386127875258306,0,1,1,-2.7386127875258306,0A2.7386127875258306,2.7386127875258306,0,1,1,2.7386127875258306,0" stroke="#e45756" stroke-width="2" opacity="0.7"></path><path aria-label="petalLength: 5.6; species: virginica; petalWidth: 2.1" role="graphics-symbol" aria-roledescription="point" transform="translate(160,38.46153846153846)" d="M2.7386127875258306,0A2.7386127875258306,2.7386127875258306,0,1,1,-2.7386127875258306,0A2.7386127875258306,2.7386127875258306,0,1,1,2.7386127875258306,0" stroke="#e45756" stroke-width="2" opacity="0.7"></path><path aria-label="petalLength: 5.8; species: virginica; petalWidth: 1.6" role="graphics-symbol" aria-roledescription="point" transform="translate(165.7142857142857,76.92307692307692)" d="M2.7386127875258306,0A2.7386127875258306,2.7386127875258306,0,1,1,-2.7386127875258306,0A2.7386127875258306,2.7386127875258306,0,1,1,2.7386127875258306,0" stroke="#e45756" stroke-width="2" opacity="0.7"></path><path aria-label="petalLength: 6.1; species: virginica; petalWidth: 1.9" role="graphics-symbol" aria-roledescription="point" transform="translate(174.28571428571428,53.846153846153854)" d="M2.7386127875258306,0A2.7386127875258306,2.7386127875258306,0,1,1,-2.7386127875258306,0A2.7386127875258306,2.7386127875258306,0,1,1,2.7386127875258306,0" stroke="#e45756" stroke-width="2" opacity="0.7"></path><path aria-label="petalLength: 6.4; species: virginica; petalWidth: 2" role="graphics-symbol" aria-roledescription="point" transform="translate(182.85714285714286,46.15384615384617)" d="M2.7386127875258306,0A2.7386127875258306,2.7386127875258306,0,1,1,-2.7386127875258306,0A2.7386127875258306,2.7386127875258306,0,1,1,2.7386127875258306,0" stroke="#e45756" stroke-width="2" opacity="0.7"></path><path aria-label="petalLength: 5.6; species: virginica; petalWidth: 2.2" role="graphics-symbol" aria-roledescription="point" transform="translate(160,30.76923076923077)" d="M2.7386127875258306,0A2.7386127875258306,2.7386127875258306,0,1,1,-2.7386127875258306,0A2.7386127875258306,2.7386127875258306,0,1,1,2.7386127875258306,0" stroke="#e45756" stroke-width="2" opacity="0.7"></path><path aria-label="petalLength: 5.1; species: virginica; petalWidth: 1.5" role="graphics-symbol" aria-roledescription="point" transform="translate(145.7142857142857,84.61538461538463)" d="M2.7386127875258306,0A2.7386127875258306,2.7386127875258306,0,1,1,-2.7386127875258306,0A2.7386127875258306,2.7386127875258306,0,1,1,2.7386127875258306,0" stroke="#e45756" stroke-width="2" opacity="0.7"></path><path aria-label="petalLength: 5.6; species: virginica; petalWidth: 1.4" role="graphics-symbol" aria-roledescription="point" transform="translate(160,92.3076923076923)" d="M2.7386127875258306,0A2.7386127875258306,2.7386127875258306,0,1,1,-2.7386127875258306,0A2.7386127875258306,2.7386127875258306,0,1,1,2.7386127875258306,0" stroke="#e45756" stroke-width="2" opacity="0.7"></path><path aria-label="petalLength: 6.1; species: virginica; petalWidth: 2.3" role="graphics-symbol" aria-roledescription="point" transform="translate(174.28571428571428,23.076923076923105)" d="M2.7386127875258306,0A2.7386127875258306,2.7386127875258306,0,1,1,-2.7386127875258306,0A2.7386127875258306,2.7386127875258306,0,1,1,2.7386127875258306,0" stroke="#e45756" stroke-width="2" opacity="0.7"></path><path aria-label="petalLength: 5.6; species: virginica; petalWidth: 2.4" role="graphics-symbol" aria-roledescription="point" transform="translate(160,15.384615384615397)" d="M2.7386127875258306,0A2.7386127875258306,2.7386127875258306,0,1,1,-2.7386127875258306,0A2.7386127875258306,2.7386127875258306,0,1,1,2.7386127875258306,0" stroke="#e45756" stroke-width="2" opacity="0.7"></path><path aria-label="petalLength: 5.5; species: virginica; petalWidth: 1.8" role="graphics-symbol" aria-roledescription="point" transform="translate(157.14285714285714,61.53846153846154)" d="M2.7386127875258306,0A2.7386127875258306,2.7386127875258306,0,1,1,-2.7386127875258306,0A2.7386127875258306,2.7386127875258306,0,1,1,2.7386127875258306,0" stroke="#e45756" stroke-width="2" opacity="0.7"></path><path aria-label="petalLength: 4.8; species: virginica; petalWidth: 1.8" role="graphics-symbol" aria-roledescription="point" transform="translate(137.14285714285714,61.53846153846154)" d="M2.7386127875258306,0A2.7386127875258306,2.7386127875258306,0,1,1,-2.7386127875258306,0A2.7386127875258306,2.7386127875258306,0,1,1,2.7386127875258306,0" stroke="#e45756" stroke-width="2" opacity="0.7"></path><path aria-label="petalLength: 5.4; species: virginica; petalWidth: 2.1" role="graphics-symbol" aria-roledescription="point" transform="translate(154.2857142857143,38.46153846153846)" d="M2.7386127875258306,0A2.7386127875258306,2.7386127875258306,0,1,1,-2.7386127875258306,0A2.7386127875258306,2.7386127875258306,0,1,1,2.7386127875258306,0" stroke="#e45756" stroke-width="2" opacity="0.7"></path><path aria-label="petalLength: 5.6; species: virginica; petalWidth: 2.4" role="graphics-symbol" aria-roledescription="point" transform="translate(160,15.384615384615397)" d="M2.7386127875258306,0A2.7386127875258306,2.7386127875258306,0,1,1,-2.7386127875258306,0A2.7386127875258306,2.7386127875258306,0,1,1,2.7386127875258306,0" stroke="#e45756" stroke-width="2" opacity="0.7"></path><path aria-label="petalLength: 5.1; species: virginica; petalWidth: 2.3" role="graphics-symbol" aria-roledescription="point" transform="translate(145.7142857142857,23.076923076923105)" d="M2.7386127875258306,0A2.7386127875258306,2.7386127875258306,0,1,1,-2.7386127875258306,0A2.7386127875258306,2.7386127875258306,0,1,1,2.7386127875258306,0" stroke="#e45756" stroke-width="2" opacity="0.7"></path><path aria-label="petalLength: 5.1; species: virginica; petalWidth: 1.9" role="graphics-symbol" aria-roledescription="point" transform="translate(145.7142857142857,53.846153846153854)" d="M2.7386127875258306,0A2.7386127875258306,2.7386127875258306,0,1,1,-2.7386127875258306,0A2.7386127875258306,2.7386127875258306,0,1,1,2.7386127875258306,0" stroke="#e45756" stroke-width="2" opacity="0.7"></path><path aria-label="petalLength: 5.9; species: virginica; petalWidth: 2.3" role="graphics-symbol" aria-roledescription="point" transform="translate(168.57142857142858,23.076923076923105)" d="M2.7386127875258306,0A2.7386127875258306,2.7386127875258306,0,1,1,-2.7386127875258306,0A2.7386127875258306,2.7386127875258306,0,1,1,2.7386127875258306,0" stroke="#e45756" stroke-width="2" opacity="0.7"></path><path aria-label="petalLength: 5.7; species: virginica; petalWidth: 2.5" role="graphics-symbol" aria-roledescription="point" transform="translate(162.85714285714286,7.692307692307709)" d="M2.7386127875258306,0A2.7386127875258306,2.7386127875258306,0,1,1,-2.7386127875258306,0A2.7386127875258306,2.7386127875258306,0,1,1,2.7386127875258306,0" stroke="#e45756" stroke-width="2" opacity="0.7"></path><path aria-label="petalLength: 5.2; species: virginica; petalWidth: 2.3" role="graphics-symbol" aria-roledescription="point" transform="translate(148.57142857142858,23.076923076923105)" d="M2.7386127875258306,0A2.7386127875258306,2.7386127875258306,0,1,1,-2.7386127875258306,0A2.7386127875258306,2.7386127875258306,0,1,1,2.7386127875258306,0" stroke="#e45756" stroke-width="2" opacity="0.7"></path><path aria-label="petalLength: 5; species: virginica; petalWidth: 1.9" role="graphics-symbol" aria-roledescription="point" transform="translate(142.85714285714286,53.846153846153854)" d="M2.7386127875258306,0A2.7386127875258306,2.7386127875258306,0,1,1,-2.7386127875258306,0A2.7386127875258306,2.7386127875258306,0,1,1,2.7386127875258306,0" stroke="#e45756" stroke-width="2" opacity="0.7"></path><path aria-label="petalLength: 5.2; species: virginica; petalWidth: 2" role="graphics-symbol" aria-roledescription="point" transform="translate(148.57142857142858,46.15384615384617)" d="M2.7386127875258306,0A2.7386127875258306,2.7386127875258306,0,1,1,-2.7386127875258306,0A2.7386127875258306,2.7386127875258306,0,1,1,2.7386127875258306,0" stroke="#e45756" stroke-width="2" opacity="0.7"></path><path aria-label="petalLength: 5.4; species: virginica; petalWidth: 2.3" role="graphics-symbol" aria-roledescription="point" transform="translate(154.2857142857143,23.076923076923105)" d="M2.7386127875258306,0A2.7386127875258306,2.7386127875258306,0,1,1,-2.7386127875258306,0A2.7386127875258306,2.7386127875258306,0,1,1,2.7386127875258306,0" stroke="#e45756" stroke-width="2" opacity="0.7"></path><path aria-label="petalLength: 5.1; species: virginica; petalWidth: 1.8" role="graphics-symbol" aria-roledescription="point" transform="translate(145.7142857142857,61.53846153846154)" d="M2.7386127875258306,0A2.7386127875258306,2.7386127875258306,0,1,1,-2.7386127875258306,0A2.7386127875258306,2.7386127875258306,0,1,1,2.7386127875258306,0" stroke="#e45756" stroke-width="2" opacity="0.7"></path></g><g class="mark-group role-legend" role="graphics-symbol" aria-roledescription="legend" aria-label="Symbol legend titled 'species' for stroke color with 3 values: setosa, versicolor, virginica"><g transform="translate(218,0)"><path class="background" aria-hidden="true" d="M0,0h62v61h-62Z" pointer-events="none"></path><g><g class="mark-group role-legend-entry"><g transform="translate(0,16)"><path class="background" aria-hidden="true" d="M0,0h0v0h0Z" pointer-events="none"></path><g><g class="mark-group role-scope" role="graphics-object" aria-roledescription="group mark container"><g transform="translate(0,0)"><path class="background" aria-hidden="true" d="M0,0h62v12.5h-62Z" pointer-events="none" opacity="1"></path><g><g class="mark-symbol role-legend-symbol" pointer-events="none"><path transform="translate(6,6)" d="M5,0A5,5,0,1,1,-5,0A5,5,0,1,1,5,0" stroke="#4c78a8" stroke-width="1.5" opacity="0.7"></path></g><g class="mark-text role-legend-label" pointer-events="none"><text text-anchor="start" transform="translate(16,9)" font-family="sans-serif" font-size="10px" fill="#000" opacity="1">setosa</text></g></g><path class="foreground" aria-hidden="true" d="" pointer-events="none" display="none"></path></g><g transform="translate(0,16)"><path class="background" aria-hidden="true" d="M0,0h62v12.5h-62Z" pointer-events="none" opacity="1"></path><g><g class="mark-symbol role-legend-symbol" pointer-events="none"><path transform="translate(6,6)" d="M5,0A5,5,0,1,1,-5,0A5,5,0,1,1,5,0" stroke="#f58518" stroke-width="1.5" opacity="0.7"></path></g><g class="mark-text role-legend-label" pointer-events="none"><text text-anchor="start" transform="translate(16,9)" font-family="sans-serif" font-size="10px" fill="#000" opacity="1">versicolor</text></g></g><path class="foreground" aria-hidden="true" d="" pointer-events="none" display="none"></path></g><g transform="translate(0,32)"><path class="background" aria-hidden="true" d="M0,0h62v12.5h-62Z" pointer-events="none" opacity="1"></path><g><g class="mark-symbol role-legend-symbol" pointer-events="none"><path transform="translate(6,6)" d="M5,0A5,5,0,1,1,-5,0A5,5,0,1,1,5,0" stroke="#e45756" stroke-width="1.5" opacity="0.7"></path></g><g class="mark-text role-legend-label" pointer-events="none"><text text-anchor="start" transform="translate(16,9)" font-family="sans-serif" font-size="10px" fill="#000" opacity="1">virginica</text></g></g><path class="foreground" aria-hidden="true" d="" pointer-events="none" display="none"></path></g></g></g><path class="foreground" aria-hidden="true" d="" pointer-events="none" display="none"></path></g></g><g class="mark-text role-legend-title" pointer-events="none"><text text-anchor="start" transform="translate(0,9)" font-family="sans-serif" font-size="11px" font-weight="bold" fill="#000" opacity="1">species</text></g></g><path class="foreground" aria-hidden="true" d="" pointer-events="none" display="none"></path></g></g></g><path class="foreground" aria-hidden="true" d="" display="none"></path></g></g></g></svg>
